# Dungine altar; 1 voxel = 1/16 unit; Y-up floor-center origin
mtllib altar.mtl
o altar
s off
v -0.437500 0.812500 -0.375000
v -0.437500 0.875000 -0.375000
v -0.437500 0.875000 -0.437500
v -0.437500 0.812500 -0.437500
v -0.375000 0.875000 -0.437500
v -0.375000 0.812500 -0.437500
v -0.375000 0.812500 -0.375000
v -0.437500 0.937500 -0.375000
v -0.437500 0.937500 -0.437500
v -0.375000 0.937500 -0.437500
v -0.437500 1.000000 -0.375000
v -0.437500 1.000000 -0.437500
v -0.375000 1.000000 -0.437500
v -0.375000 1.000000 -0.375000
v -0.437500 0.812500 -0.312500
v -0.437500 0.875000 -0.312500
v -0.375000 0.812500 -0.312500
v -0.437500 0.937500 -0.312500
v -0.437500 1.000000 -0.312500
v -0.375000 1.000000 -0.312500
v -0.437500 0.812500 -0.250000
v -0.437500 0.875000 -0.250000
v -0.375000 0.812500 -0.250000
v -0.437500 0.937500 -0.250000
v -0.437500 1.000000 -0.250000
v -0.375000 1.000000 -0.250000
v -0.437500 0.812500 -0.187500
v -0.437500 0.875000 -0.187500
v -0.375000 0.812500 -0.187500
v -0.437500 0.937500 -0.187500
v -0.437500 1.000000 -0.187500
v -0.375000 1.000000 -0.187500
v -0.437500 0.812500 -0.125000
v -0.437500 0.875000 -0.125000
v -0.375000 0.812500 -0.125000
v -0.437500 0.937500 -0.125000
v -0.437500 1.000000 -0.125000
v -0.375000 1.000000 -0.125000
v -0.437500 0.812500 -0.062500
v -0.437500 0.875000 -0.062500
v -0.375000 0.812500 -0.062500
v -0.437500 0.937500 -0.062500
v -0.437500 1.000000 -0.062500
v -0.375000 1.000000 -0.062500
v -0.437500 0.812500 0.000000
v -0.437500 0.875000 0.000000
v -0.375000 0.812500 0.000000
v -0.437500 0.937500 0.000000
v -0.437500 1.000000 0.000000
v -0.375000 1.000000 0.000000
v -0.437500 0.812500 0.062500
v -0.437500 0.875000 0.062500
v -0.375000 0.812500 0.062500
v -0.437500 0.937500 0.062500
v -0.437500 1.000000 0.062500
v -0.375000 1.000000 0.062500
v -0.437500 0.812500 0.125000
v -0.437500 0.875000 0.125000
v -0.375000 0.812500 0.125000
v -0.437500 0.937500 0.125000
v -0.437500 1.000000 0.125000
v -0.375000 1.000000 0.125000
v -0.437500 0.812500 0.187500
v -0.437500 0.875000 0.187500
v -0.375000 0.812500 0.187500
v -0.437500 0.937500 0.187500
v -0.437500 1.000000 0.187500
v -0.375000 1.000000 0.187500
v -0.437500 0.812500 0.250000
v -0.437500 0.875000 0.250000
v -0.375000 0.812500 0.250000
v -0.437500 0.937500 0.250000
v -0.437500 1.000000 0.250000
v -0.375000 1.000000 0.250000
v -0.437500 0.812500 0.312500
v -0.437500 0.875000 0.312500
v -0.375000 0.812500 0.312500
v -0.437500 0.937500 0.312500
v -0.437500 1.000000 0.312500
v -0.375000 1.000000 0.312500
v -0.437500 0.812500 0.375000
v -0.437500 0.875000 0.375000
v -0.375000 0.812500 0.375000
v -0.437500 0.937500 0.375000
v -0.437500 1.000000 0.375000
v -0.375000 1.000000 0.375000
v -0.437500 0.812500 0.437500
v -0.437500 0.875000 0.437500
v -0.375000 0.812500 0.437500
v -0.375000 0.875000 0.437500
v -0.437500 0.937500 0.437500
v -0.375000 0.937500 0.437500
v -0.437500 1.000000 0.437500
v -0.375000 1.000000 0.437500
v -0.312500 0.875000 -0.437500
v -0.312500 0.812500 -0.437500
v -0.312500 0.812500 -0.375000
v -0.312500 0.937500 -0.437500
v -0.312500 1.000000 -0.437500
v -0.312500 1.000000 -0.375000
v -0.375000 0.000000 -0.312500
v -0.375000 0.062500 -0.312500
v -0.375000 0.062500 -0.375000
v -0.375000 0.000000 -0.375000
v -0.312500 0.062500 -0.375000
v -0.312500 0.000000 -0.375000
v -0.312500 0.000000 -0.312500
v -0.375000 0.125000 -0.312500
v -0.375000 0.125000 -0.375000
v -0.312500 0.125000 -0.375000
v -0.375000 0.187500 -0.312500
v -0.375000 0.187500 -0.375000
v -0.312500 0.187500 -0.375000
v -0.312500 0.187500 -0.312500
v -0.312500 0.812500 -0.312500
v -0.312500 1.000000 -0.312500
v -0.375000 0.000000 -0.250000
v -0.375000 0.062500 -0.250000
v -0.312500 0.000000 -0.250000
v -0.375000 0.125000 -0.250000
v -0.375000 0.187500 -0.250000
v -0.312500 0.187500 -0.250000
v -0.312500 0.812500 -0.250000
v -0.312500 1.000000 -0.250000
v -0.375000 0.000000 -0.187500
v -0.375000 0.062500 -0.187500
v -0.312500 0.000000 -0.187500
v -0.375000 0.125000 -0.187500
v -0.375000 0.187500 -0.187500
v -0.312500 0.187500 -0.187500
v -0.312500 0.812500 -0.187500
v -0.312500 1.000000 -0.187500
v -0.375000 0.000000 -0.125000
v -0.375000 0.062500 -0.125000
v -0.312500 0.000000 -0.125000
v -0.375000 0.125000 -0.125000
v -0.375000 0.187500 -0.125000
v -0.312500 0.187500 -0.125000
v -0.312500 0.812500 -0.125000
v -0.312500 1.000000 -0.125000
v -0.375000 0.000000 -0.062500
v -0.375000 0.062500 -0.062500
v -0.312500 0.000000 -0.062500
v -0.375000 0.125000 -0.062500
v -0.375000 0.187500 -0.062500
v -0.312500 0.187500 -0.062500
v -0.312500 0.812500 -0.062500
v -0.312500 1.000000 -0.062500
v -0.375000 0.000000 0.000000
v -0.375000 0.062500 0.000000
v -0.312500 0.000000 0.000000
v -0.375000 0.125000 0.000000
v -0.375000 0.187500 0.000000
v -0.312500 0.187500 0.000000
v -0.312500 0.812500 0.000000
v -0.312500 1.000000 0.000000
v -0.375000 0.000000 0.062500
v -0.375000 0.062500 0.062500
v -0.312500 0.000000 0.062500
v -0.375000 0.125000 0.062500
v -0.375000 0.187500 0.062500
v -0.312500 0.187500 0.062500
v -0.312500 0.812500 0.062500
v -0.312500 1.000000 0.062500
v -0.375000 0.000000 0.125000
v -0.375000 0.062500 0.125000
v -0.312500 0.000000 0.125000
v -0.375000 0.125000 0.125000
v -0.375000 0.187500 0.125000
v -0.312500 0.187500 0.125000
v -0.312500 0.812500 0.125000
v -0.312500 1.000000 0.125000
v -0.375000 0.000000 0.187500
v -0.375000 0.062500 0.187500
v -0.312500 0.000000 0.187500
v -0.375000 0.125000 0.187500
v -0.375000 0.187500 0.187500
v -0.312500 0.187500 0.187500
v -0.312500 0.812500 0.187500
v -0.312500 1.000000 0.187500
v -0.375000 0.000000 0.250000
v -0.375000 0.062500 0.250000
v -0.312500 0.000000 0.250000
v -0.375000 0.125000 0.250000
v -0.375000 0.187500 0.250000
v -0.312500 0.187500 0.250000
v -0.312500 0.812500 0.250000
v -0.312500 1.000000 0.250000
v -0.375000 0.000000 0.312500
v -0.375000 0.062500 0.312500
v -0.312500 0.000000 0.312500
v -0.375000 0.125000 0.312500
v -0.375000 0.187500 0.312500
v -0.312500 0.187500 0.312500
v -0.312500 0.812500 0.312500
v -0.312500 1.000000 0.312500
v -0.375000 0.000000 0.375000
v -0.375000 0.062500 0.375000
v -0.312500 0.000000 0.375000
v -0.312500 0.062500 0.375000
v -0.375000 0.125000 0.375000
v -0.312500 0.125000 0.375000
v -0.375000 0.187500 0.375000
v -0.312500 0.187500 0.375000
v -0.312500 0.812500 0.375000
v -0.312500 1.000000 0.375000
v -0.312500 0.812500 0.437500
v -0.312500 0.875000 0.437500
v -0.312500 0.937500 0.437500
v -0.312500 1.000000 0.437500
v -0.250000 0.875000 -0.437500
v -0.250000 0.812500 -0.437500
v -0.250000 0.812500 -0.375000
v -0.250000 0.937500 -0.437500
v -0.250000 1.000000 -0.437500
v -0.250000 1.000000 -0.375000
v -0.250000 0.062500 -0.375000
v -0.250000 0.000000 -0.375000
v -0.250000 0.000000 -0.312500
v -0.250000 0.125000 -0.375000
v -0.250000 0.187500 -0.375000
v -0.250000 0.187500 -0.312500
v -0.250000 0.812500 -0.312500
v -0.250000 1.000000 -0.312500
v -0.250000 0.000000 -0.250000
v -0.250000 0.187500 -0.250000
v -0.250000 0.812500 -0.250000
v -0.250000 1.000000 -0.250000
v -0.250000 0.000000 -0.187500
v -0.250000 0.187500 -0.187500
v -0.250000 0.812500 -0.187500
v -0.250000 1.000000 -0.187500
v -0.250000 0.000000 -0.125000
v -0.250000 0.187500 -0.125000
v -0.250000 0.812500 -0.125000
v -0.250000 1.000000 -0.125000
v -0.250000 0.000000 -0.062500
v -0.250000 0.187500 -0.062500
v -0.250000 0.812500 -0.062500
v -0.250000 1.000000 -0.062500
v -0.250000 0.000000 0.000000
v -0.250000 0.187500 0.000000
v -0.250000 0.812500 0.000000
v -0.250000 1.000000 0.000000
v -0.250000 0.000000 0.062500
v -0.250000 0.187500 0.062500
v -0.250000 0.812500 0.062500
v -0.250000 1.000000 0.062500
v -0.250000 0.000000 0.125000
v -0.250000 0.187500 0.125000
v -0.250000 0.812500 0.125000
v -0.250000 1.000000 0.125000
v -0.250000 0.000000 0.187500
v -0.250000 0.187500 0.187500
v -0.250000 0.812500 0.187500
v -0.250000 1.000000 0.187500
v -0.250000 0.000000 0.250000
v -0.250000 0.187500 0.250000
v -0.250000 0.812500 0.250000
v -0.250000 1.000000 0.250000
v -0.250000 0.000000 0.312500
v -0.250000 0.187500 0.312500
v -0.250000 0.812500 0.312500
v -0.250000 1.000000 0.312500
v -0.250000 0.000000 0.375000
v -0.250000 0.062500 0.375000
v -0.250000 0.125000 0.375000
v -0.250000 0.187500 0.375000
v -0.250000 0.812500 0.375000
v -0.250000 1.000000 0.375000
v -0.250000 0.812500 0.437500
v -0.250000 0.875000 0.437500
v -0.250000 0.937500 0.437500
v -0.250000 1.000000 0.437500
v -0.187500 0.875000 -0.437500
v -0.187500 0.812500 -0.437500
v -0.187500 0.812500 -0.375000
v -0.187500 0.937500 -0.437500
v -0.187500 1.000000 -0.437500
v -0.187500 1.000000 -0.375000
v -0.187500 0.062500 -0.375000
v -0.187500 0.000000 -0.375000
v -0.187500 0.000000 -0.312500
v -0.187500 0.125000 -0.375000
v -0.187500 0.187500 -0.375000
v -0.187500 0.187500 -0.312500
v -0.187500 0.812500 -0.312500
v -0.187500 1.000000 -0.312500
v -0.187500 0.000000 -0.250000
v -0.187500 0.187500 -0.250000
v -0.187500 0.812500 -0.250000
v -0.187500 1.000000 -0.250000
v -0.187500 0.000000 -0.187500
v -0.250000 0.250000 -0.187500
v -0.250000 0.250000 -0.250000
v -0.187500 0.250000 -0.250000
v -0.250000 0.312500 -0.187500
v -0.250000 0.312500 -0.250000
v -0.187500 0.312500 -0.250000
v -0.250000 0.375000 -0.187500
v -0.250000 0.375000 -0.250000
v -0.187500 0.375000 -0.250000
v -0.250000 0.437500 -0.187500
v -0.250000 0.437500 -0.250000
v -0.187500 0.437500 -0.250000
v -0.250000 0.500000 -0.187500
v -0.250000 0.500000 -0.250000
v -0.187500 0.500000 -0.250000
v -0.250000 0.562500 -0.187500
v -0.250000 0.562500 -0.250000
v -0.187500 0.562500 -0.250000
v -0.250000 0.625000 -0.187500
v -0.250000 0.625000 -0.250000
v -0.187500 0.625000 -0.250000
v -0.250000 0.687500 -0.187500
v -0.250000 0.687500 -0.250000
v -0.187500 0.687500 -0.250000
v -0.250000 0.750000 -0.187500
v -0.250000 0.750000 -0.250000
v -0.187500 0.750000 -0.250000
v -0.187500 1.000000 -0.187500
v -0.187500 0.000000 -0.125000
v -0.250000 0.250000 -0.125000
v -0.250000 0.312500 -0.125000
v -0.250000 0.375000 -0.125000
v -0.250000 0.437500 -0.125000
v -0.250000 0.500000 -0.125000
v -0.250000 0.562500 -0.125000
v -0.250000 0.625000 -0.125000
v -0.250000 0.687500 -0.125000
v -0.250000 0.750000 -0.125000
v -0.187500 1.000000 -0.125000
v -0.187500 0.000000 -0.062500
v -0.250000 0.250000 -0.062500
v -0.250000 0.312500 -0.062500
v -0.250000 0.375000 -0.062500
v -0.250000 0.437500 -0.062500
v -0.250000 0.500000 -0.062500
v -0.250000 0.562500 -0.062500
v -0.250000 0.625000 -0.062500
v -0.250000 0.687500 -0.062500
v -0.250000 0.750000 -0.062500
v -0.187500 1.000000 -0.062500
v -0.187500 0.000000 0.000000
v -0.250000 0.250000 0.000000
v -0.250000 0.312500 0.000000
v -0.250000 0.375000 0.000000
v -0.250000 0.437500 0.000000
v -0.250000 0.500000 0.000000
v -0.250000 0.562500 0.000000
v -0.250000 0.625000 0.000000
v -0.250000 0.687500 0.000000
v -0.250000 0.750000 0.000000
v -0.187500 1.000000 0.000000
v -0.187500 0.000000 0.062500
v -0.250000 0.250000 0.062500
v -0.250000 0.312500 0.062500
v -0.250000 0.375000 0.062500
v -0.250000 0.437500 0.062500
v -0.250000 0.500000 0.062500
v -0.250000 0.562500 0.062500
v -0.250000 0.625000 0.062500
v -0.250000 0.687500 0.062500
v -0.250000 0.750000 0.062500
v -0.187500 1.000000 0.062500
v -0.187500 0.000000 0.125000
v -0.250000 0.250000 0.125000
v -0.250000 0.312500 0.125000
v -0.250000 0.375000 0.125000
v -0.250000 0.437500 0.125000
v -0.250000 0.500000 0.125000
v -0.250000 0.562500 0.125000
v -0.250000 0.625000 0.125000
v -0.250000 0.687500 0.125000
v -0.250000 0.750000 0.125000
v -0.187500 1.000000 0.125000
v -0.187500 0.000000 0.187500
v -0.250000 0.250000 0.187500
v -0.250000 0.312500 0.187500
v -0.250000 0.375000 0.187500
v -0.250000 0.437500 0.187500
v -0.250000 0.500000 0.187500
v -0.250000 0.562500 0.187500
v -0.250000 0.625000 0.187500
v -0.250000 0.687500 0.187500
v -0.250000 0.750000 0.187500
v -0.187500 1.000000 0.187500
v -0.187500 0.000000 0.250000
v -0.250000 0.250000 0.250000
v -0.187500 0.187500 0.250000
v -0.187500 0.250000 0.250000
v -0.250000 0.312500 0.250000
v -0.187500 0.312500 0.250000
v -0.250000 0.375000 0.250000
v -0.187500 0.375000 0.250000
v -0.250000 0.437500 0.250000
v -0.187500 0.437500 0.250000
v -0.250000 0.500000 0.250000
v -0.187500 0.500000 0.250000
v -0.250000 0.562500 0.250000
v -0.187500 0.562500 0.250000
v -0.250000 0.625000 0.250000
v -0.187500 0.625000 0.250000
v -0.250000 0.687500 0.250000
v -0.187500 0.687500 0.250000
v -0.250000 0.750000 0.250000
v -0.187500 0.750000 0.250000
v -0.187500 0.812500 0.250000
v -0.187500 1.000000 0.250000
v -0.187500 0.000000 0.312500
v -0.187500 0.187500 0.312500
v -0.187500 0.812500 0.312500
v -0.187500 1.000000 0.312500
v -0.187500 0.000000 0.375000
v -0.187500 0.062500 0.375000
v -0.187500 0.125000 0.375000
v -0.187500 0.187500 0.375000
v -0.187500 0.812500 0.375000
v -0.187500 1.000000 0.375000
v -0.187500 0.812500 0.437500
v -0.187500 0.875000 0.437500
v -0.187500 0.937500 0.437500
v -0.187500 1.000000 0.437500
v -0.125000 0.875000 -0.437500
v -0.125000 0.812500 -0.437500
v -0.125000 0.812500 -0.375000
v -0.125000 0.937500 -0.437500
v -0.125000 1.000000 -0.437500
v -0.125000 1.000000 -0.375000
v -0.125000 0.062500 -0.375000
v -0.125000 0.000000 -0.375000
v -0.125000 0.000000 -0.312500
v -0.125000 0.125000 -0.375000
v -0.125000 0.187500 -0.375000
v -0.125000 0.187500 -0.312500
v -0.125000 0.812500 -0.312500
v -0.125000 1.000000 -0.312500
v -0.125000 0.000000 -0.250000
v -0.125000 0.187500 -0.250000
v -0.125000 0.812500 -0.250000
v -0.125000 1.000000 -0.250000
v -0.125000 0.000000 -0.187500
v -0.125000 0.250000 -0.250000
v -0.125000 0.312500 -0.250000
v -0.125000 0.375000 -0.250000
v -0.125000 0.437500 -0.250000
v -0.125000 0.500000 -0.250000
v -0.125000 0.562500 -0.250000
v -0.125000 0.625000 -0.250000
v -0.125000 0.687500 -0.250000
v -0.125000 0.750000 -0.250000
v -0.125000 1.000000 -0.187500
v -0.125000 0.000000 -0.125000
v -0.125000 1.000000 -0.125000
v -0.125000 0.000000 -0.062500
v -0.125000 1.000000 -0.062500
v -0.125000 0.000000 0.000000
v -0.125000 1.000000 0.000000
v -0.125000 0.000000 0.062500
v -0.125000 1.000000 0.062500
v -0.125000 0.000000 0.125000
v -0.125000 1.000000 0.125000
v -0.125000 0.000000 0.187500
v -0.125000 1.000000 0.187500
v -0.125000 0.000000 0.250000
v -0.125000 0.187500 0.250000
v -0.125000 0.250000 0.250000
v -0.125000 0.312500 0.250000
v -0.125000 0.375000 0.250000
v -0.125000 0.437500 0.250000
v -0.125000 0.500000 0.250000
v -0.125000 0.562500 0.250000
v -0.125000 0.625000 0.250000
v -0.125000 0.687500 0.250000
v -0.125000 0.750000 0.250000
v -0.125000 0.812500 0.250000
v -0.125000 1.000000 0.250000
v -0.125000 0.000000 0.312500
v -0.125000 0.187500 0.312500
v -0.125000 0.812500 0.312500
v -0.125000 1.000000 0.312500
v -0.125000 0.000000 0.375000
v -0.125000 0.062500 0.375000
v -0.125000 0.125000 0.375000
v -0.125000 0.187500 0.375000
v -0.125000 0.812500 0.375000
v -0.125000 1.000000 0.375000
v -0.125000 0.812500 0.437500
v -0.125000 0.875000 0.437500
v -0.125000 0.937500 0.437500
v -0.125000 1.000000 0.437500
v -0.062500 0.875000 -0.437500
v -0.062500 0.812500 -0.437500
v -0.062500 0.812500 -0.375000
v -0.062500 0.937500 -0.437500
v -0.062500 1.000000 -0.437500
v -0.062500 1.000000 -0.375000
v -0.062500 0.062500 -0.375000
v -0.062500 0.000000 -0.375000
v -0.062500 0.000000 -0.312500
v -0.062500 0.125000 -0.375000
v -0.062500 0.187500 -0.375000
v -0.062500 0.187500 -0.312500
v -0.062500 0.812500 -0.312500
v -0.062500 1.000000 -0.312500
v -0.062500 0.000000 -0.250000
v -0.062500 0.187500 -0.250000
v -0.062500 0.812500 -0.250000
v -0.062500 1.000000 -0.250000
v -0.062500 0.000000 -0.187500
v -0.062500 0.250000 -0.250000
v -0.062500 0.312500 -0.250000
v -0.062500 0.375000 -0.250000
v -0.062500 0.437500 -0.250000
v -0.062500 0.500000 -0.250000
v -0.062500 0.562500 -0.250000
v -0.062500 0.625000 -0.250000
v -0.062500 0.687500 -0.250000
v -0.062500 0.750000 -0.250000
v -0.062500 1.000000 -0.187500
v -0.062500 0.000000 -0.125000
v -0.062500 1.000000 -0.125000
v -0.062500 0.000000 -0.062500
v -0.062500 1.000000 -0.062500
v -0.062500 0.000000 0.000000
v -0.062500 1.000000 0.000000
v -0.062500 0.000000 0.062500
v -0.062500 1.000000 0.062500
v -0.062500 0.000000 0.125000
v -0.062500 1.000000 0.125000
v -0.062500 0.000000 0.187500
v -0.062500 1.000000 0.187500
v -0.062500 0.000000 0.250000
v -0.062500 0.187500 0.250000
v -0.062500 0.250000 0.250000
v -0.062500 0.312500 0.250000
v -0.062500 0.375000 0.250000
v -0.062500 0.437500 0.250000
v -0.062500 0.500000 0.250000
v -0.062500 0.562500 0.250000
v -0.062500 0.625000 0.250000
v -0.062500 0.687500 0.250000
v -0.062500 0.750000 0.250000
v -0.062500 0.812500 0.250000
v -0.062500 1.000000 0.250000
v -0.062500 0.000000 0.312500
v -0.062500 0.187500 0.312500
v -0.062500 0.812500 0.312500
v -0.062500 1.000000 0.312500
v -0.062500 0.000000 0.375000
v -0.062500 0.062500 0.375000
v -0.062500 0.125000 0.375000
v -0.062500 0.187500 0.375000
v -0.062500 0.812500 0.375000
v -0.062500 1.000000 0.375000
v -0.062500 0.812500 0.437500
v -0.062500 0.875000 0.437500
v -0.062500 0.937500 0.437500
v -0.062500 1.000000 0.437500
v 0.000000 0.875000 -0.437500
v 0.000000 0.812500 -0.437500
v 0.000000 0.812500 -0.375000
v 0.000000 0.937500 -0.437500
v 0.000000 1.000000 -0.437500
v 0.000000 1.000000 -0.375000
v 0.000000 0.062500 -0.375000
v 0.000000 0.000000 -0.375000
v 0.000000 0.000000 -0.312500
v 0.000000 0.125000 -0.375000
v 0.000000 0.187500 -0.375000
v 0.000000 0.187500 -0.312500
v 0.000000 0.812500 -0.312500
v 0.000000 1.000000 -0.312500
v 0.000000 0.000000 -0.250000
v 0.000000 0.187500 -0.250000
v 0.000000 0.812500 -0.250000
v 0.000000 1.000000 -0.250000
v 0.000000 0.000000 -0.187500
v 0.000000 0.250000 -0.250000
v 0.000000 0.312500 -0.250000
v 0.000000 0.375000 -0.250000
v 0.000000 0.437500 -0.250000
v 0.000000 0.500000 -0.250000
v 0.000000 0.562500 -0.250000
v 0.000000 0.625000 -0.250000
v 0.000000 0.687500 -0.250000
v 0.000000 0.750000 -0.250000
v 0.000000 1.000000 -0.187500
v 0.000000 0.000000 -0.125000
v 0.000000 1.000000 -0.125000
v 0.000000 0.000000 -0.062500
v 0.000000 1.000000 -0.062500
v 0.000000 0.000000 0.000000
v 0.000000 1.000000 0.000000
v 0.000000 0.000000 0.062500
v 0.000000 1.000000 0.062500
v 0.000000 0.000000 0.125000
v 0.000000 1.000000 0.125000
v 0.000000 0.000000 0.187500
v 0.000000 1.000000 0.187500
v 0.000000 0.000000 0.250000
v 0.000000 0.187500 0.250000
v 0.000000 0.250000 0.250000
v 0.000000 0.312500 0.250000
v 0.000000 0.375000 0.250000
v 0.000000 0.437500 0.250000
v 0.000000 0.500000 0.250000
v 0.000000 0.562500 0.250000
v 0.000000 0.625000 0.250000
v 0.000000 0.687500 0.250000
v 0.000000 0.750000 0.250000
v 0.000000 0.812500 0.250000
v 0.000000 1.000000 0.250000
v 0.000000 0.000000 0.312500
v 0.000000 0.187500 0.312500
v 0.000000 0.812500 0.312500
v 0.000000 1.000000 0.312500
v 0.000000 0.000000 0.375000
v 0.000000 0.062500 0.375000
v 0.000000 0.125000 0.375000
v 0.000000 0.187500 0.375000
v 0.000000 0.812500 0.375000
v 0.000000 1.000000 0.375000
v 0.000000 0.812500 0.437500
v 0.000000 0.875000 0.437500
v 0.000000 0.937500 0.437500
v 0.000000 1.000000 0.437500
v 0.062500 0.875000 -0.437500
v 0.062500 0.812500 -0.437500
v 0.062500 0.812500 -0.375000
v 0.062500 0.937500 -0.437500
v 0.062500 1.000000 -0.437500
v 0.062500 1.000000 -0.375000
v 0.062500 0.062500 -0.375000
v 0.062500 0.000000 -0.375000
v 0.062500 0.000000 -0.312500
v 0.062500 0.125000 -0.375000
v 0.062500 0.187500 -0.375000
v 0.062500 0.187500 -0.312500
v 0.062500 0.812500 -0.312500
v 0.062500 1.000000 -0.312500
v 0.062500 0.000000 -0.250000
v 0.062500 0.187500 -0.250000
v 0.062500 0.812500 -0.250000
v 0.062500 1.000000 -0.250000
v 0.062500 0.000000 -0.187500
v 0.062500 0.250000 -0.250000
v 0.062500 0.312500 -0.250000
v 0.062500 0.375000 -0.250000
v 0.062500 0.437500 -0.250000
v 0.062500 0.500000 -0.250000
v 0.062500 0.562500 -0.250000
v 0.062500 0.625000 -0.250000
v 0.062500 0.687500 -0.250000
v 0.062500 0.750000 -0.250000
v 0.062500 1.000000 -0.187500
v 0.062500 0.000000 -0.125000
v 0.062500 1.000000 -0.125000
v 0.062500 0.000000 -0.062500
v 0.062500 1.000000 -0.062500
v 0.062500 0.000000 0.000000
v 0.062500 1.000000 0.000000
v 0.062500 0.000000 0.062500
v 0.062500 1.000000 0.062500
v 0.062500 0.000000 0.125000
v 0.062500 1.000000 0.125000
v 0.062500 0.000000 0.187500
v 0.062500 1.000000 0.187500
v 0.062500 0.000000 0.250000
v 0.062500 0.187500 0.250000
v 0.062500 0.250000 0.250000
v 0.062500 0.312500 0.250000
v 0.062500 0.375000 0.250000
v 0.062500 0.437500 0.250000
v 0.062500 0.500000 0.250000
v 0.062500 0.562500 0.250000
v 0.062500 0.625000 0.250000
v 0.062500 0.687500 0.250000
v 0.062500 0.750000 0.250000
v 0.062500 0.812500 0.250000
v 0.062500 1.000000 0.250000
v 0.062500 0.000000 0.312500
v 0.062500 0.187500 0.312500
v 0.062500 0.812500 0.312500
v 0.062500 1.000000 0.312500
v 0.062500 0.000000 0.375000
v 0.062500 0.062500 0.375000
v 0.062500 0.125000 0.375000
v 0.062500 0.187500 0.375000
v 0.062500 0.812500 0.375000
v 0.062500 1.000000 0.375000
v 0.062500 0.812500 0.437500
v 0.062500 0.875000 0.437500
v 0.062500 0.937500 0.437500
v 0.062500 1.000000 0.437500
v 0.125000 0.875000 -0.437500
v 0.125000 0.812500 -0.437500
v 0.125000 0.812500 -0.375000
v 0.125000 0.937500 -0.437500
v 0.125000 1.000000 -0.437500
v 0.125000 1.000000 -0.375000
v 0.125000 0.062500 -0.375000
v 0.125000 0.000000 -0.375000
v 0.125000 0.000000 -0.312500
v 0.125000 0.125000 -0.375000
v 0.125000 0.187500 -0.375000
v 0.125000 0.187500 -0.312500
v 0.125000 0.812500 -0.312500
v 0.125000 1.000000 -0.312500
v 0.125000 0.000000 -0.250000
v 0.125000 0.187500 -0.250000
v 0.125000 0.812500 -0.250000
v 0.125000 1.000000 -0.250000
v 0.125000 0.000000 -0.187500
v 0.125000 0.250000 -0.250000
v 0.125000 0.312500 -0.250000
v 0.125000 0.375000 -0.250000
v 0.125000 0.437500 -0.250000
v 0.125000 0.500000 -0.250000
v 0.125000 0.562500 -0.250000
v 0.125000 0.625000 -0.250000
v 0.125000 0.687500 -0.250000
v 0.125000 0.750000 -0.250000
v 0.125000 1.000000 -0.187500
v 0.125000 0.000000 -0.125000
v 0.125000 1.000000 -0.125000
v 0.125000 0.000000 -0.062500
v 0.125000 1.000000 -0.062500
v 0.125000 0.000000 0.000000
v 0.125000 1.000000 0.000000
v 0.125000 0.000000 0.062500
v 0.125000 1.000000 0.062500
v 0.125000 0.000000 0.125000
v 0.125000 1.000000 0.125000
v 0.125000 0.000000 0.187500
v 0.125000 1.000000 0.187500
v 0.125000 0.000000 0.250000
v 0.125000 0.187500 0.250000
v 0.125000 0.250000 0.250000
v 0.125000 0.312500 0.250000
v 0.125000 0.375000 0.250000
v 0.125000 0.437500 0.250000
v 0.125000 0.500000 0.250000
v 0.125000 0.562500 0.250000
v 0.125000 0.625000 0.250000
v 0.125000 0.687500 0.250000
v 0.125000 0.750000 0.250000
v 0.125000 0.812500 0.250000
v 0.125000 1.000000 0.250000
v 0.125000 0.000000 0.312500
v 0.125000 0.187500 0.312500
v 0.125000 0.812500 0.312500
v 0.125000 1.000000 0.312500
v 0.125000 0.000000 0.375000
v 0.125000 0.062500 0.375000
v 0.125000 0.125000 0.375000
v 0.125000 0.187500 0.375000
v 0.125000 0.812500 0.375000
v 0.125000 1.000000 0.375000
v 0.125000 0.812500 0.437500
v 0.125000 0.875000 0.437500
v 0.125000 0.937500 0.437500
v 0.125000 1.000000 0.437500
v 0.187500 0.875000 -0.437500
v 0.187500 0.812500 -0.437500
v 0.187500 0.812500 -0.375000
v 0.187500 0.937500 -0.437500
v 0.187500 1.000000 -0.437500
v 0.187500 1.000000 -0.375000
v 0.187500 0.062500 -0.375000
v 0.187500 0.000000 -0.375000
v 0.187500 0.000000 -0.312500
v 0.187500 0.125000 -0.375000
v 0.187500 0.187500 -0.375000
v 0.187500 0.187500 -0.312500
v 0.187500 0.812500 -0.312500
v 0.187500 1.000000 -0.312500
v 0.187500 0.000000 -0.250000
v 0.187500 0.187500 -0.250000
v 0.187500 0.812500 -0.250000
v 0.187500 1.000000 -0.250000
v 0.187500 0.000000 -0.187500
v 0.187500 0.250000 -0.250000
v 0.187500 0.312500 -0.250000
v 0.187500 0.375000 -0.250000
v 0.187500 0.437500 -0.250000
v 0.187500 0.500000 -0.250000
v 0.187500 0.562500 -0.250000
v 0.187500 0.625000 -0.250000
v 0.187500 0.687500 -0.250000
v 0.187500 0.750000 -0.250000
v 0.187500 1.000000 -0.187500
v 0.187500 0.000000 -0.125000
v 0.187500 1.000000 -0.125000
v 0.187500 0.000000 -0.062500
v 0.187500 1.000000 -0.062500
v 0.187500 0.000000 0.000000
v 0.187500 1.000000 0.000000
v 0.187500 0.000000 0.062500
v 0.187500 1.000000 0.062500
v 0.187500 0.000000 0.125000
v 0.187500 1.000000 0.125000
v 0.187500 0.000000 0.187500
v 0.187500 1.000000 0.187500
v 0.187500 0.000000 0.250000
v 0.187500 0.187500 0.250000
v 0.187500 0.250000 0.250000
v 0.187500 0.312500 0.250000
v 0.187500 0.375000 0.250000
v 0.187500 0.437500 0.250000
v 0.187500 0.500000 0.250000
v 0.187500 0.562500 0.250000
v 0.187500 0.625000 0.250000
v 0.187500 0.687500 0.250000
v 0.187500 0.750000 0.250000
v 0.187500 0.812500 0.250000
v 0.187500 1.000000 0.250000
v 0.187500 0.000000 0.312500
v 0.187500 0.187500 0.312500
v 0.187500 0.812500 0.312500
v 0.187500 1.000000 0.312500
v 0.187500 0.000000 0.375000
v 0.187500 0.062500 0.375000
v 0.187500 0.125000 0.375000
v 0.187500 0.187500 0.375000
v 0.187500 0.812500 0.375000
v 0.187500 1.000000 0.375000
v 0.187500 0.812500 0.437500
v 0.187500 0.875000 0.437500
v 0.187500 0.937500 0.437500
v 0.187500 1.000000 0.437500
v 0.250000 0.875000 -0.437500
v 0.250000 0.812500 -0.437500
v 0.250000 0.812500 -0.375000
v 0.250000 0.937500 -0.437500
v 0.250000 1.000000 -0.437500
v 0.250000 1.000000 -0.375000
v 0.250000 0.062500 -0.375000
v 0.250000 0.000000 -0.375000
v 0.250000 0.000000 -0.312500
v 0.250000 0.125000 -0.375000
v 0.250000 0.187500 -0.375000
v 0.250000 0.187500 -0.312500
v 0.250000 0.812500 -0.312500
v 0.250000 1.000000 -0.312500
v 0.250000 0.000000 -0.250000
v 0.250000 0.187500 -0.250000
v 0.250000 0.812500 -0.250000
v 0.250000 1.000000 -0.250000
v 0.250000 0.000000 -0.187500
v 0.250000 0.250000 -0.250000
v 0.250000 0.250000 -0.187500
v 0.250000 0.187500 -0.187500
v 0.250000 0.312500 -0.250000
v 0.250000 0.312500 -0.187500
v 0.250000 0.375000 -0.250000
v 0.250000 0.375000 -0.187500
v 0.250000 0.437500 -0.250000
v 0.250000 0.437500 -0.187500
v 0.250000 0.500000 -0.250000
v 0.250000 0.500000 -0.187500
v 0.250000 0.562500 -0.250000
v 0.250000 0.562500 -0.187500
v 0.250000 0.625000 -0.250000
v 0.250000 0.625000 -0.187500
v 0.250000 0.687500 -0.250000
v 0.250000 0.687500 -0.187500
v 0.250000 0.750000 -0.250000
v 0.250000 0.750000 -0.187500
v 0.250000 0.812500 -0.187500
v 0.250000 1.000000 -0.187500
v 0.250000 0.000000 -0.125000
v 0.250000 0.250000 -0.125000
v 0.250000 0.187500 -0.125000
v 0.250000 0.312500 -0.125000
v 0.250000 0.375000 -0.125000
v 0.250000 0.437500 -0.125000
v 0.250000 0.500000 -0.125000
v 0.250000 0.562500 -0.125000
v 0.250000 0.625000 -0.125000
v 0.250000 0.687500 -0.125000
v 0.250000 0.750000 -0.125000
v 0.250000 0.812500 -0.125000
v 0.250000 1.000000 -0.125000
v 0.250000 0.000000 -0.062500
v 0.250000 0.250000 -0.062500
v 0.250000 0.187500 -0.062500
v 0.250000 0.312500 -0.062500
v 0.250000 0.375000 -0.062500
v 0.250000 0.437500 -0.062500
v 0.250000 0.500000 -0.062500
v 0.250000 0.562500 -0.062500
v 0.250000 0.625000 -0.062500
v 0.250000 0.687500 -0.062500
v 0.250000 0.750000 -0.062500
v 0.250000 0.812500 -0.062500
v 0.250000 1.000000 -0.062500
v 0.250000 0.000000 0.000000
v 0.250000 0.250000 0.000000
v 0.250000 0.187500 0.000000
v 0.250000 0.312500 0.000000
v 0.250000 0.375000 0.000000
v 0.250000 0.437500 0.000000
v 0.250000 0.500000 0.000000
v 0.250000 0.562500 0.000000
v 0.250000 0.625000 0.000000
v 0.250000 0.687500 0.000000
v 0.250000 0.750000 0.000000
v 0.250000 0.812500 0.000000
v 0.250000 1.000000 0.000000
v 0.250000 0.000000 0.062500
v 0.250000 0.250000 0.062500
v 0.250000 0.187500 0.062500
v 0.250000 0.312500 0.062500
v 0.250000 0.375000 0.062500
v 0.250000 0.437500 0.062500
v 0.250000 0.500000 0.062500
v 0.250000 0.562500 0.062500
v 0.250000 0.625000 0.062500
v 0.250000 0.687500 0.062500
v 0.250000 0.750000 0.062500
v 0.250000 0.812500 0.062500
v 0.250000 1.000000 0.062500
v 0.250000 0.000000 0.125000
v 0.250000 0.250000 0.125000
v 0.250000 0.187500 0.125000
v 0.250000 0.312500 0.125000
v 0.250000 0.375000 0.125000
v 0.250000 0.437500 0.125000
v 0.250000 0.500000 0.125000
v 0.250000 0.562500 0.125000
v 0.250000 0.625000 0.125000
v 0.250000 0.687500 0.125000
v 0.250000 0.750000 0.125000
v 0.250000 0.812500 0.125000
v 0.250000 1.000000 0.125000
v 0.250000 0.000000 0.187500
v 0.250000 0.250000 0.187500
v 0.250000 0.187500 0.187500
v 0.250000 0.312500 0.187500
v 0.250000 0.375000 0.187500
v 0.250000 0.437500 0.187500
v 0.250000 0.500000 0.187500
v 0.250000 0.562500 0.187500
v 0.250000 0.625000 0.187500
v 0.250000 0.687500 0.187500
v 0.250000 0.750000 0.187500
v 0.250000 0.812500 0.187500
v 0.250000 1.000000 0.187500
v 0.250000 0.000000 0.250000
v 0.250000 0.250000 0.250000
v 0.250000 0.187500 0.250000
v 0.250000 0.312500 0.250000
v 0.250000 0.375000 0.250000
v 0.250000 0.437500 0.250000
v 0.250000 0.500000 0.250000
v 0.250000 0.562500 0.250000
v 0.250000 0.625000 0.250000
v 0.250000 0.687500 0.250000
v 0.250000 0.750000 0.250000
v 0.250000 0.812500 0.250000
v 0.250000 1.000000 0.250000
v 0.250000 0.000000 0.312500
v 0.250000 0.187500 0.312500
v 0.250000 0.812500 0.312500
v 0.250000 1.000000 0.312500
v 0.250000 0.000000 0.375000
v 0.250000 0.062500 0.375000
v 0.250000 0.125000 0.375000
v 0.250000 0.187500 0.375000
v 0.250000 0.812500 0.375000
v 0.250000 1.000000 0.375000
v 0.250000 0.812500 0.437500
v 0.250000 0.875000 0.437500
v 0.250000 0.937500 0.437500
v 0.250000 1.000000 0.437500
v 0.312500 0.875000 -0.437500
v 0.312500 0.812500 -0.437500
v 0.312500 0.812500 -0.375000
v 0.312500 0.937500 -0.437500
v 0.312500 1.000000 -0.437500
v 0.312500 1.000000 -0.375000
v 0.312500 0.062500 -0.375000
v 0.312500 0.000000 -0.375000
v 0.312500 0.000000 -0.312500
v 0.312500 0.125000 -0.375000
v 0.312500 0.187500 -0.375000
v 0.312500 0.187500 -0.312500
v 0.312500 0.812500 -0.312500
v 0.312500 1.000000 -0.312500
v 0.312500 0.000000 -0.250000
v 0.312500 0.187500 -0.250000
v 0.312500 0.812500 -0.250000
v 0.312500 1.000000 -0.250000
v 0.312500 0.000000 -0.187500
v 0.312500 0.187500 -0.187500
v 0.312500 0.812500 -0.187500
v 0.312500 1.000000 -0.187500
v 0.312500 0.000000 -0.125000
v 0.312500 0.187500 -0.125000
v 0.312500 0.812500 -0.125000
v 0.312500 1.000000 -0.125000
v 0.312500 0.000000 -0.062500
v 0.312500 0.187500 -0.062500
v 0.312500 0.812500 -0.062500
v 0.312500 1.000000 -0.062500
v 0.312500 0.000000 0.000000
v 0.312500 0.187500 0.000000
v 0.312500 0.812500 0.000000
v 0.312500 1.000000 0.000000
v 0.312500 0.000000 0.062500
v 0.312500 0.187500 0.062500
v 0.312500 0.812500 0.062500
v 0.312500 1.000000 0.062500
v 0.312500 0.000000 0.125000
v 0.312500 0.187500 0.125000
v 0.312500 0.812500 0.125000
v 0.312500 1.000000 0.125000
v 0.312500 0.000000 0.187500
v 0.312500 0.187500 0.187500
v 0.312500 0.812500 0.187500
v 0.312500 1.000000 0.187500
v 0.312500 0.000000 0.250000
v 0.312500 0.187500 0.250000
v 0.312500 0.812500 0.250000
v 0.312500 1.000000 0.250000
v 0.312500 0.000000 0.312500
v 0.312500 0.187500 0.312500
v 0.312500 0.812500 0.312500
v 0.312500 1.000000 0.312500
v 0.312500 0.000000 0.375000
v 0.312500 0.062500 0.375000
v 0.312500 0.125000 0.375000
v 0.312500 0.187500 0.375000
v 0.312500 0.812500 0.375000
v 0.312500 1.000000 0.375000
v 0.312500 0.812500 0.437500
v 0.312500 0.875000 0.437500
v 0.312500 0.937500 0.437500
v 0.312500 1.000000 0.437500
v 0.375000 0.875000 -0.437500
v 0.375000 0.812500 -0.437500
v 0.375000 0.812500 -0.375000
v 0.375000 0.937500 -0.437500
v 0.375000 1.000000 -0.437500
v 0.375000 1.000000 -0.375000
v 0.375000 0.062500 -0.375000
v 0.375000 0.062500 -0.312500
v 0.375000 0.000000 -0.312500
v 0.375000 0.000000 -0.375000
v 0.375000 0.125000 -0.375000
v 0.375000 0.125000 -0.312500
v 0.375000 0.187500 -0.375000
v 0.375000 0.187500 -0.312500
v 0.375000 0.812500 -0.312500
v 0.375000 1.000000 -0.312500
v 0.375000 0.062500 -0.250000
v 0.375000 0.000000 -0.250000
v 0.375000 0.125000 -0.250000
v 0.375000 0.187500 -0.250000
v 0.375000 0.812500 -0.250000
v 0.375000 1.000000 -0.250000
v 0.375000 0.062500 -0.187500
v 0.375000 0.000000 -0.187500
v 0.375000 0.125000 -0.187500
v 0.375000 0.187500 -0.187500
v 0.375000 0.812500 -0.187500
v 0.375000 1.000000 -0.187500
v 0.375000 0.062500 -0.125000
v 0.375000 0.000000 -0.125000
v 0.375000 0.125000 -0.125000
v 0.375000 0.187500 -0.125000
v 0.375000 0.812500 -0.125000
v 0.375000 1.000000 -0.125000
v 0.375000 0.062500 -0.062500
v 0.375000 0.000000 -0.062500
v 0.375000 0.125000 -0.062500
v 0.375000 0.187500 -0.062500
v 0.375000 0.812500 -0.062500
v 0.375000 1.000000 -0.062500
v 0.375000 0.062500 0.000000
v 0.375000 0.000000 0.000000
v 0.375000 0.125000 0.000000
v 0.375000 0.187500 0.000000
v 0.375000 0.812500 0.000000
v 0.375000 1.000000 0.000000
v 0.375000 0.062500 0.062500
v 0.375000 0.000000 0.062500
v 0.375000 0.125000 0.062500
v 0.375000 0.187500 0.062500
v 0.375000 0.812500 0.062500
v 0.375000 1.000000 0.062500
v 0.375000 0.062500 0.125000
v 0.375000 0.000000 0.125000
v 0.375000 0.125000 0.125000
v 0.375000 0.187500 0.125000
v 0.375000 0.812500 0.125000
v 0.375000 1.000000 0.125000
v 0.375000 0.062500 0.187500
v 0.375000 0.000000 0.187500
v 0.375000 0.125000 0.187500
v 0.375000 0.187500 0.187500
v 0.375000 0.812500 0.187500
v 0.375000 1.000000 0.187500
v 0.375000 0.062500 0.250000
v 0.375000 0.000000 0.250000
v 0.375000 0.125000 0.250000
v 0.375000 0.187500 0.250000
v 0.375000 0.812500 0.250000
v 0.375000 1.000000 0.250000
v 0.375000 0.062500 0.312500
v 0.375000 0.000000 0.312500
v 0.375000 0.125000 0.312500
v 0.375000 0.187500 0.312500
v 0.375000 0.812500 0.312500
v 0.375000 1.000000 0.312500
v 0.375000 0.062500 0.375000
v 0.375000 0.000000 0.375000
v 0.375000 0.125000 0.375000
v 0.375000 0.187500 0.375000
v 0.375000 0.812500 0.375000
v 0.375000 1.000000 0.375000
v 0.375000 0.812500 0.437500
v 0.375000 0.875000 0.437500
v 0.375000 0.937500 0.437500
v 0.375000 1.000000 0.437500
v 0.437500 0.875000 -0.437500
v 0.437500 0.875000 -0.375000
v 0.437500 0.812500 -0.375000
v 0.437500 0.812500 -0.437500
v 0.437500 0.937500 -0.437500
v 0.437500 0.937500 -0.375000
v 0.437500 1.000000 -0.437500
v 0.437500 1.000000 -0.375000
v 0.437500 0.875000 -0.312500
v 0.437500 0.812500 -0.312500
v 0.437500 0.937500 -0.312500
v 0.437500 1.000000 -0.312500
v 0.437500 0.875000 -0.250000
v 0.437500 0.812500 -0.250000
v 0.437500 0.937500 -0.250000
v 0.437500 1.000000 -0.250000
v 0.437500 0.875000 -0.187500
v 0.437500 0.812500 -0.187500
v 0.437500 0.937500 -0.187500
v 0.437500 1.000000 -0.187500
v 0.437500 0.875000 -0.125000
v 0.437500 0.812500 -0.125000
v 0.437500 0.937500 -0.125000
v 0.437500 1.000000 -0.125000
v 0.437500 0.875000 -0.062500
v 0.437500 0.812500 -0.062500
v 0.437500 0.937500 -0.062500
v 0.437500 1.000000 -0.062500
v 0.437500 0.875000 0.000000
v 0.437500 0.812500 0.000000
v 0.437500 0.937500 0.000000
v 0.437500 1.000000 0.000000
v 0.437500 0.875000 0.062500
v 0.437500 0.812500 0.062500
v 0.437500 0.937500 0.062500
v 0.437500 1.000000 0.062500
v 0.437500 0.875000 0.125000
v 0.437500 0.812500 0.125000
v 0.437500 0.937500 0.125000
v 0.437500 1.000000 0.125000
v 0.437500 0.875000 0.187500
v 0.437500 0.812500 0.187500
v 0.437500 0.937500 0.187500
v 0.437500 1.000000 0.187500
v 0.437500 0.875000 0.250000
v 0.437500 0.812500 0.250000
v 0.437500 0.937500 0.250000
v 0.437500 1.000000 0.250000
v 0.437500 0.875000 0.312500
v 0.437500 0.812500 0.312500
v 0.437500 0.937500 0.312500
v 0.437500 1.000000 0.312500
v 0.437500 0.875000 0.375000
v 0.437500 0.812500 0.375000
v 0.437500 0.937500 0.375000
v 0.437500 1.000000 0.375000
v 0.437500 0.875000 0.437500
v 0.437500 0.812500 0.437500
v 0.437500 0.937500 0.437500
v 0.437500 1.000000 0.437500
vt 0.03125000 0.96875000
vt 0.09375000 0.96875000
vt 0.15625000 0.96875000
vt 0.21875000 0.96875000
vt 0.28125000 0.96875000
vt 0.34375000 0.96875000
vt 0.40625000 0.96875000
vt 0.46875000 0.96875000
vt 0.53125000 0.96875000
vt 0.59375000 0.96875000
vt 0.65625000 0.96875000
vt 0.71875000 0.96875000
vt 0.78125000 0.96875000
vt 0.84375000 0.96875000
vt 0.90625000 0.96875000
vt 0.96875000 0.96875000
vt 0.03125000 0.90625000
vt 0.09375000 0.90625000
vt 0.15625000 0.90625000
vt 0.21875000 0.90625000
vt 0.28125000 0.90625000
vt 0.34375000 0.90625000
vt 0.40625000 0.90625000
vt 0.46875000 0.90625000
vt 0.53125000 0.90625000
vt 0.59375000 0.90625000
vt 0.65625000 0.90625000
vt 0.71875000 0.90625000
vt 0.78125000 0.90625000
vt 0.84375000 0.90625000
vt 0.90625000 0.90625000
vt 0.96875000 0.90625000
vt 0.03125000 0.84375000
vt 0.09375000 0.84375000
vt 0.15625000 0.84375000
vt 0.21875000 0.84375000
vt 0.28125000 0.84375000
vt 0.34375000 0.84375000
vt 0.40625000 0.84375000
vt 0.46875000 0.84375000
vt 0.53125000 0.84375000
vt 0.59375000 0.84375000
vt 0.65625000 0.84375000
vt 0.71875000 0.84375000
vt 0.78125000 0.84375000
vt 0.84375000 0.84375000
vt 0.90625000 0.84375000
vt 0.96875000 0.84375000
vt 0.03125000 0.78125000
vt 0.09375000 0.78125000
vt 0.15625000 0.78125000
vt 0.21875000 0.78125000
vt 0.28125000 0.78125000
vt 0.34375000 0.78125000
vt 0.40625000 0.78125000
vt 0.46875000 0.78125000
vt 0.53125000 0.78125000
vt 0.59375000 0.78125000
vt 0.65625000 0.78125000
vt 0.71875000 0.78125000
vt 0.78125000 0.78125000
vt 0.84375000 0.78125000
vt 0.90625000 0.78125000
vt 0.96875000 0.78125000
vt 0.03125000 0.71875000
vt 0.09375000 0.71875000
vt 0.15625000 0.71875000
vt 0.21875000 0.71875000
vt 0.28125000 0.71875000
vt 0.34375000 0.71875000
vt 0.40625000 0.71875000
vt 0.46875000 0.71875000
vt 0.53125000 0.71875000
vt 0.59375000 0.71875000
vt 0.65625000 0.71875000
vt 0.71875000 0.71875000
vt 0.78125000 0.71875000
vt 0.84375000 0.71875000
vt 0.90625000 0.71875000
vt 0.96875000 0.71875000
vt 0.03125000 0.65625000
vt 0.09375000 0.65625000
vt 0.15625000 0.65625000
vt 0.21875000 0.65625000
vt 0.28125000 0.65625000
vt 0.34375000 0.65625000
vt 0.40625000 0.65625000
vt 0.46875000 0.65625000
vt 0.53125000 0.65625000
vt 0.59375000 0.65625000
vt 0.65625000 0.65625000
vt 0.71875000 0.65625000
vt 0.78125000 0.65625000
vt 0.84375000 0.65625000
vt 0.90625000 0.65625000
vt 0.96875000 0.65625000
vt 0.03125000 0.59375000
vt 0.09375000 0.59375000
vt 0.15625000 0.59375000
vt 0.21875000 0.59375000
vt 0.28125000 0.59375000
vt 0.34375000 0.59375000
vt 0.40625000 0.59375000
vt 0.46875000 0.59375000
vt 0.53125000 0.59375000
vt 0.59375000 0.59375000
vt 0.65625000 0.59375000
vt 0.71875000 0.59375000
vt 0.78125000 0.59375000
vt 0.84375000 0.59375000
vt 0.90625000 0.59375000
vt 0.96875000 0.59375000
vt 0.03125000 0.53125000
vt 0.09375000 0.53125000
vt 0.15625000 0.53125000
vt 0.21875000 0.53125000
vt 0.28125000 0.53125000
vt 0.34375000 0.53125000
vt 0.40625000 0.53125000
vt 0.46875000 0.53125000
vt 0.53125000 0.53125000
vt 0.59375000 0.53125000
vt 0.65625000 0.53125000
vt 0.71875000 0.53125000
vt 0.78125000 0.53125000
vt 0.84375000 0.53125000
vt 0.90625000 0.53125000
vt 0.96875000 0.53125000
vt 0.03125000 0.46875000
vt 0.09375000 0.46875000
vt 0.15625000 0.46875000
vt 0.21875000 0.46875000
vt 0.28125000 0.46875000
vt 0.34375000 0.46875000
vt 0.40625000 0.46875000
vt 0.46875000 0.46875000
vt 0.53125000 0.46875000
vt 0.59375000 0.46875000
vt 0.65625000 0.46875000
vt 0.71875000 0.46875000
vt 0.78125000 0.46875000
vt 0.84375000 0.46875000
vt 0.90625000 0.46875000
vt 0.96875000 0.46875000
vt 0.03125000 0.40625000
vt 0.09375000 0.40625000
vt 0.15625000 0.40625000
vt 0.21875000 0.40625000
vt 0.28125000 0.40625000
vt 0.34375000 0.40625000
vt 0.40625000 0.40625000
vt 0.46875000 0.40625000
vt 0.53125000 0.40625000
vt 0.59375000 0.40625000
vt 0.65625000 0.40625000
vt 0.71875000 0.40625000
vt 0.78125000 0.40625000
vt 0.84375000 0.40625000
vt 0.90625000 0.40625000
vt 0.96875000 0.40625000
vt 0.03125000 0.34375000
vt 0.09375000 0.34375000
vt 0.15625000 0.34375000
vt 0.21875000 0.34375000
vt 0.28125000 0.34375000
vt 0.34375000 0.34375000
vt 0.40625000 0.34375000
vt 0.46875000 0.34375000
vt 0.53125000 0.34375000
vt 0.59375000 0.34375000
vt 0.65625000 0.34375000
vt 0.71875000 0.34375000
vt 0.78125000 0.34375000
vt 0.84375000 0.34375000
vt 0.90625000 0.34375000
vt 0.96875000 0.34375000
vt 0.03125000 0.28125000
vt 0.09375000 0.28125000
vt 0.15625000 0.28125000
vt 0.21875000 0.28125000
vt 0.28125000 0.28125000
vt 0.34375000 0.28125000
vt 0.40625000 0.28125000
vt 0.46875000 0.28125000
vt 0.53125000 0.28125000
vt 0.59375000 0.28125000
vt 0.65625000 0.28125000
vt 0.71875000 0.28125000
vt 0.78125000 0.28125000
vt 0.84375000 0.28125000
vt 0.90625000 0.28125000
vt 0.96875000 0.28125000
vt 0.03125000 0.21875000
vt 0.09375000 0.21875000
vt 0.15625000 0.21875000
vt 0.21875000 0.21875000
vt 0.28125000 0.21875000
vt 0.34375000 0.21875000
vt 0.40625000 0.21875000
vt 0.46875000 0.21875000
vt 0.53125000 0.21875000
vt 0.59375000 0.21875000
vt 0.65625000 0.21875000
vt 0.71875000 0.21875000
vt 0.78125000 0.21875000
vt 0.84375000 0.21875000
vt 0.90625000 0.21875000
vt 0.96875000 0.21875000
vt 0.03125000 0.15625000
vt 0.09375000 0.15625000
vt 0.15625000 0.15625000
vt 0.21875000 0.15625000
vt 0.28125000 0.15625000
vt 0.34375000 0.15625000
vt 0.40625000 0.15625000
vt 0.46875000 0.15625000
vt 0.53125000 0.15625000
vt 0.59375000 0.15625000
vt 0.65625000 0.15625000
vt 0.71875000 0.15625000
vt 0.78125000 0.15625000
vt 0.84375000 0.15625000
vt 0.90625000 0.15625000
vt 0.96875000 0.15625000
vt 0.03125000 0.09375000
vt 0.09375000 0.09375000
vt 0.15625000 0.09375000
vt 0.21875000 0.09375000
vt 0.28125000 0.09375000
vt 0.34375000 0.09375000
vt 0.40625000 0.09375000
vt 0.46875000 0.09375000
vt 0.53125000 0.09375000
vt 0.59375000 0.09375000
vt 0.65625000 0.09375000
vt 0.71875000 0.09375000
vt 0.78125000 0.09375000
vt 0.84375000 0.09375000
vt 0.90625000 0.09375000
vt 0.96875000 0.09375000
vt 0.03125000 0.03125000
vt 0.09375000 0.03125000
vt 0.15625000 0.03125000
vt 0.21875000 0.03125000
vt 0.28125000 0.03125000
vt 0.34375000 0.03125000
vt 0.40625000 0.03125000
vt 0.46875000 0.03125000
vt 0.53125000 0.03125000
vt 0.59375000 0.03125000
vt 0.65625000 0.03125000
vt 0.71875000 0.03125000
vt 0.78125000 0.03125000
vt 0.84375000 0.03125000
vt 0.90625000 0.03125000
vt 0.96875000 0.03125000
vn -1 0 0
vn 1 0 0
vn 0 0 -1
vn 0 0 1
vn 0 -1 0
vn 0 1 0
g palette
usemtl palette
f 1/5/1 2/5/1 3/5/1 4/5/1
f 3/5/3 5/5/3 6/5/3 4/5/3
f 6/5/5 7/5/5 1/5/5 4/5/5
f 2/5/1 8/5/1 9/5/1 3/5/1
f 9/5/3 10/5/3 5/5/3 3/5/3
f 8/5/1 11/5/1 12/5/1 9/5/1
f 12/5/3 13/5/3 10/5/3 9/5/3
f 11/5/6 14/5/6 13/5/6 12/5/6
f 15/5/1 16/5/1 2/5/1 1/5/1
f 7/5/5 17/5/5 15/5/5 1/5/5
f 16/5/1 18/5/1 8/5/1 2/5/1
f 18/5/1 19/5/1 11/5/1 8/5/1
f 19/5/6 20/5/6 14/5/6 11/5/6
f 21/5/1 22/5/1 16/5/1 15/5/1
f 17/5/5 23/5/5 21/5/5 15/5/5
f 22/5/1 24/5/1 18/5/1 16/5/1
f 24/5/1 25/5/1 19/5/1 18/5/1
f 25/5/6 26/5/6 20/5/6 19/5/6
f 27/5/1 28/5/1 22/5/1 21/5/1
f 23/5/5 29/5/5 27/5/5 21/5/5
f 28/5/1 30/5/1 24/5/1 22/5/1
f 30/5/1 31/5/1 25/5/1 24/5/1
f 31/5/6 32/5/6 26/5/6 25/5/6
f 33/5/1 34/5/1 28/5/1 27/5/1
f 29/5/5 35/5/5 33/5/5 27/5/5
f 34/5/1 36/5/1 30/5/1 28/5/1
f 36/5/1 37/5/1 31/5/1 30/5/1
f 37/5/6 38/5/6 32/5/6 31/5/6
f 39/5/1 40/5/1 34/5/1 33/5/1
f 35/5/5 41/5/5 39/5/5 33/5/5
f 40/5/1 42/5/1 36/5/1 34/5/1
f 42/5/1 43/5/1 37/5/1 36/5/1
f 43/5/6 44/5/6 38/5/6 37/5/6
f 45/5/1 46/5/1 40/5/1 39/5/1
f 41/5/5 47/5/5 45/5/5 39/5/5
f 46/5/1 48/5/1 42/5/1 40/5/1
f 48/5/1 49/5/1 43/5/1 42/5/1
f 49/5/6 50/5/6 44/5/6 43/5/6
f 51/5/1 52/5/1 46/5/1 45/5/1
f 47/5/5 53/5/5 51/5/5 45/5/5
f 52/5/1 54/5/1 48/5/1 46/5/1
f 54/5/1 55/5/1 49/5/1 48/5/1
f 55/5/6 56/5/6 50/5/6 49/5/6
f 57/5/1 58/5/1 52/5/1 51/5/1
f 53/5/5 59/5/5 57/5/5 51/5/5
f 58/5/1 60/5/1 54/5/1 52/5/1
f 60/5/1 61/5/1 55/5/1 54/5/1
f 61/5/6 62/5/6 56/5/6 55/5/6
f 63/5/1 64/5/1 58/5/1 57/5/1
f 59/5/5 65/5/5 63/5/5 57/5/5
f 64/5/1 66/5/1 60/5/1 58/5/1
f 66/5/1 67/5/1 61/5/1 60/5/1
f 67/5/6 68/5/6 62/5/6 61/5/6
f 69/5/1 70/5/1 64/5/1 63/5/1
f 65/5/5 71/5/5 69/5/5 63/5/5
f 70/5/1 72/5/1 66/5/1 64/5/1
f 72/5/1 73/5/1 67/5/1 66/5/1
f 73/5/6 74/5/6 68/5/6 67/5/6
f 75/5/1 76/5/1 70/5/1 69/5/1
f 71/5/5 77/5/5 75/5/5 69/5/5
f 76/5/1 78/5/1 72/5/1 70/5/1
f 78/5/1 79/5/1 73/5/1 72/5/1
f 79/5/6 80/5/6 74/5/6 73/5/6
f 81/5/1 82/5/1 76/5/1 75/5/1
f 77/5/5 83/5/5 81/5/5 75/5/5
f 82/5/1 84/5/1 78/5/1 76/5/1
f 84/5/1 85/5/1 79/5/1 78/5/1
f 85/5/6 86/5/6 80/5/6 79/5/6
f 87/5/1 88/5/1 82/5/1 81/5/1
f 89/5/4 90/5/4 88/5/4 87/5/4
f 83/5/5 89/5/5 87/5/5 81/5/5
f 88/5/1 91/5/1 84/5/1 82/5/1
f 90/5/4 92/5/4 91/5/4 88/5/4
f 91/5/1 93/5/1 85/5/1 84/5/1
f 92/5/4 94/5/4 93/5/4 91/5/4
f 93/5/6 94/5/6 86/5/6 85/5/6
f 5/5/3 95/5/3 96/5/3 6/5/3
f 96/5/5 97/5/5 7/5/5 6/5/5
f 10/5/3 98/5/3 95/5/3 5/5/3
f 13/5/3 99/5/3 98/5/3 10/5/3
f 14/5/6 100/5/6 99/5/6 13/5/6
f 101/4/1 102/4/1 103/4/1 104/4/1
f 103/4/3 105/4/3 106/4/3 104/4/3
f 106/4/5 107/4/5 101/4/5 104/4/5
f 102/4/1 108/4/1 109/4/1 103/4/1
f 109/4/3 110/4/3 105/4/3 103/4/3
f 108/4/1 111/4/1 112/4/1 109/4/1
f 112/4/3 113/4/3 110/4/3 109/4/3
f 111/4/6 114/4/6 113/4/6 112/4/6
f 97/5/5 115/5/5 17/5/5 7/5/5
f 20/5/6 116/5/6 100/5/6 14/5/6
f 117/4/1 118/4/1 102/4/1 101/4/1
f 107/4/5 119/4/5 117/4/5 101/4/5
f 118/4/1 120/4/1 108/4/1 102/4/1
f 120/4/1 121/4/1 111/4/1 108/4/1
f 121/4/6 122/4/6 114/4/6 111/4/6
f 115/5/5 123/5/5 23/5/5 17/5/5
f 26/5/6 124/5/6 116/5/6 20/5/6
f 125/4/1 126/4/1 118/4/1 117/4/1
f 119/4/5 127/4/5 125/4/5 117/4/5
f 126/4/1 128/4/1 120/4/1 118/4/1
f 128/4/1 129/4/1 121/4/1 120/4/1
f 129/4/6 130/4/6 122/4/6 121/4/6
f 123/5/5 131/5/5 29/5/5 23/5/5
f 32/5/6 132/5/6 124/5/6 26/5/6
f 133/5/1 134/5/1 126/5/1 125/5/1
f 127/5/5 135/5/5 133/5/5 125/5/5
f 134/4/1 136/4/1 128/4/1 126/4/1
f 136/4/1 137/4/1 129/4/1 128/4/1
f 137/4/6 138/4/6 130/4/6 129/4/6
f 131/5/5 139/5/5 35/5/5 29/5/5
f 38/5/6 140/5/6 132/5/6 32/5/6
f 141/4/1 142/4/1 134/4/1 133/4/1
f 135/4/5 143/4/5 141/4/5 133/4/5
f 142/4/1 144/4/1 136/4/1 134/4/1
f 144/4/1 145/4/1 137/4/1 136/4/1
f 145/4/6 146/4/6 138/4/6 137/4/6
f 139/5/5 147/5/5 41/5/5 35/5/5
f 44/5/6 148/5/6 140/5/6 38/5/6
f 149/4/1 150/4/1 142/4/1 141/4/1
f 143/4/5 151/4/5 149/4/5 141/4/5
f 150/4/1 152/4/1 144/4/1 142/4/1
f 152/4/1 153/4/1 145/4/1 144/4/1
f 153/4/6 154/4/6 146/4/6 145/4/6
f 147/5/5 155/5/5 47/5/5 41/5/5
f 50/5/6 156/5/6 148/5/6 44/5/6
f 157/4/1 158/4/1 150/4/1 149/4/1
f 151/4/5 159/4/5 157/4/5 149/4/5
f 158/4/1 160/4/1 152/4/1 150/4/1
f 160/4/1 161/4/1 153/4/1 152/4/1
f 161/4/6 162/4/6 154/4/6 153/4/6
f 155/5/5 163/5/5 53/5/5 47/5/5
f 56/5/6 164/5/6 156/5/6 50/5/6
f 165/4/1 166/4/1 158/4/1 157/4/1
f 159/4/5 167/4/5 165/4/5 157/4/5
f 166/5/1 168/5/1 160/5/1 158/5/1
f 168/4/1 169/4/1 161/4/1 160/4/1
f 169/4/6 170/4/6 162/4/6 161/4/6
f 163/5/5 171/5/5 59/5/5 53/5/5
f 62/5/6 172/5/6 164/5/6 56/5/6
f 173/4/1 174/4/1 166/4/1 165/4/1
f 167/4/5 175/4/5 173/4/5 165/4/5
f 174/4/1 176/4/1 168/4/1 166/4/1
f 176/4/1 177/4/1 169/4/1 168/4/1
f 177/4/6 178/4/6 170/4/6 169/4/6
f 171/5/5 179/5/5 65/5/5 59/5/5
f 68/5/6 180/5/6 172/5/6 62/5/6
f 181/4/1 182/4/1 174/4/1 173/4/1
f 175/4/5 183/4/5 181/4/5 173/4/5
f 182/4/1 184/4/1 176/4/1 174/4/1
f 184/4/1 185/4/1 177/4/1 176/4/1
f 185/4/6 186/4/6 178/4/6 177/4/6
f 179/5/5 187/5/5 71/5/5 65/5/5
f 74/5/6 188/5/6 180/5/6 68/5/6
f 189/4/1 190/4/1 182/4/1 181/4/1
f 183/4/5 191/4/5 189/4/5 181/4/5
f 190/4/1 192/4/1 184/4/1 182/4/1
f 192/4/1 193/4/1 185/4/1 184/4/1
f 193/4/6 194/4/6 186/4/6 185/4/6
f 187/5/5 195/5/5 77/5/5 71/5/5
f 80/5/6 196/5/6 188/5/6 74/5/6
f 197/4/1 198/4/1 190/4/1 189/4/1
f 199/4/4 200/4/4 198/4/4 197/4/4
f 191/4/5 199/4/5 197/4/5 189/4/5
f 198/4/1 201/4/1 192/4/1 190/4/1
f 200/4/4 202/4/4 201/4/4 198/4/4
f 201/4/1 203/4/1 193/4/1 192/4/1
f 202/4/4 204/4/4 203/4/4 201/4/4
f 203/4/6 204/4/6 194/4/6 193/4/6
f 195/5/5 205/5/5 83/5/5 77/5/5
f 86/5/6 206/5/6 196/5/6 80/5/6
f 207/5/4 208/5/4 90/5/4 89/5/4
f 205/5/5 207/5/5 89/5/5 83/5/5
f 208/5/4 209/5/4 92/5/4 90/5/4
f 209/5/4 210/5/4 94/5/4 92/5/4
f 94/5/6 210/5/6 206/5/6 86/5/6
f 95/5/3 211/5/3 212/5/3 96/5/3
f 212/5/5 213/5/5 97/5/5 96/5/5
f 98/5/3 214/5/3 211/5/3 95/5/3
f 99/5/3 215/5/3 214/5/3 98/5/3
f 100/5/6 216/5/6 215/5/6 99/5/6
f 105/4/3 217/4/3 218/4/3 106/4/3
f 218/4/5 219/4/5 107/4/5 106/4/5
f 110/4/3 220/4/3 217/4/3 105/4/3
f 113/4/3 221/4/3 220/4/3 110/4/3
f 114/4/6 222/4/6 221/4/6 113/4/6
f 213/5/5 223/5/5 115/5/5 97/5/5
f 116/5/6 224/5/6 216/5/6 100/5/6
f 219/4/5 225/4/5 119/4/5 107/4/5
f 122/4/6 226/4/6 222/4/6 114/4/6
f 223/5/5 227/5/5 123/5/5 115/5/5
f 124/5/6 228/5/6 224/5/6 116/5/6
f 225/4/5 229/4/5 127/4/5 119/4/5
f 130/4/6 230/4/6 226/4/6 122/4/6
f 227/5/5 231/5/5 131/5/5 123/5/5
f 132/5/6 232/5/6 228/5/6 124/5/6
f 229/4/5 233/4/5 135/4/5 127/4/5
f 138/4/6 234/4/6 230/4/6 130/4/6
f 231/5/5 235/5/5 139/5/5 131/5/5
f 140/5/6 236/5/6 232/5/6 132/5/6
f 233/4/5 237/4/5 143/4/5 135/4/5
f 146/4/6 238/4/6 234/4/6 138/4/6
f 235/5/5 239/5/5 147/5/5 139/5/5
f 148/5/6 240/5/6 236/5/6 140/5/6
f 237/4/5 241/4/5 151/4/5 143/4/5
f 154/4/6 242/4/6 238/4/6 146/4/6
f 239/5/5 243/5/5 155/5/5 147/5/5
f 156/5/6 244/5/6 240/5/6 148/5/6
f 241/4/5 245/4/5 159/4/5 151/4/5
f 162/4/6 246/4/6 242/4/6 154/4/6
f 243/5/5 247/5/5 163/5/5 155/5/5
f 164/5/6 248/5/6 244/5/6 156/5/6
f 245/4/5 249/4/5 167/4/5 159/4/5
f 170/4/6 250/4/6 246/4/6 162/4/6
f 247/5/5 251/5/5 171/5/5 163/5/5
f 172/5/6 252/5/6 248/5/6 164/5/6
f 249/4/5 253/4/5 175/4/5 167/4/5
f 178/4/6 254/4/6 250/4/6 170/4/6
f 251/5/5 255/5/5 179/5/5 171/5/5
f 180/5/6 256/5/6 252/5/6 172/5/6
f 253/4/5 257/4/5 183/4/5 175/4/5
f 186/4/6 258/4/6 254/4/6 178/4/6
f 255/5/5 259/5/5 187/5/5 179/5/5
f 188/5/6 260/5/6 256/5/6 180/5/6
f 257/4/5 261/4/5 191/4/5 183/4/5
f 194/4/6 262/4/6 258/4/6 186/4/6
f 259/5/5 263/5/5 195/5/5 187/5/5
f 196/5/6 264/5/6 260/5/6 188/5/6
f 265/4/4 266/4/4 200/4/4 199/4/4
f 261/4/5 265/4/5 199/4/5 191/4/5
f 266/4/4 267/4/4 202/4/4 200/4/4
f 267/4/4 268/4/4 204/4/4 202/4/4
f 204/4/6 268/4/6 262/4/6 194/4/6
f 263/5/5 269/5/5 205/5/5 195/5/5
f 206/5/6 270/5/6 264/5/6 196/5/6
f 271/5/4 272/5/4 208/5/4 207/5/4
f 269/5/5 271/5/5 207/5/5 205/5/5
f 272/5/4 273/5/4 209/5/4 208/5/4
f 273/5/4 274/5/4 210/5/4 209/5/4
f 210/5/6 274/5/6 270/5/6 206/5/6
f 211/5/3 275/5/3 276/5/3 212/5/3
f 276/5/5 277/5/5 213/5/5 212/5/5
f 214/5/3 278/5/3 275/5/3 211/5/3
f 215/5/3 279/5/3 278/5/3 214/5/3
f 216/5/6 280/5/6 279/5/6 215/5/6
f 217/4/3 281/4/3 282/4/3 218/4/3
f 282/4/5 283/4/5 219/4/5 218/4/5
f 220/4/3 284/4/3 281/4/3 217/4/3
f 221/4/3 285/4/3 284/4/3 220/4/3
f 222/4/6 286/4/6 285/4/6 221/4/6
f 277/5/5 287/5/5 223/5/5 213/5/5
f 224/5/6 288/5/6 280/5/6 216/5/6
f 283/4/5 289/4/5 225/4/5 219/4/5
f 226/4/6 290/4/6 286/4/6 222/4/6
f 287/5/5 291/5/5 227/5/5 223/5/5
f 228/5/6 292/5/6 288/5/6 224/5/6
f 289/4/5 293/4/5 229/4/5 225/4/5
f 230/11/1 294/11/1 295/11/1 226/11/1
f 295/11/3 296/11/3 290/11/3 226/11/3
f 294/11/1 297/11/1 298/11/1 295/11/1
f 298/11/3 299/11/3 296/11/3 295/11/3
f 297/11/1 300/11/1 301/11/1 298/11/1
f 301/11/3 302/11/3 299/11/3 298/11/3
f 300/11/1 303/11/1 304/11/1 301/11/1
f 304/11/3 305/11/3 302/11/3 301/11/3
f 303/11/1 306/11/1 307/11/1 304/11/1
f 307/11/3 308/11/3 305/11/3 304/11/3
f 306/11/1 309/11/1 310/11/1 307/11/1
f 310/11/3 311/11/3 308/11/3 307/11/3
f 309/11/1 312/11/1 313/11/1 310/11/1
f 313/11/3 314/11/3 311/11/3 310/11/3
f 312/11/1 315/11/1 316/11/1 313/11/1
f 316/11/3 317/11/3 314/11/3 313/11/3
f 315/11/1 318/11/1 319/11/1 316/11/1
f 319/11/3 320/11/3 317/11/3 316/11/3
f 318/11/1 231/11/1 227/11/1 319/11/1
f 227/11/3 291/11/3 320/11/3 319/11/3
f 232/5/6 321/5/6 292/5/6 228/5/6
f 293/4/5 322/4/5 233/4/5 229/4/5
f 234/11/1 323/11/1 294/11/1 230/11/1
f 323/11/1 324/11/1 297/11/1 294/11/1
f 324/11/1 325/11/1 300/11/1 297/11/1
f 325/11/1 326/11/1 303/11/1 300/11/1
f 326/11/1 327/11/1 306/11/1 303/11/1
f 327/11/1 328/11/1 309/11/1 306/11/1
f 328/11/1 329/11/1 312/11/1 309/11/1
f 329/11/1 330/11/1 315/11/1 312/11/1
f 330/11/1 331/11/1 318/11/1 315/11/1
f 331/11/1 235/11/1 231/11/1 318/11/1
f 236/5/6 332/5/6 321/5/6 232/5/6
f 322/4/5 333/4/5 237/4/5 233/4/5
f 238/11/1 334/11/1 323/11/1 234/11/1
f 334/11/1 335/11/1 324/11/1 323/11/1
f 335/11/1 336/11/1 325/11/1 324/11/1
f 336/11/1 337/11/1 326/11/1 325/11/1
f 337/11/1 338/11/1 327/11/1 326/11/1
f 338/11/1 339/11/1 328/11/1 327/11/1
f 339/11/1 340/11/1 329/11/1 328/11/1
f 340/11/1 341/11/1 330/11/1 329/11/1
f 341/11/1 342/11/1 331/11/1 330/11/1
f 342/11/1 239/11/1 235/11/1 331/11/1
f 240/5/6 343/5/6 332/5/6 236/5/6
f 333/4/5 344/4/5 241/4/5 237/4/5
f 242/11/1 345/11/1 334/11/1 238/11/1
f 345/11/1 346/11/1 335/11/1 334/11/1
f 346/11/1 347/11/1 336/11/1 335/11/1
f 347/11/1 348/11/1 337/11/1 336/11/1
f 348/11/1 349/11/1 338/11/1 337/11/1
f 349/11/1 350/11/1 339/11/1 338/11/1
f 350/11/1 351/11/1 340/11/1 339/11/1
f 351/11/1 352/11/1 341/11/1 340/11/1
f 352/11/1 353/11/1 342/11/1 341/11/1
f 353/11/1 243/11/1 239/11/1 342/11/1
f 244/5/6 354/5/6 343/5/6 240/5/6
f 344/4/5 355/4/5 245/4/5 241/4/5
f 246/11/1 356/11/1 345/11/1 242/11/1
f 356/11/1 357/11/1 346/11/1 345/11/1
f 357/11/1 358/11/1 347/11/1 346/11/1
f 358/11/1 359/11/1 348/11/1 347/11/1
f 359/11/1 360/11/1 349/11/1 348/11/1
f 360/11/1 361/11/1 350/11/1 349/11/1
f 361/11/1 362/11/1 351/11/1 350/11/1
f 362/11/1 363/11/1 352/11/1 351/11/1
f 363/11/1 364/11/1 353/11/1 352/11/1
f 364/11/1 247/11/1 243/11/1 353/11/1
f 248/5/6 365/5/6 354/5/6 244/5/6
f 355/4/5 366/4/5 249/4/5 245/4/5
f 250/11/1 367/11/1 356/11/1 246/11/1
f 367/11/1 368/11/1 357/11/1 356/11/1
f 368/11/1 369/11/1 358/11/1 357/11/1
f 369/11/1 370/11/1 359/11/1 358/11/1
f 370/11/1 371/11/1 360/11/1 359/11/1
f 371/11/1 372/11/1 361/11/1 360/11/1
f 372/11/1 373/11/1 362/11/1 361/11/1
f 373/11/1 374/11/1 363/11/1 362/11/1
f 374/11/1 375/11/1 364/11/1 363/11/1
f 375/11/1 251/11/1 247/11/1 364/11/1
f 252/5/6 376/5/6 365/5/6 248/5/6
f 366/4/5 377/4/5 253/4/5 249/4/5
f 254/11/1 378/11/1 367/11/1 250/11/1
f 378/11/1 379/11/1 368/11/1 367/11/1
f 379/11/1 380/11/1 369/11/1 368/11/1
f 380/11/1 381/11/1 370/11/1 369/11/1
f 381/11/1 382/11/1 371/11/1 370/11/1
f 382/11/1 383/11/1 372/11/1 371/11/1
f 383/11/1 384/11/1 373/11/1 372/11/1
f 384/11/1 385/11/1 374/11/1 373/11/1
f 385/11/1 386/11/1 375/11/1 374/11/1
f 386/11/1 255/11/1 251/11/1 375/11/1
f 256/5/6 387/5/6 376/5/6 252/5/6
f 377/4/5 388/4/5 257/4/5 253/4/5
f 258/11/1 389/11/1 378/11/1 254/11/1
f 390/11/4 391/11/4 389/11/4 258/11/4
f 389/11/1 392/11/1 379/11/1 378/11/1
f 391/11/4 393/11/4 392/11/4 389/11/4
f 392/11/1 394/11/1 380/11/1 379/11/1
f 393/11/4 395/11/4 394/11/4 392/11/4
f 394/11/1 396/11/1 381/11/1 380/11/1
f 395/11/4 397/11/4 396/11/4 394/11/4
f 396/11/1 398/11/1 382/11/1 381/11/1
f 397/11/4 399/11/4 398/11/4 396/11/4
f 398/11/1 400/11/1 383/11/1 382/11/1
f 399/11/4 401/11/4 400/11/4 398/11/4
f 400/11/1 402/11/1 384/11/1 383/11/1
f 401/11/4 403/11/4 402/11/4 400/11/4
f 402/11/1 404/11/1 385/11/1 384/11/1
f 403/11/4 405/11/4 404/11/4 402/11/4
f 404/11/1 406/11/1 386/11/1 385/11/1
f 405/11/4 407/11/4 406/11/4 404/11/4
f 406/11/1 259/11/1 255/11/1 386/11/1
f 407/11/4 408/11/4 259/11/4 406/11/4
f 260/5/6 409/5/6 387/5/6 256/5/6
f 388/4/5 410/4/5 261/4/5 257/4/5
f 262/4/6 411/4/6 390/4/6 258/4/6
f 408/5/5 412/5/5 263/5/5 259/5/5
f 264/5/6 413/5/6 409/5/6 260/5/6
f 414/4/4 415/4/4 266/4/4 265/4/4
f 410/4/5 414/4/5 265/4/5 261/4/5
f 415/4/4 416/4/4 267/4/4 266/4/4
f 416/4/4 417/4/4 268/4/4 267/4/4
f 268/4/6 417/4/6 411/4/6 262/4/6
f 412/5/5 418/5/5 269/5/5 263/5/5
f 270/5/6 419/5/6 413/5/6 264/5/6
f 420/5/4 421/5/4 272/5/4 271/5/4
f 418/5/5 420/5/5 271/5/5 269/5/5
f 421/5/4 422/5/4 273/5/4 272/5/4
f 422/5/4 423/5/4 274/5/4 273/5/4
f 274/5/6 423/5/6 419/5/6 270/5/6
f 275/5/3 424/5/3 425/5/3 276/5/3
f 425/5/5 426/5/5 277/5/5 276/5/5
f 278/5/3 427/5/3 424/5/3 275/5/3
f 279/5/3 428/5/3 427/5/3 278/5/3
f 280/5/6 429/5/6 428/5/6 279/5/6
f 281/4/3 430/4/3 431/4/3 282/4/3
f 431/4/5 432/4/5 283/4/5 282/4/5
f 284/4/3 433/4/3 430/4/3 281/4/3
f 285/4/3 434/4/3 433/4/3 284/4/3
f 286/4/6 435/4/6 434/4/6 285/4/6
f 426/5/5 436/5/5 287/5/5 277/5/5
f 288/5/6 437/5/6 429/5/6 280/5/6
f 432/4/5 438/4/5 289/4/5 283/4/5
f 290/4/6 439/4/6 435/4/6 286/4/6
f 436/5/5 440/5/5 291/5/5 287/5/5
f 292/5/6 441/5/6 437/5/6 288/5/6
f 438/4/5 442/4/5 293/4/5 289/4/5
f 296/11/3 443/11/3 439/11/3 290/11/3
f 299/11/3 444/11/3 443/11/3 296/11/3
f 302/11/3 445/11/3 444/11/3 299/11/3
f 305/11/3 446/11/3 445/11/3 302/11/3
f 308/11/3 447/11/3 446/11/3 305/11/3
f 311/11/3 448/11/3 447/11/3 308/11/3
f 314/11/3 449/11/3 448/11/3 311/11/3
f 317/11/3 450/11/3 449/11/3 314/11/3
f 320/11/3 451/11/3 450/11/3 317/11/3
f 291/11/3 440/11/3 451/11/3 320/11/3
f 321/5/6 452/5/6 441/5/6 292/5/6
f 442/4/5 453/4/5 322/4/5 293/4/5
f 332/11/6 454/11/6 452/11/6 321/11/6
f 453/4/5 455/4/5 333/4/5 322/4/5
f 343/11/6 456/11/6 454/11/6 332/11/6
f 455/4/5 457/4/5 344/4/5 333/4/5
f 354/11/6 458/11/6 456/11/6 343/11/6
f 457/4/5 459/4/5 355/4/5 344/4/5
f 365/11/6 460/11/6 458/11/6 354/11/6
f 459/4/5 461/4/5 366/4/5 355/4/5
f 376/11/6 462/11/6 460/11/6 365/11/6
f 461/4/5 463/4/5 377/4/5 366/4/5
f 387/11/6 464/11/6 462/11/6 376/11/6
f 463/4/5 465/4/5 388/4/5 377/4/5
f 466/11/4 467/11/4 391/11/4 390/11/4
f 467/11/4 468/11/4 393/11/4 391/11/4
f 468/11/4 469/11/4 395/11/4 393/11/4
f 469/11/4 470/11/4 397/11/4 395/11/4
f 470/11/4 471/11/4 399/11/4 397/11/4
f 471/11/4 472/11/4 401/11/4 399/11/4
f 472/11/4 473/11/4 403/11/4 401/11/4
f 473/11/4 474/11/4 405/11/4 403/11/4
f 474/11/4 475/11/4 407/11/4 405/11/4
f 475/11/4 476/11/4 408/11/4 407/11/4
f 409/5/6 477/5/6 464/5/6 387/5/6
f 465/4/5 478/4/5 410/4/5 388/4/5
f 411/4/6 479/4/6 466/4/6 390/4/6
f 476/5/5 480/5/5 412/5/5 408/5/5
f 413/5/6 481/5/6 477/5/6 409/5/6
f 482/4/4 483/4/4 415/4/4 414/4/4
f 478/4/5 482/4/5 414/4/5 410/4/5
f 483/4/4 484/4/4 416/4/4 415/4/4
f 484/4/4 485/4/4 417/4/4 416/4/4
f 417/4/6 485/4/6 479/4/6 411/4/6
f 480/5/5 486/5/5 418/5/5 412/5/5
f 419/5/6 487/5/6 481/5/6 413/5/6
f 488/5/4 489/5/4 421/5/4 420/5/4
f 486/5/5 488/5/5 420/5/5 418/5/5
f 489/5/4 490/5/4 422/5/4 421/5/4
f 490/5/4 491/5/4 423/5/4 422/5/4
f 423/5/6 491/5/6 487/5/6 419/5/6
f 424/5/3 492/5/3 493/5/3 425/5/3
f 493/5/5 494/5/5 426/5/5 425/5/5
f 427/5/3 495/5/3 492/5/3 424/5/3
f 428/5/3 496/5/3 495/5/3 427/5/3
f 429/5/6 497/5/6 496/5/6 428/5/6
f 430/4/3 498/4/3 499/4/3 431/4/3
f 499/4/5 500/4/5 432/4/5 431/4/5
f 433/4/3 501/4/3 498/4/3 430/4/3
f 434/4/3 502/4/3 501/4/3 433/4/3
f 435/4/6 503/4/6 502/4/6 434/4/6
f 494/5/5 504/5/5 436/5/5 426/5/5
f 437/5/6 505/5/6 497/5/6 429/5/6
f 500/4/5 506/4/5 438/4/5 432/4/5
f 439/4/6 507/4/6 503/4/6 435/4/6
f 504/5/5 508/5/5 440/5/5 436/5/5
f 441/5/6 509/5/6 505/5/6 437/5/6
f 506/4/5 510/4/5 442/4/5 438/4/5
f 443/11/3 511/11/3 507/11/3 439/11/3
f 444/11/3 512/11/3 511/11/3 443/11/3
f 445/11/3 513/11/3 512/11/3 444/11/3
f 446/11/3 514/11/3 513/11/3 445/11/3
f 447/11/3 515/11/3 514/11/3 446/11/3
f 448/11/3 516/11/3 515/11/3 447/11/3
f 449/11/3 517/11/3 516/11/3 448/11/3
f 450/11/3 518/11/3 517/11/3 449/11/3
f 451/11/3 519/11/3 518/11/3 450/11/3
f 440/11/3 508/11/3 519/11/3 451/11/3
f 452/5/6 520/5/6 509/5/6 441/5/6
f 510/4/5 521/4/5 453/4/5 442/4/5
f 454/11/6 522/11/6 520/11/6 452/11/6
f 521/4/5 523/4/5 455/4/5 453/4/5
f 456/11/6 524/11/6 522/11/6 454/11/6
f 523/4/5 525/4/5 457/4/5 455/4/5
f 458/11/6 526/11/6 524/11/6 456/11/6
f 525/4/5 527/4/5 459/4/5 457/4/5
f 460/11/6 528/11/6 526/11/6 458/11/6
f 527/4/5 529/4/5 461/4/5 459/4/5
f 462/11/6 530/11/6 528/11/6 460/11/6
f 529/4/5 531/4/5 463/4/5 461/4/5
f 464/11/6 532/11/6 530/11/6 462/11/6
f 531/4/5 533/4/5 465/4/5 463/4/5
f 534/11/4 535/11/4 467/11/4 466/11/4
f 535/11/4 536/11/4 468/11/4 467/11/4
f 536/11/4 537/11/4 469/11/4 468/11/4
f 537/11/4 538/11/4 470/11/4 469/11/4
f 538/11/4 539/11/4 471/11/4 470/11/4
f 539/11/4 540/11/4 472/11/4 471/11/4
f 540/11/4 541/11/4 473/11/4 472/11/4
f 541/11/4 542/11/4 474/11/4 473/11/4
f 542/11/4 543/11/4 475/11/4 474/11/4
f 543/11/4 544/11/4 476/11/4 475/11/4
f 477/5/6 545/5/6 532/5/6 464/5/6
f 533/4/5 546/4/5 478/4/5 465/4/5
f 479/4/6 547/4/6 534/4/6 466/4/6
f 544/5/5 548/5/5 480/5/5 476/5/5
f 481/5/6 549/5/6 545/5/6 477/5/6
f 550/4/4 551/4/4 483/4/4 482/4/4
f 546/4/5 550/4/5 482/4/5 478/4/5
f 551/4/4 552/4/4 484/4/4 483/4/4
f 552/4/4 553/4/4 485/4/4 484/4/4
f 485/4/6 553/4/6 547/4/6 479/4/6
f 548/5/5 554/5/5 486/5/5 480/5/5
f 487/5/6 555/5/6 549/5/6 481/5/6
f 556/5/4 557/5/4 489/5/4 488/5/4
f 554/5/5 556/5/5 488/5/5 486/5/5
f 557/5/4 558/5/4 490/5/4 489/5/4
f 558/11/4 559/11/4 491/11/4 490/11/4
f 491/11/6 559/11/6 555/11/6 487/11/6
f 492/5/3 560/5/3 561/5/3 493/5/3
f 561/5/5 562/5/5 494/5/5 493/5/5
f 495/5/3 563/5/3 560/5/3 492/5/3
f 496/5/3 564/5/3 563/5/3 495/5/3
f 497/5/6 565/5/6 564/5/6 496/5/6
f 498/4/3 566/4/3 567/4/3 499/4/3
f 567/4/5 568/4/5 500/4/5 499/4/5
f 501/4/3 569/4/3 566/4/3 498/4/3
f 502/4/3 570/4/3 569/4/3 501/4/3
f 503/4/6 571/4/6 570/4/6 502/4/6
f 562/5/5 572/5/5 504/5/5 494/5/5
f 505/5/6 573/5/6 565/5/6 497/5/6
f 568/4/5 574/4/5 506/4/5 500/4/5
f 507/4/6 575/4/6 571/4/6 503/4/6
f 572/5/5 576/5/5 508/5/5 504/5/5
f 509/5/6 577/5/6 573/5/6 505/5/6
f 574/4/5 578/4/5 510/4/5 506/4/5
f 511/11/3 579/11/3 575/11/3 507/11/3
f 512/11/3 580/11/3 579/11/3 511/11/3
f 513/11/3 581/11/3 580/11/3 512/11/3
f 514/11/3 582/11/3 581/11/3 513/11/3
f 515/11/3 583/11/3 582/11/3 514/11/3
f 516/11/3 584/11/3 583/11/3 515/11/3
f 517/11/3 585/11/3 584/11/3 516/11/3
f 518/11/3 586/11/3 585/11/3 517/11/3
f 519/11/3 587/11/3 586/11/3 518/11/3
f 508/11/3 576/11/3 587/11/3 519/11/3
f 520/5/6 588/5/6 577/5/6 509/5/6
f 578/4/5 589/4/5 521/4/5 510/4/5
f 522/5/6 590/5/6 588/5/6 520/5/6
f 589/4/5 591/4/5 523/4/5 521/4/5
f 524/11/6 592/11/6 590/11/6 522/11/6
f 591/4/5 593/4/5 525/4/5 523/4/5
f 526/11/6 594/11/6 592/11/6 524/11/6
f 593/4/5 595/4/5 527/4/5 525/4/5
f 528/11/6 596/11/6 594/11/6 526/11/6
f 595/4/5 597/4/5 529/4/5 527/4/5
f 530/11/6 598/11/6 596/11/6 528/11/6
f 597/4/5 599/4/5 531/4/5 529/4/5
f 532/11/6 600/11/6 598/11/6 530/11/6
f 599/4/5 601/4/5 533/4/5 531/4/5
f 602/11/4 603/11/4 535/11/4 534/11/4
f 603/11/4 604/11/4 536/11/4 535/11/4
f 604/11/4 605/11/4 537/11/4 536/11/4
f 605/11/4 606/11/4 538/11/4 537/11/4
f 606/11/4 607/11/4 539/11/4 538/11/4
f 607/11/4 608/11/4 540/11/4 539/11/4
f 608/11/4 609/11/4 541/11/4 540/11/4
f 609/11/4 610/11/4 542/11/4 541/11/4
f 610/11/4 611/11/4 543/11/4 542/11/4
f 611/11/4 612/11/4 544/11/4 543/11/4
f 545/5/6 613/5/6 600/5/6 532/5/6
f 601/4/5 614/4/5 546/4/5 533/4/5
f 547/4/6 615/4/6 602/4/6 534/4/6
f 612/5/5 616/5/5 548/5/5 544/5/5
f 549/5/6 617/5/6 613/5/6 545/5/6
f 618/4/4 619/4/4 551/4/4 550/4/4
f 614/4/5 618/4/5 550/4/5 546/4/5
f 619/4/4 620/4/4 552/4/4 551/4/4
f 620/4/4 621/4/4 553/4/4 552/4/4
f 553/4/6 621/4/6 615/4/6 547/4/6
f 616/5/5 622/5/5 554/5/5 548/5/5
f 555/5/6 623/5/6 617/5/6 549/5/6
f 624/5/4 625/5/4 557/5/4 556/5/4
f 622/5/5 624/5/5 556/5/5 554/5/5
f 625/5/4 626/5/4 558/5/4 557/5/4
f 626/5/4 627/5/4 559/5/4 558/5/4
f 559/5/6 627/5/6 623/5/6 555/5/6
f 560/5/3 628/5/3 629/5/3 561/5/3
f 629/5/5 630/5/5 562/5/5 561/5/5
f 563/5/3 631/5/3 628/5/3 560/5/3
f 564/5/3 632/5/3 631/5/3 563/5/3
f 565/5/6 633/5/6 632/5/6 564/5/6
f 566/4/3 634/4/3 635/4/3 567/4/3
f 635/4/5 636/4/5 568/4/5 567/4/5
f 569/4/3 637/4/3 634/4/3 566/4/3
f 570/4/3 638/4/3 637/4/3 569/4/3
f 571/4/6 639/4/6 638/4/6 570/4/6
f 630/5/5 640/5/5 572/5/5 562/5/5
f 573/5/6 641/5/6 633/5/6 565/5/6
f 636/4/5 642/4/5 574/4/5 568/4/5
f 575/4/6 643/4/6 639/4/6 571/4/6
f 640/5/5 644/5/5 576/5/5 572/5/5
f 577/5/6 645/5/6 641/5/6 573/5/6
f 642/4/5 646/4/5 578/4/5 574/4/5
f 579/11/3 647/11/3 643/11/3 575/11/3
f 580/11/3 648/11/3 647/11/3 579/11/3
f 581/11/3 649/11/3 648/11/3 580/11/3
f 582/11/3 650/11/3 649/11/3 581/11/3
f 583/11/3 651/11/3 650/11/3 582/11/3
f 584/11/3 652/11/3 651/11/3 583/11/3
f 585/11/3 653/11/3 652/11/3 584/11/3
f 586/11/3 654/11/3 653/11/3 585/11/3
f 587/11/3 655/11/3 654/11/3 586/11/3
f 576/11/3 644/11/3 655/11/3 587/11/3
f 588/5/6 656/5/6 645/5/6 577/5/6
f 646/4/5 657/4/5 589/4/5 578/4/5
f 590/11/6 658/11/6 656/11/6 588/11/6
f 657/4/5 659/4/5 591/4/5 589/4/5
f 592/11/6 660/11/6 658/11/6 590/11/6
f 659/4/5 661/4/5 593/4/5 591/4/5
f 594/11/6 662/11/6 660/11/6 592/11/6
f 661/4/5 663/4/5 595/4/5 593/4/5
f 596/11/6 664/11/6 662/11/6 594/11/6
f 663/4/5 665/4/5 597/4/5 595/4/5
f 598/11/6 666/11/6 664/11/6 596/11/6
f 665/4/5 667/4/5 599/4/5 597/4/5
f 600/11/6 668/11/6 666/11/6 598/11/6
f 667/4/5 669/4/5 601/4/5 599/4/5
f 670/11/4 671/11/4 603/11/4 602/11/4
f 671/11/4 672/11/4 604/11/4 603/11/4
f 672/11/4 673/11/4 605/11/4 604/11/4
f 673/11/4 674/11/4 606/11/4 605/11/4
f 674/11/4 675/11/4 607/11/4 606/11/4
f 675/11/4 676/11/4 608/11/4 607/11/4
f 676/11/4 677/11/4 609/11/4 608/11/4
f 677/11/4 678/11/4 610/11/4 609/11/4
f 678/11/4 679/11/4 611/11/4 610/11/4
f 679/11/4 680/11/4 612/11/4 611/11/4
f 613/5/6 681/5/6 668/5/6 600/5/6
f 669/4/5 682/4/5 614/4/5 601/4/5
f 615/4/6 683/4/6 670/4/6 602/4/6
f 680/5/5 684/5/5 616/5/5 612/5/5
f 617/5/6 685/5/6 681/5/6 613/5/6
f 686/4/4 687/4/4 619/4/4 618/4/4
f 682/4/5 686/4/5 618/4/5 614/4/5
f 687/4/4 688/4/4 620/4/4 619/4/4
f 688/4/4 689/4/4 621/4/4 620/4/4
f 621/4/6 689/4/6 683/4/6 615/4/6
f 684/5/5 690/5/5 622/5/5 616/5/5
f 623/5/6 691/5/6 685/5/6 617/5/6
f 692/5/4 693/5/4 625/5/4 624/5/4
f 690/5/5 692/5/5 624/5/5 622/5/5
f 693/5/4 694/5/4 626/5/4 625/5/4
f 694/5/4 695/5/4 627/5/4 626/5/4
f 627/5/6 695/5/6 691/5/6 623/5/6
f 628/5/3 696/5/3 697/5/3 629/5/3
f 697/5/5 698/5/5 630/5/5 629/5/5
f 631/5/3 699/5/3 696/5/3 628/5/3
f 632/5/3 700/5/3 699/5/3 631/5/3
f 633/5/6 701/5/6 700/5/6 632/5/6
f 634/4/3 702/4/3 703/4/3 635/4/3
f 703/4/5 704/4/5 636/4/5 635/4/5
f 637/4/3 705/4/3 702/4/3 634/4/3
f 638/4/3 706/4/3 705/4/3 637/4/3
f 639/4/6 707/4/6 706/4/6 638/4/6
f 698/5/5 708/5/5 640/5/5 630/5/5
f 641/5/6 709/5/6 701/5/6 633/5/6
f 704/4/5 710/4/5 642/4/5 636/4/5
f 643/4/6 711/4/6 707/4/6 639/4/6
f 708/5/5 712/5/5 644/5/5 640/5/5
f 645/5/6 713/5/6 709/5/6 641/5/6
f 710/4/5 714/4/5 646/4/5 642/4/5
f 647/11/3 715/11/3 711/11/3 643/11/3
f 648/11/3 716/11/3 715/11/3 647/11/3
f 649/11/3 717/11/3 716/11/3 648/11/3
f 650/11/3 718/11/3 717/11/3 649/11/3
f 651/11/3 719/11/3 718/11/3 650/11/3
f 652/11/3 720/11/3 719/11/3 651/11/3
f 653/11/3 721/11/3 720/11/3 652/11/3
f 654/11/3 722/11/3 721/11/3 653/11/3
f 655/11/3 723/11/3 722/11/3 654/11/3
f 644/11/3 712/11/3 723/11/3 655/11/3
f 656/5/6 724/5/6 713/5/6 645/5/6
f 714/4/5 725/4/5 657/4/5 646/4/5
f 658/11/6 726/11/6 724/11/6 656/11/6
f 725/4/5 727/4/5 659/4/5 657/4/5
f 660/11/6 728/11/6 726/11/6 658/11/6
f 727/4/5 729/4/5 661/4/5 659/4/5
f 662/11/6 730/11/6 728/11/6 660/11/6
f 729/4/5 731/4/5 663/4/5 661/4/5
f 664/11/6 732/11/6 730/11/6 662/11/6
f 731/4/5 733/4/5 665/4/5 663/4/5
f 666/11/6 734/11/6 732/11/6 664/11/6
f 733/4/5 735/4/5 667/4/5 665/4/5
f 668/11/6 736/11/6 734/11/6 666/11/6
f 735/4/5 737/4/5 669/4/5 667/4/5
f 738/11/4 739/11/4 671/11/4 670/11/4
f 739/11/4 740/11/4 672/11/4 671/11/4
f 740/11/4 741/11/4 673/11/4 672/11/4
f 741/11/4 742/11/4 674/11/4 673/11/4
f 742/11/4 743/11/4 675/11/4 674/11/4
f 743/11/4 744/11/4 676/11/4 675/11/4
f 744/11/4 745/11/4 677/11/4 676/11/4
f 745/11/4 746/11/4 678/11/4 677/11/4
f 746/11/4 747/11/4 679/11/4 678/11/4
f 747/11/4 748/11/4 680/11/4 679/11/4
f 681/5/6 749/5/6 736/5/6 668/5/6
f 737/4/5 750/4/5 682/4/5 669/4/5
f 683/4/6 751/4/6 738/4/6 670/4/6
f 748/5/5 752/5/5 684/5/5 680/5/5
f 685/5/6 753/5/6 749/5/6 681/5/6
f 754/4/4 755/4/4 687/4/4 686/4/4
f 750/4/5 754/4/5 686/4/5 682/4/5
f 755/4/4 756/4/4 688/4/4 687/4/4
f 756/4/4 757/4/4 689/4/4 688/4/4
f 689/4/6 757/4/6 751/4/6 683/4/6
f 752/5/5 758/5/5 690/5/5 684/5/5
f 691/5/6 759/5/6 753/5/6 685/5/6
f 760/5/4 761/5/4 693/5/4 692/5/4
f 758/5/5 760/5/5 692/5/5 690/5/5
f 761/5/4 762/5/4 694/5/4 693/5/4
f 762/5/4 763/5/4 695/5/4 694/5/4
f 695/5/6 763/5/6 759/5/6 691/5/6
f 696/5/3 764/5/3 765/5/3 697/5/3
f 765/5/5 766/5/5 698/5/5 697/5/5
f 699/5/3 767/5/3 764/5/3 696/5/3
f 700/5/3 768/5/3 767/5/3 699/5/3
f 701/5/6 769/5/6 768/5/6 700/5/6
f 702/4/3 770/4/3 771/4/3 703/4/3
f 771/4/5 772/4/5 704/4/5 703/4/5
f 705/4/3 773/4/3 770/4/3 702/4/3
f 706/4/3 774/4/3 773/4/3 705/4/3
f 707/4/6 775/4/6 774/4/6 706/4/6
f 766/5/5 776/5/5 708/5/5 698/5/5
f 709/5/6 777/5/6 769/5/6 701/5/6
f 772/4/5 778/4/5 710/4/5 704/4/5
f 711/4/6 779/4/6 775/4/6 707/4/6
f 776/5/5 780/5/5 712/5/5 708/5/5
f 713/5/6 781/5/6 777/5/6 709/5/6
f 778/4/5 782/4/5 714/4/5 710/4/5
f 715/11/3 783/11/3 779/11/3 711/11/3
f 716/11/3 784/11/3 783/11/3 715/11/3
f 717/11/3 785/11/3 784/11/3 716/11/3
f 718/11/3 786/11/3 785/11/3 717/11/3
f 719/11/3 787/11/3 786/11/3 718/11/3
f 720/11/3 788/11/3 787/11/3 719/11/3
f 721/11/3 789/11/3 788/11/3 720/11/3
f 722/11/3 790/11/3 789/11/3 721/11/3
f 723/11/3 791/11/3 790/11/3 722/11/3
f 712/11/3 780/11/3 791/11/3 723/11/3
f 724/5/6 792/5/6 781/5/6 713/5/6
f 782/4/5 793/4/5 725/4/5 714/4/5
f 726/11/6 794/11/6 792/11/6 724/11/6
f 793/4/5 795/4/5 727/4/5 725/4/5
f 728/11/6 796/11/6 794/11/6 726/11/6
f 795/4/5 797/4/5 729/4/5 727/4/5
f 730/11/6 798/11/6 796/11/6 728/11/6
f 797/11/5 799/11/5 731/11/5 729/11/5
f 732/11/6 800/11/6 798/11/6 730/11/6
f 799/4/5 801/4/5 733/4/5 731/4/5
f 734/11/6 802/11/6 800/11/6 732/11/6
f 801/4/5 803/4/5 735/4/5 733/4/5
f 736/11/6 804/11/6 802/11/6 734/11/6
f 803/4/5 805/4/5 737/4/5 735/4/5
f 806/11/4 807/11/4 739/11/4 738/11/4
f 807/11/4 808/11/4 740/11/4 739/11/4
f 808/11/4 809/11/4 741/11/4 740/11/4
f 809/11/4 810/11/4 742/11/4 741/11/4
f 810/11/4 811/11/4 743/11/4 742/11/4
f 811/11/4 812/11/4 744/11/4 743/11/4
f 812/11/4 813/11/4 745/11/4 744/11/4
f 813/11/4 814/11/4 746/11/4 745/11/4
f 814/11/4 815/11/4 747/11/4 746/11/4
f 815/11/4 816/11/4 748/11/4 747/11/4
f 749/5/6 817/5/6 804/5/6 736/5/6
f 805/4/5 818/4/5 750/4/5 737/4/5
f 751/4/6 819/4/6 806/4/6 738/4/6
f 816/5/5 820/5/5 752/5/5 748/5/5
f 753/5/6 821/5/6 817/5/6 749/5/6
f 822/4/4 823/4/4 755/4/4 754/4/4
f 818/4/5 822/4/5 754/4/5 750/4/5
f 823/4/4 824/4/4 756/4/4 755/4/4
f 824/4/4 825/4/4 757/4/4 756/4/4
f 757/4/6 825/4/6 819/4/6 751/4/6
f 820/11/5 826/11/5 758/11/5 752/11/5
f 759/5/6 827/5/6 821/5/6 753/5/6
f 828/5/4 829/5/4 761/5/4 760/5/4
f 826/5/5 828/5/5 760/5/5 758/5/5
f 829/5/4 830/5/4 762/5/4 761/5/4
f 830/5/4 831/5/4 763/5/4 762/5/4
f 763/5/6 831/5/6 827/5/6 759/5/6
f 764/5/3 832/5/3 833/5/3 765/5/3
f 833/5/5 834/5/5 766/5/5 765/5/5
f 767/5/3 835/5/3 832/5/3 764/5/3
f 768/5/3 836/5/3 835/5/3 767/5/3
f 769/5/6 837/5/6 836/5/6 768/5/6
f 770/4/3 838/4/3 839/4/3 771/4/3
f 839/4/5 840/4/5 772/4/5 771/4/5
f 773/4/3 841/4/3 838/4/3 770/4/3
f 774/4/3 842/4/3 841/4/3 773/4/3
f 775/4/6 843/4/6 842/4/6 774/4/6
f 834/5/5 844/5/5 776/5/5 766/5/5
f 777/5/6 845/5/6 837/5/6 769/5/6
f 840/4/5 846/4/5 778/4/5 772/4/5
f 779/4/6 847/4/6 843/4/6 775/4/6
f 844/5/5 848/5/5 780/5/5 776/5/5
f 781/5/6 849/5/6 845/5/6 777/5/6
f 846/4/5 850/4/5 782/4/5 778/4/5
f 851/11/2 852/11/2 853/11/2 847/11/2
f 783/11/3 851/11/3 847/11/3 779/11/3
f 854/11/2 855/11/2 852/11/2 851/11/2
f 784/11/3 854/11/3 851/11/3 783/11/3
f 856/11/2 857/11/2 855/11/2 854/11/2
f 785/11/3 856/11/3 854/11/3 784/11/3
f 858/11/2 859/11/2 857/11/2 856/11/2
f 786/11/3 858/11/3 856/11/3 785/11/3
f 860/11/2 861/11/2 859/11/2 858/11/2
f 787/11/3 860/11/3 858/11/3 786/11/3
f 862/11/2 863/11/2 861/11/2 860/11/2
f 788/11/3 862/11/3 860/11/3 787/11/3
f 864/11/2 865/11/2 863/11/2 862/11/2
f 789/11/3 864/11/3 862/11/3 788/11/3
f 866/11/2 867/11/2 865/11/2 864/11/2
f 790/11/3 866/11/3 864/11/3 789/11/3
f 868/11/2 869/11/2 867/11/2 866/11/2
f 791/11/3 868/11/3 866/11/3 790/11/3
f 848/11/2 870/11/2 869/11/2 868/11/2
f 780/11/3 848/11/3 868/11/3 791/11/3
f 792/5/6 871/5/6 849/5/6 781/5/6
f 850/4/5 872/4/5 793/4/5 782/4/5
f 852/11/2 873/11/2 874/11/2 853/11/2
f 855/11/2 875/11/2 873/11/2 852/11/2
f 857/11/2 876/11/2 875/11/2 855/11/2
f 859/11/2 877/11/2 876/11/2 857/11/2
f 861/11/2 878/11/2 877/11/2 859/11/2
f 863/11/2 879/11/2 878/11/2 861/11/2
f 865/11/2 880/11/2 879/11/2 863/11/2
f 867/11/2 881/11/2 880/11/2 865/11/2
f 869/11/2 882/11/2 881/11/2 867/11/2
f 870/11/2 883/11/2 882/11/2 869/11/2
f 794/5/6 884/5/6 871/5/6 792/5/6
f 872/4/5 885/4/5 795/4/5 793/4/5
f 873/11/2 886/11/2 887/11/2 874/11/2
f 875/11/2 888/11/2 886/11/2 873/11/2
f 876/11/2 889/11/2 888/11/2 875/11/2
f 877/11/2 890/11/2 889/11/2 876/11/2
f 878/11/2 891/11/2 890/11/2 877/11/2
f 879/11/2 892/11/2 891/11/2 878/11/2
f 880/11/2 893/11/2 892/11/2 879/11/2
f 881/11/2 894/11/2 893/11/2 880/11/2
f 882/11/2 895/11/2 894/11/2 881/11/2
f 883/11/2 896/11/2 895/11/2 882/11/2
f 796/5/6 897/5/6 884/5/6 794/5/6
f 885/4/5 898/4/5 797/4/5 795/4/5
f 886/11/2 899/11/2 900/11/2 887/11/2
f 888/11/2 901/11/2 899/11/2 886/11/2
f 889/11/2 902/11/2 901/11/2 888/11/2
f 890/11/2 903/11/2 902/11/2 889/11/2
f 891/11/2 904/11/2 903/11/2 890/11/2
f 892/11/2 905/11/2 904/11/2 891/11/2
f 893/11/2 906/11/2 905/11/2 892/11/2
f 894/11/2 907/11/2 906/11/2 893/11/2
f 895/11/2 908/11/2 907/11/2 894/11/2
f 896/11/2 909/11/2 908/11/2 895/11/2
f 798/5/6 910/5/6 897/5/6 796/5/6
f 898/4/5 911/4/5 799/4/5 797/4/5
f 899/11/2 912/11/2 913/11/2 900/11/2
f 901/11/2 914/11/2 912/11/2 899/11/2
f 902/11/2 915/11/2 914/11/2 901/11/2
f 903/11/2 916/11/2 915/11/2 902/11/2
f 904/11/2 917/11/2 916/11/2 903/11/2
f 905/11/2 918/11/2 917/11/2 904/11/2
f 906/11/2 919/11/2 918/11/2 905/11/2
f 907/11/2 920/11/2 919/11/2 906/11/2
f 908/11/2 921/11/2 920/11/2 907/11/2
f 909/11/2 922/11/2 921/11/2 908/11/2
f 800/5/6 923/5/6 910/5/6 798/5/6
f 911/5/5 924/5/5 801/5/5 799/5/5
f 912/11/2 925/11/2 926/11/2 913/11/2
f 914/11/2 927/11/2 925/11/2 912/11/2
f 915/11/2 928/11/2 927/11/2 914/11/2
f 916/11/2 929/11/2 928/11/2 915/11/2
f 917/11/2 930/11/2 929/11/2 916/11/2
f 918/11/2 931/11/2 930/11/2 917/11/2
f 919/11/2 932/11/2 931/11/2 918/11/2
f 920/11/2 933/11/2 932/11/2 919/11/2
f 921/11/2 934/11/2 933/11/2 920/11/2
f 922/11/2 935/11/2 934/11/2 921/11/2
f 802/5/6 936/5/6 923/5/6 800/5/6
f 924/4/5 937/4/5 803/4/5 801/4/5
f 925/11/2 938/11/2 939/11/2 926/11/2
f 927/11/2 940/11/2 938/11/2 925/11/2
f 928/11/2 941/11/2 940/11/2 927/11/2
f 929/11/2 942/11/2 941/11/2 928/11/2
f 930/11/2 943/11/2 942/11/2 929/11/2
f 931/11/2 944/11/2 943/11/2 930/11/2
f 932/11/2 945/11/2 944/11/2 931/11/2
f 933/11/2 946/11/2 945/11/2 932/11/2
f 934/11/2 947/11/2 946/11/2 933/11/2
f 935/11/2 948/11/2 947/11/2 934/11/2
f 804/5/6 949/5/6 936/5/6 802/5/6
f 937/4/5 950/4/5 805/4/5 803/4/5
f 938/11/2 951/11/2 952/11/2 939/11/2
f 952/11/4 951/11/4 807/11/4 806/11/4
f 940/11/2 953/11/2 951/11/2 938/11/2
f 951/11/4 953/11/4 808/11/4 807/11/4
f 941/11/2 954/11/2 953/11/2 940/11/2
f 953/11/4 954/11/4 809/11/4 808/11/4
f 942/11/2 955/11/2 954/11/2 941/11/2
f 954/11/4 955/11/4 810/11/4 809/11/4
f 943/11/2 956/11/2 955/11/2 942/11/2
f 955/11/4 956/11/4 811/11/4 810/11/4
f 944/11/2 957/11/2 956/11/2 943/11/2
f 956/11/4 957/11/4 812/11/4 811/11/4
f 945/11/2 958/11/2 957/11/2 944/11/2
f 957/11/4 958/11/4 813/11/4 812/11/4
f 946/11/2 959/11/2 958/11/2 945/11/2
f 958/11/4 959/11/4 814/11/4 813/11/4
f 947/11/2 960/11/2 959/11/2 946/11/2
f 959/11/4 960/11/4 815/11/4 814/11/4
f 948/11/2 961/11/2 960/11/2 947/11/2
f 960/11/4 961/11/4 816/11/4 815/11/4
f 817/5/6 962/5/6 949/5/6 804/5/6
f 950/4/5 963/4/5 818/4/5 805/4/5
f 819/4/6 964/4/6 952/4/6 806/4/6
f 961/5/5 965/5/5 820/5/5 816/5/5
f 821/5/6 966/5/6 962/5/6 817/5/6
f 967/4/4 968/4/4 823/4/4 822/4/4
f 963/4/5 967/4/5 822/4/5 818/4/5
f 968/4/4 969/4/4 824/4/4 823/4/4
f 969/4/4 970/4/4 825/4/4 824/4/4
f 825/4/6 970/4/6 964/4/6 819/4/6
f 965/5/5 971/5/5 826/5/5 820/5/5
f 827/5/6 972/5/6 966/5/6 821/5/6
f 973/5/4 974/5/4 829/5/4 828/5/4
f 971/5/5 973/5/5 828/5/5 826/5/5
f 974/5/4 975/5/4 830/5/4 829/5/4
f 975/5/4 976/5/4 831/5/4 830/5/4
f 831/5/6 976/5/6 972/5/6 827/5/6
f 832/5/3 977/5/3 978/5/3 833/5/3
f 978/5/5 979/5/5 834/5/5 833/5/5
f 835/5/3 980/5/3 977/5/3 832/5/3
f 836/5/3 981/5/3 980/5/3 835/5/3
f 837/5/6 982/5/6 981/5/6 836/5/6
f 838/4/3 983/4/3 984/4/3 839/4/3
f 984/4/5 985/4/5 840/4/5 839/4/5
f 841/4/3 986/4/3 983/4/3 838/4/3
f 842/4/3 987/4/3 986/4/3 841/4/3
f 843/4/6 988/4/6 987/4/6 842/4/6
f 979/11/5 989/11/5 844/11/5 834/11/5
f 845/5/6 990/5/6 982/5/6 837/5/6
f 985/4/5 991/4/5 846/4/5 840/4/5
f 847/4/6 992/4/6 988/4/6 843/4/6
f 989/5/5 993/5/5 848/5/5 844/5/5
f 849/5/6 994/5/6 990/5/6 845/5/6
f 991/4/5 995/4/5 850/4/5 846/4/5
f 853/4/6 996/4/6 992/4/6 847/4/6
f 993/5/5 997/5/5 870/5/5 848/5/5
f 871/5/6 998/5/6 994/5/6 849/5/6
f 995/4/5 999/4/5 872/4/5 850/4/5
f 874/4/6 1000/4/6 996/4/6 853/4/6
f 997/5/5 1001/5/5 883/5/5 870/5/5
f 884/5/6 1002/5/6 998/5/6 871/5/6
f 999/4/5 1003/4/5 885/4/5 872/4/5
f 887/4/6 1004/4/6 1000/4/6 874/4/6
f 1001/5/5 1005/5/5 896/5/5 883/5/5
f 897/5/6 1006/5/6 1002/5/6 884/5/6
f 1003/4/5 1007/4/5 898/4/5 885/4/5
f 900/4/6 1008/4/6 1004/4/6 887/4/6
f 1005/5/5 1009/5/5 909/5/5 896/5/5
f 910/5/6 1010/5/6 1006/5/6 897/5/6
f 1007/4/5 1011/4/5 911/4/5 898/4/5
f 913/4/6 1012/4/6 1008/4/6 900/4/6
f 1009/5/5 1013/5/5 922/5/5 909/5/5
f 923/5/6 1014/5/6 1010/5/6 910/5/6
f 1011/4/5 1015/4/5 924/4/5 911/4/5
f 926/4/6 1016/4/6 1012/4/6 913/4/6
f 1013/5/5 1017/5/5 935/5/5 922/5/5
f 936/5/6 1018/5/6 1014/5/6 923/5/6
f 1015/4/5 1019/4/5 937/4/5 924/4/5
f 939/4/6 1020/4/6 1016/4/6 926/4/6
f 1017/5/5 1021/5/5 948/5/5 935/5/5
f 949/5/6 1022/5/6 1018/5/6 936/5/6
f 1019/4/5 1023/4/5 950/4/5 937/4/5
f 952/4/6 1024/4/6 1020/4/6 939/4/6
f 1021/5/5 1025/5/5 961/5/5 948/5/5
f 962/5/6 1026/5/6 1022/5/6 949/5/6
f 1023/4/5 1027/4/5 963/4/5 950/4/5
f 964/4/6 1028/4/6 1024/4/6 952/4/6
f 1025/5/5 1029/5/5 965/5/5 961/5/5
f 966/5/6 1030/5/6 1026/5/6 962/5/6
f 1031/4/4 1032/4/4 968/4/4 967/4/4
f 1027/4/5 1031/4/5 967/4/5 963/4/5
f 1032/4/4 1033/4/4 969/4/4 968/4/4
f 1033/4/4 1034/4/4 970/4/4 969/4/4
f 970/4/6 1034/4/6 1028/4/6 964/4/6
f 1029/5/5 1035/5/5 971/5/5 965/5/5
f 972/5/6 1036/5/6 1030/5/6 966/5/6
f 1037/5/4 1038/5/4 974/5/4 973/5/4
f 1035/5/5 1037/5/5 973/5/5 971/5/5
f 1038/5/4 1039/5/4 975/5/4 974/5/4
f 1039/5/4 1040/5/4 976/5/4 975/5/4
f 976/5/6 1040/5/6 1036/5/6 972/5/6
f 977/5/3 1041/5/3 1042/5/3 978/5/3
f 1042/5/5 1043/5/5 979/5/5 978/5/5
f 980/5/3 1044/5/3 1041/5/3 977/5/3
f 981/5/3 1045/5/3 1044/5/3 980/5/3
f 982/5/6 1046/5/6 1045/5/6 981/5/6
f 1047/4/2 1048/4/2 1049/4/2 1050/4/2
f 983/4/3 1047/4/3 1050/4/3 984/4/3
f 1050/4/5 1049/4/5 985/4/5 984/4/5
f 1051/4/2 1052/4/2 1048/4/2 1047/4/2
f 986/4/3 1051/4/3 1047/4/3 983/4/3
f 1053/4/2 1054/4/2 1052/4/2 1051/4/2
f 987/4/3 1053/4/3 1051/4/3 986/4/3
f 988/4/6 1054/4/6 1053/4/6 987/4/6
f 1043/5/5 1055/5/5 989/5/5 979/5/5
f 990/5/6 1056/5/6 1046/5/6 982/5/6
f 1048/4/2 1057/4/2 1058/4/2 1049/4/2
f 1049/4/5 1058/4/5 991/4/5 985/4/5
f 1052/4/2 1059/4/2 1057/4/2 1048/4/2
f 1054/4/2 1060/4/2 1059/4/2 1052/4/2
f 992/4/6 1060/4/6 1054/4/6 988/4/6
f 1055/5/5 1061/5/5 993/5/5 989/5/5
f 994/5/6 1062/5/6 1056/5/6 990/5/6
f 1057/4/2 1063/4/2 1064/4/2 1058/4/2
f 1058/4/5 1064/4/5 995/4/5 991/4/5
f 1059/4/2 1065/4/2 1063/4/2 1057/4/2
f 1060/4/2 1066/4/2 1065/4/2 1059/4/2
f 996/4/6 1066/4/6 1060/4/6 992/4/6
f 1061/5/5 1067/5/5 997/5/5 993/5/5
f 998/5/6 1068/5/6 1062/5/6 994/5/6
f 1063/4/2 1069/4/2 1070/4/2 1064/4/2
f 1064/4/5 1070/4/5 999/4/5 995/4/5
f 1065/4/2 1071/4/2 1069/4/2 1063/4/2
f 1066/4/2 1072/4/2 1071/4/2 1065/4/2
f 1000/4/6 1072/4/6 1066/4/6 996/4/6
f 1067/5/5 1073/5/5 1001/5/5 997/5/5
f 1002/5/6 1074/5/6 1068/5/6 998/5/6
f 1069/4/2 1075/4/2 1076/4/2 1070/4/2
f 1070/4/5 1076/4/5 1003/4/5 999/4/5
f 1071/4/2 1077/4/2 1075/4/2 1069/4/2
f 1072/4/2 1078/4/2 1077/4/2 1071/4/2
f 1004/4/6 1078/4/6 1072/4/6 1000/4/6
f 1073/5/5 1079/5/5 1005/5/5 1001/5/5
f 1006/5/6 1080/5/6 1074/5/6 1002/5/6
f 1075/4/2 1081/4/2 1082/4/2 1076/4/2
f 1076/4/5 1082/4/5 1007/4/5 1003/4/5
f 1077/4/2 1083/4/2 1081/4/2 1075/4/2
f 1078/4/2 1084/4/2 1083/4/2 1077/4/2
f 1008/4/6 1084/4/6 1078/4/6 1004/4/6
f 1079/5/5 1085/5/5 1009/5/5 1005/5/5
f 1010/5/6 1086/5/6 1080/5/6 1006/5/6
f 1081/4/2 1087/4/2 1088/4/2 1082/4/2
f 1082/4/5 1088/4/5 1011/4/5 1007/4/5
f 1083/4/2 1089/4/2 1087/4/2 1081/4/2
f 1084/4/2 1090/4/2 1089/4/2 1083/4/2
f 1012/4/6 1090/4/6 1084/4/6 1008/4/6
f 1085/5/5 1091/5/5 1013/5/5 1009/5/5
f 1014/5/6 1092/5/6 1086/5/6 1010/5/6
f 1087/4/2 1093/4/2 1094/4/2 1088/4/2
f 1088/4/5 1094/4/5 1015/4/5 1011/4/5
f 1089/4/2 1095/4/2 1093/4/2 1087/4/2
f 1090/4/2 1096/4/2 1095/4/2 1089/4/2
f 1016/4/6 1096/4/6 1090/4/6 1012/4/6
f 1091/5/5 1097/5/5 1017/5/5 1013/5/5
f 1018/5/6 1098/5/6 1092/5/6 1014/5/6
f 1093/4/2 1099/4/2 1100/4/2 1094/4/2
f 1094/4/5 1100/4/5 1019/4/5 1015/4/5
f 1095/4/2 1101/4/2 1099/4/2 1093/4/2
f 1096/4/2 1102/4/2 1101/4/2 1095/4/2
f 1020/4/6 1102/4/6 1096/4/6 1016/4/6
f 1097/5/5 1103/5/5 1021/5/5 1017/5/5
f 1022/5/6 1104/5/6 1098/5/6 1018/5/6
f 1099/4/2 1105/4/2 1106/4/2 1100/4/2
f 1100/4/5 1106/4/5 1023/4/5 1019/4/5
f 1101/4/2 1107/4/2 1105/4/2 1099/4/2
f 1102/4/2 1108/4/2 1107/4/2 1101/4/2
f 1024/4/6 1108/4/6 1102/4/6 1020/4/6
f 1103/5/5 1109/5/5 1025/5/5 1021/5/5
f 1026/5/6 1110/5/6 1104/5/6 1022/5/6
f 1105/4/2 1111/4/2 1112/4/2 1106/4/2
f 1106/4/5 1112/4/5 1027/4/5 1023/4/5
f 1107/4/2 1113/4/2 1111/4/2 1105/4/2
f 1108/4/2 1114/4/2 1113/4/2 1107/4/2
f 1028/4/6 1114/4/6 1108/4/6 1024/4/6
f 1109/5/5 1115/5/5 1029/5/5 1025/5/5
f 1030/5/6 1116/5/6 1110/5/6 1026/5/6
f 1111/4/2 1117/4/2 1118/4/2 1112/4/2
f 1118/4/4 1117/4/4 1032/4/4 1031/4/4
f 1112/4/5 1118/4/5 1031/4/5 1027/4/5
f 1113/4/2 1119/4/2 1117/4/2 1111/4/2
f 1117/4/4 1119/4/4 1033/4/4 1032/4/4
f 1114/4/2 1120/4/2 1119/4/2 1113/4/2
f 1119/4/4 1120/4/4 1034/4/4 1033/4/4
f 1034/4/6 1120/4/6 1114/4/6 1028/4/6
f 1115/5/5 1121/5/5 1035/5/5 1029/5/5
f 1036/5/6 1122/5/6 1116/5/6 1030/5/6
f 1123/5/4 1124/5/4 1038/5/4 1037/5/4
f 1121/5/5 1123/5/5 1037/5/5 1035/5/5
f 1124/5/4 1125/5/4 1039/5/4 1038/5/4
f 1125/5/4 1126/5/4 1040/5/4 1039/5/4
f 1040/5/6 1126/5/6 1122/5/6 1036/5/6
f 1127/5/2 1128/5/2 1129/5/2 1130/5/2
f 1041/5/3 1127/5/3 1130/5/3 1042/5/3
f 1130/5/5 1129/5/5 1043/5/5 1042/5/5
f 1131/5/2 1132/5/2 1128/5/2 1127/5/2
f 1044/5/3 1131/5/3 1127/5/3 1041/5/3
f 1133/5/2 1134/5/2 1132/5/2 1131/5/2
f 1045/5/3 1133/5/3 1131/5/3 1044/5/3
f 1046/5/6 1134/5/6 1133/5/6 1045/5/6
f 1128/5/2 1135/5/2 1136/5/2 1129/5/2
f 1129/5/5 1136/5/5 1055/5/5 1043/5/5
f 1132/5/2 1137/5/2 1135/5/2 1128/5/2
f 1134/5/2 1138/5/2 1137/5/2 1132/5/2
f 1056/5/6 1138/5/6 1134/5/6 1046/5/6
f 1135/5/2 1139/5/2 1140/5/2 1136/5/2
f 1136/5/5 1140/5/5 1061/5/5 1055/5/5
f 1137/5/2 1141/5/2 1139/5/2 1135/5/2
f 1138/5/2 1142/5/2 1141/5/2 1137/5/2
f 1062/5/6 1142/5/6 1138/5/6 1056/5/6
f 1139/5/2 1143/5/2 1144/5/2 1140/5/2
f 1140/5/5 1144/5/5 1067/5/5 1061/5/5
f 1141/5/2 1145/5/2 1143/5/2 1139/5/2
f 1142/5/2 1146/5/2 1145/5/2 1141/5/2
f 1068/5/6 1146/5/6 1142/5/6 1062/5/6
f 1143/5/2 1147/5/2 1148/5/2 1144/5/2
f 1144/5/5 1148/5/5 1073/5/5 1067/5/5
f 1145/5/2 1149/5/2 1147/5/2 1143/5/2
f 1146/5/2 1150/5/2 1149/5/2 1145/5/2
f 1074/5/6 1150/5/6 1146/5/6 1068/5/6
f 1147/5/2 1151/5/2 1152/5/2 1148/5/2
f 1148/5/5 1152/5/5 1079/5/5 1073/5/5
f 1149/5/2 1153/5/2 1151/5/2 1147/5/2
f 1150/5/2 1154/5/2 1153/5/2 1149/5/2
f 1080/5/6 1154/5/6 1150/5/6 1074/5/6
f 1151/5/2 1155/5/2 1156/5/2 1152/5/2
f 1152/5/5 1156/5/5 1085/5/5 1079/5/5
f 1153/5/2 1157/5/2 1155/5/2 1151/5/2
f 1154/5/2 1158/5/2 1157/5/2 1153/5/2
f 1086/5/6 1158/5/6 1154/5/6 1080/5/6
f 1155/5/2 1159/5/2 1160/5/2 1156/5/2
f 1156/5/5 1160/5/5 1091/5/5 1085/5/5
f 1157/5/2 1161/5/2 1159/5/2 1155/5/2
f 1158/5/2 1162/5/2 1161/5/2 1157/5/2
f 1092/5/6 1162/5/6 1158/5/6 1086/5/6
f 1159/5/2 1163/5/2 1164/5/2 1160/5/2
f 1160/5/5 1164/5/5 1097/5/5 1091/5/5
f 1161/5/2 1165/5/2 1163/5/2 1159/5/2
f 1162/5/2 1166/5/2 1165/5/2 1161/5/2
f 1098/5/6 1166/5/6 1162/5/6 1092/5/6
f 1163/5/2 1167/5/2 1168/5/2 1164/5/2
f 1164/5/5 1168/5/5 1103/5/5 1097/5/5
f 1165/5/2 1169/5/2 1167/5/2 1163/5/2
f 1166/5/2 1170/5/2 1169/5/2 1165/5/2
f 1104/5/6 1170/5/6 1166/5/6 1098/5/6
f 1167/5/2 1171/5/2 1172/5/2 1168/5/2
f 1168/5/5 1172/5/5 1109/5/5 1103/5/5
f 1169/5/2 1173/5/2 1171/5/2 1167/5/2
f 1170/5/2 1174/5/2 1173/5/2 1169/5/2
f 1110/5/6 1174/5/6 1170/5/6 1104/5/6
f 1171/5/2 1175/5/2 1176/5/2 1172/5/2
f 1172/5/5 1176/5/5 1115/5/5 1109/5/5
f 1173/5/2 1177/5/2 1175/5/2 1171/5/2
f 1174/5/2 1178/5/2 1177/5/2 1173/5/2
f 1116/5/6 1178/5/6 1174/5/6 1110/5/6
f 1175/5/2 1179/5/2 1180/5/2 1176/5/2
f 1176/5/5 1180/5/5 1121/5/5 1115/5/5
f 1177/5/2 1181/5/2 1179/5/2 1175/5/2
f 1178/5/2 1182/5/2 1181/5/2 1177/5/2
f 1122/5/6 1182/5/6 1178/5/6 1116/5/6
f 1179/5/2 1183/5/2 1184/5/2 1180/5/2
f 1184/5/4 1183/5/4 1124/5/4 1123/5/4
f 1180/5/5 1184/5/5 1123/5/5 1121/5/5
f 1181/5/2 1185/5/2 1183/5/2 1179/5/2
f 1183/5/4 1185/5/4 1125/5/4 1124/5/4
f 1182/5/2 1186/5/2 1185/5/2 1181/5/2
f 1185/5/4 1186/5/4 1126/5/4 1125/5/4
f 1126/5/6 1186/5/6 1182/5/6 1122/5/6
