# Dungine barrel; 1 voxel = 1/16 unit; Y-up floor-center origin
mtllib barrel.mtl
o barrel
s off
v -0.375000 0.062500 -0.125000
v -0.375000 0.125000 -0.125000
v -0.375000 0.125000 -0.187500
v -0.375000 0.062500 -0.187500
v -0.312500 0.125000 -0.187500
v -0.312500 0.062500 -0.187500
v -0.312500 0.062500 -0.125000
v -0.375000 0.187500 -0.125000
v -0.375000 0.187500 -0.187500
v -0.312500 0.187500 -0.187500
v -0.375000 0.250000 -0.125000
v -0.375000 0.250000 -0.187500
v -0.312500 0.250000 -0.187500
v -0.375000 0.312500 -0.125000
v -0.375000 0.312500 -0.187500
v -0.312500 0.312500 -0.187500
v -0.375000 0.375000 -0.125000
v -0.375000 0.375000 -0.187500
v -0.312500 0.375000 -0.187500
v -0.375000 0.437500 -0.125000
v -0.375000 0.437500 -0.187500
v -0.312500 0.437500 -0.187500
v -0.375000 0.500000 -0.125000
v -0.375000 0.500000 -0.187500
v -0.312500 0.500000 -0.187500
v -0.375000 0.562500 -0.125000
v -0.375000 0.562500 -0.187500
v -0.312500 0.562500 -0.187500
v -0.375000 0.625000 -0.125000
v -0.375000 0.625000 -0.187500
v -0.312500 0.625000 -0.187500
v -0.375000 0.687500 -0.125000
v -0.375000 0.687500 -0.187500
v -0.312500 0.687500 -0.187500
v -0.375000 0.750000 -0.125000
v -0.375000 0.750000 -0.187500
v -0.312500 0.750000 -0.187500
v -0.375000 0.812500 -0.125000
v -0.375000 0.812500 -0.187500
v -0.312500 0.812500 -0.187500
v -0.375000 0.875000 -0.125000
v -0.375000 0.875000 -0.187500
v -0.312500 0.875000 -0.187500
v -0.312500 0.875000 -0.125000
v -0.375000 0.062500 -0.062500
v -0.375000 0.125000 -0.062500
v -0.312500 0.062500 -0.062500
v -0.375000 0.187500 -0.062500
v -0.375000 0.250000 -0.062500
v -0.375000 0.312500 -0.062500
v -0.375000 0.375000 -0.062500
v -0.375000 0.437500 -0.062500
v -0.375000 0.500000 -0.062500
v -0.375000 0.562500 -0.062500
v -0.375000 0.625000 -0.062500
v -0.375000 0.687500 -0.062500
v -0.375000 0.750000 -0.062500
v -0.375000 0.812500 -0.062500
v -0.375000 0.875000 -0.062500
v -0.312500 0.875000 -0.062500
v -0.375000 0.062500 0.000000
v -0.375000 0.125000 0.000000
v -0.312500 0.062500 0.000000
v -0.375000 0.187500 0.000000
v -0.375000 0.250000 0.000000
v -0.375000 0.312500 0.000000
v -0.375000 0.375000 0.000000
v -0.375000 0.437500 0.000000
v -0.375000 0.500000 0.000000
v -0.375000 0.562500 0.000000
v -0.375000 0.625000 0.000000
v -0.375000 0.687500 0.000000
v -0.375000 0.750000 0.000000
v -0.375000 0.812500 0.000000
v -0.375000 0.875000 0.000000
v -0.312500 0.875000 0.000000
v -0.375000 0.062500 0.062500
v -0.375000 0.125000 0.062500
v -0.312500 0.062500 0.062500
v -0.375000 0.187500 0.062500
v -0.375000 0.250000 0.062500
v -0.375000 0.312500 0.062500
v -0.375000 0.375000 0.062500
v -0.375000 0.437500 0.062500
v -0.375000 0.500000 0.062500
v -0.375000 0.562500 0.062500
v -0.375000 0.625000 0.062500
v -0.375000 0.687500 0.062500
v -0.375000 0.750000 0.062500
v -0.375000 0.812500 0.062500
v -0.375000 0.875000 0.062500
v -0.312500 0.875000 0.062500
v -0.375000 0.062500 0.125000
v -0.375000 0.125000 0.125000
v -0.312500 0.062500 0.125000
v -0.375000 0.187500 0.125000
v -0.375000 0.250000 0.125000
v -0.375000 0.312500 0.125000
v -0.375000 0.375000 0.125000
v -0.375000 0.437500 0.125000
v -0.375000 0.500000 0.125000
v -0.375000 0.562500 0.125000
v -0.375000 0.625000 0.125000
v -0.375000 0.687500 0.125000
v -0.375000 0.750000 0.125000
v -0.375000 0.812500 0.125000
v -0.375000 0.875000 0.125000
v -0.312500 0.875000 0.125000
v -0.375000 0.062500 0.187500
v -0.375000 0.125000 0.187500
v -0.312500 0.062500 0.187500
v -0.312500 0.125000 0.187500
v -0.375000 0.187500 0.187500
v -0.312500 0.187500 0.187500
v -0.375000 0.250000 0.187500
v -0.312500 0.250000 0.187500
v -0.375000 0.312500 0.187500
v -0.312500 0.312500 0.187500
v -0.375000 0.375000 0.187500
v -0.312500 0.375000 0.187500
v -0.375000 0.437500 0.187500
v -0.312500 0.437500 0.187500
v -0.375000 0.500000 0.187500
v -0.312500 0.500000 0.187500
v -0.375000 0.562500 0.187500
v -0.312500 0.562500 0.187500
v -0.375000 0.625000 0.187500
v -0.312500 0.625000 0.187500
v -0.375000 0.687500 0.187500
v -0.312500 0.687500 0.187500
v -0.375000 0.750000 0.187500
v -0.312500 0.750000 0.187500
v -0.375000 0.812500 0.187500
v -0.312500 0.812500 0.187500
v -0.375000 0.875000 0.187500
v -0.312500 0.875000 0.187500
v -0.312500 0.062500 -0.250000
v -0.312500 0.125000 -0.250000
v -0.312500 0.125000 -0.312500
v -0.312500 0.062500 -0.312500
v -0.250000 0.125000 -0.312500
v -0.250000 0.062500 -0.312500
v -0.250000 0.062500 -0.250000
v -0.312500 0.187500 -0.250000
v -0.312500 0.187500 -0.312500
v -0.250000 0.187500 -0.312500
v -0.312500 0.250000 -0.250000
v -0.312500 0.250000 -0.312500
v -0.250000 0.250000 -0.312500
v -0.312500 0.312500 -0.250000
v -0.312500 0.312500 -0.312500
v -0.250000 0.312500 -0.312500
v -0.312500 0.375000 -0.250000
v -0.312500 0.375000 -0.312500
v -0.250000 0.375000 -0.312500
v -0.312500 0.437500 -0.250000
v -0.312500 0.437500 -0.312500
v -0.250000 0.437500 -0.312500
v -0.312500 0.500000 -0.250000
v -0.312500 0.500000 -0.312500
v -0.250000 0.500000 -0.312500
v -0.312500 0.562500 -0.250000
v -0.312500 0.562500 -0.312500
v -0.250000 0.562500 -0.312500
v -0.312500 0.625000 -0.250000
v -0.312500 0.625000 -0.312500
v -0.250000 0.625000 -0.312500
v -0.312500 0.687500 -0.250000
v -0.312500 0.687500 -0.312500
v -0.250000 0.687500 -0.312500
v -0.312500 0.750000 -0.250000
v -0.312500 0.750000 -0.312500
v -0.250000 0.750000 -0.312500
v -0.312500 0.812500 -0.250000
v -0.312500 0.812500 -0.312500
v -0.250000 0.812500 -0.312500
v -0.312500 0.875000 -0.250000
v -0.312500 0.875000 -0.312500
v -0.250000 0.875000 -0.312500
v -0.250000 0.875000 -0.250000
v -0.250000 0.062500 -0.187500
v -0.250000 0.875000 -0.187500
v -0.250000 0.062500 -0.125000
v -0.250000 0.875000 -0.125000
v -0.312500 0.000000 -0.062500
v -0.312500 0.000000 -0.125000
v -0.250000 0.000000 -0.125000
v -0.250000 0.000000 -0.062500
v -0.312500 0.937500 -0.062500
v -0.312500 0.937500 -0.125000
v -0.250000 0.937500 -0.125000
v -0.250000 0.937500 -0.062500
v -0.312500 0.000000 0.000000
v -0.250000 0.000000 0.000000
v -0.312500 0.937500 0.000000
v -0.250000 0.937500 0.000000
v -0.312500 0.000000 0.062500
v -0.250000 0.000000 0.062500
v -0.312500 0.937500 0.062500
v -0.250000 0.937500 0.062500
v -0.312500 0.000000 0.125000
v -0.250000 0.000000 0.125000
v -0.250000 0.062500 0.125000
v -0.312500 0.937500 0.125000
v -0.250000 0.875000 0.125000
v -0.250000 0.937500 0.125000
v -0.250000 0.062500 0.187500
v -0.250000 0.875000 0.187500
v -0.312500 0.062500 0.250000
v -0.312500 0.125000 0.250000
v -0.250000 0.062500 0.250000
v -0.312500 0.187500 0.250000
v -0.312500 0.250000 0.250000
v -0.312500 0.312500 0.250000
v -0.312500 0.375000 0.250000
v -0.312500 0.437500 0.250000
v -0.312500 0.500000 0.250000
v -0.312500 0.562500 0.250000
v -0.312500 0.625000 0.250000
v -0.312500 0.687500 0.250000
v -0.312500 0.750000 0.250000
v -0.312500 0.812500 0.250000
v -0.312500 0.875000 0.250000
v -0.250000 0.875000 0.250000
v -0.312500 0.062500 0.312500
v -0.312500 0.125000 0.312500
v -0.250000 0.062500 0.312500
v -0.250000 0.125000 0.312500
v -0.312500 0.187500 0.312500
v -0.250000 0.187500 0.312500
v -0.312500 0.250000 0.312500
v -0.250000 0.250000 0.312500
v -0.312500 0.312500 0.312500
v -0.250000 0.312500 0.312500
v -0.312500 0.375000 0.312500
v -0.250000 0.375000 0.312500
v -0.312500 0.437500 0.312500
v -0.250000 0.437500 0.312500
v -0.312500 0.500000 0.312500
v -0.250000 0.500000 0.312500
v -0.312500 0.562500 0.312500
v -0.250000 0.562500 0.312500
v -0.312500 0.625000 0.312500
v -0.250000 0.625000 0.312500
v -0.312500 0.687500 0.312500
v -0.250000 0.687500 0.312500
v -0.312500 0.750000 0.312500
v -0.250000 0.750000 0.312500
v -0.312500 0.812500 0.312500
v -0.250000 0.812500 0.312500
v -0.312500 0.875000 0.312500
v -0.250000 0.875000 0.312500
v -0.187500 0.125000 -0.312500
v -0.187500 0.062500 -0.312500
v -0.187500 0.062500 -0.250000
v -0.187500 0.187500 -0.312500
v -0.187500 0.250000 -0.312500
v -0.187500 0.312500 -0.312500
v -0.187500 0.375000 -0.312500
v -0.187500 0.437500 -0.312500
v -0.187500 0.500000 -0.312500
v -0.187500 0.562500 -0.312500
v -0.187500 0.625000 -0.312500
v -0.187500 0.687500 -0.312500
v -0.187500 0.750000 -0.312500
v -0.187500 0.812500 -0.312500
v -0.187500 0.875000 -0.312500
v -0.187500 0.875000 -0.250000
v -0.250000 0.000000 -0.187500
v -0.250000 0.000000 -0.250000
v -0.187500 0.000000 -0.250000
v -0.187500 0.000000 -0.187500
v -0.250000 0.937500 -0.187500
v -0.250000 0.937500 -0.250000
v -0.187500 0.937500 -0.250000
v -0.187500 0.937500 -0.187500
v -0.187500 0.000000 -0.125000
v -0.187500 0.937500 -0.125000
v -0.187500 0.000000 -0.062500
v -0.187500 0.937500 -0.062500
v -0.187500 0.000000 0.000000
v -0.187500 0.937500 0.000000
v -0.187500 0.000000 0.062500
v -0.187500 0.937500 0.062500
v -0.187500 0.000000 0.125000
v -0.187500 0.937500 0.125000
v -0.250000 0.000000 0.187500
v -0.187500 0.000000 0.187500
v -0.250000 0.937500 0.187500
v -0.187500 0.937500 0.187500
v -0.250000 0.000000 0.250000
v -0.187500 0.000000 0.250000
v -0.187500 0.062500 0.250000
v -0.250000 0.937500 0.250000
v -0.187500 0.875000 0.250000
v -0.187500 0.937500 0.250000
v -0.187500 0.062500 0.312500
v -0.187500 0.125000 0.312500
v -0.187500 0.187500 0.312500
v -0.187500 0.250000 0.312500
v -0.187500 0.312500 0.312500
v -0.187500 0.375000 0.312500
v -0.187500 0.437500 0.312500
v -0.187500 0.500000 0.312500
v -0.187500 0.562500 0.312500
v -0.187500 0.625000 0.312500
v -0.187500 0.687500 0.312500
v -0.187500 0.750000 0.312500
v -0.187500 0.812500 0.312500
v -0.187500 0.875000 0.312500
v -0.187500 0.125000 -0.375000
v -0.187500 0.062500 -0.375000
v -0.125000 0.125000 -0.375000
v -0.125000 0.062500 -0.375000
v -0.125000 0.062500 -0.312500
v -0.187500 0.187500 -0.375000
v -0.125000 0.187500 -0.375000
v -0.187500 0.250000 -0.375000
v -0.125000 0.250000 -0.375000
v -0.187500 0.312500 -0.375000
v -0.125000 0.312500 -0.375000
v -0.187500 0.375000 -0.375000
v -0.125000 0.375000 -0.375000
v -0.187500 0.437500 -0.375000
v -0.125000 0.437500 -0.375000
v -0.187500 0.500000 -0.375000
v -0.125000 0.500000 -0.375000
v -0.187500 0.562500 -0.375000
v -0.125000 0.562500 -0.375000
v -0.187500 0.625000 -0.375000
v -0.125000 0.625000 -0.375000
v -0.187500 0.687500 -0.375000
v -0.125000 0.687500 -0.375000
v -0.187500 0.750000 -0.375000
v -0.125000 0.750000 -0.375000
v -0.187500 0.812500 -0.375000
v -0.125000 0.812500 -0.375000
v -0.187500 0.875000 -0.375000
v -0.125000 0.875000 -0.375000
v -0.125000 0.875000 -0.312500
v -0.125000 0.062500 -0.250000
v -0.125000 0.875000 -0.250000
v -0.125000 0.000000 -0.250000
v -0.125000 0.000000 -0.187500
v -0.125000 0.937500 -0.250000
v -0.125000 0.937500 -0.187500
v -0.125000 0.000000 -0.125000
v -0.125000 0.937500 -0.125000
v -0.125000 0.000000 -0.062500
v -0.125000 0.937500 -0.062500
v -0.125000 0.000000 0.000000
v -0.125000 0.937500 0.000000
v -0.125000 0.000000 0.062500
v -0.125000 0.937500 0.062500
v -0.125000 0.000000 0.125000
v -0.125000 0.937500 0.125000
v -0.125000 0.000000 0.187500
v -0.125000 0.937500 0.187500
v -0.125000 0.000000 0.250000
v -0.125000 0.062500 0.250000
v -0.125000 0.875000 0.250000
v -0.125000 0.937500 0.250000
v -0.125000 0.062500 0.312500
v -0.125000 0.875000 0.312500
v -0.187500 0.062500 0.375000
v -0.187500 0.125000 0.375000
v -0.125000 0.062500 0.375000
v -0.125000 0.125000 0.375000
v -0.187500 0.187500 0.375000
v -0.125000 0.187500 0.375000
v -0.187500 0.250000 0.375000
v -0.125000 0.250000 0.375000
v -0.187500 0.312500 0.375000
v -0.125000 0.312500 0.375000
v -0.187500 0.375000 0.375000
v -0.125000 0.375000 0.375000
v -0.187500 0.437500 0.375000
v -0.125000 0.437500 0.375000
v -0.187500 0.500000 0.375000
v -0.125000 0.500000 0.375000
v -0.187500 0.562500 0.375000
v -0.125000 0.562500 0.375000
v -0.187500 0.625000 0.375000
v -0.125000 0.625000 0.375000
v -0.187500 0.687500 0.375000
v -0.125000 0.687500 0.375000
v -0.187500 0.750000 0.375000
v -0.125000 0.750000 0.375000
v -0.187500 0.812500 0.375000
v -0.125000 0.812500 0.375000
v -0.187500 0.875000 0.375000
v -0.125000 0.875000 0.375000
v -0.062500 0.125000 -0.375000
v -0.062500 0.062500 -0.375000
v -0.062500 0.062500 -0.312500
v -0.062500 0.187500 -0.375000
v -0.062500 0.250000 -0.375000
v -0.062500 0.312500 -0.375000
v -0.062500 0.375000 -0.375000
v -0.062500 0.437500 -0.375000
v -0.062500 0.500000 -0.375000
v -0.062500 0.562500 -0.375000
v -0.062500 0.625000 -0.375000
v -0.062500 0.687500 -0.375000
v -0.062500 0.750000 -0.375000
v -0.062500 0.812500 -0.375000
v -0.062500 0.875000 -0.375000
v -0.062500 0.875000 -0.312500
v -0.125000 0.000000 -0.312500
v -0.062500 0.000000 -0.312500
v -0.062500 0.000000 -0.250000
v -0.125000 0.937500 -0.312500
v -0.062500 0.937500 -0.312500
v -0.062500 0.937500 -0.250000
v -0.062500 0.000000 -0.187500
v -0.062500 0.937500 -0.187500
v -0.062500 0.000000 -0.125000
v -0.062500 0.937500 -0.125000
v -0.062500 0.000000 -0.062500
v -0.062500 0.937500 -0.062500
v -0.062500 0.000000 0.000000
v -0.062500 0.937500 0.000000
v -0.062500 0.000000 0.062500
v -0.062500 0.937500 0.062500
v -0.062500 0.000000 0.125000
v -0.062500 0.937500 0.125000
v -0.062500 0.000000 0.187500
v -0.062500 0.937500 0.187500
v -0.062500 0.000000 0.250000
v -0.062500 0.937500 0.250000
v -0.125000 0.000000 0.312500
v -0.062500 0.000000 0.312500
v -0.062500 0.062500 0.312500
v -0.125000 0.937500 0.312500
v -0.062500 0.875000 0.312500
v -0.062500 0.937500 0.312500
v -0.062500 0.062500 0.375000
v -0.062500 0.125000 0.375000
v -0.062500 0.187500 0.375000
v -0.062500 0.250000 0.375000
v -0.062500 0.312500 0.375000
v -0.062500 0.375000 0.375000
v -0.062500 0.437500 0.375000
v -0.062500 0.500000 0.375000
v -0.062500 0.562500 0.375000
v -0.062500 0.625000 0.375000
v -0.062500 0.687500 0.375000
v -0.062500 0.750000 0.375000
v -0.062500 0.812500 0.375000
v -0.062500 0.875000 0.375000
v 0.000000 0.125000 -0.375000
v 0.000000 0.062500 -0.375000
v 0.000000 0.062500 -0.312500
v 0.000000 0.187500 -0.375000
v 0.000000 0.250000 -0.375000
v 0.000000 0.312500 -0.375000
v 0.000000 0.375000 -0.375000
v 0.000000 0.437500 -0.375000
v 0.000000 0.500000 -0.375000
v 0.000000 0.562500 -0.375000
v 0.000000 0.625000 -0.375000
v 0.000000 0.687500 -0.375000
v 0.000000 0.750000 -0.375000
v 0.000000 0.812500 -0.375000
v 0.000000 0.875000 -0.375000
v -0.062500 0.937500 -0.375000
v 0.000000 0.937500 -0.375000
v 0.000000 0.937500 -0.312500
v 0.000000 0.875000 -0.312500
v 0.000000 0.000000 -0.312500
v 0.000000 0.000000 -0.250000
v 0.000000 0.937500 -0.250000
v 0.000000 0.000000 -0.187500
v 0.000000 0.937500 -0.187500
v 0.000000 0.000000 -0.125000
v 0.000000 0.937500 -0.125000
v 0.000000 0.000000 -0.062500
v 0.000000 0.937500 -0.062500
v 0.000000 0.000000 0.000000
v 0.000000 0.937500 0.000000
v 0.000000 0.000000 0.062500
v 0.000000 0.937500 0.062500
v 0.000000 0.000000 0.125000
v 0.000000 0.937500 0.125000
v 0.000000 0.000000 0.187500
v 0.000000 0.937500 0.187500
v 0.000000 0.000000 0.250000
v 0.000000 0.937500 0.250000
v 0.000000 0.000000 0.312500
v 0.000000 0.062500 0.312500
v 0.000000 0.937500 0.312500
v 0.000000 0.062500 0.375000
v 0.000000 0.125000 0.375000
v 0.000000 0.187500 0.375000
v 0.000000 0.250000 0.375000
v 0.000000 0.312500 0.375000
v 0.000000 0.375000 0.375000
v 0.000000 0.437500 0.375000
v 0.000000 0.500000 0.375000
v 0.000000 0.562500 0.375000
v 0.000000 0.625000 0.375000
v 0.000000 0.687500 0.375000
v 0.000000 0.750000 0.375000
v 0.000000 0.812500 0.375000
v 0.000000 0.875000 0.375000
v -0.062500 0.937500 0.375000
v 0.000000 0.937500 0.375000
v 0.000000 0.875000 0.312500
v 0.062500 0.125000 -0.375000
v 0.062500 0.062500 -0.375000
v 0.062500 0.062500 -0.312500
v 0.062500 0.187500 -0.375000
v 0.062500 0.250000 -0.375000
v 0.062500 0.312500 -0.375000
v 0.062500 0.375000 -0.375000
v 0.062500 0.437500 -0.375000
v 0.062500 0.500000 -0.375000
v 0.062500 0.562500 -0.375000
v 0.062500 0.625000 -0.375000
v 0.062500 0.687500 -0.375000
v 0.062500 0.750000 -0.375000
v 0.062500 0.812500 -0.375000
v 0.062500 0.875000 -0.375000
v 0.062500 0.875000 -0.312500
v 0.062500 0.000000 -0.312500
v 0.062500 0.000000 -0.250000
v 0.062500 0.937500 -0.312500
v 0.062500 0.937500 -0.250000
v 0.062500 0.000000 -0.187500
v 0.062500 0.937500 -0.187500
v 0.062500 0.000000 -0.125000
v 0.062500 0.937500 -0.125000
v 0.062500 0.000000 -0.062500
v 0.062500 0.937500 -0.062500
v 0.062500 0.000000 0.000000
v 0.062500 0.937500 0.000000
v 0.062500 0.000000 0.062500
v 0.062500 0.937500 0.062500
v 0.062500 0.000000 0.125000
v 0.062500 0.937500 0.125000
v 0.062500 0.000000 0.187500
v 0.062500 0.937500 0.187500
v 0.062500 0.000000 0.250000
v 0.062500 0.937500 0.250000
v 0.062500 0.000000 0.312500
v 0.062500 0.062500 0.312500
v 0.062500 0.875000 0.312500
v 0.062500 0.937500 0.312500
v 0.062500 0.062500 0.375000
v 0.062500 0.125000 0.375000
v 0.062500 0.187500 0.375000
v 0.062500 0.250000 0.375000
v 0.062500 0.312500 0.375000
v 0.062500 0.375000 0.375000
v 0.062500 0.437500 0.375000
v 0.062500 0.500000 0.375000
v 0.062500 0.562500 0.375000
v 0.062500 0.625000 0.375000
v 0.062500 0.687500 0.375000
v 0.062500 0.750000 0.375000
v 0.062500 0.812500 0.375000
v 0.062500 0.875000 0.375000
v 0.125000 0.125000 -0.375000
v 0.125000 0.062500 -0.375000
v 0.125000 0.062500 -0.312500
v 0.125000 0.187500 -0.375000
v 0.125000 0.250000 -0.375000
v 0.125000 0.312500 -0.375000
v 0.125000 0.375000 -0.375000
v 0.125000 0.437500 -0.375000
v 0.125000 0.500000 -0.375000
v 0.125000 0.562500 -0.375000
v 0.125000 0.625000 -0.375000
v 0.125000 0.687500 -0.375000
v 0.125000 0.750000 -0.375000
v 0.125000 0.812500 -0.375000
v 0.125000 0.875000 -0.375000
v 0.125000 0.875000 -0.312500
v 0.125000 0.062500 -0.250000
v 0.125000 0.000000 -0.250000
v 0.125000 0.000000 -0.312500
v 0.125000 0.937500 -0.312500
v 0.125000 0.937500 -0.250000
v 0.125000 0.875000 -0.250000
v 0.125000 0.000000 -0.187500
v 0.125000 0.937500 -0.187500
v 0.125000 0.000000 -0.125000
v 0.125000 0.937500 -0.125000
v 0.125000 0.000000 -0.062500
v 0.125000 0.937500 -0.062500
v 0.125000 0.000000 0.000000
v 0.125000 0.937500 0.000000
v 0.125000 0.000000 0.062500
v 0.125000 0.937500 0.062500
v 0.125000 0.000000 0.125000
v 0.125000 0.937500 0.125000
v 0.125000 0.000000 0.187500
v 0.125000 0.937500 0.187500
v 0.125000 0.000000 0.250000
v 0.125000 0.937500 0.250000
v 0.125000 0.062500 0.250000
v 0.125000 0.062500 0.312500
v 0.125000 0.000000 0.312500
v 0.125000 0.937500 0.312500
v 0.125000 0.875000 0.312500
v 0.125000 0.875000 0.250000
v 0.125000 0.062500 0.375000
v 0.125000 0.125000 0.375000
v 0.125000 0.187500 0.375000
v 0.125000 0.250000 0.375000
v 0.125000 0.312500 0.375000
v 0.125000 0.375000 0.375000
v 0.125000 0.437500 0.375000
v 0.125000 0.500000 0.375000
v 0.125000 0.562500 0.375000
v 0.125000 0.625000 0.375000
v 0.125000 0.687500 0.375000
v 0.125000 0.750000 0.375000
v 0.125000 0.812500 0.375000
v 0.125000 0.875000 0.375000
v 0.187500 0.125000 -0.375000
v 0.187500 0.125000 -0.312500
v 0.187500 0.062500 -0.312500
v 0.187500 0.062500 -0.375000
v 0.187500 0.187500 -0.375000
v 0.187500 0.187500 -0.312500
v 0.187500 0.250000 -0.375000
v 0.187500 0.250000 -0.312500
v 0.187500 0.312500 -0.375000
v 0.187500 0.312500 -0.312500
v 0.187500 0.375000 -0.375000
v 0.187500 0.375000 -0.312500
v 0.187500 0.437500 -0.375000
v 0.187500 0.437500 -0.312500
v 0.187500 0.500000 -0.375000
v 0.187500 0.500000 -0.312500
v 0.187500 0.562500 -0.375000
v 0.187500 0.562500 -0.312500
v 0.187500 0.625000 -0.375000
v 0.187500 0.625000 -0.312500
v 0.187500 0.687500 -0.375000
v 0.187500 0.687500 -0.312500
v 0.187500 0.750000 -0.375000
v 0.187500 0.750000 -0.312500
v 0.187500 0.812500 -0.375000
v 0.187500 0.812500 -0.312500
v 0.187500 0.875000 -0.375000
v 0.187500 0.875000 -0.312500
v 0.187500 0.062500 -0.250000
v 0.187500 0.875000 -0.250000
v 0.187500 0.000000 -0.250000
v 0.187500 0.000000 -0.187500
v 0.187500 0.937500 -0.250000
v 0.187500 0.937500 -0.187500
v 0.187500 0.000000 -0.125000
v 0.187500 0.937500 -0.125000
v 0.187500 0.000000 -0.062500
v 0.187500 0.937500 -0.062500
v 0.187500 0.000000 0.000000
v 0.187500 0.937500 0.000000
v 0.187500 0.000000 0.062500
v 0.187500 0.937500 0.062500
v 0.187500 0.000000 0.125000
v 0.187500 0.937500 0.125000
v 0.187500 0.000000 0.187500
v 0.187500 0.937500 0.187500
v 0.187500 0.000000 0.250000
v 0.187500 0.062500 0.250000
v 0.187500 0.875000 0.250000
v 0.187500 0.937500 0.250000
v 0.187500 0.062500 0.312500
v 0.187500 0.875000 0.312500
v 0.187500 0.125000 0.312500
v 0.187500 0.125000 0.375000
v 0.187500 0.062500 0.375000
v 0.187500 0.187500 0.312500
v 0.187500 0.187500 0.375000
v 0.187500 0.250000 0.312500
v 0.187500 0.250000 0.375000
v 0.187500 0.312500 0.312500
v 0.187500 0.312500 0.375000
v 0.187500 0.375000 0.312500
v 0.187500 0.375000 0.375000
v 0.187500 0.437500 0.312500
v 0.187500 0.437500 0.375000
v 0.187500 0.500000 0.312500
v 0.187500 0.500000 0.375000
v 0.187500 0.562500 0.312500
v 0.187500 0.562500 0.375000
v 0.187500 0.625000 0.312500
v 0.187500 0.625000 0.375000
v 0.187500 0.687500 0.312500
v 0.187500 0.687500 0.375000
v 0.187500 0.750000 0.312500
v 0.187500 0.750000 0.375000
v 0.187500 0.812500 0.312500
v 0.187500 0.812500 0.375000
v 0.187500 0.875000 0.375000
v 0.250000 0.125000 -0.312500
v 0.250000 0.062500 -0.312500
v 0.250000 0.062500 -0.250000
v 0.250000 0.187500 -0.312500
v 0.250000 0.250000 -0.312500
v 0.250000 0.312500 -0.312500
v 0.250000 0.375000 -0.312500
v 0.250000 0.437500 -0.312500
v 0.250000 0.500000 -0.312500
v 0.250000 0.562500 -0.312500
v 0.250000 0.625000 -0.312500
v 0.250000 0.687500 -0.312500
v 0.250000 0.750000 -0.312500
v 0.250000 0.812500 -0.312500
v 0.250000 0.875000 -0.312500
v 0.250000 0.875000 -0.250000
v 0.250000 0.062500 -0.187500
v 0.250000 0.000000 -0.187500
v 0.250000 0.000000 -0.250000
v 0.250000 0.937500 -0.250000
v 0.250000 0.937500 -0.187500
v 0.250000 0.875000 -0.187500
v 0.250000 0.062500 -0.125000
v 0.250000 0.000000 -0.125000
v 0.250000 0.937500 -0.125000
v 0.250000 0.875000 -0.125000
v 0.250000 0.000000 -0.062500
v 0.250000 0.937500 -0.062500
v 0.250000 0.000000 0.000000
v 0.250000 0.937500 0.000000
v 0.250000 0.000000 0.062500
v 0.250000 0.937500 0.062500
v 0.250000 0.000000 0.125000
v 0.250000 0.937500 0.125000
v 0.250000 0.062500 0.125000
v 0.250000 0.062500 0.187500
v 0.250000 0.000000 0.187500
v 0.250000 0.937500 0.187500
v 0.250000 0.875000 0.187500
v 0.250000 0.875000 0.125000
v 0.250000 0.062500 0.250000
v 0.250000 0.000000 0.250000
v 0.250000 0.937500 0.250000
v 0.250000 0.875000 0.250000
v 0.250000 0.062500 0.312500
v 0.250000 0.125000 0.312500
v 0.250000 0.187500 0.312500
v 0.250000 0.250000 0.312500
v 0.250000 0.312500 0.312500
v 0.250000 0.375000 0.312500
v 0.250000 0.437500 0.312500
v 0.250000 0.500000 0.312500
v 0.250000 0.562500 0.312500
v 0.250000 0.625000 0.312500
v 0.250000 0.687500 0.312500
v 0.250000 0.750000 0.312500
v 0.250000 0.812500 0.312500
v 0.250000 0.875000 0.312500
v 0.312500 0.125000 -0.312500
v 0.312500 0.125000 -0.250000
v 0.312500 0.062500 -0.250000
v 0.312500 0.062500 -0.312500
v 0.312500 0.187500 -0.312500
v 0.312500 0.187500 -0.250000
v 0.312500 0.250000 -0.312500
v 0.312500 0.250000 -0.250000
v 0.312500 0.312500 -0.312500
v 0.312500 0.312500 -0.250000
v 0.312500 0.375000 -0.312500
v 0.312500 0.375000 -0.250000
v 0.312500 0.437500 -0.312500
v 0.312500 0.437500 -0.250000
v 0.312500 0.500000 -0.312500
v 0.312500 0.500000 -0.250000
v 0.312500 0.562500 -0.312500
v 0.312500 0.562500 -0.250000
v 0.312500 0.625000 -0.312500
v 0.312500 0.625000 -0.250000
v 0.312500 0.687500 -0.312500
v 0.312500 0.687500 -0.250000
v 0.312500 0.750000 -0.312500
v 0.312500 0.750000 -0.250000
v 0.312500 0.812500 -0.312500
v 0.312500 0.812500 -0.250000
v 0.312500 0.875000 -0.312500
v 0.312500 0.875000 -0.250000
v 0.312500 0.125000 -0.187500
v 0.312500 0.062500 -0.187500
v 0.312500 0.187500 -0.187500
v 0.312500 0.250000 -0.187500
v 0.312500 0.312500 -0.187500
v 0.312500 0.375000 -0.187500
v 0.312500 0.437500 -0.187500
v 0.312500 0.500000 -0.187500
v 0.312500 0.562500 -0.187500
v 0.312500 0.625000 -0.187500
v 0.312500 0.687500 -0.187500
v 0.312500 0.750000 -0.187500
v 0.312500 0.812500 -0.187500
v 0.312500 0.875000 -0.187500
v 0.312500 0.062500 -0.125000
v 0.312500 0.875000 -0.125000
v 0.312500 0.062500 -0.062500
v 0.312500 0.000000 -0.062500
v 0.312500 0.000000 -0.125000
v 0.312500 0.937500 -0.125000
v 0.312500 0.937500 -0.062500
v 0.312500 0.875000 -0.062500
v 0.312500 0.062500 0.000000
v 0.312500 0.000000 0.000000
v 0.312500 0.937500 0.000000
v 0.312500 0.875000 0.000000
v 0.312500 0.062500 0.062500
v 0.312500 0.000000 0.062500
v 0.312500 0.937500 0.062500
v 0.312500 0.875000 0.062500
v 0.312500 0.062500 0.125000
v 0.312500 0.000000 0.125000
v 0.312500 0.937500 0.125000
v 0.312500 0.875000 0.125000
v 0.312500 0.062500 0.187500
v 0.312500 0.875000 0.187500
v 0.312500 0.125000 0.187500
v 0.312500 0.125000 0.250000
v 0.312500 0.062500 0.250000
v 0.312500 0.187500 0.187500
v 0.312500 0.187500 0.250000
v 0.312500 0.250000 0.187500
v 0.312500 0.250000 0.250000
v 0.312500 0.312500 0.187500
v 0.312500 0.312500 0.250000
v 0.312500 0.375000 0.187500
v 0.312500 0.375000 0.250000
v 0.312500 0.437500 0.187500
v 0.312500 0.437500 0.250000
v 0.312500 0.500000 0.187500
v 0.312500 0.500000 0.250000
v 0.312500 0.562500 0.187500
v 0.312500 0.562500 0.250000
v 0.312500 0.625000 0.187500
v 0.312500 0.625000 0.250000
v 0.312500 0.687500 0.187500
v 0.312500 0.687500 0.250000
v 0.312500 0.750000 0.187500
v 0.312500 0.750000 0.250000
v 0.312500 0.812500 0.187500
v 0.312500 0.812500 0.250000
v 0.312500 0.875000 0.250000
v 0.312500 0.125000 0.312500
v 0.312500 0.062500 0.312500
v 0.312500 0.187500 0.312500
v 0.312500 0.250000 0.312500
v 0.312500 0.312500 0.312500
v 0.312500 0.375000 0.312500
v 0.312500 0.437500 0.312500
v 0.312500 0.500000 0.312500
v 0.312500 0.562500 0.312500
v 0.312500 0.625000 0.312500
v 0.312500 0.687500 0.312500
v 0.312500 0.750000 0.312500
v 0.312500 0.812500 0.312500
v 0.312500 0.875000 0.312500
v 0.375000 0.125000 -0.187500
v 0.375000 0.125000 -0.125000
v 0.375000 0.062500 -0.125000
v 0.375000 0.062500 -0.187500
v 0.375000 0.187500 -0.187500
v 0.375000 0.187500 -0.125000
v 0.375000 0.250000 -0.187500
v 0.375000 0.250000 -0.125000
v 0.375000 0.312500 -0.187500
v 0.375000 0.312500 -0.125000
v 0.375000 0.375000 -0.187500
v 0.375000 0.375000 -0.125000
v 0.375000 0.437500 -0.187500
v 0.375000 0.437500 -0.125000
v 0.375000 0.500000 -0.187500
v 0.375000 0.500000 -0.125000
v 0.375000 0.562500 -0.187500
v 0.375000 0.562500 -0.125000
v 0.375000 0.625000 -0.187500
v 0.375000 0.625000 -0.125000
v 0.375000 0.687500 -0.187500
v 0.375000 0.687500 -0.125000
v 0.375000 0.750000 -0.187500
v 0.375000 0.750000 -0.125000
v 0.375000 0.812500 -0.187500
v 0.375000 0.812500 -0.125000
v 0.375000 0.875000 -0.187500
v 0.375000 0.875000 -0.125000
v 0.375000 0.125000 -0.062500
v 0.375000 0.062500 -0.062500
v 0.375000 0.187500 -0.062500
v 0.375000 0.250000 -0.062500
v 0.375000 0.312500 -0.062500
v 0.375000 0.375000 -0.062500
v 0.375000 0.437500 -0.062500
v 0.375000 0.500000 -0.062500
v 0.375000 0.562500 -0.062500
v 0.375000 0.625000 -0.062500
v 0.375000 0.687500 -0.062500
v 0.375000 0.750000 -0.062500
v 0.375000 0.812500 -0.062500
v 0.375000 0.875000 -0.062500
v 0.375000 0.125000 0.000000
v 0.375000 0.062500 0.000000
v 0.375000 0.187500 0.000000
v 0.375000 0.250000 0.000000
v 0.375000 0.312500 0.000000
v 0.375000 0.375000 0.000000
v 0.375000 0.437500 0.000000
v 0.375000 0.500000 0.000000
v 0.375000 0.562500 0.000000
v 0.375000 0.625000 0.000000
v 0.375000 0.687500 0.000000
v 0.375000 0.750000 0.000000
v 0.375000 0.812500 0.000000
v 0.375000 0.875000 0.000000
v 0.375000 0.125000 0.062500
v 0.375000 0.062500 0.062500
v 0.375000 0.187500 0.062500
v 0.375000 0.250000 0.062500
v 0.375000 0.312500 0.062500
v 0.375000 0.375000 0.062500
v 0.375000 0.437500 0.062500
v 0.375000 0.500000 0.062500
v 0.375000 0.562500 0.062500
v 0.375000 0.625000 0.062500
v 0.375000 0.687500 0.062500
v 0.375000 0.750000 0.062500
v 0.375000 0.812500 0.062500
v 0.375000 0.875000 0.062500
v 0.375000 0.125000 0.125000
v 0.375000 0.062500 0.125000
v 0.375000 0.187500 0.125000
v 0.375000 0.250000 0.125000
v 0.375000 0.312500 0.125000
v 0.375000 0.375000 0.125000
v 0.375000 0.437500 0.125000
v 0.375000 0.500000 0.125000
v 0.375000 0.562500 0.125000
v 0.375000 0.625000 0.125000
v 0.375000 0.687500 0.125000
v 0.375000 0.750000 0.125000
v 0.375000 0.812500 0.125000
v 0.375000 0.875000 0.125000
v 0.375000 0.125000 0.187500
v 0.375000 0.062500 0.187500
v 0.375000 0.187500 0.187500
v 0.375000 0.250000 0.187500
v 0.375000 0.312500 0.187500
v 0.375000 0.375000 0.187500
v 0.375000 0.437500 0.187500
v 0.375000 0.500000 0.187500
v 0.375000 0.562500 0.187500
v 0.375000 0.625000 0.187500
v 0.375000 0.687500 0.187500
v 0.375000 0.750000 0.187500
v 0.375000 0.812500 0.187500
v 0.375000 0.875000 0.187500
vt 0.03125000 0.96875000
vt 0.09375000 0.96875000
vt 0.15625000 0.96875000
vt 0.21875000 0.96875000
vt 0.28125000 0.96875000
vt 0.34375000 0.96875000
vt 0.40625000 0.96875000
vt 0.46875000 0.96875000
vt 0.53125000 0.96875000
vt 0.59375000 0.96875000
vt 0.65625000 0.96875000
vt 0.71875000 0.96875000
vt 0.78125000 0.96875000
vt 0.84375000 0.96875000
vt 0.90625000 0.96875000
vt 0.96875000 0.96875000
vt 0.03125000 0.90625000
vt 0.09375000 0.90625000
vt 0.15625000 0.90625000
vt 0.21875000 0.90625000
vt 0.28125000 0.90625000
vt 0.34375000 0.90625000
vt 0.40625000 0.90625000
vt 0.46875000 0.90625000
vt 0.53125000 0.90625000
vt 0.59375000 0.90625000
vt 0.65625000 0.90625000
vt 0.71875000 0.90625000
vt 0.78125000 0.90625000
vt 0.84375000 0.90625000
vt 0.90625000 0.90625000
vt 0.96875000 0.90625000
vt 0.03125000 0.84375000
vt 0.09375000 0.84375000
vt 0.15625000 0.84375000
vt 0.21875000 0.84375000
vt 0.28125000 0.84375000
vt 0.34375000 0.84375000
vt 0.40625000 0.84375000
vt 0.46875000 0.84375000
vt 0.53125000 0.84375000
vt 0.59375000 0.84375000
vt 0.65625000 0.84375000
vt 0.71875000 0.84375000
vt 0.78125000 0.84375000
vt 0.84375000 0.84375000
vt 0.90625000 0.84375000
vt 0.96875000 0.84375000
vt 0.03125000 0.78125000
vt 0.09375000 0.78125000
vt 0.15625000 0.78125000
vt 0.21875000 0.78125000
vt 0.28125000 0.78125000
vt 0.34375000 0.78125000
vt 0.40625000 0.78125000
vt 0.46875000 0.78125000
vt 0.53125000 0.78125000
vt 0.59375000 0.78125000
vt 0.65625000 0.78125000
vt 0.71875000 0.78125000
vt 0.78125000 0.78125000
vt 0.84375000 0.78125000
vt 0.90625000 0.78125000
vt 0.96875000 0.78125000
vt 0.03125000 0.71875000
vt 0.09375000 0.71875000
vt 0.15625000 0.71875000
vt 0.21875000 0.71875000
vt 0.28125000 0.71875000
vt 0.34375000 0.71875000
vt 0.40625000 0.71875000
vt 0.46875000 0.71875000
vt 0.53125000 0.71875000
vt 0.59375000 0.71875000
vt 0.65625000 0.71875000
vt 0.71875000 0.71875000
vt 0.78125000 0.71875000
vt 0.84375000 0.71875000
vt 0.90625000 0.71875000
vt 0.96875000 0.71875000
vt 0.03125000 0.65625000
vt 0.09375000 0.65625000
vt 0.15625000 0.65625000
vt 0.21875000 0.65625000
vt 0.28125000 0.65625000
vt 0.34375000 0.65625000
vt 0.40625000 0.65625000
vt 0.46875000 0.65625000
vt 0.53125000 0.65625000
vt 0.59375000 0.65625000
vt 0.65625000 0.65625000
vt 0.71875000 0.65625000
vt 0.78125000 0.65625000
vt 0.84375000 0.65625000
vt 0.90625000 0.65625000
vt 0.96875000 0.65625000
vt 0.03125000 0.59375000
vt 0.09375000 0.59375000
vt 0.15625000 0.59375000
vt 0.21875000 0.59375000
vt 0.28125000 0.59375000
vt 0.34375000 0.59375000
vt 0.40625000 0.59375000
vt 0.46875000 0.59375000
vt 0.53125000 0.59375000
vt 0.59375000 0.59375000
vt 0.65625000 0.59375000
vt 0.71875000 0.59375000
vt 0.78125000 0.59375000
vt 0.84375000 0.59375000
vt 0.90625000 0.59375000
vt 0.96875000 0.59375000
vt 0.03125000 0.53125000
vt 0.09375000 0.53125000
vt 0.15625000 0.53125000
vt 0.21875000 0.53125000
vt 0.28125000 0.53125000
vt 0.34375000 0.53125000
vt 0.40625000 0.53125000
vt 0.46875000 0.53125000
vt 0.53125000 0.53125000
vt 0.59375000 0.53125000
vt 0.65625000 0.53125000
vt 0.71875000 0.53125000
vt 0.78125000 0.53125000
vt 0.84375000 0.53125000
vt 0.90625000 0.53125000
vt 0.96875000 0.53125000
vt 0.03125000 0.46875000
vt 0.09375000 0.46875000
vt 0.15625000 0.46875000
vt 0.21875000 0.46875000
vt 0.28125000 0.46875000
vt 0.34375000 0.46875000
vt 0.40625000 0.46875000
vt 0.46875000 0.46875000
vt 0.53125000 0.46875000
vt 0.59375000 0.46875000
vt 0.65625000 0.46875000
vt 0.71875000 0.46875000
vt 0.78125000 0.46875000
vt 0.84375000 0.46875000
vt 0.90625000 0.46875000
vt 0.96875000 0.46875000
vt 0.03125000 0.40625000
vt 0.09375000 0.40625000
vt 0.15625000 0.40625000
vt 0.21875000 0.40625000
vt 0.28125000 0.40625000
vt 0.34375000 0.40625000
vt 0.40625000 0.40625000
vt 0.46875000 0.40625000
vt 0.53125000 0.40625000
vt 0.59375000 0.40625000
vt 0.65625000 0.40625000
vt 0.71875000 0.40625000
vt 0.78125000 0.40625000
vt 0.84375000 0.40625000
vt 0.90625000 0.40625000
vt 0.96875000 0.40625000
vt 0.03125000 0.34375000
vt 0.09375000 0.34375000
vt 0.15625000 0.34375000
vt 0.21875000 0.34375000
vt 0.28125000 0.34375000
vt 0.34375000 0.34375000
vt 0.40625000 0.34375000
vt 0.46875000 0.34375000
vt 0.53125000 0.34375000
vt 0.59375000 0.34375000
vt 0.65625000 0.34375000
vt 0.71875000 0.34375000
vt 0.78125000 0.34375000
vt 0.84375000 0.34375000
vt 0.90625000 0.34375000
vt 0.96875000 0.34375000
vt 0.03125000 0.28125000
vt 0.09375000 0.28125000
vt 0.15625000 0.28125000
vt 0.21875000 0.28125000
vt 0.28125000 0.28125000
vt 0.34375000 0.28125000
vt 0.40625000 0.28125000
vt 0.46875000 0.28125000
vt 0.53125000 0.28125000
vt 0.59375000 0.28125000
vt 0.65625000 0.28125000
vt 0.71875000 0.28125000
vt 0.78125000 0.28125000
vt 0.84375000 0.28125000
vt 0.90625000 0.28125000
vt 0.96875000 0.28125000
vt 0.03125000 0.21875000
vt 0.09375000 0.21875000
vt 0.15625000 0.21875000
vt 0.21875000 0.21875000
vt 0.28125000 0.21875000
vt 0.34375000 0.21875000
vt 0.40625000 0.21875000
vt 0.46875000 0.21875000
vt 0.53125000 0.21875000
vt 0.59375000 0.21875000
vt 0.65625000 0.21875000
vt 0.71875000 0.21875000
vt 0.78125000 0.21875000
vt 0.84375000 0.21875000
vt 0.90625000 0.21875000
vt 0.96875000 0.21875000
vt 0.03125000 0.15625000
vt 0.09375000 0.15625000
vt 0.15625000 0.15625000
vt 0.21875000 0.15625000
vt 0.28125000 0.15625000
vt 0.34375000 0.15625000
vt 0.40625000 0.15625000
vt 0.46875000 0.15625000
vt 0.53125000 0.15625000
vt 0.59375000 0.15625000
vt 0.65625000 0.15625000
vt 0.71875000 0.15625000
vt 0.78125000 0.15625000
vt 0.84375000 0.15625000
vt 0.90625000 0.15625000
vt 0.96875000 0.15625000
vt 0.03125000 0.09375000
vt 0.09375000 0.09375000
vt 0.15625000 0.09375000
vt 0.21875000 0.09375000
vt 0.28125000 0.09375000
vt 0.34375000 0.09375000
vt 0.40625000 0.09375000
vt 0.46875000 0.09375000
vt 0.53125000 0.09375000
vt 0.59375000 0.09375000
vt 0.65625000 0.09375000
vt 0.71875000 0.09375000
vt 0.78125000 0.09375000
vt 0.84375000 0.09375000
vt 0.90625000 0.09375000
vt 0.96875000 0.09375000
vt 0.03125000 0.03125000
vt 0.09375000 0.03125000
vt 0.15625000 0.03125000
vt 0.21875000 0.03125000
vt 0.28125000 0.03125000
vt 0.34375000 0.03125000
vt 0.40625000 0.03125000
vt 0.46875000 0.03125000
vt 0.53125000 0.03125000
vt 0.59375000 0.03125000
vt 0.65625000 0.03125000
vt 0.71875000 0.03125000
vt 0.78125000 0.03125000
vt 0.84375000 0.03125000
vt 0.90625000 0.03125000
vt 0.96875000 0.03125000
vn -1 0 0
vn 1 0 0
vn 0 0 -1
vn 0 0 1
vn 0 -1 0
vn 0 1 0
g palette
usemtl palette
f 1/37/1 2/37/1 3/37/1 4/37/1
f 3/37/3 5/37/3 6/37/3 4/37/3
f 6/37/5 7/37/5 1/37/5 4/37/5
f 2/53/1 8/53/1 9/53/1 3/53/1
f 9/53/3 10/53/3 5/53/3 3/53/3
f 8/37/1 11/37/1 12/37/1 9/37/1
f 12/37/3 13/37/3 10/37/3 9/37/3
f 11/37/1 14/37/1 15/37/1 12/37/1
f 15/37/3 16/37/3 13/37/3 12/37/3
f 14/37/1 17/37/1 18/37/1 15/37/1
f 18/37/3 19/37/3 16/37/3 15/37/3
f 17/37/1 20/37/1 21/37/1 18/37/1
f 21/37/3 22/37/3 19/37/3 18/37/3
f 20/37/1 23/37/1 24/37/1 21/37/1
f 24/37/3 25/37/3 22/37/3 21/37/3
f 23/37/1 26/37/1 27/37/1 24/37/1
f 27/37/3 28/37/3 25/37/3 24/37/3
f 26/37/1 29/37/1 30/37/1 27/37/1
f 30/37/3 31/37/3 28/37/3 27/37/3
f 29/37/1 32/37/1 33/37/1 30/37/1
f 33/37/3 34/37/3 31/37/3 30/37/3
f 32/53/1 35/53/1 36/53/1 33/53/1
f 36/53/3 37/53/3 34/53/3 33/53/3
f 35/37/1 38/37/1 39/37/1 36/37/1
f 39/37/3 40/37/3 37/37/3 36/37/3
f 38/37/1 41/37/1 42/37/1 39/37/1
f 42/37/3 43/37/3 40/37/3 39/37/3
f 41/37/6 44/37/6 43/37/6 42/37/6
f 45/37/1 46/37/1 2/37/1 1/37/1
f 7/37/5 47/37/5 45/37/5 1/37/5
f 46/53/1 48/53/1 8/53/1 2/53/1
f 48/37/1 49/37/1 11/37/1 8/37/1
f 49/37/1 50/37/1 14/37/1 11/37/1
f 50/37/1 51/37/1 17/37/1 14/37/1
f 51/37/1 52/37/1 20/37/1 17/37/1
f 52/37/1 53/37/1 23/37/1 20/37/1
f 53/37/1 54/37/1 26/37/1 23/37/1
f 54/37/1 55/37/1 29/37/1 26/37/1
f 55/37/1 56/37/1 32/37/1 29/37/1
f 56/53/1 57/53/1 35/53/1 32/53/1
f 57/37/1 58/37/1 38/37/1 35/37/1
f 58/37/1 59/37/1 41/37/1 38/37/1
f 59/37/6 60/37/6 44/37/6 41/37/6
f 61/37/1 62/37/1 46/37/1 45/37/1
f 47/37/5 63/37/5 61/37/5 45/37/5
f 62/53/1 64/53/1 48/53/1 46/53/1
f 64/37/1 65/37/1 49/37/1 48/37/1
f 65/37/1 66/37/1 50/37/1 49/37/1
f 66/37/1 67/37/1 51/37/1 50/37/1
f 67/37/1 68/37/1 52/37/1 51/37/1
f 68/37/1 69/37/1 53/37/1 52/37/1
f 69/37/1 70/37/1 54/37/1 53/37/1
f 70/37/1 71/37/1 55/37/1 54/37/1
f 71/37/1 72/37/1 56/37/1 55/37/1
f 72/53/1 73/53/1 57/53/1 56/53/1
f 73/37/1 74/37/1 58/37/1 57/37/1
f 74/37/1 75/37/1 59/37/1 58/37/1
f 75/37/6 76/37/6 60/37/6 59/37/6
f 77/37/1 78/37/1 62/37/1 61/37/1
f 63/37/5 79/37/5 77/37/5 61/37/5
f 78/53/1 80/53/1 64/53/1 62/53/1
f 80/37/1 81/37/1 65/37/1 64/37/1
f 81/37/1 82/37/1 66/37/1 65/37/1
f 82/37/1 83/37/1 67/37/1 66/37/1
f 83/37/1 84/37/1 68/37/1 67/37/1
f 84/37/1 85/37/1 69/37/1 68/37/1
f 85/37/1 86/37/1 70/37/1 69/37/1
f 86/37/1 87/37/1 71/37/1 70/37/1
f 87/37/1 88/37/1 72/37/1 71/37/1
f 88/55/1 89/55/1 73/55/1 72/55/1
f 89/37/1 90/37/1 74/37/1 73/37/1
f 90/37/1 91/37/1 75/37/1 74/37/1
f 91/37/6 92/37/6 76/37/6 75/37/6
f 93/37/1 94/37/1 78/37/1 77/37/1
f 79/37/5 95/37/5 93/37/5 77/37/5
f 94/53/1 96/53/1 80/53/1 78/53/1
f 96/37/1 97/37/1 81/37/1 80/37/1
f 97/37/1 98/37/1 82/37/1 81/37/1
f 98/37/1 99/37/1 83/37/1 82/37/1
f 99/37/1 100/37/1 84/37/1 83/37/1
f 100/37/1 101/37/1 85/37/1 84/37/1
f 101/37/1 102/37/1 86/37/1 85/37/1
f 102/37/1 103/37/1 87/37/1 86/37/1
f 103/37/1 104/37/1 88/37/1 87/37/1
f 104/53/1 105/53/1 89/53/1 88/53/1
f 105/37/1 106/37/1 90/37/1 89/37/1
f 106/37/1 107/37/1 91/37/1 90/37/1
f 107/37/6 108/37/6 92/37/6 91/37/6
f 109/37/1 110/37/1 94/37/1 93/37/1
f 111/37/4 112/37/4 110/37/4 109/37/4
f 95/37/5 111/37/5 109/37/5 93/37/5
f 110/53/1 113/53/1 96/53/1 94/53/1
f 112/53/4 114/53/4 113/53/4 110/53/4
f 113/37/1 115/37/1 97/37/1 96/37/1
f 114/37/4 116/37/4 115/37/4 113/37/4
f 115/37/1 117/37/1 98/37/1 97/37/1
f 116/37/4 118/37/4 117/37/4 115/37/4
f 117/37/1 119/37/1 99/37/1 98/37/1
f 118/37/4 120/37/4 119/37/4 117/37/4
f 119/37/1 121/37/1 100/37/1 99/37/1
f 120/37/4 122/37/4 121/37/4 119/37/4
f 121/37/1 123/37/1 101/37/1 100/37/1
f 122/37/4 124/37/4 123/37/4 121/37/4
f 123/37/1 125/37/1 102/37/1 101/37/1
f 124/37/4 126/37/4 125/37/4 123/37/4
f 125/37/1 127/37/1 103/37/1 102/37/1
f 126/37/4 128/37/4 127/37/4 125/37/4
f 127/37/1 129/37/1 104/37/1 103/37/1
f 128/37/4 130/37/4 129/37/4 127/37/4
f 129/53/1 131/53/1 105/53/1 104/53/1
f 130/53/4 132/53/4 131/53/4 129/53/4
f 131/37/1 133/37/1 106/37/1 105/37/1
f 132/37/4 134/37/4 133/37/4 131/37/4
f 133/37/1 135/37/1 107/37/1 106/37/1
f 134/37/4 136/37/4 135/37/4 133/37/4
f 135/37/6 136/37/6 108/37/6 107/37/6
f 137/37/1 138/37/1 139/37/1 140/37/1
f 139/37/3 141/37/3 142/37/3 140/37/3
f 142/37/5 143/37/5 137/37/5 140/37/5
f 138/53/1 144/53/1 145/53/1 139/53/1
f 145/53/3 146/53/3 141/53/3 139/53/3
f 144/37/1 147/37/1 148/37/1 145/37/1
f 148/37/3 149/37/3 146/37/3 145/37/3
f 147/37/1 150/37/1 151/37/1 148/37/1
f 151/37/3 152/37/3 149/37/3 148/37/3
f 150/37/1 153/37/1 154/37/1 151/37/1
f 154/37/3 155/37/3 152/37/3 151/37/3
f 153/37/1 156/37/1 157/37/1 154/37/1
f 157/37/3 158/37/3 155/37/3 154/37/3
f 156/37/1 159/37/1 160/37/1 157/37/1
f 160/37/3 161/37/3 158/37/3 157/37/3
f 159/37/1 162/37/1 163/37/1 160/37/1
f 163/37/3 164/37/3 161/37/3 160/37/3
f 162/37/1 165/37/1 166/37/1 163/37/1
f 166/37/3 167/37/3 164/37/3 163/37/3
f 165/37/1 168/37/1 169/37/1 166/37/1
f 169/37/3 170/37/3 167/37/3 166/37/3
f 168/53/1 171/53/1 172/53/1 169/53/1
f 172/53/3 173/53/3 170/53/3 169/53/3
f 171/37/1 174/37/1 175/37/1 172/37/1
f 175/37/3 176/37/3 173/37/3 172/37/3
f 174/37/1 177/37/1 178/37/1 175/37/1
f 178/37/3 179/37/3 176/37/3 175/37/3
f 177/37/6 180/37/6 179/37/6 178/37/6
f 6/37/1 5/37/1 138/37/1 137/37/1
f 143/37/5 181/37/5 6/37/5 137/37/5
f 5/53/1 10/53/1 144/53/1 138/53/1
f 10/37/1 13/37/1 147/37/1 144/37/1
f 13/37/1 16/37/1 150/37/1 147/37/1
f 16/37/1 19/37/1 153/37/1 150/37/1
f 19/37/1 22/37/1 156/37/1 153/37/1
f 22/37/1 25/37/1 159/37/1 156/37/1
f 25/37/1 28/37/1 162/37/1 159/37/1
f 28/37/1 31/37/1 165/37/1 162/37/1
f 31/37/1 34/37/1 168/37/1 165/37/1
f 34/53/1 37/53/1 171/53/1 168/53/1
f 37/37/1 40/37/1 174/37/1 171/37/1
f 40/37/1 43/37/1 177/37/1 174/37/1
f 43/37/6 182/37/6 180/37/6 177/37/6
f 181/37/5 183/37/5 7/37/5 6/37/5
f 44/37/6 184/37/6 182/37/6 43/37/6
f 185/37/1 47/37/1 7/37/1 186/37/1
f 7/37/3 183/37/3 187/37/3 186/37/3
f 187/37/5 188/37/5 185/37/5 186/37/5
f 60/37/1 189/37/1 190/37/1 44/37/1
f 190/37/3 191/37/3 184/37/3 44/37/3
f 189/37/6 192/37/6 191/37/6 190/37/6
f 193/37/1 63/37/1 47/37/1 185/37/1
f 188/37/5 194/37/5 193/37/5 185/37/5
f 76/37/1 195/37/1 189/37/1 60/37/1
f 195/37/6 196/37/6 192/37/6 189/37/6
f 197/37/1 79/37/1 63/37/1 193/37/1
f 194/37/5 198/37/5 197/37/5 193/37/5
f 92/37/1 199/37/1 195/37/1 76/37/1
f 199/37/6 200/37/6 196/37/6 195/37/6
f 201/37/1 95/37/1 79/37/1 197/37/1
f 202/37/4 203/37/4 95/37/4 201/37/4
f 198/37/5 202/37/5 201/37/5 197/37/5
f 108/37/1 204/37/1 199/37/1 92/37/1
f 205/37/4 206/37/4 204/37/4 108/37/4
f 204/37/6 206/37/6 200/37/6 199/37/6
f 203/37/5 207/37/5 111/37/5 95/37/5
f 136/37/6 208/37/6 205/37/6 108/37/6
f 209/37/1 210/37/1 112/37/1 111/37/1
f 207/37/5 211/37/5 209/37/5 111/37/5
f 210/53/1 212/53/1 114/53/1 112/53/1
f 212/37/1 213/37/1 116/37/1 114/37/1
f 213/37/1 214/37/1 118/37/1 116/37/1
f 214/37/1 215/37/1 120/37/1 118/37/1
f 215/37/1 216/37/1 122/37/1 120/37/1
f 216/37/1 217/37/1 124/37/1 122/37/1
f 217/37/1 218/37/1 126/37/1 124/37/1
f 218/37/1 219/37/1 128/37/1 126/37/1
f 219/37/1 220/37/1 130/37/1 128/37/1
f 220/55/1 221/55/1 132/55/1 130/55/1
f 221/37/1 222/37/1 134/37/1 132/37/1
f 222/37/1 223/37/1 136/37/1 134/37/1
f 223/37/6 224/37/6 208/37/6 136/37/6
f 225/37/1 226/37/1 210/37/1 209/37/1
f 227/37/4 228/37/4 226/37/4 225/37/4
f 211/37/5 227/37/5 225/37/5 209/37/5
f 226/53/1 229/53/1 212/53/1 210/53/1
f 228/53/4 230/53/4 229/53/4 226/53/4
f 229/37/1 231/37/1 213/37/1 212/37/1
f 230/37/4 232/37/4 231/37/4 229/37/4
f 231/37/1 233/37/1 214/37/1 213/37/1
f 232/37/4 234/37/4 233/37/4 231/37/4
f 233/37/1 235/37/1 215/37/1 214/37/1
f 234/37/4 236/37/4 235/37/4 233/37/4
f 235/37/1 237/37/1 216/37/1 215/37/1
f 236/37/4 238/37/4 237/37/4 235/37/4
f 237/37/1 239/37/1 217/37/1 216/37/1
f 238/37/4 240/37/4 239/37/4 237/37/4
f 239/37/1 241/37/1 218/37/1 217/37/1
f 240/37/4 242/37/4 241/37/4 239/37/4
f 241/37/1 243/37/1 219/37/1 218/37/1
f 242/37/4 244/37/4 243/37/4 241/37/4
f 243/37/1 245/37/1 220/37/1 219/37/1
f 244/37/4 246/37/4 245/37/4 243/37/4
f 245/53/1 247/53/1 221/53/1 220/53/1
f 246/53/4 248/53/4 247/53/4 245/53/4
f 247/37/1 249/37/1 222/37/1 221/37/1
f 248/37/4 250/37/4 249/37/4 247/37/4
f 249/37/1 251/37/1 223/37/1 222/37/1
f 250/37/4 252/37/4 251/37/4 249/37/4
f 251/37/6 252/37/6 224/37/6 223/37/6
f 141/37/3 253/37/3 254/37/3 142/37/3
f 254/37/5 255/37/5 143/37/5 142/37/5
f 146/53/3 256/53/3 253/53/3 141/53/3
f 149/37/3 257/37/3 256/37/3 146/37/3
f 152/37/3 258/37/3 257/37/3 149/37/3
f 155/37/3 259/37/3 258/37/3 152/37/3
f 158/37/3 260/37/3 259/37/3 155/37/3
f 161/37/3 261/37/3 260/37/3 158/37/3
f 164/37/3 262/37/3 261/37/3 161/37/3
f 167/37/3 263/37/3 262/37/3 164/37/3
f 170/37/3 264/37/3 263/37/3 167/37/3
f 173/53/3 265/53/3 264/53/3 170/53/3
f 176/37/3 266/37/3 265/37/3 173/37/3
f 179/37/3 267/37/3 266/37/3 176/37/3
f 180/37/6 268/37/6 267/37/6 179/37/6
f 269/37/1 181/37/1 143/37/1 270/37/1
f 143/37/3 255/37/3 271/37/3 270/37/3
f 271/37/5 272/37/5 269/37/5 270/37/5
f 182/37/1 273/37/1 274/37/1 180/37/1
f 274/37/3 275/37/3 268/37/3 180/37/3
f 273/37/6 276/37/6 275/37/6 274/37/6
f 187/37/1 183/37/1 181/37/1 269/37/1
f 272/37/5 277/37/5 187/37/5 269/37/5
f 184/37/1 191/37/1 273/37/1 182/37/1
f 191/37/6 278/37/6 276/37/6 273/37/6
f 277/37/5 279/37/5 188/37/5 187/37/5
f 192/37/6 280/37/6 278/37/6 191/37/6
f 279/37/5 281/37/5 194/37/5 188/37/5
f 196/37/6 282/37/6 280/37/6 192/37/6
f 281/37/5 283/37/5 198/37/5 194/37/5
f 200/37/6 284/37/6 282/37/6 196/37/6
f 283/36/5 285/36/5 202/36/5 198/36/5
f 206/37/6 286/37/6 284/37/6 200/37/6
f 287/37/1 207/37/1 203/37/1 202/37/1
f 285/37/5 288/37/5 287/37/5 202/37/5
f 208/37/1 289/37/1 206/37/1 205/37/1
f 289/37/6 290/37/6 286/37/6 206/37/6
f 291/37/1 211/37/1 207/37/1 287/37/1
f 292/37/4 293/37/4 211/37/4 291/37/4
f 288/37/5 292/37/5 291/37/5 287/37/5
f 224/37/1 294/37/1 289/37/1 208/37/1
f 295/37/4 296/37/4 294/37/4 224/37/4
f 294/37/6 296/37/6 290/37/6 289/37/6
f 297/37/4 298/37/4 228/37/4 227/37/4
f 293/37/5 297/37/5 227/37/5 211/37/5
f 298/53/4 299/53/4 230/53/4 228/53/4
f 299/37/4 300/37/4 232/37/4 230/37/4
f 300/37/4 301/37/4 234/37/4 232/37/4
f 301/37/4 302/37/4 236/37/4 234/37/4
f 302/37/4 303/37/4 238/37/4 236/37/4
f 303/37/4 304/37/4 240/37/4 238/37/4
f 304/37/4 305/37/4 242/37/4 240/37/4
f 305/37/4 306/37/4 244/37/4 242/37/4
f 306/37/4 307/37/4 246/37/4 244/37/4
f 307/53/4 308/53/4 248/53/4 246/53/4
f 308/37/4 309/37/4 250/37/4 248/37/4
f 309/37/4 310/37/4 252/37/4 250/37/4
f 252/37/6 310/37/6 295/37/6 224/37/6
f 254/37/1 253/37/1 311/37/1 312/37/1
f 311/37/3 313/37/3 314/37/3 312/37/3
f 314/37/5 315/37/5 254/37/5 312/37/5
f 253/53/1 256/53/1 316/53/1 311/53/1
f 316/53/3 317/53/3 313/53/3 311/53/3
f 256/37/1 257/37/1 318/37/1 316/37/1
f 318/37/3 319/37/3 317/37/3 316/37/3
f 257/37/1 258/37/1 320/37/1 318/37/1
f 320/37/3 321/37/3 319/37/3 318/37/3
f 258/37/1 259/37/1 322/37/1 320/37/1
f 322/37/3 323/37/3 321/37/3 320/37/3
f 259/37/1 260/37/1 324/37/1 322/37/1
f 324/37/3 325/37/3 323/37/3 322/37/3
f 260/37/1 261/37/1 326/37/1 324/37/1
f 326/37/3 327/37/3 325/37/3 324/37/3
f 261/37/1 262/37/1 328/37/1 326/37/1
f 328/37/3 329/37/3 327/37/3 326/37/3
f 262/37/1 263/37/1 330/37/1 328/37/1
f 330/37/3 331/37/3 329/37/3 328/37/3
f 263/37/1 264/37/1 332/37/1 330/37/1
f 332/37/3 333/37/3 331/37/3 330/37/3
f 264/53/1 265/53/1 334/53/1 332/53/1
f 334/53/3 335/53/3 333/53/3 332/53/3
f 265/37/1 266/37/1 336/37/1 334/37/1
f 336/37/3 337/37/3 335/37/3 334/37/3
f 266/37/1 267/37/1 338/37/1 336/37/1
f 338/37/3 339/37/3 337/37/3 336/37/3
f 267/37/6 340/37/6 339/37/6 338/37/6
f 315/37/5 341/37/5 255/37/5 254/37/5
f 268/37/6 342/37/6 340/37/6 267/37/6
f 255/37/3 341/37/3 343/37/3 271/37/3
f 343/37/5 344/37/5 272/37/5 271/37/5
f 275/37/3 345/37/3 342/37/3 268/37/3
f 276/37/6 346/37/6 345/37/6 275/37/6
f 344/37/5 347/37/5 277/37/5 272/37/5
f 278/37/6 348/37/6 346/37/6 276/37/6
f 347/37/5 349/37/5 279/37/5 277/37/5
f 280/37/6 350/37/6 348/37/6 278/37/6
f 349/37/5 351/37/5 281/37/5 279/37/5
f 282/37/6 352/37/6 350/37/6 280/37/6
f 351/37/5 353/37/5 283/37/5 281/37/5
f 284/37/6 354/37/6 352/37/6 282/37/6
f 353/37/5 355/37/5 285/37/5 283/37/5
f 286/37/6 356/37/6 354/37/6 284/37/6
f 355/37/5 357/37/5 288/37/5 285/37/5
f 290/37/6 358/37/6 356/37/6 286/37/6
f 359/37/4 360/37/4 293/37/4 292/37/4
f 357/37/5 359/37/5 292/37/5 288/37/5
f 361/37/4 362/37/4 296/37/4 295/37/4
f 296/37/6 362/37/6 358/37/6 290/37/6
f 360/37/5 363/37/5 297/37/5 293/37/5
f 310/37/6 364/37/6 361/37/6 295/37/6
f 365/36/1 366/36/1 298/36/1 297/36/1
f 367/36/4 368/36/4 366/36/4 365/36/4
f 363/36/5 367/36/5 365/36/5 297/36/5
f 366/53/1 369/53/1 299/53/1 298/53/1
f 368/53/4 370/53/4 369/53/4 366/53/4
f 369/37/1 371/37/1 300/37/1 299/37/1
f 370/37/4 372/37/4 371/37/4 369/37/4
f 371/37/1 373/37/1 301/37/1 300/37/1
f 372/37/4 374/37/4 373/37/4 371/37/4
f 373/37/1 375/37/1 302/37/1 301/37/1
f 374/37/4 376/37/4 375/37/4 373/37/4
f 375/37/1 377/37/1 303/37/1 302/37/1
f 376/37/4 378/37/4 377/37/4 375/37/4
f 377/37/1 379/37/1 304/37/1 303/37/1
f 378/37/4 380/37/4 379/37/4 377/37/4
f 379/37/1 381/37/1 305/37/1 304/37/1
f 380/37/4 382/37/4 381/37/4 379/37/4
f 381/37/1 383/37/1 306/37/1 305/37/1
f 382/37/4 384/37/4 383/37/4 381/37/4
f 383/37/1 385/37/1 307/37/1 306/37/1
f 384/37/4 386/37/4 385/37/4 383/37/4
f 385/53/1 387/53/1 308/53/1 307/53/1
f 386/53/4 388/53/4 387/53/4 385/53/4
f 387/37/1 389/37/1 309/37/1 308/37/1
f 388/37/4 390/37/4 389/37/4 387/37/4
f 389/37/1 391/37/1 310/37/1 309/37/1
f 390/37/4 392/37/4 391/37/4 389/37/4
f 391/37/6 392/37/6 364/37/6 310/37/6
f 313/37/3 393/37/3 394/37/3 314/37/3
f 394/37/5 395/37/5 315/37/5 314/37/5
f 317/53/3 396/53/3 393/53/3 313/53/3
f 319/37/3 397/37/3 396/37/3 317/37/3
f 321/37/3 398/37/3 397/37/3 319/37/3
f 323/37/3 399/37/3 398/37/3 321/37/3
f 325/37/3 400/37/3 399/37/3 323/37/3
f 327/37/3 401/37/3 400/37/3 325/37/3
f 329/37/3 402/37/3 401/37/3 327/37/3
f 331/37/3 403/37/3 402/37/3 329/37/3
f 333/37/3 404/37/3 403/37/3 331/37/3
f 335/53/3 405/53/3 404/53/3 333/53/3
f 337/37/3 406/37/3 405/37/3 335/37/3
f 339/37/3 407/37/3 406/37/3 337/37/3
f 340/37/6 408/37/6 407/37/6 339/37/6
f 343/37/1 341/37/1 315/37/1 409/37/1
f 315/37/3 395/37/3 410/37/3 409/37/3
f 410/37/5 411/37/5 343/37/5 409/37/5
f 342/37/1 345/37/1 412/37/1 340/37/1
f 412/37/3 413/37/3 408/37/3 340/37/3
f 345/37/6 414/37/6 413/37/6 412/37/6
f 411/37/5 415/37/5 344/37/5 343/37/5
f 346/37/6 416/37/6 414/37/6 345/37/6
f 415/37/5 417/37/5 347/37/5 344/37/5
f 348/37/6 418/37/6 416/37/6 346/37/6
f 417/37/5 419/37/5 349/37/5 347/37/5
f 350/37/6 420/37/6 418/37/6 348/37/6
f 419/37/5 421/37/5 351/37/5 349/37/5
f 352/37/6 422/37/6 420/37/6 350/37/6
f 421/37/5 423/37/5 353/37/5 351/37/5
f 354/37/6 424/37/6 422/37/6 352/37/6
f 423/37/5 425/37/5 355/37/5 353/37/5
f 356/37/6 426/37/6 424/37/6 354/37/6
f 425/38/5 427/38/5 357/38/5 355/38/5
f 358/37/6 428/37/6 426/37/6 356/37/6
f 427/37/5 429/37/5 359/37/5 357/37/5
f 362/37/6 430/37/6 428/37/6 358/37/6
f 431/37/1 363/37/1 360/37/1 359/37/1
f 432/37/4 433/37/4 363/37/4 431/37/4
f 429/37/5 432/37/5 431/37/5 359/37/5
f 364/37/1 434/37/1 362/37/1 361/37/1
f 435/37/4 436/37/4 434/37/4 364/37/4
f 434/37/6 436/37/6 430/37/6 362/37/6
f 437/37/4 438/37/4 368/37/4 367/37/4
f 433/37/5 437/37/5 367/37/5 363/37/5
f 438/53/4 439/53/4 370/53/4 368/53/4
f 439/37/4 440/37/4 372/37/4 370/37/4
f 440/37/4 441/37/4 374/37/4 372/37/4
f 441/37/4 442/37/4 376/37/4 374/37/4
f 442/37/4 443/37/4 378/37/4 376/37/4
f 443/37/4 444/37/4 380/37/4 378/37/4
f 444/37/4 445/37/4 382/37/4 380/37/4
f 445/37/4 446/37/4 384/37/4 382/37/4
f 446/37/4 447/37/4 386/37/4 384/37/4
f 447/53/4 448/53/4 388/53/4 386/53/4
f 448/37/4 449/37/4 390/37/4 388/37/4
f 449/37/4 450/37/4 392/37/4 390/37/4
f 392/37/6 450/37/6 435/37/6 364/37/6
f 393/37/3 451/37/3 452/37/3 394/37/3
f 452/37/5 453/37/5 395/37/5 394/37/5
f 396/53/3 454/53/3 451/53/3 393/53/3
f 397/37/3 455/37/3 454/37/3 396/37/3
f 398/37/3 456/37/3 455/37/3 397/37/3
f 399/37/3 457/37/3 456/37/3 398/37/3
f 400/37/3 458/37/3 457/37/3 399/37/3
f 401/37/3 459/37/3 458/37/3 400/37/3
f 402/37/3 460/37/3 459/37/3 401/37/3
f 403/37/3 461/37/3 460/37/3 402/37/3
f 404/37/3 462/37/3 461/37/3 403/37/3
f 405/53/3 463/53/3 462/53/3 404/53/3
f 406/37/3 464/37/3 463/37/3 405/37/3
f 407/37/3 465/37/3 464/37/3 406/37/3
f 408/36/1 413/36/1 466/36/1 407/36/1
f 467/36/2 468/36/2 469/36/2 465/36/2
f 466/36/3 467/36/3 465/36/3 407/36/3
f 413/36/6 468/36/6 467/36/6 466/36/6
f 395/37/3 453/37/3 470/37/3 410/37/3
f 470/37/5 471/37/5 411/37/5 410/37/5
f 414/36/6 472/36/6 468/36/6 413/36/6
f 471/37/5 473/37/5 415/37/5 411/37/5
f 416/36/6 474/36/6 472/36/6 414/36/6
f 473/37/5 475/37/5 417/37/5 415/37/5
f 418/36/6 476/36/6 474/36/6 416/36/6
f 475/37/5 477/37/5 419/37/5 417/37/5
f 420/36/6 478/36/6 476/36/6 418/36/6
f 477/37/5 479/37/5 421/37/5 419/37/5
f 422/36/6 480/36/6 478/36/6 420/36/6
f 479/37/5 481/37/5 423/37/5 421/37/5
f 424/36/6 482/36/6 480/36/6 422/36/6
f 481/37/5 483/37/5 425/37/5 423/37/5
f 426/36/6 484/36/6 482/36/6 424/36/6
f 483/37/5 485/37/5 427/37/5 425/37/5
f 428/38/6 486/38/6 484/38/6 426/38/6
f 485/37/5 487/37/5 429/37/5 427/37/5
f 430/36/6 488/36/6 486/36/6 428/36/6
f 489/37/4 490/37/4 433/37/4 432/37/4
f 487/37/5 489/37/5 432/37/5 429/37/5
f 436/36/6 491/36/6 488/36/6 430/36/6
f 492/37/4 493/37/4 438/37/4 437/37/4
f 490/37/5 492/37/5 437/37/5 433/37/5
f 493/55/4 494/55/4 439/55/4 438/55/4
f 494/37/4 495/37/4 440/37/4 439/37/4
f 495/37/4 496/37/4 441/37/4 440/37/4
f 496/37/4 497/37/4 442/37/4 441/37/4
f 497/37/4 498/37/4 443/37/4 442/37/4
f 498/37/4 499/37/4 444/37/4 443/37/4
f 499/37/4 500/37/4 445/37/4 444/37/4
f 500/37/4 501/37/4 446/37/4 445/37/4
f 501/37/4 502/37/4 447/37/4 446/37/4
f 502/53/4 503/53/4 448/53/4 447/53/4
f 503/37/4 504/37/4 449/37/4 448/37/4
f 504/37/4 505/37/4 450/37/4 449/37/4
f 450/36/1 506/36/1 436/36/1 435/36/1
f 491/36/2 507/36/2 505/36/2 508/36/2
f 505/36/4 507/36/4 506/36/4 450/36/4
f 506/36/6 507/36/6 491/36/6 436/36/6
f 451/37/3 509/37/3 510/37/3 452/37/3
f 510/37/5 511/37/5 453/37/5 452/37/5
f 454/53/3 512/53/3 509/53/3 451/53/3
f 455/37/3 513/37/3 512/37/3 454/37/3
f 456/37/3 514/37/3 513/37/3 455/37/3
f 457/37/3 515/37/3 514/37/3 456/37/3
f 458/37/3 516/37/3 515/37/3 457/37/3
f 459/37/3 517/37/3 516/37/3 458/37/3
f 460/37/3 518/37/3 517/37/3 459/37/3
f 461/37/3 519/37/3 518/37/3 460/37/3
f 462/37/3 520/37/3 519/37/3 461/37/3
f 463/53/3 521/53/3 520/53/3 462/53/3
f 464/37/3 522/37/3 521/37/3 463/37/3
f 465/37/3 523/37/3 522/37/3 464/37/3
f 469/37/6 524/37/6 523/37/6 465/37/6
f 453/37/3 511/37/3 525/37/3 470/37/3
f 525/37/5 526/37/5 471/37/5 470/37/5
f 468/37/3 527/37/3 524/37/3 469/37/3
f 472/37/6 528/37/6 527/37/6 468/37/6
f 526/37/5 529/37/5 473/37/5 471/37/5
f 474/37/6 530/37/6 528/37/6 472/37/6
f 529/37/5 531/37/5 475/37/5 473/37/5
f 476/37/6 532/37/6 530/37/6 474/37/6
f 531/37/5 533/37/5 477/37/5 475/37/5
f 478/37/6 534/37/6 532/37/6 476/37/6
f 533/37/5 535/37/5 479/37/5 477/37/5
f 480/37/6 536/37/6 534/37/6 478/37/6
f 535/37/5 537/37/5 481/37/5 479/37/5
f 482/37/6 538/37/6 536/37/6 480/37/6
f 537/37/5 539/37/5 483/37/5 481/37/5
f 484/37/6 540/37/6 538/37/6 482/37/6
f 539/37/5 541/37/5 485/37/5 483/37/5
f 486/37/6 542/37/6 540/37/6 484/37/6
f 541/37/5 543/37/5 487/37/5 485/37/5
f 488/37/6 544/37/6 542/37/6 486/37/6
f 545/37/4 546/37/4 490/37/4 489/37/4
f 543/37/5 545/37/5 489/37/5 487/37/5
f 547/37/4 548/37/4 491/37/4 508/37/4
f 491/37/6 548/37/6 544/37/6 488/37/6
f 549/37/4 550/37/4 493/37/4 492/37/4
f 546/37/5 549/37/5 492/37/5 490/37/5
f 550/53/4 551/53/4 494/53/4 493/53/4
f 551/37/4 552/37/4 495/37/4 494/37/4
f 552/37/4 553/37/4 496/37/4 495/37/4
f 553/37/4 554/37/4 497/37/4 496/37/4
f 554/37/4 555/37/4 498/37/4 497/37/4
f 555/37/4 556/37/4 499/37/4 498/37/4
f 556/36/4 557/36/4 500/36/4 499/36/4
f 557/37/4 558/37/4 501/37/4 500/37/4
f 558/37/4 559/37/4 502/37/4 501/37/4
f 559/53/4 560/53/4 503/53/4 502/53/4
f 560/37/4 561/37/4 504/37/4 503/37/4
f 561/37/4 562/37/4 505/37/4 504/37/4
f 505/37/6 562/37/6 547/37/6 508/37/6
f 509/37/3 563/37/3 564/37/3 510/37/3
f 564/37/5 565/37/5 511/37/5 510/37/5
f 512/53/3 566/53/3 563/53/3 509/53/3
f 513/37/3 567/37/3 566/37/3 512/37/3
f 514/37/3 568/37/3 567/37/3 513/37/3
f 515/37/3 569/37/3 568/37/3 514/37/3
f 516/37/3 570/37/3 569/37/3 515/37/3
f 517/37/3 571/37/3 570/37/3 516/37/3
f 518/37/3 572/37/3 571/37/3 517/37/3
f 519/37/3 573/37/3 572/37/3 518/37/3
f 520/37/3 574/37/3 573/37/3 519/37/3
f 521/53/3 575/53/3 574/53/3 520/53/3
f 522/37/3 576/37/3 575/37/3 521/37/3
f 523/37/3 577/37/3 576/37/3 522/37/3
f 524/37/6 578/37/6 577/37/6 523/37/6
f 565/37/2 579/37/2 580/37/2 581/37/2
f 511/37/3 565/37/3 581/37/3 525/37/3
f 581/37/5 580/37/5 526/37/5 525/37/5
f 582/37/2 583/37/2 584/37/2 578/37/2
f 527/37/3 582/37/3 578/37/3 524/37/3
f 528/37/6 583/37/6 582/37/6 527/37/6
f 580/37/5 585/37/5 529/37/5 526/37/5
f 530/37/6 586/37/6 583/37/6 528/37/6
f 585/37/5 587/37/5 531/37/5 529/37/5
f 532/37/6 588/37/6 586/37/6 530/37/6
f 587/37/5 589/37/5 533/37/5 531/37/5
f 534/37/6 590/37/6 588/37/6 532/37/6
f 589/37/5 591/37/5 535/37/5 533/37/5
f 536/37/6 592/37/6 590/37/6 534/37/6
f 591/37/5 593/37/5 537/37/5 535/37/5
f 538/37/6 594/37/6 592/37/6 536/37/6
f 593/37/5 595/37/5 539/37/5 537/37/5
f 540/37/6 596/37/6 594/37/6 538/37/6
f 595/37/5 597/37/5 541/37/5 539/37/5
f 542/37/6 598/37/6 596/37/6 540/37/6
f 597/37/5 599/37/5 543/37/5 541/37/5
f 544/37/6 600/37/6 598/37/6 542/37/6
f 601/38/2 602/38/2 603/38/2 599/38/2
f 603/38/4 602/38/4 546/38/4 545/38/4
f 599/38/5 603/38/5 545/38/5 543/38/5
f 600/37/2 604/37/2 605/37/2 606/37/2
f 605/37/4 604/37/4 548/37/4 547/37/4
f 548/37/6 604/37/6 600/37/6 544/37/6
f 607/37/4 608/37/4 550/37/4 549/37/4
f 602/37/5 607/37/5 549/37/5 546/37/5
f 608/53/4 609/53/4 551/53/4 550/53/4
f 609/37/4 610/37/4 552/37/4 551/37/4
f 610/37/4 611/37/4 553/37/4 552/37/4
f 611/37/4 612/37/4 554/37/4 553/37/4
f 612/37/4 613/37/4 555/37/4 554/37/4
f 613/38/4 614/38/4 556/38/4 555/38/4
f 614/37/4 615/37/4 557/37/4 556/37/4
f 615/38/4 616/38/4 558/38/4 557/38/4
f 616/37/4 617/37/4 559/37/4 558/37/4
f 617/53/4 618/53/4 560/53/4 559/53/4
f 618/37/4 619/37/4 561/37/4 560/37/4
f 619/37/4 620/37/4 562/37/4 561/37/4
f 562/37/6 620/37/6 605/37/6 547/37/6
f 621/37/2 622/37/2 623/37/2 624/37/2
f 563/37/3 621/37/3 624/37/3 564/37/3
f 624/37/5 623/37/5 565/37/5 564/37/5
f 625/53/2 626/53/2 622/53/2 621/53/2
f 566/53/3 625/53/3 621/53/3 563/53/3
f 627/37/2 628/37/2 626/37/2 625/37/2
f 567/37/3 627/37/3 625/37/3 566/37/3
f 629/37/2 630/37/2 628/37/2 627/37/2
f 568/37/3 629/37/3 627/37/3 567/37/3
f 631/37/2 632/37/2 630/37/2 629/37/2
f 569/37/3 631/37/3 629/37/3 568/37/3
f 633/37/2 634/37/2 632/37/2 631/37/2
f 570/37/3 633/37/3 631/37/3 569/37/3
f 635/37/2 636/37/2 634/37/2 633/37/2
f 571/37/3 635/37/3 633/37/3 570/37/3
f 637/37/2 638/37/2 636/37/2 635/37/2
f 572/37/3 637/37/3 635/37/3 571/37/3
f 639/37/2 640/37/2 638/37/2 637/37/2
f 573/37/3 639/37/3 637/37/3 572/37/3
f 641/37/2 642/37/2 640/37/2 639/37/2
f 574/37/3 641/37/3 639/37/3 573/37/3
f 643/53/2 644/53/2 642/53/2 641/53/2
f 575/53/3 643/53/3 641/53/3 574/53/3
f 645/37/2 646/37/2 644/37/2 643/37/2
f 576/37/3 645/37/3 643/37/3 575/37/3
f 647/37/2 648/37/2 646/37/2 645/37/2
f 577/37/3 647/37/3 645/37/3 576/37/3
f 578/37/6 648/37/6 647/37/6 577/37/6
f 623/37/5 649/37/5 579/37/5 565/37/5
f 584/37/6 650/37/6 648/37/6 578/37/6
f 579/37/3 649/37/3 651/37/3 580/37/3
f 651/37/5 652/37/5 585/37/5 580/37/5
f 583/37/3 653/37/3 650/37/3 584/37/3
f 586/37/6 654/37/6 653/37/6 583/37/6
f 652/37/5 655/37/5 587/37/5 585/37/5
f 588/37/6 656/37/6 654/37/6 586/37/6
f 655/37/5 657/37/5 589/37/5 587/37/5
f 590/37/6 658/37/6 656/37/6 588/37/6
f 657/37/5 659/37/5 591/37/5 589/37/5
f 592/37/6 660/37/6 658/37/6 590/37/6
f 659/37/5 661/37/5 593/37/5 591/37/5
f 594/37/6 662/37/6 660/37/6 592/37/6
f 661/37/5 663/37/5 595/37/5 593/37/5
f 596/37/6 664/37/6 662/37/6 594/37/6
f 663/37/5 665/37/5 597/37/5 595/37/5
f 598/37/6 666/37/6 664/37/6 596/37/6
f 667/37/4 668/37/4 601/37/4 599/37/4
f 665/37/5 667/37/5 599/37/5 597/37/5
f 669/37/4 670/37/4 600/37/4 606/37/4
f 600/37/6 670/37/6 666/37/6 598/37/6
f 668/37/5 671/37/5 602/37/5 601/37/5
f 605/37/6 672/37/6 669/37/6 606/37/6
f 673/37/2 674/37/2 675/37/2 671/37/2
f 675/37/4 674/37/4 608/37/4 607/37/4
f 671/37/5 675/37/5 607/37/5 602/37/5
f 676/53/2 677/53/2 674/53/2 673/53/2
f 674/53/4 677/53/4 609/53/4 608/53/4
f 678/37/2 679/37/2 677/37/2 676/37/2
f 677/37/4 679/37/4 610/37/4 609/37/4
f 680/37/2 681/37/2 679/37/2 678/37/2
f 679/37/4 681/37/4 611/37/4 610/37/4
f 682/37/2 683/37/2 681/37/2 680/37/2
f 681/37/4 683/37/4 612/37/4 611/37/4
f 684/37/2 685/37/2 683/37/2 682/37/2
f 683/37/4 685/37/4 613/37/4 612/37/4
f 686/37/2 687/37/2 685/37/2 684/37/2
f 685/37/4 687/37/4 614/37/4 613/37/4
f 688/37/2 689/37/2 687/37/2 686/37/2
f 687/37/4 689/37/4 615/37/4 614/37/4
f 690/37/2 691/37/2 689/37/2 688/37/2
f 689/37/4 691/37/4 616/37/4 615/37/4
f 692/37/2 693/37/2 691/37/2 690/37/2
f 691/37/4 693/37/4 617/37/4 616/37/4
f 694/53/2 695/53/2 693/53/2 692/53/2
f 693/53/4 695/53/4 618/53/4 617/53/4
f 696/36/2 697/36/2 695/36/2 694/36/2
f 695/36/4 697/36/4 619/36/4 618/36/4
f 672/37/2 698/37/2 697/37/2 696/37/2
f 697/37/4 698/37/4 620/37/4 619/37/4
f 620/37/6 698/37/6 672/37/6 605/37/6
f 622/38/3 699/38/3 700/38/3 623/38/3
f 700/38/5 701/38/5 649/38/5 623/38/5
f 626/53/3 702/53/3 699/53/3 622/53/3
f 628/37/3 703/37/3 702/37/3 626/37/3
f 630/37/3 704/37/3 703/37/3 628/37/3
f 632/37/3 705/37/3 704/37/3 630/37/3
f 634/37/3 706/37/3 705/37/3 632/37/3
f 636/37/3 707/37/3 706/37/3 634/37/3
f 638/37/3 708/37/3 707/37/3 636/37/3
f 640/37/3 709/37/3 708/37/3 638/37/3
f 642/37/3 710/37/3 709/37/3 640/37/3
f 644/53/3 711/53/3 710/53/3 642/53/3
f 646/37/3 712/37/3 711/37/3 644/37/3
f 648/37/3 713/37/3 712/37/3 646/37/3
f 650/37/6 714/37/6 713/37/6 648/37/6
f 701/37/2 715/37/2 716/37/2 717/37/2
f 649/37/3 701/37/3 717/37/3 651/37/3
f 717/37/5 716/37/5 652/37/5 651/37/5
f 718/37/2 719/37/2 720/37/2 714/37/2
f 653/37/3 718/37/3 714/37/3 650/37/3
f 654/37/6 719/37/6 718/37/6 653/37/6
f 715/37/2 721/37/2 722/37/2 716/37/2
f 716/37/5 722/37/5 655/37/5 652/37/5
f 719/37/2 723/37/2 724/37/2 720/37/2
f 656/37/6 723/37/6 719/37/6 654/37/6
f 722/37/5 725/37/5 657/37/5 655/37/5
f 658/37/6 726/37/6 723/37/6 656/37/6
f 725/37/5 727/37/5 659/37/5 657/37/5
f 660/37/6 728/37/6 726/37/6 658/37/6
f 727/37/5 729/37/5 661/37/5 659/37/5
f 662/37/6 730/37/6 728/37/6 660/37/6
f 729/37/5 731/37/5 663/37/5 661/37/5
f 664/37/6 732/37/6 730/37/6 662/37/6
f 733/37/2 734/37/2 735/37/2 731/37/2
f 731/37/5 735/37/5 665/37/5 663/37/5
f 732/37/2 736/37/2 737/37/2 738/37/2
f 666/37/6 736/37/6 732/37/6 664/37/6
f 734/37/2 739/37/2 740/37/2 735/37/2
f 740/37/4 739/37/4 668/37/4 667/37/4
f 735/37/5 740/37/5 667/37/5 665/37/5
f 736/37/2 741/37/2 742/37/2 737/37/2
f 742/37/4 741/37/4 670/37/4 669/37/4
f 670/37/6 741/37/6 736/37/6 666/37/6
f 743/37/4 744/37/4 673/37/4 671/37/4
f 739/37/5 743/37/5 671/37/5 668/37/5
f 744/53/4 745/53/4 676/53/4 673/53/4
f 745/37/4 746/37/4 678/37/4 676/37/4
f 746/37/4 747/37/4 680/37/4 678/37/4
f 747/37/4 748/37/4 682/37/4 680/37/4
f 748/37/4 749/37/4 684/37/4 682/37/4
f 749/37/4 750/37/4 686/37/4 684/37/4
f 750/37/4 751/37/4 688/37/4 686/37/4
f 751/37/4 752/37/4 690/37/4 688/37/4
f 752/37/4 753/37/4 692/37/4 690/37/4
f 753/53/4 754/53/4 694/53/4 692/53/4
f 754/37/4 755/37/4 696/37/4 694/37/4
f 755/37/4 756/37/4 672/37/4 696/37/4
f 672/37/6 756/37/6 742/37/6 669/37/6
f 757/37/2 758/37/2 759/37/2 760/37/2
f 699/37/3 757/37/3 760/37/3 700/37/3
f 760/37/5 759/37/5 701/37/5 700/37/5
f 761/53/2 762/53/2 758/53/2 757/53/2
f 702/53/3 761/53/3 757/53/3 699/53/3
f 763/37/2 764/37/2 762/37/2 761/37/2
f 703/37/3 763/37/3 761/37/3 702/37/3
f 765/37/2 766/37/2 764/37/2 763/37/2
f 704/37/3 765/37/3 763/37/3 703/37/3
f 767/37/2 768/37/2 766/37/2 765/37/2
f 705/37/3 767/37/3 765/37/3 704/37/3
f 769/36/2 770/36/2 768/36/2 767/36/2
f 706/36/3 769/36/3 767/36/3 705/36/3
f 771/37/2 772/37/2 770/37/2 769/37/2
f 707/37/3 771/37/3 769/37/3 706/37/3
f 773/37/2 774/37/2 772/37/2 771/37/2
f 708/37/3 773/37/3 771/37/3 707/37/3
f 775/37/2 776/37/2 774/37/2 773/37/2
f 709/37/3 775/37/3 773/37/3 708/37/3
f 777/37/2 778/37/2 776/37/2 775/37/2
f 710/37/3 777/37/3 775/37/3 709/37/3
f 779/53/2 780/53/2 778/53/2 777/53/2
f 711/53/3 779/53/3 777/53/3 710/53/3
f 781/37/2 782/37/2 780/37/2 779/37/2
f 712/37/3 781/37/3 779/37/3 711/37/3
f 783/37/2 784/37/2 782/37/2 781/37/2
f 713/37/3 783/37/3 781/37/3 712/37/3
f 714/37/6 784/37/6 783/37/6 713/37/6
f 758/37/2 785/37/2 786/37/2 759/37/2
f 759/37/5 786/37/5 715/37/5 701/37/5
f 762/53/2 787/53/2 785/53/2 758/53/2
f 764/37/2 788/37/2 787/37/2 762/37/2
f 766/37/2 789/37/2 788/37/2 764/37/2
f 768/37/2 790/37/2 789/37/2 766/37/2
f 770/37/2 791/37/2 790/37/2 768/37/2
f 772/37/2 792/37/2 791/37/2 770/37/2
f 774/37/2 793/37/2 792/37/2 772/37/2
f 776/37/2 794/37/2 793/37/2 774/37/2
f 778/37/2 795/37/2 794/37/2 776/37/2
f 780/53/2 796/53/2 795/53/2 778/53/2
f 782/37/2 797/37/2 796/37/2 780/37/2
f 784/37/2 798/37/2 797/37/2 782/37/2
f 720/37/6 798/37/6 784/37/6 714/37/6
f 786/37/5 799/37/5 721/37/5 715/37/5
f 724/37/6 800/37/6 798/37/6 720/37/6
f 799/37/2 801/37/2 802/37/2 803/37/2
f 721/37/3 799/37/3 803/37/3 722/37/3
f 803/37/5 802/37/5 725/37/5 722/37/5
f 804/37/2 805/37/2 806/37/2 800/37/2
f 723/37/3 804/37/3 800/37/3 724/37/3
f 726/37/6 805/37/6 804/37/6 723/37/6
f 801/37/2 807/37/2 808/37/2 802/37/2
f 802/37/5 808/37/5 727/37/5 725/37/5
f 805/37/2 809/37/2 810/37/2 806/37/2
f 728/37/6 809/37/6 805/37/6 726/37/6
f 807/37/2 811/37/2 812/37/2 808/37/2
f 808/37/5 812/37/5 729/37/5 727/37/5
f 809/37/2 813/37/2 814/37/2 810/37/2
f 730/37/6 813/37/6 809/37/6 728/37/6
f 811/37/2 815/37/2 816/37/2 812/37/2
f 816/37/4 815/37/4 733/37/4 731/37/4
f 812/37/5 816/37/5 731/37/5 729/37/5
f 813/37/2 817/37/2 818/37/2 814/37/2
f 818/37/4 817/37/4 732/37/4 738/37/4
f 732/37/6 817/37/6 813/37/6 730/37/6
f 815/37/5 819/37/5 734/37/5 733/37/5
f 737/37/6 820/37/6 818/37/6 738/37/6
f 821/37/2 822/37/2 823/37/2 819/37/2
f 819/37/5 823/37/5 739/37/5 734/37/5
f 824/53/2 825/53/2 822/53/2 821/53/2
f 826/37/2 827/37/2 825/37/2 824/37/2
f 828/37/2 829/37/2 827/37/2 826/37/2
f 830/37/2 831/37/2 829/37/2 828/37/2
f 832/37/2 833/37/2 831/37/2 830/37/2
f 834/37/2 835/37/2 833/37/2 832/37/2
f 836/37/2 837/37/2 835/37/2 834/37/2
f 838/37/2 839/37/2 837/37/2 836/37/2
f 840/37/2 841/37/2 839/37/2 838/37/2
f 842/53/2 843/53/2 841/53/2 840/53/2
f 844/37/2 845/37/2 843/37/2 842/37/2
f 820/37/2 846/37/2 845/37/2 844/37/2
f 742/37/6 846/37/6 820/37/6 737/37/6
f 822/37/2 847/37/2 848/37/2 823/37/2
f 848/37/4 847/37/4 744/37/4 743/37/4
f 823/37/5 848/37/5 743/37/5 739/37/5
f 825/53/2 849/53/2 847/53/2 822/53/2
f 847/53/4 849/53/4 745/53/4 744/53/4
f 827/37/2 850/37/2 849/37/2 825/37/2
f 849/37/4 850/37/4 746/37/4 745/37/4
f 829/37/2 851/37/2 850/37/2 827/37/2
f 850/37/4 851/37/4 747/37/4 746/37/4
f 831/37/2 852/37/2 851/37/2 829/37/2
f 851/37/4 852/37/4 748/37/4 747/37/4
f 833/37/2 853/37/2 852/37/2 831/37/2
f 852/37/4 853/37/4 749/37/4 748/37/4
f 835/37/2 854/37/2 853/37/2 833/37/2
f 853/37/4 854/37/4 750/37/4 749/37/4
f 837/37/2 855/37/2 854/37/2 835/37/2
f 854/37/4 855/37/4 751/37/4 750/37/4
f 839/37/2 856/37/2 855/37/2 837/37/2
f 855/37/4 856/37/4 752/37/4 751/37/4
f 841/37/2 857/37/2 856/37/2 839/37/2
f 856/37/4 857/37/4 753/37/4 752/37/4
f 843/53/2 858/53/2 857/53/2 841/53/2
f 857/53/4 858/53/4 754/53/4 753/53/4
f 845/37/2 859/37/2 858/37/2 843/37/2
f 858/37/4 859/37/4 755/37/4 754/37/4
f 846/37/2 860/37/2 859/37/2 845/37/2
f 859/37/4 860/37/4 756/37/4 755/37/4
f 756/37/6 860/37/6 846/37/6 742/37/6
f 861/37/2 862/37/2 863/37/2 864/37/2
f 785/37/3 861/37/3 864/37/3 786/37/3
f 864/37/5 863/37/5 799/37/5 786/37/5
f 865/53/2 866/53/2 862/53/2 861/53/2
f 787/53/3 865/53/3 861/53/3 785/53/3
f 867/37/2 868/37/2 866/37/2 865/37/2
f 788/37/3 867/37/3 865/37/3 787/37/3
f 869/37/2 870/37/2 868/37/2 867/37/2
f 789/37/3 869/37/3 867/37/3 788/37/3
f 871/36/2 872/36/2 870/36/2 869/36/2
f 790/36/3 871/36/3 869/36/3 789/36/3
f 873/37/2 874/37/2 872/37/2 871/37/2
f 791/37/3 873/37/3 871/37/3 790/37/3
f 875/37/2 876/37/2 874/37/2 873/37/2
f 792/37/3 875/37/3 873/37/3 791/37/3
f 877/37/2 878/37/2 876/37/2 875/37/2
f 793/37/3 877/37/3 875/37/3 792/37/3
f 879/37/2 880/37/2 878/37/2 877/37/2
f 794/37/3 879/37/3 877/37/3 793/37/3
f 881/37/2 882/37/2 880/37/2 879/37/2
f 795/37/3 881/37/3 879/37/3 794/37/3
f 883/53/2 884/53/2 882/53/2 881/53/2
f 796/53/3 883/53/3 881/53/3 795/53/3
f 885/37/2 886/37/2 884/37/2 883/37/2
f 797/37/3 885/37/3 883/37/3 796/37/3
f 887/37/2 888/37/2 886/37/2 885/37/2
f 798/37/3 887/37/3 885/37/3 797/37/3
f 800/37/6 888/37/6 887/37/6 798/37/6
f 862/37/2 889/37/2 890/37/2 863/37/2
f 863/37/5 890/37/5 801/37/5 799/37/5
f 866/53/2 891/53/2 889/53/2 862/53/2
f 868/37/2 892/37/2 891/37/2 866/37/2
f 870/37/2 893/37/2 892/37/2 868/37/2
f 872/37/2 894/37/2 893/37/2 870/37/2
f 874/37/2 895/37/2 894/37/2 872/37/2
f 876/37/2 896/37/2 895/37/2 874/37/2
f 878/37/2 897/37/2 896/37/2 876/37/2
f 880/37/2 898/37/2 897/37/2 878/37/2
f 882/37/2 899/37/2 898/37/2 880/37/2
f 884/53/2 900/53/2 899/53/2 882/53/2
f 886/37/2 901/37/2 900/37/2 884/37/2
f 888/37/2 902/37/2 901/37/2 886/37/2
f 806/37/6 902/37/6 888/37/6 800/37/6
f 889/37/2 903/37/2 904/37/2 890/37/2
f 890/37/5 904/37/5 807/37/5 801/37/5
f 891/53/2 905/53/2 903/53/2 889/53/2
f 892/37/2 906/37/2 905/37/2 891/37/2
f 893/37/2 907/37/2 906/37/2 892/37/2
f 894/37/2 908/37/2 907/37/2 893/37/2
f 895/37/2 909/37/2 908/37/2 894/37/2
f 896/37/2 910/37/2 909/37/2 895/37/2
f 897/37/2 911/37/2 910/37/2 896/37/2
f 898/37/2 912/37/2 911/37/2 897/37/2
f 899/37/2 913/37/2 912/37/2 898/37/2
f 900/53/2 914/53/2 913/53/2 899/53/2
f 901/37/2 915/37/2 914/37/2 900/37/2
f 902/37/2 916/37/2 915/37/2 901/37/2
f 810/37/6 916/37/6 902/37/6 806/37/6
f 903/37/2 917/37/2 918/37/2 904/37/2
f 904/37/5 918/37/5 811/37/5 807/37/5
f 905/53/2 919/53/2 917/53/2 903/53/2
f 906/37/2 920/37/2 919/37/2 905/37/2
f 907/37/2 921/37/2 920/37/2 906/37/2
f 908/37/2 922/37/2 921/37/2 907/37/2
f 909/37/2 923/37/2 922/37/2 908/37/2
f 910/37/2 924/37/2 923/37/2 909/37/2
f 911/37/2 925/37/2 924/37/2 910/37/2
f 912/37/2 926/37/2 925/37/2 911/37/2
f 913/37/2 927/37/2 926/37/2 912/37/2
f 914/53/2 928/53/2 927/53/2 913/53/2
f 915/37/2 929/37/2 928/37/2 914/37/2
f 916/37/2 930/37/2 929/37/2 915/37/2
f 814/37/6 930/37/6 916/37/6 810/37/6
f 917/37/2 931/37/2 932/37/2 918/37/2
f 918/37/5 932/37/5 815/37/5 811/37/5
f 919/53/2 933/53/2 931/53/2 917/53/2
f 920/37/2 934/37/2 933/37/2 919/37/2
f 921/37/2 935/37/2 934/37/2 920/37/2
f 922/37/2 936/37/2 935/37/2 921/37/2
f 923/37/2 937/37/2 936/37/2 922/37/2
f 924/37/2 938/37/2 937/37/2 923/37/2
f 925/37/2 939/37/2 938/37/2 924/37/2
f 926/37/2 940/37/2 939/37/2 925/37/2
f 927/37/2 941/37/2 940/37/2 926/37/2
f 928/53/2 942/53/2 941/53/2 927/53/2
f 929/37/2 943/37/2 942/37/2 928/37/2
f 930/37/2 944/37/2 943/37/2 929/37/2
f 818/37/6 944/37/6 930/37/6 814/37/6
f 931/37/2 945/37/2 946/37/2 932/37/2
f 946/37/4 945/37/4 821/37/4 819/37/4
f 932/37/5 946/37/5 819/37/5 815/37/5
f 933/53/2 947/53/2 945/53/2 931/53/2
f 945/53/4 947/53/4 824/53/4 821/53/4
f 934/37/2 948/37/2 947/37/2 933/37/2
f 947/37/4 948/37/4 826/37/4 824/37/4
f 935/37/2 949/37/2 948/37/2 934/37/2
f 948/37/4 949/37/4 828/37/4 826/37/4
f 936/37/2 950/37/2 949/37/2 935/37/2
f 949/37/4 950/37/4 830/37/4 828/37/4
f 937/37/2 951/37/2 950/37/2 936/37/2
f 950/37/4 951/37/4 832/37/4 830/37/4
f 938/37/2 952/37/2 951/37/2 937/37/2
f 951/37/4 952/37/4 834/37/4 832/37/4
f 939/37/2 953/37/2 952/37/2 938/37/2
f 952/37/4 953/37/4 836/37/4 834/37/4
f 940/37/2 954/37/2 953/37/2 939/37/2
f 953/37/4 954/37/4 838/37/4 836/37/4
f 941/37/2 955/37/2 954/37/2 940/37/2
f 954/37/4 955/37/4 840/37/4 838/37/4
f 942/53/2 956/53/2 955/53/2 941/53/2
f 955/53/4 956/53/4 842/53/4 840/53/4
f 943/37/2 957/37/2 956/37/2 942/37/2
f 956/37/4 957/37/4 844/37/4 842/37/4
f 944/37/2 958/37/2 957/37/2 943/37/2
f 957/37/4 958/37/4 820/37/4 844/37/4
f 820/37/6 958/37/6 944/37/6 818/37/6
