# Dungine bones_cave; 1 voxel = 1/16 unit; Y-up floor-center origin
mtllib bones_cave.mtl
o bones_cave
s off
v -0.375000 0.000000 -0.250000
v -0.375000 0.062500 -0.250000
v -0.375000 0.062500 -0.312500
v -0.375000 0.000000 -0.312500
v -0.312500 0.062500 -0.312500
v -0.312500 0.000000 -0.312500
v -0.312500 0.000000 -0.250000
v -0.375000 0.125000 -0.250000
v -0.375000 0.125000 -0.312500
v -0.312500 0.125000 -0.312500
v -0.312500 0.125000 -0.250000
v -0.375000 0.000000 -0.187500
v -0.375000 0.062500 -0.187500
v -0.312500 0.062500 -0.250000
v -0.312500 0.062500 -0.187500
v -0.312500 0.000000 -0.187500
v -0.375000 0.125000 -0.187500
v -0.312500 0.125000 -0.187500
v -0.250000 0.062500 -0.312500
v -0.250000 0.000000 -0.312500
v -0.250000 0.000000 -0.250000
v -0.250000 0.062500 -0.250000
v -0.250000 0.125000 -0.312500
v -0.250000 0.125000 -0.250000
v -0.312500 0.000000 0.250000
v -0.312500 0.062500 0.250000
v -0.312500 0.062500 0.187500
v -0.312500 0.000000 0.187500
v -0.250000 0.062500 0.187500
v -0.250000 0.000000 0.187500
v -0.250000 0.000000 0.250000
v -0.312500 0.125000 0.250000
v -0.312500 0.125000 0.187500
v -0.250000 0.125000 0.187500
v -0.250000 0.125000 0.250000
v -0.312500 0.000000 0.312500
v -0.312500 0.062500 0.312500
v -0.250000 0.062500 0.250000
v -0.250000 0.062500 0.312500
v -0.250000 0.000000 0.312500
v -0.312500 0.125000 0.312500
v -0.250000 0.125000 0.312500
v -0.187500 0.062500 -0.312500
v -0.187500 0.000000 -0.312500
v -0.187500 0.000000 -0.250000
v -0.187500 0.062500 -0.250000
v -0.187500 0.125000 -0.312500
v -0.187500 0.125000 -0.250000
v -0.187500 0.062500 0.187500
v -0.187500 0.000000 0.187500
v -0.187500 0.000000 0.250000
v -0.187500 0.062500 0.250000
v -0.187500 0.125000 0.187500
v -0.187500 0.125000 0.250000
v -0.125000 0.062500 -0.312500
v -0.125000 0.000000 -0.312500
v -0.125000 0.000000 -0.250000
v -0.125000 0.062500 -0.250000
v -0.125000 0.125000 -0.312500
v -0.125000 0.125000 -0.250000
v -0.125000 0.062500 0.187500
v -0.125000 0.000000 0.187500
v -0.125000 0.000000 0.250000
v -0.125000 0.062500 0.250000
v -0.125000 0.125000 0.187500
v -0.125000 0.125000 0.250000
v -0.062500 0.062500 -0.312500
v -0.062500 0.062500 -0.250000
v -0.062500 0.000000 -0.250000
v -0.062500 0.000000 -0.312500
v -0.062500 0.125000 -0.312500
v -0.062500 0.125000 -0.250000
v -0.062500 0.062500 0.187500
v -0.062500 0.000000 0.187500
v -0.062500 0.000000 0.250000
v -0.062500 0.062500 0.250000
v -0.062500 0.125000 0.187500
v -0.062500 0.125000 0.250000
v 0.000000 0.062500 0.187500
v 0.000000 0.062500 0.250000
v 0.000000 0.000000 0.250000
v 0.000000 0.000000 0.187500
v 0.000000 0.125000 0.187500
v 0.000000 0.125000 0.250000
v 0.000000 0.000000 0.062500
v 0.000000 0.062500 0.062500
v 0.000000 0.062500 0.000000
v 0.000000 0.000000 0.000000
v 0.062500 0.062500 0.000000
v 0.062500 0.000000 0.000000
v 0.062500 0.000000 0.062500
v 0.000000 0.125000 0.062500
v 0.000000 0.125000 0.000000
v 0.062500 0.125000 0.000000
v 0.062500 0.125000 0.062500
v 0.000000 0.000000 0.125000
v 0.000000 0.062500 0.125000
v 0.062500 0.062500 0.062500
v 0.062500 0.062500 0.125000
v 0.062500 0.000000 0.125000
v 0.000000 0.125000 0.125000
v 0.062500 0.125000 0.125000
v 0.062500 0.000000 -0.312500
v 0.062500 0.062500 -0.312500
v 0.062500 0.062500 -0.375000
v 0.062500 0.000000 -0.375000
v 0.125000 0.062500 -0.375000
v 0.125000 0.000000 -0.375000
v 0.125000 0.000000 -0.312500
v 0.062500 0.125000 -0.312500
v 0.062500 0.125000 -0.375000
v 0.125000 0.125000 -0.375000
v 0.062500 0.187500 -0.312500
v 0.062500 0.187500 -0.375000
v 0.125000 0.187500 -0.375000
v 0.062500 0.250000 -0.312500
v 0.062500 0.250000 -0.375000
v 0.125000 0.250000 -0.375000
v 0.125000 0.250000 -0.312500
v 0.062500 0.000000 -0.250000
v 0.062500 0.062500 -0.250000
v 0.125000 0.000000 -0.250000
v 0.062500 0.125000 -0.250000
v 0.062500 0.187500 -0.250000
v 0.062500 0.250000 -0.250000
v 0.125000 0.250000 -0.250000
v 0.062500 0.000000 -0.187500
v 0.062500 0.062500 -0.187500
v 0.125000 0.000000 -0.187500
v 0.062500 0.125000 -0.187500
v 0.062500 0.187500 -0.187500
v 0.062500 0.250000 -0.187500
v 0.125000 0.250000 -0.187500
v 0.062500 0.000000 -0.125000
v 0.062500 0.062500 -0.125000
v 0.125000 0.000000 -0.125000
v 0.125000 0.062500 -0.125000
v 0.062500 0.125000 -0.125000
v 0.125000 0.125000 -0.125000
v 0.062500 0.187500 -0.125000
v 0.125000 0.187500 -0.125000
v 0.062500 0.250000 -0.125000
v 0.125000 0.250000 -0.125000
v 0.125000 0.062500 0.000000
v 0.125000 0.000000 0.000000
v 0.125000 0.000000 0.062500
v 0.125000 0.062500 0.062500
v 0.125000 0.125000 0.000000
v 0.125000 0.125000 0.062500
v 0.187500 0.062500 -0.375000
v 0.187500 0.000000 -0.375000
v 0.187500 0.000000 -0.312500
v 0.187500 0.125000 -0.375000
v 0.187500 0.187500 -0.375000
v 0.187500 0.250000 -0.375000
v 0.187500 0.250000 -0.312500
v 0.187500 0.000000 -0.250000
v 0.187500 0.250000 -0.250000
v 0.187500 0.000000 -0.187500
v 0.187500 0.250000 -0.187500
v 0.187500 0.000000 -0.125000
v 0.187500 0.062500 -0.125000
v 0.187500 0.125000 -0.125000
v 0.187500 0.187500 -0.125000
v 0.187500 0.250000 -0.125000
v 0.187500 0.062500 0.000000
v 0.187500 0.000000 0.000000
v 0.187500 0.000000 0.062500
v 0.187500 0.062500 0.062500
v 0.187500 0.125000 0.000000
v 0.187500 0.125000 0.062500
v 0.250000 0.062500 -0.375000
v 0.250000 0.000000 -0.375000
v 0.250000 0.000000 -0.312500
v 0.250000 0.125000 -0.375000
v 0.250000 0.187500 -0.375000
v 0.250000 0.250000 -0.375000
v 0.250000 0.250000 -0.312500
v 0.250000 0.000000 -0.250000
v 0.250000 0.250000 -0.250000
v 0.250000 0.000000 -0.187500
v 0.250000 0.250000 -0.187500
v 0.250000 0.000000 -0.125000
v 0.250000 0.062500 -0.125000
v 0.250000 0.125000 -0.125000
v 0.250000 0.187500 -0.125000
v 0.250000 0.250000 -0.125000
v 0.250000 0.187500 -0.187500
v 0.250000 0.062500 0.000000
v 0.250000 0.000000 0.000000
v 0.250000 0.000000 0.062500
v 0.250000 0.062500 0.062500
v 0.250000 0.125000 0.000000
v 0.250000 0.125000 0.062500
v 0.312500 0.062500 -0.375000
v 0.312500 0.062500 -0.312500
v 0.312500 0.000000 -0.312500
v 0.312500 0.000000 -0.375000
v 0.312500 0.125000 -0.375000
v 0.312500 0.125000 -0.312500
v 0.312500 0.187500 -0.375000
v 0.312500 0.187500 -0.312500
v 0.312500 0.250000 -0.375000
v 0.312500 0.250000 -0.312500
v 0.312500 0.062500 -0.250000
v 0.312500 0.000000 -0.250000
v 0.312500 0.125000 -0.250000
v 0.312500 0.187500 -0.250000
v 0.312500 0.250000 -0.250000
v 0.312500 0.062500 -0.187500
v 0.312500 0.000000 -0.187500
v 0.312500 0.125000 -0.187500
v 0.312500 0.187500 -0.187500
v 0.312500 0.250000 -0.187500
v 0.312500 0.062500 -0.125000
v 0.312500 0.000000 -0.125000
v 0.312500 0.125000 -0.125000
v 0.312500 0.187500 -0.125000
v 0.312500 0.062500 0.000000
v 0.312500 0.062500 0.062500
v 0.312500 0.000000 0.062500
v 0.312500 0.000000 0.000000
v 0.312500 0.125000 0.000000
v 0.312500 0.125000 0.062500
vt 0.03125000 0.96875000
vt 0.09375000 0.96875000
vt 0.15625000 0.96875000
vt 0.21875000 0.96875000
vt 0.28125000 0.96875000
vt 0.34375000 0.96875000
vt 0.40625000 0.96875000
vt 0.46875000 0.96875000
vt 0.53125000 0.96875000
vt 0.59375000 0.96875000
vt 0.65625000 0.96875000
vt 0.71875000 0.96875000
vt 0.78125000 0.96875000
vt 0.84375000 0.96875000
vt 0.90625000 0.96875000
vt 0.96875000 0.96875000
vt 0.03125000 0.90625000
vt 0.09375000 0.90625000
vt 0.15625000 0.90625000
vt 0.21875000 0.90625000
vt 0.28125000 0.90625000
vt 0.34375000 0.90625000
vt 0.40625000 0.90625000
vt 0.46875000 0.90625000
vt 0.53125000 0.90625000
vt 0.59375000 0.90625000
vt 0.65625000 0.90625000
vt 0.71875000 0.90625000
vt 0.78125000 0.90625000
vt 0.84375000 0.90625000
vt 0.90625000 0.90625000
vt 0.96875000 0.90625000
vt 0.03125000 0.84375000
vt 0.09375000 0.84375000
vt 0.15625000 0.84375000
vt 0.21875000 0.84375000
vt 0.28125000 0.84375000
vt 0.34375000 0.84375000
vt 0.40625000 0.84375000
vt 0.46875000 0.84375000
vt 0.53125000 0.84375000
vt 0.59375000 0.84375000
vt 0.65625000 0.84375000
vt 0.71875000 0.84375000
vt 0.78125000 0.84375000
vt 0.84375000 0.84375000
vt 0.90625000 0.84375000
vt 0.96875000 0.84375000
vt 0.03125000 0.78125000
vt 0.09375000 0.78125000
vt 0.15625000 0.78125000
vt 0.21875000 0.78125000
vt 0.28125000 0.78125000
vt 0.34375000 0.78125000
vt 0.40625000 0.78125000
vt 0.46875000 0.78125000
vt 0.53125000 0.78125000
vt 0.59375000 0.78125000
vt 0.65625000 0.78125000
vt 0.71875000 0.78125000
vt 0.78125000 0.78125000
vt 0.84375000 0.78125000
vt 0.90625000 0.78125000
vt 0.96875000 0.78125000
vt 0.03125000 0.71875000
vt 0.09375000 0.71875000
vt 0.15625000 0.71875000
vt 0.21875000 0.71875000
vt 0.28125000 0.71875000
vt 0.34375000 0.71875000
vt 0.40625000 0.71875000
vt 0.46875000 0.71875000
vt 0.53125000 0.71875000
vt 0.59375000 0.71875000
vt 0.65625000 0.71875000
vt 0.71875000 0.71875000
vt 0.78125000 0.71875000
vt 0.84375000 0.71875000
vt 0.90625000 0.71875000
vt 0.96875000 0.71875000
vt 0.03125000 0.65625000
vt 0.09375000 0.65625000
vt 0.15625000 0.65625000
vt 0.21875000 0.65625000
vt 0.28125000 0.65625000
vt 0.34375000 0.65625000
vt 0.40625000 0.65625000
vt 0.46875000 0.65625000
vt 0.53125000 0.65625000
vt 0.59375000 0.65625000
vt 0.65625000 0.65625000
vt 0.71875000 0.65625000
vt 0.78125000 0.65625000
vt 0.84375000 0.65625000
vt 0.90625000 0.65625000
vt 0.96875000 0.65625000
vt 0.03125000 0.59375000
vt 0.09375000 0.59375000
vt 0.15625000 0.59375000
vt 0.21875000 0.59375000
vt 0.28125000 0.59375000
vt 0.34375000 0.59375000
vt 0.40625000 0.59375000
vt 0.46875000 0.59375000
vt 0.53125000 0.59375000
vt 0.59375000 0.59375000
vt 0.65625000 0.59375000
vt 0.71875000 0.59375000
vt 0.78125000 0.59375000
vt 0.84375000 0.59375000
vt 0.90625000 0.59375000
vt 0.96875000 0.59375000
vt 0.03125000 0.53125000
vt 0.09375000 0.53125000
vt 0.15625000 0.53125000
vt 0.21875000 0.53125000
vt 0.28125000 0.53125000
vt 0.34375000 0.53125000
vt 0.40625000 0.53125000
vt 0.46875000 0.53125000
vt 0.53125000 0.53125000
vt 0.59375000 0.53125000
vt 0.65625000 0.53125000
vt 0.71875000 0.53125000
vt 0.78125000 0.53125000
vt 0.84375000 0.53125000
vt 0.90625000 0.53125000
vt 0.96875000 0.53125000
vt 0.03125000 0.46875000
vt 0.09375000 0.46875000
vt 0.15625000 0.46875000
vt 0.21875000 0.46875000
vt 0.28125000 0.46875000
vt 0.34375000 0.46875000
vt 0.40625000 0.46875000
vt 0.46875000 0.46875000
vt 0.53125000 0.46875000
vt 0.59375000 0.46875000
vt 0.65625000 0.46875000
vt 0.71875000 0.46875000
vt 0.78125000 0.46875000
vt 0.84375000 0.46875000
vt 0.90625000 0.46875000
vt 0.96875000 0.46875000
vt 0.03125000 0.40625000
vt 0.09375000 0.40625000
vt 0.15625000 0.40625000
vt 0.21875000 0.40625000
vt 0.28125000 0.40625000
vt 0.34375000 0.40625000
vt 0.40625000 0.40625000
vt 0.46875000 0.40625000
vt 0.53125000 0.40625000
vt 0.59375000 0.40625000
vt 0.65625000 0.40625000
vt 0.71875000 0.40625000
vt 0.78125000 0.40625000
vt 0.84375000 0.40625000
vt 0.90625000 0.40625000
vt 0.96875000 0.40625000
vt 0.03125000 0.34375000
vt 0.09375000 0.34375000
vt 0.15625000 0.34375000
vt 0.21875000 0.34375000
vt 0.28125000 0.34375000
vt 0.34375000 0.34375000
vt 0.40625000 0.34375000
vt 0.46875000 0.34375000
vt 0.53125000 0.34375000
vt 0.59375000 0.34375000
vt 0.65625000 0.34375000
vt 0.71875000 0.34375000
vt 0.78125000 0.34375000
vt 0.84375000 0.34375000
vt 0.90625000 0.34375000
vt 0.96875000 0.34375000
vt 0.03125000 0.28125000
vt 0.09375000 0.28125000
vt 0.15625000 0.28125000
vt 0.21875000 0.28125000
vt 0.28125000 0.28125000
vt 0.34375000 0.28125000
vt 0.40625000 0.28125000
vt 0.46875000 0.28125000
vt 0.53125000 0.28125000
vt 0.59375000 0.28125000
vt 0.65625000 0.28125000
vt 0.71875000 0.28125000
vt 0.78125000 0.28125000
vt 0.84375000 0.28125000
vt 0.90625000 0.28125000
vt 0.96875000 0.28125000
vt 0.03125000 0.21875000
vt 0.09375000 0.21875000
vt 0.15625000 0.21875000
vt 0.21875000 0.21875000
vt 0.28125000 0.21875000
vt 0.34375000 0.21875000
vt 0.40625000 0.21875000
vt 0.46875000 0.21875000
vt 0.53125000 0.21875000
vt 0.59375000 0.21875000
vt 0.65625000 0.21875000
vt 0.71875000 0.21875000
vt 0.78125000 0.21875000
vt 0.84375000 0.21875000
vt 0.90625000 0.21875000
vt 0.96875000 0.21875000
vt 0.03125000 0.15625000
vt 0.09375000 0.15625000
vt 0.15625000 0.15625000
vt 0.21875000 0.15625000
vt 0.28125000 0.15625000
vt 0.34375000 0.15625000
vt 0.40625000 0.15625000
vt 0.46875000 0.15625000
vt 0.53125000 0.15625000
vt 0.59375000 0.15625000
vt 0.65625000 0.15625000
vt 0.71875000 0.15625000
vt 0.78125000 0.15625000
vt 0.84375000 0.15625000
vt 0.90625000 0.15625000
vt 0.96875000 0.15625000
vt 0.03125000 0.09375000
vt 0.09375000 0.09375000
vt 0.15625000 0.09375000
vt 0.21875000 0.09375000
vt 0.28125000 0.09375000
vt 0.34375000 0.09375000
vt 0.40625000 0.09375000
vt 0.46875000 0.09375000
vt 0.53125000 0.09375000
vt 0.59375000 0.09375000
vt 0.65625000 0.09375000
vt 0.71875000 0.09375000
vt 0.78125000 0.09375000
vt 0.84375000 0.09375000
vt 0.90625000 0.09375000
vt 0.96875000 0.09375000
vt 0.03125000 0.03125000
vt 0.09375000 0.03125000
vt 0.15625000 0.03125000
vt 0.21875000 0.03125000
vt 0.28125000 0.03125000
vt 0.34375000 0.03125000
vt 0.40625000 0.03125000
vt 0.46875000 0.03125000
vt 0.53125000 0.03125000
vt 0.59375000 0.03125000
vt 0.65625000 0.03125000
vt 0.71875000 0.03125000
vt 0.78125000 0.03125000
vt 0.84375000 0.03125000
vt 0.90625000 0.03125000
vt 0.96875000 0.03125000
vn -1 0 0
vn 1 0 0
vn 0 0 -1
vn 0 0 1
vn 0 -1 0
vn 0 1 0
g palette
usemtl palette
f 1/6/1 2/6/1 3/6/1 4/6/1
f 3/6/3 5/6/3 6/6/3 4/6/3
f 6/6/5 7/6/5 1/6/5 4/6/5
f 2/6/1 8/6/1 9/6/1 3/6/1
f 9/6/3 10/6/3 5/6/3 3/6/3
f 8/6/6 11/6/6 10/6/6 9/6/6
f 12/6/1 13/6/1 2/6/1 1/6/1
f 14/6/2 15/6/2 16/6/2 7/6/2
f 16/6/4 15/6/4 13/6/4 12/6/4
f 7/6/5 16/6/5 12/6/5 1/6/5
f 13/6/1 17/6/1 8/6/1 2/6/1
f 11/6/2 18/6/2 15/6/2 14/6/2
f 15/6/4 18/6/4 17/6/4 13/6/4
f 17/6/6 18/6/6 11/6/6 8/6/6
f 5/7/3 19/7/3 20/7/3 6/7/3
f 21/7/4 22/7/4 14/7/4 7/7/4
f 20/7/5 21/7/5 7/7/5 6/7/5
f 10/7/3 23/7/3 19/7/3 5/7/3
f 22/7/4 24/7/4 11/7/4 14/7/4
f 11/7/6 24/7/6 23/7/6 10/7/6
f 25/6/1 26/6/1 27/6/1 28/6/1
f 27/6/3 29/6/3 30/6/3 28/6/3
f 30/6/5 31/6/5 25/6/5 28/6/5
f 26/6/1 32/6/1 33/6/1 27/6/1
f 33/6/3 34/6/3 29/6/3 27/6/3
f 32/6/6 35/6/6 34/6/6 33/6/6
f 36/6/1 37/6/1 26/6/1 25/6/1
f 38/6/2 39/6/2 40/6/2 31/6/2
f 40/6/4 39/6/4 37/6/4 36/6/4
f 31/6/5 40/6/5 36/6/5 25/6/5
f 37/6/1 41/6/1 32/6/1 26/6/1
f 35/6/2 42/6/2 39/6/2 38/6/2
f 39/6/4 42/6/4 41/6/4 37/6/4
f 41/6/6 42/6/6 35/6/6 32/6/6
f 19/7/3 43/7/3 44/7/3 20/7/3
f 45/7/4 46/7/4 22/7/4 21/7/4
f 44/7/5 45/7/5 21/7/5 20/7/5
f 23/7/3 47/7/3 43/7/3 19/7/3
f 46/7/4 48/7/4 24/7/4 22/7/4
f 24/7/6 48/7/6 47/7/6 23/7/6
f 29/7/3 49/7/3 50/7/3 30/7/3
f 51/7/4 52/7/4 38/7/4 31/7/4
f 50/7/5 51/7/5 31/7/5 30/7/5
f 34/7/3 53/7/3 49/7/3 29/7/3
f 52/7/4 54/7/4 35/7/4 38/7/4
f 35/7/6 54/7/6 53/7/6 34/7/6
f 43/7/3 55/7/3 56/7/3 44/7/3
f 57/7/4 58/7/4 46/7/4 45/7/4
f 56/7/5 57/7/5 45/7/5 44/7/5
f 47/7/3 59/7/3 55/7/3 43/7/3
f 58/7/4 60/7/4 48/7/4 46/7/4
f 48/7/6 60/7/6 59/7/6 47/7/6
f 49/7/3 61/7/3 62/7/3 50/7/3
f 63/7/4 64/7/4 52/7/4 51/7/4
f 62/7/5 63/7/5 51/7/5 50/7/5
f 53/7/3 65/7/3 61/7/3 49/7/3
f 64/7/4 66/7/4 54/7/4 52/7/4
f 54/7/6 66/7/6 65/7/6 53/7/6
f 67/7/2 68/7/2 69/7/2 70/7/2
f 55/7/3 67/7/3 70/7/3 56/7/3
f 69/7/4 68/7/4 58/7/4 57/7/4
f 70/7/5 69/7/5 57/7/5 56/7/5
f 71/7/2 72/7/2 68/7/2 67/7/2
f 59/7/3 71/7/3 67/7/3 55/7/3
f 68/7/4 72/7/4 60/7/4 58/7/4
f 60/7/6 72/7/6 71/7/6 59/7/6
f 61/7/3 73/7/3 74/7/3 62/7/3
f 75/7/4 76/7/4 64/7/4 63/7/4
f 74/7/5 75/7/5 63/7/5 62/7/5
f 65/7/3 77/7/3 73/7/3 61/7/3
f 76/7/4 78/7/4 66/7/4 64/7/4
f 66/7/6 78/7/6 77/7/6 65/7/6
f 79/7/2 80/7/2 81/7/2 82/7/2
f 73/7/3 79/7/3 82/7/3 74/7/3
f 81/7/4 80/7/4 76/7/4 75/7/4
f 82/7/5 81/7/5 75/7/5 74/7/5
f 83/7/2 84/7/2 80/7/2 79/7/2
f 77/7/3 83/7/3 79/7/3 73/7/3
f 80/7/4 84/7/4 78/7/4 76/7/4
f 78/7/6 84/7/6 83/7/6 77/7/6
f 85/6/1 86/6/1 87/6/1 88/6/1
f 87/6/3 89/6/3 90/6/3 88/6/3
f 90/6/5 91/6/5 85/6/5 88/6/5
f 86/6/1 92/6/1 93/6/1 87/6/1
f 93/6/3 94/6/3 89/6/3 87/6/3
f 92/6/6 95/6/6 94/6/6 93/6/6
f 96/6/1 97/6/1 86/6/1 85/6/1
f 98/6/2 99/6/2 100/6/2 91/6/2
f 100/6/4 99/6/4 97/6/4 96/6/4
f 91/6/5 100/6/5 96/6/5 85/6/5
f 97/6/1 101/6/1 92/6/1 86/6/1
f 95/6/2 102/6/2 99/6/2 98/6/2
f 99/6/4 102/6/4 101/6/4 97/6/4
f 101/6/6 102/6/6 95/6/6 92/6/6
f 103/7/1 104/7/1 105/7/1 106/7/1
f 105/7/3 107/7/3 108/7/3 106/7/3
f 108/7/5 109/7/5 103/7/5 106/7/5
f 104/7/1 110/7/1 111/7/1 105/7/1
f 111/7/3 112/7/3 107/7/3 105/7/3
f 110/7/1 113/7/1 114/7/1 111/7/1
f 114/7/3 115/7/3 112/7/3 111/7/3
f 113/7/1 116/7/1 117/7/1 114/7/1
f 117/7/3 118/7/3 115/7/3 114/7/3
f 116/7/6 119/7/6 118/7/6 117/7/6
f 120/7/1 121/7/1 104/7/1 103/7/1
f 109/7/5 122/7/5 120/7/5 103/7/5
f 121/7/1 123/7/1 110/7/1 104/7/1
f 123/7/1 124/7/1 113/7/1 110/7/1
f 124/7/1 125/7/1 116/7/1 113/7/1
f 125/7/6 126/7/6 119/7/6 116/7/6
f 127/7/1 128/7/1 121/7/1 120/7/1
f 122/7/5 129/7/5 127/7/5 120/7/5
f 128/7/1 130/7/1 123/7/1 121/7/1
f 130/7/1 131/7/1 124/7/1 123/7/1
f 131/7/1 132/7/1 125/7/1 124/7/1
f 132/7/6 133/7/6 126/7/6 125/7/6
f 134/7/1 135/7/1 128/7/1 127/7/1
f 136/7/4 137/7/4 135/7/4 134/7/4
f 129/7/5 136/7/5 134/7/5 127/7/5
f 135/7/1 138/7/1 130/7/1 128/7/1
f 137/7/4 139/7/4 138/7/4 135/7/4
f 138/7/1 140/7/1 131/7/1 130/7/1
f 139/7/4 141/7/4 140/7/4 138/7/4
f 140/7/1 142/7/1 132/7/1 131/7/1
f 141/7/4 143/7/4 142/7/4 140/7/4
f 142/7/6 143/7/6 133/7/6 132/7/6
f 89/7/3 144/7/3 145/7/3 90/7/3
f 146/7/4 147/7/4 98/7/4 91/7/4
f 145/7/5 146/7/5 91/7/5 90/7/5
f 94/7/3 148/7/3 144/7/3 89/7/3
f 147/7/4 149/7/4 95/7/4 98/7/4
f 95/7/6 149/7/6 148/7/6 94/7/6
f 107/7/3 150/7/3 151/7/3 108/7/3
f 151/7/5 152/7/5 109/7/5 108/7/5
f 112/7/3 153/7/3 150/7/3 107/7/3
f 115/5/3 154/5/3 153/5/3 112/5/3
f 118/7/3 155/7/3 154/7/3 115/7/3
f 119/7/6 156/7/6 155/7/6 118/7/6
f 152/7/5 157/7/5 122/7/5 109/7/5
f 126/7/6 158/7/6 156/7/6 119/7/6
f 157/7/5 159/7/5 129/7/5 122/7/5
f 133/7/6 160/7/6 158/7/6 126/7/6
f 161/7/4 162/7/4 137/7/4 136/7/4
f 159/7/5 161/7/5 136/7/5 129/7/5
f 162/7/4 163/7/4 139/7/4 137/7/4
f 163/7/4 164/7/4 141/7/4 139/7/4
f 164/7/4 165/7/4 143/7/4 141/7/4
f 143/7/6 165/7/6 160/7/6 133/7/6
f 144/7/3 166/7/3 167/7/3 145/7/3
f 168/7/4 169/7/4 147/7/4 146/7/4
f 167/7/5 168/7/5 146/7/5 145/7/5
f 148/7/3 170/7/3 166/7/3 144/7/3
f 169/7/4 171/7/4 149/7/4 147/7/4
f 149/7/6 171/7/6 170/7/6 148/7/6
f 150/7/3 172/7/3 173/7/3 151/7/3
f 173/7/5 174/7/5 152/7/5 151/7/5
f 153/7/3 175/7/3 172/7/3 150/7/3
f 154/7/3 176/7/3 175/7/3 153/7/3
f 155/7/3 177/7/3 176/7/3 154/7/3
f 156/7/6 178/7/6 177/7/6 155/7/6
f 174/7/5 179/7/5 157/7/5 152/7/5
f 158/7/6 180/7/6 178/7/6 156/7/6
f 179/7/5 181/7/5 159/7/5 157/7/5
f 160/7/6 182/7/6 180/7/6 158/7/6
f 183/7/4 184/7/4 162/7/4 161/7/4
f 181/7/5 183/7/5 161/7/5 159/7/5
f 184/7/4 185/7/4 163/7/4 162/7/4
f 185/7/4 186/7/4 164/7/4 163/7/4
f 182/7/2 187/7/2 186/7/2 188/7/2
f 186/7/4 187/7/4 165/7/4 164/7/4
f 165/7/6 187/7/6 182/7/6 160/7/6
f 166/7/3 189/7/3 190/7/3 167/7/3
f 191/7/4 192/7/4 169/7/4 168/7/4
f 190/7/5 191/7/5 168/7/5 167/7/5
f 170/7/3 193/7/3 189/7/3 166/7/3
f 192/7/4 194/7/4 171/7/4 169/7/4
f 171/7/6 194/7/6 193/7/6 170/7/6
f 195/7/2 196/7/2 197/7/2 198/7/2
f 172/7/3 195/7/3 198/7/3 173/7/3
f 198/7/5 197/7/5 174/7/5 173/7/5
f 199/7/2 200/7/2 196/7/2 195/7/2
f 175/7/3 199/7/3 195/7/3 172/7/3
f 201/5/2 202/5/2 200/5/2 199/5/2
f 176/5/3 201/5/3 199/5/3 175/5/3
f 203/7/2 204/7/2 202/7/2 201/7/2
f 177/7/3 203/7/3 201/7/3 176/7/3
f 178/7/6 204/7/6 203/7/6 177/7/6
f 196/7/2 205/7/2 206/7/2 197/7/2
f 197/7/5 206/7/5 179/7/5 174/7/5
f 200/7/2 207/7/2 205/7/2 196/7/2
f 202/7/2 208/7/2 207/7/2 200/7/2
f 204/7/2 209/7/2 208/7/2 202/7/2
f 180/7/6 209/7/6 204/7/6 178/7/6
f 205/7/2 210/7/2 211/7/2 206/7/2
f 206/7/5 211/7/5 181/7/5 179/7/5
f 207/7/2 212/7/2 210/7/2 205/7/2
f 208/7/2 213/7/2 212/7/2 207/7/2
f 209/7/2 214/7/2 213/7/2 208/7/2
f 213/7/4 214/7/4 182/7/4 188/7/4
f 182/7/6 214/7/6 209/7/6 180/7/6
f 210/7/2 215/7/2 216/7/2 211/7/2
f 216/7/4 215/7/4 184/7/4 183/7/4
f 211/7/5 216/7/5 183/7/5 181/7/5
f 212/7/2 217/7/2 215/7/2 210/7/2
f 215/7/4 217/7/4 185/7/4 184/7/4
f 213/7/2 218/7/2 217/7/2 212/7/2
f 217/7/4 218/7/4 186/7/4 185/7/4
f 186/7/6 218/7/6 213/7/6 188/7/6
f 219/7/2 220/7/2 221/7/2 222/7/2
f 189/7/3 219/7/3 222/7/3 190/7/3
f 221/7/4 220/7/4 192/7/4 191/7/4
f 222/7/5 221/7/5 191/7/5 190/7/5
f 223/7/2 224/7/2 220/7/2 219/7/2
f 193/7/3 223/7/3 219/7/3 189/7/3
f 220/7/4 224/7/4 194/7/4 192/7/4
f 194/7/6 224/7/6 223/7/6 193/7/6
