# Dungine boulder; 1 voxel = 1/16 unit; Y-up floor-center origin
mtllib boulder.mtl
o boulder
s off
v -0.437500 0.000000 -0.062500
v -0.437500 0.062500 -0.062500
v -0.437500 0.062500 -0.125000
v -0.437500 0.000000 -0.125000
v -0.375000 0.062500 -0.125000
v -0.375000 0.000000 -0.125000
v -0.375000 0.000000 -0.062500
v -0.437500 0.125000 -0.062500
v -0.437500 0.125000 -0.125000
v -0.375000 0.125000 -0.125000
v -0.437500 0.187500 -0.062500
v -0.437500 0.187500 -0.125000
v -0.375000 0.187500 -0.125000
v -0.437500 0.250000 -0.062500
v -0.437500 0.250000 -0.125000
v -0.375000 0.250000 -0.125000
v -0.437500 0.312500 -0.062500
v -0.437500 0.312500 -0.125000
v -0.375000 0.312500 -0.125000
v -0.375000 0.312500 -0.062500
v -0.437500 0.000000 0.000000
v -0.437500 0.062500 0.000000
v -0.375000 0.000000 0.000000
v -0.437500 0.125000 0.000000
v -0.437500 0.187500 0.000000
v -0.437500 0.250000 0.000000
v -0.437500 0.312500 0.000000
v -0.437500 0.375000 0.000000
v -0.437500 0.375000 -0.062500
v -0.375000 0.375000 -0.062500
v -0.375000 0.375000 0.000000
v -0.437500 0.000000 0.062500
v -0.437500 0.062500 0.062500
v -0.375000 0.000000 0.062500
v -0.437500 0.125000 0.062500
v -0.437500 0.187500 0.062500
v -0.437500 0.250000 0.062500
v -0.437500 0.312500 0.062500
v -0.437500 0.375000 0.062500
v -0.375000 0.312500 0.062500
v -0.375000 0.375000 0.062500
v -0.437500 0.000000 0.125000
v -0.437500 0.062500 0.125000
v -0.375000 0.000000 0.125000
v -0.375000 0.062500 0.125000
v -0.437500 0.125000 0.125000
v -0.375000 0.125000 0.125000
v -0.437500 0.187500 0.125000
v -0.375000 0.187500 0.125000
v -0.437500 0.250000 0.125000
v -0.375000 0.250000 0.125000
v -0.437500 0.312500 0.125000
v -0.375000 0.312500 0.125000
v -0.375000 0.000000 -0.187500
v -0.375000 0.062500 -0.187500
v -0.375000 0.062500 -0.250000
v -0.375000 0.000000 -0.250000
v -0.312500 0.062500 -0.250000
v -0.312500 0.000000 -0.250000
v -0.312500 0.000000 -0.187500
v -0.375000 0.125000 -0.187500
v -0.375000 0.125000 -0.250000
v -0.312500 0.125000 -0.250000
v -0.375000 0.187500 -0.187500
v -0.375000 0.187500 -0.250000
v -0.312500 0.187500 -0.250000
v -0.375000 0.250000 -0.187500
v -0.375000 0.250000 -0.250000
v -0.312500 0.250000 -0.250000
v -0.312500 0.250000 -0.187500
v -0.312500 0.000000 -0.125000
v -0.375000 0.312500 -0.187500
v -0.312500 0.312500 -0.187500
v -0.375000 0.375000 -0.125000
v -0.375000 0.375000 -0.187500
v -0.312500 0.375000 -0.187500
v -0.375000 0.437500 -0.125000
v -0.375000 0.437500 -0.187500
v -0.312500 0.437500 -0.187500
v -0.375000 0.500000 -0.125000
v -0.375000 0.500000 -0.187500
v -0.312500 0.500000 -0.187500
v -0.312500 0.500000 -0.125000
v -0.312500 0.000000 -0.062500
v -0.375000 0.437500 -0.062500
v -0.375000 0.500000 -0.062500
v -0.375000 0.562500 -0.062500
v -0.375000 0.562500 -0.125000
v -0.312500 0.562500 -0.125000
v -0.375000 0.625000 -0.062500
v -0.375000 0.625000 -0.125000
v -0.312500 0.625000 -0.125000
v -0.312500 0.625000 -0.062500
v -0.312500 0.000000 0.000000
v -0.375000 0.437500 0.000000
v -0.375000 0.500000 0.000000
v -0.375000 0.562500 0.000000
v -0.375000 0.625000 0.000000
v -0.312500 0.625000 0.000000
v -0.312500 0.000000 0.062500
v -0.375000 0.437500 0.062500
v -0.375000 0.500000 0.062500
v -0.375000 0.562500 0.062500
v -0.375000 0.625000 0.062500
v -0.312500 0.625000 0.062500
v -0.312500 0.000000 0.125000
v -0.375000 0.375000 0.125000
v -0.375000 0.437500 0.125000
v -0.375000 0.500000 0.125000
v -0.375000 0.562500 0.125000
v -0.312500 0.500000 0.125000
v -0.312500 0.562500 0.125000
v -0.375000 0.625000 0.125000
v -0.312500 0.625000 0.125000
v -0.375000 0.000000 0.187500
v -0.375000 0.062500 0.187500
v -0.312500 0.000000 0.187500
v -0.375000 0.125000 0.187500
v -0.375000 0.187500 0.187500
v -0.375000 0.250000 0.187500
v -0.375000 0.312500 0.187500
v -0.312500 0.250000 0.187500
v -0.312500 0.312500 0.187500
v -0.375000 0.375000 0.187500
v -0.312500 0.375000 0.187500
v -0.375000 0.437500 0.187500
v -0.312500 0.437500 0.187500
v -0.375000 0.500000 0.187500
v -0.312500 0.500000 0.187500
v -0.375000 0.000000 0.250000
v -0.375000 0.062500 0.250000
v -0.312500 0.000000 0.250000
v -0.312500 0.062500 0.250000
v -0.375000 0.125000 0.250000
v -0.312500 0.125000 0.250000
v -0.375000 0.187500 0.250000
v -0.312500 0.187500 0.250000
v -0.375000 0.250000 0.250000
v -0.312500 0.250000 0.250000
v -0.312500 0.062500 -0.312500
v -0.312500 0.000000 -0.312500
v -0.250000 0.062500 -0.312500
v -0.250000 0.000000 -0.312500
v -0.250000 0.000000 -0.250000
v -0.312500 0.125000 -0.312500
v -0.250000 0.125000 -0.312500
v -0.312500 0.187500 -0.312500
v -0.250000 0.187500 -0.312500
v -0.250000 0.187500 -0.250000
v -0.250000 0.000000 -0.187500
v -0.250000 0.250000 -0.250000
v -0.312500 0.312500 -0.250000
v -0.250000 0.312500 -0.250000
v -0.312500 0.375000 -0.250000
v -0.250000 0.375000 -0.250000
v -0.312500 0.437500 -0.250000
v -0.250000 0.437500 -0.250000
v -0.312500 0.500000 -0.250000
v -0.250000 0.500000 -0.250000
v -0.312500 0.562500 -0.187500
v -0.312500 0.562500 -0.250000
v -0.250000 0.562500 -0.250000
v -0.250000 0.562500 -0.187500
v -0.250000 0.000000 -0.125000
v -0.312500 0.625000 -0.187500
v -0.250000 0.625000 -0.187500
v -0.312500 0.687500 -0.125000
v -0.312500 0.687500 -0.187500
v -0.250000 0.687500 -0.187500
v -0.250000 0.687500 -0.125000
v -0.250000 0.000000 -0.062500
v -0.312500 0.687500 -0.062500
v -0.312500 0.750000 -0.062500
v -0.312500 0.750000 -0.125000
v -0.250000 0.750000 -0.125000
v -0.250000 0.750000 -0.062500
v -0.250000 0.000000 0.000000
v -0.312500 0.687500 0.000000
v -0.312500 0.750000 0.000000
v -0.312500 0.812500 0.000000
v -0.312500 0.812500 -0.062500
v -0.250000 0.812500 -0.062500
v -0.250000 0.812500 0.000000
v -0.250000 0.000000 0.062500
v -0.312500 0.687500 0.062500
v -0.312500 0.750000 0.062500
v -0.312500 0.812500 0.062500
v -0.250000 0.750000 0.062500
v -0.250000 0.812500 0.062500
v -0.250000 0.000000 0.125000
v -0.312500 0.687500 0.125000
v -0.312500 0.750000 0.125000
v -0.250000 0.687500 0.125000
v -0.250000 0.750000 0.125000
v -0.250000 0.000000 0.187500
v -0.312500 0.562500 0.187500
v -0.312500 0.625000 0.187500
v -0.250000 0.562500 0.187500
v -0.250000 0.625000 0.187500
v -0.312500 0.687500 0.187500
v -0.250000 0.687500 0.187500
v -0.250000 0.000000 0.250000
v -0.250000 0.187500 0.250000
v -0.250000 0.250000 0.250000
v -0.312500 0.312500 0.250000
v -0.250000 0.312500 0.250000
v -0.312500 0.375000 0.250000
v -0.250000 0.375000 0.250000
v -0.312500 0.437500 0.250000
v -0.250000 0.437500 0.250000
v -0.312500 0.500000 0.250000
v -0.250000 0.500000 0.250000
v -0.312500 0.562500 0.250000
v -0.250000 0.562500 0.250000
v -0.312500 0.000000 0.312500
v -0.312500 0.062500 0.312500
v -0.250000 0.000000 0.312500
v -0.250000 0.062500 0.312500
v -0.312500 0.125000 0.312500
v -0.250000 0.125000 0.312500
v -0.312500 0.187500 0.312500
v -0.250000 0.187500 0.312500
v -0.187500 0.062500 -0.312500
v -0.187500 0.000000 -0.312500
v -0.187500 0.000000 -0.250000
v -0.187500 0.125000 -0.312500
v -0.187500 0.187500 -0.312500
v -0.250000 0.250000 -0.312500
v -0.187500 0.250000 -0.312500
v -0.250000 0.312500 -0.312500
v -0.187500 0.312500 -0.312500
v -0.250000 0.375000 -0.312500
v -0.187500 0.375000 -0.312500
v -0.250000 0.437500 -0.312500
v -0.187500 0.437500 -0.312500
v -0.250000 0.500000 -0.312500
v -0.187500 0.500000 -0.312500
v -0.187500 0.500000 -0.250000
v -0.187500 0.437500 -0.250000
v -0.187500 0.000000 -0.187500
v -0.187500 0.562500 -0.250000
v -0.250000 0.625000 -0.250000
v -0.187500 0.625000 -0.250000
v -0.250000 0.687500 -0.250000
v -0.187500 0.687500 -0.250000
v -0.187500 0.687500 -0.187500
v -0.187500 0.000000 -0.125000
v -0.250000 0.750000 -0.187500
v -0.187500 0.750000 -0.187500
v -0.250000 0.812500 -0.125000
v -0.250000 0.812500 -0.187500
v -0.187500 0.812500 -0.187500
v -0.187500 0.812500 -0.125000
v -0.187500 0.000000 -0.062500
v -0.187500 0.812500 -0.062500
v -0.187500 0.000000 0.000000
v -0.187500 0.812500 0.000000
v -0.187500 0.000000 0.062500
v -0.187500 0.812500 0.062500
v -0.187500 0.000000 0.125000
v -0.250000 0.812500 0.125000
v -0.187500 0.812500 0.125000
v -0.187500 0.000000 0.187500
v -0.250000 0.750000 0.187500
v -0.187500 0.687500 0.187500
v -0.187500 0.750000 0.187500
v -0.250000 0.812500 0.187500
v -0.187500 0.812500 0.187500
v -0.187500 0.000000 0.250000
v -0.187500 0.500000 0.250000
v -0.187500 0.562500 0.250000
v -0.250000 0.625000 0.250000
v -0.187500 0.625000 0.250000
v -0.250000 0.687500 0.250000
v -0.187500 0.687500 0.250000
v -0.187500 0.000000 0.312500
v -0.187500 0.062500 0.312500
v -0.187500 0.125000 0.312500
v -0.187500 0.187500 0.312500
v -0.250000 0.250000 0.312500
v -0.187500 0.250000 0.312500
v -0.250000 0.312500 0.312500
v -0.187500 0.312500 0.312500
v -0.250000 0.375000 0.312500
v -0.187500 0.375000 0.312500
v -0.250000 0.437500 0.312500
v -0.187500 0.437500 0.312500
v -0.250000 0.500000 0.312500
v -0.187500 0.500000 0.312500
v -0.187500 0.062500 -0.375000
v -0.187500 0.000000 -0.375000
v -0.125000 0.062500 -0.375000
v -0.125000 0.000000 -0.375000
v -0.125000 0.000000 -0.312500
v -0.187500 0.125000 -0.375000
v -0.125000 0.125000 -0.375000
v -0.187500 0.187500 -0.375000
v -0.125000 0.187500 -0.375000
v -0.125000 0.187500 -0.312500
v -0.125000 0.000000 -0.250000
v -0.125000 0.250000 -0.312500
v -0.125000 0.312500 -0.312500
v -0.125000 0.375000 -0.312500
v -0.125000 0.437500 -0.312500
v -0.125000 0.437500 -0.250000
v -0.125000 0.000000 -0.187500
v -0.125000 0.500000 -0.250000
v -0.125000 0.562500 -0.250000
v -0.125000 0.625000 -0.250000
v -0.125000 0.687500 -0.250000
v -0.187500 0.750000 -0.250000
v -0.125000 0.750000 -0.250000
v -0.125000 0.750000 -0.187500
v -0.125000 0.000000 -0.125000
v -0.125000 0.812500 -0.187500
v -0.125000 0.812500 -0.125000
v -0.125000 0.000000 -0.062500
v -0.125000 0.812500 -0.062500
v -0.125000 0.000000 0.000000
v -0.125000 0.812500 0.000000
v -0.125000 0.000000 0.062500
v -0.125000 0.812500 0.062500
v -0.125000 0.000000 0.125000
v -0.125000 0.812500 0.125000
v -0.125000 0.000000 0.187500
v -0.125000 0.750000 0.187500
v -0.125000 0.812500 0.187500
v -0.125000 0.000000 0.250000
v -0.125000 0.625000 0.250000
v -0.125000 0.687500 0.250000
v -0.187500 0.750000 0.250000
v -0.125000 0.750000 0.250000
v -0.125000 0.000000 0.312500
v -0.125000 0.187500 0.312500
v -0.125000 0.250000 0.312500
v -0.125000 0.312500 0.312500
v -0.125000 0.375000 0.312500
v -0.125000 0.437500 0.312500
v -0.125000 0.500000 0.312500
v -0.187500 0.562500 0.312500
v -0.125000 0.562500 0.312500
v -0.187500 0.625000 0.312500
v -0.125000 0.625000 0.312500
v -0.187500 0.000000 0.375000
v -0.187500 0.062500 0.375000
v -0.125000 0.000000 0.375000
v -0.125000 0.062500 0.375000
v -0.187500 0.125000 0.375000
v -0.125000 0.125000 0.375000
v -0.187500 0.187500 0.375000
v -0.125000 0.187500 0.375000
v -0.062500 0.062500 -0.375000
v -0.062500 0.000000 -0.375000
v -0.062500 0.000000 -0.312500
v -0.062500 0.125000 -0.375000
v -0.062500 0.187500 -0.375000
v -0.125000 0.250000 -0.375000
v -0.062500 0.250000 -0.375000
v -0.125000 0.312500 -0.375000
v -0.062500 0.312500 -0.375000
v -0.125000 0.375000 -0.375000
v -0.062500 0.375000 -0.375000
v -0.062500 0.375000 -0.312500
v -0.062500 0.000000 -0.250000
v -0.062500 0.437500 -0.312500
v -0.062500 0.437500 -0.250000
v -0.125000 0.687500 -0.312500
v -0.125000 0.625000 -0.312500
v -0.062500 0.687500 -0.312500
v -0.062500 0.625000 -0.312500
v -0.062500 0.625000 -0.250000
v -0.062500 0.687500 -0.250000
v -0.062500 0.000000 -0.187500
v -0.062500 0.500000 -0.250000
v -0.062500 0.562500 -0.250000
v -0.062500 0.750000 -0.250000
v -0.125000 0.812500 -0.250000
v -0.062500 0.812500 -0.250000
v -0.062500 0.812500 -0.187500
v -0.062500 0.000000 -0.125000
v -0.062500 0.812500 -0.125000
v -0.062500 0.000000 -0.062500
v -0.062500 0.812500 -0.062500
v -0.062500 0.000000 0.000000
v -0.062500 0.812500 0.000000
v -0.062500 0.000000 0.062500
v -0.062500 0.812500 0.062500
v -0.062500 0.000000 0.125000
v -0.062500 0.812500 0.125000
v -0.062500 0.000000 0.187500
v -0.062500 0.812500 0.187500
v -0.062500 0.000000 0.250000
v -0.062500 0.687500 0.250000
v -0.062500 0.750000 0.250000
v -0.125000 0.812500 0.250000
v -0.062500 0.812500 0.250000
v -0.062500 0.000000 0.312500
v -0.062500 0.375000 0.312500
v -0.062500 0.437500 0.312500
v -0.062500 0.500000 0.312500
v -0.062500 0.562500 0.312500
v -0.062500 0.625000 0.312500
v -0.125000 0.687500 0.312500
v -0.062500 0.687500 0.312500
v -0.062500 0.000000 0.375000
v -0.062500 0.062500 0.375000
v -0.062500 0.125000 0.375000
v -0.062500 0.187500 0.375000
v -0.125000 0.250000 0.375000
v -0.062500 0.250000 0.375000
v -0.125000 0.312500 0.375000
v -0.062500 0.312500 0.375000
v -0.125000 0.375000 0.375000
v -0.062500 0.375000 0.375000
v 0.000000 0.062500 -0.375000
v 0.000000 0.000000 -0.375000
v 0.000000 0.000000 -0.312500
v 0.000000 0.125000 -0.375000
v 0.000000 0.187500 -0.375000
v 0.000000 0.250000 -0.375000
v 0.000000 0.312500 -0.375000
v 0.000000 0.375000 -0.375000
v -0.062500 0.437500 -0.375000
v 0.000000 0.437500 -0.375000
v 0.000000 0.437500 -0.312500
v 0.000000 0.000000 -0.250000
v -0.062500 0.500000 -0.312500
v 0.000000 0.500000 -0.312500
v -0.062500 0.562500 -0.312500
v 0.000000 0.562500 -0.312500
v 0.000000 0.625000 -0.312500
v 0.000000 0.687500 -0.312500
v 0.000000 0.687500 -0.250000
v 0.000000 0.000000 -0.187500
v 0.000000 0.750000 -0.250000
v 0.000000 0.812500 -0.250000
v 0.000000 0.812500 -0.187500
v 0.000000 0.000000 -0.125000
v 0.000000 0.812500 -0.125000
v 0.000000 0.000000 -0.062500
v 0.000000 0.812500 -0.062500
v 0.000000 0.000000 0.000000
v 0.000000 0.812500 0.000000
v 0.000000 0.000000 0.062500
v 0.000000 0.812500 0.062500
v 0.000000 0.000000 0.125000
v 0.000000 0.812500 0.125000
v 0.000000 0.000000 0.187500
v 0.000000 0.812500 0.187500
v 0.000000 0.000000 0.250000
v 0.000000 0.687500 0.250000
v 0.000000 0.750000 0.250000
v 0.000000 0.812500 0.250000
v 0.000000 0.000000 0.312500
v 0.000000 0.437500 0.312500
v 0.000000 0.500000 0.312500
v 0.000000 0.562500 0.312500
v 0.000000 0.625000 0.312500
v 0.000000 0.687500 0.312500
v 0.000000 0.000000 0.375000
v 0.000000 0.062500 0.375000
v 0.000000 0.125000 0.375000
v 0.000000 0.187500 0.375000
v 0.000000 0.250000 0.375000
v 0.000000 0.312500 0.375000
v 0.000000 0.375000 0.375000
v -0.062500 0.437500 0.375000
v 0.000000 0.437500 0.375000
v 0.062500 0.062500 -0.375000
v 0.062500 0.000000 -0.375000
v 0.062500 0.000000 -0.312500
v 0.062500 0.125000 -0.375000
v 0.062500 0.187500 -0.375000
v 0.062500 0.250000 -0.375000
v 0.062500 0.312500 -0.375000
v 0.062500 0.375000 -0.375000
v 0.062500 0.437500 -0.375000
v 0.062500 0.437500 -0.312500
v 0.062500 0.375000 -0.312500
v 0.062500 0.000000 -0.250000
v 0.062500 0.500000 -0.312500
v 0.062500 0.562500 -0.312500
v 0.062500 0.625000 -0.312500
v 0.062500 0.687500 -0.312500
v 0.062500 0.687500 -0.250000
v 0.062500 0.000000 -0.187500
v 0.062500 0.750000 -0.250000
v 0.062500 0.812500 -0.250000
v 0.062500 0.812500 -0.187500
v 0.062500 0.000000 -0.125000
v 0.062500 0.812500 -0.125000
v 0.062500 0.000000 -0.062500
v 0.062500 0.812500 -0.062500
v 0.062500 0.000000 0.000000
v 0.062500 0.812500 0.000000
v 0.062500 0.000000 0.062500
v 0.062500 0.812500 0.062500
v 0.062500 0.000000 0.125000
v 0.062500 0.812500 0.125000
v 0.062500 0.000000 0.187500
v 0.062500 0.812500 0.187500
v 0.062500 0.000000 0.250000
v 0.062500 0.687500 0.250000
v 0.062500 0.750000 0.250000
v 0.062500 0.812500 0.250000
v 0.062500 0.000000 0.312500
v 0.062500 0.437500 0.312500
v 0.062500 0.500000 0.312500
v 0.062500 0.562500 0.312500
v 0.062500 0.625000 0.312500
v 0.062500 0.687500 0.312500
v 0.062500 0.000000 0.375000
v 0.062500 0.062500 0.375000
v 0.062500 0.125000 0.375000
v 0.062500 0.187500 0.375000
v 0.062500 0.250000 0.375000
v 0.062500 0.312500 0.375000
v 0.062500 0.375000 0.375000
v 0.062500 0.437500 0.375000
v 0.062500 0.375000 0.312500
v 0.125000 0.062500 -0.375000
v 0.125000 0.000000 -0.375000
v 0.125000 0.000000 -0.312500
v 0.125000 0.125000 -0.375000
v 0.125000 0.187500 -0.375000
v 0.125000 0.250000 -0.375000
v 0.125000 0.250000 -0.312500
v 0.125000 0.187500 -0.312500
v 0.125000 0.312500 -0.375000
v 0.125000 0.312500 -0.312500
v 0.125000 0.375000 -0.375000
v 0.125000 0.375000 -0.312500
v 0.125000 0.000000 -0.250000
v 0.125000 0.437500 -0.312500
v 0.125000 0.500000 -0.312500
v 0.125000 0.562500 -0.312500
v 0.125000 0.625000 -0.312500
v 0.125000 0.687500 -0.312500
v 0.125000 0.687500 -0.250000
v 0.125000 0.625000 -0.250000
v 0.125000 0.000000 -0.187500
v 0.125000 0.750000 -0.250000
v 0.125000 0.812500 -0.250000
v 0.125000 0.812500 -0.187500
v 0.125000 0.750000 -0.187500
v 0.125000 0.000000 -0.125000
v 0.125000 0.812500 -0.125000
v 0.125000 0.000000 -0.062500
v 0.125000 0.812500 -0.062500
v 0.125000 0.000000 0.000000
v 0.125000 0.812500 0.000000
v 0.125000 0.000000 0.062500
v 0.125000 0.812500 0.062500
v 0.125000 0.000000 0.125000
v 0.125000 0.812500 0.125000
v 0.125000 0.000000 0.187500
v 0.125000 0.812500 0.187500
v 0.125000 0.000000 0.250000
v 0.125000 0.687500 0.250000
v 0.125000 0.750000 0.250000
v 0.125000 0.812500 0.250000
v 0.125000 0.750000 0.187500
v 0.125000 0.000000 0.312500
v 0.125000 0.375000 0.312500
v 0.125000 0.437500 0.312500
v 0.125000 0.500000 0.312500
v 0.125000 0.562500 0.312500
v 0.125000 0.625000 0.312500
v 0.125000 0.687500 0.312500
v 0.125000 0.625000 0.250000
v 0.125000 0.000000 0.375000
v 0.125000 0.062500 0.375000
v 0.125000 0.125000 0.375000
v 0.125000 0.187500 0.375000
v 0.125000 0.250000 0.312500
v 0.125000 0.250000 0.375000
v 0.125000 0.187500 0.312500
v 0.125000 0.312500 0.312500
v 0.125000 0.312500 0.375000
v 0.125000 0.375000 0.375000
v 0.187500 0.062500 -0.375000
v 0.187500 0.062500 -0.312500
v 0.187500 0.000000 -0.312500
v 0.187500 0.000000 -0.375000
v 0.187500 0.125000 -0.375000
v 0.187500 0.125000 -0.312500
v 0.187500 0.187500 -0.375000
v 0.187500 0.187500 -0.312500
v 0.187500 0.000000 -0.250000
v 0.187500 0.250000 -0.312500
v 0.187500 0.312500 -0.312500
v 0.187500 0.375000 -0.312500
v 0.187500 0.437500 -0.312500
v 0.187500 0.500000 -0.312500
v 0.187500 0.562500 -0.312500
v 0.187500 0.562500 -0.250000
v 0.187500 0.500000 -0.250000
v 0.187500 0.625000 -0.312500
v 0.187500 0.625000 -0.250000
v 0.187500 0.000000 -0.187500
v 0.187500 0.687500 -0.250000
v 0.187500 0.750000 -0.250000
v 0.187500 0.750000 -0.187500
v 0.187500 0.687500 -0.187500
v 0.187500 0.000000 -0.125000
v 0.187500 0.812500 -0.187500
v 0.187500 0.812500 -0.125000
v 0.187500 0.000000 -0.062500
v 0.187500 0.812500 -0.062500
v 0.187500 0.000000 0.000000
v 0.187500 0.812500 0.000000
v 0.187500 0.000000 0.062500
v 0.187500 0.812500 0.062500
v 0.187500 0.000000 0.125000
v 0.187500 0.812500 0.125000
v 0.187500 0.000000 0.187500
v 0.187500 0.750000 0.187500
v 0.187500 0.812500 0.187500
v 0.187500 0.000000 0.250000
v 0.187500 0.625000 0.250000
v 0.187500 0.687500 0.250000
v 0.187500 0.750000 0.250000
v 0.187500 0.687500 0.187500
v 0.187500 0.000000 0.312500
v 0.187500 0.187500 0.312500
v 0.187500 0.250000 0.312500
v 0.187500 0.312500 0.312500
v 0.187500 0.375000 0.312500
v 0.187500 0.437500 0.312500
v 0.187500 0.500000 0.312500
v 0.187500 0.562500 0.250000
v 0.187500 0.562500 0.312500
v 0.187500 0.500000 0.250000
v 0.187500 0.625000 0.312500
v 0.187500 0.062500 0.312500
v 0.187500 0.062500 0.375000
v 0.187500 0.000000 0.375000
v 0.187500 0.125000 0.312500
v 0.187500 0.125000 0.375000
v 0.187500 0.187500 0.375000
v 0.250000 0.062500 -0.312500
v 0.250000 0.000000 -0.312500
v 0.250000 0.000000 -0.250000
v 0.250000 0.125000 -0.312500
v 0.250000 0.187500 -0.312500
v 0.250000 0.250000 -0.312500
v 0.250000 0.250000 -0.250000
v 0.250000 0.187500 -0.250000
v 0.250000 0.312500 -0.312500
v 0.250000 0.312500 -0.250000
v 0.250000 0.375000 -0.312500
v 0.250000 0.375000 -0.250000
v 0.250000 0.437500 -0.312500
v 0.250000 0.437500 -0.250000
v 0.250000 0.500000 -0.312500
v 0.250000 0.500000 -0.250000
v 0.250000 0.000000 -0.187500
v 0.250000 0.562500 -0.250000
v 0.250000 0.625000 -0.250000
v 0.250000 0.625000 -0.187500
v 0.250000 0.562500 -0.187500
v 0.250000 0.687500 -0.250000
v 0.250000 0.687500 -0.187500
v 0.250000 0.000000 -0.125000
v 0.250000 0.750000 -0.187500
v 0.250000 0.750000 -0.125000
v 0.250000 0.687500 -0.125000
v 0.250000 0.812500 -0.187500
v 0.250000 0.812500 -0.125000
v 0.250000 0.000000 -0.062500
v 0.250000 0.812500 -0.062500
v 0.250000 0.750000 -0.062500
v 0.250000 0.000000 0.000000
v 0.250000 0.812500 0.000000
v 0.250000 0.000000 0.062500
v 0.250000 0.812500 0.062500
v 0.250000 0.000000 0.125000
v 0.250000 0.812500 0.125000
v 0.250000 0.750000 0.125000
v 0.250000 0.750000 0.062500
v 0.250000 0.000000 0.187500
v 0.250000 0.750000 0.187500
v 0.250000 0.687500 0.187500
v 0.250000 0.687500 0.125000
v 0.250000 0.812500 0.187500
v 0.250000 0.000000 0.250000
v 0.250000 0.500000 0.250000
v 0.250000 0.562500 0.250000
v 0.250000 0.625000 0.187500
v 0.250000 0.625000 0.250000
v 0.250000 0.562500 0.187500
v 0.250000 0.687500 0.250000
v 0.250000 0.000000 0.312500
v 0.250000 0.062500 0.312500
v 0.250000 0.125000 0.312500
v 0.250000 0.187500 0.312500
v 0.250000 0.250000 0.250000
v 0.250000 0.250000 0.312500
v 0.250000 0.187500 0.250000
v 0.250000 0.312500 0.250000
v 0.250000 0.312500 0.312500
v 0.250000 0.375000 0.250000
v 0.250000 0.375000 0.312500
v 0.250000 0.437500 0.250000
v 0.250000 0.437500 0.312500
v 0.250000 0.500000 0.312500
v 0.312500 0.062500 -0.312500
v 0.312500 0.062500 -0.250000
v 0.312500 0.000000 -0.250000
v 0.312500 0.000000 -0.312500
v 0.312500 0.125000 -0.312500
v 0.312500 0.125000 -0.250000
v 0.312500 0.187500 -0.312500
v 0.312500 0.187500 -0.250000
v 0.312500 0.000000 -0.187500
v 0.312500 0.250000 -0.250000
v 0.312500 0.312500 -0.250000
v 0.312500 0.312500 -0.187500
v 0.312500 0.250000 -0.187500
v 0.312500 0.375000 -0.250000
v 0.312500 0.375000 -0.187500
v 0.312500 0.437500 -0.250000
v 0.312500 0.437500 -0.187500
v 0.312500 0.500000 -0.250000
v 0.312500 0.500000 -0.187500
v 0.312500 0.562500 -0.250000
v 0.312500 0.562500 -0.187500
v 0.312500 0.000000 -0.125000
v 0.312500 0.562500 -0.125000
v 0.312500 0.500000 -0.125000
v 0.312500 0.625000 -0.187500
v 0.312500 0.625000 -0.125000
v 0.312500 0.687500 -0.187500
v 0.312500 0.687500 -0.125000
v 0.312500 0.000000 -0.062500
v 0.312500 0.687500 -0.062500
v 0.312500 0.625000 -0.062500
v 0.312500 0.750000 -0.125000
v 0.312500 0.750000 -0.062500
v 0.312500 0.000000 0.000000
v 0.312500 0.687500 0.000000
v 0.312500 0.625000 0.000000
v 0.312500 0.750000 0.000000
v 0.312500 0.812500 -0.062500
v 0.312500 0.812500 0.000000
v 0.312500 0.000000 0.062500
v 0.312500 0.687500 0.062500
v 0.312500 0.625000 0.062500
v 0.312500 0.750000 0.062500
v 0.312500 0.812500 0.062500
v 0.312500 0.000000 0.125000
v 0.312500 0.687500 0.125000
v 0.312500 0.625000 0.125000
v 0.312500 0.750000 0.125000
v 0.312500 0.000000 0.187500
v 0.312500 0.562500 0.125000
v 0.312500 0.562500 0.187500
v 0.312500 0.500000 0.187500
v 0.312500 0.500000 0.125000
v 0.312500 0.625000 0.187500
v 0.312500 0.687500 0.187500
v 0.312500 0.000000 0.250000
v 0.312500 0.187500 0.250000
v 0.312500 0.250000 0.250000
v 0.312500 0.312500 0.187500
v 0.312500 0.312500 0.250000
v 0.312500 0.250000 0.187500
v 0.312500 0.375000 0.187500
v 0.312500 0.375000 0.250000
v 0.312500 0.437500 0.187500
v 0.312500 0.437500 0.250000
v 0.312500 0.500000 0.250000
v 0.312500 0.562500 0.250000
v 0.312500 0.062500 0.250000
v 0.312500 0.062500 0.312500
v 0.312500 0.000000 0.312500
v 0.312500 0.125000 0.250000
v 0.312500 0.125000 0.312500
v 0.312500 0.187500 0.312500
v 0.375000 0.062500 -0.250000
v 0.375000 0.062500 -0.187500
v 0.375000 0.000000 -0.187500
v 0.375000 0.000000 -0.250000
v 0.375000 0.125000 -0.250000
v 0.375000 0.125000 -0.187500
v 0.375000 0.187500 -0.250000
v 0.375000 0.187500 -0.187500
v 0.375000 0.250000 -0.250000
v 0.375000 0.250000 -0.187500
v 0.375000 0.062500 -0.125000
v 0.375000 0.000000 -0.125000
v 0.375000 0.125000 -0.125000
v 0.375000 0.187500 -0.125000
v 0.375000 0.250000 -0.125000
v 0.375000 0.312500 -0.187500
v 0.375000 0.312500 -0.125000
v 0.375000 0.375000 -0.187500
v 0.375000 0.375000 -0.125000
v 0.375000 0.437500 -0.187500
v 0.375000 0.437500 -0.125000
v 0.375000 0.500000 -0.187500
v 0.375000 0.500000 -0.125000
v 0.375000 0.000000 -0.062500
v 0.375000 0.375000 -0.062500
v 0.375000 0.312500 -0.062500
v 0.375000 0.437500 -0.062500
v 0.375000 0.500000 -0.062500
v 0.375000 0.562500 -0.125000
v 0.375000 0.562500 -0.062500
v 0.375000 0.625000 -0.125000
v 0.375000 0.625000 -0.062500
v 0.375000 0.000000 0.000000
v 0.375000 0.437500 0.000000
v 0.375000 0.375000 0.000000
v 0.375000 0.500000 0.000000
v 0.375000 0.562500 0.000000
v 0.375000 0.625000 0.000000
v 0.375000 0.000000 0.062500
v 0.375000 0.437500 0.062500
v 0.375000 0.375000 0.062500
v 0.375000 0.500000 0.062500
v 0.375000 0.562500 0.062500
v 0.375000 0.625000 0.062500
v 0.375000 0.000000 0.125000
v 0.375000 0.375000 0.125000
v 0.375000 0.312500 0.125000
v 0.375000 0.312500 0.062500
v 0.375000 0.437500 0.125000
v 0.375000 0.500000 0.125000
v 0.375000 0.562500 0.125000
v 0.375000 0.625000 0.125000
v 0.375000 0.062500 0.125000
v 0.375000 0.062500 0.187500
v 0.375000 0.000000 0.187500
v 0.375000 0.125000 0.125000
v 0.375000 0.125000 0.187500
v 0.375000 0.187500 0.125000
v 0.375000 0.187500 0.187500
v 0.375000 0.250000 0.125000
v 0.375000 0.250000 0.187500
v 0.375000 0.312500 0.187500
v 0.375000 0.375000 0.187500
v 0.375000 0.437500 0.187500
v 0.375000 0.500000 0.187500
v 0.375000 0.062500 0.250000
v 0.375000 0.000000 0.250000
v 0.375000 0.125000 0.250000
v 0.375000 0.187500 0.250000
v 0.375000 0.250000 0.250000
v 0.437500 0.062500 -0.125000
v 0.437500 0.062500 -0.062500
v 0.437500 0.000000 -0.062500
v 0.437500 0.000000 -0.125000
v 0.437500 0.125000 -0.125000
v 0.437500 0.125000 -0.062500
v 0.437500 0.187500 -0.125000
v 0.437500 0.187500 -0.062500
v 0.437500 0.250000 -0.125000
v 0.437500 0.250000 -0.062500
v 0.437500 0.312500 -0.125000
v 0.437500 0.312500 -0.062500
v 0.437500 0.062500 0.000000
v 0.437500 0.000000 0.000000
v 0.437500 0.125000 0.000000
v 0.437500 0.187500 0.000000
v 0.437500 0.250000 0.000000
v 0.437500 0.312500 0.000000
v 0.437500 0.375000 -0.062500
v 0.437500 0.375000 0.000000
v 0.437500 0.062500 0.062500
v 0.437500 0.000000 0.062500
v 0.437500 0.125000 0.062500
v 0.437500 0.187500 0.062500
v 0.437500 0.250000 0.062500
v 0.437500 0.312500 0.062500
v 0.437500 0.375000 0.062500
v 0.437500 0.062500 0.125000
v 0.437500 0.000000 0.125000
v 0.437500 0.125000 0.125000
v 0.437500 0.187500 0.125000
v 0.437500 0.250000 0.125000
v 0.437500 0.312500 0.125000
vt 0.03125000 0.96875000
vt 0.09375000 0.96875000
vt 0.15625000 0.96875000
vt 0.21875000 0.96875000
vt 0.28125000 0.96875000
vt 0.34375000 0.96875000
vt 0.40625000 0.96875000
vt 0.46875000 0.96875000
vt 0.53125000 0.96875000
vt 0.59375000 0.96875000
vt 0.65625000 0.96875000
vt 0.71875000 0.96875000
vt 0.78125000 0.96875000
vt 0.84375000 0.96875000
vt 0.90625000 0.96875000
vt 0.96875000 0.96875000
vt 0.03125000 0.90625000
vt 0.09375000 0.90625000
vt 0.15625000 0.90625000
vt 0.21875000 0.90625000
vt 0.28125000 0.90625000
vt 0.34375000 0.90625000
vt 0.40625000 0.90625000
vt 0.46875000 0.90625000
vt 0.53125000 0.90625000
vt 0.59375000 0.90625000
vt 0.65625000 0.90625000
vt 0.71875000 0.90625000
vt 0.78125000 0.90625000
vt 0.84375000 0.90625000
vt 0.90625000 0.90625000
vt 0.96875000 0.90625000
vt 0.03125000 0.84375000
vt 0.09375000 0.84375000
vt 0.15625000 0.84375000
vt 0.21875000 0.84375000
vt 0.28125000 0.84375000
vt 0.34375000 0.84375000
vt 0.40625000 0.84375000
vt 0.46875000 0.84375000
vt 0.53125000 0.84375000
vt 0.59375000 0.84375000
vt 0.65625000 0.84375000
vt 0.71875000 0.84375000
vt 0.78125000 0.84375000
vt 0.84375000 0.84375000
vt 0.90625000 0.84375000
vt 0.96875000 0.84375000
vt 0.03125000 0.78125000
vt 0.09375000 0.78125000
vt 0.15625000 0.78125000
vt 0.21875000 0.78125000
vt 0.28125000 0.78125000
vt 0.34375000 0.78125000
vt 0.40625000 0.78125000
vt 0.46875000 0.78125000
vt 0.53125000 0.78125000
vt 0.59375000 0.78125000
vt 0.65625000 0.78125000
vt 0.71875000 0.78125000
vt 0.78125000 0.78125000
vt 0.84375000 0.78125000
vt 0.90625000 0.78125000
vt 0.96875000 0.78125000
vt 0.03125000 0.71875000
vt 0.09375000 0.71875000
vt 0.15625000 0.71875000
vt 0.21875000 0.71875000
vt 0.28125000 0.71875000
vt 0.34375000 0.71875000
vt 0.40625000 0.71875000
vt 0.46875000 0.71875000
vt 0.53125000 0.71875000
vt 0.59375000 0.71875000
vt 0.65625000 0.71875000
vt 0.71875000 0.71875000
vt 0.78125000 0.71875000
vt 0.84375000 0.71875000
vt 0.90625000 0.71875000
vt 0.96875000 0.71875000
vt 0.03125000 0.65625000
vt 0.09375000 0.65625000
vt 0.15625000 0.65625000
vt 0.21875000 0.65625000
vt 0.28125000 0.65625000
vt 0.34375000 0.65625000
vt 0.40625000 0.65625000
vt 0.46875000 0.65625000
vt 0.53125000 0.65625000
vt 0.59375000 0.65625000
vt 0.65625000 0.65625000
vt 0.71875000 0.65625000
vt 0.78125000 0.65625000
vt 0.84375000 0.65625000
vt 0.90625000 0.65625000
vt 0.96875000 0.65625000
vt 0.03125000 0.59375000
vt 0.09375000 0.59375000
vt 0.15625000 0.59375000
vt 0.21875000 0.59375000
vt 0.28125000 0.59375000
vt 0.34375000 0.59375000
vt 0.40625000 0.59375000
vt 0.46875000 0.59375000
vt 0.53125000 0.59375000
vt 0.59375000 0.59375000
vt 0.65625000 0.59375000
vt 0.71875000 0.59375000
vt 0.78125000 0.59375000
vt 0.84375000 0.59375000
vt 0.90625000 0.59375000
vt 0.96875000 0.59375000
vt 0.03125000 0.53125000
vt 0.09375000 0.53125000
vt 0.15625000 0.53125000
vt 0.21875000 0.53125000
vt 0.28125000 0.53125000
vt 0.34375000 0.53125000
vt 0.40625000 0.53125000
vt 0.46875000 0.53125000
vt 0.53125000 0.53125000
vt 0.59375000 0.53125000
vt 0.65625000 0.53125000
vt 0.71875000 0.53125000
vt 0.78125000 0.53125000
vt 0.84375000 0.53125000
vt 0.90625000 0.53125000
vt 0.96875000 0.53125000
vt 0.03125000 0.46875000
vt 0.09375000 0.46875000
vt 0.15625000 0.46875000
vt 0.21875000 0.46875000
vt 0.28125000 0.46875000
vt 0.34375000 0.46875000
vt 0.40625000 0.46875000
vt 0.46875000 0.46875000
vt 0.53125000 0.46875000
vt 0.59375000 0.46875000
vt 0.65625000 0.46875000
vt 0.71875000 0.46875000
vt 0.78125000 0.46875000
vt 0.84375000 0.46875000
vt 0.90625000 0.46875000
vt 0.96875000 0.46875000
vt 0.03125000 0.40625000
vt 0.09375000 0.40625000
vt 0.15625000 0.40625000
vt 0.21875000 0.40625000
vt 0.28125000 0.40625000
vt 0.34375000 0.40625000
vt 0.40625000 0.40625000
vt 0.46875000 0.40625000
vt 0.53125000 0.40625000
vt 0.59375000 0.40625000
vt 0.65625000 0.40625000
vt 0.71875000 0.40625000
vt 0.78125000 0.40625000
vt 0.84375000 0.40625000
vt 0.90625000 0.40625000
vt 0.96875000 0.40625000
vt 0.03125000 0.34375000
vt 0.09375000 0.34375000
vt 0.15625000 0.34375000
vt 0.21875000 0.34375000
vt 0.28125000 0.34375000
vt 0.34375000 0.34375000
vt 0.40625000 0.34375000
vt 0.46875000 0.34375000
vt 0.53125000 0.34375000
vt 0.59375000 0.34375000
vt 0.65625000 0.34375000
vt 0.71875000 0.34375000
vt 0.78125000 0.34375000
vt 0.84375000 0.34375000
vt 0.90625000 0.34375000
vt 0.96875000 0.34375000
vt 0.03125000 0.28125000
vt 0.09375000 0.28125000
vt 0.15625000 0.28125000
vt 0.21875000 0.28125000
vt 0.28125000 0.28125000
vt 0.34375000 0.28125000
vt 0.40625000 0.28125000
vt 0.46875000 0.28125000
vt 0.53125000 0.28125000
vt 0.59375000 0.28125000
vt 0.65625000 0.28125000
vt 0.71875000 0.28125000
vt 0.78125000 0.28125000
vt 0.84375000 0.28125000
vt 0.90625000 0.28125000
vt 0.96875000 0.28125000
vt 0.03125000 0.21875000
vt 0.09375000 0.21875000
vt 0.15625000 0.21875000
vt 0.21875000 0.21875000
vt 0.28125000 0.21875000
vt 0.34375000 0.21875000
vt 0.40625000 0.21875000
vt 0.46875000 0.21875000
vt 0.53125000 0.21875000
vt 0.59375000 0.21875000
vt 0.65625000 0.21875000
vt 0.71875000 0.21875000
vt 0.78125000 0.21875000
vt 0.84375000 0.21875000
vt 0.90625000 0.21875000
vt 0.96875000 0.21875000
vt 0.03125000 0.15625000
vt 0.09375000 0.15625000
vt 0.15625000 0.15625000
vt 0.21875000 0.15625000
vt 0.28125000 0.15625000
vt 0.34375000 0.15625000
vt 0.40625000 0.15625000
vt 0.46875000 0.15625000
vt 0.53125000 0.15625000
vt 0.59375000 0.15625000
vt 0.65625000 0.15625000
vt 0.71875000 0.15625000
vt 0.78125000 0.15625000
vt 0.84375000 0.15625000
vt 0.90625000 0.15625000
vt 0.96875000 0.15625000
vt 0.03125000 0.09375000
vt 0.09375000 0.09375000
vt 0.15625000 0.09375000
vt 0.21875000 0.09375000
vt 0.28125000 0.09375000
vt 0.34375000 0.09375000
vt 0.40625000 0.09375000
vt 0.46875000 0.09375000
vt 0.53125000 0.09375000
vt 0.59375000 0.09375000
vt 0.65625000 0.09375000
vt 0.71875000 0.09375000
vt 0.78125000 0.09375000
vt 0.84375000 0.09375000
vt 0.90625000 0.09375000
vt 0.96875000 0.09375000
vt 0.03125000 0.03125000
vt 0.09375000 0.03125000
vt 0.15625000 0.03125000
vt 0.21875000 0.03125000
vt 0.28125000 0.03125000
vt 0.34375000 0.03125000
vt 0.40625000 0.03125000
vt 0.46875000 0.03125000
vt 0.53125000 0.03125000
vt 0.59375000 0.03125000
vt 0.65625000 0.03125000
vt 0.71875000 0.03125000
vt 0.78125000 0.03125000
vt 0.84375000 0.03125000
vt 0.90625000 0.03125000
vt 0.96875000 0.03125000
vn -1 0 0
vn 1 0 0
vn 0 0 -1
vn 0 0 1
vn 0 -1 0
vn 0 1 0
g palette
usemtl palette
f 1/11/1 2/11/1 3/11/1 4/11/1
f 3/11/3 5/11/3 6/11/3 4/11/3
f 6/11/5 7/11/5 1/11/5 4/11/5
f 2/11/1 8/11/1 9/11/1 3/11/1
f 9/11/3 10/11/3 5/11/3 3/11/3
f 8/11/1 11/11/1 12/11/1 9/11/1
f 12/11/3 13/11/3 10/11/3 9/11/3
f 11/11/1 14/11/1 15/11/1 12/11/1
f 15/11/3 16/11/3 13/11/3 12/11/3
f 14/11/1 17/11/1 18/11/1 15/11/1
f 18/11/3 19/11/3 16/11/3 15/11/3
f 17/11/6 20/11/6 19/11/6 18/11/6
f 21/11/1 22/11/1 2/11/1 1/11/1
f 7/11/5 23/11/5 21/11/5 1/11/5
f 22/11/1 24/11/1 8/11/1 2/11/1
f 24/11/1 25/11/1 11/11/1 8/11/1
f 25/11/1 26/11/1 14/11/1 11/11/1
f 26/11/1 27/11/1 17/11/1 14/11/1
f 27/11/1 28/11/1 29/11/1 17/11/1
f 29/11/3 30/11/3 20/11/3 17/11/3
f 28/11/6 31/11/6 30/11/6 29/11/6
f 32/11/1 33/11/1 22/11/1 21/11/1
f 23/11/5 34/11/5 32/11/5 21/11/5
f 33/11/1 35/11/1 24/11/1 22/11/1
f 35/11/1 36/11/1 25/11/1 24/11/1
f 36/11/1 37/11/1 26/11/1 25/11/1
f 37/11/1 38/11/1 27/11/1 26/11/1
f 38/11/1 39/11/1 28/11/1 27/11/1
f 40/11/4 41/11/4 39/11/4 38/11/4
f 39/11/6 41/11/6 31/11/6 28/11/6
f 42/11/1 43/11/1 33/11/1 32/11/1
f 44/11/4 45/11/4 43/11/4 42/11/4
f 34/11/5 44/11/5 42/11/5 32/11/5
f 43/11/1 46/11/1 35/11/1 33/11/1
f 45/11/4 47/11/4 46/11/4 43/11/4
f 46/11/1 48/11/1 36/11/1 35/11/1
f 47/11/4 49/11/4 48/11/4 46/11/4
f 48/11/1 50/11/1 37/11/1 36/11/1
f 49/11/4 51/11/4 50/11/4 48/11/4
f 50/11/1 52/11/1 38/11/1 37/11/1
f 51/11/4 53/11/4 52/11/4 50/11/4
f 52/11/6 53/11/6 40/11/6 38/11/6
f 54/11/1 55/11/1 56/11/1 57/11/1
f 56/11/3 58/11/3 59/11/3 57/11/3
f 59/11/5 60/11/5 54/11/5 57/11/5
f 55/11/1 61/11/1 62/11/1 56/11/1
f 62/11/3 63/11/3 58/11/3 56/11/3
f 61/11/1 64/11/1 65/11/1 62/11/1
f 65/11/3 66/11/3 63/11/3 62/11/3
f 64/11/1 67/11/1 68/11/1 65/11/1
f 68/11/3 69/11/3 66/11/3 65/11/3
f 67/11/6 70/11/6 69/11/6 68/11/6
f 6/11/1 5/11/1 55/11/1 54/11/1
f 60/11/5 71/11/5 6/11/5 54/11/5
f 5/11/1 10/11/1 61/11/1 55/11/1
f 10/11/1 13/11/1 64/11/1 61/11/1
f 13/11/1 16/11/1 67/11/1 64/11/1
f 16/11/1 19/11/1 72/11/1 67/11/1
f 72/11/3 73/11/3 70/11/3 67/11/3
f 19/11/1 74/11/1 75/11/1 72/11/1
f 75/11/3 76/11/3 73/11/3 72/11/3
f 74/11/1 77/11/1 78/11/1 75/11/1
f 78/11/3 79/11/3 76/11/3 75/11/3
f 77/11/1 80/11/1 81/11/1 78/11/1
f 81/11/3 82/11/3 79/11/3 78/11/3
f 80/11/6 83/11/6 82/11/6 81/11/6
f 71/11/5 84/11/5 7/11/5 6/11/5
f 20/11/1 30/11/1 74/11/1 19/11/1
f 30/11/1 85/11/1 77/11/1 74/11/1
f 85/11/1 86/11/1 80/11/1 77/11/1
f 86/11/1 87/11/1 88/11/1 80/11/1
f 88/11/3 89/11/3 83/11/3 80/11/3
f 87/11/1 90/11/1 91/11/1 88/11/1
f 91/11/3 92/11/3 89/11/3 88/11/3
f 90/11/6 93/11/6 92/11/6 91/11/6
f 84/11/5 94/11/5 23/11/5 7/11/5
f 31/11/1 95/11/1 85/11/1 30/11/1
f 95/11/1 96/11/1 86/11/1 85/11/1
f 96/11/1 97/11/1 87/11/1 86/11/1
f 97/11/1 98/11/1 90/11/1 87/11/1
f 98/11/6 99/11/6 93/11/6 90/11/6
f 94/11/5 100/11/5 34/11/5 23/11/5
f 41/11/1 101/11/1 95/11/1 31/11/1
f 101/5/1 102/5/1 96/5/1 95/5/1
f 102/11/1 103/11/1 97/11/1 96/11/1
f 103/11/1 104/11/1 98/11/1 97/11/1
f 104/11/6 105/11/6 99/11/6 98/11/6
f 100/11/5 106/11/5 44/11/5 34/11/5
f 53/11/1 107/11/1 41/11/1 40/11/1
f 107/11/1 108/11/1 101/11/1 41/11/1
f 108/11/1 109/11/1 102/11/1 101/11/1
f 109/11/1 110/11/1 103/11/1 102/11/1
f 111/11/4 112/11/4 110/11/4 109/11/4
f 110/11/1 113/11/1 104/11/1 103/11/1
f 112/11/4 114/11/4 113/11/4 110/11/4
f 113/11/6 114/11/6 105/11/6 104/11/6
f 115/11/1 116/11/1 45/11/1 44/11/1
f 106/11/5 117/11/5 115/11/5 44/11/5
f 116/11/1 118/11/1 47/11/1 45/11/1
f 118/11/1 119/11/1 49/11/1 47/11/1
f 119/11/1 120/11/1 51/11/1 49/11/1
f 120/11/1 121/11/1 53/11/1 51/11/1
f 122/11/4 123/11/4 121/11/4 120/11/4
f 121/11/1 124/11/1 107/11/1 53/11/1
f 123/11/4 125/11/4 124/11/4 121/11/4
f 124/11/1 126/11/1 108/11/1 107/11/1
f 125/11/4 127/11/4 126/11/4 124/11/4
f 126/11/1 128/11/1 109/11/1 108/11/1
f 127/11/4 129/11/4 128/11/4 126/11/4
f 128/11/6 129/11/6 111/11/6 109/11/6
f 130/11/1 131/11/1 116/11/1 115/11/1
f 132/11/4 133/11/4 131/11/4 130/11/4
f 117/11/5 132/11/5 130/11/5 115/11/5
f 131/11/1 134/11/1 118/11/1 116/11/1
f 133/11/4 135/11/4 134/11/4 131/11/4
f 134/11/1 136/11/1 119/11/1 118/11/1
f 135/11/4 137/11/4 136/11/4 134/11/4
f 136/11/1 138/11/1 120/11/1 119/11/1
f 137/11/4 139/11/4 138/11/4 136/11/4
f 138/11/6 139/11/6 122/11/6 120/11/6
f 59/11/1 58/11/1 140/11/1 141/11/1
f 140/11/3 142/11/3 143/11/3 141/11/3
f 143/11/5 144/11/5 59/11/5 141/11/5
f 58/11/1 63/11/1 145/11/1 140/11/1
f 145/11/3 146/11/3 142/11/3 140/11/3
f 63/11/1 66/11/1 147/11/1 145/11/1
f 147/11/3 148/11/3 146/11/3 145/11/3
f 66/11/6 149/11/6 148/11/6 147/11/6
f 144/11/5 150/11/5 60/11/5 59/11/5
f 69/11/3 151/11/3 149/11/3 66/11/3
f 70/11/1 73/11/1 152/11/1 69/11/1
f 152/11/3 153/11/3 151/11/3 69/11/3
f 73/11/1 76/11/1 154/11/1 152/11/1
f 154/11/3 155/11/3 153/11/3 152/11/3
f 76/11/1 79/11/1 156/11/1 154/11/1
f 156/11/3 157/11/3 155/11/3 154/11/3
f 79/11/1 82/11/1 158/11/1 156/11/1
f 158/11/3 159/11/3 157/11/3 156/11/3
f 82/11/1 160/11/1 161/11/1 158/11/1
f 161/11/3 162/11/3 159/11/3 158/11/3
f 160/11/6 163/11/6 162/11/6 161/11/6
f 150/11/5 164/11/5 71/11/5 60/11/5
f 83/11/1 89/11/1 160/11/1 82/11/1
f 89/11/1 92/11/1 165/11/1 160/11/1
f 165/11/3 166/11/3 163/11/3 160/11/3
f 92/11/1 167/11/1 168/11/1 165/11/1
f 168/11/3 169/11/3 166/11/3 165/11/3
f 167/11/6 170/11/6 169/11/6 168/11/6
f 164/11/5 171/11/5 84/11/5 71/11/5
f 93/11/1 172/11/1 167/11/1 92/11/1
f 172/11/1 173/11/1 174/11/1 167/11/1
f 174/11/3 175/11/3 170/11/3 167/11/3
f 173/11/6 176/11/6 175/11/6 174/11/6
f 171/11/5 177/11/5 94/11/5 84/11/5
f 99/11/1 178/11/1 172/11/1 93/11/1
f 178/11/1 179/11/1 173/11/1 172/11/1
f 179/11/1 180/11/1 181/11/1 173/11/1
f 181/11/3 182/11/3 176/11/3 173/11/3
f 180/11/6 183/11/6 182/11/6 181/11/6
f 177/11/5 184/11/5 100/11/5 94/11/5
f 105/11/1 185/11/1 178/11/1 99/11/1
f 185/11/1 186/11/1 179/11/1 178/11/1
f 186/11/1 187/11/1 180/11/1 179/11/1
f 188/11/4 189/11/4 187/11/4 186/11/4
f 187/11/6 189/11/6 183/11/6 180/11/6
f 184/11/5 190/11/5 106/11/5 100/11/5
f 114/11/1 191/11/1 185/11/1 105/11/1
f 191/11/1 192/11/1 186/11/1 185/11/1
f 193/11/4 194/11/4 192/11/4 191/11/4
f 192/11/6 194/11/6 188/11/6 186/11/6
f 190/11/5 195/11/5 117/11/5 106/11/5
f 129/11/1 196/11/1 112/11/1 111/11/1
f 196/11/1 197/11/1 114/11/1 112/11/1
f 198/11/4 199/11/4 197/11/4 196/11/4
f 197/11/1 200/11/1 191/11/1 114/11/1
f 199/11/4 201/11/4 200/11/4 197/11/4
f 200/11/6 201/11/6 193/11/6 191/11/6
f 195/11/5 202/11/5 132/11/5 117/11/5
f 203/11/4 204/11/4 139/11/4 137/11/4
f 139/11/1 205/11/1 123/11/1 122/11/1
f 204/11/4 206/11/4 205/11/4 139/11/4
f 205/11/1 207/11/1 125/11/1 123/11/1
f 206/11/4 208/11/4 207/11/4 205/11/4
f 207/11/1 209/11/1 127/11/1 125/11/1
f 208/11/4 210/11/4 209/11/4 207/11/4
f 209/11/1 211/11/1 129/11/1 127/11/1
f 210/11/4 212/11/4 211/11/4 209/11/4
f 211/11/1 213/11/1 196/11/1 129/11/1
f 212/11/4 214/11/4 213/11/4 211/11/4
f 213/11/6 214/11/6 198/11/6 196/11/6
f 215/11/1 216/11/1 133/11/1 132/11/1
f 217/11/4 218/11/4 216/11/4 215/11/4
f 202/11/5 217/11/5 215/11/5 132/11/5
f 216/11/1 219/11/1 135/11/1 133/11/1
f 218/11/4 220/11/4 219/11/4 216/11/4
f 219/11/1 221/11/1 137/11/1 135/11/1
f 220/11/4 222/11/4 221/11/4 219/11/4
f 221/11/6 222/11/6 203/11/6 137/11/6
f 142/4/3 223/4/3 224/4/3 143/4/3
f 224/4/5 225/4/5 144/4/5 143/4/5
f 146/4/3 226/4/3 223/4/3 142/4/3
f 148/4/3 227/4/3 226/4/3 146/4/3
f 149/4/1 151/4/1 228/4/1 148/4/1
f 228/4/3 229/4/3 227/4/3 148/4/3
f 151/4/1 153/4/1 230/4/1 228/4/1
f 230/4/3 231/4/3 229/4/3 228/4/3
f 153/4/1 155/4/1 232/4/1 230/4/1
f 232/4/3 233/4/3 231/4/3 230/4/3
f 155/4/1 157/4/1 234/4/1 232/4/1
f 234/4/3 235/4/3 233/4/3 232/4/3
f 157/4/1 159/4/1 236/4/1 234/4/1
f 237/4/2 238/4/2 239/4/2 235/4/2
f 236/4/3 237/4/3 235/4/3 234/4/3
f 159/4/6 238/4/6 237/4/6 236/4/6
f 225/4/5 240/4/5 150/4/5 144/4/5
f 162/4/3 241/4/3 238/4/3 159/4/3
f 163/4/1 166/4/1 242/4/1 162/4/1
f 242/4/3 243/4/3 241/4/3 162/4/3
f 166/4/1 169/4/1 244/4/1 242/4/1
f 244/4/3 245/4/3 243/4/3 242/4/3
f 169/4/6 246/4/6 245/4/6 244/4/6
f 240/4/5 247/4/5 164/4/5 150/4/5
f 170/4/1 175/4/1 248/4/1 169/4/1
f 248/4/3 249/4/3 246/4/3 169/4/3
f 175/5/1 250/5/1 251/5/1 248/5/1
f 251/5/3 252/5/3 249/5/3 248/5/3
f 250/5/6 253/5/6 252/5/6 251/5/6
f 247/4/5 254/4/5 171/4/5 164/4/5
f 176/5/1 182/5/1 250/5/1 175/5/1
f 182/5/6 255/5/6 253/5/6 250/5/6
f 254/4/5 256/4/5 177/4/5 171/4/5
f 183/5/6 257/5/6 255/5/6 182/5/6
f 256/4/5 258/4/5 184/4/5 177/4/5
f 189/5/6 259/5/6 257/5/6 183/5/6
f 258/4/5 260/4/5 190/4/5 184/4/5
f 194/5/1 261/5/1 189/5/1 188/5/1
f 261/5/6 262/5/6 259/5/6 189/5/6
f 260/4/5 263/4/5 195/4/5 190/4/5
f 201/4/1 264/4/1 194/4/1 193/4/1
f 265/4/4 266/4/4 264/4/4 201/4/4
f 264/5/1 267/5/1 261/5/1 194/5/1
f 266/5/4 268/5/4 267/5/4 264/5/4
f 267/5/6 268/5/6 262/5/6 261/5/6
f 263/4/5 269/4/5 202/4/5 195/4/5
f 270/4/4 271/4/4 214/4/4 212/4/4
f 214/4/1 272/4/1 199/4/1 198/4/1
f 271/4/4 273/4/4 272/4/4 214/4/4
f 272/4/1 274/4/1 201/4/1 199/4/1
f 273/4/4 275/4/4 274/4/4 272/4/4
f 274/4/6 275/4/6 265/4/6 201/4/6
f 276/4/4 277/4/4 218/4/4 217/4/4
f 269/4/5 276/4/5 217/4/5 202/4/5
f 277/4/4 278/4/4 220/4/4 218/4/4
f 278/4/4 279/4/4 222/4/4 220/4/4
f 222/4/1 280/4/1 204/4/1 203/4/1
f 279/4/4 281/4/4 280/4/4 222/4/4
f 280/4/1 282/4/1 206/4/1 204/4/1
f 281/4/4 283/4/4 282/4/4 280/4/4
f 282/4/1 284/4/1 208/4/1 206/4/1
f 283/4/4 285/4/4 284/4/4 282/4/4
f 284/4/1 286/4/1 210/4/1 208/4/1
f 285/4/4 287/4/4 286/4/4 284/4/4
f 286/4/1 288/4/1 212/4/1 210/4/1
f 287/4/4 289/4/4 288/4/4 286/4/4
f 288/4/6 289/4/6 270/4/6 212/4/6
f 224/4/1 223/4/1 290/4/1 291/4/1
f 290/4/3 292/4/3 293/4/3 291/4/3
f 293/4/5 294/4/5 224/4/5 291/4/5
f 223/4/1 226/4/1 295/4/1 290/4/1
f 295/4/3 296/4/3 292/4/3 290/4/3
f 226/4/1 227/4/1 297/4/1 295/4/1
f 297/4/3 298/4/3 296/4/3 295/4/3
f 227/4/6 299/4/6 298/4/6 297/4/6
f 294/4/5 300/4/5 225/4/5 224/4/5
f 229/4/3 301/4/3 299/4/3 227/4/3
f 231/4/3 302/4/3 301/4/3 229/4/3
f 233/4/3 303/4/3 302/4/3 231/4/3
f 235/4/3 304/4/3 303/4/3 233/4/3
f 239/4/6 305/4/6 304/4/6 235/4/6
f 300/4/5 306/4/5 240/4/5 225/4/5
f 238/4/3 307/4/3 305/4/3 239/4/3
f 241/4/3 308/4/3 307/4/3 238/4/3
f 243/4/3 309/4/3 308/4/3 241/4/3
f 245/4/3 310/4/3 309/4/3 243/4/3
f 246/4/1 249/4/1 311/4/1 245/4/1
f 311/4/3 312/4/3 310/4/3 245/4/3
f 249/4/6 313/4/6 312/4/6 311/4/6
f 306/11/5 314/11/5 247/11/5 240/11/5
f 252/5/3 315/5/3 313/5/3 249/5/3
f 253/5/6 316/5/6 315/5/6 252/5/6
f 314/4/5 317/4/5 254/4/5 247/4/5
f 255/5/6 318/5/6 316/5/6 253/5/6
f 317/4/5 319/4/5 256/4/5 254/4/5
f 257/5/6 320/5/6 318/5/6 255/5/6
f 319/4/5 321/4/5 258/4/5 256/4/5
f 259/5/6 322/5/6 320/5/6 257/5/6
f 321/4/5 323/4/5 260/4/5 258/4/5
f 262/5/6 324/5/6 322/5/6 259/5/6
f 323/4/5 325/4/5 263/4/5 260/4/5
f 326/5/4 327/5/4 268/5/4 266/5/4
f 268/5/6 327/5/6 324/5/6 262/5/6
f 325/4/5 328/4/5 269/4/5 263/4/5
f 329/4/4 330/4/4 275/4/4 273/4/4
f 275/4/1 331/4/1 266/4/1 265/4/1
f 330/4/4 332/4/4 331/4/4 275/4/4
f 331/4/6 332/4/6 326/4/6 266/4/6
f 328/4/5 333/4/5 276/4/5 269/4/5
f 334/4/4 335/4/4 281/4/4 279/4/4
f 335/4/4 336/4/4 283/4/4 281/4/4
f 336/4/4 337/4/4 285/4/4 283/4/4
f 337/4/4 338/4/4 287/4/4 285/4/4
f 338/4/4 339/4/4 289/4/4 287/4/4
f 289/4/1 340/4/1 271/4/1 270/4/1
f 339/4/4 341/4/4 340/4/4 289/4/4
f 340/4/1 342/4/1 273/4/1 271/4/1
f 341/4/4 343/4/4 342/4/4 340/4/4
f 342/4/6 343/4/6 329/4/6 273/4/6
f 344/4/1 345/4/1 277/4/1 276/4/1
f 346/4/4 347/4/4 345/4/4 344/4/4
f 333/4/5 346/4/5 344/4/5 276/4/5
f 345/4/1 348/4/1 278/4/1 277/4/1
f 347/4/4 349/4/4 348/4/4 345/4/4
f 348/4/1 350/4/1 279/4/1 278/4/1
f 349/4/4 351/4/4 350/4/4 348/4/4
f 350/4/6 351/4/6 334/4/6 279/4/6
f 292/4/3 352/4/3 353/4/3 293/4/3
f 353/4/5 354/4/5 294/4/5 293/4/5
f 296/4/3 355/4/3 352/4/3 292/4/3
f 298/4/3 356/4/3 355/4/3 296/4/3
f 299/4/1 301/4/1 357/4/1 298/4/1
f 357/4/3 358/4/3 356/4/3 298/4/3
f 301/4/1 302/4/1 359/4/1 357/4/1
f 359/4/3 360/4/3 358/4/3 357/4/3
f 302/4/1 303/4/1 361/4/1 359/4/1
f 361/4/3 362/4/3 360/4/3 359/4/3
f 303/4/6 363/4/6 362/4/6 361/4/6
f 354/4/5 364/4/5 300/4/5 294/4/5
f 304/4/3 365/4/3 363/4/3 303/4/3
f 305/4/6 366/4/6 365/4/6 304/4/6
f 309/4/1 310/4/1 367/4/1 368/4/1
f 367/4/3 369/4/3 370/4/3 368/4/3
f 370/4/5 371/4/5 309/4/5 368/4/5
f 310/4/6 372/4/6 369/4/6 367/4/6
f 364/4/5 373/4/5 306/4/5 300/4/5
f 307/4/3 374/4/3 366/4/3 305/4/3
f 308/4/3 375/4/3 374/4/3 307/4/3
f 309/4/3 371/4/3 375/4/3 308/4/3
f 312/4/3 376/4/3 372/4/3 310/4/3
f 313/5/1 315/5/1 377/5/1 312/5/1
f 377/5/3 378/5/3 376/5/3 312/5/3
f 315/5/6 379/5/6 378/5/6 377/5/6
f 373/4/5 380/4/5 314/4/5 306/4/5
f 316/5/6 381/5/6 379/5/6 315/5/6
f 380/4/5 382/4/5 317/4/5 314/4/5
f 318/5/6 383/5/6 381/5/6 316/5/6
f 382/4/5 384/4/5 319/4/5 317/4/5
f 320/5/6 385/5/6 383/5/6 318/5/6
f 384/4/5 386/4/5 321/4/5 319/4/5
f 322/5/6 387/5/6 385/5/6 320/5/6
f 386/4/5 388/4/5 323/4/5 321/4/5
f 324/5/6 389/5/6 387/5/6 322/5/6
f 388/4/5 390/4/5 325/4/5 323/4/5
f 327/5/6 391/5/6 389/5/6 324/5/6
f 390/4/5 392/4/5 328/4/5 325/4/5
f 393/4/4 394/4/4 332/4/4 330/4/4
f 332/5/1 395/5/1 327/5/1 326/5/1
f 394/5/4 396/5/4 395/5/4 332/5/4
f 395/5/6 396/5/6 391/5/6 327/5/6
f 392/4/5 397/4/5 333/4/5 328/4/5
f 398/4/4 399/4/4 338/4/4 337/4/4
f 399/4/4 400/4/4 339/4/4 338/4/4
f 400/4/4 401/4/4 341/4/4 339/4/4
f 401/4/4 402/4/4 343/4/4 341/4/4
f 343/4/1 403/4/1 330/4/1 329/4/1
f 402/4/4 404/4/4 403/4/4 343/4/4
f 403/4/6 404/4/6 393/4/6 330/4/6
f 405/4/4 406/4/4 347/4/4 346/4/4
f 397/4/5 405/4/5 346/4/5 333/4/5
f 406/4/4 407/4/4 349/4/4 347/4/4
f 407/11/4 408/11/4 351/11/4 349/11/4
f 351/4/1 409/4/1 335/4/1 334/4/1
f 408/4/4 410/4/4 409/4/4 351/4/4
f 409/4/1 411/4/1 336/4/1 335/4/1
f 410/4/4 412/4/4 411/4/4 409/4/4
f 411/4/1 413/4/1 337/4/1 336/4/1
f 412/4/4 414/4/4 413/4/4 411/4/4
f 413/4/6 414/4/6 398/4/6 337/4/6
f 352/4/3 415/4/3 416/4/3 353/4/3
f 416/4/5 417/4/5 354/4/5 353/4/5
f 355/4/3 418/4/3 415/4/3 352/4/3
f 356/4/3 419/4/3 418/4/3 355/4/3
f 358/4/3 420/4/3 419/4/3 356/4/3
f 360/4/3 421/4/3 420/4/3 358/4/3
f 362/4/3 422/4/3 421/4/3 360/4/3
f 363/4/1 365/4/1 423/4/1 362/4/1
f 423/4/3 424/4/3 422/4/3 362/4/3
f 365/4/6 425/4/6 424/4/6 423/4/6
f 417/4/5 426/4/5 364/4/5 354/4/5
f 366/4/1 374/4/1 427/4/1 365/4/1
f 427/4/3 428/4/3 425/4/3 365/4/3
f 374/4/1 375/4/1 429/4/1 427/4/1
f 429/4/3 430/4/3 428/4/3 427/4/3
f 375/4/1 371/4/1 370/4/1 429/4/1
f 370/4/3 431/4/3 430/4/3 429/4/3
f 369/4/3 432/4/3 431/4/3 370/4/3
f 372/4/6 433/4/6 432/4/6 369/4/6
f 426/4/5 434/4/5 373/4/5 364/4/5
f 376/4/3 435/4/3 433/4/3 372/4/3
f 378/5/3 436/5/3 435/5/3 376/5/3
f 379/5/6 437/5/6 436/5/6 378/5/6
f 434/4/5 438/4/5 380/4/5 373/4/5
f 381/5/6 439/5/6 437/5/6 379/5/6
f 438/4/5 440/4/5 382/4/5 380/4/5
f 383/5/6 441/5/6 439/5/6 381/5/6
f 440/4/5 442/4/5 384/4/5 382/4/5
f 385/5/6 443/5/6 441/5/6 383/5/6
f 442/4/5 444/4/5 386/4/5 384/4/5
f 387/5/6 445/5/6 443/5/6 385/5/6
f 444/4/5 446/4/5 388/4/5 386/4/5
f 389/5/6 447/5/6 445/5/6 387/5/6
f 446/4/5 448/4/5 390/4/5 388/4/5
f 391/5/6 449/5/6 447/5/6 389/5/6
f 448/4/5 450/4/5 392/4/5 390/4/5
f 451/4/4 452/4/4 394/4/4 393/4/4
f 452/5/4 453/5/4 396/5/4 394/5/4
f 396/5/6 453/5/6 449/5/6 391/5/6
f 450/4/5 454/4/5 397/4/5 392/4/5
f 455/4/4 456/4/4 400/4/4 399/4/4
f 456/4/4 457/4/4 401/4/4 400/4/4
f 457/4/4 458/4/4 402/4/4 401/4/4
f 458/4/4 459/4/4 404/4/4 402/4/4
f 404/4/6 459/4/6 451/4/6 393/4/6
f 460/4/4 461/4/4 406/4/4 405/4/4
f 454/4/5 460/4/5 405/4/5 397/4/5
f 461/4/4 462/4/4 407/4/4 406/4/4
f 462/4/4 463/4/4 408/4/4 407/4/4
f 463/4/4 464/4/4 410/4/4 408/4/4
f 464/4/4 465/4/4 412/4/4 410/4/4
f 465/4/4 466/4/4 414/4/4 412/4/4
f 414/4/1 467/4/1 399/4/1 398/4/1
f 466/4/4 468/4/4 467/4/4 414/4/4
f 467/4/6 468/4/6 455/4/6 399/4/6
f 415/4/3 469/4/3 470/4/3 416/4/3
f 470/4/5 471/4/5 417/4/5 416/4/5
f 418/4/3 472/4/3 469/4/3 415/4/3
f 419/4/3 473/4/3 472/4/3 418/4/3
f 420/4/3 474/4/3 473/4/3 419/4/3
f 421/4/3 475/4/3 474/4/3 420/4/3
f 422/4/3 476/4/3 475/4/3 421/4/3
f 477/4/2 478/4/2 479/4/2 476/4/2
f 424/4/3 477/4/3 476/4/3 422/4/3
f 425/4/6 478/4/6 477/4/6 424/4/6
f 471/4/5 480/4/5 426/4/5 417/4/5
f 428/4/3 481/4/3 478/4/3 425/4/3
f 430/4/3 482/4/3 481/4/3 428/4/3
f 431/4/3 483/4/3 482/4/3 430/4/3
f 432/4/3 484/4/3 483/4/3 431/4/3
f 433/4/6 485/4/6 484/4/6 432/4/6
f 480/4/5 486/4/5 434/4/5 426/4/5
f 435/4/3 487/4/3 485/4/3 433/4/3
f 436/5/3 488/5/3 487/5/3 435/5/3
f 437/5/6 489/5/6 488/5/6 436/5/6
f 486/4/5 490/4/5 438/4/5 434/4/5
f 439/5/6 491/5/6 489/5/6 437/5/6
f 490/4/5 492/4/5 440/4/5 438/4/5
f 441/5/6 493/5/6 491/5/6 439/5/6
f 492/4/5 494/4/5 442/4/5 440/4/5
f 443/5/6 495/5/6 493/5/6 441/5/6
f 494/4/5 496/4/5 444/4/5 442/4/5
f 445/5/6 497/5/6 495/5/6 443/5/6
f 496/4/5 498/4/5 446/4/5 444/4/5
f 447/5/6 499/5/6 497/5/6 445/5/6
f 498/4/5 500/4/5 448/4/5 446/4/5
f 449/11/6 501/11/6 499/11/6 447/11/6
f 500/4/5 502/4/5 450/4/5 448/4/5
f 503/4/4 504/4/4 452/4/4 451/4/4
f 504/5/4 505/5/4 453/5/4 452/5/4
f 453/5/6 505/5/6 501/5/6 449/5/6
f 502/4/5 506/4/5 454/4/5 450/4/5
f 507/4/4 508/4/4 456/4/4 455/4/4
f 508/11/4 509/11/4 457/11/4 456/11/4
f 509/4/4 510/4/4 458/4/4 457/4/4
f 510/4/4 511/4/4 459/4/4 458/4/4
f 459/4/6 511/4/6 503/4/6 451/4/6
f 512/4/4 513/4/4 461/4/4 460/4/4
f 506/4/5 512/4/5 460/4/5 454/4/5
f 513/11/4 514/11/4 462/11/4 461/11/4
f 514/4/4 515/4/4 463/4/4 462/4/4
f 515/4/4 516/4/4 464/4/4 463/4/4
f 516/4/4 517/4/4 465/4/4 464/4/4
f 517/4/4 518/4/4 466/4/4 465/4/4
f 507/4/2 519/4/2 518/4/2 520/4/2
f 518/4/4 519/4/4 468/4/4 466/4/4
f 468/4/6 519/4/6 507/4/6 455/4/6
f 469/4/3 521/4/3 522/4/3 470/4/3
f 522/4/5 523/4/5 471/4/5 470/4/5
f 472/4/3 524/4/3 521/4/3 469/4/3
f 473/4/3 525/4/3 524/4/3 472/4/3
f 526/4/2 527/4/2 528/4/2 525/4/2
f 474/4/3 526/4/3 525/4/3 473/4/3
f 529/4/2 530/4/2 527/4/2 526/4/2
f 475/4/3 529/4/3 526/4/3 474/4/3
f 531/4/2 532/4/2 530/4/2 529/4/2
f 476/4/3 531/4/3 529/4/3 475/4/3
f 479/4/6 532/4/6 531/4/6 476/4/6
f 523/4/5 533/4/5 480/4/5 471/4/5
f 478/4/3 534/4/3 532/4/3 479/4/3
f 481/4/3 535/4/3 534/4/3 478/4/3
f 482/4/3 536/4/3 535/4/3 481/4/3
f 483/4/3 537/4/3 536/4/3 482/4/3
f 538/4/2 539/4/2 540/4/2 537/4/2
f 484/4/3 538/4/3 537/4/3 483/4/3
f 485/4/6 539/4/6 538/4/6 484/4/6
f 533/4/5 541/4/5 486/4/5 480/4/5
f 487/4/3 542/4/3 539/4/3 485/4/3
f 543/5/2 544/5/2 545/5/2 542/5/2
f 488/5/3 543/5/3 542/5/3 487/5/3
f 489/5/6 544/5/6 543/5/6 488/5/6
f 541/4/5 546/4/5 490/4/5 486/4/5
f 491/5/6 547/5/6 544/5/6 489/5/6
f 546/4/5 548/4/5 492/4/5 490/4/5
f 493/5/6 549/5/6 547/5/6 491/5/6
f 548/4/5 550/4/5 494/4/5 492/4/5
f 495/5/6 551/5/6 549/5/6 493/5/6
f 550/4/5 552/4/5 496/4/5 494/4/5
f 497/5/6 553/5/6 551/5/6 495/5/6
f 552/4/5 554/4/5 498/4/5 496/4/5
f 499/5/6 555/5/6 553/5/6 497/5/6
f 554/4/5 556/4/5 500/4/5 498/4/5
f 501/5/6 557/5/6 555/5/6 499/5/6
f 556/11/5 558/11/5 502/11/5 500/11/5
f 559/4/4 560/4/4 504/4/4 503/4/4
f 557/5/2 561/5/2 560/5/2 562/5/2
f 560/5/4 561/5/4 505/5/4 504/5/4
f 505/5/6 561/5/6 557/5/6 501/5/6
f 558/4/5 563/4/5 506/4/5 502/4/5
f 564/4/4 565/4/4 507/4/4 520/4/4
f 565/4/4 566/4/4 508/4/4 507/4/4
f 566/4/4 567/4/4 509/4/4 508/4/4
f 567/4/4 568/4/4 510/4/4 509/4/4
f 559/4/2 569/4/2 568/4/2 570/4/2
f 568/4/4 569/4/4 511/4/4 510/4/4
f 511/4/6 569/4/6 559/4/6 503/4/6
f 571/4/4 572/4/4 513/4/4 512/4/4
f 563/4/5 571/4/5 512/4/5 506/4/5
f 572/4/4 573/4/4 514/4/4 513/4/4
f 573/4/4 574/4/4 515/4/4 514/4/4
f 575/4/2 576/4/2 574/4/2 577/4/2
f 574/4/4 576/4/4 516/4/4 515/4/4
f 578/4/2 579/4/2 576/4/2 575/4/2
f 576/4/4 579/4/4 517/4/4 516/4/4
f 564/4/2 580/4/2 579/4/2 578/4/2
f 579/4/4 580/4/4 518/4/4 517/4/4
f 518/4/6 580/4/6 564/4/6 520/4/6
f 581/4/2 582/4/2 583/4/2 584/4/2
f 521/4/3 581/4/3 584/4/3 522/4/3
f 584/4/5 583/4/5 523/4/5 522/4/5
f 585/4/2 586/4/2 582/4/2 581/4/2
f 524/4/3 585/4/3 581/4/3 521/4/3
f 587/4/2 588/4/2 586/4/2 585/4/2
f 525/4/3 587/4/3 585/4/3 524/4/3
f 528/4/6 588/4/6 587/4/6 525/4/6
f 583/4/5 589/4/5 533/4/5 523/4/5
f 527/4/3 590/4/3 588/4/3 528/4/3
f 530/4/3 591/4/3 590/4/3 527/4/3
f 532/4/3 592/4/3 591/4/3 530/4/3
f 534/4/3 593/4/3 592/4/3 532/4/3
f 535/4/3 594/4/3 593/4/3 534/4/3
f 595/4/2 596/4/2 597/4/2 594/4/2
f 536/4/3 595/4/3 594/4/3 535/4/3
f 598/4/2 599/4/2 596/4/2 595/4/2
f 537/4/3 598/4/3 595/4/3 536/4/3
f 540/4/6 599/4/6 598/4/6 537/4/6
f 589/4/5 600/4/5 541/4/5 533/4/5
f 539/4/3 601/4/3 599/4/3 540/4/3
f 602/4/2 603/4/2 604/4/2 601/4/2
f 542/4/3 602/4/3 601/4/3 539/4/3
f 545/4/6 603/4/6 602/4/6 542/4/6
f 600/4/5 605/4/5 546/4/5 541/4/5
f 544/5/3 606/5/3 603/5/3 545/5/3
f 547/5/6 607/5/6 606/5/6 544/5/6
f 605/4/5 608/4/5 548/4/5 546/4/5
f 549/11/6 609/11/6 607/11/6 547/11/6
f 608/4/5 610/4/5 550/4/5 548/4/5
f 551/5/6 611/5/6 609/5/6 549/5/6
f 610/4/5 612/4/5 552/4/5 550/4/5
f 553/5/6 613/5/6 611/5/6 551/5/6
f 612/4/5 614/4/5 554/4/5 552/4/5
f 555/5/6 615/5/6 613/5/6 553/5/6
f 614/4/5 616/4/5 556/4/5 554/4/5
f 617/5/4 618/5/4 557/5/4 562/5/4
f 557/5/6 618/5/6 615/5/6 555/5/6
f 616/4/5 619/4/5 558/4/5 556/4/5
f 620/4/4 621/4/4 559/4/4 570/4/4
f 617/4/2 622/4/2 621/4/2 623/4/2
f 621/4/4 622/4/4 560/4/4 559/4/4
f 560/4/6 622/4/6 617/4/6 562/4/6
f 619/4/5 624/4/5 563/4/5 558/4/5
f 625/4/4 626/4/4 575/4/4 577/4/4
f 626/4/4 627/4/4 578/4/4 575/4/4
f 627/4/4 628/4/4 564/4/4 578/4/4
f 628/4/4 629/4/4 565/4/4 564/4/4
f 629/4/4 630/4/4 566/4/4 565/4/4
f 631/4/2 632/4/2 630/4/2 633/4/2
f 630/4/4 632/4/4 567/4/4 566/4/4
f 620/4/2 634/4/2 632/4/2 631/4/2
f 632/4/4 634/4/4 568/4/4 567/4/4
f 568/4/6 634/4/6 620/4/6 570/4/6
f 635/4/2 636/4/2 637/4/2 624/4/2
f 637/4/4 636/4/4 572/4/4 571/4/4
f 624/4/5 637/4/5 571/4/5 563/4/5
f 638/4/2 639/4/2 636/4/2 635/4/2
f 636/4/4 639/4/4 573/4/4 572/4/4
f 625/4/2 640/4/2 639/4/2 638/4/2
f 639/4/4 640/4/4 574/4/4 573/4/4
f 574/4/6 640/4/6 625/4/6 577/4/6
f 582/4/3 641/4/3 642/4/3 583/4/3
f 642/4/5 643/4/5 589/4/5 583/4/5
f 586/4/3 644/4/3 641/4/3 582/4/3
f 588/4/3 645/4/3 644/4/3 586/4/3
f 646/4/2 647/4/2 648/4/2 645/4/2
f 590/4/3 646/4/3 645/4/3 588/4/3
f 649/4/2 650/4/2 647/4/2 646/4/2
f 591/4/3 649/4/3 646/4/3 590/4/3
f 651/4/2 652/4/2 650/4/2 649/4/2
f 592/4/3 651/4/3 649/4/3 591/4/3
f 653/4/2 654/4/2 652/4/2 651/4/2
f 593/4/3 653/4/3 651/4/3 592/4/3
f 655/4/2 656/4/2 654/4/2 653/4/2
f 594/4/3 655/4/3 653/4/3 593/4/3
f 597/4/6 656/4/6 655/4/6 594/4/6
f 643/4/5 657/4/5 600/4/5 589/4/5
f 596/4/3 658/4/3 656/4/3 597/4/3
f 659/4/2 660/4/2 661/4/2 658/4/2
f 599/4/3 659/4/3 658/4/3 596/4/3
f 662/4/2 663/4/2 660/4/2 659/4/2
f 601/4/3 662/4/3 659/4/3 599/4/3
f 604/4/6 663/4/6 662/4/6 601/4/6
f 657/4/5 664/4/5 605/4/5 600/4/5
f 665/4/2 666/4/2 667/4/2 663/4/2
f 603/4/3 665/4/3 663/4/3 604/4/3
f 668/5/2 669/5/2 666/5/2 665/5/2
f 606/5/3 668/5/3 665/5/3 603/5/3
f 607/5/6 669/5/6 668/5/6 606/5/6
f 664/4/5 670/4/5 608/4/5 605/4/5
f 669/5/2 671/5/2 672/5/2 666/5/2
f 609/5/6 671/5/6 669/5/6 607/5/6
f 670/4/5 673/4/5 610/4/5 608/4/5
f 611/5/6 674/5/6 671/5/6 609/5/6
f 673/4/5 675/4/5 612/4/5 610/4/5
f 613/5/6 676/5/6 674/5/6 611/5/6
f 675/4/5 677/4/5 614/4/5 612/4/5
f 676/5/2 678/5/2 679/5/2 680/5/2
f 615/5/6 678/5/6 676/5/6 613/5/6
f 677/4/5 681/4/5 616/4/5 614/4/5
f 679/4/2 682/4/2 683/4/2 684/4/2
f 683/4/4 682/4/4 617/4/4 623/4/4
f 678/5/2 685/5/2 682/5/2 679/5/2
f 682/5/4 685/5/4 618/5/4 617/5/4
f 618/5/6 685/5/6 678/5/6 615/5/6
f 681/4/5 686/4/5 619/4/5 616/4/5
f 687/4/4 688/4/4 631/4/4 633/4/4
f 689/5/2 690/5/2 688/5/2 691/5/2
f 688/5/4 690/5/4 620/5/4 631/5/4
f 683/4/2 692/4/2 690/4/2 689/4/2
f 690/4/4 692/4/4 621/4/4 620/4/4
f 621/4/6 692/4/6 683/4/6 623/4/6
f 693/11/4 694/11/4 635/11/4 624/11/4
f 686/11/5 693/11/5 624/11/5 619/11/5
f 694/4/4 695/4/4 638/4/4 635/4/4
f 695/4/4 696/4/4 625/4/4 638/4/4
f 697/4/2 698/4/2 696/4/2 699/4/2
f 696/4/4 698/4/4 626/4/4 625/4/4
f 700/4/2 701/4/2 698/4/2 697/4/2
f 698/4/4 701/4/4 627/4/4 626/4/4
f 702/4/2 703/4/2 701/4/2 700/4/2
f 701/4/4 703/4/4 628/4/4 627/4/4
f 704/4/2 705/4/2 703/4/2 702/4/2
f 703/4/4 705/4/4 629/4/4 628/4/4
f 687/4/2 706/4/2 705/4/2 704/4/2
f 705/4/4 706/4/4 630/4/4 629/4/4
f 630/4/6 706/4/6 687/4/6 633/4/6
f 707/4/2 708/4/2 709/4/2 710/4/2
f 641/4/3 707/4/3 710/4/3 642/4/3
f 710/4/5 709/4/5 643/4/5 642/4/5
f 711/4/2 712/4/2 708/4/2 707/4/2
f 644/4/3 711/4/3 707/4/3 641/4/3
f 713/4/2 714/4/2 712/4/2 711/4/2
f 645/4/3 713/4/3 711/4/3 644/4/3
f 648/4/6 714/4/6 713/4/6 645/4/6
f 709/11/5 715/11/5 657/11/5 643/11/5
f 647/4/3 716/4/3 714/4/3 648/4/3
f 717/4/2 718/4/2 719/4/2 716/4/2
f 650/4/3 717/4/3 716/4/3 647/4/3
f 720/4/2 721/4/2 718/4/2 717/4/2
f 652/4/3 720/4/3 717/4/3 650/4/3
f 722/4/2 723/4/2 721/4/2 720/4/2
f 654/4/3 722/4/3 720/4/3 652/4/3
f 724/4/2 725/4/2 723/4/2 722/4/2
f 656/4/3 724/4/3 722/4/3 654/4/3
f 726/4/2 727/4/2 725/4/2 724/4/2
f 658/4/3 726/4/3 724/4/3 656/4/3
f 661/4/6 727/4/6 726/4/6 658/4/6
f 715/4/5 728/4/5 664/4/5 657/4/5
f 727/4/2 729/4/2 730/4/2 725/4/2
f 731/11/2 732/11/2 729/11/2 727/11/2
f 660/11/3 731/11/3 727/11/3 661/11/3
f 733/4/2 734/4/2 732/4/2 731/4/2
f 663/4/3 733/4/3 731/4/3 660/4/3
f 667/4/6 734/4/6 733/4/6 663/4/6
f 728/4/5 735/4/5 670/4/5 664/4/5
f 734/4/2 736/4/2 737/4/2 732/4/2
f 738/4/2 739/4/2 736/4/2 734/4/2
f 666/4/3 738/4/3 734/4/3 667/4/3
f 672/4/6 739/4/6 738/4/6 666/4/6
f 735/4/5 740/4/5 673/4/5 670/4/5
f 736/4/2 741/4/2 742/4/2 737/4/2
f 739/4/2 743/4/2 741/4/2 736/4/2
f 744/5/2 745/5/2 743/5/2 739/5/2
f 671/5/3 744/5/3 739/5/3 672/5/3
f 674/5/6 745/5/6 744/5/6 671/5/6
f 740/4/5 746/4/5 675/4/5 673/4/5
f 741/4/2 747/4/2 748/4/2 742/4/2
f 743/4/2 749/4/2 747/4/2 741/4/2
f 745/5/2 750/5/2 749/5/2 743/5/2
f 749/5/4 750/5/4 676/5/4 680/5/4
f 676/5/6 750/5/6 745/5/6 674/5/6
f 746/4/5 751/4/5 677/4/5 675/4/5
f 747/4/2 752/4/2 753/4/2 748/4/2
f 749/4/2 754/4/2 752/4/2 747/4/2
f 752/4/4 754/4/4 679/4/4 684/4/4
f 679/4/6 754/4/6 749/4/6 680/4/6
f 751/4/5 755/4/5 681/4/5 677/4/5
f 756/4/2 757/4/2 758/4/2 759/4/2
f 753/4/2 760/4/2 757/4/2 756/4/2
f 757/4/4 760/4/4 689/4/4 691/4/4
f 752/4/2 761/4/2 760/4/2 753/4/2
f 760/4/4 761/4/4 683/4/4 689/4/4
f 683/4/6 761/4/6 752/4/6 684/4/6
f 755/4/5 762/4/5 686/4/5 681/4/5
f 763/4/4 764/4/4 697/4/4 699/4/4
f 765/4/2 766/4/2 764/4/2 767/4/2
f 764/4/4 766/4/4 700/4/4 697/4/4
f 768/4/2 769/4/2 766/4/2 765/4/2
f 766/4/4 769/4/4 702/4/4 700/4/4
f 770/4/2 771/4/2 769/4/2 768/4/2
f 769/4/4 771/4/4 704/4/4 702/4/4
f 758/4/2 772/4/2 771/4/2 770/4/2
f 771/4/4 772/4/4 687/4/4 704/4/4
f 757/4/2 773/4/2 772/4/2 758/4/2
f 772/4/4 773/4/4 688/4/4 687/4/4
f 688/4/6 773/4/6 757/4/6 691/4/6
f 774/4/2 775/4/2 776/4/2 762/4/2
f 776/4/4 775/4/4 694/4/4 693/4/4
f 762/4/5 776/4/5 693/4/5 686/4/5
f 777/4/2 778/4/2 775/4/2 774/4/2
f 775/4/4 778/4/4 695/4/4 694/4/4
f 763/4/2 779/4/2 778/4/2 777/4/2
f 778/4/4 779/4/4 696/4/4 695/4/4
f 696/4/6 779/4/6 763/4/6 699/4/6
f 780/4/2 781/4/2 782/4/2 783/4/2
f 708/4/3 780/4/3 783/4/3 709/4/3
f 783/4/5 782/4/5 715/4/5 709/4/5
f 784/4/2 785/4/2 781/4/2 780/4/2
f 712/4/3 784/4/3 780/4/3 708/4/3
f 786/4/2 787/4/2 785/4/2 784/4/2
f 714/4/3 786/4/3 784/4/3 712/4/3
f 788/4/2 789/4/2 787/4/2 786/4/2
f 716/4/3 788/4/3 786/4/3 714/4/3
f 719/4/6 789/4/6 788/4/6 716/4/6
f 781/4/2 790/4/2 791/4/2 782/4/2
f 782/4/5 791/4/5 728/4/5 715/4/5
f 785/4/2 792/4/2 790/4/2 781/4/2
f 787/4/2 793/4/2 792/4/2 785/4/2
f 789/4/2 794/4/2 793/4/2 787/4/2
f 795/4/2 796/4/2 794/4/2 789/4/2
f 718/4/3 795/4/3 789/4/3 719/4/3
f 797/4/2 798/4/2 796/4/2 795/4/2
f 721/4/3 797/4/3 795/4/3 718/4/3
f 799/4/2 800/4/2 798/4/2 797/4/2
f 723/4/3 799/4/3 797/4/3 721/4/3
f 801/4/2 802/4/2 800/4/2 799/4/2
f 725/4/3 801/4/3 799/4/3 723/4/3
f 730/4/6 802/4/6 801/4/6 725/4/6
f 791/4/5 803/4/5 735/4/5 728/4/5
f 798/4/2 804/4/2 805/4/2 796/4/2
f 800/4/2 806/4/2 804/4/2 798/4/2
f 802/4/2 807/4/2 806/4/2 800/4/2
f 808/4/2 809/4/2 807/4/2 802/4/2
f 729/4/3 808/4/3 802/4/3 730/4/3
f 810/4/2 811/4/2 809/4/2 808/4/2
f 732/4/3 810/4/3 808/4/3 729/4/3
f 737/4/6 811/4/6 810/4/6 732/4/6
f 803/4/5 812/4/5 740/4/5 735/4/5
f 806/4/2 813/4/2 814/4/2 804/4/2
f 807/4/2 815/4/2 813/4/2 806/4/2
f 809/4/2 816/4/2 815/4/2 807/4/2
f 811/4/2 817/4/2 816/4/2 809/4/2
f 742/4/6 817/4/6 811/4/6 737/4/6
f 812/4/5 818/4/5 746/4/5 740/4/5
f 813/4/2 819/4/2 820/4/2 814/4/2
f 815/4/2 821/4/2 819/4/2 813/4/2
f 816/4/2 822/4/2 821/4/2 815/4/2
f 817/4/2 823/4/2 822/4/2 816/4/2
f 748/4/6 823/4/6 817/4/6 742/4/6
f 818/4/5 824/4/5 751/4/5 746/4/5
f 820/4/2 825/4/2 826/4/2 827/4/2
f 819/4/2 828/4/2 825/4/2 820/4/2
f 821/4/2 829/4/2 828/4/2 819/4/2
f 822/4/2 830/4/2 829/4/2 821/4/2
f 829/4/4 830/4/4 756/4/4 759/4/4
f 823/4/2 831/4/2 830/4/2 822/4/2
f 830/4/4 831/4/4 753/4/4 756/4/4
f 753/4/6 831/4/6 823/4/6 748/4/6
f 832/4/2 833/4/2 834/4/2 824/4/2
f 824/4/5 834/4/5 755/4/5 751/4/5
f 835/4/2 836/4/2 833/4/2 832/4/2
f 837/4/2 838/4/2 836/4/2 835/4/2
f 839/4/2 840/4/2 838/4/2 837/4/2
f 826/4/2 841/4/2 840/4/2 839/4/2
f 840/4/4 841/4/4 765/4/4 767/4/4
f 825/4/2 842/4/2 841/4/2 826/4/2
f 841/4/4 842/4/4 768/4/4 765/4/4
f 828/4/2 843/4/2 842/4/2 825/4/2
f 842/4/4 843/4/4 770/4/4 768/4/4
f 829/4/2 844/4/2 843/4/2 828/4/2
f 843/4/4 844/4/4 758/4/4 770/4/4
f 758/4/6 844/4/6 829/4/6 759/4/6
f 833/4/2 845/4/2 846/4/2 834/4/2
f 846/4/4 845/4/4 774/4/4 762/4/4
f 834/4/5 846/4/5 762/4/5 755/4/5
f 836/4/2 847/4/2 845/4/2 833/4/2
f 845/4/4 847/4/4 777/4/4 774/4/4
f 838/4/2 848/4/2 847/4/2 836/4/2
f 847/4/4 848/4/4 763/4/4 777/4/4
f 840/4/2 849/4/2 848/4/2 838/4/2
f 848/4/4 849/4/4 764/4/4 763/4/4
f 764/4/6 849/4/6 840/4/6 767/4/6
f 850/4/2 851/4/2 852/4/2 853/4/2
f 790/4/3 850/4/3 853/4/3 791/4/3
f 853/4/5 852/4/5 803/4/5 791/4/5
f 854/4/2 855/4/2 851/4/2 850/4/2
f 792/4/3 854/4/3 850/4/3 790/4/3
f 856/4/2 857/4/2 855/4/2 854/4/2
f 793/4/3 856/4/3 854/4/3 792/4/3
f 858/4/2 859/4/2 857/4/2 856/4/2
f 794/4/3 858/4/3 856/4/3 793/4/3
f 860/4/2 861/4/2 859/4/2 858/4/2
f 796/4/3 860/4/3 858/4/3 794/4/3
f 805/4/6 861/4/6 860/4/6 796/4/6
f 851/4/2 862/4/2 863/4/2 852/4/2
f 852/4/5 863/4/5 812/4/5 803/4/5
f 855/4/2 864/4/2 862/4/2 851/4/2
f 857/4/2 865/4/2 864/4/2 855/4/2
f 859/4/2 866/4/2 865/4/2 857/4/2
f 861/4/2 867/4/2 866/4/2 859/4/2
f 868/4/2 869/4/2 867/4/2 861/4/2
f 804/4/3 868/4/3 861/4/3 805/4/3
f 814/4/6 869/4/6 868/4/6 804/4/6
f 862/4/2 870/4/2 871/4/2 863/4/2
f 863/4/5 871/4/5 818/4/5 812/4/5
f 864/4/2 872/4/2 870/4/2 862/4/2
f 865/4/2 873/4/2 872/4/2 864/4/2
f 866/4/2 874/4/2 873/4/2 865/4/2
f 867/4/2 875/4/2 874/4/2 866/4/2
f 869/4/2 876/4/2 875/4/2 867/4/2
f 875/4/4 876/4/4 820/4/4 827/4/4
f 820/4/6 876/4/6 869/4/6 814/4/6
f 870/4/2 877/4/2 878/4/2 871/4/2
f 878/4/4 877/4/4 832/4/4 824/4/4
f 871/4/5 878/4/5 824/4/5 818/4/5
f 872/4/2 879/4/2 877/4/2 870/4/2
f 877/4/4 879/4/4 835/4/4 832/4/4
f 873/4/2 880/4/2 879/4/2 872/4/2
f 879/4/4 880/4/4 837/4/4 835/4/4
f 874/4/2 881/4/2 880/4/2 873/4/2
f 880/4/4 881/4/4 839/4/4 837/4/4
f 875/4/2 882/4/2 881/4/2 874/4/2
f 881/4/4 882/4/4 826/4/4 839/4/4
f 826/4/6 882/4/6 875/4/6 827/4/6
