# Dungine brazier; 1 voxel = 1/16 unit; Y-up floor-center origin
mtllib brazier.mtl
o brazier
s off
v -0.312500 0.562500 0.062500
v -0.312500 0.625000 0.062500
v -0.312500 0.625000 0.000000
v -0.312500 0.562500 0.000000
v -0.250000 0.625000 0.000000
v -0.250000 0.562500 0.000000
v -0.250000 0.562500 0.062500
v -0.250000 0.625000 0.062500
v -0.312500 0.687500 0.062500
v -0.312500 0.687500 0.000000
v -0.250000 0.687500 0.000000
v -0.250000 0.687500 0.062500
v -0.312500 0.750000 0.062500
v -0.312500 0.750000 0.000000
v -0.250000 0.750000 0.000000
v -0.250000 0.750000 0.062500
v -0.250000 0.000000 -0.187500
v -0.250000 0.062500 -0.187500
v -0.250000 0.062500 -0.250000
v -0.250000 0.000000 -0.250000
v -0.187500 0.062500 -0.250000
v -0.187500 0.000000 -0.250000
v -0.187500 0.000000 -0.187500
v -0.250000 0.125000 -0.187500
v -0.250000 0.125000 -0.250000
v -0.187500 0.125000 -0.250000
v -0.250000 0.187500 -0.187500
v -0.250000 0.187500 -0.250000
v -0.187500 0.187500 -0.250000
v -0.250000 0.250000 -0.187500
v -0.250000 0.250000 -0.250000
v -0.187500 0.250000 -0.250000
v -0.250000 0.312500 -0.187500
v -0.250000 0.312500 -0.250000
v -0.187500 0.312500 -0.250000
v -0.250000 0.375000 -0.187500
v -0.250000 0.375000 -0.250000
v -0.187500 0.375000 -0.250000
v -0.250000 0.437500 -0.187500
v -0.250000 0.437500 -0.250000
v -0.187500 0.437500 -0.250000
v -0.250000 0.500000 -0.187500
v -0.250000 0.500000 -0.250000
v -0.187500 0.500000 -0.250000
v -0.250000 0.562500 -0.187500
v -0.250000 0.562500 -0.250000
v -0.187500 0.562500 -0.250000
v -0.250000 0.625000 -0.187500
v -0.250000 0.625000 -0.250000
v -0.187500 0.625000 -0.250000
v -0.187500 0.625000 -0.187500
v -0.250000 0.000000 -0.125000
v -0.250000 0.062500 -0.125000
v -0.187500 0.000000 -0.125000
v -0.187500 0.062500 -0.125000
v -0.250000 0.125000 -0.125000
v -0.187500 0.125000 -0.125000
v -0.250000 0.187500 -0.125000
v -0.187500 0.187500 -0.125000
v -0.250000 0.250000 -0.125000
v -0.187500 0.250000 -0.125000
v -0.250000 0.312500 -0.125000
v -0.187500 0.312500 -0.125000
v -0.250000 0.375000 -0.125000
v -0.187500 0.375000 -0.125000
v -0.250000 0.437500 -0.125000
v -0.187500 0.437500 -0.125000
v -0.250000 0.500000 -0.125000
v -0.187500 0.500000 -0.125000
v -0.250000 0.562500 -0.125000
v -0.187500 0.562500 -0.125000
v -0.250000 0.625000 -0.125000
v -0.250000 0.687500 -0.125000
v -0.250000 0.687500 -0.187500
v -0.187500 0.687500 -0.187500
v -0.250000 0.750000 -0.125000
v -0.250000 0.750000 -0.187500
v -0.187500 0.750000 -0.187500
v -0.187500 0.750000 -0.125000
v -0.250000 0.562500 -0.062500
v -0.250000 0.625000 -0.062500
v -0.187500 0.562500 -0.062500
v -0.250000 0.687500 -0.062500
v -0.250000 0.750000 -0.062500
v -0.187500 0.750000 -0.062500
v -0.187500 0.562500 0.000000
v -0.187500 0.750000 0.000000
v -0.187500 0.562500 0.062500
v -0.187500 0.750000 0.062500
v -0.250000 0.562500 0.125000
v -0.250000 0.625000 0.125000
v -0.187500 0.562500 0.125000
v -0.250000 0.687500 0.125000
v -0.250000 0.750000 0.125000
v -0.187500 0.750000 0.125000
v -0.250000 0.562500 0.187500
v -0.250000 0.625000 0.187500
v -0.187500 0.562500 0.187500
v -0.250000 0.687500 0.187500
v -0.250000 0.750000 0.187500
v -0.187500 0.750000 0.187500
v -0.250000 0.562500 0.250000
v -0.250000 0.625000 0.250000
v -0.187500 0.562500 0.250000
v -0.187500 0.625000 0.250000
v -0.250000 0.687500 0.250000
v -0.187500 0.687500 0.250000
v -0.250000 0.750000 0.250000
v -0.187500 0.750000 0.250000
v -0.125000 0.062500 -0.250000
v -0.125000 0.062500 -0.187500
v -0.125000 0.000000 -0.187500
v -0.125000 0.000000 -0.250000
v -0.125000 0.125000 -0.250000
v -0.125000 0.125000 -0.187500
v -0.125000 0.187500 -0.250000
v -0.125000 0.187500 -0.187500
v -0.125000 0.250000 -0.250000
v -0.125000 0.250000 -0.187500
v -0.125000 0.312500 -0.250000
v -0.125000 0.312500 -0.187500
v -0.125000 0.375000 -0.250000
v -0.125000 0.375000 -0.187500
v -0.125000 0.437500 -0.250000
v -0.125000 0.437500 -0.187500
v -0.125000 0.500000 -0.250000
v -0.125000 0.500000 -0.187500
v -0.125000 0.562500 -0.250000
v -0.125000 0.562500 -0.187500
v -0.125000 0.625000 -0.250000
v -0.187500 0.687500 -0.250000
v -0.125000 0.687500 -0.250000
v -0.187500 0.750000 -0.250000
v -0.125000 0.750000 -0.250000
v -0.125000 0.750000 -0.187500
v -0.125000 0.062500 -0.125000
v -0.125000 0.000000 -0.125000
v -0.125000 0.125000 -0.125000
v -0.125000 0.187500 -0.125000
v -0.125000 0.250000 -0.125000
v -0.125000 0.312500 -0.125000
v -0.125000 0.375000 -0.125000
v -0.125000 0.437500 -0.125000
v -0.125000 0.500000 -0.125000
v -0.125000 0.562500 -0.125000
v -0.125000 0.750000 -0.125000
v -0.125000 0.562500 -0.062500
v -0.125000 0.750000 -0.062500
v -0.125000 0.562500 0.000000
v -0.125000 0.750000 0.000000
v -0.125000 0.562500 0.062500
v -0.125000 0.750000 0.062500
v -0.125000 0.562500 0.125000
v -0.125000 0.750000 0.125000
v -0.125000 0.562500 0.187500
v -0.125000 0.750000 0.187500
v -0.125000 0.562500 0.250000
v -0.125000 0.750000 0.250000
v -0.187500 0.562500 0.312500
v -0.187500 0.625000 0.312500
v -0.125000 0.562500 0.312500
v -0.125000 0.625000 0.312500
v -0.187500 0.687500 0.312500
v -0.125000 0.687500 0.312500
v -0.187500 0.750000 0.312500
v -0.125000 0.750000 0.312500
v -0.062500 0.625000 -0.250000
v -0.062500 0.562500 -0.250000
v -0.062500 0.562500 -0.187500
v -0.062500 0.687500 -0.250000
v -0.062500 0.750000 -0.250000
v -0.062500 0.750000 -0.187500
v -0.062500 0.562500 -0.125000
v -0.062500 0.750000 -0.125000
v -0.062500 0.562500 -0.062500
v -0.062500 0.750000 -0.062500
v -0.062500 0.562500 0.000000
v -0.062500 0.750000 0.000000
v -0.062500 0.562500 0.062500
v -0.125000 0.812500 0.062500
v -0.125000 0.812500 0.000000
v -0.062500 0.812500 0.000000
v -0.062500 0.750000 0.062500
v -0.062500 0.812500 0.062500
v -0.125000 0.875000 0.062500
v -0.125000 0.875000 0.000000
v -0.062500 0.875000 0.000000
v -0.062500 0.875000 0.062500
v -0.125000 0.937500 0.062500
v -0.125000 0.937500 0.000000
v -0.062500 0.937500 0.000000
v -0.062500 0.937500 0.062500
v -0.062500 0.562500 0.125000
v -0.062500 0.750000 0.125000
v -0.062500 0.562500 0.187500
v -0.062500 0.750000 0.187500
v -0.062500 0.562500 0.250000
v -0.062500 0.750000 0.250000
v -0.062500 0.562500 0.312500
v -0.062500 0.625000 0.312500
v -0.062500 0.687500 0.312500
v -0.062500 0.750000 0.312500
v 0.000000 0.625000 -0.250000
v 0.000000 0.562500 -0.250000
v 0.000000 0.562500 -0.187500
v 0.000000 0.687500 -0.250000
v 0.000000 0.750000 -0.250000
v 0.000000 0.750000 -0.187500
v 0.000000 0.562500 -0.125000
v 0.000000 0.750000 -0.125000
v 0.000000 0.562500 -0.062500
v 0.000000 0.750000 -0.062500
v 0.000000 0.562500 0.000000
v -0.062500 0.812500 -0.062500
v 0.000000 0.812500 -0.062500
v -0.062500 0.875000 -0.062500
v 0.000000 0.875000 -0.062500
v -0.062500 0.937500 -0.062500
v 0.000000 0.937500 -0.062500
v 0.000000 0.937500 0.000000
v 0.000000 0.562500 0.062500
v -0.062500 1.000000 0.062500
v -0.062500 1.000000 0.000000
v 0.000000 1.000000 0.000000
v 0.000000 0.937500 0.062500
v 0.000000 1.000000 0.062500
v -0.062500 1.062500 0.062500
v -0.062500 1.062500 0.000000
v 0.000000 1.062500 0.000000
v 0.000000 1.062500 0.062500
v -0.062500 1.125000 0.062500
v -0.062500 1.125000 0.000000
v 0.000000 1.125000 0.000000
v 0.000000 1.125000 0.062500
v 0.000000 0.562500 0.125000
v -0.062500 0.812500 0.125000
v 0.000000 0.750000 0.125000
v 0.000000 0.812500 0.125000
v -0.062500 0.875000 0.125000
v 0.000000 0.875000 0.125000
v -0.062500 0.937500 0.125000
v 0.000000 0.937500 0.125000
v 0.000000 0.562500 0.187500
v 0.000000 0.750000 0.187500
v -0.062500 0.000000 0.250000
v -0.062500 0.062500 0.250000
v -0.062500 0.062500 0.187500
v -0.062500 0.000000 0.187500
v 0.000000 0.062500 0.187500
v 0.000000 0.000000 0.187500
v 0.000000 0.000000 0.250000
v -0.062500 0.125000 0.250000
v -0.062500 0.125000 0.187500
v 0.000000 0.125000 0.187500
v -0.062500 0.187500 0.250000
v -0.062500 0.187500 0.187500
v 0.000000 0.187500 0.187500
v -0.062500 0.250000 0.250000
v -0.062500 0.250000 0.187500
v 0.000000 0.250000 0.187500
v -0.062500 0.312500 0.250000
v -0.062500 0.312500 0.187500
v 0.000000 0.312500 0.187500
v -0.062500 0.375000 0.250000
v -0.062500 0.375000 0.187500
v 0.000000 0.375000 0.187500
v -0.062500 0.437500 0.250000
v -0.062500 0.437500 0.187500
v 0.000000 0.437500 0.187500
v -0.062500 0.500000 0.250000
v -0.062500 0.500000 0.187500
v 0.000000 0.500000 0.187500
v 0.000000 0.750000 0.250000
v -0.062500 0.000000 0.312500
v -0.062500 0.062500 0.312500
v 0.000000 0.000000 0.312500
v 0.000000 0.062500 0.312500
v -0.062500 0.125000 0.312500
v 0.000000 0.125000 0.312500
v -0.062500 0.187500 0.312500
v 0.000000 0.187500 0.312500
v -0.062500 0.250000 0.312500
v 0.000000 0.250000 0.312500
v -0.062500 0.312500 0.312500
v 0.000000 0.312500 0.312500
v -0.062500 0.375000 0.312500
v 0.000000 0.375000 0.312500
v -0.062500 0.437500 0.312500
v 0.000000 0.437500 0.312500
v -0.062500 0.500000 0.312500
v 0.000000 0.500000 0.312500
v 0.000000 0.562500 0.312500
v 0.000000 0.625000 0.312500
v 0.000000 0.687500 0.312500
v 0.000000 0.750000 0.312500
v 0.000000 0.625000 -0.312500
v 0.000000 0.562500 -0.312500
v 0.062500 0.625000 -0.312500
v 0.062500 0.625000 -0.250000
v 0.062500 0.562500 -0.250000
v 0.062500 0.562500 -0.312500
v 0.000000 0.687500 -0.312500
v 0.062500 0.687500 -0.312500
v 0.062500 0.687500 -0.250000
v 0.000000 0.750000 -0.312500
v 0.062500 0.750000 -0.312500
v 0.062500 0.750000 -0.250000
v 0.062500 0.562500 -0.187500
v 0.062500 0.750000 -0.187500
v 0.062500 0.562500 -0.125000
v 0.062500 0.750000 -0.125000
v 0.062500 0.562500 -0.062500
v 0.000000 0.812500 -0.125000
v 0.062500 0.812500 -0.125000
v 0.062500 0.812500 -0.062500
v 0.062500 0.750000 -0.062500
v 0.000000 0.875000 -0.125000
v 0.062500 0.875000 -0.125000
v 0.062500 0.875000 -0.062500
v 0.000000 0.937500 -0.125000
v 0.062500 0.937500 -0.125000
v 0.062500 0.937500 -0.062500
v 0.062500 0.562500 0.000000
v 0.000000 1.000000 -0.062500
v 0.062500 1.000000 -0.062500
v 0.062500 1.000000 0.000000
v 0.062500 0.937500 0.000000
v 0.000000 1.062500 -0.062500
v 0.062500 1.062500 -0.062500
v 0.062500 1.062500 0.000000
v 0.000000 1.125000 -0.062500
v 0.062500 1.125000 -0.062500
v 0.062500 1.125000 0.000000
v 0.062500 0.562500 0.062500
v 0.062500 1.125000 0.062500
v 0.062500 0.562500 0.125000
v 0.000000 1.000000 0.125000
v 0.062500 1.000000 0.062500
v 0.062500 1.000000 0.125000
v 0.062500 0.937500 0.125000
v 0.062500 0.937500 0.062500
v 0.000000 1.062500 0.125000
v 0.062500 1.062500 0.062500
v 0.062500 1.062500 0.125000
v 0.000000 1.125000 0.125000
v 0.062500 1.125000 0.125000
v 0.062500 0.562500 0.187500
v 0.000000 0.812500 0.187500
v 0.062500 0.812500 0.125000
v 0.062500 0.812500 0.187500
v 0.062500 0.750000 0.187500
v 0.062500 0.750000 0.125000
v 0.000000 0.875000 0.187500
v 0.062500 0.875000 0.125000
v 0.062500 0.875000 0.187500
v 0.000000 0.937500 0.187500
v 0.062500 0.937500 0.187500
v 0.062500 0.062500 0.187500
v 0.062500 0.062500 0.250000
v 0.062500 0.000000 0.250000
v 0.062500 0.000000 0.187500
v 0.062500 0.125000 0.187500
v 0.062500 0.125000 0.250000
v 0.062500 0.187500 0.187500
v 0.062500 0.187500 0.250000
v 0.062500 0.250000 0.187500
v 0.062500 0.250000 0.250000
v 0.062500 0.312500 0.187500
v 0.062500 0.312500 0.250000
v 0.062500 0.375000 0.187500
v 0.062500 0.375000 0.250000
v 0.062500 0.437500 0.187500
v 0.062500 0.437500 0.250000
v 0.062500 0.500000 0.187500
v 0.062500 0.500000 0.250000
v 0.062500 0.562500 0.250000
v 0.062500 0.750000 0.250000
v 0.062500 0.062500 0.312500
v 0.062500 0.000000 0.312500
v 0.062500 0.125000 0.312500
v 0.062500 0.187500 0.312500
v 0.062500 0.250000 0.312500
v 0.062500 0.312500 0.312500
v 0.062500 0.375000 0.312500
v 0.062500 0.437500 0.312500
v 0.062500 0.500000 0.312500
v 0.062500 0.562500 0.312500
v 0.062500 0.750000 0.312500
v 0.000000 0.562500 0.375000
v 0.000000 0.625000 0.375000
v 0.062500 0.625000 0.312500
v 0.062500 0.625000 0.375000
v 0.062500 0.562500 0.375000
v 0.000000 0.687500 0.375000
v 0.062500 0.687500 0.312500
v 0.062500 0.687500 0.375000
v 0.000000 0.750000 0.375000
v 0.062500 0.750000 0.375000
v 0.125000 0.625000 -0.250000
v 0.125000 0.562500 -0.250000
v 0.125000 0.562500 -0.187500
v 0.125000 0.687500 -0.250000
v 0.125000 0.750000 -0.250000
v 0.125000 0.750000 -0.187500
v 0.125000 0.562500 -0.125000
v 0.125000 0.750000 -0.125000
v 0.125000 0.562500 -0.062500
v 0.125000 0.750000 -0.062500
v 0.125000 0.562500 0.000000
v 0.125000 0.812500 -0.062500
v 0.125000 0.812500 0.000000
v 0.125000 0.750000 0.000000
v 0.125000 0.875000 -0.062500
v 0.125000 0.875000 0.000000
v 0.125000 0.937500 -0.062500
v 0.125000 0.937500 0.000000
v 0.125000 0.562500 0.062500
v 0.125000 1.000000 0.000000
v 0.125000 1.000000 0.062500
v 0.125000 0.937500 0.062500
v 0.125000 1.062500 0.000000
v 0.125000 1.062500 0.062500
v 0.125000 1.125000 0.000000
v 0.125000 1.125000 0.062500
v 0.062500 1.187500 0.062500
v 0.062500 1.187500 0.000000
v 0.125000 1.187500 0.000000
v 0.125000 1.187500 0.062500
v 0.125000 0.562500 0.125000
v 0.125000 0.812500 0.062500
v 0.125000 0.812500 0.125000
v 0.125000 0.750000 0.125000
v 0.125000 0.750000 0.062500
v 0.125000 0.875000 0.062500
v 0.125000 0.875000 0.125000
v 0.125000 0.937500 0.125000
v 0.125000 0.562500 0.187500
v 0.125000 0.750000 0.187500
v 0.125000 0.562500 0.250000
v 0.125000 0.750000 0.250000
v 0.125000 0.562500 0.312500
v 0.125000 0.625000 0.312500
v 0.125000 0.687500 0.312500
v 0.125000 0.750000 0.312500
v 0.125000 0.000000 -0.187500
v 0.125000 0.062500 -0.187500
v 0.125000 0.062500 -0.250000
v 0.125000 0.000000 -0.250000
v 0.187500 0.062500 -0.250000
v 0.187500 0.000000 -0.250000
v 0.187500 0.000000 -0.187500
v 0.125000 0.125000 -0.187500
v 0.125000 0.125000 -0.250000
v 0.187500 0.125000 -0.250000
v 0.125000 0.187500 -0.187500
v 0.125000 0.187500 -0.250000
v 0.187500 0.187500 -0.250000
v 0.125000 0.250000 -0.187500
v 0.125000 0.250000 -0.250000
v 0.187500 0.250000 -0.250000
v 0.125000 0.312500 -0.187500
v 0.125000 0.312500 -0.250000
v 0.187500 0.312500 -0.250000
v 0.125000 0.375000 -0.187500
v 0.125000 0.375000 -0.250000
v 0.187500 0.375000 -0.250000
v 0.125000 0.437500 -0.187500
v 0.125000 0.437500 -0.250000
v 0.187500 0.437500 -0.250000
v 0.125000 0.500000 -0.187500
v 0.125000 0.500000 -0.250000
v 0.187500 0.500000 -0.250000
v 0.187500 0.562500 -0.250000
v 0.187500 0.625000 -0.250000
v 0.187500 0.687500 -0.250000
v 0.187500 0.750000 -0.250000
v 0.187500 0.750000 -0.187500
v 0.125000 0.000000 -0.125000
v 0.125000 0.062500 -0.125000
v 0.187500 0.000000 -0.125000
v 0.187500 0.062500 -0.125000
v 0.125000 0.125000 -0.125000
v 0.187500 0.125000 -0.125000
v 0.125000 0.187500 -0.125000
v 0.187500 0.187500 -0.125000
v 0.125000 0.250000 -0.125000
v 0.187500 0.250000 -0.125000
v 0.125000 0.312500 -0.125000
v 0.187500 0.312500 -0.125000
v 0.125000 0.375000 -0.125000
v 0.187500 0.375000 -0.125000
v 0.125000 0.437500 -0.125000
v 0.187500 0.437500 -0.125000
v 0.125000 0.500000 -0.125000
v 0.187500 0.500000 -0.125000
v 0.187500 0.562500 -0.125000
v 0.187500 0.750000 -0.125000
v 0.187500 0.562500 -0.062500
v 0.187500 0.750000 -0.062500
v 0.187500 0.562500 0.000000
v 0.187500 0.750000 0.000000
v 0.187500 0.562500 0.062500
v 0.187500 0.812500 0.000000
v 0.187500 0.812500 0.062500
v 0.187500 0.750000 0.062500
v 0.187500 0.875000 0.000000
v 0.187500 0.875000 0.062500
v 0.187500 0.937500 0.000000
v 0.187500 0.937500 0.062500
v 0.187500 0.562500 0.125000
v 0.187500 0.750000 0.125000
v 0.187500 0.562500 0.187500
v 0.187500 0.750000 0.187500
v 0.187500 0.562500 0.250000
v 0.187500 0.750000 0.250000
v 0.187500 0.562500 0.312500
v 0.187500 0.625000 0.312500
v 0.187500 0.687500 0.312500
v 0.187500 0.750000 0.312500
v 0.250000 0.062500 -0.250000
v 0.250000 0.062500 -0.187500
v 0.250000 0.000000 -0.187500
v 0.250000 0.000000 -0.250000
v 0.250000 0.125000 -0.250000
v 0.250000 0.125000 -0.187500
v 0.250000 0.187500 -0.250000
v 0.250000 0.187500 -0.187500
v 0.250000 0.250000 -0.250000
v 0.250000 0.250000 -0.187500
v 0.250000 0.312500 -0.250000
v 0.250000 0.312500 -0.187500
v 0.250000 0.375000 -0.250000
v 0.250000 0.375000 -0.187500
v 0.250000 0.437500 -0.250000
v 0.250000 0.437500 -0.187500
v 0.250000 0.500000 -0.250000
v 0.250000 0.500000 -0.187500
v 0.250000 0.562500 -0.250000
v 0.250000 0.562500 -0.187500
v 0.250000 0.625000 -0.250000
v 0.250000 0.625000 -0.187500
v 0.250000 0.687500 -0.250000
v 0.250000 0.687500 -0.187500
v 0.250000 0.750000 -0.250000
v 0.250000 0.750000 -0.187500
v 0.250000 0.062500 -0.125000
v 0.250000 0.000000 -0.125000
v 0.250000 0.125000 -0.125000
v 0.250000 0.187500 -0.125000
v 0.250000 0.250000 -0.125000
v 0.250000 0.312500 -0.125000
v 0.250000 0.375000 -0.125000
v 0.250000 0.437500 -0.125000
v 0.250000 0.500000 -0.125000
v 0.250000 0.562500 -0.125000
v 0.250000 0.750000 -0.125000
v 0.250000 0.562500 -0.062500
v 0.250000 0.750000 -0.062500
v 0.250000 0.562500 0.000000
v 0.250000 0.750000 0.000000
v 0.250000 0.562500 0.062500
v 0.250000 0.750000 0.062500
v 0.250000 0.562500 0.125000
v 0.250000 0.750000 0.125000
v 0.250000 0.562500 0.187500
v 0.250000 0.750000 0.187500
v 0.250000 0.562500 0.250000
v 0.250000 0.750000 0.250000
v 0.250000 0.625000 0.250000
v 0.250000 0.625000 0.312500
v 0.250000 0.562500 0.312500
v 0.250000 0.687500 0.250000
v 0.250000 0.687500 0.312500
v 0.250000 0.750000 0.312500
v 0.312500 0.625000 -0.187500
v 0.312500 0.625000 -0.125000
v 0.312500 0.562500 -0.125000
v 0.312500 0.562500 -0.187500
v 0.312500 0.687500 -0.187500
v 0.312500 0.687500 -0.125000
v 0.312500 0.750000 -0.187500
v 0.312500 0.750000 -0.125000
v 0.312500 0.625000 -0.062500
v 0.312500 0.562500 -0.062500
v 0.312500 0.687500 -0.062500
v 0.312500 0.750000 -0.062500
v 0.312500 0.625000 0.000000
v 0.312500 0.562500 0.000000
v 0.312500 0.687500 0.000000
v 0.312500 0.750000 0.000000
v 0.312500 0.562500 0.062500
v 0.312500 0.750000 0.062500
v 0.312500 0.625000 0.062500
v 0.312500 0.625000 0.125000
v 0.312500 0.562500 0.125000
v 0.312500 0.687500 0.062500
v 0.312500 0.687500 0.125000
v 0.312500 0.750000 0.125000
v 0.312500 0.625000 0.187500
v 0.312500 0.562500 0.187500
v 0.312500 0.687500 0.187500
v 0.312500 0.750000 0.187500
v 0.312500 0.625000 0.250000
v 0.312500 0.562500 0.250000
v 0.312500 0.687500 0.250000
v 0.312500 0.750000 0.250000
v 0.375000 0.625000 0.000000
v 0.375000 0.625000 0.062500
v 0.375000 0.562500 0.062500
v 0.375000 0.562500 0.000000
v 0.375000 0.687500 0.000000
v 0.375000 0.687500 0.062500
v 0.375000 0.750000 0.000000
v 0.375000 0.750000 0.062500
vt 0.03125000 0.96875000
vt 0.09375000 0.96875000
vt 0.15625000 0.96875000
vt 0.21875000 0.96875000
vt 0.28125000 0.96875000
vt 0.34375000 0.96875000
vt 0.40625000 0.96875000
vt 0.46875000 0.96875000
vt 0.53125000 0.96875000
vt 0.59375000 0.96875000
vt 0.65625000 0.96875000
vt 0.71875000 0.96875000
vt 0.78125000 0.96875000
vt 0.84375000 0.96875000
vt 0.90625000 0.96875000
vt 0.96875000 0.96875000
vt 0.03125000 0.90625000
vt 0.09375000 0.90625000
vt 0.15625000 0.90625000
vt 0.21875000 0.90625000
vt 0.28125000 0.90625000
vt 0.34375000 0.90625000
vt 0.40625000 0.90625000
vt 0.46875000 0.90625000
vt 0.53125000 0.90625000
vt 0.59375000 0.90625000
vt 0.65625000 0.90625000
vt 0.71875000 0.90625000
vt 0.78125000 0.90625000
vt 0.84375000 0.90625000
vt 0.90625000 0.90625000
vt 0.96875000 0.90625000
vt 0.03125000 0.84375000
vt 0.09375000 0.84375000
vt 0.15625000 0.84375000
vt 0.21875000 0.84375000
vt 0.28125000 0.84375000
vt 0.34375000 0.84375000
vt 0.40625000 0.84375000
vt 0.46875000 0.84375000
vt 0.53125000 0.84375000
vt 0.59375000 0.84375000
vt 0.65625000 0.84375000
vt 0.71875000 0.84375000
vt 0.78125000 0.84375000
vt 0.84375000 0.84375000
vt 0.90625000 0.84375000
vt 0.96875000 0.84375000
vt 0.03125000 0.78125000
vt 0.09375000 0.78125000
vt 0.15625000 0.78125000
vt 0.21875000 0.78125000
vt 0.28125000 0.78125000
vt 0.34375000 0.78125000
vt 0.40625000 0.78125000
vt 0.46875000 0.78125000
vt 0.53125000 0.78125000
vt 0.59375000 0.78125000
vt 0.65625000 0.78125000
vt 0.71875000 0.78125000
vt 0.78125000 0.78125000
vt 0.84375000 0.78125000
vt 0.90625000 0.78125000
vt 0.96875000 0.78125000
vt 0.03125000 0.71875000
vt 0.09375000 0.71875000
vt 0.15625000 0.71875000
vt 0.21875000 0.71875000
vt 0.28125000 0.71875000
vt 0.34375000 0.71875000
vt 0.40625000 0.71875000
vt 0.46875000 0.71875000
vt 0.53125000 0.71875000
vt 0.59375000 0.71875000
vt 0.65625000 0.71875000
vt 0.71875000 0.71875000
vt 0.78125000 0.71875000
vt 0.84375000 0.71875000
vt 0.90625000 0.71875000
vt 0.96875000 0.71875000
vt 0.03125000 0.65625000
vt 0.09375000 0.65625000
vt 0.15625000 0.65625000
vt 0.21875000 0.65625000
vt 0.28125000 0.65625000
vt 0.34375000 0.65625000
vt 0.40625000 0.65625000
vt 0.46875000 0.65625000
vt 0.53125000 0.65625000
vt 0.59375000 0.65625000
vt 0.65625000 0.65625000
vt 0.71875000 0.65625000
vt 0.78125000 0.65625000
vt 0.84375000 0.65625000
vt 0.90625000 0.65625000
vt 0.96875000 0.65625000
vt 0.03125000 0.59375000
vt 0.09375000 0.59375000
vt 0.15625000 0.59375000
vt 0.21875000 0.59375000
vt 0.28125000 0.59375000
vt 0.34375000 0.59375000
vt 0.40625000 0.59375000
vt 0.46875000 0.59375000
vt 0.53125000 0.59375000
vt 0.59375000 0.59375000
vt 0.65625000 0.59375000
vt 0.71875000 0.59375000
vt 0.78125000 0.59375000
vt 0.84375000 0.59375000
vt 0.90625000 0.59375000
vt 0.96875000 0.59375000
vt 0.03125000 0.53125000
vt 0.09375000 0.53125000
vt 0.15625000 0.53125000
vt 0.21875000 0.53125000
vt 0.28125000 0.53125000
vt 0.34375000 0.53125000
vt 0.40625000 0.53125000
vt 0.46875000 0.53125000
vt 0.53125000 0.53125000
vt 0.59375000 0.53125000
vt 0.65625000 0.53125000
vt 0.71875000 0.53125000
vt 0.78125000 0.53125000
vt 0.84375000 0.53125000
vt 0.90625000 0.53125000
vt 0.96875000 0.53125000
vt 0.03125000 0.46875000
vt 0.09375000 0.46875000
vt 0.15625000 0.46875000
vt 0.21875000 0.46875000
vt 0.28125000 0.46875000
vt 0.34375000 0.46875000
vt 0.40625000 0.46875000
vt 0.46875000 0.46875000
vt 0.53125000 0.46875000
vt 0.59375000 0.46875000
vt 0.65625000 0.46875000
vt 0.71875000 0.46875000
vt 0.78125000 0.46875000
vt 0.84375000 0.46875000
vt 0.90625000 0.46875000
vt 0.96875000 0.46875000
vt 0.03125000 0.40625000
vt 0.09375000 0.40625000
vt 0.15625000 0.40625000
vt 0.21875000 0.40625000
vt 0.28125000 0.40625000
vt 0.34375000 0.40625000
vt 0.40625000 0.40625000
vt 0.46875000 0.40625000
vt 0.53125000 0.40625000
vt 0.59375000 0.40625000
vt 0.65625000 0.40625000
vt 0.71875000 0.40625000
vt 0.78125000 0.40625000
vt 0.84375000 0.40625000
vt 0.90625000 0.40625000
vt 0.96875000 0.40625000
vt 0.03125000 0.34375000
vt 0.09375000 0.34375000
vt 0.15625000 0.34375000
vt 0.21875000 0.34375000
vt 0.28125000 0.34375000
vt 0.34375000 0.34375000
vt 0.40625000 0.34375000
vt 0.46875000 0.34375000
vt 0.53125000 0.34375000
vt 0.59375000 0.34375000
vt 0.65625000 0.34375000
vt 0.71875000 0.34375000
vt 0.78125000 0.34375000
vt 0.84375000 0.34375000
vt 0.90625000 0.34375000
vt 0.96875000 0.34375000
vt 0.03125000 0.28125000
vt 0.09375000 0.28125000
vt 0.15625000 0.28125000
vt 0.21875000 0.28125000
vt 0.28125000 0.28125000
vt 0.34375000 0.28125000
vt 0.40625000 0.28125000
vt 0.46875000 0.28125000
vt 0.53125000 0.28125000
vt 0.59375000 0.28125000
vt 0.65625000 0.28125000
vt 0.71875000 0.28125000
vt 0.78125000 0.28125000
vt 0.84375000 0.28125000
vt 0.90625000 0.28125000
vt 0.96875000 0.28125000
vt 0.03125000 0.21875000
vt 0.09375000 0.21875000
vt 0.15625000 0.21875000
vt 0.21875000 0.21875000
vt 0.28125000 0.21875000
vt 0.34375000 0.21875000
vt 0.40625000 0.21875000
vt 0.46875000 0.21875000
vt 0.53125000 0.21875000
vt 0.59375000 0.21875000
vt 0.65625000 0.21875000
vt 0.71875000 0.21875000
vt 0.78125000 0.21875000
vt 0.84375000 0.21875000
vt 0.90625000 0.21875000
vt 0.96875000 0.21875000
vt 0.03125000 0.15625000
vt 0.09375000 0.15625000
vt 0.15625000 0.15625000
vt 0.21875000 0.15625000
vt 0.28125000 0.15625000
vt 0.34375000 0.15625000
vt 0.40625000 0.15625000
vt 0.46875000 0.15625000
vt 0.53125000 0.15625000
vt 0.59375000 0.15625000
vt 0.65625000 0.15625000
vt 0.71875000 0.15625000
vt 0.78125000 0.15625000
vt 0.84375000 0.15625000
vt 0.90625000 0.15625000
vt 0.96875000 0.15625000
vt 0.03125000 0.09375000
vt 0.09375000 0.09375000
vt 0.15625000 0.09375000
vt 0.21875000 0.09375000
vt 0.28125000 0.09375000
vt 0.34375000 0.09375000
vt 0.40625000 0.09375000
vt 0.46875000 0.09375000
vt 0.53125000 0.09375000
vt 0.59375000 0.09375000
vt 0.65625000 0.09375000
vt 0.71875000 0.09375000
vt 0.78125000 0.09375000
vt 0.84375000 0.09375000
vt 0.90625000 0.09375000
vt 0.96875000 0.09375000
vt 0.03125000 0.03125000
vt 0.09375000 0.03125000
vt 0.15625000 0.03125000
vt 0.21875000 0.03125000
vt 0.28125000 0.03125000
vt 0.34375000 0.03125000
vt 0.40625000 0.03125000
vt 0.46875000 0.03125000
vt 0.53125000 0.03125000
vt 0.59375000 0.03125000
vt 0.65625000 0.03125000
vt 0.71875000 0.03125000
vt 0.78125000 0.03125000
vt 0.84375000 0.03125000
vt 0.90625000 0.03125000
vt 0.96875000 0.03125000
vn -1 0 0
vn 1 0 0
vn 0 0 -1
vn 0 0 1
vn 0 -1 0
vn 0 1 0
g palette
usemtl palette
f 1/54/1 2/54/1 3/54/1 4/54/1
f 3/54/3 5/54/3 6/54/3 4/54/3
f 7/54/4 8/54/4 2/54/4 1/54/4
f 6/54/5 7/54/5 1/54/5 4/54/5
f 2/54/1 9/54/1 10/54/1 3/54/1
f 10/54/3 11/54/3 5/54/3 3/54/3
f 8/54/4 12/54/4 9/54/4 2/54/4
f 9/54/1 13/54/1 14/54/1 10/54/1
f 14/54/3 15/54/3 11/54/3 10/54/3
f 12/54/4 16/54/4 13/54/4 9/54/4
f 13/54/6 16/54/6 15/54/6 14/54/6
f 17/53/1 18/53/1 19/53/1 20/53/1
f 19/53/3 21/53/3 22/53/3 20/53/3
f 22/53/5 23/53/5 17/53/5 20/53/5
f 18/53/1 24/53/1 25/53/1 19/53/1
f 25/53/3 26/53/3 21/53/3 19/53/3
f 24/53/1 27/53/1 28/53/1 25/53/1
f 28/53/3 29/53/3 26/53/3 25/53/3
f 27/53/1 30/53/1 31/53/1 28/53/1
f 31/53/3 32/53/3 29/53/3 28/53/3
f 30/53/1 33/53/1 34/53/1 31/53/1
f 34/53/3 35/53/3 32/53/3 31/53/3
f 33/53/1 36/53/1 37/53/1 34/53/1
f 37/53/3 38/53/3 35/53/3 34/53/3
f 36/53/1 39/53/1 40/53/1 37/53/1
f 40/53/3 41/53/3 38/53/3 37/53/3
f 39/53/1 42/53/1 43/53/1 40/53/1
f 43/53/3 44/53/3 41/53/3 40/53/3
f 42/53/1 45/53/1 46/53/1 43/53/1
f 46/53/3 47/53/3 44/53/3 43/53/3
f 45/53/1 48/53/1 49/53/1 46/53/1
f 49/53/3 50/53/3 47/53/3 46/53/3
f 48/53/6 51/53/6 50/53/6 49/53/6
f 52/53/1 53/53/1 18/53/1 17/53/1
f 54/53/4 55/53/4 53/53/4 52/53/4
f 23/53/5 54/53/5 52/53/5 17/53/5
f 53/53/1 56/53/1 24/53/1 18/53/1
f 55/53/4 57/53/4 56/53/4 53/53/4
f 56/53/1 58/53/1 27/53/1 24/53/1
f 57/53/4 59/53/4 58/53/4 56/53/4
f 58/53/1 60/53/1 30/53/1 27/53/1
f 59/53/4 61/53/4 60/53/4 58/53/4
f 60/53/1 62/53/1 33/53/1 30/53/1
f 61/53/4 63/53/4 62/53/4 60/53/4
f 62/53/1 64/53/1 36/53/1 33/53/1
f 63/53/4 65/53/4 64/53/4 62/53/4
f 64/53/1 66/53/1 39/53/1 36/53/1
f 65/53/4 67/53/4 66/53/4 64/53/4
f 66/53/1 68/53/1 42/53/1 39/53/1
f 67/53/4 69/53/4 68/53/4 66/53/4
f 68/53/1 70/53/1 45/53/1 42/53/1
f 69/53/4 71/53/4 70/53/4 68/53/4
f 70/54/1 72/54/1 48/54/1 45/54/1
f 72/54/1 73/54/1 74/54/1 48/54/1
f 74/54/3 75/54/3 51/54/3 48/54/3
f 73/54/1 76/54/1 77/54/1 74/54/1
f 77/54/3 78/54/3 75/54/3 74/54/3
f 76/54/6 79/54/6 78/54/6 77/54/6
f 80/54/1 81/54/1 72/54/1 70/54/1
f 71/54/5 82/54/5 80/54/5 70/54/5
f 81/54/1 83/54/1 73/54/1 72/54/1
f 83/54/1 84/54/1 76/54/1 73/54/1
f 84/54/6 85/54/6 79/54/6 76/54/6
f 6/54/1 5/54/1 81/54/1 80/54/1
f 82/54/5 86/54/5 6/54/5 80/54/5
f 5/54/1 11/54/1 83/54/1 81/54/1
f 11/54/1 15/54/1 84/54/1 83/54/1
f 15/54/6 87/54/6 85/54/6 84/54/6
f 86/54/5 88/54/5 7/54/5 6/54/5
f 16/54/6 89/54/6 87/54/6 15/54/6
f 90/54/1 91/54/1 8/54/1 7/54/1
f 88/54/5 92/54/5 90/54/5 7/54/5
f 91/54/1 93/54/1 12/54/1 8/54/1
f 93/54/1 94/54/1 16/54/1 12/54/1
f 94/54/6 95/54/6 89/54/6 16/54/6
f 96/54/1 97/54/1 91/54/1 90/54/1
f 92/54/5 98/54/5 96/54/5 90/54/5
f 97/55/1 99/55/1 93/55/1 91/55/1
f 99/54/1 100/54/1 94/54/1 93/54/1
f 100/54/6 101/54/6 95/54/6 94/54/6
f 102/54/1 103/54/1 97/54/1 96/54/1
f 104/54/4 105/54/4 103/54/4 102/54/4
f 98/54/5 104/54/5 102/54/5 96/54/5
f 103/54/1 106/54/1 99/54/1 97/54/1
f 105/54/4 107/54/4 106/54/4 103/54/4
f 106/54/1 108/54/1 100/54/1 99/54/1
f 107/54/4 109/54/4 108/54/4 106/54/4
f 108/54/6 109/54/6 101/54/6 100/54/6
f 110/53/2 111/53/2 112/53/2 113/53/2
f 21/53/3 110/53/3 113/53/3 22/53/3
f 113/53/5 112/53/5 23/53/5 22/53/5
f 114/53/2 115/53/2 111/53/2 110/53/2
f 26/53/3 114/53/3 110/53/3 21/53/3
f 116/53/2 117/53/2 115/53/2 114/53/2
f 29/53/3 116/53/3 114/53/3 26/53/3
f 118/55/2 119/55/2 117/55/2 116/55/2
f 32/55/3 118/55/3 116/55/3 29/55/3
f 120/53/2 121/53/2 119/53/2 118/53/2
f 35/53/3 120/53/3 118/53/3 32/53/3
f 122/53/2 123/53/2 121/53/2 120/53/2
f 38/53/3 122/53/3 120/53/3 35/53/3
f 124/53/2 125/53/2 123/53/2 122/53/2
f 41/53/3 124/53/3 122/53/3 38/53/3
f 126/53/2 127/53/2 125/53/2 124/53/2
f 44/53/3 126/53/3 124/53/3 41/53/3
f 128/53/2 129/53/2 127/53/2 126/53/2
f 47/53/3 128/53/3 126/53/3 44/53/3
f 50/54/3 130/54/3 128/54/3 47/54/3
f 51/54/1 75/54/1 131/54/1 50/54/1
f 131/54/3 132/54/3 130/54/3 50/54/3
f 75/54/1 78/54/1 133/54/1 131/54/1
f 133/54/3 134/54/3 132/54/3 131/54/3
f 78/54/6 135/54/6 134/54/6 133/54/6
f 111/53/2 136/53/2 137/53/2 112/53/2
f 137/53/4 136/53/4 55/53/4 54/53/4
f 112/53/5 137/53/5 54/53/5 23/53/5
f 115/53/2 138/53/2 136/53/2 111/53/2
f 136/53/4 138/53/4 57/53/4 55/53/4
f 117/53/2 139/53/2 138/53/2 115/53/2
f 138/53/4 139/53/4 59/53/4 57/53/4
f 119/53/2 140/53/2 139/53/2 117/53/2
f 139/53/4 140/53/4 61/53/4 59/53/4
f 121/53/2 141/53/2 140/53/2 119/53/2
f 140/53/4 141/53/4 63/53/4 61/53/4
f 123/53/2 142/53/2 141/53/2 121/53/2
f 141/53/4 142/53/4 65/53/4 63/53/4
f 125/53/2 143/53/2 142/53/2 123/53/2
f 142/53/4 143/53/4 67/53/4 65/53/4
f 127/53/2 144/53/2 143/53/2 125/53/2
f 143/53/4 144/53/4 69/53/4 67/53/4
f 129/53/2 145/53/2 144/53/2 127/53/2
f 144/53/4 145/53/4 71/53/4 69/53/4
f 79/54/6 146/54/6 135/54/6 78/54/6
f 145/54/5 147/54/5 82/54/5 71/54/5
f 85/54/6 148/54/6 146/54/6 79/54/6
f 147/54/5 149/54/5 86/54/5 82/54/5
f 87/54/6 150/54/6 148/54/6 85/54/6
f 149/54/5 151/54/5 88/54/5 86/54/5
f 89/53/6 152/53/6 150/53/6 87/53/6
f 151/54/5 153/54/5 92/54/5 88/54/5
f 95/54/6 154/54/6 152/54/6 89/54/6
f 153/54/5 155/54/5 98/54/5 92/54/5
f 101/54/6 156/54/6 154/54/6 95/54/6
f 155/54/5 157/54/5 104/54/5 98/54/5
f 109/54/6 158/54/6 156/54/6 101/54/6
f 159/54/1 160/54/1 105/54/1 104/54/1
f 161/54/4 162/54/4 160/54/4 159/54/4
f 157/54/5 161/54/5 159/54/5 104/54/5
f 160/54/1 163/54/1 107/54/1 105/54/1
f 162/54/4 164/54/4 163/54/4 160/54/4
f 163/54/1 165/54/1 109/54/1 107/54/1
f 164/54/4 166/54/4 165/54/4 163/54/4
f 165/54/6 166/54/6 158/54/6 109/54/6
f 130/54/3 167/54/3 168/54/3 128/54/3
f 168/54/5 169/54/5 129/54/5 128/54/5
f 132/54/3 170/54/3 167/54/3 130/54/3
f 134/54/3 171/54/3 170/54/3 132/54/3
f 135/54/6 172/54/6 171/54/6 134/54/6
f 169/54/5 173/54/5 145/54/5 129/54/5
f 146/54/6 174/54/6 172/54/6 135/54/6
f 173/54/5 175/54/5 147/54/5 145/54/5
f 148/53/6 176/53/6 174/53/6 146/53/6
f 175/54/5 177/54/5 149/54/5 147/54/5
f 150/53/6 178/53/6 176/53/6 148/53/6
f 177/54/5 179/54/5 151/54/5 149/54/5
f 179/54/5 193/54/5 153/54/5 151/54/5
f 154/53/6 194/53/6 183/53/6 152/53/6
f 193/54/5 195/54/5 155/54/5 153/54/5
f 156/53/6 196/53/6 194/53/6 154/53/6
f 195/54/5 197/54/5 157/54/5 155/54/5
f 158/54/6 198/54/6 196/54/6 156/54/6
f 199/54/4 200/54/4 162/54/4 161/54/4
f 197/54/5 199/54/5 161/54/5 157/54/5
f 200/54/4 201/54/4 164/54/4 162/54/4
f 201/54/4 202/54/4 166/54/4 164/54/4
f 166/54/6 202/54/6 198/54/6 158/54/6
f 167/53/3 203/53/3 204/53/3 168/53/3
f 204/53/5 205/53/5 169/53/5 168/53/5
f 170/54/3 206/54/3 203/54/3 167/54/3
f 171/54/3 207/54/3 206/54/3 170/54/3
f 172/54/6 208/54/6 207/54/6 171/54/6
f 205/54/5 209/54/5 173/54/5 169/54/5
f 174/54/6 210/54/6 208/54/6 172/54/6
f 209/54/5 211/54/5 175/54/5 173/54/5
f 176/53/6 212/53/6 210/53/6 174/53/6
f 211/54/5 213/54/5 177/54/5 175/54/5
f 213/54/5 221/54/5 179/54/5 177/54/5
f 221/54/5 235/54/5 193/54/5 179/54/5
f 235/54/5 243/54/5 195/54/5 193/54/5
f 196/53/6 244/53/6 237/53/6 194/53/6
f 245/53/1 246/53/1 247/53/1 248/53/1
f 247/53/3 249/53/3 250/53/3 248/53/3
f 250/53/5 251/53/5 245/53/5 248/53/5
f 246/53/1 252/53/1 253/53/1 247/53/1
f 253/53/3 254/53/3 249/53/3 247/53/3
f 252/53/1 255/53/1 256/53/1 253/53/1
f 256/53/3 257/53/3 254/53/3 253/53/3
f 255/53/1 258/53/1 259/53/1 256/53/1
f 259/53/3 260/53/3 257/53/3 256/53/3
f 258/53/1 261/53/1 262/53/1 259/53/1
f 262/53/3 263/53/3 260/53/3 259/53/3
f 261/53/1 264/53/1 265/53/1 262/53/1
f 265/53/3 266/53/3 263/53/3 262/53/3
f 264/53/1 267/53/1 268/53/1 265/53/1
f 268/53/3 269/53/3 266/53/3 265/53/3
f 267/53/1 270/53/1 271/53/1 268/53/1
f 271/53/3 272/53/3 269/53/3 268/53/3
f 270/53/1 197/53/1 195/53/1 271/53/1
f 195/53/3 243/53/3 272/53/3 271/53/3
f 198/54/6 273/54/6 244/54/6 196/54/6
f 274/53/1 275/53/1 246/53/1 245/53/1
f 276/53/4 277/53/4 275/53/4 274/53/4
f 251/53/5 276/53/5 274/53/5 245/53/5
f 275/53/1 278/53/1 252/53/1 246/53/1
f 277/53/4 279/53/4 278/53/4 275/53/4
f 278/53/1 280/53/1 255/53/1 252/53/1
f 279/53/4 281/53/4 280/53/4 278/53/4
f 280/53/1 282/53/1 258/53/1 255/53/1
f 281/53/4 283/53/4 282/53/4 280/53/4
f 282/53/1 284/53/1 261/53/1 258/53/1
f 283/53/4 285/53/4 284/53/4 282/53/4
f 284/53/1 286/53/1 264/53/1 261/53/1
f 285/53/4 287/53/4 286/53/4 284/53/4
f 286/53/1 288/53/1 267/53/1 264/53/1
f 287/53/4 289/53/4 288/53/4 286/53/4
f 288/53/1 290/53/1 270/53/1 267/53/1
f 289/53/4 291/53/4 290/53/4 288/53/4
f 290/53/1 199/53/1 197/53/1 270/53/1
f 291/53/4 292/53/4 199/53/4 290/53/4
f 292/54/4 293/54/4 200/54/4 199/54/4
f 293/54/4 294/54/4 201/54/4 200/54/4
f 294/54/4 295/54/4 202/54/4 201/54/4
f 202/54/6 295/54/6 273/54/6 198/54/6
f 204/54/1 203/54/1 296/54/1 297/54/1
f 298/54/2 299/54/2 300/54/2 301/54/2
f 296/54/3 298/54/3 301/54/3 297/54/3
f 301/54/5 300/54/5 204/54/5 297/54/5
f 203/54/1 206/54/1 302/54/1 296/54/1
f 303/54/2 304/54/2 299/54/2 298/54/2
f 302/54/3 303/54/3 298/54/3 296/54/3
f 206/54/1 207/54/1 305/54/1 302/54/1
f 306/54/2 307/54/2 304/54/2 303/54/2
f 305/54/3 306/54/3 303/54/3 302/54/3
f 207/54/6 307/54/6 306/54/6 305/54/6
f 300/54/5 308/54/5 205/54/5 204/54/5
f 208/54/6 309/54/6 307/54/6 207/54/6
f 308/54/5 310/54/5 209/54/5 205/54/5
f 210/53/6 311/53/6 309/53/6 208/53/6
f 310/54/5 312/54/5 211/54/5 209/54/5
f 312/54/5 323/54/5 213/54/5 211/54/5
f 323/54/5 334/54/5 221/54/5 213/54/5
f 334/54/5 336/54/5 235/54/5 221/54/5
f 336/54/5 347/54/5 243/54/5 235/54/5
f 358/53/2 359/53/2 360/53/2 361/53/2
f 249/53/3 358/53/3 361/53/3 250/53/3
f 361/53/5 360/53/5 251/53/5 250/53/5
f 362/53/2 363/53/2 359/53/2 358/53/2
f 254/53/3 362/53/3 358/53/3 249/53/3
f 364/53/2 365/53/2 363/53/2 362/53/2
f 257/53/3 364/53/3 362/53/3 254/53/3
f 366/53/2 367/53/2 365/53/2 364/53/2
f 260/53/3 366/53/3 364/53/3 257/53/3
f 368/53/2 369/53/2 367/53/2 366/53/2
f 263/53/3 368/53/3 366/53/3 260/53/3
f 370/53/2 371/53/2 369/53/2 368/53/2
f 266/53/3 370/53/3 368/53/3 263/53/3
f 372/53/2 373/53/2 371/53/2 370/53/2
f 269/53/3 372/53/3 370/53/3 266/53/3
f 374/53/2 375/53/2 373/53/2 372/53/2
f 272/53/3 374/53/3 372/53/3 269/53/3
f 347/53/2 376/53/2 375/53/2 374/53/2
f 243/53/3 347/53/3 374/53/3 272/53/3
f 273/53/6 377/53/6 351/53/6 244/53/6
f 359/53/2 378/53/2 379/53/2 360/53/2
f 379/53/4 378/53/4 277/53/4 276/53/4
f 360/53/5 379/53/5 276/53/5 251/53/5
f 363/53/2 380/53/2 378/53/2 359/53/2
f 378/53/4 380/53/4 279/53/4 277/53/4
f 365/53/2 381/53/2 380/53/2 363/53/2
f 380/53/4 381/53/4 281/53/4 279/53/4
f 367/53/2 382/53/2 381/53/2 365/53/2
f 381/53/4 382/53/4 283/53/4 281/53/4
f 369/53/2 383/53/2 382/53/2 367/53/2
f 382/53/4 383/53/4 285/53/4 283/53/4
f 371/53/2 384/53/2 383/53/2 369/53/2
f 383/53/4 384/53/4 287/53/4 285/53/4
f 373/53/2 385/53/2 384/53/2 371/53/2
f 384/53/4 385/53/4 289/53/4 287/53/4
f 375/53/2 386/53/2 385/53/2 373/53/2
f 385/53/4 386/53/4 291/53/4 289/53/4
f 376/53/2 387/53/2 386/53/2 375/53/2
f 386/53/4 387/53/4 292/53/4 291/53/4
f 295/54/6 388/54/6 377/54/6 273/54/6
f 389/54/1 390/54/1 293/54/1 292/54/1
f 391/54/2 392/54/2 393/54/2 387/54/2
f 393/54/4 392/54/4 390/54/4 389/54/4
f 387/54/5 393/54/5 389/54/5 292/54/5
f 390/54/1 394/54/1 294/54/1 293/54/1
f 395/54/2 396/54/2 392/54/2 391/54/2
f 392/54/4 396/54/4 394/54/4 390/54/4
f 394/54/1 397/54/1 295/54/1 294/54/1
f 388/54/2 398/54/2 396/54/2 395/54/2
f 396/54/4 398/54/4 397/54/4 394/54/4
f 397/54/6 398/54/6 388/54/6 295/54/6
f 299/54/3 399/54/3 400/54/3 300/54/3
f 400/54/5 401/54/5 308/54/5 300/54/5
f 304/54/3 402/54/3 399/54/3 299/54/3
f 307/54/3 403/54/3 402/54/3 304/54/3
f 309/54/6 404/54/6 403/54/6 307/54/6
f 401/54/5 405/54/5 310/54/5 308/54/5
f 311/54/6 406/54/6 404/54/6 309/54/6
f 405/54/5 407/54/5 312/54/5 310/54/5
f 316/53/6 408/53/6 406/53/6 311/53/6
f 407/54/5 409/54/5 323/54/5 312/54/5
f 409/54/5 417/54/5 334/54/5 323/54/5
f 417/54/5 429/54/5 336/54/5 334/54/5
f 429/54/5 437/54/5 347/54/5 336/54/5
f 351/53/6 438/53/6 432/53/6 352/53/6
f 437/54/5 439/54/5 376/54/5 347/54/5
f 377/54/6 440/54/6 438/54/6 351/54/6
f 441/54/4 442/54/4 391/54/4 387/54/4
f 439/54/5 441/54/5 387/54/5 376/54/5
f 442/54/4 443/54/4 395/54/4 391/54/4
f 443/54/4 444/54/4 388/54/4 395/54/4
f 388/54/6 444/54/6 440/54/6 377/54/6
f 445/53/1 446/53/1 447/53/1 448/53/1
f 447/53/3 449/53/3 450/53/3 448/53/3
f 450/53/5 451/53/5 445/53/5 448/53/5
f 446/53/1 452/53/1 453/53/1 447/53/1
f 453/53/3 454/53/3 449/53/3 447/53/3
f 452/53/1 455/53/1 456/53/1 453/53/1
f 456/53/3 457/53/3 454/53/3 453/53/3
f 455/53/1 458/53/1 459/53/1 456/53/1
f 459/53/3 460/53/3 457/53/3 456/53/3
f 458/53/1 461/53/1 462/53/1 459/53/1
f 462/53/3 463/53/3 460/53/3 459/53/3
f 461/53/1 464/53/1 465/53/1 462/53/1
f 465/53/3 466/53/3 463/53/3 462/53/3
f 464/53/1 467/53/1 468/53/1 465/53/1
f 468/53/3 469/53/3 466/53/3 465/53/3
f 467/53/1 470/53/1 471/53/1 468/53/1
f 471/53/3 472/53/3 469/53/3 468/53/3
f 470/53/1 401/53/1 400/53/1 471/53/1
f 400/53/3 473/53/3 472/53/3 471/53/3
f 399/54/3 474/54/3 473/54/3 400/54/3
f 402/54/3 475/54/3 474/54/3 399/54/3
f 403/54/3 476/54/3 475/54/3 402/54/3
f 404/54/6 477/54/6 476/54/6 403/54/6
f 478/53/1 479/53/1 446/53/1 445/53/1
f 480/53/4 481/53/4 479/53/4 478/53/4
f 451/53/5 480/53/5 478/53/5 445/53/5
f 479/53/1 482/53/1 452/53/1 446/53/1
f 481/53/4 483/53/4 482/53/4 479/53/4
f 482/53/1 484/53/1 455/53/1 452/53/1
f 483/53/4 485/53/4 484/53/4 482/53/4
f 484/53/1 486/53/1 458/53/1 455/53/1
f 485/53/4 487/53/4 486/53/4 484/53/4
f 486/53/1 488/53/1 461/53/1 458/53/1
f 487/53/4 489/53/4 488/53/4 486/53/4
f 488/53/1 490/53/1 464/53/1 461/53/1
f 489/53/4 491/53/4 490/53/4 488/53/4
f 490/53/1 492/53/1 467/53/1 464/53/1
f 491/53/4 493/53/4 492/53/4 490/53/4
f 492/53/1 494/53/1 470/53/1 467/53/1
f 493/53/4 495/53/4 494/53/4 492/53/4
f 494/53/1 405/53/1 401/53/1 470/53/1
f 495/53/4 496/53/4 405/53/4 494/53/4
f 406/54/6 497/54/6 477/54/6 404/54/6
f 496/54/5 498/54/5 407/54/5 405/54/5
f 408/53/6 499/53/6 497/53/6 406/53/6
f 498/54/5 500/54/5 409/54/5 407/54/5
f 412/53/6 501/53/6 499/53/6 408/53/6
f 500/54/5 502/54/5 417/54/5 409/54/5
f 502/54/5 510/54/5 429/54/5 417/54/5
f 432/53/6 511/53/6 505/53/6 433/53/6
f 510/54/5 512/54/5 437/54/5 429/54/5
f 438/53/6 513/53/6 511/53/6 432/53/6
f 512/54/5 514/54/5 439/54/5 437/54/5
f 440/54/6 515/54/6 513/54/6 438/54/6
f 516/54/4 517/54/4 442/54/4 441/54/4
f 514/54/5 516/54/5 441/54/5 439/54/5
f 517/54/4 518/54/4 443/54/4 442/54/4
f 518/54/4 519/54/4 444/54/4 443/54/4
f 444/54/6 519/54/6 515/54/6 440/54/6
f 520/53/2 521/53/2 522/53/2 523/53/2
f 449/53/3 520/53/3 523/53/3 450/53/3
f 523/53/5 522/53/5 451/53/5 450/53/5
f 524/53/2 525/53/2 521/53/2 520/53/2
f 454/53/3 524/53/3 520/53/3 449/53/3
f 526/53/2 527/53/2 525/53/2 524/53/2
f 457/53/3 526/53/3 524/53/3 454/53/3
f 528/53/2 529/53/2 527/53/2 526/53/2
f 460/53/3 528/53/3 526/53/3 457/53/3
f 530/53/2 531/53/2 529/53/2 528/53/2
f 463/53/3 530/53/3 528/53/3 460/53/3
f 532/53/2 533/53/2 531/53/2 530/53/2
f 466/53/3 532/53/3 530/53/3 463/53/3
f 534/53/2 535/53/2 533/53/2 532/53/2
f 469/53/3 534/53/3 532/53/3 466/53/3
f 536/53/2 537/53/2 535/53/2 534/53/2
f 472/53/3 536/53/3 534/53/3 469/53/3
f 538/53/2 539/53/2 537/53/2 536/53/2
f 473/53/3 538/53/3 536/53/3 472/53/3
f 540/54/2 541/54/2 539/54/2 538/54/2
f 474/54/3 540/54/3 538/54/3 473/54/3
f 542/54/2 543/54/2 541/54/2 540/54/2
f 475/54/3 542/54/3 540/54/3 474/54/3
f 544/54/2 545/54/2 543/54/2 542/54/2
f 476/54/3 544/54/3 542/54/3 475/54/3
f 477/54/6 545/54/6 544/54/6 476/54/6
f 521/53/2 546/53/2 547/53/2 522/53/2
f 547/53/4 546/53/4 481/53/4 480/53/4
f 522/53/5 547/53/5 480/53/5 451/53/5
f 525/53/2 548/53/2 546/53/2 521/53/2
f 546/53/4 548/53/4 483/53/4 481/53/4
f 527/53/2 549/53/2 548/53/2 525/53/2
f 548/53/4 549/53/4 485/53/4 483/53/4
f 529/53/2 550/53/2 549/53/2 527/53/2
f 549/53/4 550/53/4 487/53/4 485/53/4
f 531/53/2 551/53/2 550/53/2 529/53/2
f 550/53/4 551/53/4 489/53/4 487/53/4
f 533/53/2 552/53/2 551/53/2 531/53/2
f 551/53/4 552/53/4 491/53/4 489/53/4
f 535/53/2 553/53/2 552/53/2 533/53/2
f 552/53/4 553/53/4 493/53/4 491/53/4
f 537/53/2 554/53/2 553/53/2 535/53/2
f 553/53/4 554/53/4 495/53/4 493/53/4
f 539/53/2 555/53/2 554/53/2 537/53/2
f 554/53/4 555/53/4 496/53/4 495/53/4
f 497/54/6 556/54/6 545/54/6 477/54/6
f 555/54/5 557/54/5 498/54/5 496/54/5
f 499/54/6 558/54/6 556/54/6 497/54/6
f 557/54/5 559/54/5 500/54/5 498/54/5
f 501/54/6 560/54/6 558/54/6 499/54/6
f 559/54/5 561/54/5 502/54/5 500/54/5
f 505/53/6 562/53/6 560/53/6 501/53/6
f 561/54/5 563/54/5 510/54/5 502/54/5
f 511/54/6 564/54/6 562/54/6 505/54/6
f 563/54/5 565/54/5 512/54/5 510/54/5
f 513/54/6 566/54/6 564/54/6 511/54/6
f 565/54/5 567/54/5 514/54/5 512/54/5
f 515/54/6 568/54/6 566/54/6 513/54/6
f 569/54/2 570/54/2 571/54/2 567/54/2
f 571/54/4 570/54/4 517/54/4 516/54/4
f 567/54/5 571/54/5 516/54/5 514/54/5
f 572/54/2 573/54/2 570/54/2 569/54/2
f 570/54/4 573/54/4 518/54/4 517/54/4
f 568/54/2 574/54/2 573/54/2 572/54/2
f 573/54/4 574/54/4 519/54/4 518/54/4
f 519/54/6 574/54/6 568/54/6 515/54/6
f 575/54/2 576/54/2 577/54/2 578/54/2
f 541/54/3 575/54/3 578/54/3 539/54/3
f 578/54/5 577/54/5 555/54/5 539/54/5
f 579/54/2 580/54/2 576/54/2 575/54/2
f 543/54/3 579/54/3 575/54/3 541/54/3
f 581/54/2 582/54/2 580/54/2 579/54/2
f 545/54/3 581/54/3 579/54/3 543/54/3
f 556/54/6 582/54/6 581/54/6 545/54/6
f 576/54/2 583/54/2 584/54/2 577/54/2
f 577/54/5 584/54/5 557/54/5 555/54/5
f 580/54/2 585/54/2 583/54/2 576/54/2
f 582/54/2 586/54/2 585/54/2 580/54/2
f 558/54/6 586/54/6 582/54/6 556/54/6
f 583/54/2 587/54/2 588/54/2 584/54/2
f 584/54/5 588/54/5 559/54/5 557/54/5
f 585/54/2 589/54/2 587/54/2 583/54/2
f 586/54/2 590/54/2 589/54/2 585/54/2
f 560/54/6 590/54/6 586/54/6 558/54/6
f 588/54/5 591/54/5 561/54/5 559/54/5
f 562/54/6 592/54/6 590/54/6 560/54/6
f 593/54/2 594/54/2 595/54/2 591/54/2
f 591/54/5 595/54/5 563/54/5 561/54/5
f 596/54/2 597/54/2 594/54/2 593/54/2
f 592/54/2 598/54/2 597/54/2 596/54/2
f 564/54/6 598/54/6 592/54/6 562/54/6
f 594/54/2 599/54/2 600/54/2 595/54/2
f 595/54/5 600/54/5 565/54/5 563/54/5
f 597/54/2 601/54/2 599/54/2 594/54/2
f 598/54/2 602/54/2 601/54/2 597/54/2
f 566/54/6 602/54/6 598/54/6 564/54/6
f 599/54/2 603/54/2 604/54/2 600/54/2
f 604/54/4 603/54/4 569/54/4 567/54/4
f 600/54/5 604/54/5 567/54/5 565/54/5
f 601/54/2 605/54/2 603/54/2 599/54/2
f 603/54/4 605/54/4 572/54/4 569/54/4
f 602/54/2 606/54/2 605/54/2 601/54/2
f 605/54/4 606/54/4 568/54/4 572/54/4
f 568/54/6 606/54/6 602/54/6 566/54/6
f 607/54/2 608/54/2 609/54/2 610/54/2
f 587/54/3 607/54/3 610/54/3 588/54/3
f 609/54/4 608/54/4 593/54/4 591/54/4
f 610/54/5 609/54/5 591/54/5 588/54/5
f 611/54/2 612/54/2 608/54/2 607/54/2
f 589/54/3 611/54/3 607/54/3 587/54/3
f 608/54/4 612/54/4 596/54/4 593/54/4
f 613/54/2 614/54/2 612/54/2 611/54/2
f 590/54/3 613/54/3 611/54/3 589/54/3
f 612/54/4 614/54/4 592/54/4 596/54/4
f 592/54/6 614/54/6 613/54/6 590/54/6
g emissive
usemtl emissive
f 152/22/1 180/22/1 181/22/1 150/22/1
f 181/22/3 182/22/3 178/22/3 150/22/3
f 183/22/4 184/22/4 180/22/4 152/22/4
f 180/22/1 185/22/1 186/22/1 181/22/1
f 186/22/3 187/22/3 182/22/3 181/22/3
f 184/22/4 188/22/4 185/22/4 180/22/4
f 185/22/1 189/22/1 190/22/1 186/22/1
f 190/22/3 191/22/3 187/22/3 186/22/3
f 188/22/4 192/22/4 189/22/4 185/22/4
f 189/22/6 192/22/6 191/22/6 190/22/6
f 178/22/1 182/22/1 214/22/1 176/22/1
f 214/22/3 215/22/3 212/22/3 176/22/3
f 182/22/1 187/22/1 216/22/1 214/22/1
f 216/22/3 217/22/3 215/22/3 214/22/3
f 187/22/1 191/22/1 218/22/1 216/22/1
f 218/22/3 219/22/3 217/22/3 216/22/3
f 191/22/6 220/22/6 219/22/6 218/22/6
f 192/23/1 222/23/1 223/23/1 191/23/1
f 223/23/3 224/23/3 220/23/3 191/23/3
f 225/23/4 226/23/4 222/23/4 192/23/4
f 222/23/1 227/23/1 228/23/1 223/23/1
f 228/23/3 229/23/3 224/23/3 223/23/3
f 226/23/4 230/23/4 227/23/4 222/23/4
f 227/24/1 231/24/1 232/24/1 228/24/1
f 232/24/3 233/24/3 229/24/3 228/24/3
f 230/24/4 234/24/4 231/24/4 227/24/4
f 231/24/6 234/24/6 233/24/6 232/24/6
f 194/22/1 236/22/1 184/22/1 183/22/1
f 237/22/4 238/22/4 236/22/4 194/22/4
f 236/22/1 239/22/1 188/22/1 184/22/1
f 238/22/4 240/22/4 239/22/4 236/22/4
f 239/22/1 241/22/1 192/22/1 188/22/1
f 240/22/4 242/22/4 241/22/4 239/22/4
f 241/22/6 242/22/6 225/22/6 192/22/6
f 212/22/1 215/22/1 313/22/1 210/22/1
f 314/22/2 315/22/2 316/22/2 311/22/2
f 313/22/3 314/22/3 311/22/3 210/22/3
f 215/22/1 217/22/1 317/22/1 313/22/1
f 318/22/2 319/22/2 315/22/2 314/22/2
f 317/22/3 318/22/3 314/22/3 313/22/3
f 217/22/1 219/22/1 320/22/1 317/22/1
f 321/22/2 322/22/2 319/22/2 318/22/2
f 320/22/3 321/22/3 318/22/3 317/22/3
f 219/22/6 322/22/6 321/22/6 320/22/6
f 220/23/1 224/23/1 324/23/1 219/23/1
f 325/23/2 326/23/2 327/23/2 322/23/2
f 324/23/3 325/23/3 322/23/3 219/23/3
f 224/23/1 229/23/1 328/23/1 324/23/1
f 329/23/2 330/23/2 326/23/2 325/23/2
f 328/23/3 329/23/3 325/23/3 324/23/3
f 229/24/1 233/24/1 331/24/1 328/24/1
f 332/24/2 333/24/2 330/24/2 329/24/2
f 331/24/3 332/24/3 329/24/3 328/24/3
f 233/24/6 333/24/6 332/24/6 331/24/6
f 234/24/6 335/24/6 333/24/6 233/24/6
f 242/23/1 337/23/1 226/23/1 225/23/1
f 338/23/2 339/23/2 340/23/2 341/23/2
f 340/23/4 339/23/4 337/23/4 242/23/4
f 337/23/1 342/23/1 230/23/1 226/23/1
f 343/23/2 344/23/2 339/23/2 338/23/2
f 339/23/4 344/23/4 342/23/4 337/23/4
f 342/24/1 345/24/1 234/24/1 230/24/1
f 335/24/2 346/24/2 344/24/2 343/24/2
f 344/24/4 346/24/4 345/24/4 342/24/4
f 345/24/6 346/24/6 335/24/6 234/24/6
f 244/22/1 348/22/1 238/22/1 237/22/1
f 349/22/2 350/22/2 351/22/2 352/22/2
f 351/22/4 350/22/4 348/22/4 244/22/4
f 348/22/1 353/22/1 240/22/1 238/22/1
f 354/22/2 355/22/2 350/22/2 349/22/2
f 350/22/4 355/22/4 353/22/4 348/22/4
f 353/22/1 356/22/1 242/22/1 240/22/1
f 340/22/2 357/22/2 355/22/2 354/22/2
f 355/22/4 357/22/4 356/22/4 353/22/4
f 356/22/6 357/22/6 340/22/6 242/22/6
f 410/22/2 411/22/2 412/22/2 408/22/2
f 315/22/3 410/22/3 408/22/3 316/22/3
f 413/22/2 414/22/2 411/22/2 410/22/2
f 319/22/3 413/22/3 410/22/3 315/22/3
f 415/22/2 416/22/2 414/22/2 413/22/2
f 322/22/3 415/22/3 413/22/3 319/22/3
f 327/22/6 416/22/6 415/22/6 322/22/6
f 418/23/2 419/23/2 420/23/2 416/23/2
f 326/23/3 418/23/3 416/23/3 327/23/3
f 420/23/4 419/23/4 338/23/4 341/23/4
f 421/23/2 422/23/2 419/23/2 418/23/2
f 330/23/3 421/23/3 418/23/3 326/23/3
f 419/23/4 422/23/4 343/23/4 338/23/4
f 423/24/2 424/24/2 422/24/2 421/24/2
f 333/24/3 423/24/3 421/24/3 330/24/3
f 422/24/4 424/24/4 335/24/4 343/24/4
f 335/24/1 425/24/1 426/24/1 333/24/1
f 427/24/2 428/24/2 424/24/2 423/24/2
f 426/24/3 427/24/3 423/24/3 333/24/3
f 424/24/4 428/24/4 425/24/4 335/24/4
f 425/24/6 428/24/6 427/24/6 426/24/6
f 430/22/2 431/22/2 432/22/2 433/22/2
f 432/22/4 431/22/4 349/22/4 352/22/4
f 434/22/2 435/22/2 431/22/2 430/22/2
f 431/22/4 435/22/4 354/22/4 349/22/4
f 420/22/2 436/22/2 435/22/2 434/22/2
f 435/22/4 436/22/4 340/22/4 354/22/4
f 340/22/6 436/22/6 420/22/6 341/22/6
f 503/22/2 504/22/2 505/22/2 501/22/2
f 411/22/3 503/22/3 501/22/3 412/22/3
f 505/22/4 504/22/4 430/22/4 433/22/4
f 506/22/2 507/22/2 504/22/2 503/22/2
f 414/22/3 506/22/3 503/22/3 411/22/3
f 504/22/4 507/22/4 434/22/4 430/22/4
f 508/22/2 509/22/2 507/22/2 506/22/2
f 416/22/3 508/22/3 506/22/3 414/22/3
f 507/22/4 509/22/4 420/22/4 434/22/4
f 420/22/6 509/22/6 508/22/6 416/22/6
