# Dungine campfire_remains; 1 voxel = 1/16 unit; Y-up floor-center origin
mtllib campfire_remains.mtl
o campfire_remains
s off
v -0.437500 0.000000 -0.125000
v -0.437500 0.062500 -0.125000
v -0.437500 0.062500 -0.187500
v -0.437500 0.000000 -0.187500
v -0.375000 0.062500 -0.187500
v -0.375000 0.000000 -0.187500
v -0.375000 0.000000 -0.125000
v -0.375000 0.062500 -0.125000
v -0.437500 0.000000 0.187500
v -0.437500 0.062500 0.187500
v -0.437500 0.062500 0.125000
v -0.437500 0.000000 0.125000
v -0.375000 0.062500 0.125000
v -0.375000 0.000000 0.125000
v -0.375000 0.000000 0.187500
v -0.375000 0.062500 0.187500
v -0.375000 0.062500 -0.250000
v -0.375000 0.000000 -0.250000
v -0.312500 0.062500 -0.250000
v -0.312500 0.000000 -0.250000
v -0.312500 0.000000 -0.187500
v -0.312500 0.062500 -0.187500
v -0.312500 0.000000 -0.125000
v -0.375000 0.125000 -0.125000
v -0.375000 0.125000 -0.187500
v -0.312500 0.125000 -0.187500
v -0.312500 0.062500 -0.125000
v -0.312500 0.125000 -0.125000
v -0.375000 0.000000 -0.062500
v -0.375000 0.062500 -0.062500
v -0.312500 0.000000 -0.062500
v -0.312500 0.062500 -0.062500
v -0.375000 0.062500 0.062500
v -0.375000 0.000000 0.062500
v -0.312500 0.062500 0.062500
v -0.312500 0.000000 0.062500
v -0.312500 0.000000 0.125000
v -0.312500 0.062500 0.125000
v -0.312500 0.000000 0.187500
v -0.375000 0.125000 0.187500
v -0.375000 0.125000 0.125000
v -0.312500 0.125000 0.125000
v -0.312500 0.062500 0.187500
v -0.312500 0.125000 0.187500
v -0.375000 0.000000 0.250000
v -0.375000 0.062500 0.250000
v -0.312500 0.000000 0.250000
v -0.312500 0.062500 0.250000
v -0.312500 0.062500 -0.312500
v -0.312500 0.000000 -0.312500
v -0.250000 0.062500 -0.312500
v -0.250000 0.062500 -0.250000
v -0.250000 0.000000 -0.250000
v -0.250000 0.000000 -0.312500
v -0.250000 0.000000 -0.187500
v -0.312500 0.125000 -0.250000
v -0.250000 0.125000 -0.250000
v -0.250000 0.125000 -0.187500
v -0.250000 0.062500 -0.187500
v -0.250000 0.000000 -0.125000
v -0.250000 0.125000 -0.125000
v -0.250000 0.000000 -0.062500
v -0.312500 0.125000 -0.062500
v -0.250000 0.125000 -0.062500
v -0.250000 0.062500 -0.062500
v -0.250000 0.062500 -0.125000
v -0.312500 0.000000 0.000000
v -0.312500 0.062500 0.000000
v -0.250000 0.062500 0.000000
v -0.250000 0.000000 0.000000
v -0.250000 0.062500 0.062500
v -0.250000 0.000000 0.062500
v -0.250000 0.000000 0.125000
v -0.312500 0.125000 0.062500
v -0.250000 0.125000 0.062500
v -0.250000 0.125000 0.125000
v -0.250000 0.062500 0.125000
v -0.250000 0.000000 0.187500
v -0.250000 0.125000 0.187500
v -0.250000 0.000000 0.250000
v -0.312500 0.125000 0.250000
v -0.250000 0.125000 0.250000
v -0.250000 0.062500 0.250000
v -0.250000 0.062500 0.187500
v -0.312500 0.000000 0.312500
v -0.312500 0.062500 0.312500
v -0.250000 0.062500 0.312500
v -0.250000 0.000000 0.312500
v -0.187500 0.062500 -0.250000
v -0.187500 0.062500 -0.187500
v -0.187500 0.000000 -0.187500
v -0.187500 0.000000 -0.250000
v -0.187500 0.000000 -0.125000
v -0.187500 0.125000 -0.187500
v -0.187500 0.125000 -0.125000
v -0.187500 0.062500 -0.125000
v -0.187500 0.000000 -0.062500
v -0.187500 0.062500 -0.062500
v -0.250000 0.125000 0.000000
v -0.187500 0.125000 -0.062500
v -0.187500 0.062500 0.000000
v -0.250000 0.187500 0.000000
v -0.250000 0.187500 -0.062500
v -0.187500 0.187500 -0.062500
v -0.187500 0.187500 0.000000
v -0.187500 0.062500 0.062500
v -0.187500 0.125000 0.062500
v -0.250000 0.187500 0.062500
v -0.187500 0.187500 0.062500
v -0.187500 0.000000 0.062500
v -0.187500 0.000000 0.125000
v -0.187500 0.062500 0.125000
v -0.187500 0.000000 0.187500
v -0.187500 0.125000 0.125000
v -0.187500 0.125000 0.187500
v -0.187500 0.062500 0.187500
v -0.187500 0.062500 0.250000
v -0.187500 0.000000 0.250000
v -0.187500 0.000000 -0.312500
v -0.187500 0.062500 -0.312500
v -0.187500 0.062500 -0.375000
v -0.187500 0.000000 -0.375000
v -0.125000 0.062500 -0.375000
v -0.125000 0.000000 -0.375000
v -0.125000 0.000000 -0.312500
v -0.125000 0.062500 -0.312500
v -0.125000 0.062500 -0.187500
v -0.125000 0.000000 -0.187500
v -0.125000 0.000000 -0.125000
v -0.125000 0.062500 -0.125000
v -0.125000 0.000000 -0.062500
v -0.125000 0.062500 -0.062500
v -0.187500 0.000000 0.000000
v -0.125000 0.000000 0.000000
v -0.125000 0.125000 -0.062500
v -0.125000 0.187500 -0.062500
v -0.125000 0.187500 0.000000
v -0.125000 0.000000 0.062500
v -0.125000 0.062500 0.062500
v -0.125000 0.125000 0.062500
v -0.125000 0.187500 0.062500
v -0.125000 0.000000 0.125000
v -0.125000 0.062500 0.125000
v -0.125000 0.000000 0.187500
v -0.125000 0.062500 0.187500
v -0.187500 0.000000 0.375000
v -0.187500 0.062500 0.375000
v -0.187500 0.062500 0.312500
v -0.187500 0.000000 0.312500
v -0.125000 0.062500 0.312500
v -0.125000 0.000000 0.312500
v -0.125000 0.000000 0.375000
v -0.125000 0.062500 0.375000
v -0.125000 0.062500 -0.437500
v -0.125000 0.000000 -0.437500
v -0.062500 0.062500 -0.437500
v -0.062500 0.000000 -0.437500
v -0.062500 0.000000 -0.375000
v -0.062500 0.062500 -0.375000
v -0.062500 0.000000 -0.312500
v -0.125000 0.125000 -0.312500
v -0.125000 0.125000 -0.375000
v -0.062500 0.125000 -0.375000
v -0.062500 0.062500 -0.312500
v -0.062500 0.125000 -0.312500
v -0.125000 0.000000 -0.250000
v -0.125000 0.062500 -0.250000
v -0.062500 0.000000 -0.250000
v -0.062500 0.062500 -0.250000
v -0.062500 0.062500 -0.187500
v -0.062500 0.000000 -0.187500
v -0.062500 0.000000 -0.125000
v -0.062500 0.062500 -0.125000
v -0.062500 0.000000 -0.062500
v -0.062500 0.062500 -0.062500
v -0.062500 0.000000 0.000000
v -0.062500 0.125000 -0.062500
v -0.062500 0.187500 -0.062500
v -0.062500 0.187500 0.000000
v -0.062500 0.000000 0.062500
v -0.062500 0.062500 0.062500
v -0.062500 0.125000 0.062500
v -0.062500 0.187500 0.062500
v -0.062500 0.000000 0.125000
v -0.062500 0.062500 0.125000
v -0.062500 0.000000 0.187500
v -0.062500 0.062500 0.187500
v -0.125000 0.062500 0.250000
v -0.125000 0.000000 0.250000
v -0.062500 0.062500 0.250000
v -0.062500 0.000000 0.250000
v -0.062500 0.000000 0.312500
v -0.062500 0.062500 0.312500
v -0.062500 0.000000 0.375000
v -0.125000 0.125000 0.375000
v -0.125000 0.125000 0.312500
v -0.062500 0.125000 0.312500
v -0.062500 0.062500 0.375000
v -0.062500 0.125000 0.375000
v -0.125000 0.000000 0.437500
v -0.125000 0.062500 0.437500
v -0.062500 0.000000 0.437500
v -0.062500 0.062500 0.437500
v -0.062500 0.062500 -0.500000
v -0.062500 0.000000 -0.500000
v 0.000000 0.062500 -0.500000
v 0.000000 0.062500 -0.437500
v 0.000000 0.000000 -0.437500
v 0.000000 0.000000 -0.500000
v 0.000000 0.000000 -0.375000
v -0.062500 0.125000 -0.437500
v 0.000000 0.125000 -0.437500
v 0.000000 0.125000 -0.375000
v 0.000000 0.062500 -0.375000
v 0.000000 0.000000 -0.312500
v 0.000000 0.125000 -0.312500
v 0.000000 0.000000 -0.250000
v -0.062500 0.125000 -0.250000
v 0.000000 0.125000 -0.250000
v 0.000000 0.062500 -0.250000
v 0.000000 0.062500 -0.312500
v 0.000000 0.062500 -0.187500
v 0.000000 0.000000 -0.187500
v -0.062500 0.125000 -0.187500
v 0.000000 0.125000 -0.187500
v 0.000000 0.000000 -0.125000
v -0.062500 0.125000 -0.125000
v 0.000000 0.125000 -0.125000
v 0.000000 0.000000 -0.062500
v 0.000000 0.125000 -0.062500
v 0.000000 0.000000 0.000000
v 0.000000 0.187500 -0.062500
v 0.000000 0.187500 0.000000
v 0.000000 0.000000 0.062500
v 0.000000 0.125000 0.062500
v 0.000000 0.187500 0.062500
v 0.000000 0.000000 0.125000
v -0.062500 0.125000 0.125000
v 0.000000 0.125000 0.125000
v 0.000000 0.000000 0.187500
v -0.062500 0.125000 0.187500
v 0.000000 0.125000 0.187500
v 0.000000 0.062500 0.187500
v 0.000000 0.062500 0.250000
v 0.000000 0.000000 0.250000
v -0.062500 0.125000 0.250000
v 0.000000 0.125000 0.250000
v 0.000000 0.000000 0.312500
v 0.000000 0.125000 0.312500
v 0.000000 0.062500 0.312500
v 0.000000 0.000000 0.375000
v 0.000000 0.125000 0.375000
v 0.000000 0.000000 0.437500
v -0.062500 0.125000 0.437500
v 0.000000 0.125000 0.437500
v 0.000000 0.062500 0.437500
v 0.000000 0.062500 0.375000
v -0.062500 0.000000 0.500000
v -0.062500 0.062500 0.500000
v 0.000000 0.062500 0.500000
v 0.000000 0.000000 0.500000
v 0.062500 0.062500 -0.437500
v 0.062500 0.062500 -0.375000
v 0.062500 0.000000 -0.375000
v 0.062500 0.000000 -0.437500
v 0.062500 0.000000 -0.312500
v 0.062500 0.125000 -0.375000
v 0.062500 0.125000 -0.312500
v 0.062500 0.062500 -0.312500
v 0.062500 0.062500 -0.250000
v 0.062500 0.000000 -0.250000
v 0.062500 0.125000 -0.250000
v 0.062500 0.125000 -0.187500
v 0.062500 0.062500 -0.187500
v 0.062500 0.000000 -0.187500
v 0.062500 0.000000 -0.125000
v 0.062500 0.125000 -0.125000
v 0.062500 0.062500 -0.125000
v 0.062500 0.000000 -0.062500
v 0.062500 0.125000 -0.062500
v 0.062500 0.062500 -0.062500
v 0.062500 0.000000 0.000000
v 0.062500 0.187500 -0.062500
v 0.062500 0.187500 0.000000
v 0.062500 0.000000 0.062500
v 0.062500 0.125000 0.062500
v 0.062500 0.187500 0.062500
v 0.062500 0.000000 0.125000
v 0.062500 0.125000 0.125000
v 0.062500 0.062500 0.125000
v 0.062500 0.062500 0.062500
v 0.062500 0.000000 0.187500
v 0.062500 0.062500 0.187500
v 0.062500 0.125000 0.187500
v 0.062500 0.125000 0.250000
v 0.062500 0.062500 0.250000
v 0.062500 0.062500 0.312500
v 0.062500 0.000000 0.312500
v 0.062500 0.000000 0.250000
v 0.062500 0.000000 0.375000
v 0.062500 0.125000 0.312500
v 0.062500 0.125000 0.375000
v 0.062500 0.062500 0.375000
v 0.062500 0.062500 0.437500
v 0.062500 0.000000 0.437500
v 0.125000 0.062500 -0.375000
v 0.125000 0.062500 -0.312500
v 0.125000 0.000000 -0.312500
v 0.125000 0.000000 -0.375000
v 0.125000 0.062500 -0.187500
v 0.125000 0.000000 -0.187500
v 0.125000 0.000000 -0.125000
v 0.125000 0.062500 -0.125000
v 0.125000 0.000000 -0.062500
v 0.125000 0.062500 -0.062500
v 0.125000 0.000000 0.000000
v 0.125000 0.125000 -0.062500
v 0.125000 0.187500 -0.062500
v 0.125000 0.187500 0.000000
v 0.125000 0.000000 0.062500
v 0.125000 0.062500 0.062500
v 0.125000 0.125000 0.062500
v 0.125000 0.187500 0.062500
v 0.125000 0.000000 0.125000
v 0.125000 0.062500 0.125000
v 0.125000 0.000000 0.187500
v 0.125000 0.062500 0.187500
v 0.125000 0.062500 0.312500
v 0.125000 0.062500 0.375000
v 0.125000 0.000000 0.375000
v 0.125000 0.000000 0.312500
v 0.187500 0.062500 -0.187500
v 0.187500 0.000000 -0.187500
v 0.187500 0.000000 -0.125000
v 0.187500 0.062500 -0.125000
v 0.187500 0.000000 -0.062500
v 0.187500 0.062500 -0.062500
v 0.187500 0.062500 0.000000
v 0.187500 0.000000 0.000000
v 0.187500 0.125000 -0.062500
v 0.187500 0.187500 -0.062500
v 0.187500 0.187500 0.000000
v 0.187500 0.062500 0.062500
v 0.187500 0.000000 0.062500
v 0.187500 0.125000 0.062500
v 0.187500 0.187500 0.062500
v 0.187500 0.000000 0.125000
v 0.187500 0.062500 0.125000
v 0.187500 0.000000 0.187500
v 0.187500 0.062500 0.187500
v 0.187500 0.062500 -0.250000
v 0.187500 0.000000 -0.250000
v 0.250000 0.062500 -0.250000
v 0.250000 0.000000 -0.250000
v 0.250000 0.000000 -0.187500
v 0.250000 0.062500 -0.187500
v 0.250000 0.000000 -0.125000
v 0.187500 0.125000 -0.125000
v 0.187500 0.125000 -0.187500
v 0.250000 0.125000 -0.187500
v 0.250000 0.062500 -0.125000
v 0.250000 0.125000 -0.125000
v 0.250000 0.000000 -0.062500
v 0.250000 0.062500 -0.062500
v 0.250000 0.125000 -0.062500
v 0.250000 0.125000 0.000000
v 0.250000 0.062500 0.000000
v 0.250000 0.187500 -0.062500
v 0.250000 0.187500 0.000000
v 0.250000 0.125000 0.062500
v 0.250000 0.062500 0.062500
v 0.250000 0.187500 0.062500
v 0.250000 0.000000 0.062500
v 0.250000 0.000000 0.125000
v 0.250000 0.062500 0.125000
v 0.250000 0.000000 0.187500
v 0.187500 0.125000 0.187500
v 0.187500 0.125000 0.125000
v 0.250000 0.125000 0.125000
v 0.250000 0.062500 0.187500
v 0.250000 0.125000 0.187500
v 0.187500 0.000000 0.250000
v 0.187500 0.062500 0.250000
v 0.250000 0.000000 0.250000
v 0.250000 0.062500 0.250000
v 0.250000 0.062500 -0.312500
v 0.250000 0.000000 -0.312500
v 0.312500 0.062500 -0.312500
v 0.312500 0.062500 -0.250000
v 0.312500 0.000000 -0.250000
v 0.312500 0.000000 -0.312500
v 0.312500 0.000000 -0.187500
v 0.250000 0.125000 -0.250000
v 0.312500 0.125000 -0.250000
v 0.312500 0.125000 -0.187500
v 0.312500 0.062500 -0.187500
v 0.312500 0.000000 -0.125000
v 0.312500 0.125000 -0.125000
v 0.312500 0.000000 -0.062500
v 0.312500 0.125000 -0.062500
v 0.312500 0.062500 -0.062500
v 0.312500 0.062500 -0.125000
v 0.250000 0.000000 0.000000
v 0.312500 0.062500 0.000000
v 0.312500 0.000000 0.000000
v 0.312500 0.062500 0.062500
v 0.312500 0.000000 0.062500
v 0.312500 0.000000 0.125000
v 0.312500 0.125000 0.062500
v 0.312500 0.125000 0.125000
v 0.312500 0.062500 0.125000
v 0.312500 0.000000 0.187500
v 0.312500 0.125000 0.187500
v 0.312500 0.000000 0.250000
v 0.250000 0.125000 0.250000
v 0.312500 0.125000 0.250000
v 0.312500 0.062500 0.250000
v 0.312500 0.062500 0.187500
v 0.250000 0.000000 0.312500
v 0.250000 0.062500 0.312500
v 0.312500 0.062500 0.312500
v 0.312500 0.000000 0.312500
v 0.375000 0.062500 -0.250000
v 0.375000 0.062500 -0.187500
v 0.375000 0.000000 -0.187500
v 0.375000 0.000000 -0.250000
v 0.375000 0.000000 -0.125000
v 0.375000 0.125000 -0.187500
v 0.375000 0.125000 -0.125000
v 0.375000 0.062500 -0.125000
v 0.375000 0.062500 -0.062500
v 0.375000 0.000000 -0.062500
v 0.375000 0.062500 0.062500
v 0.375000 0.062500 0.125000
v 0.375000 0.000000 0.125000
v 0.375000 0.000000 0.062500
v 0.375000 0.000000 0.187500
v 0.375000 0.125000 0.125000
v 0.375000 0.125000 0.187500
v 0.375000 0.062500 0.187500
v 0.375000 0.062500 0.250000
v 0.375000 0.000000 0.250000
v 0.437500 0.062500 -0.187500
v 0.437500 0.062500 -0.125000
v 0.437500 0.000000 -0.125000
v 0.437500 0.000000 -0.187500
v 0.437500 0.062500 0.125000
v 0.437500 0.062500 0.187500
v 0.437500 0.000000 0.187500
v 0.437500 0.000000 0.125000
vt 0.03125000 0.96875000
vt 0.09375000 0.96875000
vt 0.15625000 0.96875000
vt 0.21875000 0.96875000
vt 0.28125000 0.96875000
vt 0.34375000 0.96875000
vt 0.40625000 0.96875000
vt 0.46875000 0.96875000
vt 0.53125000 0.96875000
vt 0.59375000 0.96875000
vt 0.65625000 0.96875000
vt 0.71875000 0.96875000
vt 0.78125000 0.96875000
vt 0.84375000 0.96875000
vt 0.90625000 0.96875000
vt 0.96875000 0.96875000
vt 0.03125000 0.90625000
vt 0.09375000 0.90625000
vt 0.15625000 0.90625000
vt 0.21875000 0.90625000
vt 0.28125000 0.90625000
vt 0.34375000 0.90625000
vt 0.40625000 0.90625000
vt 0.46875000 0.90625000
vt 0.53125000 0.90625000
vt 0.59375000 0.90625000
vt 0.65625000 0.90625000
vt 0.71875000 0.90625000
vt 0.78125000 0.90625000
vt 0.84375000 0.90625000
vt 0.90625000 0.90625000
vt 0.96875000 0.90625000
vt 0.03125000 0.84375000
vt 0.09375000 0.84375000
vt 0.15625000 0.84375000
vt 0.21875000 0.84375000
vt 0.28125000 0.84375000
vt 0.34375000 0.84375000
vt 0.40625000 0.84375000
vt 0.46875000 0.84375000
vt 0.53125000 0.84375000
vt 0.59375000 0.84375000
vt 0.65625000 0.84375000
vt 0.71875000 0.84375000
vt 0.78125000 0.84375000
vt 0.84375000 0.84375000
vt 0.90625000 0.84375000
vt 0.96875000 0.84375000
vt 0.03125000 0.78125000
vt 0.09375000 0.78125000
vt 0.15625000 0.78125000
vt 0.21875000 0.78125000
vt 0.28125000 0.78125000
vt 0.34375000 0.78125000
vt 0.40625000 0.78125000
vt 0.46875000 0.78125000
vt 0.53125000 0.78125000
vt 0.59375000 0.78125000
vt 0.65625000 0.78125000
vt 0.71875000 0.78125000
vt 0.78125000 0.78125000
vt 0.84375000 0.78125000
vt 0.90625000 0.78125000
vt 0.96875000 0.78125000
vt 0.03125000 0.71875000
vt 0.09375000 0.71875000
vt 0.15625000 0.71875000
vt 0.21875000 0.71875000
vt 0.28125000 0.71875000
vt 0.34375000 0.71875000
vt 0.40625000 0.71875000
vt 0.46875000 0.71875000
vt 0.53125000 0.71875000
vt 0.59375000 0.71875000
vt 0.65625000 0.71875000
vt 0.71875000 0.71875000
vt 0.78125000 0.71875000
vt 0.84375000 0.71875000
vt 0.90625000 0.71875000
vt 0.96875000 0.71875000
vt 0.03125000 0.65625000
vt 0.09375000 0.65625000
vt 0.15625000 0.65625000
vt 0.21875000 0.65625000
vt 0.28125000 0.65625000
vt 0.34375000 0.65625000
vt 0.40625000 0.65625000
vt 0.46875000 0.65625000
vt 0.53125000 0.65625000
vt 0.59375000 0.65625000
vt 0.65625000 0.65625000
vt 0.71875000 0.65625000
vt 0.78125000 0.65625000
vt 0.84375000 0.65625000
vt 0.90625000 0.65625000
vt 0.96875000 0.65625000
vt 0.03125000 0.59375000
vt 0.09375000 0.59375000
vt 0.15625000 0.59375000
vt 0.21875000 0.59375000
vt 0.28125000 0.59375000
vt 0.34375000 0.59375000
vt 0.40625000 0.59375000
vt 0.46875000 0.59375000
vt 0.53125000 0.59375000
vt 0.59375000 0.59375000
vt 0.65625000 0.59375000
vt 0.71875000 0.59375000
vt 0.78125000 0.59375000
vt 0.84375000 0.59375000
vt 0.90625000 0.59375000
vt 0.96875000 0.59375000
vt 0.03125000 0.53125000
vt 0.09375000 0.53125000
vt 0.15625000 0.53125000
vt 0.21875000 0.53125000
vt 0.28125000 0.53125000
vt 0.34375000 0.53125000
vt 0.40625000 0.53125000
vt 0.46875000 0.53125000
vt 0.53125000 0.53125000
vt 0.59375000 0.53125000
vt 0.65625000 0.53125000
vt 0.71875000 0.53125000
vt 0.78125000 0.53125000
vt 0.84375000 0.53125000
vt 0.90625000 0.53125000
vt 0.96875000 0.53125000
vt 0.03125000 0.46875000
vt 0.09375000 0.46875000
vt 0.15625000 0.46875000
vt 0.21875000 0.46875000
vt 0.28125000 0.46875000
vt 0.34375000 0.46875000
vt 0.40625000 0.46875000
vt 0.46875000 0.46875000
vt 0.53125000 0.46875000
vt 0.59375000 0.46875000
vt 0.65625000 0.46875000
vt 0.71875000 0.46875000
vt 0.78125000 0.46875000
vt 0.84375000 0.46875000
vt 0.90625000 0.46875000
vt 0.96875000 0.46875000
vt 0.03125000 0.40625000
vt 0.09375000 0.40625000
vt 0.15625000 0.40625000
vt 0.21875000 0.40625000
vt 0.28125000 0.40625000
vt 0.34375000 0.40625000
vt 0.40625000 0.40625000
vt 0.46875000 0.40625000
vt 0.53125000 0.40625000
vt 0.59375000 0.40625000
vt 0.65625000 0.40625000
vt 0.71875000 0.40625000
vt 0.78125000 0.40625000
vt 0.84375000 0.40625000
vt 0.90625000 0.40625000
vt 0.96875000 0.40625000
vt 0.03125000 0.34375000
vt 0.09375000 0.34375000
vt 0.15625000 0.34375000
vt 0.21875000 0.34375000
vt 0.28125000 0.34375000
vt 0.34375000 0.34375000
vt 0.40625000 0.34375000
vt 0.46875000 0.34375000
vt 0.53125000 0.34375000
vt 0.59375000 0.34375000
vt 0.65625000 0.34375000
vt 0.71875000 0.34375000
vt 0.78125000 0.34375000
vt 0.84375000 0.34375000
vt 0.90625000 0.34375000
vt 0.96875000 0.34375000
vt 0.03125000 0.28125000
vt 0.09375000 0.28125000
vt 0.15625000 0.28125000
vt 0.21875000 0.28125000
vt 0.28125000 0.28125000
vt 0.34375000 0.28125000
vt 0.40625000 0.28125000
vt 0.46875000 0.28125000
vt 0.53125000 0.28125000
vt 0.59375000 0.28125000
vt 0.65625000 0.28125000
vt 0.71875000 0.28125000
vt 0.78125000 0.28125000
vt 0.84375000 0.28125000
vt 0.90625000 0.28125000
vt 0.96875000 0.28125000
vt 0.03125000 0.21875000
vt 0.09375000 0.21875000
vt 0.15625000 0.21875000
vt 0.21875000 0.21875000
vt 0.28125000 0.21875000
vt 0.34375000 0.21875000
vt 0.40625000 0.21875000
vt 0.46875000 0.21875000
vt 0.53125000 0.21875000
vt 0.59375000 0.21875000
vt 0.65625000 0.21875000
vt 0.71875000 0.21875000
vt 0.78125000 0.21875000
vt 0.84375000 0.21875000
vt 0.90625000 0.21875000
vt 0.96875000 0.21875000
vt 0.03125000 0.15625000
vt 0.09375000 0.15625000
vt 0.15625000 0.15625000
vt 0.21875000 0.15625000
vt 0.28125000 0.15625000
vt 0.34375000 0.15625000
vt 0.40625000 0.15625000
vt 0.46875000 0.15625000
vt 0.53125000 0.15625000
vt 0.59375000 0.15625000
vt 0.65625000 0.15625000
vt 0.71875000 0.15625000
vt 0.78125000 0.15625000
vt 0.84375000 0.15625000
vt 0.90625000 0.15625000
vt 0.96875000 0.15625000
vt 0.03125000 0.09375000
vt 0.09375000 0.09375000
vt 0.15625000 0.09375000
vt 0.21875000 0.09375000
vt 0.28125000 0.09375000
vt 0.34375000 0.09375000
vt 0.40625000 0.09375000
vt 0.46875000 0.09375000
vt 0.53125000 0.09375000
vt 0.59375000 0.09375000
vt 0.65625000 0.09375000
vt 0.71875000 0.09375000
vt 0.78125000 0.09375000
vt 0.84375000 0.09375000
vt 0.90625000 0.09375000
vt 0.96875000 0.09375000
vt 0.03125000 0.03125000
vt 0.09375000 0.03125000
vt 0.15625000 0.03125000
vt 0.21875000 0.03125000
vt 0.28125000 0.03125000
vt 0.34375000 0.03125000
vt 0.40625000 0.03125000
vt 0.46875000 0.03125000
vt 0.53125000 0.03125000
vt 0.59375000 0.03125000
vt 0.65625000 0.03125000
vt 0.71875000 0.03125000
vt 0.78125000 0.03125000
vt 0.84375000 0.03125000
vt 0.90625000 0.03125000
vt 0.96875000 0.03125000
vn -1 0 0
vn 1 0 0
vn 0 0 -1
vn 0 0 1
vn 0 -1 0
vn 0 1 0
g palette
usemtl palette
f 1/11/1 2/11/1 3/11/1 4/11/1
f 3/11/3 5/11/3 6/11/3 4/11/3
f 7/11/4 8/11/4 2/11/4 1/11/4
f 6/11/5 7/11/5 1/11/5 4/11/5
f 2/11/6 8/11/6 5/11/6 3/11/6
f 9/11/1 10/11/1 11/11/1 12/11/1
f 11/11/3 13/11/3 14/11/3 12/11/3
f 15/11/4 16/11/4 10/11/4 9/11/4
f 14/11/5 15/11/5 9/11/5 12/11/5
f 10/11/6 16/11/6 13/11/6 11/11/6
f 6/11/1 5/11/1 17/11/1 18/11/1
f 17/11/3 19/11/3 20/11/3 18/11/3
f 20/11/5 21/11/5 6/11/5 18/11/5
f 5/11/6 22/11/6 19/11/6 17/11/6
f 21/4/5 23/4/5 7/4/5 6/4/5
f 8/5/1 24/5/1 25/5/1 5/5/1
f 25/5/3 26/5/3 22/5/3 5/5/3
f 27/5/4 28/5/4 24/5/4 8/5/4
f 24/5/6 28/5/6 26/5/6 25/5/6
f 29/4/1 30/4/1 8/4/1 7/4/1
f 31/4/4 32/4/4 30/4/4 29/4/4
f 23/4/5 31/4/5 29/4/5 7/4/5
f 30/4/6 32/4/6 27/4/6 8/4/6
f 14/4/1 13/4/1 33/4/1 34/4/1
f 33/4/3 35/4/3 36/4/3 34/4/3
f 36/4/5 37/4/5 14/4/5 34/4/5
f 13/4/6 38/4/6 35/4/6 33/4/6
f 37/4/5 39/4/5 15/4/5 14/4/5
f 16/5/1 40/5/1 41/5/1 13/5/1
f 41/5/3 42/5/3 38/5/3 13/5/3
f 43/5/4 44/5/4 40/5/4 16/5/4
f 40/5/6 44/5/6 42/5/6 41/5/6
f 45/4/1 46/4/1 16/4/1 15/4/1
f 47/4/4 48/4/4 46/4/4 45/4/4
f 39/4/5 47/4/5 45/4/5 15/4/5
f 46/4/6 48/4/6 43/4/6 16/4/6
f 20/11/1 19/11/1 49/11/1 50/11/1
f 51/11/2 52/11/2 53/11/2 54/11/2
f 49/11/3 51/11/3 54/11/3 50/11/3
f 54/11/5 53/11/5 20/11/5 50/11/5
f 19/11/6 52/11/6 51/11/6 49/11/6
f 53/4/5 55/4/5 21/4/5 20/4/5
f 22/5/1 26/5/1 56/5/1 19/5/1
f 57/5/2 58/5/2 59/5/2 52/5/2
f 56/5/3 57/5/3 52/5/3 19/5/3
f 26/5/6 58/5/6 57/5/6 56/5/6
f 55/4/5 60/4/5 23/4/5 21/4/5
f 28/5/6 61/5/6 58/5/6 26/5/6
f 60/5/5 62/5/5 31/5/5 23/5/5
f 32/5/1 63/5/1 28/5/1 27/5/1
f 61/5/2 64/5/2 65/5/2 66/5/2
f 65/5/4 64/5/4 63/5/4 32/5/4
f 63/5/6 64/5/6 61/5/6 28/5/6
f 67/4/1 68/4/1 32/4/1 31/4/1
f 65/4/2 69/4/2 70/4/2 62/4/2
f 62/4/5 70/4/5 67/4/5 31/4/5
f 68/4/6 69/4/6 65/4/6 32/4/6
f 36/4/1 35/4/1 68/4/1 67/4/1
f 69/4/2 71/4/2 72/4/2 70/4/2
f 70/4/5 72/4/5 36/4/5 67/4/5
f 35/4/6 71/4/6 69/4/6 68/4/6
f 72/4/5 73/4/5 37/4/5 36/4/5
f 38/5/1 42/5/1 74/5/1 35/5/1
f 75/5/2 76/5/2 77/5/2 71/5/2
f 74/5/3 75/5/3 71/5/3 35/5/3
f 42/5/6 76/5/6 75/5/6 74/5/6
f 73/4/5 78/4/5 39/4/5 37/4/5
f 44/5/6 79/5/6 76/5/6 42/5/6
f 78/4/5 80/4/5 47/4/5 39/4/5
f 48/5/1 81/5/1 44/5/1 43/5/1
f 79/5/2 82/5/2 83/5/2 84/5/2
f 83/5/4 82/5/4 81/5/4 48/5/4
f 81/5/6 82/5/6 79/5/6 44/5/6
f 85/4/1 86/4/1 48/4/1 47/4/1
f 83/4/2 87/4/2 88/4/2 80/4/2
f 88/4/4 87/4/4 86/4/4 85/4/4
f 80/4/5 88/4/5 85/4/5 47/4/5
f 86/4/6 87/4/6 83/4/6 48/4/6
f 89/4/2 90/4/2 91/4/2 92/4/2
f 52/4/3 89/4/3 92/4/3 53/4/3
f 92/4/5 91/4/5 55/4/5 53/4/5
f 59/4/6 90/4/6 89/4/6 52/4/6
f 91/4/5 93/4/5 60/4/5 55/4/5
f 94/5/2 95/5/2 96/5/2 90/5/2
f 58/5/3 94/5/3 90/5/3 59/5/3
f 96/5/4 95/5/4 61/5/4 66/5/4
f 61/5/6 95/5/6 94/5/6 58/5/6
f 97/4/4 98/4/4 65/4/4 62/4/4
f 93/4/5 97/4/5 62/4/5 60/4/5
f 65/4/6 98/4/6 96/4/6 66/4/6
f 69/35/1 99/35/1 64/35/1 65/35/1
f 64/35/3 100/35/3 98/35/3 65/35/3
f 98/35/5 101/35/5 69/35/5 65/35/5
f 99/35/1 102/35/1 103/35/1 64/35/1
f 103/35/3 104/35/3 100/35/3 64/35/3
f 102/35/6 105/35/6 104/35/6 103/35/6
f 71/35/1 75/35/1 99/35/1 69/35/1
f 106/35/4 107/35/4 75/35/4 71/35/4
f 101/35/5 106/35/5 71/35/5 69/35/5
f 75/35/1 108/35/1 102/35/1 99/35/1
f 107/35/4 109/35/4 108/35/4 75/35/4
f 108/35/6 109/35/6 105/35/6 102/35/6
f 71/4/3 106/4/3 110/4/3 72/4/3
f 110/4/5 111/4/5 73/4/5 72/4/5
f 77/4/6 112/4/6 106/4/6 71/4/6
f 111/4/5 113/4/5 78/4/5 73/4/5
f 114/5/2 115/5/2 116/5/2 112/5/2
f 76/5/3 114/5/3 112/5/3 77/5/3
f 116/5/4 115/5/4 79/5/4 84/5/4
f 79/5/6 115/5/6 114/5/6 76/5/6
f 116/4/2 117/4/2 118/4/2 113/4/2
f 118/4/4 117/4/4 83/4/4 80/4/4
f 113/4/5 118/4/5 80/4/5 78/4/5
f 83/4/6 117/4/6 116/4/6 84/4/6
f 119/11/1 120/11/1 121/11/1 122/11/1
f 121/11/3 123/11/3 124/11/3 122/11/3
f 125/11/4 126/11/4 120/11/4 119/11/4
f 124/11/5 125/11/5 119/11/5 122/11/5
f 120/11/6 126/11/6 123/11/6 121/11/6
f 90/3/3 127/3/3 128/3/3 91/3/3
f 128/3/5 129/3/5 93/3/5 91/3/5
f 96/3/6 130/3/6 127/3/6 90/3/6
f 129/3/5 131/3/5 97/3/5 93/3/5
f 98/3/6 132/3/6 130/3/6 96/3/6
f 133/3/1 101/3/1 98/3/1 97/3/1
f 131/3/5 134/3/5 133/3/5 97/3/5
f 100/35/3 135/35/3 132/35/3 98/35/3
f 104/4/3 136/4/3 135/4/3 100/4/3
f 105/4/6 137/4/6 136/4/6 104/4/6
f 110/3/1 106/3/1 101/3/1 133/3/1
f 134/3/5 138/3/5 110/3/5 133/3/5
f 139/35/4 140/35/4 107/35/4 106/35/4
f 140/11/4 141/11/4 109/11/4 107/11/4
f 109/11/6 141/11/6 137/11/6 105/11/6
f 138/3/5 142/3/5 111/3/5 110/3/5
f 112/3/6 143/3/6 139/3/6 106/3/6
f 144/3/4 145/3/4 116/3/4 113/3/4
f 142/3/5 144/3/5 113/3/5 111/3/5
f 116/3/6 145/3/6 143/3/6 112/3/6
f 146/5/1 147/5/1 148/5/1 149/5/1
f 148/5/3 150/5/3 151/5/3 149/5/3
f 152/5/4 153/5/4 147/5/4 146/5/4
f 151/5/5 152/5/5 146/5/5 149/5/5
f 147/5/6 153/5/6 150/5/6 148/5/6
f 124/11/1 123/11/1 154/11/1 155/11/1
f 154/11/3 156/11/3 157/11/3 155/11/3
f 157/11/5 158/11/5 124/11/5 155/11/5
f 123/11/6 159/11/6 156/11/6 154/11/6
f 158/4/5 160/4/5 125/4/5 124/4/5
f 126/5/1 161/5/1 162/5/1 123/5/1
f 162/5/3 163/5/3 159/5/3 123/5/3
f 164/5/4 165/5/4 161/5/4 126/5/4
f 161/5/6 165/5/6 163/5/6 162/5/6
f 166/4/1 167/4/1 126/4/1 125/4/1
f 168/4/4 169/4/4 167/4/4 166/4/4
f 160/4/5 168/4/5 166/4/5 125/4/5
f 167/4/6 169/4/6 164/4/6 126/4/6
f 127/3/3 170/3/3 171/3/3 128/3/3
f 171/3/5 172/3/5 129/3/5 128/3/5
f 130/3/6 173/3/6 170/3/6 127/3/6
f 172/3/5 174/3/5 131/3/5 129/3/5
f 132/3/6 175/3/6 173/3/6 130/3/6
f 174/3/5 176/3/5 134/3/5 131/3/5
f 135/35/3 177/35/3 175/35/3 132/35/3
f 136/4/3 178/4/3 177/4/3 135/4/3
f 137/4/6 179/4/6 178/4/6 136/4/6
f 176/3/5 180/3/5 138/3/5 134/3/5
f 181/35/4 182/35/4 140/35/4 139/35/4
f 182/4/4 183/4/4 141/4/4 140/4/4
f 141/4/6 183/4/6 179/4/6 137/4/6
f 180/3/5 184/3/5 142/3/5 138/3/5
f 143/3/6 185/3/6 181/3/6 139/3/6
f 186/3/4 187/3/4 145/3/4 144/3/4
f 184/3/5 186/3/5 144/3/5 142/3/5
f 145/3/6 187/3/6 185/3/6 143/3/6
f 151/4/1 150/4/1 188/4/1 189/4/1
f 188/4/3 190/4/3 191/4/3 189/4/3
f 191/4/5 192/4/5 151/4/5 189/4/5
f 150/4/6 193/4/6 190/4/6 188/4/6
f 192/4/5 194/4/5 152/4/5 151/4/5
f 153/5/1 195/5/1 196/5/1 150/5/1
f 196/5/3 197/5/3 193/5/3 150/5/3
f 198/5/4 199/5/4 195/5/4 153/5/4
f 195/5/6 199/5/6 197/5/6 196/5/6
f 200/4/1 201/4/1 153/4/1 152/4/1
f 202/4/4 203/4/4 201/4/4 200/4/4
f 194/4/5 202/4/5 200/4/5 152/4/5
f 201/4/6 203/4/6 198/4/6 153/4/6
f 157/4/1 156/4/1 204/4/1 205/4/1
f 206/4/2 207/4/2 208/4/2 209/4/2
f 204/4/3 206/4/3 209/4/3 205/4/3
f 209/4/5 208/4/5 157/4/5 205/4/5
f 156/4/6 207/4/6 206/4/6 204/4/6
f 208/4/5 210/4/5 158/4/5 157/4/5
f 159/11/1 163/11/1 211/11/1 156/11/1
f 212/11/2 213/11/2 214/11/2 207/11/2
f 211/11/3 212/11/3 207/11/3 156/11/3
f 163/11/6 213/11/6 212/11/6 211/11/6
f 210/4/5 215/4/5 160/4/5 158/4/5
f 165/5/6 216/5/6 213/5/6 163/5/6
f 215/4/5 217/4/5 168/4/5 160/4/5
f 169/5/1 218/5/1 165/5/1 164/5/1
f 216/5/2 219/5/2 220/5/2 221/5/2
f 218/5/6 219/5/6 216/5/6 165/5/6
f 171/4/1 170/4/1 169/4/1 168/4/1
f 220/4/2 222/4/2 223/4/2 217/4/2
f 217/4/5 223/4/5 171/4/5 168/4/5
f 170/36/1 224/36/1 218/36/1 169/36/1
f 224/36/6 225/36/6 219/36/6 218/36/6
f 223/3/5 226/3/5 172/3/5 171/3/5
f 173/36/1 227/36/1 224/36/1 170/36/1
f 227/36/6 228/36/6 225/36/6 224/36/6
f 226/3/5 229/3/5 174/3/5 172/3/5
f 175/36/1 177/36/1 227/36/1 173/36/1
f 177/36/6 230/36/6 228/36/6 227/36/6
f 229/3/5 231/3/5 176/3/5 174/3/5
f 178/35/3 232/35/3 230/35/3 177/35/3
f 179/35/6 233/35/6 232/35/6 178/35/6
f 231/3/5 234/3/5 180/3/5 176/3/5
f 235/35/4 236/35/4 183/35/4 182/35/4
f 183/35/6 236/35/6 233/35/6 179/35/6
f 234/3/5 237/3/5 184/3/5 180/3/5
f 185/36/1 238/36/1 182/36/1 181/36/1
f 238/36/6 239/36/6 235/36/6 182/36/6
f 237/3/5 240/3/5 186/3/5 184/3/5
f 187/36/1 241/36/1 238/36/1 185/36/1
f 241/36/6 242/36/6 239/36/6 238/36/6
f 191/4/1 190/4/1 187/4/1 186/4/1
f 243/4/2 244/4/2 245/4/2 240/4/2
f 240/4/5 245/4/5 191/4/5 186/4/5
f 190/36/1 246/36/1 241/36/1 187/36/1
f 246/36/6 247/36/6 242/36/6 241/36/6
f 245/5/5 248/5/5 192/5/5 191/5/5
f 193/5/1 197/5/1 246/5/1 190/5/1
f 247/5/2 249/5/2 250/5/2 244/5/2
f 197/5/6 249/5/6 247/5/6 246/5/6
f 248/5/5 251/5/5 194/5/5 192/5/5
f 199/5/6 252/5/6 249/5/6 197/5/6
f 251/11/5 253/11/5 202/11/5 194/11/5
f 203/5/1 254/5/1 199/5/1 198/5/1
f 252/5/2 255/5/2 256/5/2 257/5/2
f 256/5/4 255/5/4 254/5/4 203/5/4
f 254/5/6 255/5/6 252/5/6 199/5/6
f 258/4/1 259/4/1 203/4/1 202/4/1
f 256/4/2 260/4/2 261/4/2 253/4/2
f 261/4/4 260/4/4 259/4/4 258/4/4
f 253/4/5 261/4/5 258/4/5 202/4/5
f 259/4/6 260/4/6 256/4/6 203/4/6
f 262/4/2 263/4/2 264/4/2 265/4/2
f 207/4/3 262/4/3 265/4/3 208/4/3
f 265/4/5 264/4/5 210/4/5 208/4/5
f 214/4/6 263/4/6 262/4/6 207/4/6
f 264/4/5 266/4/5 215/4/5 210/4/5
f 267/5/2 268/5/2 269/5/2 263/5/2
f 213/5/3 267/5/3 263/5/3 214/5/3
f 269/5/4 268/5/4 216/5/4 221/5/4
f 216/5/6 268/5/6 267/5/6 213/5/6
f 269/4/2 270/4/2 271/4/2 266/4/2
f 271/4/4 270/4/4 220/4/4 217/4/4
f 266/4/5 271/4/5 217/4/5 215/4/5
f 220/4/6 270/4/6 269/4/6 221/4/6
f 272/36/2 273/36/2 274/36/2 270/36/2
f 219/36/3 272/36/3 270/36/3 220/36/3
f 270/36/5 274/36/5 222/36/5 220/36/5
f 225/36/6 273/36/6 272/36/6 219/36/6
f 222/3/3 274/3/3 275/3/3 223/3/3
f 275/3/5 276/3/5 226/3/5 223/3/5
f 273/36/2 277/36/2 278/36/2 274/36/2
f 228/36/6 277/36/6 273/36/6 225/36/6
f 276/3/5 279/3/5 229/3/5 226/3/5
f 277/36/2 280/36/2 281/36/2 278/36/2
f 230/36/6 280/36/6 277/36/6 228/36/6
f 279/3/5 282/3/5 231/3/5 229/3/5
f 232/35/3 283/35/3 280/35/3 230/35/3
f 233/35/6 284/35/6 283/35/6 232/35/6
f 282/3/5 285/3/5 234/3/5 231/3/5
f 286/35/4 287/35/4 236/35/4 235/35/4
f 236/35/6 287/35/6 284/35/6 233/35/6
f 285/3/5 288/3/5 237/3/5 234/3/5
f 286/36/2 289/36/2 290/36/2 291/36/2
f 239/36/6 289/36/6 286/36/6 235/36/6
f 292/3/4 293/3/4 243/3/4 240/3/4
f 288/3/5 292/3/5 240/3/5 237/3/5
f 289/36/2 294/36/2 293/36/2 290/36/2
f 242/36/6 294/36/6 289/36/6 239/36/6
f 294/36/2 295/36/2 296/36/2 293/36/2
f 296/36/4 295/36/4 247/36/4 244/36/4
f 293/36/5 296/36/5 244/36/5 243/36/5
f 247/36/6 295/36/6 294/36/6 242/36/6
f 296/4/2 297/4/2 298/4/2 299/4/2
f 244/4/3 296/4/3 299/4/3 245/4/3
f 299/4/5 298/4/5 248/4/5 245/4/5
f 250/4/6 297/4/6 296/4/6 244/4/6
f 298/4/5 300/4/5 251/4/5 248/4/5
f 301/5/2 302/5/2 303/5/2 297/5/2
f 249/5/3 301/5/3 297/5/3 250/5/3
f 303/5/4 302/5/4 252/5/4 257/5/4
f 252/5/6 302/5/6 301/5/6 249/5/6
f 303/4/2 304/4/2 305/4/2 300/4/2
f 305/4/4 304/4/4 256/4/4 253/4/4
f 300/4/5 305/4/5 253/4/5 251/4/5
f 256/4/6 304/4/6 303/4/6 257/4/6
f 306/4/2 307/4/2 308/4/2 309/4/2
f 263/4/3 306/4/3 309/4/3 264/4/3
f 308/4/4 307/4/4 269/4/4 266/4/4
f 309/4/5 308/4/5 266/4/5 264/4/5
f 269/4/6 307/4/6 306/4/6 263/4/6
f 274/3/3 310/3/3 311/3/3 275/3/3
f 311/3/5 312/3/5 276/3/5 275/3/5
f 278/3/6 313/3/6 310/3/6 274/3/6
f 312/3/5 314/3/5 279/3/5 276/3/5
f 281/3/6 315/3/6 313/3/6 278/3/6
f 314/3/5 316/3/5 282/3/5 279/3/5
f 280/35/3 317/35/3 315/35/3 281/35/3
f 283/35/3 318/35/3 317/35/3 280/35/3
f 284/35/6 319/35/6 318/35/6 283/35/6
f 316/3/5 320/3/5 285/3/5 282/3/5
f 321/35/4 322/35/4 286/35/4 291/35/4
f 322/35/4 323/35/4 287/35/4 286/35/4
f 287/35/6 323/35/6 319/35/6 284/35/6
f 320/3/5 324/3/5 288/3/5 285/3/5
f 290/3/6 325/3/6 321/3/6 291/3/6
f 326/3/4 327/3/4 293/3/4 292/3/4
f 324/3/5 326/3/5 292/3/5 288/3/5
f 293/3/6 327/3/6 325/3/6 290/3/6
f 328/4/2 329/4/2 330/4/2 331/4/2
f 297/4/3 328/4/3 331/4/3 298/4/3
f 330/4/4 329/4/4 303/4/4 300/4/4
f 331/4/5 330/4/5 300/4/5 298/4/5
f 303/4/6 329/4/6 328/4/6 297/4/6
f 310/3/3 332/3/3 333/3/3 311/3/3
f 333/3/5 334/3/5 312/3/5 311/3/5
f 313/3/6 335/3/6 332/3/6 310/3/6
f 334/3/5 336/3/5 314/3/5 312/3/5
f 315/3/6 337/3/6 335/3/6 313/3/6
f 337/3/2 338/3/2 339/3/2 336/3/2
f 336/3/5 339/3/5 316/3/5 314/3/5
f 317/35/3 340/35/3 337/35/3 315/35/3
f 318/35/3 341/35/3 340/35/3 317/35/3
f 319/35/6 342/35/6 341/35/6 318/35/6
f 338/3/2 343/3/2 344/3/2 339/3/2
f 339/3/5 344/3/5 320/3/5 316/3/5
f 343/35/4 345/35/4 322/35/4 321/35/4
f 345/35/4 346/35/4 323/35/4 322/35/4
f 323/35/6 346/35/6 342/35/6 319/35/6
f 344/3/5 347/3/5 324/3/5 320/3/5
f 325/3/6 348/3/6 343/3/6 321/3/6
f 349/3/4 350/3/4 327/3/4 326/3/4
f 347/3/5 349/3/5 326/3/5 324/3/5
f 327/3/6 350/3/6 348/3/6 325/3/6
f 333/4/1 332/4/1 351/4/1 352/4/1
f 351/4/3 353/4/3 354/4/3 352/4/3
f 354/4/5 355/4/5 333/4/5 352/4/5
f 332/4/6 356/4/6 353/4/6 351/4/6
f 355/4/5 357/4/5 334/4/5 333/4/5
f 335/5/1 358/5/1 359/5/1 332/5/1
f 359/5/3 360/5/3 356/5/3 332/5/3
f 361/5/4 362/5/4 358/5/4 335/5/4
f 358/5/6 362/5/6 360/5/6 359/5/6
f 363/4/4 364/4/4 337/4/4 336/4/4
f 357/4/5 363/4/5 336/4/5 334/4/5
f 337/4/6 364/4/6 361/4/6 335/4/6
f 365/35/2 366/35/2 367/35/2 364/35/2
f 340/35/3 365/35/3 364/35/3 337/35/3
f 364/35/5 367/35/5 338/35/5 337/35/5
f 368/35/2 369/35/2 366/35/2 365/35/2
f 341/35/3 368/35/3 365/35/3 340/35/3
f 342/35/6 369/35/6 368/35/6 341/35/6
f 366/35/2 370/35/2 371/35/2 367/35/2
f 371/35/4 370/35/4 345/35/4 343/35/4
f 367/35/5 371/35/5 343/35/5 338/35/5
f 369/35/2 372/35/2 370/35/2 366/35/2
f 370/35/4 372/35/4 346/35/4 345/35/4
f 346/35/6 372/35/6 369/35/6 342/35/6
f 343/4/3 371/4/3 373/4/3 344/4/3
f 373/4/5 374/4/5 347/4/5 344/4/5
f 348/4/6 375/4/6 371/4/6 343/4/6
f 374/4/5 376/4/5 349/4/5 347/4/5
f 350/5/1 377/5/1 378/5/1 348/5/1
f 378/5/3 379/5/3 375/5/3 348/5/3
f 380/5/4 381/5/4 377/5/4 350/5/4
f 377/5/6 381/5/6 379/5/6 378/5/6
f 382/11/1 383/11/1 350/11/1 349/11/1
f 384/11/4 385/11/4 383/11/4 382/11/4
f 376/11/5 384/11/5 382/11/5 349/11/5
f 383/11/6 385/11/6 380/11/6 350/11/6
f 354/4/1 353/4/1 386/4/1 387/4/1
f 388/4/2 389/4/2 390/4/2 391/4/2
f 386/4/3 388/4/3 391/4/3 387/4/3
f 391/4/5 390/4/5 354/4/5 387/4/5
f 353/4/6 389/4/6 388/4/6 386/4/6
f 390/4/5 392/4/5 355/4/5 354/4/5
f 356/5/1 360/5/1 393/5/1 353/5/1
f 394/5/2 395/5/2 396/5/2 389/5/2
f 393/5/3 394/5/3 389/5/3 353/5/3
f 360/5/6 395/5/6 394/5/6 393/5/6
f 392/4/5 397/4/5 357/4/5 355/4/5
f 362/5/6 398/5/6 395/5/6 360/5/6
f 397/4/5 399/4/5 363/4/5 357/4/5
f 364/5/1 365/5/1 362/5/1 361/5/1
f 398/5/2 400/5/2 401/5/2 402/5/2
f 401/5/4 400/5/4 365/5/4 364/5/4
f 365/5/6 400/5/6 398/5/6 362/5/6
f 403/5/1 367/5/1 364/5/1 363/5/1
f 401/5/2 404/5/2 405/5/2 399/5/2
f 399/5/5 405/5/5 403/5/5 363/5/5
f 367/5/6 404/5/6 401/5/6 364/5/6
f 373/11/1 371/11/1 367/11/1 403/11/1
f 404/11/2 406/11/2 407/11/2 405/11/2
f 405/11/5 407/11/5 373/11/5 403/11/5
f 371/11/6 406/11/6 404/11/6 367/11/6
f 407/4/5 408/4/5 374/4/5 373/4/5
f 375/5/1 379/5/1 370/5/1 371/5/1
f 409/5/2 410/5/2 411/5/2 406/5/2
f 370/5/3 409/5/3 406/5/3 371/5/3
f 379/5/6 410/5/6 409/5/6 370/5/6
f 408/4/5 412/4/5 376/4/5 374/4/5
f 381/5/6 413/5/6 410/5/6 379/5/6
f 412/4/5 414/4/5 384/4/5 376/4/5
f 385/5/1 415/5/1 381/5/1 380/5/1
f 413/5/2 416/5/2 417/5/2 418/5/2
f 417/5/4 416/5/4 415/5/4 385/5/4
f 415/5/6 416/5/6 413/5/6 381/5/6
f 419/4/1 420/4/1 385/4/1 384/4/1
f 417/4/2 421/4/2 422/4/2 414/4/2
f 422/4/4 421/4/4 420/4/4 419/4/4
f 414/4/5 422/4/5 419/4/5 384/4/5
f 420/4/6 421/4/6 417/4/6 385/4/6
f 423/4/2 424/4/2 425/4/2 426/4/2
f 389/4/3 423/4/3 426/4/3 390/4/3
f 426/4/5 425/4/5 392/4/5 390/4/5
f 396/4/6 424/4/6 423/4/6 389/4/6
f 425/4/5 427/4/5 397/4/5 392/4/5
f 428/5/2 429/5/2 430/5/2 424/5/2
f 395/5/3 428/5/3 424/5/3 396/5/3
f 430/5/4 429/5/4 398/5/4 402/5/4
f 398/5/6 429/5/6 428/5/6 395/5/6
f 430/4/2 431/4/2 432/4/2 427/4/2
f 432/4/4 431/4/4 401/4/4 399/4/4
f 427/4/5 432/4/5 399/4/5 397/4/5
f 401/4/6 431/4/6 430/4/6 402/4/6
f 433/5/2 434/5/2 435/5/2 436/5/2
f 406/5/3 433/5/3 436/5/3 407/5/3
f 436/5/5 435/5/5 408/5/5 407/5/5
f 411/5/6 434/5/6 433/5/6 406/5/6
f 435/4/5 437/4/5 412/4/5 408/4/5
f 438/5/2 439/5/2 440/5/2 434/5/2
f 410/5/3 438/5/3 434/5/3 411/5/3
f 440/5/4 439/5/4 413/5/4 418/5/4
f 413/5/6 439/5/6 438/5/6 410/5/6
f 440/4/2 441/4/2 442/4/2 437/4/2
f 442/4/4 441/4/4 417/4/4 414/4/4
f 437/4/5 442/4/5 414/4/5 412/4/5
f 417/4/6 441/4/6 440/4/6 418/4/6
f 443/4/2 444/4/2 445/4/2 446/4/2
f 424/4/3 443/4/3 446/4/3 425/4/3
f 445/4/4 444/4/4 430/4/4 427/4/4
f 446/4/5 445/4/5 427/4/5 425/4/5
f 430/4/6 444/4/6 443/4/6 424/4/6
f 447/4/2 448/4/2 449/4/2 450/4/2
f 434/4/3 447/4/3 450/4/3 435/4/3
f 449/4/4 448/4/4 440/4/4 437/4/4
f 450/4/5 449/4/5 437/4/5 435/4/5
f 440/4/6 448/4/6 447/4/6 434/4/6
