# Dungine candle_cluster; 1 voxel = 1/16 unit; Y-up floor-center origin
mtllib candle_cluster.mtl
o candle_cluster
s off
v -0.312500 0.000000 -0.250000
v -0.312500 0.062500 -0.250000
v -0.312500 0.062500 -0.312500
v -0.312500 0.000000 -0.312500
v -0.250000 0.062500 -0.312500
v -0.250000 0.000000 -0.312500
v -0.250000 0.000000 -0.250000
v -0.250000 0.062500 -0.250000
v -0.312500 0.000000 -0.187500
v -0.312500 0.062500 -0.187500
v -0.250000 0.000000 -0.187500
v -0.250000 0.062500 -0.187500
v -0.312500 0.000000 -0.125000
v -0.312500 0.062500 -0.125000
v -0.250000 0.000000 -0.125000
v -0.250000 0.062500 -0.125000
v -0.312500 0.312500 -0.125000
v -0.312500 0.375000 -0.125000
v -0.312500 0.375000 -0.187500
v -0.312500 0.312500 -0.187500
v -0.250000 0.375000 -0.187500
v -0.250000 0.312500 -0.187500
v -0.250000 0.312500 -0.125000
v -0.250000 0.375000 -0.125000
v -0.312500 0.000000 -0.062500
v -0.312500 0.062500 -0.062500
v -0.250000 0.000000 -0.062500
v -0.250000 0.062500 -0.062500
v -0.312500 0.000000 0.000000
v -0.312500 0.062500 0.000000
v -0.250000 0.000000 0.000000
v -0.250000 0.062500 0.000000
v -0.312500 0.000000 0.062500
v -0.312500 0.062500 0.062500
v -0.250000 0.000000 0.062500
v -0.250000 0.062500 0.062500
v -0.312500 0.000000 0.125000
v -0.312500 0.062500 0.125000
v -0.250000 0.000000 0.125000
v -0.250000 0.062500 0.125000
v -0.312500 0.000000 0.187500
v -0.312500 0.062500 0.187500
v -0.250000 0.000000 0.187500
v -0.250000 0.062500 0.187500
v -0.312500 0.000000 0.250000
v -0.312500 0.062500 0.250000
v -0.250000 0.000000 0.250000
v -0.250000 0.062500 0.250000
v -0.312500 0.000000 0.312500
v -0.312500 0.062500 0.312500
v -0.250000 0.000000 0.312500
v -0.250000 0.062500 0.312500
v -0.187500 0.062500 -0.312500
v -0.187500 0.000000 -0.312500
v -0.187500 0.000000 -0.250000
v -0.187500 0.062500 -0.250000
v -0.187500 0.000000 -0.187500
v -0.187500 0.062500 -0.187500
v -0.250000 0.375000 -0.250000
v -0.250000 0.312500 -0.250000
v -0.187500 0.375000 -0.250000
v -0.187500 0.312500 -0.250000
v -0.187500 0.312500 -0.187500
v -0.187500 0.375000 -0.187500
v -0.187500 0.000000 -0.125000
v -0.187500 0.062500 -0.125000
v -0.187500 0.312500 -0.125000
v -0.250000 0.437500 -0.125000
v -0.250000 0.437500 -0.187500
v -0.187500 0.437500 -0.187500
v -0.187500 0.375000 -0.125000
v -0.187500 0.437500 -0.125000
v -0.187500 0.000000 -0.062500
v -0.187500 0.062500 -0.062500
v -0.250000 0.312500 -0.062500
v -0.250000 0.375000 -0.062500
v -0.187500 0.312500 -0.062500
v -0.187500 0.375000 -0.062500
v -0.187500 0.000000 0.000000
v -0.187500 0.062500 0.000000
v -0.187500 0.000000 0.062500
v -0.187500 0.062500 0.062500
v -0.187500 0.000000 0.125000
v -0.187500 0.062500 0.125000
v -0.187500 0.000000 0.187500
v -0.187500 0.062500 0.187500
v -0.187500 0.000000 0.250000
v -0.187500 0.062500 0.250000
v -0.187500 0.000000 0.312500
v -0.187500 0.062500 0.312500
v -0.125000 0.062500 -0.312500
v -0.125000 0.000000 -0.312500
v -0.125000 0.000000 -0.250000
v -0.125000 0.062500 -0.250000
v -0.187500 0.375000 -0.312500
v -0.187500 0.312500 -0.312500
v -0.125000 0.375000 -0.312500
v -0.125000 0.375000 -0.250000
v -0.125000 0.312500 -0.250000
v -0.125000 0.312500 -0.312500
v -0.125000 0.000000 -0.187500
v -0.125000 0.062500 -0.187500
v -0.125000 0.312500 -0.187500
v -0.187500 0.437500 -0.250000
v -0.125000 0.437500 -0.250000
v -0.125000 0.437500 -0.187500
v -0.125000 0.375000 -0.187500
v -0.125000 0.000000 -0.125000
v -0.187500 0.125000 -0.125000
v -0.187500 0.125000 -0.187500
v -0.125000 0.125000 -0.187500
v -0.187500 0.187500 -0.125000
v -0.187500 0.187500 -0.187500
v -0.125000 0.187500 -0.187500
v -0.187500 0.250000 -0.125000
v -0.187500 0.250000 -0.187500
v -0.125000 0.250000 -0.187500
v -0.125000 0.437500 -0.125000
v -0.125000 0.000000 -0.062500
v -0.187500 0.125000 -0.062500
v -0.125000 0.062500 -0.062500
v -0.125000 0.125000 -0.062500
v -0.187500 0.187500 -0.062500
v -0.125000 0.187500 -0.062500
v -0.187500 0.250000 -0.062500
v -0.125000 0.250000 -0.062500
v -0.125000 0.312500 -0.062500
v -0.187500 0.437500 -0.062500
v -0.125000 0.437500 -0.062500
v -0.125000 0.375000 -0.062500
v -0.125000 0.375000 -0.125000
v -0.125000 0.000000 0.000000
v -0.125000 0.062500 0.000000
v -0.187500 0.312500 0.000000
v -0.187500 0.375000 0.000000
v -0.125000 0.375000 0.000000
v -0.125000 0.312500 0.000000
v -0.125000 0.000000 0.062500
v -0.125000 0.062500 0.062500
v -0.125000 0.000000 0.125000
v -0.125000 0.062500 0.125000
v -0.125000 0.000000 0.187500
v -0.125000 0.062500 0.187500
v -0.187500 0.437500 0.187500
v -0.187500 0.500000 0.187500
v -0.187500 0.500000 0.125000
v -0.187500 0.437500 0.125000
v -0.125000 0.500000 0.125000
v -0.125000 0.437500 0.125000
v -0.125000 0.437500 0.187500
v -0.125000 0.500000 0.187500
v -0.125000 0.000000 0.250000
v -0.125000 0.062500 0.250000
v -0.125000 0.000000 0.312500
v -0.125000 0.062500 0.312500
v -0.062500 0.062500 -0.312500
v -0.062500 0.000000 -0.312500
v -0.062500 0.000000 -0.250000
v -0.062500 0.062500 -0.250000
v -0.062500 0.000000 -0.187500
v -0.062500 0.062500 -0.187500
v -0.062500 0.375000 -0.250000
v -0.062500 0.375000 -0.187500
v -0.062500 0.312500 -0.187500
v -0.062500 0.312500 -0.250000
v -0.062500 0.000000 -0.125000
v -0.062500 0.125000 -0.187500
v -0.062500 0.125000 -0.125000
v -0.062500 0.062500 -0.125000
v -0.062500 0.187500 -0.187500
v -0.062500 0.187500 -0.125000
v -0.062500 0.250000 -0.187500
v -0.062500 0.250000 -0.125000
v -0.062500 0.312500 -0.125000
v -0.062500 0.437500 -0.187500
v -0.062500 0.437500 -0.125000
v -0.062500 0.375000 -0.125000
v -0.125000 0.500000 -0.125000
v -0.125000 0.500000 -0.187500
v -0.062500 0.500000 -0.187500
v -0.062500 0.500000 -0.125000
v -0.062500 0.000000 -0.062500
v -0.062500 0.125000 -0.062500
v -0.062500 0.062500 -0.062500
v -0.062500 0.187500 -0.062500
v -0.062500 0.250000 -0.062500
v -0.062500 0.312500 -0.062500
v -0.062500 0.375000 -0.062500
v -0.062500 0.000000 0.000000
v -0.062500 0.062500 0.000000
v -0.062500 0.000000 0.062500
v -0.062500 0.062500 0.062500
v -0.062500 0.000000 0.125000
v -0.062500 0.062500 0.125000
v -0.125000 0.500000 0.062500
v -0.125000 0.437500 0.062500
v -0.062500 0.500000 0.062500
v -0.062500 0.437500 0.062500
v -0.062500 0.437500 0.125000
v -0.062500 0.500000 0.125000
v -0.062500 0.000000 0.187500
v -0.062500 0.062500 0.187500
v -0.062500 0.437500 0.187500
v -0.125000 0.562500 0.187500
v -0.125000 0.562500 0.125000
v -0.062500 0.562500 0.125000
v -0.062500 0.500000 0.187500
v -0.062500 0.562500 0.187500
v -0.062500 0.000000 0.250000
v -0.062500 0.062500 0.250000
v -0.125000 0.437500 0.250000
v -0.125000 0.500000 0.250000
v -0.062500 0.437500 0.250000
v -0.062500 0.500000 0.250000
v -0.062500 0.000000 0.312500
v -0.062500 0.062500 0.312500
v 0.000000 0.062500 -0.312500
v 0.000000 0.000000 -0.312500
v 0.000000 0.000000 -0.250000
v 0.000000 0.062500 -0.250000
v 0.000000 0.000000 -0.187500
v 0.000000 0.062500 -0.187500
v 0.000000 0.000000 -0.125000
v 0.000000 0.062500 -0.125000
v 0.000000 0.375000 -0.187500
v 0.000000 0.375000 -0.125000
v 0.000000 0.312500 -0.125000
v 0.000000 0.312500 -0.187500
v 0.000000 0.000000 -0.062500
v 0.000000 0.062500 -0.062500
v 0.000000 0.000000 0.000000
v 0.000000 0.062500 0.000000
v 0.000000 0.000000 0.062500
v 0.000000 0.062500 0.062500
v -0.062500 0.500000 0.000000
v -0.062500 0.437500 0.000000
v 0.000000 0.500000 0.000000
v 0.000000 0.500000 0.062500
v 0.000000 0.437500 0.062500
v 0.000000 0.437500 0.000000
v 0.000000 0.000000 0.125000
v 0.000000 0.062500 0.125000
v 0.000000 0.437500 0.125000
v -0.062500 0.562500 0.062500
v 0.000000 0.562500 0.062500
v 0.000000 0.562500 0.125000
v 0.000000 0.500000 0.125000
v 0.000000 0.000000 0.187500
v -0.062500 0.125000 0.187500
v -0.062500 0.125000 0.125000
v 0.000000 0.125000 0.125000
v -0.062500 0.187500 0.187500
v -0.062500 0.187500 0.125000
v 0.000000 0.187500 0.125000
v -0.062500 0.250000 0.187500
v -0.062500 0.250000 0.125000
v 0.000000 0.250000 0.125000
v -0.062500 0.312500 0.187500
v -0.062500 0.312500 0.125000
v 0.000000 0.312500 0.125000
v -0.062500 0.375000 0.187500
v -0.062500 0.375000 0.125000
v 0.000000 0.375000 0.125000
v 0.000000 0.562500 0.187500
v 0.000000 0.000000 0.250000
v -0.062500 0.125000 0.250000
v 0.000000 0.062500 0.250000
v 0.000000 0.125000 0.250000
v -0.062500 0.187500 0.250000
v 0.000000 0.187500 0.250000
v -0.062500 0.250000 0.250000
v 0.000000 0.250000 0.250000
v -0.062500 0.312500 0.250000
v 0.000000 0.312500 0.250000
v -0.062500 0.375000 0.250000
v 0.000000 0.375000 0.250000
v 0.000000 0.437500 0.250000
v -0.062500 0.562500 0.250000
v 0.000000 0.562500 0.250000
v 0.000000 0.500000 0.250000
v 0.000000 0.500000 0.187500
v 0.000000 0.000000 0.312500
v 0.000000 0.062500 0.312500
v -0.062500 0.437500 0.312500
v -0.062500 0.500000 0.312500
v 0.000000 0.500000 0.312500
v 0.000000 0.437500 0.312500
v 0.062500 0.062500 -0.312500
v 0.062500 0.000000 -0.312500
v 0.062500 0.000000 -0.250000
v 0.062500 0.062500 -0.250000
v 0.062500 0.000000 -0.187500
v 0.062500 0.062500 -0.187500
v 0.062500 0.000000 -0.125000
v 0.062500 0.062500 -0.125000
v 0.062500 0.000000 -0.062500
v 0.062500 0.062500 -0.062500
v 0.000000 0.500000 -0.062500
v 0.000000 0.562500 -0.062500
v 0.000000 0.562500 -0.125000
v 0.000000 0.500000 -0.125000
v 0.062500 0.562500 -0.125000
v 0.062500 0.500000 -0.125000
v 0.062500 0.500000 -0.062500
v 0.062500 0.562500 -0.062500
v 0.062500 0.000000 0.000000
v 0.062500 0.062500 0.000000
v 0.062500 0.000000 0.062500
v 0.062500 0.062500 0.062500
v 0.062500 0.000000 0.125000
v 0.062500 0.062500 0.125000
v 0.062500 0.500000 0.062500
v 0.062500 0.500000 0.125000
v 0.062500 0.437500 0.125000
v 0.062500 0.437500 0.062500
v 0.062500 0.000000 0.187500
v 0.062500 0.125000 0.125000
v 0.062500 0.125000 0.187500
v 0.062500 0.062500 0.187500
v 0.062500 0.187500 0.125000
v 0.062500 0.187500 0.187500
v 0.062500 0.250000 0.125000
v 0.062500 0.250000 0.187500
v 0.062500 0.312500 0.125000
v 0.062500 0.312500 0.187500
v 0.062500 0.375000 0.125000
v 0.062500 0.375000 0.187500
v 0.062500 0.437500 0.187500
v 0.062500 0.562500 0.125000
v 0.062500 0.562500 0.187500
v 0.062500 0.500000 0.187500
v 0.000000 0.625000 0.187500
v 0.000000 0.625000 0.125000
v 0.062500 0.625000 0.125000
v 0.062500 0.625000 0.187500
v 0.062500 0.000000 0.250000
v 0.062500 0.125000 0.250000
v 0.062500 0.062500 0.250000
v 0.062500 0.187500 0.250000
v 0.062500 0.250000 0.250000
v 0.062500 0.312500 0.250000
v 0.062500 0.375000 0.250000
v 0.062500 0.437500 0.250000
v 0.062500 0.500000 0.250000
v 0.062500 0.000000 0.312500
v 0.062500 0.062500 0.312500
v 0.125000 0.062500 -0.312500
v 0.125000 0.000000 -0.312500
v 0.125000 0.000000 -0.250000
v 0.125000 0.062500 -0.250000
v 0.125000 0.000000 -0.187500
v 0.125000 0.062500 -0.187500
v 0.125000 0.000000 -0.125000
v 0.125000 0.062500 -0.125000
v 0.062500 0.562500 -0.187500
v 0.062500 0.500000 -0.187500
v 0.125000 0.562500 -0.187500
v 0.125000 0.500000 -0.187500
v 0.125000 0.500000 -0.125000
v 0.125000 0.562500 -0.125000
v 0.125000 0.000000 -0.062500
v 0.125000 0.062500 -0.062500
v 0.125000 0.500000 -0.062500
v 0.062500 0.625000 -0.062500
v 0.062500 0.625000 -0.125000
v 0.125000 0.625000 -0.125000
v 0.125000 0.562500 -0.062500
v 0.125000 0.625000 -0.062500
v 0.125000 0.000000 0.000000
v 0.125000 0.062500 0.000000
v 0.062500 0.500000 0.000000
v 0.062500 0.562500 0.000000
v 0.125000 0.500000 0.000000
v 0.125000 0.562500 0.000000
v 0.125000 0.000000 0.062500
v 0.125000 0.062500 0.062500
v 0.125000 0.000000 0.125000
v 0.125000 0.062500 0.125000
v 0.125000 0.000000 0.187500
v 0.125000 0.062500 0.187500
v 0.125000 0.500000 0.125000
v 0.125000 0.500000 0.187500
v 0.125000 0.437500 0.187500
v 0.125000 0.437500 0.125000
v 0.125000 0.000000 0.250000
v 0.125000 0.062500 0.250000
v 0.125000 0.000000 0.312500
v 0.125000 0.062500 0.312500
v 0.187500 0.062500 -0.312500
v 0.187500 0.000000 -0.312500
v 0.187500 0.000000 -0.250000
v 0.187500 0.062500 -0.250000
v 0.187500 0.000000 -0.187500
v 0.187500 0.062500 -0.187500
v 0.125000 0.562500 -0.250000
v 0.125000 0.500000 -0.250000
v 0.187500 0.562500 -0.250000
v 0.187500 0.562500 -0.187500
v 0.187500 0.500000 -0.187500
v 0.187500 0.500000 -0.250000
v 0.187500 0.000000 -0.125000
v 0.187500 0.062500 -0.125000
v 0.187500 0.500000 -0.125000
v 0.125000 0.625000 -0.187500
v 0.187500 0.625000 -0.187500
v 0.187500 0.625000 -0.125000
v 0.187500 0.562500 -0.125000
v 0.187500 0.000000 -0.062500
v 0.125000 0.125000 -0.062500
v 0.125000 0.125000 -0.125000
v 0.187500 0.125000 -0.125000
v 0.125000 0.187500 -0.062500
v 0.125000 0.187500 -0.125000
v 0.187500 0.187500 -0.125000
v 0.125000 0.250000 -0.062500
v 0.125000 0.250000 -0.125000
v 0.187500 0.250000 -0.125000
v 0.125000 0.312500 -0.062500
v 0.125000 0.312500 -0.125000
v 0.187500 0.312500 -0.125000
v 0.125000 0.375000 -0.062500
v 0.125000 0.375000 -0.125000
v 0.187500 0.375000 -0.125000
v 0.125000 0.437500 -0.062500
v 0.125000 0.437500 -0.125000
v 0.187500 0.437500 -0.125000
v 0.187500 0.625000 -0.062500
v 0.187500 0.000000 0.000000
v 0.125000 0.125000 0.000000
v 0.187500 0.062500 0.000000
v 0.187500 0.125000 0.000000
v 0.125000 0.187500 0.000000
v 0.187500 0.187500 0.000000
v 0.125000 0.250000 0.000000
v 0.187500 0.250000 0.000000
v 0.125000 0.312500 0.000000
v 0.187500 0.312500 0.000000
v 0.125000 0.375000 0.000000
v 0.187500 0.375000 0.000000
v 0.125000 0.437500 0.000000
v 0.187500 0.437500 0.000000
v 0.187500 0.500000 0.000000
v 0.125000 0.625000 0.000000
v 0.187500 0.625000 0.000000
v 0.187500 0.562500 0.000000
v 0.187500 0.562500 -0.062500
v 0.187500 0.000000 0.062500
v 0.187500 0.062500 0.062500
v 0.125000 0.500000 0.062500
v 0.125000 0.562500 0.062500
v 0.187500 0.562500 0.062500
v 0.187500 0.500000 0.062500
v 0.187500 0.000000 0.125000
v 0.187500 0.062500 0.125000
v 0.187500 0.000000 0.187500
v 0.187500 0.062500 0.187500
v 0.187500 0.000000 0.250000
v 0.187500 0.062500 0.250000
v 0.187500 0.000000 0.312500
v 0.187500 0.062500 0.312500
v 0.250000 0.062500 -0.312500
v 0.250000 0.000000 -0.312500
v 0.250000 0.000000 -0.250000
v 0.250000 0.062500 -0.250000
v 0.250000 0.000000 -0.187500
v 0.250000 0.062500 -0.187500
v 0.250000 0.000000 -0.125000
v 0.250000 0.062500 -0.125000
v 0.250000 0.562500 -0.187500
v 0.250000 0.562500 -0.125000
v 0.250000 0.500000 -0.125000
v 0.250000 0.500000 -0.187500
v 0.250000 0.000000 -0.062500
v 0.250000 0.125000 -0.125000
v 0.250000 0.125000 -0.062500
v 0.250000 0.062500 -0.062500
v 0.250000 0.187500 -0.125000
v 0.250000 0.187500 -0.062500
v 0.250000 0.250000 -0.125000
v 0.250000 0.250000 -0.062500
v 0.250000 0.312500 -0.125000
v 0.250000 0.312500 -0.062500
v 0.250000 0.375000 -0.125000
v 0.250000 0.375000 -0.062500
v 0.250000 0.437500 -0.125000
v 0.250000 0.437500 -0.062500
v 0.250000 0.500000 -0.062500
v 0.250000 0.625000 -0.125000
v 0.250000 0.625000 -0.062500
v 0.250000 0.562500 -0.062500
v 0.187500 0.687500 -0.062500
v 0.187500 0.687500 -0.125000
v 0.250000 0.687500 -0.125000
v 0.250000 0.687500 -0.062500
v 0.250000 0.000000 0.000000
v 0.250000 0.125000 0.000000
v 0.250000 0.062500 0.000000
v 0.250000 0.187500 0.000000
v 0.250000 0.250000 0.000000
v 0.250000 0.312500 0.000000
v 0.250000 0.375000 0.000000
v 0.250000 0.437500 0.000000
v 0.250000 0.500000 0.000000
v 0.250000 0.562500 0.000000
v 0.250000 0.000000 0.062500
v 0.250000 0.062500 0.062500
v 0.250000 0.000000 0.125000
v 0.250000 0.062500 0.125000
v 0.250000 0.000000 0.187500
v 0.250000 0.062500 0.187500
v 0.250000 0.000000 0.250000
v 0.250000 0.062500 0.250000
v 0.250000 0.000000 0.312500
v 0.250000 0.062500 0.312500
v 0.312500 0.062500 -0.312500
v 0.312500 0.062500 -0.250000
v 0.312500 0.000000 -0.250000
v 0.312500 0.000000 -0.312500
v 0.312500 0.062500 -0.187500
v 0.312500 0.000000 -0.187500
v 0.312500 0.062500 -0.125000
v 0.312500 0.000000 -0.125000
v 0.312500 0.062500 -0.062500
v 0.312500 0.000000 -0.062500
v 0.312500 0.562500 -0.125000
v 0.312500 0.562500 -0.062500
v 0.312500 0.500000 -0.062500
v 0.312500 0.500000 -0.125000
v 0.312500 0.062500 0.000000
v 0.312500 0.000000 0.000000
v 0.312500 0.062500 0.062500
v 0.312500 0.000000 0.062500
v 0.312500 0.062500 0.125000
v 0.312500 0.000000 0.125000
v 0.312500 0.062500 0.187500
v 0.312500 0.000000 0.187500
v 0.312500 0.062500 0.250000
v 0.312500 0.000000 0.250000
v 0.312500 0.062500 0.312500
v 0.312500 0.000000 0.312500
vt 0.03125000 0.96875000
vt 0.09375000 0.96875000
vt 0.15625000 0.96875000
vt 0.21875000 0.96875000
vt 0.28125000 0.96875000
vt 0.34375000 0.96875000
vt 0.40625000 0.96875000
vt 0.46875000 0.96875000
vt 0.53125000 0.96875000
vt 0.59375000 0.96875000
vt 0.65625000 0.96875000
vt 0.71875000 0.96875000
vt 0.78125000 0.96875000
vt 0.84375000 0.96875000
vt 0.90625000 0.96875000
vt 0.96875000 0.96875000
vt 0.03125000 0.90625000
vt 0.09375000 0.90625000
vt 0.15625000 0.90625000
vt 0.21875000 0.90625000
vt 0.28125000 0.90625000
vt 0.34375000 0.90625000
vt 0.40625000 0.90625000
vt 0.46875000 0.90625000
vt 0.53125000 0.90625000
vt 0.59375000 0.90625000
vt 0.65625000 0.90625000
vt 0.71875000 0.90625000
vt 0.78125000 0.90625000
vt 0.84375000 0.90625000
vt 0.90625000 0.90625000
vt 0.96875000 0.90625000
vt 0.03125000 0.84375000
vt 0.09375000 0.84375000
vt 0.15625000 0.84375000
vt 0.21875000 0.84375000
vt 0.28125000 0.84375000
vt 0.34375000 0.84375000
vt 0.40625000 0.84375000
vt 0.46875000 0.84375000
vt 0.53125000 0.84375000
vt 0.59375000 0.84375000
vt 0.65625000 0.84375000
vt 0.71875000 0.84375000
vt 0.78125000 0.84375000
vt 0.84375000 0.84375000
vt 0.90625000 0.84375000
vt 0.96875000 0.84375000
vt 0.03125000 0.78125000
vt 0.09375000 0.78125000
vt 0.15625000 0.78125000
vt 0.21875000 0.78125000
vt 0.28125000 0.78125000
vt 0.34375000 0.78125000
vt 0.40625000 0.78125000
vt 0.46875000 0.78125000
vt 0.53125000 0.78125000
vt 0.59375000 0.78125000
vt 0.65625000 0.78125000
vt 0.71875000 0.78125000
vt 0.78125000 0.78125000
vt 0.84375000 0.78125000
vt 0.90625000 0.78125000
vt 0.96875000 0.78125000
vt 0.03125000 0.71875000
vt 0.09375000 0.71875000
vt 0.15625000 0.71875000
vt 0.21875000 0.71875000
vt 0.28125000 0.71875000
vt 0.34375000 0.71875000
vt 0.40625000 0.71875000
vt 0.46875000 0.71875000
vt 0.53125000 0.71875000
vt 0.59375000 0.71875000
vt 0.65625000 0.71875000
vt 0.71875000 0.71875000
vt 0.78125000 0.71875000
vt 0.84375000 0.71875000
vt 0.90625000 0.71875000
vt 0.96875000 0.71875000
vt 0.03125000 0.65625000
vt 0.09375000 0.65625000
vt 0.15625000 0.65625000
vt 0.21875000 0.65625000
vt 0.28125000 0.65625000
vt 0.34375000 0.65625000
vt 0.40625000 0.65625000
vt 0.46875000 0.65625000
vt 0.53125000 0.65625000
vt 0.59375000 0.65625000
vt 0.65625000 0.65625000
vt 0.71875000 0.65625000
vt 0.78125000 0.65625000
vt 0.84375000 0.65625000
vt 0.90625000 0.65625000
vt 0.96875000 0.65625000
vt 0.03125000 0.59375000
vt 0.09375000 0.59375000
vt 0.15625000 0.59375000
vt 0.21875000 0.59375000
vt 0.28125000 0.59375000
vt 0.34375000 0.59375000
vt 0.40625000 0.59375000
vt 0.46875000 0.59375000
vt 0.53125000 0.59375000
vt 0.59375000 0.59375000
vt 0.65625000 0.59375000
vt 0.71875000 0.59375000
vt 0.78125000 0.59375000
vt 0.84375000 0.59375000
vt 0.90625000 0.59375000
vt 0.96875000 0.59375000
vt 0.03125000 0.53125000
vt 0.09375000 0.53125000
vt 0.15625000 0.53125000
vt 0.21875000 0.53125000
vt 0.28125000 0.53125000
vt 0.34375000 0.53125000
vt 0.40625000 0.53125000
vt 0.46875000 0.53125000
vt 0.53125000 0.53125000
vt 0.59375000 0.53125000
vt 0.65625000 0.53125000
vt 0.71875000 0.53125000
vt 0.78125000 0.53125000
vt 0.84375000 0.53125000
vt 0.90625000 0.53125000
vt 0.96875000 0.53125000
vt 0.03125000 0.46875000
vt 0.09375000 0.46875000
vt 0.15625000 0.46875000
vt 0.21875000 0.46875000
vt 0.28125000 0.46875000
vt 0.34375000 0.46875000
vt 0.40625000 0.46875000
vt 0.46875000 0.46875000
vt 0.53125000 0.46875000
vt 0.59375000 0.46875000
vt 0.65625000 0.46875000
vt 0.71875000 0.46875000
vt 0.78125000 0.46875000
vt 0.84375000 0.46875000
vt 0.90625000 0.46875000
vt 0.96875000 0.46875000
vt 0.03125000 0.40625000
vt 0.09375000 0.40625000
vt 0.15625000 0.40625000
vt 0.21875000 0.40625000
vt 0.28125000 0.40625000
vt 0.34375000 0.40625000
vt 0.40625000 0.40625000
vt 0.46875000 0.40625000
vt 0.53125000 0.40625000
vt 0.59375000 0.40625000
vt 0.65625000 0.40625000
vt 0.71875000 0.40625000
vt 0.78125000 0.40625000
vt 0.84375000 0.40625000
vt 0.90625000 0.40625000
vt 0.96875000 0.40625000
vt 0.03125000 0.34375000
vt 0.09375000 0.34375000
vt 0.15625000 0.34375000
vt 0.21875000 0.34375000
vt 0.28125000 0.34375000
vt 0.34375000 0.34375000
vt 0.40625000 0.34375000
vt 0.46875000 0.34375000
vt 0.53125000 0.34375000
vt 0.59375000 0.34375000
vt 0.65625000 0.34375000
vt 0.71875000 0.34375000
vt 0.78125000 0.34375000
vt 0.84375000 0.34375000
vt 0.90625000 0.34375000
vt 0.96875000 0.34375000
vt 0.03125000 0.28125000
vt 0.09375000 0.28125000
vt 0.15625000 0.28125000
vt 0.21875000 0.28125000
vt 0.28125000 0.28125000
vt 0.34375000 0.28125000
vt 0.40625000 0.28125000
vt 0.46875000 0.28125000
vt 0.53125000 0.28125000
vt 0.59375000 0.28125000
vt 0.65625000 0.28125000
vt 0.71875000 0.28125000
vt 0.78125000 0.28125000
vt 0.84375000 0.28125000
vt 0.90625000 0.28125000
vt 0.96875000 0.28125000
vt 0.03125000 0.21875000
vt 0.09375000 0.21875000
vt 0.15625000 0.21875000
vt 0.21875000 0.21875000
vt 0.28125000 0.21875000
vt 0.34375000 0.21875000
vt 0.40625000 0.21875000
vt 0.46875000 0.21875000
vt 0.53125000 0.21875000
vt 0.59375000 0.21875000
vt 0.65625000 0.21875000
vt 0.71875000 0.21875000
vt 0.78125000 0.21875000
vt 0.84375000 0.21875000
vt 0.90625000 0.21875000
vt 0.96875000 0.21875000
vt 0.03125000 0.15625000
vt 0.09375000 0.15625000
vt 0.15625000 0.15625000
vt 0.21875000 0.15625000
vt 0.28125000 0.15625000
vt 0.34375000 0.15625000
vt 0.40625000 0.15625000
vt 0.46875000 0.15625000
vt 0.53125000 0.15625000
vt 0.59375000 0.15625000
vt 0.65625000 0.15625000
vt 0.71875000 0.15625000
vt 0.78125000 0.15625000
vt 0.84375000 0.15625000
vt 0.90625000 0.15625000
vt 0.96875000 0.15625000
vt 0.03125000 0.09375000
vt 0.09375000 0.09375000
vt 0.15625000 0.09375000
vt 0.21875000 0.09375000
vt 0.28125000 0.09375000
vt 0.34375000 0.09375000
vt 0.40625000 0.09375000
vt 0.46875000 0.09375000
vt 0.53125000 0.09375000
vt 0.59375000 0.09375000
vt 0.65625000 0.09375000
vt 0.71875000 0.09375000
vt 0.78125000 0.09375000
vt 0.84375000 0.09375000
vt 0.90625000 0.09375000
vt 0.96875000 0.09375000
vt 0.03125000 0.03125000
vt 0.09375000 0.03125000
vt 0.15625000 0.03125000
vt 0.21875000 0.03125000
vt 0.28125000 0.03125000
vt 0.34375000 0.03125000
vt 0.40625000 0.03125000
vt 0.46875000 0.03125000
vt 0.53125000 0.03125000
vt 0.59375000 0.03125000
vt 0.65625000 0.03125000
vt 0.71875000 0.03125000
vt 0.78125000 0.03125000
vt 0.84375000 0.03125000
vt 0.90625000 0.03125000
vt 0.96875000 0.03125000
vn -1 0 0
vn 1 0 0
vn 0 0 -1
vn 0 0 1
vn 0 -1 0
vn 0 1 0
g palette
usemtl palette
f 1/53/1 2/53/1 3/53/1 4/53/1
f 3/53/3 5/53/3 6/53/3 4/53/3
f 6/53/5 7/53/5 1/53/5 4/53/5
f 2/53/6 8/53/6 5/53/6 3/53/6
f 9/53/1 10/53/1 2/53/1 1/53/1
f 7/53/5 11/53/5 9/53/5 1/53/5
f 10/53/6 12/53/6 8/53/6 2/53/6
f 13/53/1 14/53/1 10/53/1 9/53/1
f 11/53/5 15/53/5 13/53/5 9/53/5
f 14/53/6 16/53/6 12/53/6 10/53/6
f 25/53/1 26/53/1 14/53/1 13/53/1
f 15/53/5 27/53/5 25/53/5 13/53/5
f 26/53/6 28/53/6 16/53/6 14/53/6
f 29/55/1 30/55/1 26/55/1 25/55/1
f 27/55/5 31/55/5 29/55/5 25/55/5
f 30/55/6 32/55/6 28/55/6 26/55/6
f 33/53/1 34/53/1 30/53/1 29/53/1
f 31/53/5 35/53/5 33/53/5 29/53/5
f 34/53/6 36/53/6 32/53/6 30/53/6
f 37/53/1 38/53/1 34/53/1 33/53/1
f 35/53/5 39/53/5 37/53/5 33/53/5
f 38/53/6 40/53/6 36/53/6 34/53/6
f 41/53/1 42/53/1 38/53/1 37/53/1
f 39/53/5 43/53/5 41/53/5 37/53/5
f 42/53/6 44/53/6 40/53/6 38/53/6
f 45/53/1 46/53/1 42/53/1 41/53/1
f 43/53/5 47/53/5 45/53/5 41/53/5
f 46/53/6 48/53/6 44/53/6 42/53/6
f 49/53/1 50/53/1 46/53/1 45/53/1
f 51/53/4 52/53/4 50/53/4 49/53/4
f 47/53/5 51/53/5 49/53/5 45/53/5
f 50/53/6 52/53/6 48/53/6 46/53/6
f 5/53/3 53/53/3 54/53/3 6/53/3
f 54/53/5 55/53/5 7/53/5 6/53/5
f 8/53/6 56/53/6 53/53/6 5/53/6
f 55/53/5 57/53/5 11/53/5 7/53/5
f 12/53/6 58/53/6 56/53/6 8/53/6
f 57/53/5 65/53/5 15/53/5 11/53/5
f 16/53/6 66/53/6 58/53/6 12/53/6
f 65/53/5 73/53/5 27/53/5 15/53/5
f 28/53/6 74/53/6 66/53/6 16/53/6
f 73/53/5 79/53/5 31/53/5 27/53/5
f 32/53/6 80/53/6 74/53/6 28/53/6
f 79/53/5 81/53/5 35/53/5 31/53/5
f 36/53/6 82/53/6 80/53/6 32/53/6
f 81/53/5 83/53/5 39/53/5 35/53/5
f 40/53/6 84/53/6 82/53/6 36/53/6
f 83/53/5 85/53/5 43/53/5 39/53/5
f 44/53/6 86/53/6 84/53/6 40/53/6
f 85/53/5 87/53/5 47/53/5 43/53/5
f 48/53/6 88/53/6 86/53/6 44/53/6
f 89/53/4 90/53/4 52/53/4 51/53/4
f 87/53/5 89/53/5 51/53/5 47/53/5
f 52/53/6 90/53/6 88/53/6 48/53/6
f 53/53/3 91/53/3 92/53/3 54/53/3
f 92/53/5 93/53/5 55/53/5 54/53/5
f 56/53/6 94/53/6 91/53/6 53/53/6
f 93/53/5 101/53/5 57/53/5 55/53/5
f 58/53/6 102/53/6 94/53/6 56/53/6
f 101/53/5 108/53/5 65/53/5 57/53/5
f 66/40/1 109/40/1 110/40/1 58/40/1
f 110/40/3 111/40/3 102/40/3 58/40/3
f 109/41/1 112/41/1 113/41/1 110/41/1
f 113/41/3 114/41/3 111/41/3 110/41/3
f 112/41/1 115/41/1 116/41/1 113/41/1
f 116/41/3 117/41/3 114/41/3 113/41/3
f 115/41/1 67/41/1 63/41/1 116/41/1
f 63/41/3 103/41/3 117/41/3 116/41/3
f 108/53/5 119/53/5 73/53/5 65/53/5
f 74/41/1 120/41/1 109/41/1 66/41/1
f 121/41/4 122/41/4 120/41/4 74/41/4
f 120/41/1 123/41/1 112/41/1 109/41/1
f 122/41/4 124/41/4 123/41/4 120/41/4
f 123/41/1 125/41/1 115/41/1 112/41/1
f 124/41/4 126/41/4 125/41/4 123/41/4
f 125/41/1 77/41/1 67/41/1 115/41/1
f 126/41/4 127/41/4 77/41/4 125/41/4
f 119/53/5 132/53/5 79/53/5 73/53/5
f 80/53/6 133/53/6 121/53/6 74/53/6
f 132/53/5 138/53/5 81/53/5 79/53/5
f 82/53/6 139/53/6 133/53/6 80/53/6
f 138/53/5 140/53/5 83/53/5 81/53/5
f 84/53/6 141/53/6 139/53/6 82/53/6
f 140/53/5 142/53/5 85/53/5 83/53/5
f 86/53/6 143/53/6 141/53/6 84/53/6
f 142/53/5 152/53/5 87/53/5 85/53/5
f 88/53/6 153/53/6 143/53/6 86/53/6
f 154/53/4 155/53/4 90/53/4 89/53/4
f 152/53/5 154/53/5 89/53/5 87/53/5
f 90/53/6 155/53/6 153/53/6 88/53/6
f 91/53/3 156/53/3 157/53/3 92/53/3
f 157/53/5 158/53/5 93/53/5 92/53/5
f 94/53/6 159/53/6 156/53/6 91/53/6
f 158/53/5 160/53/5 101/53/5 93/53/5
f 102/53/6 161/53/6 159/53/6 94/53/6
f 160/53/5 166/53/5 108/53/5 101/53/5
f 167/41/2 168/41/2 169/41/2 161/41/2
f 111/41/3 167/41/3 161/41/3 102/41/3
f 170/41/2 171/41/2 168/41/2 167/41/2
f 114/41/3 170/41/3 167/41/3 111/41/3
f 172/41/2 173/41/2 171/41/2 170/41/2
f 117/41/3 172/41/3 170/41/3 114/41/3
f 164/41/2 174/41/2 173/41/2 172/41/2
f 103/41/3 164/41/3 172/41/3 117/41/3
f 166/53/5 182/53/5 119/53/5 108/53/5
f 168/41/2 183/41/2 184/41/2 169/41/2
f 184/41/4 183/41/4 122/41/4 121/41/4
f 171/41/2 185/41/2 183/41/2 168/41/2
f 183/41/4 185/41/4 124/41/4 122/41/4
f 173/42/2 186/42/2 185/42/2 171/42/2
f 185/42/4 186/42/4 126/42/4 124/42/4
f 174/42/2 187/42/2 186/42/2 173/42/2
f 186/42/4 187/42/4 127/42/4 126/42/4
f 182/53/5 189/53/5 132/53/5 119/53/5
f 133/53/6 190/53/6 184/53/6 121/53/6
f 189/53/5 191/53/5 138/53/5 132/53/5
f 139/53/6 192/53/6 190/53/6 133/53/6
f 191/53/5 193/53/5 140/53/5 138/53/5
f 141/53/6 194/53/6 192/53/6 139/53/6
f 193/53/5 201/53/5 142/53/5 140/53/5
f 143/53/6 202/53/6 194/53/6 141/53/6
f 201/53/5 209/53/5 152/53/5 142/53/5
f 153/53/6 210/53/6 202/53/6 143/53/6
f 215/53/4 216/53/4 155/53/4 154/53/4
f 209/53/5 215/53/5 154/53/5 152/53/5
f 155/53/6 216/53/6 210/53/6 153/53/6
f 156/53/3 217/53/3 218/53/3 157/53/3
f 218/53/5 219/53/5 158/53/5 157/53/5
f 159/53/6 220/53/6 217/53/6 156/53/6
f 219/53/5 221/53/5 160/53/5 158/53/5
f 161/53/6 222/53/6 220/53/6 159/53/6
f 221/53/5 223/53/5 166/53/5 160/53/5
f 169/53/6 224/53/6 222/53/6 161/53/6
f 223/53/5 229/53/5 182/53/5 166/53/5
f 184/53/6 230/53/6 224/53/6 169/53/6
f 229/53/5 231/53/5 189/53/5 182/53/5
f 190/53/6 232/53/6 230/53/6 184/53/6
f 231/53/5 233/53/5 191/53/5 189/53/5
f 192/53/6 234/53/6 232/53/6 190/53/6
f 233/55/5 241/55/5 193/55/5 191/55/5
f 194/55/6 242/55/6 234/55/6 192/55/6
f 241/53/5 248/53/5 201/53/5 193/53/5
f 202/40/1 249/40/1 250/40/1 194/40/1
f 250/40/3 251/40/3 242/40/3 194/40/3
f 249/41/1 252/41/1 253/41/1 250/41/1
f 253/41/3 254/41/3 251/41/3 250/41/3
f 252/41/1 255/41/1 256/41/1 253/41/1
f 256/41/3 257/41/3 254/41/3 253/41/3
f 255/41/1 258/41/1 259/41/1 256/41/1
f 259/41/3 260/41/3 257/41/3 256/41/3
f 258/41/1 261/41/1 262/41/1 259/41/1
f 262/41/3 263/41/3 260/41/3 259/41/3
f 261/41/1 203/41/1 199/41/1 262/41/1
f 199/41/3 243/41/3 263/41/3 262/41/3
f 248/53/5 265/53/5 209/53/5 201/53/5
f 210/41/1 266/41/1 249/41/1 202/41/1
f 267/41/4 268/41/4 266/41/4 210/41/4
f 266/41/1 269/41/1 252/41/1 249/41/1
f 268/41/4 270/41/4 269/41/4 266/41/4
f 269/41/1 271/41/1 255/41/1 252/41/1
f 270/41/4 272/41/4 271/41/4 269/41/4
f 271/41/1 273/41/1 258/41/1 255/41/1
f 272/41/4 274/41/4 273/41/4 271/41/4
f 273/41/1 275/41/1 261/41/1 258/41/1
f 274/41/4 276/41/4 275/41/4 273/41/4
f 275/41/1 213/41/1 203/41/1 261/41/1
f 276/41/4 277/41/4 213/41/4 275/41/4
f 282/53/4 283/53/4 216/53/4 215/53/4
f 265/53/5 282/53/5 215/53/5 209/53/5
f 216/53/6 283/53/6 267/53/6 210/53/6
f 217/53/3 288/53/3 289/53/3 218/53/3
f 289/53/5 290/53/5 219/53/5 218/53/5
f 220/53/6 291/53/6 288/53/6 217/53/6
f 290/53/5 292/53/5 221/53/5 219/53/5
f 222/53/6 293/53/6 291/53/6 220/53/6
f 292/53/5 294/53/5 223/53/5 221/53/5
f 224/53/6 295/53/6 293/53/6 222/53/6
f 294/53/5 296/53/5 229/53/5 223/53/5
f 230/53/6 297/53/6 295/53/6 224/53/6
f 296/53/5 306/53/5 231/53/5 229/53/5
f 232/53/6 307/53/6 297/53/6 230/53/6
f 306/53/5 308/53/5 233/53/5 231/53/5
f 234/53/6 309/53/6 307/53/6 232/53/6
f 308/53/5 310/53/5 241/53/5 233/53/5
f 242/53/6 311/53/6 309/53/6 234/53/6
f 310/53/5 316/53/5 248/53/5 241/53/5
f 317/41/2 318/41/2 319/41/2 311/41/2
f 251/41/3 317/41/3 311/41/3 242/41/3
f 320/41/2 321/41/2 318/41/2 317/41/2
f 254/41/3 320/41/3 317/41/3 251/41/3
f 322/41/2 323/41/2 321/41/2 320/41/2
f 257/41/3 322/41/3 320/41/3 254/41/3
f 324/41/2 325/41/2 323/41/2 322/41/2
f 260/41/3 324/41/3 322/41/3 257/41/3
f 326/41/2 327/41/2 325/41/2 324/41/2
f 263/41/3 326/41/3 324/41/3 260/41/3
f 314/41/2 328/41/2 327/41/2 326/41/2
f 243/41/3 314/41/3 326/41/3 263/41/3
f 316/53/5 336/53/5 265/53/5 248/53/5
f 318/41/2 337/41/2 338/41/2 319/41/2
f 338/41/4 337/41/4 268/41/4 267/41/4
f 321/41/2 339/41/2 337/41/2 318/41/2
f 337/41/4 339/41/4 270/41/4 268/41/4
f 323/41/2 340/41/2 339/41/2 321/41/2
f 339/41/4 340/41/4 272/41/4 270/41/4
f 325/41/2 341/41/2 340/41/2 323/41/2
f 340/41/4 341/41/4 274/41/4 272/41/4
f 327/42/2 342/42/2 341/42/2 325/42/2
f 341/42/4 342/42/4 276/42/4 274/42/4
f 328/42/2 343/42/2 342/42/2 327/42/2
f 342/42/4 343/42/4 277/42/4 276/42/4
f 345/53/4 346/53/4 283/53/4 282/53/4
f 336/53/5 345/53/5 282/53/5 265/53/5
f 283/53/6 346/53/6 338/53/6 267/53/6
f 288/53/3 347/53/3 348/53/3 289/53/3
f 348/53/5 349/53/5 290/53/5 289/53/5
f 291/53/6 350/53/6 347/53/6 288/53/6
f 349/53/5 351/53/5 292/53/5 290/53/5
f 293/53/6 352/53/6 350/53/6 291/53/6
f 351/53/5 353/53/5 294/53/5 292/53/5
f 295/53/6 354/53/6 352/53/6 293/53/6
f 353/53/5 361/53/5 296/53/5 294/53/5
f 297/53/6 362/53/6 354/53/6 295/53/6
f 361/53/5 369/53/5 306/53/5 296/53/5
f 307/53/6 370/53/6 362/53/6 297/53/6
f 369/53/5 375/53/5 308/53/5 306/53/5
f 309/53/6 376/53/6 370/53/6 307/53/6
f 375/53/5 377/53/5 310/53/5 308/53/5
f 311/53/6 378/53/6 376/53/6 309/53/6
f 377/53/5 379/53/5 316/53/5 310/53/5
f 319/53/6 380/53/6 378/53/6 311/53/6
f 379/53/5 385/53/5 336/53/5 316/53/5
f 338/53/6 386/53/6 380/53/6 319/53/6
f 387/53/4 388/53/4 346/53/4 345/53/4
f 385/53/5 387/53/5 345/53/5 336/53/5
f 346/53/6 388/53/6 386/53/6 338/53/6
f 347/53/3 389/53/3 390/53/3 348/53/3
f 390/53/5 391/53/5 349/53/5 348/53/5
f 350/53/6 392/53/6 389/53/6 347/53/6
f 391/53/5 393/53/5 351/53/5 349/53/5
f 352/53/6 394/53/6 392/53/6 350/53/6
f 393/53/5 401/53/5 353/53/5 351/53/5
f 354/53/6 402/53/6 394/53/6 352/53/6
f 401/53/5 408/53/5 361/53/5 353/53/5
f 362/40/1 409/40/1 410/40/1 354/40/1
f 410/40/3 411/40/3 402/40/3 354/40/3
f 409/41/1 412/41/1 413/41/1 410/41/1
f 413/41/3 414/41/3 411/41/3 410/41/3
f 412/41/1 415/41/1 416/41/1 413/41/1
f 416/41/3 417/41/3 414/41/3 413/41/3
f 415/41/1 418/41/1 419/41/1 416/41/1
f 419/41/3 420/41/3 417/41/3 416/41/3
f 418/41/1 421/41/1 422/41/1 419/41/1
f 422/41/3 423/41/3 420/41/3 419/41/3
f 421/41/1 424/41/1 425/41/1 422/41/1
f 425/41/3 426/41/3 423/41/3 422/41/3
f 424/41/1 363/41/1 359/41/1 425/41/1
f 359/41/3 403/41/3 426/41/3 425/41/3
f 408/53/5 428/53/5 369/53/5 361/53/5
f 370/41/1 429/41/1 409/41/1 362/41/1
f 430/41/4 431/41/4 429/41/4 370/41/4
f 429/41/1 432/41/1 412/41/1 409/41/1
f 431/41/4 433/41/4 432/41/4 429/41/4
f 432/41/1 434/41/1 415/41/1 412/41/1
f 433/41/4 435/41/4 434/41/4 432/41/4
f 434/41/1 436/41/1 418/41/1 415/41/1
f 435/41/4 437/41/4 436/41/4 434/41/4
f 436/41/1 438/41/1 421/41/1 418/41/1
f 437/41/4 439/41/4 438/41/4 436/41/4
f 438/41/1 440/41/1 424/41/1 421/41/1
f 439/41/4 441/41/4 440/41/4 438/41/4
f 440/41/1 373/41/1 363/41/1 424/41/1
f 441/41/4 442/41/4 373/41/4 440/41/4
f 428/53/5 447/53/5 375/53/5 369/53/5
f 376/53/6 448/53/6 430/53/6 370/53/6
f 447/53/5 453/53/5 377/53/5 375/53/5
f 378/53/6 454/53/6 448/53/6 376/53/6
f 453/53/5 455/53/5 379/53/5 377/53/5
f 380/53/6 456/53/6 454/53/6 378/53/6
f 455/53/5 457/53/5 385/53/5 379/53/5
f 386/53/6 458/53/6 456/53/6 380/53/6
f 459/53/4 460/53/4 388/53/4 387/53/4
f 457/53/5 459/53/5 387/53/5 385/53/5
f 388/53/6 460/53/6 458/53/6 386/53/6
f 389/53/3 461/53/3 462/53/3 390/53/3
f 462/53/5 463/53/5 391/53/5 390/53/5
f 392/53/6 464/53/6 461/53/6 389/53/6
f 463/53/5 465/53/5 393/53/5 391/53/5
f 394/53/6 466/53/6 464/53/6 392/53/6
f 465/53/5 467/53/5 401/53/5 393/53/5
f 402/53/6 468/53/6 466/53/6 394/53/6
f 467/53/5 473/53/5 408/53/5 401/53/5
f 474/41/2 475/41/2 476/41/2 468/41/2
f 411/41/3 474/41/3 468/41/3 402/41/3
f 477/41/2 478/41/2 475/41/2 474/41/2
f 414/41/3 477/41/3 474/41/3 411/41/3
f 479/41/2 480/41/2 478/41/2 477/41/2
f 417/41/3 479/41/3 477/41/3 414/41/3
f 481/41/2 482/41/2 480/41/2 479/41/2
f 420/41/3 481/41/3 479/41/3 417/41/3
f 483/41/2 484/41/2 482/41/2 481/41/2
f 423/41/3 483/41/3 481/41/3 420/41/3
f 485/41/2 486/41/2 484/41/2 483/41/2
f 426/41/3 485/41/3 483/41/3 423/41/3
f 471/41/2 487/41/2 486/41/2 485/41/2
f 403/41/3 471/41/3 485/41/3 426/41/3
f 473/53/5 495/53/5 428/53/5 408/53/5
f 475/41/2 496/41/2 497/41/2 476/41/2
f 497/41/4 496/41/4 431/41/4 430/41/4
f 478/41/2 498/41/2 496/41/2 475/41/2
f 496/41/4 498/41/4 433/41/4 431/41/4
f 480/41/2 499/41/2 498/41/2 478/41/2
f 498/41/4 499/41/4 435/41/4 433/41/4
f 482/41/2 500/41/2 499/41/2 480/41/2
f 499/41/4 500/41/4 437/41/4 435/41/4
f 484/41/2 501/41/2 500/41/2 482/41/2
f 500/41/4 501/41/4 439/41/4 437/41/4
f 486/42/2 502/42/2 501/42/2 484/42/2
f 501/42/4 502/42/4 441/42/4 439/42/4
f 487/42/2 503/42/2 502/42/2 486/42/2
f 502/42/4 503/42/4 442/42/4 441/42/4
f 495/53/5 505/53/5 447/53/5 428/53/5
f 448/53/6 506/53/6 497/53/6 430/53/6
f 505/53/5 507/53/5 453/53/5 447/53/5
f 454/53/6 508/53/6 506/53/6 448/53/6
f 507/53/5 509/53/5 455/53/5 453/53/5
f 456/53/6 510/53/6 508/53/6 454/53/6
f 509/53/5 511/53/5 457/53/5 455/53/5
f 458/53/6 512/53/6 510/53/6 456/53/6
f 513/53/4 514/53/4 460/53/4 459/53/4
f 511/53/5 513/53/5 459/53/5 457/53/5
f 460/53/6 514/53/6 512/53/6 458/53/6
f 515/53/2 516/53/2 517/53/2 518/53/2
f 461/53/3 515/53/3 518/53/3 462/53/3
f 518/53/5 517/53/5 463/53/5 462/53/5
f 464/53/6 516/53/6 515/53/6 461/53/6
f 516/55/2 519/55/2 520/55/2 517/55/2
f 517/55/5 520/55/5 465/55/5 463/55/5
f 466/55/6 519/55/6 516/55/6 464/55/6
f 519/53/2 521/53/2 522/53/2 520/53/2
f 520/53/5 522/53/5 467/53/5 465/53/5
f 468/53/6 521/53/6 519/53/6 466/53/6
f 521/53/2 523/53/2 524/53/2 522/53/2
f 522/53/5 524/53/5 473/53/5 467/53/5
f 476/53/6 523/53/6 521/53/6 468/53/6
f 523/53/2 529/53/2 530/53/2 524/53/2
f 524/53/5 530/53/5 495/53/5 473/53/5
f 497/53/6 529/53/6 523/53/6 476/53/6
f 529/53/2 531/53/2 532/53/2 530/53/2
f 530/53/5 532/53/5 505/53/5 495/53/5
f 506/53/6 531/53/6 529/53/6 497/53/6
f 531/53/2 533/53/2 534/53/2 532/53/2
f 532/53/5 534/53/5 507/53/5 505/53/5
f 508/53/6 533/53/6 531/53/6 506/53/6
f 533/53/2 535/53/2 536/53/2 534/53/2
f 534/53/5 536/53/5 509/53/5 507/53/5
f 510/53/6 535/53/6 533/53/6 508/53/6
f 535/53/2 537/53/2 538/53/2 536/53/2
f 536/53/5 538/53/5 511/53/5 509/53/5
f 512/53/6 537/53/6 535/53/6 510/53/6
f 537/53/2 539/53/2 540/53/2 538/53/2
f 540/53/4 539/53/4 514/53/4 513/53/4
f 538/53/5 540/53/5 513/53/5 511/53/5
f 514/53/6 539/53/6 537/53/6 512/53/6
g emissive
usemtl emissive
f 17/22/1 18/22/1 19/22/1 20/22/1
f 19/22/3 21/22/3 22/22/3 20/22/3
f 23/22/4 24/22/4 18/22/4 17/22/4
f 22/22/5 23/22/5 17/22/5 20/22/5
f 18/22/6 24/22/6 21/22/6 19/22/6
f 22/22/1 21/22/1 59/22/1 60/22/1
f 59/22/3 61/22/3 62/22/3 60/22/3
f 62/22/5 63/22/5 22/22/5 60/22/5
f 21/22/6 64/22/6 61/22/6 59/22/6
f 63/22/5 67/22/5 23/22/5 22/22/5
f 24/23/1 68/23/1 69/23/1 21/23/1
f 69/23/3 70/23/3 64/23/3 21/23/3
f 71/23/4 72/23/4 68/23/4 24/23/4
f 68/23/6 72/23/6 70/23/6 69/23/6
f 75/22/1 76/22/1 24/22/1 23/22/1
f 77/22/4 78/22/4 76/22/4 75/22/4
f 67/22/5 77/22/5 75/22/5 23/22/5
f 76/22/6 78/22/6 71/22/6 24/22/6
f 62/22/1 61/22/1 95/22/1 96/22/1
f 97/22/2 98/22/2 99/22/2 100/22/2
f 95/22/3 97/22/3 100/22/3 96/22/3
f 100/22/5 99/22/5 62/22/5 96/22/5
f 61/22/6 98/22/6 97/22/6 95/22/6
f 99/22/5 103/22/5 63/22/5 62/22/5
f 64/23/1 70/23/1 104/23/1 61/23/1
f 105/23/2 106/23/2 107/23/2 98/23/2
f 104/23/3 105/23/3 98/23/3 61/23/3
f 70/23/6 106/23/6 105/23/6 104/23/6
f 72/23/6 118/23/6 106/23/6 70/23/6
f 78/23/1 128/23/1 72/23/1 71/23/1
f 118/23/2 129/23/2 130/23/2 131/23/2
f 130/23/4 129/23/4 128/23/4 78/23/4
f 128/23/6 129/23/6 118/23/6 72/23/6
f 134/22/1 135/22/1 78/22/1 77/22/1
f 130/22/2 136/22/2 137/22/2 127/22/2
f 137/22/4 136/22/4 135/22/4 134/22/4
f 127/22/5 137/22/5 134/22/5 77/22/5
f 135/22/6 136/22/6 130/22/6 78/22/6
f 144/22/1 145/22/1 146/22/1 147/22/1
f 146/22/3 148/22/3 149/22/3 147/22/3
f 150/22/4 151/22/4 145/22/4 144/22/4
f 149/22/5 150/22/5 144/22/5 147/22/5
f 145/22/6 151/22/6 148/22/6 146/22/6
f 162/22/2 163/22/2 164/22/2 165/22/2
f 98/22/3 162/22/3 165/22/3 99/22/3
f 165/22/5 164/22/5 103/22/5 99/22/5
f 107/22/6 163/22/6 162/22/6 98/22/6
f 175/23/2 176/23/2 177/23/2 163/23/2
f 106/23/3 175/23/3 163/23/3 107/23/3
f 177/23/4 176/23/4 118/23/4 131/23/4
f 118/24/1 178/24/1 179/24/1 106/24/1
f 180/24/2 181/24/2 176/24/2 175/24/2
f 179/24/3 180/24/3 175/24/3 106/24/3
f 176/24/4 181/24/4 178/24/4 118/24/4
f 178/24/6 181/24/6 180/24/6 179/24/6
f 177/22/2 188/22/2 187/22/2 174/22/2
f 187/22/4 188/22/4 130/22/4 127/22/4
f 130/22/6 188/22/6 177/22/6 131/22/6
f 149/22/1 148/22/1 195/22/1 196/22/1
f 195/22/3 197/22/3 198/22/3 196/22/3
f 198/22/5 199/22/5 149/22/5 196/22/5
f 148/22/6 200/22/6 197/22/6 195/22/6
f 199/22/5 203/22/5 150/22/5 149/22/5
f 151/23/1 204/23/1 205/23/1 148/23/1
f 205/23/3 206/23/3 200/23/3 148/23/3
f 207/23/4 208/23/4 204/23/4 151/23/4
f 204/23/6 208/23/6 206/23/6 205/23/6
f 211/22/1 212/22/1 151/22/1 150/22/1
f 213/22/4 214/22/4 212/22/4 211/22/4
f 203/22/5 213/22/5 211/22/5 150/22/5
f 212/22/6 214/22/6 207/22/6 151/22/6
f 225/22/2 226/22/2 227/22/2 228/22/2
f 163/22/3 225/22/3 228/22/3 164/22/3
f 227/22/4 226/22/4 177/22/4 174/22/4
f 228/22/5 227/22/5 174/22/5 164/22/5
f 177/22/6 226/22/6 225/22/6 163/22/6
f 198/22/1 197/22/1 235/22/1 236/22/1
f 237/22/2 238/22/2 239/22/2 240/22/2
f 235/22/3 237/22/3 240/22/3 236/22/3
f 240/22/5 239/22/5 198/22/5 236/22/5
f 197/22/6 238/22/6 237/22/6 235/22/6
f 239/22/5 243/22/5 199/22/5 198/22/5
f 200/23/1 206/23/1 244/23/1 197/23/1
f 245/23/2 246/23/2 247/23/2 238/23/2
f 244/23/3 245/23/3 238/23/3 197/23/3
f 206/23/6 246/23/6 245/23/6 244/23/6
f 208/23/6 264/23/6 246/23/6 206/23/6
f 214/23/1 278/23/1 208/23/1 207/23/1
f 264/23/2 279/23/2 280/23/2 281/23/2
f 280/23/4 279/23/4 278/23/4 214/23/4
f 278/23/6 279/23/6 264/23/6 208/23/6
f 284/22/1 285/22/1 214/22/1 213/22/1
f 280/22/2 286/22/2 287/22/2 277/22/2
f 287/22/4 286/22/4 285/22/4 284/22/4
f 277/22/5 287/22/5 284/22/5 213/22/5
f 285/22/6 286/22/6 280/22/6 214/22/6
f 298/22/1 299/22/1 300/22/1 301/22/1
f 300/22/3 302/22/3 303/22/3 301/22/3
f 304/22/4 305/22/4 299/22/4 298/22/4
f 303/22/5 304/22/5 298/22/5 301/22/5
f 299/22/6 305/22/6 302/22/6 300/22/6
f 312/22/2 313/22/2 314/22/2 315/22/2
f 238/22/3 312/22/3 315/22/3 239/22/3
f 315/22/5 314/22/5 243/22/5 239/22/5
f 247/22/6 313/22/6 312/22/6 238/22/6
f 329/23/2 330/23/2 331/23/2 313/23/2
f 246/23/3 329/23/3 313/23/3 247/23/3
f 331/23/4 330/23/4 264/23/4 281/23/4
f 264/24/1 332/24/1 333/24/1 246/24/1
f 334/24/2 335/24/2 330/24/2 329/24/2
f 333/24/3 334/24/3 329/24/3 246/24/3
f 330/24/4 335/24/4 332/24/4 264/24/4
f 332/24/6 335/24/6 334/24/6 333/24/6
f 331/22/2 344/22/2 343/22/2 328/22/2
f 343/22/4 344/22/4 280/22/4 277/22/4
f 280/22/6 344/22/6 331/22/6 281/22/6
f 303/22/1 302/22/1 355/22/1 356/22/1
f 355/22/3 357/22/3 358/22/3 356/22/3
f 358/22/5 359/22/5 303/22/5 356/22/5
f 302/22/6 360/22/6 357/22/6 355/22/6
f 359/22/5 363/22/5 304/22/5 303/22/5
f 305/23/1 364/23/1 365/23/1 302/23/1
f 365/23/3 366/23/3 360/23/3 302/23/3
f 367/23/4 368/23/4 364/23/4 305/23/4
f 364/23/6 368/23/6 366/23/6 365/23/6
f 371/22/1 372/22/1 305/22/1 304/22/1
f 373/22/4 374/22/4 372/22/4 371/22/4
f 363/22/5 373/22/5 371/22/5 304/22/5
f 372/22/6 374/22/6 367/22/6 305/22/6
f 381/22/2 382/22/2 383/22/2 384/22/2
f 313/22/3 381/22/3 384/22/3 314/22/3
f 383/22/4 382/22/4 331/22/4 328/22/4
f 384/22/5 383/22/5 328/22/5 314/22/5
f 331/22/6 382/22/6 381/22/6 313/22/6
f 358/22/1 357/22/1 395/22/1 396/22/1
f 397/22/2 398/22/2 399/22/2 400/22/2
f 395/22/3 397/22/3 400/22/3 396/22/3
f 400/22/5 399/22/5 358/22/5 396/22/5
f 357/22/6 398/22/6 397/22/6 395/22/6
f 399/22/5 403/22/5 359/22/5 358/22/5
f 360/23/1 366/23/1 404/23/1 357/23/1
f 405/23/2 406/23/2 407/23/2 398/23/2
f 404/23/3 405/23/3 398/23/3 357/23/3
f 366/23/6 406/23/6 405/23/6 404/23/6
f 368/23/6 427/23/6 406/23/6 366/23/6
f 374/23/1 443/23/1 368/23/1 367/23/1
f 427/23/2 444/23/2 445/23/2 446/23/2
f 445/23/4 444/23/4 443/23/4 374/23/4
f 443/23/6 444/23/6 427/23/6 368/23/6
f 449/22/1 450/22/1 374/22/1 373/22/1
f 445/22/2 451/22/2 452/22/2 442/22/2
f 452/22/4 451/22/4 450/22/4 449/22/4
f 442/22/5 452/22/5 449/22/5 373/22/5
f 450/22/6 451/22/6 445/22/6 374/22/6
f 469/22/2 470/22/2 471/22/2 472/22/2
f 398/22/3 469/22/3 472/22/3 399/22/3
f 472/22/5 471/22/5 403/22/5 399/22/5
f 407/22/6 470/22/6 469/22/6 398/22/6
f 488/23/2 489/23/2 490/23/2 470/23/2
f 406/23/3 488/23/3 470/23/3 407/23/3
f 490/23/4 489/23/4 427/23/4 446/23/4
f 427/24/1 491/24/1 492/24/1 406/24/1
f 493/24/2 494/24/2 489/24/2 488/24/2
f 492/24/3 493/24/3 488/24/3 406/24/3
f 489/24/4 494/24/4 491/24/4 427/24/4
f 491/24/6 494/24/6 493/24/6 492/24/6
f 490/22/2 504/22/2 503/22/2 487/22/2
f 503/22/4 504/22/4 445/22/4 442/22/4
f 445/22/6 504/22/6 490/22/6 446/22/6
f 525/22/2 526/22/2 527/22/2 528/22/2
f 470/22/3 525/22/3 528/22/3 471/22/3
f 527/22/4 526/22/4 490/22/4 487/22/4
f 528/22/5 527/22/5 487/22/5 471/22/5
f 490/22/6 526/22/6 525/22/6 470/22/6
