# Dungine chair; 1 voxel = 1/16 unit; Y-up floor-center origin
mtllib chair.mtl
o chair
s off
v -0.437500 0.437500 -0.375000
v -0.437500 0.500000 -0.375000
v -0.437500 0.500000 -0.437500
v -0.437500 0.437500 -0.437500
v -0.375000 0.500000 -0.437500
v -0.375000 0.437500 -0.437500
v -0.375000 0.437500 -0.375000
v -0.437500 0.562500 -0.375000
v -0.437500 0.562500 -0.437500
v -0.375000 0.562500 -0.437500
v -0.375000 0.562500 -0.375000
v -0.437500 0.437500 -0.312500
v -0.437500 0.500000 -0.312500
v -0.375000 0.437500 -0.312500
v -0.437500 0.562500 -0.312500
v -0.375000 0.562500 -0.312500
v -0.437500 0.437500 -0.250000
v -0.437500 0.500000 -0.250000
v -0.375000 0.437500 -0.250000
v -0.437500 0.562500 -0.250000
v -0.375000 0.562500 -0.250000
v -0.437500 0.437500 -0.187500
v -0.437500 0.500000 -0.187500
v -0.375000 0.437500 -0.187500
v -0.437500 0.562500 -0.187500
v -0.375000 0.562500 -0.187500
v -0.437500 0.437500 -0.125000
v -0.437500 0.500000 -0.125000
v -0.375000 0.437500 -0.125000
v -0.437500 0.562500 -0.125000
v -0.375000 0.562500 -0.125000
v -0.437500 0.437500 -0.062500
v -0.437500 0.500000 -0.062500
v -0.375000 0.437500 -0.062500
v -0.437500 0.562500 -0.062500
v -0.375000 0.562500 -0.062500
v -0.437500 0.437500 0.000000
v -0.437500 0.500000 0.000000
v -0.375000 0.437500 0.000000
v -0.437500 0.562500 0.000000
v -0.375000 0.562500 0.000000
v -0.437500 0.437500 0.062500
v -0.437500 0.500000 0.062500
v -0.375000 0.437500 0.062500
v -0.437500 0.562500 0.062500
v -0.375000 0.562500 0.062500
v -0.437500 0.437500 0.125000
v -0.437500 0.500000 0.125000
v -0.375000 0.437500 0.125000
v -0.437500 0.562500 0.125000
v -0.375000 0.562500 0.125000
v -0.437500 0.437500 0.187500
v -0.437500 0.500000 0.187500
v -0.375000 0.437500 0.187500
v -0.437500 0.562500 0.187500
v -0.375000 0.562500 0.187500
v -0.437500 0.437500 0.250000
v -0.437500 0.500000 0.250000
v -0.375000 0.437500 0.250000
v -0.437500 0.562500 0.250000
v -0.375000 0.562500 0.250000
v -0.437500 0.437500 0.312500
v -0.437500 0.500000 0.312500
v -0.375000 0.437500 0.312500
v -0.437500 0.562500 0.312500
v -0.375000 0.562500 0.312500
v -0.437500 0.437500 0.375000
v -0.437500 0.500000 0.375000
v -0.375000 0.437500 0.375000
v -0.437500 0.562500 0.375000
v -0.375000 0.562500 0.375000
v -0.437500 0.437500 0.437500
v -0.437500 0.500000 0.437500
v -0.375000 0.437500 0.437500
v -0.375000 0.500000 0.437500
v -0.437500 0.562500 0.437500
v -0.375000 0.562500 0.437500
v -0.312500 0.500000 -0.437500
v -0.312500 0.437500 -0.437500
v -0.312500 0.437500 -0.375000
v -0.312500 0.562500 -0.437500
v -0.312500 0.562500 -0.375000
v -0.375000 0.000000 -0.312500
v -0.375000 0.062500 -0.312500
v -0.375000 0.062500 -0.375000
v -0.375000 0.000000 -0.375000
v -0.312500 0.062500 -0.375000
v -0.312500 0.000000 -0.375000
v -0.312500 0.000000 -0.312500
v -0.375000 0.125000 -0.312500
v -0.375000 0.125000 -0.375000
v -0.312500 0.125000 -0.375000
v -0.375000 0.187500 -0.312500
v -0.375000 0.187500 -0.375000
v -0.312500 0.187500 -0.375000
v -0.375000 0.250000 -0.312500
v -0.375000 0.250000 -0.375000
v -0.312500 0.250000 -0.375000
v -0.375000 0.312500 -0.312500
v -0.375000 0.312500 -0.375000
v -0.312500 0.312500 -0.375000
v -0.375000 0.375000 -0.312500
v -0.375000 0.375000 -0.375000
v -0.312500 0.375000 -0.375000
v -0.312500 0.562500 -0.312500
v -0.375000 0.000000 -0.250000
v -0.375000 0.062500 -0.250000
v -0.312500 0.000000 -0.250000
v -0.312500 0.062500 -0.250000
v -0.375000 0.125000 -0.250000
v -0.312500 0.125000 -0.250000
v -0.375000 0.187500 -0.250000
v -0.312500 0.187500 -0.250000
v -0.375000 0.250000 -0.250000
v -0.312500 0.250000 -0.250000
v -0.375000 0.312500 -0.250000
v -0.312500 0.312500 -0.250000
v -0.375000 0.375000 -0.250000
v -0.312500 0.375000 -0.250000
v -0.312500 0.437500 -0.250000
v -0.312500 0.562500 -0.250000
v -0.312500 0.437500 -0.187500
v -0.312500 0.562500 -0.187500
v -0.312500 0.437500 -0.125000
v -0.312500 0.562500 -0.125000
v -0.312500 0.437500 -0.062500
v -0.312500 0.562500 -0.062500
v -0.312500 0.437500 0.000000
v -0.312500 0.562500 0.000000
v -0.312500 0.437500 0.062500
v -0.312500 0.562500 0.062500
v -0.312500 0.437500 0.125000
v -0.312500 0.562500 0.125000
v -0.312500 0.437500 0.187500
v -0.312500 0.562500 0.187500
v -0.312500 0.437500 0.250000
v -0.312500 0.562500 0.250000
v -0.375000 0.000000 0.312500
v -0.375000 0.062500 0.312500
v -0.375000 0.062500 0.250000
v -0.375000 0.000000 0.250000
v -0.312500 0.062500 0.250000
v -0.312500 0.000000 0.250000
v -0.312500 0.000000 0.312500
v -0.375000 0.125000 0.312500
v -0.375000 0.125000 0.250000
v -0.312500 0.125000 0.250000
v -0.375000 0.187500 0.312500
v -0.375000 0.187500 0.250000
v -0.312500 0.187500 0.250000
v -0.375000 0.250000 0.312500
v -0.375000 0.250000 0.250000
v -0.312500 0.250000 0.250000
v -0.375000 0.312500 0.312500
v -0.375000 0.312500 0.250000
v -0.312500 0.312500 0.250000
v -0.375000 0.375000 0.312500
v -0.375000 0.375000 0.250000
v -0.312500 0.375000 0.250000
v -0.375000 0.625000 0.312500
v -0.375000 0.625000 0.250000
v -0.312500 0.625000 0.250000
v -0.375000 0.687500 0.312500
v -0.375000 0.687500 0.250000
v -0.312500 0.687500 0.250000
v -0.375000 0.750000 0.312500
v -0.375000 0.750000 0.250000
v -0.312500 0.750000 0.250000
v -0.375000 0.812500 0.312500
v -0.375000 0.812500 0.250000
v -0.312500 0.812500 0.250000
v -0.375000 0.875000 0.312500
v -0.375000 0.875000 0.250000
v -0.312500 0.875000 0.250000
v -0.375000 0.937500 0.312500
v -0.375000 0.937500 0.250000
v -0.312500 0.937500 0.250000
v -0.375000 1.000000 0.312500
v -0.375000 1.000000 0.250000
v -0.312500 1.000000 0.250000
v -0.375000 1.062500 0.312500
v -0.375000 1.062500 0.250000
v -0.312500 1.062500 0.250000
v -0.375000 1.125000 0.312500
v -0.375000 1.125000 0.250000
v -0.312500 1.125000 0.250000
v -0.375000 1.187500 0.312500
v -0.375000 1.187500 0.250000
v -0.312500 1.187500 0.250000
v -0.375000 1.250000 0.312500
v -0.375000 1.250000 0.250000
v -0.312500 1.250000 0.250000
v -0.312500 1.250000 0.312500
v -0.375000 0.000000 0.375000
v -0.375000 0.062500 0.375000
v -0.312500 0.000000 0.375000
v -0.312500 0.062500 0.375000
v -0.375000 0.125000 0.375000
v -0.312500 0.125000 0.375000
v -0.375000 0.187500 0.375000
v -0.312500 0.187500 0.375000
v -0.375000 0.250000 0.375000
v -0.312500 0.250000 0.375000
v -0.375000 0.312500 0.375000
v -0.312500 0.312500 0.375000
v -0.375000 0.375000 0.375000
v -0.312500 0.375000 0.375000
v -0.312500 0.437500 0.375000
v -0.375000 0.625000 0.375000
v -0.312500 0.562500 0.375000
v -0.312500 0.625000 0.375000
v -0.375000 0.687500 0.375000
v -0.312500 0.687500 0.375000
v -0.375000 0.750000 0.375000
v -0.312500 0.750000 0.375000
v -0.375000 0.812500 0.375000
v -0.312500 0.812500 0.375000
v -0.375000 0.875000 0.375000
v -0.312500 0.875000 0.375000
v -0.375000 0.937500 0.375000
v -0.312500 0.937500 0.375000
v -0.375000 1.000000 0.375000
v -0.312500 1.000000 0.375000
v -0.375000 1.062500 0.375000
v -0.312500 1.062500 0.375000
v -0.375000 1.125000 0.375000
v -0.312500 1.125000 0.375000
v -0.375000 1.187500 0.375000
v -0.312500 1.187500 0.375000
v -0.375000 1.250000 0.375000
v -0.312500 1.250000 0.375000
v -0.312500 0.437500 0.437500
v -0.312500 0.500000 0.437500
v -0.312500 0.562500 0.437500
v -0.250000 0.500000 -0.437500
v -0.250000 0.437500 -0.437500
v -0.250000 0.437500 -0.375000
v -0.250000 0.562500 -0.437500
v -0.250000 0.562500 -0.375000
v -0.250000 0.062500 -0.375000
v -0.250000 0.062500 -0.312500
v -0.250000 0.000000 -0.312500
v -0.250000 0.000000 -0.375000
v -0.250000 0.125000 -0.375000
v -0.250000 0.125000 -0.312500
v -0.250000 0.187500 -0.375000
v -0.250000 0.187500 -0.312500
v -0.250000 0.250000 -0.375000
v -0.250000 0.250000 -0.312500
v -0.250000 0.312500 -0.375000
v -0.250000 0.312500 -0.312500
v -0.250000 0.375000 -0.375000
v -0.250000 0.375000 -0.312500
v -0.250000 0.437500 -0.312500
v -0.250000 0.562500 -0.312500
v -0.250000 0.062500 -0.250000
v -0.250000 0.000000 -0.250000
v -0.250000 0.125000 -0.250000
v -0.250000 0.187500 -0.250000
v -0.250000 0.250000 -0.250000
v -0.250000 0.312500 -0.250000
v -0.250000 0.375000 -0.250000
v -0.250000 0.437500 -0.250000
v -0.250000 0.562500 -0.250000
v -0.250000 0.437500 -0.187500
v -0.250000 0.562500 -0.187500
v -0.250000 0.437500 -0.125000
v -0.250000 0.562500 -0.125000
v -0.250000 0.437500 -0.062500
v -0.250000 0.562500 -0.062500
v -0.250000 0.437500 0.000000
v -0.250000 0.562500 0.000000
v -0.250000 0.437500 0.062500
v -0.250000 0.562500 0.062500
v -0.250000 0.437500 0.125000
v -0.250000 0.562500 0.125000
v -0.250000 0.437500 0.187500
v -0.250000 0.562500 0.187500
v -0.250000 0.437500 0.250000
v -0.250000 0.562500 0.250000
v -0.250000 0.062500 0.250000
v -0.250000 0.062500 0.312500
v -0.250000 0.000000 0.312500
v -0.250000 0.000000 0.250000
v -0.250000 0.125000 0.250000
v -0.250000 0.125000 0.312500
v -0.250000 0.187500 0.250000
v -0.250000 0.187500 0.312500
v -0.250000 0.250000 0.250000
v -0.250000 0.250000 0.312500
v -0.250000 0.312500 0.250000
v -0.250000 0.312500 0.312500
v -0.250000 0.375000 0.250000
v -0.250000 0.375000 0.312500
v -0.250000 0.437500 0.312500
v -0.250000 0.625000 0.250000
v -0.250000 0.687500 0.250000
v -0.250000 0.750000 0.250000
v -0.250000 0.812500 0.250000
v -0.250000 0.875000 0.250000
v -0.250000 0.937500 0.250000
v -0.250000 1.000000 0.250000
v -0.250000 1.062500 0.250000
v -0.250000 1.125000 0.250000
v -0.250000 1.187500 0.250000
v -0.250000 1.250000 0.250000
v -0.250000 1.250000 0.312500
v -0.250000 0.062500 0.375000
v -0.250000 0.000000 0.375000
v -0.250000 0.125000 0.375000
v -0.250000 0.187500 0.375000
v -0.250000 0.250000 0.375000
v -0.250000 0.312500 0.375000
v -0.250000 0.375000 0.375000
v -0.250000 0.437500 0.375000
v -0.250000 0.562500 0.375000
v -0.250000 0.625000 0.375000
v -0.250000 0.687500 0.375000
v -0.250000 0.750000 0.375000
v -0.250000 0.812500 0.375000
v -0.250000 0.875000 0.375000
v -0.250000 0.937500 0.375000
v -0.250000 1.000000 0.375000
v -0.250000 1.062500 0.375000
v -0.250000 1.125000 0.375000
v -0.250000 1.187500 0.375000
v -0.250000 1.250000 0.375000
v -0.250000 0.437500 0.437500
v -0.250000 0.500000 0.437500
v -0.250000 0.562500 0.437500
v -0.187500 0.500000 -0.437500
v -0.187500 0.437500 -0.437500
v -0.187500 0.437500 -0.375000
v -0.187500 0.562500 -0.437500
v -0.187500 0.562500 -0.375000
v -0.187500 0.437500 -0.312500
v -0.187500 0.562500 -0.312500
v -0.187500 0.437500 -0.250000
v -0.187500 0.562500 -0.250000
v -0.187500 0.437500 -0.187500
v -0.187500 0.562500 -0.187500
v -0.187500 0.437500 -0.125000
v -0.187500 0.562500 -0.125000
v -0.187500 0.437500 -0.062500
v -0.187500 0.562500 -0.062500
v -0.187500 0.437500 0.000000
v -0.187500 0.562500 0.000000
v -0.187500 0.437500 0.062500
v -0.187500 0.562500 0.062500
v -0.187500 0.437500 0.125000
v -0.187500 0.562500 0.125000
v -0.187500 0.437500 0.187500
v -0.187500 0.562500 0.187500
v -0.187500 0.437500 0.250000
v -0.187500 0.562500 0.250000
v -0.187500 0.437500 0.312500
v -0.187500 0.625000 0.250000
v -0.187500 0.687500 0.250000
v -0.187500 0.750000 0.250000
v -0.187500 0.750000 0.312500
v -0.187500 0.687500 0.312500
v -0.187500 0.812500 0.250000
v -0.187500 0.812500 0.312500
v -0.187500 0.875000 0.250000
v -0.187500 0.875000 0.312500
v -0.187500 0.937500 0.250000
v -0.187500 0.937500 0.312500
v -0.187500 1.000000 0.250000
v -0.187500 1.000000 0.312500
v -0.187500 1.062500 0.250000
v -0.187500 1.125000 0.250000
v -0.187500 1.187500 0.250000
v -0.187500 1.250000 0.250000
v -0.187500 1.250000 0.312500
v -0.187500 0.437500 0.375000
v -0.187500 0.562500 0.375000
v -0.187500 0.625000 0.375000
v -0.187500 0.687500 0.375000
v -0.187500 0.750000 0.375000
v -0.187500 0.812500 0.375000
v -0.187500 0.875000 0.375000
v -0.187500 0.937500 0.375000
v -0.187500 1.000000 0.375000
v -0.187500 1.062500 0.375000
v -0.187500 1.125000 0.375000
v -0.187500 1.187500 0.375000
v -0.187500 1.250000 0.375000
v -0.187500 0.437500 0.437500
v -0.187500 0.500000 0.437500
v -0.187500 0.562500 0.437500
v -0.125000 0.500000 -0.437500
v -0.125000 0.437500 -0.437500
v -0.125000 0.437500 -0.375000
v -0.125000 0.562500 -0.437500
v -0.125000 0.562500 -0.375000
v -0.125000 0.437500 -0.312500
v -0.125000 0.562500 -0.312500
v -0.125000 0.437500 -0.250000
v -0.125000 0.562500 -0.250000
v -0.125000 0.437500 -0.187500
v -0.125000 0.562500 -0.187500
v -0.125000 0.437500 -0.125000
v -0.125000 0.562500 -0.125000
v -0.125000 0.437500 -0.062500
v -0.125000 0.562500 -0.062500
v -0.125000 0.437500 0.000000
v -0.125000 0.562500 0.000000
v -0.125000 0.437500 0.062500
v -0.125000 0.562500 0.062500
v -0.125000 0.437500 0.125000
v -0.125000 0.562500 0.125000
v -0.125000 0.437500 0.187500
v -0.125000 0.562500 0.187500
v -0.125000 0.437500 0.250000
v -0.125000 0.562500 0.250000
v -0.125000 0.437500 0.312500
v -0.125000 0.625000 0.250000
v -0.125000 0.687500 0.250000
v -0.125000 0.687500 0.312500
v -0.125000 1.062500 0.250000
v -0.125000 1.000000 0.250000
v -0.125000 1.000000 0.312500
v -0.125000 1.125000 0.250000
v -0.125000 1.187500 0.250000
v -0.125000 1.250000 0.250000
v -0.125000 1.250000 0.312500
v -0.125000 0.437500 0.375000
v -0.125000 0.562500 0.375000
v -0.125000 0.625000 0.375000
v -0.125000 0.687500 0.375000
v -0.125000 1.000000 0.375000
v -0.125000 1.062500 0.375000
v -0.125000 1.125000 0.375000
v -0.125000 1.187500 0.375000
v -0.125000 1.250000 0.375000
v -0.125000 0.437500 0.437500
v -0.125000 0.500000 0.437500
v -0.125000 0.562500 0.437500
v -0.062500 0.500000 -0.437500
v -0.062500 0.437500 -0.437500
v -0.062500 0.437500 -0.375000
v -0.062500 0.562500 -0.437500
v -0.062500 0.562500 -0.375000
v -0.062500 0.437500 -0.312500
v -0.062500 0.562500 -0.312500
v -0.062500 0.437500 -0.250000
v -0.062500 0.562500 -0.250000
v -0.062500 0.437500 -0.187500
v -0.062500 0.562500 -0.187500
v -0.062500 0.437500 -0.125000
v -0.062500 0.562500 -0.125000
v -0.062500 0.437500 -0.062500
v -0.062500 0.562500 -0.062500
v -0.062500 0.437500 0.000000
v -0.062500 0.562500 0.000000
v -0.062500 0.437500 0.062500
v -0.062500 0.562500 0.062500
v -0.062500 0.437500 0.125000
v -0.062500 0.562500 0.125000
v -0.062500 0.437500 0.187500
v -0.062500 0.562500 0.187500
v -0.062500 0.437500 0.250000
v -0.062500 0.562500 0.250000
v -0.062500 0.437500 0.312500
v -0.062500 0.625000 0.250000
v -0.062500 0.687500 0.250000
v -0.062500 0.687500 0.312500
v -0.062500 1.062500 0.250000
v -0.062500 1.000000 0.250000
v -0.062500 1.000000 0.312500
v -0.062500 1.125000 0.250000
v -0.062500 1.187500 0.250000
v -0.062500 1.250000 0.250000
v -0.062500 1.250000 0.312500
v -0.062500 0.437500 0.375000
v -0.062500 0.562500 0.375000
v -0.062500 0.625000 0.375000
v -0.062500 0.687500 0.375000
v -0.062500 1.000000 0.375000
v -0.062500 1.062500 0.375000
v -0.062500 1.125000 0.375000
v -0.062500 1.187500 0.375000
v -0.062500 1.250000 0.375000
v -0.062500 0.437500 0.437500
v -0.062500 0.500000 0.437500
v -0.062500 0.562500 0.437500
v 0.000000 0.500000 -0.437500
v 0.000000 0.437500 -0.437500
v 0.000000 0.437500 -0.375000
v 0.000000 0.562500 -0.437500
v 0.000000 0.562500 -0.375000
v 0.000000 0.437500 -0.312500
v 0.000000 0.562500 -0.312500
v 0.000000 0.437500 -0.250000
v 0.000000 0.562500 -0.250000
v 0.000000 0.437500 -0.187500
v 0.000000 0.562500 -0.187500
v 0.000000 0.437500 -0.125000
v 0.000000 0.562500 -0.125000
v 0.000000 0.437500 -0.062500
v 0.000000 0.562500 -0.062500
v 0.000000 0.437500 0.000000
v 0.000000 0.562500 0.000000
v 0.000000 0.437500 0.062500
v 0.000000 0.562500 0.062500
v 0.000000 0.437500 0.125000
v 0.000000 0.562500 0.125000
v 0.000000 0.437500 0.187500
v 0.000000 0.562500 0.187500
v 0.000000 0.437500 0.250000
v 0.000000 0.562500 0.250000
v 0.000000 0.437500 0.312500
v 0.000000 0.625000 0.250000
v 0.000000 0.687500 0.250000
v 0.000000 0.687500 0.312500
v 0.000000 1.062500 0.250000
v 0.000000 1.000000 0.250000
v 0.000000 1.000000 0.312500
v 0.000000 1.125000 0.250000
v 0.000000 1.187500 0.250000
v 0.000000 1.250000 0.250000
v 0.000000 1.250000 0.312500
v 0.000000 0.437500 0.375000
v 0.000000 0.562500 0.375000
v 0.000000 0.625000 0.375000
v 0.000000 0.687500 0.375000
v 0.000000 1.000000 0.375000
v 0.000000 1.062500 0.375000
v 0.000000 1.125000 0.375000
v 0.000000 1.187500 0.375000
v 0.000000 1.250000 0.375000
v 0.000000 0.437500 0.437500
v 0.000000 0.500000 0.437500
v 0.000000 0.562500 0.437500
v 0.062500 0.500000 -0.437500
v 0.062500 0.437500 -0.437500
v 0.062500 0.437500 -0.375000
v 0.062500 0.562500 -0.437500
v 0.062500 0.562500 -0.375000
v 0.062500 0.437500 -0.312500
v 0.062500 0.562500 -0.312500
v 0.062500 0.437500 -0.250000
v 0.062500 0.562500 -0.250000
v 0.062500 0.437500 -0.187500
v 0.062500 0.562500 -0.187500
v 0.062500 0.437500 -0.125000
v 0.062500 0.562500 -0.125000
v 0.062500 0.437500 -0.062500
v 0.062500 0.562500 -0.062500
v 0.062500 0.437500 0.000000
v 0.062500 0.562500 0.000000
v 0.062500 0.437500 0.062500
v 0.062500 0.562500 0.062500
v 0.062500 0.437500 0.125000
v 0.062500 0.562500 0.125000
v 0.062500 0.437500 0.187500
v 0.062500 0.562500 0.187500
v 0.062500 0.437500 0.250000
v 0.062500 0.562500 0.250000
v 0.062500 0.437500 0.312500
v 0.062500 0.625000 0.250000
v 0.062500 0.687500 0.250000
v 0.062500 0.687500 0.312500
v 0.062500 1.062500 0.250000
v 0.062500 1.000000 0.250000
v 0.062500 1.000000 0.312500
v 0.062500 1.125000 0.250000
v 0.062500 1.187500 0.250000
v 0.062500 1.250000 0.250000
v 0.062500 1.250000 0.312500
v 0.062500 0.437500 0.375000
v 0.062500 0.562500 0.375000
v 0.062500 0.625000 0.375000
v 0.062500 0.687500 0.375000
v 0.062500 1.000000 0.375000
v 0.062500 1.062500 0.375000
v 0.062500 1.125000 0.375000
v 0.062500 1.187500 0.375000
v 0.062500 1.250000 0.375000
v 0.062500 0.437500 0.437500
v 0.062500 0.500000 0.437500
v 0.062500 0.562500 0.437500
v 0.125000 0.500000 -0.437500
v 0.125000 0.437500 -0.437500
v 0.125000 0.437500 -0.375000
v 0.125000 0.562500 -0.437500
v 0.125000 0.562500 -0.375000
v 0.125000 0.437500 -0.312500
v 0.125000 0.562500 -0.312500
v 0.125000 0.437500 -0.250000
v 0.125000 0.562500 -0.250000
v 0.125000 0.437500 -0.187500
v 0.125000 0.562500 -0.187500
v 0.125000 0.437500 -0.125000
v 0.125000 0.562500 -0.125000
v 0.125000 0.437500 -0.062500
v 0.125000 0.562500 -0.062500
v 0.125000 0.437500 0.000000
v 0.125000 0.562500 0.000000
v 0.125000 0.437500 0.062500
v 0.125000 0.562500 0.062500
v 0.125000 0.437500 0.125000
v 0.125000 0.562500 0.125000
v 0.125000 0.437500 0.187500
v 0.125000 0.562500 0.187500
v 0.125000 0.437500 0.250000
v 0.125000 0.562500 0.250000
v 0.125000 0.437500 0.312500
v 0.125000 0.625000 0.250000
v 0.125000 0.687500 0.250000
v 0.125000 0.687500 0.312500
v 0.125000 1.062500 0.250000
v 0.125000 1.000000 0.250000
v 0.125000 1.000000 0.312500
v 0.125000 1.125000 0.250000
v 0.125000 1.187500 0.250000
v 0.125000 1.250000 0.250000
v 0.125000 1.250000 0.312500
v 0.125000 0.437500 0.375000
v 0.125000 0.562500 0.375000
v 0.125000 0.625000 0.375000
v 0.125000 0.687500 0.375000
v 0.125000 1.000000 0.375000
v 0.125000 1.062500 0.375000
v 0.125000 1.125000 0.375000
v 0.125000 1.187500 0.375000
v 0.125000 1.250000 0.375000
v 0.125000 0.437500 0.437500
v 0.125000 0.500000 0.437500
v 0.125000 0.562500 0.437500
v 0.187500 0.500000 -0.437500
v 0.187500 0.437500 -0.437500
v 0.187500 0.437500 -0.375000
v 0.187500 0.562500 -0.437500
v 0.187500 0.562500 -0.375000
v 0.187500 0.437500 -0.312500
v 0.187500 0.562500 -0.312500
v 0.187500 0.437500 -0.250000
v 0.187500 0.562500 -0.250000
v 0.187500 0.437500 -0.187500
v 0.187500 0.562500 -0.187500
v 0.187500 0.437500 -0.125000
v 0.187500 0.562500 -0.125000
v 0.187500 0.437500 -0.062500
v 0.187500 0.562500 -0.062500
v 0.187500 0.437500 0.000000
v 0.187500 0.562500 0.000000
v 0.187500 0.437500 0.062500
v 0.187500 0.562500 0.062500
v 0.187500 0.437500 0.125000
v 0.187500 0.562500 0.125000
v 0.187500 0.437500 0.187500
v 0.187500 0.562500 0.187500
v 0.187500 0.437500 0.250000
v 0.187500 0.562500 0.250000
v 0.187500 0.437500 0.312500
v 0.187500 0.625000 0.250000
v 0.187500 0.687500 0.250000
v 0.187500 0.687500 0.312500
v 0.187500 1.062500 0.250000
v 0.187500 1.000000 0.250000
v 0.187500 1.000000 0.312500
v 0.187500 1.125000 0.250000
v 0.187500 1.187500 0.250000
v 0.187500 1.250000 0.250000
v 0.187500 1.250000 0.312500
v 0.187500 0.437500 0.375000
v 0.187500 0.562500 0.375000
v 0.187500 0.625000 0.375000
v 0.187500 0.687500 0.375000
v 0.187500 1.000000 0.375000
v 0.187500 1.062500 0.375000
v 0.187500 1.125000 0.375000
v 0.187500 1.187500 0.375000
v 0.187500 1.250000 0.375000
v 0.187500 0.437500 0.437500
v 0.187500 0.500000 0.437500
v 0.187500 0.562500 0.437500
v 0.250000 0.500000 -0.437500
v 0.250000 0.437500 -0.437500
v 0.250000 0.437500 -0.375000
v 0.250000 0.562500 -0.437500
v 0.250000 0.562500 -0.375000
v 0.250000 0.437500 -0.312500
v 0.250000 0.562500 -0.312500
v 0.250000 0.437500 -0.250000
v 0.250000 0.562500 -0.250000
v 0.250000 0.437500 -0.187500
v 0.250000 0.562500 -0.187500
v 0.250000 0.437500 -0.125000
v 0.250000 0.562500 -0.125000
v 0.250000 0.437500 -0.062500
v 0.250000 0.562500 -0.062500
v 0.250000 0.437500 0.000000
v 0.250000 0.562500 0.000000
v 0.250000 0.437500 0.062500
v 0.250000 0.562500 0.062500
v 0.250000 0.437500 0.125000
v 0.250000 0.562500 0.125000
v 0.250000 0.437500 0.187500
v 0.250000 0.562500 0.187500
v 0.250000 0.437500 0.250000
v 0.250000 0.562500 0.250000
v 0.250000 0.437500 0.312500
v 0.250000 0.625000 0.250000
v 0.250000 0.687500 0.250000
v 0.187500 0.750000 0.312500
v 0.187500 0.750000 0.250000
v 0.250000 0.750000 0.250000
v 0.187500 0.812500 0.312500
v 0.187500 0.812500 0.250000
v 0.250000 0.812500 0.250000
v 0.187500 0.875000 0.312500
v 0.187500 0.875000 0.250000
v 0.250000 0.875000 0.250000
v 0.187500 0.937500 0.312500
v 0.187500 0.937500 0.250000
v 0.250000 0.937500 0.250000
v 0.250000 1.000000 0.250000
v 0.250000 1.062500 0.250000
v 0.250000 1.125000 0.250000
v 0.250000 1.187500 0.250000
v 0.250000 1.250000 0.250000
v 0.250000 1.250000 0.312500
v 0.250000 0.437500 0.375000
v 0.250000 0.562500 0.375000
v 0.250000 0.625000 0.375000
v 0.250000 0.687500 0.375000
v 0.187500 0.750000 0.375000
v 0.250000 0.750000 0.375000
v 0.187500 0.812500 0.375000
v 0.250000 0.812500 0.375000
v 0.187500 0.875000 0.375000
v 0.250000 0.875000 0.375000
v 0.187500 0.937500 0.375000
v 0.250000 0.937500 0.375000
v 0.250000 1.000000 0.375000
v 0.250000 1.062500 0.375000
v 0.250000 1.125000 0.375000
v 0.250000 1.187500 0.375000
v 0.250000 1.250000 0.375000
v 0.250000 0.437500 0.437500
v 0.250000 0.500000 0.437500
v 0.250000 0.562500 0.437500
v 0.312500 0.500000 -0.437500
v 0.312500 0.437500 -0.437500
v 0.312500 0.437500 -0.375000
v 0.312500 0.562500 -0.437500
v 0.312500 0.562500 -0.375000
v 0.250000 0.000000 -0.312500
v 0.250000 0.062500 -0.312500
v 0.250000 0.062500 -0.375000
v 0.250000 0.000000 -0.375000
v 0.312500 0.062500 -0.375000
v 0.312500 0.000000 -0.375000
v 0.312500 0.000000 -0.312500
v 0.250000 0.125000 -0.312500
v 0.250000 0.125000 -0.375000
v 0.312500 0.125000 -0.375000
v 0.250000 0.187500 -0.312500
v 0.250000 0.187500 -0.375000
v 0.312500 0.187500 -0.375000
v 0.250000 0.250000 -0.312500
v 0.250000 0.250000 -0.375000
v 0.312500 0.250000 -0.375000
v 0.250000 0.312500 -0.312500
v 0.250000 0.312500 -0.375000
v 0.312500 0.312500 -0.375000
v 0.250000 0.375000 -0.312500
v 0.250000 0.375000 -0.375000
v 0.312500 0.375000 -0.375000
v 0.312500 0.562500 -0.312500
v 0.250000 0.000000 -0.250000
v 0.250000 0.062500 -0.250000
v 0.312500 0.000000 -0.250000
v 0.312500 0.062500 -0.250000
v 0.250000 0.125000 -0.250000
v 0.312500 0.125000 -0.250000
v 0.250000 0.187500 -0.250000
v 0.312500 0.187500 -0.250000
v 0.250000 0.250000 -0.250000
v 0.312500 0.250000 -0.250000
v 0.250000 0.312500 -0.250000
v 0.312500 0.312500 -0.250000
v 0.250000 0.375000 -0.250000
v 0.312500 0.375000 -0.250000
v 0.312500 0.437500 -0.250000
v 0.312500 0.562500 -0.250000
v 0.312500 0.437500 -0.187500
v 0.312500 0.562500 -0.187500
v 0.312500 0.437500 -0.125000
v 0.312500 0.562500 -0.125000
v 0.312500 0.437500 -0.062500
v 0.312500 0.562500 -0.062500
v 0.312500 0.437500 0.000000
v 0.312500 0.562500 0.000000
v 0.312500 0.437500 0.062500
v 0.312500 0.562500 0.062500
v 0.312500 0.437500 0.125000
v 0.312500 0.562500 0.125000
v 0.312500 0.437500 0.187500
v 0.312500 0.562500 0.187500
v 0.312500 0.437500 0.250000
v 0.312500 0.562500 0.250000
v 0.250000 0.000000 0.312500
v 0.250000 0.062500 0.312500
v 0.250000 0.062500 0.250000
v 0.250000 0.000000 0.250000
v 0.312500 0.062500 0.250000
v 0.312500 0.000000 0.250000
v 0.312500 0.000000 0.312500
v 0.250000 0.125000 0.312500
v 0.250000 0.125000 0.250000
v 0.312500 0.125000 0.250000
v 0.250000 0.187500 0.312500
v 0.250000 0.187500 0.250000
v 0.312500 0.187500 0.250000
v 0.250000 0.250000 0.312500
v 0.250000 0.250000 0.250000
v 0.312500 0.250000 0.250000
v 0.250000 0.312500 0.312500
v 0.250000 0.312500 0.250000
v 0.312500 0.312500 0.250000
v 0.250000 0.375000 0.312500
v 0.250000 0.375000 0.250000
v 0.312500 0.375000 0.250000
v 0.312500 0.625000 0.250000
v 0.312500 0.687500 0.250000
v 0.312500 0.750000 0.250000
v 0.312500 0.812500 0.250000
v 0.312500 0.875000 0.250000
v 0.312500 0.937500 0.250000
v 0.312500 1.000000 0.250000
v 0.312500 1.062500 0.250000
v 0.312500 1.125000 0.250000
v 0.312500 1.187500 0.250000
v 0.312500 1.250000 0.250000
v 0.312500 1.250000 0.312500
v 0.250000 0.000000 0.375000
v 0.250000 0.062500 0.375000
v 0.312500 0.000000 0.375000
v 0.312500 0.062500 0.375000
v 0.250000 0.125000 0.375000
v 0.312500 0.125000 0.375000
v 0.250000 0.187500 0.375000
v 0.312500 0.187500 0.375000
v 0.250000 0.250000 0.375000
v 0.312500 0.250000 0.375000
v 0.250000 0.312500 0.375000
v 0.312500 0.312500 0.375000
v 0.250000 0.375000 0.375000
v 0.312500 0.375000 0.375000
v 0.312500 0.437500 0.375000
v 0.312500 0.562500 0.375000
v 0.312500 0.625000 0.375000
v 0.312500 0.687500 0.375000
v 0.312500 0.750000 0.375000
v 0.312500 0.812500 0.375000
v 0.312500 0.875000 0.375000
v 0.312500 0.937500 0.375000
v 0.312500 1.000000 0.375000
v 0.312500 1.062500 0.375000
v 0.312500 1.125000 0.375000
v 0.312500 1.187500 0.375000
v 0.312500 1.250000 0.375000
v 0.312500 0.437500 0.437500
v 0.312500 0.500000 0.437500
v 0.312500 0.562500 0.437500
v 0.375000 0.500000 -0.437500
v 0.375000 0.437500 -0.437500
v 0.375000 0.437500 -0.375000
v 0.375000 0.562500 -0.437500
v 0.375000 0.562500 -0.375000
v 0.375000 0.062500 -0.375000
v 0.375000 0.062500 -0.312500
v 0.375000 0.000000 -0.312500
v 0.375000 0.000000 -0.375000
v 0.375000 0.125000 -0.375000
v 0.375000 0.125000 -0.312500
v 0.375000 0.187500 -0.375000
v 0.375000 0.187500 -0.312500
v 0.375000 0.250000 -0.375000
v 0.375000 0.250000 -0.312500
v 0.375000 0.312500 -0.375000
v 0.375000 0.312500 -0.312500
v 0.375000 0.375000 -0.375000
v 0.375000 0.375000 -0.312500
v 0.375000 0.437500 -0.312500
v 0.375000 0.562500 -0.312500
v 0.375000 0.062500 -0.250000
v 0.375000 0.000000 -0.250000
v 0.375000 0.125000 -0.250000
v 0.375000 0.187500 -0.250000
v 0.375000 0.250000 -0.250000
v 0.375000 0.312500 -0.250000
v 0.375000 0.375000 -0.250000
v 0.375000 0.437500 -0.250000
v 0.375000 0.562500 -0.250000
v 0.375000 0.437500 -0.187500
v 0.375000 0.562500 -0.187500
v 0.375000 0.437500 -0.125000
v 0.375000 0.562500 -0.125000
v 0.375000 0.437500 -0.062500
v 0.375000 0.562500 -0.062500
v 0.375000 0.437500 0.000000
v 0.375000 0.562500 0.000000
v 0.375000 0.437500 0.062500
v 0.375000 0.562500 0.062500
v 0.375000 0.437500 0.125000
v 0.375000 0.562500 0.125000
v 0.375000 0.437500 0.187500
v 0.375000 0.562500 0.187500
v 0.375000 0.437500 0.250000
v 0.375000 0.562500 0.250000
v 0.375000 0.062500 0.250000
v 0.375000 0.062500 0.312500
v 0.375000 0.000000 0.312500
v 0.375000 0.000000 0.250000
v 0.375000 0.125000 0.250000
v 0.375000 0.125000 0.312500
v 0.375000 0.187500 0.250000
v 0.375000 0.187500 0.312500
v 0.375000 0.250000 0.250000
v 0.375000 0.250000 0.312500
v 0.375000 0.312500 0.250000
v 0.375000 0.312500 0.312500
v 0.375000 0.375000 0.250000
v 0.375000 0.375000 0.312500
v 0.375000 0.437500 0.312500
v 0.375000 0.625000 0.250000
v 0.375000 0.625000 0.312500
v 0.375000 0.562500 0.312500
v 0.375000 0.687500 0.250000
v 0.375000 0.687500 0.312500
v 0.375000 0.750000 0.250000
v 0.375000 0.750000 0.312500
v 0.375000 0.812500 0.250000
v 0.375000 0.812500 0.312500
v 0.375000 0.875000 0.250000
v 0.375000 0.875000 0.312500
v 0.375000 0.937500 0.250000
v 0.375000 0.937500 0.312500
v 0.375000 1.000000 0.250000
v 0.375000 1.000000 0.312500
v 0.375000 1.062500 0.250000
v 0.375000 1.062500 0.312500
v 0.375000 1.125000 0.250000
v 0.375000 1.125000 0.312500
v 0.375000 1.187500 0.250000
v 0.375000 1.187500 0.312500
v 0.375000 1.250000 0.250000
v 0.375000 1.250000 0.312500
v 0.375000 0.062500 0.375000
v 0.375000 0.000000 0.375000
v 0.375000 0.125000 0.375000
v 0.375000 0.187500 0.375000
v 0.375000 0.250000 0.375000
v 0.375000 0.312500 0.375000
v 0.375000 0.375000 0.375000
v 0.375000 0.437500 0.375000
v 0.375000 0.625000 0.375000
v 0.375000 0.562500 0.375000
v 0.375000 0.687500 0.375000
v 0.375000 0.750000 0.375000
v 0.375000 0.812500 0.375000
v 0.375000 0.875000 0.375000
v 0.375000 0.937500 0.375000
v 0.375000 1.000000 0.375000
v 0.375000 1.062500 0.375000
v 0.375000 1.125000 0.375000
v 0.375000 1.187500 0.375000
v 0.375000 1.250000 0.375000
v 0.375000 0.437500 0.437500
v 0.375000 0.500000 0.437500
v 0.375000 0.562500 0.437500
v 0.437500 0.500000 -0.437500
v 0.437500 0.500000 -0.375000
v 0.437500 0.437500 -0.375000
v 0.437500 0.437500 -0.437500
v 0.437500 0.562500 -0.437500
v 0.437500 0.562500 -0.375000
v 0.437500 0.500000 -0.312500
v 0.437500 0.437500 -0.312500
v 0.437500 0.562500 -0.312500
v 0.437500 0.500000 -0.250000
v 0.437500 0.437500 -0.250000
v 0.437500 0.562500 -0.250000
v 0.437500 0.500000 -0.187500
v 0.437500 0.437500 -0.187500
v 0.437500 0.562500 -0.187500
v 0.437500 0.500000 -0.125000
v 0.437500 0.437500 -0.125000
v 0.437500 0.562500 -0.125000
v 0.437500 0.500000 -0.062500
v 0.437500 0.437500 -0.062500
v 0.437500 0.562500 -0.062500
v 0.437500 0.500000 0.000000
v 0.437500 0.437500 0.000000
v 0.437500 0.562500 0.000000
v 0.437500 0.500000 0.062500
v 0.437500 0.437500 0.062500
v 0.437500 0.562500 0.062500
v 0.437500 0.500000 0.125000
v 0.437500 0.437500 0.125000
v 0.437500 0.562500 0.125000
v 0.437500 0.500000 0.187500
v 0.437500 0.437500 0.187500
v 0.437500 0.562500 0.187500
v 0.437500 0.500000 0.250000
v 0.437500 0.437500 0.250000
v 0.437500 0.562500 0.250000
v 0.437500 0.500000 0.312500
v 0.437500 0.437500 0.312500
v 0.437500 0.562500 0.312500
v 0.437500 0.500000 0.375000
v 0.437500 0.437500 0.375000
v 0.437500 0.562500 0.375000
v 0.437500 0.500000 0.437500
v 0.437500 0.437500 0.437500
v 0.437500 0.562500 0.437500
vt 0.03125000 0.96875000
vt 0.09375000 0.96875000
vt 0.15625000 0.96875000
vt 0.21875000 0.96875000
vt 0.28125000 0.96875000
vt 0.34375000 0.96875000
vt 0.40625000 0.96875000
vt 0.46875000 0.96875000
vt 0.53125000 0.96875000
vt 0.59375000 0.96875000
vt 0.65625000 0.96875000
vt 0.71875000 0.96875000
vt 0.78125000 0.96875000
vt 0.84375000 0.96875000
vt 0.90625000 0.96875000
vt 0.96875000 0.96875000
vt 0.03125000 0.90625000
vt 0.09375000 0.90625000
vt 0.15625000 0.90625000
vt 0.21875000 0.90625000
vt 0.28125000 0.90625000
vt 0.34375000 0.90625000
vt 0.40625000 0.90625000
vt 0.46875000 0.90625000
vt 0.53125000 0.90625000
vt 0.59375000 0.90625000
vt 0.65625000 0.90625000
vt 0.71875000 0.90625000
vt 0.78125000 0.90625000
vt 0.84375000 0.90625000
vt 0.90625000 0.90625000
vt 0.96875000 0.90625000
vt 0.03125000 0.84375000
vt 0.09375000 0.84375000
vt 0.15625000 0.84375000
vt 0.21875000 0.84375000
vt 0.28125000 0.84375000
vt 0.34375000 0.84375000
vt 0.40625000 0.84375000
vt 0.46875000 0.84375000
vt 0.53125000 0.84375000
vt 0.59375000 0.84375000
vt 0.65625000 0.84375000
vt 0.71875000 0.84375000
vt 0.78125000 0.84375000
vt 0.84375000 0.84375000
vt 0.90625000 0.84375000
vt 0.96875000 0.84375000
vt 0.03125000 0.78125000
vt 0.09375000 0.78125000
vt 0.15625000 0.78125000
vt 0.21875000 0.78125000
vt 0.28125000 0.78125000
vt 0.34375000 0.78125000
vt 0.40625000 0.78125000
vt 0.46875000 0.78125000
vt 0.53125000 0.78125000
vt 0.59375000 0.78125000
vt 0.65625000 0.78125000
vt 0.71875000 0.78125000
vt 0.78125000 0.78125000
vt 0.84375000 0.78125000
vt 0.90625000 0.78125000
vt 0.96875000 0.78125000
vt 0.03125000 0.71875000
vt 0.09375000 0.71875000
vt 0.15625000 0.71875000
vt 0.21875000 0.71875000
vt 0.28125000 0.71875000
vt 0.34375000 0.71875000
vt 0.40625000 0.71875000
vt 0.46875000 0.71875000
vt 0.53125000 0.71875000
vt 0.59375000 0.71875000
vt 0.65625000 0.71875000
vt 0.71875000 0.71875000
vt 0.78125000 0.71875000
vt 0.84375000 0.71875000
vt 0.90625000 0.71875000
vt 0.96875000 0.71875000
vt 0.03125000 0.65625000
vt 0.09375000 0.65625000
vt 0.15625000 0.65625000
vt 0.21875000 0.65625000
vt 0.28125000 0.65625000
vt 0.34375000 0.65625000
vt 0.40625000 0.65625000
vt 0.46875000 0.65625000
vt 0.53125000 0.65625000
vt 0.59375000 0.65625000
vt 0.65625000 0.65625000
vt 0.71875000 0.65625000
vt 0.78125000 0.65625000
vt 0.84375000 0.65625000
vt 0.90625000 0.65625000
vt 0.96875000 0.65625000
vt 0.03125000 0.59375000
vt 0.09375000 0.59375000
vt 0.15625000 0.59375000
vt 0.21875000 0.59375000
vt 0.28125000 0.59375000
vt 0.34375000 0.59375000
vt 0.40625000 0.59375000
vt 0.46875000 0.59375000
vt 0.53125000 0.59375000
vt 0.59375000 0.59375000
vt 0.65625000 0.59375000
vt 0.71875000 0.59375000
vt 0.78125000 0.59375000
vt 0.84375000 0.59375000
vt 0.90625000 0.59375000
vt 0.96875000 0.59375000
vt 0.03125000 0.53125000
vt 0.09375000 0.53125000
vt 0.15625000 0.53125000
vt 0.21875000 0.53125000
vt 0.28125000 0.53125000
vt 0.34375000 0.53125000
vt 0.40625000 0.53125000
vt 0.46875000 0.53125000
vt 0.53125000 0.53125000
vt 0.59375000 0.53125000
vt 0.65625000 0.53125000
vt 0.71875000 0.53125000
vt 0.78125000 0.53125000
vt 0.84375000 0.53125000
vt 0.90625000 0.53125000
vt 0.96875000 0.53125000
vt 0.03125000 0.46875000
vt 0.09375000 0.46875000
vt 0.15625000 0.46875000
vt 0.21875000 0.46875000
vt 0.28125000 0.46875000
vt 0.34375000 0.46875000
vt 0.40625000 0.46875000
vt 0.46875000 0.46875000
vt 0.53125000 0.46875000
vt 0.59375000 0.46875000
vt 0.65625000 0.46875000
vt 0.71875000 0.46875000
vt 0.78125000 0.46875000
vt 0.84375000 0.46875000
vt 0.90625000 0.46875000
vt 0.96875000 0.46875000
vt 0.03125000 0.40625000
vt 0.09375000 0.40625000
vt 0.15625000 0.40625000
vt 0.21875000 0.40625000
vt 0.28125000 0.40625000
vt 0.34375000 0.40625000
vt 0.40625000 0.40625000
vt 0.46875000 0.40625000
vt 0.53125000 0.40625000
vt 0.59375000 0.40625000
vt 0.65625000 0.40625000
vt 0.71875000 0.40625000
vt 0.78125000 0.40625000
vt 0.84375000 0.40625000
vt 0.90625000 0.40625000
vt 0.96875000 0.40625000
vt 0.03125000 0.34375000
vt 0.09375000 0.34375000
vt 0.15625000 0.34375000
vt 0.21875000 0.34375000
vt 0.28125000 0.34375000
vt 0.34375000 0.34375000
vt 0.40625000 0.34375000
vt 0.46875000 0.34375000
vt 0.53125000 0.34375000
vt 0.59375000 0.34375000
vt 0.65625000 0.34375000
vt 0.71875000 0.34375000
vt 0.78125000 0.34375000
vt 0.84375000 0.34375000
vt 0.90625000 0.34375000
vt 0.96875000 0.34375000
vt 0.03125000 0.28125000
vt 0.09375000 0.28125000
vt 0.15625000 0.28125000
vt 0.21875000 0.28125000
vt 0.28125000 0.28125000
vt 0.34375000 0.28125000
vt 0.40625000 0.28125000
vt 0.46875000 0.28125000
vt 0.53125000 0.28125000
vt 0.59375000 0.28125000
vt 0.65625000 0.28125000
vt 0.71875000 0.28125000
vt 0.78125000 0.28125000
vt 0.84375000 0.28125000
vt 0.90625000 0.28125000
vt 0.96875000 0.28125000
vt 0.03125000 0.21875000
vt 0.09375000 0.21875000
vt 0.15625000 0.21875000
vt 0.21875000 0.21875000
vt 0.28125000 0.21875000
vt 0.34375000 0.21875000
vt 0.40625000 0.21875000
vt 0.46875000 0.21875000
vt 0.53125000 0.21875000
vt 0.59375000 0.21875000
vt 0.65625000 0.21875000
vt 0.71875000 0.21875000
vt 0.78125000 0.21875000
vt 0.84375000 0.21875000
vt 0.90625000 0.21875000
vt 0.96875000 0.21875000
vt 0.03125000 0.15625000
vt 0.09375000 0.15625000
vt 0.15625000 0.15625000
vt 0.21875000 0.15625000
vt 0.28125000 0.15625000
vt 0.34375000 0.15625000
vt 0.40625000 0.15625000
vt 0.46875000 0.15625000
vt 0.53125000 0.15625000
vt 0.59375000 0.15625000
vt 0.65625000 0.15625000
vt 0.71875000 0.15625000
vt 0.78125000 0.15625000
vt 0.84375000 0.15625000
vt 0.90625000 0.15625000
vt 0.96875000 0.15625000
vt 0.03125000 0.09375000
vt 0.09375000 0.09375000
vt 0.15625000 0.09375000
vt 0.21875000 0.09375000
vt 0.28125000 0.09375000
vt 0.34375000 0.09375000
vt 0.40625000 0.09375000
vt 0.46875000 0.09375000
vt 0.53125000 0.09375000
vt 0.59375000 0.09375000
vt 0.65625000 0.09375000
vt 0.71875000 0.09375000
vt 0.78125000 0.09375000
vt 0.84375000 0.09375000
vt 0.90625000 0.09375000
vt 0.96875000 0.09375000
vt 0.03125000 0.03125000
vt 0.09375000 0.03125000
vt 0.15625000 0.03125000
vt 0.21875000 0.03125000
vt 0.28125000 0.03125000
vt 0.34375000 0.03125000
vt 0.40625000 0.03125000
vt 0.46875000 0.03125000
vt 0.53125000 0.03125000
vt 0.59375000 0.03125000
vt 0.65625000 0.03125000
vt 0.71875000 0.03125000
vt 0.78125000 0.03125000
vt 0.84375000 0.03125000
vt 0.90625000 0.03125000
vt 0.96875000 0.03125000
vn -1 0 0
vn 1 0 0
vn 0 0 -1
vn 0 0 1
vn 0 -1 0
vn 0 1 0
g palette
usemtl palette
f 1/37/1 2/37/1 3/37/1 4/37/1
f 3/37/3 5/37/3 6/37/3 4/37/3
f 6/37/5 7/37/5 1/37/5 4/37/5
f 2/37/1 8/37/1 9/37/1 3/37/1
f 9/37/3 10/37/3 5/37/3 3/37/3
f 8/37/6 11/37/6 10/37/6 9/37/6
f 12/37/1 13/37/1 2/37/1 1/37/1
f 7/37/5 14/37/5 12/37/5 1/37/5
f 13/37/1 15/37/1 8/37/1 2/37/1
f 15/37/6 16/37/6 11/37/6 8/37/6
f 17/37/1 18/37/1 13/37/1 12/37/1
f 14/37/5 19/37/5 17/37/5 12/37/5
f 18/37/1 20/37/1 15/37/1 13/37/1
f 20/37/6 21/37/6 16/37/6 15/37/6
f 22/37/1 23/37/1 18/37/1 17/37/1
f 19/37/5 24/37/5 22/37/5 17/37/5
f 23/37/1 25/37/1 20/37/1 18/37/1
f 25/37/6 26/37/6 21/37/6 20/37/6
f 27/37/1 28/37/1 23/37/1 22/37/1
f 24/37/5 29/37/5 27/37/5 22/37/5
f 28/37/1 30/37/1 25/37/1 23/37/1
f 30/37/6 31/37/6 26/37/6 25/37/6
f 32/37/1 33/37/1 28/37/1 27/37/1
f 29/37/5 34/37/5 32/37/5 27/37/5
f 33/37/1 35/37/1 30/37/1 28/37/1
f 35/37/6 36/37/6 31/37/6 30/37/6
f 37/37/1 38/37/1 33/37/1 32/37/1
f 34/37/5 39/37/5 37/37/5 32/37/5
f 38/37/1 40/37/1 35/37/1 33/37/1
f 40/37/6 41/37/6 36/37/6 35/37/6
f 42/37/1 43/37/1 38/37/1 37/37/1
f 39/37/5 44/37/5 42/37/5 37/37/5
f 43/37/1 45/37/1 40/37/1 38/37/1
f 45/37/6 46/37/6 41/37/6 40/37/6
f 47/37/1 48/37/1 43/37/1 42/37/1
f 44/37/5 49/37/5 47/37/5 42/37/5
f 48/37/1 50/37/1 45/37/1 43/37/1
f 50/37/6 51/37/6 46/37/6 45/37/6
f 52/37/1 53/37/1 48/37/1 47/37/1
f 49/37/5 54/37/5 52/37/5 47/37/5
f 53/37/1 55/37/1 50/37/1 48/37/1
f 55/37/6 56/37/6 51/37/6 50/37/6
f 57/37/1 58/37/1 53/37/1 52/37/1
f 54/37/5 59/37/5 57/37/5 52/37/5
f 58/37/1 60/37/1 55/37/1 53/37/1
f 60/37/6 61/37/6 56/37/6 55/37/6
f 62/37/1 63/37/1 58/37/1 57/37/1
f 59/37/5 64/37/5 62/37/5 57/37/5
f 63/37/1 65/37/1 60/37/1 58/37/1
f 65/37/6 66/37/6 61/37/6 60/37/6
f 67/37/1 68/37/1 63/37/1 62/37/1
f 64/37/5 69/37/5 67/37/5 62/37/5
f 68/37/1 70/37/1 65/37/1 63/37/1
f 70/37/6 71/37/6 66/37/6 65/37/6
f 72/37/1 73/37/1 68/37/1 67/37/1
f 74/37/4 75/37/4 73/37/4 72/37/4
f 69/37/5 74/37/5 72/37/5 67/37/5
f 73/37/1 76/37/1 70/37/1 68/37/1
f 75/37/4 77/37/4 76/37/4 73/37/4
f 76/37/6 77/37/6 71/37/6 70/37/6
f 5/37/3 78/37/3 79/37/3 6/37/3
f 79/37/5 80/37/5 7/37/5 6/37/5
f 10/37/3 81/37/3 78/37/3 5/37/3
f 11/37/6 82/37/6 81/37/6 10/37/6
f 83/36/1 84/36/1 85/36/1 86/36/1
f 85/36/3 87/36/3 88/36/3 86/36/3
f 88/36/5 89/36/5 83/36/5 86/36/5
f 84/36/1 90/36/1 91/36/1 85/36/1
f 91/36/3 92/36/3 87/36/3 85/36/3
f 90/36/1 93/36/1 94/36/1 91/36/1
f 94/36/3 95/36/3 92/36/3 91/36/3
f 93/36/1 96/36/1 97/36/1 94/36/1
f 97/36/3 98/36/3 95/36/3 94/36/3
f 96/36/1 99/36/1 100/36/1 97/36/1
f 100/36/3 101/36/3 98/36/3 97/36/3
f 99/36/1 102/36/1 103/36/1 100/36/1
f 103/36/3 104/36/3 101/36/3 100/36/3
f 102/36/1 14/36/1 7/36/1 103/36/1
f 7/36/3 80/36/3 104/36/3 103/36/3
f 16/37/6 105/37/6 82/37/6 11/37/6
f 106/36/1 107/36/1 84/36/1 83/36/1
f 108/36/4 109/36/4 107/36/4 106/36/4
f 89/36/5 108/36/5 106/36/5 83/36/5
f 107/36/1 110/36/1 90/36/1 84/36/1
f 109/36/4 111/36/4 110/36/4 107/36/4
f 110/36/1 112/36/1 93/36/1 90/36/1
f 111/36/4 113/36/4 112/36/4 110/36/4
f 112/36/1 114/36/1 96/36/1 93/36/1
f 113/36/4 115/36/4 114/36/4 112/36/4
f 114/36/1 116/36/1 99/36/1 96/36/1
f 115/36/4 117/36/4 116/36/4 114/36/4
f 116/36/1 118/36/1 102/36/1 99/36/1
f 117/36/4 119/36/4 118/36/4 116/36/4
f 118/36/1 19/36/1 14/36/1 102/36/1
f 119/36/4 120/36/4 19/36/4 118/36/4
f 21/37/6 121/37/6 105/37/6 16/37/6
f 120/37/5 122/37/5 24/37/5 19/37/5
f 26/37/6 123/37/6 121/37/6 21/37/6
f 122/37/5 124/37/5 29/37/5 24/37/5
f 31/37/6 125/37/6 123/37/6 26/37/6
f 124/37/5 126/37/5 34/37/5 29/37/5
f 36/37/6 127/37/6 125/37/6 31/37/6
f 126/37/5 128/37/5 39/37/5 34/37/5
f 41/37/6 129/37/6 127/37/6 36/37/6
f 128/37/5 130/37/5 44/37/5 39/37/5
f 46/37/6 131/37/6 129/37/6 41/37/6
f 130/37/5 132/37/5 49/37/5 44/37/5
f 51/37/6 133/37/6 131/37/6 46/37/6
f 132/37/5 134/37/5 54/37/5 49/37/5
f 56/37/6 135/37/6 133/37/6 51/37/6
f 134/37/5 136/37/5 59/37/5 54/37/5
f 61/37/6 137/37/6 135/37/6 56/37/6
f 138/36/1 139/36/1 140/36/1 141/36/1
f 140/36/3 142/36/3 143/36/3 141/36/3
f 143/36/5 144/36/5 138/36/5 141/36/5
f 139/36/1 145/36/1 146/36/1 140/36/1
f 146/36/3 147/36/3 142/36/3 140/36/3
f 145/36/1 148/36/1 149/36/1 146/36/1
f 149/36/3 150/36/3 147/36/3 146/36/3
f 148/36/1 151/36/1 152/36/1 149/36/1
f 152/36/3 153/36/3 150/36/3 149/36/3
f 151/36/1 154/36/1 155/36/1 152/36/1
f 155/36/3 156/36/3 153/36/3 152/36/3
f 154/36/1 157/36/1 158/36/1 155/36/1
f 158/36/3 159/36/3 156/36/3 155/36/3
f 157/36/1 64/36/1 59/36/1 158/36/1
f 59/36/3 136/36/3 159/36/3 158/36/3
f 66/37/1 160/37/1 161/37/1 61/37/1
f 161/37/3 162/37/3 137/37/3 61/37/3
f 160/37/1 163/37/1 164/37/1 161/37/1
f 164/37/3 165/37/3 162/37/3 161/37/3
f 163/37/1 166/37/1 167/37/1 164/37/1
f 167/37/3 168/37/3 165/37/3 164/37/3
f 166/37/1 169/37/1 170/37/1 167/37/1
f 170/37/3 171/37/3 168/37/3 167/37/3
f 169/37/1 172/37/1 173/37/1 170/37/1
f 173/37/3 174/37/3 171/37/3 170/37/3
f 172/37/1 175/37/1 176/37/1 173/37/1
f 176/37/3 177/37/3 174/37/3 173/37/3
f 175/37/1 178/37/1 179/37/1 176/37/1
f 179/37/3 180/37/3 177/37/3 176/37/3
f 178/37/1 181/37/1 182/37/1 179/37/1
f 182/37/3 183/37/3 180/37/3 179/37/3
f 181/37/1 184/37/1 185/37/1 182/37/1
f 185/37/3 186/37/3 183/37/3 182/37/3
f 184/37/1 187/37/1 188/37/1 185/37/1
f 188/37/3 189/37/3 186/37/3 185/37/3
f 187/37/1 190/37/1 191/37/1 188/37/1
f 191/37/3 192/37/3 189/37/3 188/37/3
f 190/37/6 193/37/6 192/37/6 191/37/6
f 194/36/1 195/36/1 139/36/1 138/36/1
f 196/36/4 197/36/4 195/36/4 194/36/4
f 144/36/5 196/36/5 194/36/5 138/36/5
f 195/36/1 198/36/1 145/36/1 139/36/1
f 197/36/4 199/36/4 198/36/4 195/36/4
f 198/36/1 200/36/1 148/36/1 145/36/1
f 199/36/4 201/36/4 200/36/4 198/36/4
f 200/36/1 202/36/1 151/36/1 148/36/1
f 201/36/4 203/36/4 202/36/4 200/36/4
f 202/36/1 204/36/1 154/36/1 151/36/1
f 203/36/4 205/36/4 204/36/4 202/36/4
f 204/36/1 206/36/1 157/36/1 154/36/1
f 205/36/4 207/36/4 206/36/4 204/36/4
f 206/36/1 69/36/1 64/36/1 157/36/1
f 207/36/4 208/36/4 69/36/4 206/36/4
f 71/37/1 209/37/1 160/37/1 66/37/1
f 210/37/4 211/37/4 209/37/4 71/37/4
f 209/37/1 212/37/1 163/37/1 160/37/1
f 211/37/4 213/37/4 212/37/4 209/37/4
f 212/37/1 214/37/1 166/37/1 163/37/1
f 213/37/4 215/37/4 214/37/4 212/37/4
f 214/37/1 216/37/1 169/37/1 166/37/1
f 215/37/4 217/37/4 216/37/4 214/37/4
f 216/37/1 218/37/1 172/37/1 169/37/1
f 217/37/4 219/37/4 218/37/4 216/37/4
f 218/37/1 220/37/1 175/37/1 172/37/1
f 219/37/4 221/37/4 220/37/4 218/37/4
f 220/37/1 222/37/1 178/37/1 175/37/1
f 221/37/4 223/37/4 222/37/4 220/37/4
f 222/37/1 224/37/1 181/37/1 178/37/1
f 223/37/4 225/37/4 224/37/4 222/37/4
f 224/37/1 226/37/1 184/37/1 181/37/1
f 225/37/4 227/37/4 226/37/4 224/37/4
f 226/37/1 228/37/1 187/37/1 184/37/1
f 227/37/4 229/37/4 228/37/4 226/37/4
f 228/37/1 230/37/1 190/37/1 187/37/1
f 229/37/4 231/37/4 230/37/4 228/37/4
f 230/37/6 231/37/6 193/37/6 190/37/6
f 232/37/4 233/37/4 75/37/4 74/37/4
f 208/37/5 232/37/5 74/37/5 69/37/5
f 233/37/4 234/37/4 77/37/4 75/37/4
f 77/37/6 234/37/6 210/37/6 71/37/6
f 78/37/3 235/37/3 236/37/3 79/37/3
f 236/37/5 237/37/5 80/37/5 79/37/5
f 81/37/3 238/37/3 235/37/3 78/37/3
f 82/37/6 239/37/6 238/37/6 81/37/6
f 240/36/2 241/36/2 242/36/2 243/36/2
f 87/36/3 240/36/3 243/36/3 88/36/3
f 243/36/5 242/36/5 89/36/5 88/36/5
f 244/38/2 245/38/2 241/38/2 240/38/2
f 92/38/3 244/38/3 240/38/3 87/38/3
f 246/36/2 247/36/2 245/36/2 244/36/2
f 95/36/3 246/36/3 244/36/3 92/36/3
f 248/36/2 249/36/2 247/36/2 246/36/2
f 98/36/3 248/36/3 246/36/3 95/36/3
f 250/36/2 251/36/2 249/36/2 248/36/2
f 101/36/3 250/36/3 248/36/3 98/36/3
f 252/36/2 253/36/2 251/36/2 250/36/2
f 104/36/3 252/36/3 250/36/3 101/36/3
f 237/36/2 254/36/2 253/36/2 252/36/2
f 80/36/3 237/36/3 252/36/3 104/36/3
f 105/37/6 255/37/6 239/37/6 82/37/6
f 241/36/2 256/36/2 257/36/2 242/36/2
f 257/36/4 256/36/4 109/36/4 108/36/4
f 242/36/5 257/36/5 108/36/5 89/36/5
f 245/36/2 258/36/2 256/36/2 241/36/2
f 256/36/4 258/36/4 111/36/4 109/36/4
f 247/36/2 259/36/2 258/36/2 245/36/2
f 258/36/4 259/36/4 113/36/4 111/36/4
f 249/36/2 260/36/2 259/36/2 247/36/2
f 259/36/4 260/36/4 115/36/4 113/36/4
f 251/36/2 261/36/2 260/36/2 249/36/2
f 260/36/4 261/36/4 117/36/4 115/36/4
f 253/36/2 262/36/2 261/36/2 251/36/2
f 261/36/4 262/36/4 119/36/4 117/36/4
f 254/36/2 263/36/2 262/36/2 253/36/2
f 262/36/4 263/36/4 120/36/4 119/36/4
f 121/37/6 264/37/6 255/37/6 105/37/6
f 263/37/5 265/37/5 122/37/5 120/37/5
f 123/37/6 266/37/6 264/37/6 121/37/6
f 265/37/5 267/37/5 124/37/5 122/37/5
f 125/37/6 268/37/6 266/37/6 123/37/6
f 267/37/5 269/37/5 126/37/5 124/37/5
f 127/37/6 270/37/6 268/37/6 125/37/6
f 269/37/5 271/37/5 128/37/5 126/37/5
f 129/37/6 272/37/6 270/37/6 127/37/6
f 271/37/5 273/37/5 130/37/5 128/37/5
f 131/37/6 274/37/6 272/37/6 129/37/6
f 273/36/5 275/36/5 132/36/5 130/36/5
f 133/37/6 276/37/6 274/37/6 131/37/6
f 275/37/5 277/37/5 134/37/5 132/37/5
f 135/37/6 278/37/6 276/37/6 133/37/6
f 277/37/5 279/37/5 136/37/5 134/37/5
f 137/37/6 280/37/6 278/37/6 135/37/6
f 281/36/2 282/36/2 283/36/2 284/36/2
f 142/36/3 281/36/3 284/36/3 143/36/3
f 284/36/5 283/36/5 144/36/5 143/36/5
f 285/36/2 286/36/2 282/36/2 281/36/2
f 147/36/3 285/36/3 281/36/3 142/36/3
f 287/36/2 288/36/2 286/36/2 285/36/2
f 150/36/3 287/36/3 285/36/3 147/36/3
f 289/36/2 290/36/2 288/36/2 287/36/2
f 153/36/3 289/36/3 287/36/3 150/36/3
f 291/36/2 292/36/2 290/36/2 289/36/2
f 156/36/3 291/36/3 289/36/3 153/36/3
f 293/36/2 294/36/2 292/36/2 291/36/2
f 159/36/3 293/36/3 291/36/3 156/36/3
f 279/36/2 295/36/2 294/36/2 293/36/2
f 136/36/3 279/36/3 293/36/3 159/36/3
f 162/37/3 296/37/3 280/37/3 137/37/3
f 165/37/3 297/37/3 296/37/3 162/37/3
f 168/37/3 298/37/3 297/37/3 165/37/3
f 171/37/3 299/37/3 298/37/3 168/37/3
f 174/37/3 300/37/3 299/37/3 171/37/3
f 177/37/3 301/37/3 300/37/3 174/37/3
f 180/37/3 302/37/3 301/37/3 177/37/3
f 183/37/3 303/37/3 302/37/3 180/37/3
f 186/37/3 304/37/3 303/37/3 183/37/3
f 189/37/3 305/37/3 304/37/3 186/37/3
f 192/37/3 306/37/3 305/37/3 189/37/3
f 193/37/6 307/37/6 306/37/6 192/37/6
f 282/36/2 308/36/2 309/36/2 283/36/2
f 309/36/4 308/36/4 197/36/4 196/36/4
f 283/36/5 309/36/5 196/36/5 144/36/5
f 286/36/2 310/36/2 308/36/2 282/36/2
f 308/36/4 310/36/4 199/36/4 197/36/4
f 288/36/2 311/36/2 310/36/2 286/36/2
f 310/36/4 311/36/4 201/36/4 199/36/4
f 290/36/2 312/36/2 311/36/2 288/36/2
f 311/36/4 312/36/4 203/36/4 201/36/4
f 292/36/2 313/36/2 312/36/2 290/36/2
f 312/36/4 313/36/4 205/36/4 203/36/4
f 294/36/2 314/36/2 313/36/2 292/36/2
f 313/36/4 314/36/4 207/36/4 205/36/4
f 295/36/2 315/36/2 314/36/2 294/36/2
f 314/36/4 315/36/4 208/36/4 207/36/4
f 316/37/4 317/37/4 211/37/4 210/37/4
f 317/37/4 318/37/4 213/37/4 211/37/4
f 318/37/4 319/37/4 215/37/4 213/37/4
f 319/37/4 320/37/4 217/37/4 215/37/4
f 320/37/4 321/37/4 219/37/4 217/37/4
f 321/37/4 322/37/4 221/37/4 219/37/4
f 322/37/4 323/37/4 223/37/4 221/37/4
f 323/37/4 324/37/4 225/37/4 223/37/4
f 324/37/4 325/37/4 227/37/4 225/37/4
f 325/37/4 326/37/4 229/37/4 227/37/4
f 326/37/4 327/37/4 231/37/4 229/37/4
f 231/37/6 327/37/6 307/37/6 193/37/6
f 328/37/4 329/37/4 233/37/4 232/37/4
f 315/37/5 328/37/5 232/37/5 208/37/5
f 329/37/4 330/37/4 234/37/4 233/37/4
f 234/37/6 330/37/6 316/37/6 210/37/6
f 235/37/3 331/37/3 332/37/3 236/37/3
f 332/37/5 333/37/5 237/37/5 236/37/5
f 238/36/3 334/36/3 331/36/3 235/36/3
f 239/36/6 335/36/6 334/36/6 238/36/6
f 333/37/5 336/37/5 254/37/5 237/37/5
f 255/36/6 337/36/6 335/36/6 239/36/6
f 336/37/5 338/37/5 263/37/5 254/37/5
f 264/36/6 339/36/6 337/36/6 255/36/6
f 338/37/5 340/37/5 265/37/5 263/37/5
f 266/36/6 341/36/6 339/36/6 264/36/6
f 340/37/5 342/37/5 267/37/5 265/37/5
f 268/36/6 343/36/6 341/36/6 266/36/6
f 342/37/5 344/37/5 269/37/5 267/37/5
f 270/36/6 345/36/6 343/36/6 268/36/6
f 344/37/5 346/37/5 271/37/5 269/37/5
f 272/36/6 347/36/6 345/36/6 270/36/6
f 346/37/5 348/37/5 273/37/5 271/37/5
f 274/36/6 349/36/6 347/36/6 272/36/6
f 348/37/5 350/37/5 275/37/5 273/37/5
f 276/36/6 351/36/6 349/36/6 274/36/6
f 350/37/5 352/37/5 277/37/5 275/37/5
f 278/36/6 353/36/6 351/36/6 276/36/6
f 352/37/5 354/37/5 279/37/5 277/37/5
f 280/36/6 355/36/6 353/36/6 278/36/6
f 354/37/5 356/37/5 295/37/5 279/37/5
f 296/37/3 357/37/3 355/37/3 280/37/3
f 297/37/3 358/37/3 357/37/3 296/37/3
f 359/37/2 360/37/2 361/37/2 358/37/2
f 298/37/3 359/37/3 358/37/3 297/37/3
f 362/37/2 363/37/2 360/37/2 359/37/2
f 299/37/3 362/37/3 359/37/3 298/37/3
f 364/37/2 365/37/2 363/37/2 362/37/2
f 300/37/3 364/37/3 362/37/3 299/37/3
f 366/37/2 367/37/2 365/37/2 364/37/2
f 301/37/3 366/37/3 364/37/3 300/37/3
f 368/37/2 369/37/2 367/37/2 366/37/2
f 302/37/3 368/37/3 366/37/3 301/37/3
f 303/37/3 370/37/3 368/37/3 302/37/3
f 304/37/3 371/37/3 370/37/3 303/37/3
f 305/37/3 372/37/3 371/37/3 304/37/3
f 306/37/3 373/37/3 372/37/3 305/37/3
f 307/37/6 374/37/6 373/37/6 306/37/6
f 356/37/5 375/37/5 315/37/5 295/37/5
f 376/37/4 377/37/4 317/37/4 316/37/4
f 377/37/4 378/37/4 318/37/4 317/37/4
f 360/37/2 379/37/2 378/37/2 361/37/2
f 378/37/4 379/37/4 319/37/4 318/37/4
f 363/37/2 380/37/2 379/37/2 360/37/2
f 379/37/4 380/37/4 320/37/4 319/37/4
f 365/37/2 381/37/2 380/37/2 363/37/2
f 380/37/4 381/37/4 321/37/4 320/37/4
f 367/37/2 382/37/2 381/37/2 365/37/2
f 381/37/4 382/37/4 322/37/4 321/37/4
f 369/37/2 383/37/2 382/37/2 367/37/2
f 382/37/4 383/37/4 323/37/4 322/37/4
f 383/37/4 384/37/4 324/37/4 323/37/4
f 384/37/4 385/37/4 325/37/4 324/37/4
f 385/37/4 386/37/4 326/37/4 325/37/4
f 386/37/4 387/37/4 327/37/4 326/37/4
f 327/37/6 387/37/6 374/37/6 307/37/6
f 388/37/4 389/37/4 329/37/4 328/37/4
f 375/37/5 388/37/5 328/37/5 315/37/5
f 389/36/4 390/36/4 330/36/4 329/36/4
f 330/36/6 390/36/6 376/36/6 316/36/6
f 331/37/3 391/37/3 392/37/3 332/37/3
f 392/37/5 393/37/5 333/37/5 332/37/5
f 334/37/3 394/37/3 391/37/3 331/37/3
f 335/37/6 395/37/6 394/37/6 334/37/6
f 393/37/5 396/37/5 336/37/5 333/37/5
f 337/37/6 397/37/6 395/37/6 335/37/6
f 396/37/5 398/37/5 338/37/5 336/37/5
f 339/37/6 399/37/6 397/37/6 337/37/6
f 398/37/5 400/37/5 340/37/5 338/37/5
f 341/37/6 401/37/6 399/37/6 339/37/6
f 400/37/5 402/37/5 342/37/5 340/37/5
f 343/37/6 403/37/6 401/37/6 341/37/6
f 402/37/5 404/37/5 344/37/5 342/37/5
f 345/37/6 405/37/6 403/37/6 343/37/6
f 404/37/5 406/37/5 346/37/5 344/37/5
f 347/37/6 407/37/6 405/37/6 345/37/6
f 406/37/5 408/37/5 348/37/5 346/37/5
f 349/37/6 409/37/6 407/37/6 347/37/6
f 408/37/5 410/37/5 350/37/5 348/37/5
f 351/37/6 411/37/6 409/37/6 349/37/6
f 410/37/5 412/37/5 352/37/5 350/37/5
f 353/37/6 413/37/6 411/37/6 351/37/6
f 412/37/5 414/37/5 354/37/5 352/37/5
f 355/37/6 415/37/6 413/37/6 353/37/6
f 414/37/5 416/37/5 356/37/5 354/37/5
f 357/37/3 417/37/3 415/37/3 355/37/3
f 358/37/3 418/37/3 417/37/3 357/37/3
f 361/37/6 419/37/6 418/37/6 358/37/6
f 370/37/3 420/37/3 421/37/3 368/37/3
f 421/37/5 422/37/5 369/37/5 368/37/5
f 371/37/3 423/37/3 420/37/3 370/37/3
f 372/38/3 424/38/3 423/38/3 371/38/3
f 373/37/3 425/37/3 424/37/3 372/37/3
f 374/37/6 426/37/6 425/37/6 373/37/6
f 416/37/5 427/37/5 375/37/5 356/37/5
f 428/37/4 429/37/4 377/37/4 376/37/4
f 429/37/4 430/37/4 378/37/4 377/37/4
f 378/37/6 430/37/6 419/37/6 361/37/6
f 431/37/4 432/37/4 384/37/4 383/37/4
f 422/37/5 431/37/5 383/37/5 369/37/5
f 432/37/4 433/37/4 385/37/4 384/37/4
f 433/37/4 434/37/4 386/37/4 385/37/4
f 434/37/4 435/37/4 387/37/4 386/37/4
f 387/37/6 435/37/6 426/37/6 374/37/6
f 436/37/4 437/37/4 389/37/4 388/37/4
f 427/37/5 436/37/5 388/37/5 375/37/5
f 437/37/4 438/37/4 390/37/4 389/37/4
f 390/37/6 438/37/6 428/37/6 376/37/6
f 391/37/3 439/37/3 440/37/3 392/37/3
f 440/37/5 441/37/5 393/37/5 392/37/5
f 394/37/3 442/37/3 439/37/3 391/37/3
f 395/37/6 443/37/6 442/37/6 394/37/6
f 441/37/5 444/37/5 396/37/5 393/37/5
f 397/37/6 445/37/6 443/37/6 395/37/6
f 444/37/5 446/37/5 398/37/5 396/37/5
f 399/37/6 447/37/6 445/37/6 397/37/6
f 446/37/5 448/37/5 400/37/5 398/37/5
f 401/37/6 449/37/6 447/37/6 399/37/6
f 448/37/5 450/37/5 402/37/5 400/37/5
f 403/37/6 451/37/6 449/37/6 401/37/6
f 450/37/5 452/37/5 404/37/5 402/37/5
f 405/37/6 453/37/6 451/37/6 403/37/6
f 452/37/5 454/37/5 406/37/5 404/37/5
f 407/37/6 455/37/6 453/37/6 405/37/6
f 454/37/5 456/37/5 408/37/5 406/37/5
f 409/37/6 457/37/6 455/37/6 407/37/6
f 456/37/5 458/37/5 410/37/5 408/37/5
f 411/37/6 459/37/6 457/37/6 409/37/6
f 458/37/5 460/37/5 412/37/5 410/37/5
f 413/37/6 461/37/6 459/37/6 411/37/6
f 460/37/5 462/37/5 414/37/5 412/37/5
f 415/37/6 463/37/6 461/37/6 413/37/6
f 462/37/5 464/37/5 416/37/5 414/37/5
f 417/37/3 465/37/3 463/37/3 415/37/3
f 418/37/3 466/37/3 465/37/3 417/37/3
f 419/37/6 467/37/6 466/37/6 418/37/6
f 420/37/3 468/37/3 469/37/3 421/37/3
f 469/37/5 470/37/5 422/37/5 421/37/5
f 423/37/3 471/37/3 468/37/3 420/37/3
f 424/37/3 472/37/3 471/37/3 423/37/3
f 425/37/3 473/37/3 472/37/3 424/37/3
f 426/37/6 474/37/6 473/37/6 425/37/6
f 464/38/5 475/38/5 427/38/5 416/38/5
f 476/37/4 477/37/4 429/37/4 428/37/4
f 477/37/4 478/37/4 430/37/4 429/37/4
f 430/37/6 478/37/6 467/37/6 419/37/6
f 479/37/4 480/37/4 432/37/4 431/37/4
f 470/37/5 479/37/5 431/37/5 422/37/5
f 480/37/4 481/37/4 433/37/4 432/37/4
f 481/37/4 482/37/4 434/37/4 433/37/4
f 482/37/4 483/37/4 435/37/4 434/37/4
f 435/37/6 483/37/6 474/37/6 426/37/6
f 484/37/4 485/37/4 437/37/4 436/37/4
f 475/37/5 484/37/5 436/37/5 427/37/5
f 485/36/4 486/36/4 438/36/4 437/36/4
f 438/36/6 486/36/6 476/36/6 428/36/6
f 439/37/3 487/37/3 488/37/3 440/37/3
f 488/37/5 489/37/5 441/37/5 440/37/5
f 442/37/3 490/37/3 487/37/3 439/37/3
f 443/37/6 491/37/6 490/37/6 442/37/6
f 489/37/5 492/37/5 444/37/5 441/37/5
f 445/37/6 493/37/6 491/37/6 443/37/6
f 492/37/5 494/37/5 446/37/5 444/37/5
f 447/37/6 495/37/6 493/37/6 445/37/6
f 494/37/5 496/37/5 448/37/5 446/37/5
f 449/37/6 497/37/6 495/37/6 447/37/6
f 496/37/5 498/37/5 450/37/5 448/37/5
f 451/37/6 499/37/6 497/37/6 449/37/6
f 498/37/5 500/37/5 452/37/5 450/37/5
f 453/37/6 501/37/6 499/37/6 451/37/6
f 500/37/5 502/37/5 454/37/5 452/37/5
f 455/37/6 503/37/6 501/37/6 453/37/6
f 502/36/5 504/36/5 456/36/5 454/36/5
f 457/37/6 505/37/6 503/37/6 455/37/6
f 504/37/5 506/37/5 458/37/5 456/37/5
f 459/37/6 507/37/6 505/37/6 457/37/6
f 506/37/5 508/37/5 460/37/5 458/37/5
f 461/37/6 509/37/6 507/37/6 459/37/6
f 508/37/5 510/37/5 462/37/5 460/37/5
f 463/37/6 511/37/6 509/37/6 461/37/6
f 510/37/5 512/37/5 464/37/5 462/37/5
f 465/37/3 513/37/3 511/37/3 463/37/3
f 466/37/3 514/37/3 513/37/3 465/37/3
f 467/37/6 515/37/6 514/37/6 466/37/6
f 468/37/3 516/37/3 517/37/3 469/37/3
f 517/37/5 518/37/5 470/37/5 469/37/5
f 471/37/3 519/37/3 516/37/3 468/37/3
f 472/37/3 520/37/3 519/37/3 471/37/3
f 473/37/3 521/37/3 520/37/3 472/37/3
f 474/37/6 522/37/6 521/37/6 473/37/6
f 512/37/5 523/37/5 475/37/5 464/37/5
f 524/37/4 525/37/4 477/37/4 476/37/4
f 525/37/4 526/37/4 478/37/4 477/37/4
f 478/37/6 526/37/6 515/37/6 467/37/6
f 527/37/4 528/37/4 480/37/4 479/37/4
f 518/37/5 527/37/5 479/37/5 470/37/5
f 528/37/4 529/37/4 481/37/4 480/37/4
f 529/37/4 530/37/4 482/37/4 481/37/4
f 530/37/4 531/37/4 483/37/4 482/37/4
f 483/37/6 531/37/6 522/37/6 474/37/6
f 532/37/4 533/37/4 485/37/4 484/37/4
f 523/37/5 532/37/5 484/37/5 475/37/5
f 533/37/4 534/37/4 486/37/4 485/37/4
f 486/37/6 534/37/6 524/37/6 476/37/6
f 487/37/3 535/37/3 536/37/3 488/37/3
f 536/37/5 537/37/5 489/37/5 488/37/5
f 490/37/3 538/37/3 535/37/3 487/37/3
f 491/37/6 539/37/6 538/37/6 490/37/6
f 537/37/5 540/37/5 492/37/5 489/37/5
f 493/37/6 541/37/6 539/37/6 491/37/6
f 540/37/5 542/37/5 494/37/5 492/37/5
f 495/37/6 543/37/6 541/37/6 493/37/6
f 542/37/5 544/37/5 496/37/5 494/37/5
f 497/37/6 545/37/6 543/37/6 495/37/6
f 544/37/5 546/37/5 498/37/5 496/37/5
f 499/37/6 547/37/6 545/37/6 497/37/6
f 546/37/5 548/37/5 500/37/5 498/37/5
f 501/37/6 549/37/6 547/37/6 499/37/6
f 548/37/5 550/37/5 502/37/5 500/37/5
f 503/37/6 551/37/6 549/37/6 501/37/6
f 550/37/5 552/37/5 504/37/5 502/37/5
f 505/37/6 553/37/6 551/37/6 503/37/6
f 552/37/5 554/37/5 506/37/5 504/37/5
f 507/37/6 555/37/6 553/37/6 505/37/6
f 554/37/5 556/37/5 508/37/5 506/37/5
f 509/37/6 557/37/6 555/37/6 507/37/6
f 556/37/5 558/37/5 510/37/5 508/37/5
f 511/37/6 559/37/6 557/37/6 509/37/6
f 558/37/5 560/37/5 512/37/5 510/37/5
f 513/37/3 561/37/3 559/37/3 511/37/3
f 514/37/3 562/37/3 561/37/3 513/37/3
f 515/37/6 563/37/6 562/37/6 514/37/6
f 516/37/3 564/37/3 565/37/3 517/37/3
f 565/37/5 566/37/5 518/37/5 517/37/5
f 519/37/3 567/37/3 564/37/3 516/37/3
f 520/37/3 568/37/3 567/37/3 519/37/3
f 521/37/3 569/37/3 568/37/3 520/37/3
f 522/37/6 570/37/6 569/37/6 521/37/6
f 560/37/5 571/37/5 523/37/5 512/37/5
f 572/37/4 573/37/4 525/37/4 524/37/4
f 573/37/4 574/37/4 526/37/4 525/37/4
f 526/37/6 574/37/6 563/37/6 515/37/6
f 575/37/4 576/37/4 528/37/4 527/37/4
f 566/37/5 575/37/5 527/37/5 518/37/5
f 576/37/4 577/37/4 529/37/4 528/37/4
f 577/37/4 578/37/4 530/37/4 529/37/4
f 578/37/4 579/37/4 531/37/4 530/37/4
f 531/37/6 579/37/6 570/37/6 522/37/6
f 580/37/4 581/37/4 533/37/4 532/37/4
f 571/37/5 580/37/5 532/37/5 523/37/5
f 581/37/4 582/37/4 534/37/4 533/37/4
f 534/37/6 582/37/6 572/37/6 524/37/6
f 535/37/3 583/37/3 584/37/3 536/37/3
f 584/37/5 585/37/5 537/37/5 536/37/5
f 538/36/3 586/36/3 583/36/3 535/36/3
f 539/36/6 587/36/6 586/36/6 538/36/6
f 585/37/5 588/37/5 540/37/5 537/37/5
f 541/36/6 589/36/6 587/36/6 539/36/6
f 588/37/5 590/37/5 542/37/5 540/37/5
f 543/36/6 591/36/6 589/36/6 541/36/6
f 590/37/5 592/37/5 544/37/5 542/37/5
f 545/36/6 593/36/6 591/36/6 543/36/6
f 592/37/5 594/37/5 546/37/5 544/37/5
f 547/36/6 595/36/6 593/36/6 545/36/6
f 594/37/5 596/37/5 548/37/5 546/37/5
f 549/36/6 597/36/6 595/36/6 547/36/6
f 596/37/5 598/37/5 550/37/5 548/37/5
f 551/36/6 599/36/6 597/36/6 549/36/6
f 598/37/5 600/37/5 552/37/5 550/37/5
f 553/36/6 601/36/6 599/36/6 551/36/6
f 600/37/5 602/37/5 554/37/5 552/37/5
f 555/36/6 603/36/6 601/36/6 553/36/6
f 602/37/5 604/37/5 556/37/5 554/37/5
f 557/36/6 605/36/6 603/36/6 555/36/6
f 604/37/5 606/37/5 558/37/5 556/37/5
f 559/36/6 607/36/6 605/36/6 557/36/6
f 606/37/5 608/37/5 560/37/5 558/37/5
f 561/37/3 609/37/3 607/37/3 559/37/3
f 562/37/3 610/37/3 609/37/3 561/37/3
f 563/37/6 611/37/6 610/37/6 562/37/6
f 564/37/3 612/37/3 613/37/3 565/37/3
f 613/37/5 614/37/5 566/37/5 565/37/5
f 567/37/3 615/37/3 612/37/3 564/37/3
f 568/37/3 616/37/3 615/37/3 567/37/3
f 569/37/3 617/37/3 616/37/3 568/37/3
f 570/37/6 618/37/6 617/37/6 569/37/6
f 608/37/5 619/37/5 571/37/5 560/37/5
f 620/37/4 621/37/4 573/37/4 572/37/4
f 621/37/4 622/37/4 574/37/4 573/37/4
f 574/37/6 622/37/6 611/37/6 563/37/6
f 623/37/4 624/37/4 576/37/4 575/37/4
f 614/37/5 623/37/5 575/37/5 566/37/5
f 624/37/4 625/37/4 577/37/4 576/37/4
f 625/37/4 626/37/4 578/37/4 577/37/4
f 626/37/4 627/37/4 579/37/4 578/37/4
f 579/37/6 627/37/6 618/37/6 570/37/6
f 628/37/4 629/37/4 581/37/4 580/37/4
f 619/37/5 628/37/5 580/37/5 571/37/5
f 629/36/4 630/36/4 582/36/4 581/36/4
f 582/36/6 630/36/6 620/36/6 572/36/6
f 583/37/3 631/37/3 632/37/3 584/37/3
f 632/37/5 633/37/5 585/37/5 584/37/5
f 586/37/3 634/37/3 631/37/3 583/37/3
f 587/37/6 635/37/6 634/37/6 586/37/6
f 633/37/5 636/37/5 588/37/5 585/37/5
f 589/37/6 637/37/6 635/37/6 587/37/6
f 636/37/5 638/37/5 590/37/5 588/37/5
f 591/37/6 639/37/6 637/37/6 589/37/6
f 638/37/5 640/37/5 592/37/5 590/37/5
f 593/37/6 641/37/6 639/37/6 591/37/6
f 640/37/5 642/37/5 594/37/5 592/37/5
f 595/37/6 643/37/6 641/37/6 593/37/6
f 642/37/5 644/37/5 596/37/5 594/37/5
f 597/37/6 645/37/6 643/37/6 595/37/6
f 644/37/5 646/37/5 598/37/5 596/37/5
f 599/37/6 647/37/6 645/37/6 597/37/6
f 646/37/5 648/37/5 600/37/5 598/37/5
f 601/37/6 649/37/6 647/37/6 599/37/6
f 648/37/5 650/37/5 602/37/5 600/37/5
f 603/37/6 651/37/6 649/37/6 601/37/6
f 650/37/5 652/37/5 604/37/5 602/37/5
f 605/37/6 653/37/6 651/37/6 603/37/6
f 652/37/5 654/37/5 606/37/5 604/37/5
f 607/37/6 655/37/6 653/37/6 605/37/6
f 654/37/5 656/37/5 608/37/5 606/37/5
f 609/37/3 657/37/3 655/37/3 607/37/3
f 610/37/3 658/37/3 657/37/3 609/37/3
f 611/37/6 659/37/6 658/37/6 610/37/6
f 612/37/3 660/37/3 661/37/3 613/37/3
f 661/37/5 662/37/5 614/37/5 613/37/5
f 615/37/3 663/37/3 660/37/3 612/37/3
f 616/37/3 664/37/3 663/37/3 615/37/3
f 617/37/3 665/37/3 664/37/3 616/37/3
f 618/37/6 666/37/6 665/37/6 617/37/6
f 656/37/5 667/37/5 619/37/5 608/37/5
f 668/37/4 669/37/4 621/37/4 620/37/4
f 669/37/4 670/37/4 622/37/4 621/37/4
f 622/37/6 670/37/6 659/37/6 611/37/6
f 671/37/4 672/37/4 624/37/4 623/37/4
f 662/37/5 671/37/5 623/37/5 614/37/5
f 672/37/4 673/37/4 625/37/4 624/37/4
f 673/37/4 674/37/4 626/37/4 625/37/4
f 674/37/4 675/37/4 627/37/4 626/37/4
f 627/37/6 675/37/6 666/37/6 618/37/6
f 676/37/4 677/37/4 629/37/4 628/37/4
f 667/37/5 676/37/5 628/37/5 619/37/5
f 677/37/4 678/37/4 630/37/4 629/37/4
f 630/37/6 678/37/6 668/37/6 620/37/6
f 631/37/3 679/37/3 680/37/3 632/37/3
f 680/37/5 681/37/5 633/37/5 632/37/5
f 634/37/3 682/37/3 679/37/3 631/37/3
f 635/37/6 683/37/6 682/37/6 634/37/6
f 681/37/5 684/37/5 636/37/5 633/37/5
f 637/37/6 685/37/6 683/37/6 635/37/6
f 684/37/5 686/37/5 638/37/5 636/37/5
f 639/37/6 687/37/6 685/37/6 637/37/6
f 686/37/5 688/37/5 640/37/5 638/37/5
f 641/37/6 689/37/6 687/37/6 639/37/6
f 688/38/5 690/38/5 642/38/5 640/38/5
f 643/37/6 691/37/6 689/37/6 641/37/6
f 690/37/5 692/37/5 644/37/5 642/37/5
f 645/37/6 693/37/6 691/37/6 643/37/6
f 692/37/5 694/37/5 646/37/5 644/37/5
f 647/37/6 695/37/6 693/37/6 645/37/6
f 694/37/5 696/37/5 648/37/5 646/37/5
f 649/37/6 697/37/6 695/37/6 647/37/6
f 696/37/5 698/37/5 650/37/5 648/37/5
f 651/37/6 699/37/6 697/37/6 649/37/6
f 698/37/5 700/37/5 652/37/5 650/37/5
f 653/37/6 701/37/6 699/37/6 651/37/6
f 700/37/5 702/37/5 654/37/5 652/37/5
f 655/37/6 703/37/6 701/37/6 653/37/6
f 702/37/5 704/37/5 656/37/5 654/37/5
f 657/37/3 705/37/3 703/37/3 655/37/3
f 658/37/3 706/37/3 705/37/3 657/37/3
f 659/37/1 707/37/1 708/37/1 658/37/1
f 708/37/3 709/37/3 706/37/3 658/37/3
f 707/37/1 710/37/1 711/37/1 708/37/1
f 711/37/3 712/37/3 709/37/3 708/37/3
f 710/37/1 713/37/1 714/37/1 711/37/1
f 714/37/3 715/37/3 712/37/3 711/37/3
f 713/37/1 716/37/1 717/37/1 714/37/1
f 717/37/3 718/37/3 715/37/3 714/37/3
f 716/37/1 662/37/1 661/37/1 717/37/1
f 661/37/3 719/37/3 718/37/3 717/37/3
f 660/37/3 720/37/3 719/37/3 661/37/3
f 663/37/3 721/37/3 720/37/3 660/37/3
f 664/37/3 722/37/3 721/37/3 663/37/3
f 665/37/3 723/37/3 722/37/3 664/37/3
f 666/37/6 724/37/6 723/37/6 665/37/6
f 704/37/5 725/37/5 667/37/5 656/37/5
f 726/37/4 727/37/4 669/37/4 668/37/4
f 727/37/4 728/37/4 670/37/4 669/37/4
f 670/37/1 729/37/1 707/37/1 659/37/1
f 728/37/4 730/37/4 729/37/4 670/37/4
f 729/37/1 731/37/1 710/37/1 707/37/1
f 730/37/4 732/37/4 731/37/4 729/37/4
f 731/37/1 733/37/1 713/37/1 710/37/1
f 732/37/4 734/37/4 733/37/4 731/37/4
f 733/37/1 735/37/1 716/37/1 713/37/1
f 734/37/4 736/37/4 735/37/4 733/37/4
f 735/37/1 671/37/1 662/37/1 716/37/1
f 736/37/4 737/37/4 671/37/4 735/37/4
f 737/37/4 738/37/4 672/37/4 671/37/4
f 738/37/4 739/37/4 673/37/4 672/37/4
f 739/37/4 740/37/4 674/37/4 673/37/4
f 740/37/4 741/37/4 675/37/4 674/37/4
f 675/37/6 741/37/6 724/37/6 666/37/6
f 742/37/4 743/37/4 677/37/4 676/37/4
f 725/37/5 742/37/5 676/37/5 667/37/5
f 743/37/4 744/37/4 678/37/4 677/37/4
f 678/37/6 744/37/6 726/37/6 668/37/6
f 679/37/3 745/37/3 746/37/3 680/37/3
f 746/37/5 747/37/5 681/37/5 680/37/5
f 682/37/3 748/37/3 745/37/3 679/37/3
f 683/37/6 749/37/6 748/37/6 682/37/6
f 750/36/1 751/36/1 752/36/1 753/36/1
f 752/36/3 754/36/3 755/36/3 753/36/3
f 755/36/5 756/36/5 750/36/5 753/36/5
f 751/36/1 757/36/1 758/36/1 752/36/1
f 758/36/3 759/36/3 754/36/3 752/36/3
f 757/36/1 760/36/1 761/36/1 758/36/1
f 761/36/3 762/36/3 759/36/3 758/36/3
f 760/36/1 763/36/1 764/36/1 761/36/1
f 764/36/3 765/36/3 762/36/3 761/36/3
f 763/36/1 766/36/1 767/36/1 764/36/1
f 767/36/3 768/36/3 765/36/3 764/36/3
f 766/36/1 769/36/1 770/36/1 767/36/1
f 770/36/3 771/36/3 768/36/3 767/36/3
f 769/36/1 684/36/1 681/36/1 770/36/1
f 681/36/3 747/36/3 771/36/3 770/36/3
f 685/37/6 772/37/6 749/37/6 683/37/6
f 773/36/1 774/36/1 751/36/1 750/36/1
f 775/36/4 776/36/4 774/36/4 773/36/4
f 756/36/5 775/36/5 773/36/5 750/36/5
f 774/36/1 777/36/1 757/36/1 751/36/1
f 776/36/4 778/36/4 777/36/4 774/36/4
f 777/36/1 779/36/1 760/36/1 757/36/1
f 778/36/4 780/36/4 779/36/4 777/36/4
f 779/36/1 781/36/1 763/36/1 760/36/1
f 780/36/4 782/36/4 781/36/4 779/36/4
f 781/36/1 783/36/1 766/36/1 763/36/1
f 782/36/4 784/36/4 783/36/4 781/36/4
f 783/36/1 785/36/1 769/36/1 766/36/1
f 784/36/4 786/36/4 785/36/4 783/36/4
f 785/36/1 686/36/1 684/36/1 769/36/1
f 786/36/4 787/36/4 686/36/4 785/36/4
f 687/37/6 788/37/6 772/37/6 685/37/6
f 787/37/5 789/37/5 688/37/5 686/37/5
f 689/37/6 790/37/6 788/37/6 687/37/6
f 789/37/5 791/37/5 690/37/5 688/37/5
f 691/37/6 792/37/6 790/37/6 689/37/6
f 791/37/5 793/37/5 692/37/5 690/37/5
f 693/37/6 794/37/6 792/37/6 691/37/6
f 793/37/5 795/37/5 694/37/5 692/37/5
f 695/37/6 796/37/6 794/37/6 693/37/6
f 795/37/5 797/37/5 696/37/5 694/37/5
f 697/37/6 798/37/6 796/37/6 695/37/6
f 797/37/5 799/37/5 698/37/5 696/37/5
f 699/37/6 800/37/6 798/37/6 697/37/6
f 799/37/5 801/37/5 700/37/5 698/37/5
f 701/37/6 802/37/6 800/37/6 699/37/6
f 801/37/5 803/37/5 702/37/5 700/37/5
f 703/37/6 804/37/6 802/37/6 701/37/6
f 805/36/1 806/36/1 807/36/1 808/36/1
f 807/36/3 809/36/3 810/36/3 808/36/3
f 810/36/5 811/36/5 805/36/5 808/36/5
f 806/36/1 812/36/1 813/36/1 807/36/1
f 813/36/3 814/36/3 809/36/3 807/36/3
f 812/36/1 815/36/1 816/36/1 813/36/1
f 816/36/3 817/36/3 814/36/3 813/36/3
f 815/36/1 818/36/1 819/36/1 816/36/1
f 819/36/3 820/36/3 817/36/3 816/36/3
f 818/36/1 821/36/1 822/36/1 819/36/1
f 822/36/3 823/36/3 820/36/3 819/36/3
f 821/36/1 824/36/1 825/36/1 822/36/1
f 825/36/3 826/36/3 823/36/3 822/36/3
f 824/36/1 704/36/1 702/36/1 825/36/1
f 702/36/3 803/36/3 826/36/3 825/36/3
f 705/37/3 827/37/3 804/37/3 703/37/3
f 706/37/3 828/37/3 827/37/3 705/37/3
f 709/37/3 829/37/3 828/37/3 706/37/3
f 712/37/3 830/37/3 829/37/3 709/37/3
f 715/37/3 831/37/3 830/37/3 712/37/3
f 718/37/3 832/37/3 831/37/3 715/37/3
f 719/37/3 833/37/3 832/37/3 718/37/3
f 720/37/3 834/37/3 833/37/3 719/37/3
f 721/37/3 835/37/3 834/37/3 720/37/3
f 722/37/3 836/37/3 835/37/3 721/37/3
f 723/37/3 837/37/3 836/37/3 722/37/3
f 724/37/6 838/37/6 837/37/6 723/37/6
f 839/36/1 840/36/1 806/36/1 805/36/1
f 841/36/4 842/36/4 840/36/4 839/36/4
f 811/36/5 841/36/5 839/36/5 805/36/5
f 840/36/1 843/36/1 812/36/1 806/36/1
f 842/36/4 844/36/4 843/36/4 840/36/4
f 843/36/1 845/36/1 815/36/1 812/36/1
f 844/36/4 846/36/4 845/36/4 843/36/4
f 845/36/1 847/36/1 818/36/1 815/36/1
f 846/36/4 848/36/4 847/36/4 845/36/4
f 847/36/1 849/36/1 821/36/1 818/36/1
f 848/36/4 850/36/4 849/36/4 847/36/4
f 849/36/1 851/36/1 824/36/1 821/36/1
f 850/36/4 852/36/4 851/36/4 849/36/4
f 851/36/1 725/36/1 704/36/1 824/36/1
f 852/36/4 853/36/4 725/36/4 851/36/4
f 854/37/4 855/37/4 727/37/4 726/37/4
f 855/37/4 856/37/4 728/37/4 727/37/4
f 856/37/4 857/37/4 730/37/4 728/37/4
f 857/37/4 858/37/4 732/37/4 730/37/4
f 858/37/4 859/37/4 734/37/4 732/37/4
f 859/37/4 860/37/4 736/37/4 734/37/4
f 860/37/4 861/37/4 737/37/4 736/37/4
f 861/37/4 862/37/4 738/37/4 737/37/4
f 862/37/4 863/37/4 739/37/4 738/37/4
f 863/37/4 864/37/4 740/37/4 739/37/4
f 864/36/4 865/36/4 741/36/4 740/36/4
f 741/36/6 865/36/6 838/36/6 724/36/6
f 866/37/4 867/37/4 743/37/4 742/37/4
f 853/37/5 866/37/5 742/37/5 725/37/5
f 867/37/4 868/37/4 744/37/4 743/37/4
f 744/37/6 868/37/6 854/37/6 726/37/6
f 745/37/3 869/37/3 870/37/3 746/37/3
f 870/37/5 871/37/5 747/37/5 746/37/5
f 748/37/3 872/37/3 869/37/3 745/37/3
f 749/37/6 873/37/6 872/37/6 748/37/6
f 874/36/2 875/36/2 876/36/2 877/36/2
f 754/36/3 874/36/3 877/36/3 755/36/3
f 877/36/5 876/36/5 756/36/5 755/36/5
f 878/36/2 879/36/2 875/36/2 874/36/2
f 759/36/3 878/36/3 874/36/3 754/36/3
f 880/36/2 881/36/2 879/36/2 878/36/2
f 762/36/3 880/36/3 878/36/3 759/36/3
f 882/36/2 883/36/2 881/36/2 880/36/2
f 765/36/3 882/36/3 880/36/3 762/36/3
f 884/36/2 885/36/2 883/36/2 882/36/2
f 768/36/3 884/36/3 882/36/3 765/36/3
f 886/36/2 887/36/2 885/36/2 884/36/2
f 771/36/3 886/36/3 884/36/3 768/36/3
f 871/36/2 888/36/2 887/36/2 886/36/2
f 747/36/3 871/36/3 886/36/3 771/36/3
f 772/37/6 889/37/6 873/37/6 749/37/6
f 875/36/2 890/36/2 891/36/2 876/36/2
f 891/36/4 890/36/4 776/36/4 775/36/4
f 876/36/5 891/36/5 775/36/5 756/36/5
f 879/36/2 892/36/2 890/36/2 875/36/2
f 890/36/4 892/36/4 778/36/4 776/36/4
f 881/36/2 893/36/2 892/36/2 879/36/2
f 892/36/4 893/36/4 780/36/4 778/36/4
f 883/36/2 894/36/2 893/36/2 881/36/2
f 893/36/4 894/36/4 782/36/4 780/36/4
f 885/36/2 895/36/2 894/36/2 883/36/2
f 894/36/4 895/36/4 784/36/4 782/36/4
f 887/36/2 896/36/2 895/36/2 885/36/2
f 895/36/4 896/36/4 786/36/4 784/36/4
f 888/36/2 897/36/2 896/36/2 887/36/2
f 896/36/4 897/36/4 787/36/4 786/36/4
f 788/37/6 898/37/6 889/37/6 772/37/6
f 897/37/5 899/37/5 789/37/5 787/37/5
f 790/37/6 900/37/6 898/37/6 788/37/6
f 899/37/5 901/37/5 791/37/5 789/37/5
f 792/37/6 902/37/6 900/37/6 790/37/6
f 901/37/5 903/37/5 793/37/5 791/37/5
f 794/37/6 904/37/6 902/37/6 792/37/6
f 903/37/5 905/37/5 795/37/5 793/37/5
f 796/37/6 906/37/6 904/37/6 794/37/6
f 905/37/5 907/37/5 797/37/5 795/37/5
f 798/37/6 908/37/6 906/37/6 796/37/6
f 907/37/5 909/37/5 799/37/5 797/37/5
f 800/37/6 910/37/6 908/37/6 798/37/6
f 909/37/5 911/37/5 801/37/5 799/37/5
f 802/37/6 912/37/6 910/37/6 800/37/6
f 911/37/5 913/37/5 803/37/5 801/37/5
f 804/37/6 914/37/6 912/37/6 802/37/6
f 915/36/2 916/36/2 917/36/2 918/36/2
f 809/36/3 915/36/3 918/36/3 810/36/3
f 918/36/5 917/36/5 811/36/5 810/36/5
f 919/36/2 920/36/2 916/36/2 915/36/2
f 814/36/3 919/36/3 915/36/3 809/36/3
f 921/36/2 922/36/2 920/36/2 919/36/2
f 817/36/3 921/36/3 919/36/3 814/36/3
f 923/36/2 924/36/2 922/36/2 921/36/2
f 820/36/3 923/36/3 921/36/3 817/36/3
f 925/36/2 926/36/2 924/36/2 923/36/2
f 823/36/3 925/36/3 923/36/3 820/36/3
f 927/36/2 928/36/2 926/36/2 925/36/2
f 826/36/3 927/36/3 925/36/3 823/36/3
f 913/36/2 929/36/2 928/36/2 927/36/2
f 803/36/3 913/36/3 927/36/3 826/36/3
f 930/37/2 931/37/2 932/37/2 914/37/2
f 827/37/3 930/37/3 914/37/3 804/37/3
f 933/37/2 934/37/2 931/37/2 930/37/2
f 828/37/3 933/37/3 930/37/3 827/37/3
f 935/37/2 936/37/2 934/37/2 933/37/2
f 829/37/3 935/37/3 933/37/3 828/37/3
f 937/37/2 938/37/2 936/37/2 935/37/2
f 830/37/3 937/37/3 935/37/3 829/37/3
f 939/37/2 940/37/2 938/37/2 937/37/2
f 831/37/3 939/37/3 937/37/3 830/37/3
f 941/37/2 942/37/2 940/37/2 939/37/2
f 832/37/3 941/37/3 939/37/3 831/37/3
f 943/37/2 944/37/2 942/37/2 941/37/2
f 833/37/3 943/37/3 941/37/3 832/37/3
f 945/37/2 946/37/2 944/37/2 943/37/2
f 834/37/3 945/37/3 943/37/3 833/37/3
f 947/37/2 948/37/2 946/37/2 945/37/2
f 835/37/3 947/37/3 945/37/3 834/37/3
f 949/37/2 950/37/2 948/37/2 947/37/2
f 836/37/3 949/37/3 947/37/3 835/37/3
f 951/37/2 952/37/2 950/37/2 949/37/2
f 837/37/3 951/37/3 949/37/3 836/37/3
f 838/37/6 952/37/6 951/37/6 837/37/6
f 916/36/2 953/36/2 954/36/2 917/36/2
f 954/36/4 953/36/4 842/36/4 841/36/4
f 917/36/5 954/36/5 841/36/5 811/36/5
f 920/36/2 955/36/2 953/36/2 916/36/2
f 953/36/4 955/36/4 844/36/4 842/36/4
f 922/36/2 956/36/2 955/36/2 920/36/2
f 955/36/4 956/36/4 846/36/4 844/36/4
f 924/36/2 957/36/2 956/36/2 922/36/2
f 956/36/4 957/36/4 848/36/4 846/36/4
f 926/36/2 958/36/2 957/36/2 924/36/2
f 957/36/4 958/36/4 850/36/4 848/36/4
f 928/36/2 959/36/2 958/36/2 926/36/2
f 958/36/4 959/36/4 852/36/4 850/36/4
f 929/36/2 960/36/2 959/36/2 928/36/2
f 959/36/4 960/36/4 853/36/4 852/36/4
f 931/37/2 961/37/2 962/37/2 932/37/2
f 962/37/4 961/37/4 855/37/4 854/37/4
f 934/37/2 963/37/2 961/37/2 931/37/2
f 961/37/4 963/37/4 856/37/4 855/37/4
f 936/37/2 964/37/2 963/37/2 934/37/2
f 963/37/4 964/37/4 857/37/4 856/37/4
f 938/38/2 965/38/2 964/38/2 936/38/2
f 964/38/4 965/38/4 858/38/4 857/38/4
f 940/37/2 966/37/2 965/37/2 938/37/2
f 965/37/4 966/37/4 859/37/4 858/37/4
f 942/38/2 967/38/2 966/38/2 940/38/2
f 966/38/4 967/38/4 860/38/4 859/38/4
f 944/37/2 968/37/2 967/37/2 942/37/2
f 967/37/4 968/37/4 861/37/4 860/37/4
f 946/37/2 969/37/2 968/37/2 944/37/2
f 968/37/4 969/37/4 862/37/4 861/37/4
f 948/37/2 970/37/2 969/37/2 946/37/2
f 969/37/4 970/37/4 863/37/4 862/37/4
f 950/37/2 971/37/2 970/37/2 948/37/2
f 970/37/4 971/37/4 864/37/4 863/37/4
f 952/37/2 972/37/2 971/37/2 950/37/2
f 971/37/4 972/37/4 865/37/4 864/37/4
f 865/37/6 972/37/6 952/37/6 838/37/6
f 973/37/4 974/37/4 867/37/4 866/37/4
f 960/37/5 973/37/5 866/37/5 853/37/5
f 974/37/4 975/37/4 868/37/4 867/37/4
f 868/37/6 975/37/6 962/37/6 854/37/6
f 976/37/2 977/37/2 978/37/2 979/37/2
f 869/37/3 976/37/3 979/37/3 870/37/3
f 979/37/5 978/37/5 871/37/5 870/37/5
f 980/37/2 981/37/2 977/37/2 976/37/2
f 872/37/3 980/37/3 976/37/3 869/37/3
f 873/37/6 981/37/6 980/37/6 872/37/6
f 977/37/2 982/37/2 983/37/2 978/37/2
f 978/37/5 983/37/5 888/37/5 871/37/5
f 981/37/2 984/37/2 982/37/2 977/37/2
f 889/37/6 984/37/6 981/37/6 873/37/6
f 982/37/2 985/37/2 986/37/2 983/37/2
f 983/37/5 986/37/5 897/37/5 888/37/5
f 984/37/2 987/37/2 985/37/2 982/37/2
f 898/37/6 987/37/6 984/37/6 889/37/6
f 985/37/2 988/37/2 989/37/2 986/37/2
f 986/37/5 989/37/5 899/37/5 897/37/5
f 987/37/2 990/37/2 988/37/2 985/37/2
f 900/37/6 990/37/6 987/37/6 898/37/6
f 988/37/2 991/37/2 992/37/2 989/37/2
f 989/37/5 992/37/5 901/37/5 899/37/5
f 990/37/2 993/37/2 991/37/2 988/37/2
f 902/37/6 993/37/6 990/37/6 900/37/6
f 991/37/2 994/37/2 995/37/2 992/37/2
f 992/37/5 995/37/5 903/37/5 901/37/5
f 993/37/2 996/37/2 994/37/2 991/37/2
f 904/37/6 996/37/6 993/37/6 902/37/6
f 994/37/2 997/37/2 998/37/2 995/37/2
f 995/37/5 998/37/5 905/37/5 903/37/5
f 996/37/2 999/37/2 997/37/2 994/37/2
f 906/37/6 999/37/6 996/37/6 904/37/6
f 997/38/2 1000/38/2 1001/38/2 998/38/2
f 998/38/5 1001/38/5 907/38/5 905/38/5
f 999/37/2 1002/37/2 1000/37/2 997/37/2
f 908/37/6 1002/37/6 999/37/6 906/37/6
f 1000/37/2 1003/37/2 1004/37/2 1001/37/2
f 1001/37/5 1004/37/5 909/37/5 907/37/5
f 1002/37/2 1005/37/2 1003/37/2 1000/37/2
f 910/37/6 1005/37/6 1002/37/6 908/37/6
f 1003/37/2 1006/37/2 1007/37/2 1004/37/2
f 1004/37/5 1007/37/5 911/37/5 909/37/5
f 1005/37/2 1008/37/2 1006/37/2 1003/37/2
f 912/37/6 1008/37/6 1005/37/6 910/37/6
f 1006/37/2 1009/37/2 1010/37/2 1007/37/2
f 1007/37/5 1010/37/5 913/37/5 911/37/5
f 1008/37/2 1011/37/2 1009/37/2 1006/37/2
f 914/37/6 1011/37/6 1008/37/6 912/37/6
f 1009/37/2 1012/37/2 1013/37/2 1010/37/2
f 1010/37/5 1013/37/5 929/37/5 913/37/5
f 1011/37/2 1014/37/2 1012/37/2 1009/37/2
f 932/37/6 1014/37/6 1011/37/6 914/37/6
f 1012/37/2 1015/37/2 1016/37/2 1013/37/2
f 1013/37/5 1016/37/5 960/37/5 929/37/5
f 1014/37/2 1017/37/2 1015/37/2 1012/37/2
f 962/37/6 1017/37/6 1014/37/6 932/37/6
f 1015/37/2 1018/37/2 1019/37/2 1016/37/2
f 1019/37/4 1018/37/4 974/37/4 973/37/4
f 1016/37/5 1019/37/5 973/37/5 960/37/5
f 1017/37/2 1020/37/2 1018/37/2 1015/37/2
f 1018/37/4 1020/37/4 975/37/4 974/37/4
f 975/37/6 1020/37/6 1017/37/6 962/37/6
