# Dungine chest_closed; 1 voxel = 1/16 unit; Y-up floor-center origin
mtllib chest_closed.mtl
o chest_closed
s off
v -0.437500 0.000000 -0.250000
v -0.437500 0.062500 -0.250000
v -0.437500 0.062500 -0.312500
v -0.437500 0.000000 -0.312500
v -0.375000 0.062500 -0.312500
v -0.375000 0.000000 -0.312500
v -0.375000 0.000000 -0.250000
v -0.437500 0.125000 -0.250000
v -0.437500 0.125000 -0.312500
v -0.375000 0.125000 -0.312500
v -0.437500 0.187500 -0.250000
v -0.437500 0.187500 -0.312500
v -0.375000 0.187500 -0.312500
v -0.437500 0.250000 -0.250000
v -0.437500 0.250000 -0.312500
v -0.375000 0.250000 -0.312500
v -0.437500 0.312500 -0.250000
v -0.437500 0.312500 -0.312500
v -0.375000 0.312500 -0.312500
v -0.437500 0.375000 -0.250000
v -0.437500 0.375000 -0.312500
v -0.375000 0.375000 -0.312500
v -0.437500 0.437500 -0.250000
v -0.437500 0.437500 -0.312500
v -0.375000 0.437500 -0.312500
v -0.437500 0.500000 -0.250000
v -0.437500 0.500000 -0.312500
v -0.375000 0.500000 -0.312500
v -0.437500 0.562500 -0.250000
v -0.437500 0.562500 -0.312500
v -0.375000 0.562500 -0.312500
v -0.437500 0.625000 -0.250000
v -0.437500 0.625000 -0.312500
v -0.375000 0.625000 -0.312500
v -0.437500 0.687500 -0.250000
v -0.437500 0.687500 -0.312500
v -0.375000 0.687500 -0.312500
v -0.437500 0.750000 -0.250000
v -0.437500 0.750000 -0.312500
v -0.375000 0.750000 -0.312500
v -0.375000 0.750000 -0.250000
v -0.437500 0.000000 -0.187500
v -0.437500 0.062500 -0.187500
v -0.375000 0.000000 -0.187500
v -0.437500 0.125000 -0.187500
v -0.437500 0.187500 -0.187500
v -0.437500 0.250000 -0.187500
v -0.437500 0.312500 -0.187500
v -0.437500 0.375000 -0.187500
v -0.437500 0.437500 -0.187500
v -0.437500 0.500000 -0.187500
v -0.437500 0.562500 -0.187500
v -0.437500 0.625000 -0.187500
v -0.437500 0.687500 -0.187500
v -0.437500 0.750000 -0.187500
v -0.375000 0.750000 -0.187500
v -0.437500 0.000000 -0.125000
v -0.437500 0.062500 -0.125000
v -0.375000 0.000000 -0.125000
v -0.437500 0.125000 -0.125000
v -0.437500 0.187500 -0.125000
v -0.437500 0.250000 -0.125000
v -0.437500 0.312500 -0.125000
v -0.437500 0.375000 -0.125000
v -0.437500 0.437500 -0.125000
v -0.437500 0.500000 -0.125000
v -0.437500 0.562500 -0.125000
v -0.437500 0.625000 -0.125000
v -0.437500 0.687500 -0.125000
v -0.437500 0.750000 -0.125000
v -0.375000 0.750000 -0.125000
v -0.437500 0.000000 -0.062500
v -0.437500 0.062500 -0.062500
v -0.375000 0.000000 -0.062500
v -0.437500 0.125000 -0.062500
v -0.437500 0.187500 -0.062500
v -0.437500 0.250000 -0.062500
v -0.437500 0.312500 -0.062500
v -0.437500 0.375000 -0.062500
v -0.437500 0.437500 -0.062500
v -0.437500 0.500000 -0.062500
v -0.437500 0.562500 -0.062500
v -0.437500 0.625000 -0.062500
v -0.437500 0.687500 -0.062500
v -0.437500 0.750000 -0.062500
v -0.375000 0.750000 -0.062500
v -0.437500 0.000000 0.000000
v -0.437500 0.062500 0.000000
v -0.375000 0.000000 0.000000
v -0.437500 0.125000 0.000000
v -0.437500 0.187500 0.000000
v -0.437500 0.250000 0.000000
v -0.437500 0.312500 0.000000
v -0.437500 0.375000 0.000000
v -0.437500 0.437500 0.000000
v -0.437500 0.500000 0.000000
v -0.437500 0.562500 0.000000
v -0.437500 0.625000 0.000000
v -0.437500 0.687500 0.000000
v -0.437500 0.750000 0.000000
v -0.375000 0.750000 0.000000
v -0.437500 0.000000 0.062500
v -0.437500 0.062500 0.062500
v -0.375000 0.000000 0.062500
v -0.437500 0.125000 0.062500
v -0.437500 0.187500 0.062500
v -0.437500 0.250000 0.062500
v -0.437500 0.312500 0.062500
v -0.437500 0.375000 0.062500
v -0.437500 0.437500 0.062500
v -0.437500 0.500000 0.062500
v -0.437500 0.562500 0.062500
v -0.437500 0.625000 0.062500
v -0.437500 0.687500 0.062500
v -0.437500 0.750000 0.062500
v -0.375000 0.750000 0.062500
v -0.437500 0.000000 0.125000
v -0.437500 0.062500 0.125000
v -0.375000 0.000000 0.125000
v -0.437500 0.125000 0.125000
v -0.437500 0.187500 0.125000
v -0.437500 0.250000 0.125000
v -0.437500 0.312500 0.125000
v -0.437500 0.375000 0.125000
v -0.437500 0.437500 0.125000
v -0.437500 0.500000 0.125000
v -0.437500 0.562500 0.125000
v -0.437500 0.625000 0.125000
v -0.437500 0.687500 0.125000
v -0.437500 0.750000 0.125000
v -0.375000 0.750000 0.125000
v -0.437500 0.000000 0.187500
v -0.437500 0.062500 0.187500
v -0.375000 0.000000 0.187500
v -0.437500 0.125000 0.187500
v -0.437500 0.187500 0.187500
v -0.437500 0.250000 0.187500
v -0.437500 0.312500 0.187500
v -0.437500 0.375000 0.187500
v -0.437500 0.437500 0.187500
v -0.437500 0.500000 0.187500
v -0.437500 0.562500 0.187500
v -0.437500 0.625000 0.187500
v -0.437500 0.687500 0.187500
v -0.437500 0.750000 0.187500
v -0.375000 0.750000 0.187500
v -0.437500 0.000000 0.250000
v -0.437500 0.062500 0.250000
v -0.375000 0.000000 0.250000
v -0.437500 0.125000 0.250000
v -0.437500 0.187500 0.250000
v -0.437500 0.250000 0.250000
v -0.437500 0.312500 0.250000
v -0.437500 0.375000 0.250000
v -0.437500 0.437500 0.250000
v -0.437500 0.500000 0.250000
v -0.437500 0.562500 0.250000
v -0.437500 0.625000 0.250000
v -0.437500 0.687500 0.250000
v -0.437500 0.750000 0.250000
v -0.375000 0.750000 0.250000
v -0.437500 0.000000 0.312500
v -0.437500 0.062500 0.312500
v -0.375000 0.000000 0.312500
v -0.375000 0.062500 0.312500
v -0.437500 0.125000 0.312500
v -0.375000 0.125000 0.312500
v -0.437500 0.187500 0.312500
v -0.375000 0.187500 0.312500
v -0.437500 0.250000 0.312500
v -0.375000 0.250000 0.312500
v -0.437500 0.312500 0.312500
v -0.375000 0.312500 0.312500
v -0.437500 0.375000 0.312500
v -0.375000 0.375000 0.312500
v -0.437500 0.437500 0.312500
v -0.375000 0.437500 0.312500
v -0.437500 0.500000 0.312500
v -0.375000 0.500000 0.312500
v -0.437500 0.562500 0.312500
v -0.375000 0.562500 0.312500
v -0.437500 0.625000 0.312500
v -0.375000 0.625000 0.312500
v -0.437500 0.687500 0.312500
v -0.375000 0.687500 0.312500
v -0.437500 0.750000 0.312500
v -0.375000 0.750000 0.312500
v -0.312500 0.062500 -0.312500
v -0.312500 0.000000 -0.312500
v -0.312500 0.000000 -0.250000
v -0.312500 0.125000 -0.312500
v -0.312500 0.187500 -0.312500
v -0.312500 0.250000 -0.312500
v -0.312500 0.312500 -0.312500
v -0.312500 0.375000 -0.312500
v -0.312500 0.437500 -0.312500
v -0.312500 0.500000 -0.312500
v -0.312500 0.562500 -0.312500
v -0.312500 0.625000 -0.312500
v -0.312500 0.687500 -0.312500
v -0.312500 0.750000 -0.312500
v -0.312500 0.750000 -0.250000
v -0.312500 0.000000 -0.187500
v -0.312500 0.750000 -0.187500
v -0.312500 0.000000 -0.125000
v -0.312500 0.187500 -0.187500
v -0.312500 0.187500 -0.125000
v -0.312500 0.125000 -0.125000
v -0.312500 0.125000 -0.187500
v -0.312500 0.250000 -0.187500
v -0.312500 0.250000 -0.125000
v -0.312500 0.312500 -0.187500
v -0.312500 0.312500 -0.125000
v -0.312500 0.375000 -0.187500
v -0.312500 0.375000 -0.125000
v -0.312500 0.437500 -0.187500
v -0.312500 0.437500 -0.125000
v -0.312500 0.500000 -0.187500
v -0.312500 0.500000 -0.125000
v -0.312500 0.562500 -0.187500
v -0.312500 0.562500 -0.125000
v -0.312500 0.750000 -0.125000
v -0.312500 0.000000 -0.062500
v -0.312500 0.187500 -0.062500
v -0.312500 0.125000 -0.062500
v -0.312500 0.250000 -0.062500
v -0.312500 0.312500 -0.062500
v -0.312500 0.375000 -0.062500
v -0.312500 0.437500 -0.062500
v -0.312500 0.500000 -0.062500
v -0.312500 0.562500 -0.062500
v -0.312500 0.750000 -0.062500
v -0.312500 0.000000 0.000000
v -0.312500 0.187500 0.000000
v -0.312500 0.125000 0.000000
v -0.312500 0.250000 0.000000
v -0.312500 0.312500 0.000000
v -0.312500 0.375000 0.000000
v -0.312500 0.437500 0.000000
v -0.312500 0.500000 0.000000
v -0.312500 0.562500 0.000000
v -0.312500 0.750000 0.000000
v -0.312500 0.000000 0.062500
v -0.312500 0.187500 0.062500
v -0.312500 0.125000 0.062500
v -0.312500 0.250000 0.062500
v -0.312500 0.312500 0.062500
v -0.312500 0.375000 0.062500
v -0.312500 0.437500 0.062500
v -0.312500 0.500000 0.062500
v -0.312500 0.562500 0.062500
v -0.312500 0.750000 0.062500
v -0.312500 0.000000 0.125000
v -0.312500 0.187500 0.125000
v -0.312500 0.125000 0.125000
v -0.312500 0.250000 0.125000
v -0.312500 0.312500 0.125000
v -0.312500 0.375000 0.125000
v -0.312500 0.437500 0.125000
v -0.312500 0.500000 0.125000
v -0.312500 0.562500 0.125000
v -0.312500 0.750000 0.125000
v -0.312500 0.000000 0.187500
v -0.312500 0.187500 0.187500
v -0.312500 0.125000 0.187500
v -0.312500 0.250000 0.187500
v -0.312500 0.312500 0.187500
v -0.312500 0.375000 0.187500
v -0.312500 0.437500 0.187500
v -0.312500 0.500000 0.187500
v -0.312500 0.562500 0.187500
v -0.312500 0.750000 0.187500
v -0.312500 0.000000 0.250000
v -0.312500 0.750000 0.250000
v -0.312500 0.000000 0.312500
v -0.312500 0.062500 0.312500
v -0.312500 0.125000 0.312500
v -0.312500 0.187500 0.312500
v -0.312500 0.250000 0.312500
v -0.312500 0.312500 0.312500
v -0.312500 0.375000 0.312500
v -0.312500 0.437500 0.312500
v -0.312500 0.500000 0.312500
v -0.312500 0.562500 0.312500
v -0.312500 0.625000 0.312500
v -0.312500 0.687500 0.312500
v -0.312500 0.750000 0.312500
v -0.250000 0.062500 -0.312500
v -0.250000 0.000000 -0.312500
v -0.250000 0.000000 -0.250000
v -0.250000 0.125000 -0.312500
v -0.250000 0.187500 -0.312500
v -0.250000 0.250000 -0.312500
v -0.250000 0.312500 -0.312500
v -0.250000 0.375000 -0.312500
v -0.250000 0.437500 -0.312500
v -0.250000 0.500000 -0.312500
v -0.250000 0.562500 -0.312500
v -0.250000 0.625000 -0.312500
v -0.250000 0.687500 -0.312500
v -0.250000 0.750000 -0.312500
v -0.250000 0.750000 -0.250000
v -0.250000 0.000000 -0.187500
v -0.250000 0.125000 -0.187500
v -0.250000 0.187500 -0.187500
v -0.250000 0.250000 -0.187500
v -0.250000 0.312500 -0.187500
v -0.250000 0.375000 -0.187500
v -0.250000 0.437500 -0.187500
v -0.250000 0.500000 -0.187500
v -0.250000 0.562500 -0.187500
v -0.250000 0.750000 -0.187500
v -0.250000 0.000000 -0.125000
v -0.250000 0.125000 -0.125000
v -0.250000 0.562500 -0.125000
v -0.250000 0.750000 -0.125000
v -0.250000 0.000000 -0.062500
v -0.250000 0.125000 -0.062500
v -0.250000 0.562500 -0.062500
v -0.250000 0.750000 -0.062500
v -0.250000 0.000000 0.000000
v -0.250000 0.125000 0.000000
v -0.250000 0.562500 0.000000
v -0.250000 0.750000 0.000000
v -0.250000 0.000000 0.062500
v -0.250000 0.125000 0.062500
v -0.250000 0.562500 0.062500
v -0.250000 0.750000 0.062500
v -0.250000 0.000000 0.125000
v -0.250000 0.125000 0.125000
v -0.250000 0.562500 0.125000
v -0.250000 0.750000 0.125000
v -0.250000 0.000000 0.187500
v -0.250000 0.125000 0.187500
v -0.250000 0.562500 0.187500
v -0.250000 0.750000 0.187500
v -0.250000 0.000000 0.250000
v -0.250000 0.187500 0.187500
v -0.250000 0.250000 0.187500
v -0.250000 0.312500 0.187500
v -0.250000 0.375000 0.187500
v -0.250000 0.437500 0.187500
v -0.250000 0.500000 0.187500
v -0.250000 0.750000 0.250000
v -0.250000 0.000000 0.312500
v -0.250000 0.062500 0.312500
v -0.250000 0.125000 0.312500
v -0.250000 0.187500 0.312500
v -0.250000 0.250000 0.312500
v -0.250000 0.312500 0.312500
v -0.250000 0.375000 0.312500
v -0.250000 0.437500 0.312500
v -0.250000 0.500000 0.312500
v -0.250000 0.562500 0.312500
v -0.250000 0.625000 0.312500
v -0.250000 0.687500 0.312500
v -0.250000 0.750000 0.312500
v -0.187500 0.062500 -0.312500
v -0.187500 0.000000 -0.312500
v -0.187500 0.000000 -0.250000
v -0.187500 0.125000 -0.312500
v -0.187500 0.187500 -0.312500
v -0.187500 0.250000 -0.312500
v -0.187500 0.312500 -0.312500
v -0.187500 0.375000 -0.312500
v -0.187500 0.437500 -0.312500
v -0.187500 0.500000 -0.312500
v -0.187500 0.562500 -0.312500
v -0.187500 0.625000 -0.312500
v -0.187500 0.687500 -0.312500
v -0.187500 0.750000 -0.312500
v -0.187500 0.750000 -0.250000
v -0.187500 0.000000 -0.187500
v -0.187500 0.125000 -0.187500
v -0.187500 0.187500 -0.187500
v -0.187500 0.250000 -0.187500
v -0.187500 0.312500 -0.187500
v -0.187500 0.375000 -0.187500
v -0.187500 0.437500 -0.187500
v -0.187500 0.500000 -0.187500
v -0.187500 0.562500 -0.187500
v -0.187500 0.750000 -0.187500
v -0.187500 0.000000 -0.125000
v -0.187500 0.125000 -0.125000
v -0.187500 0.562500 -0.125000
v -0.187500 0.750000 -0.125000
v -0.187500 0.000000 -0.062500
v -0.187500 0.125000 -0.062500
v -0.187500 0.562500 -0.062500
v -0.187500 0.750000 -0.062500
v -0.187500 0.000000 0.000000
v -0.187500 0.125000 0.000000
v -0.187500 0.562500 0.000000
v -0.187500 0.750000 0.000000
v -0.187500 0.000000 0.062500
v -0.187500 0.125000 0.062500
v -0.187500 0.562500 0.062500
v -0.187500 0.750000 0.062500
v -0.187500 0.000000 0.125000
v -0.187500 0.125000 0.125000
v -0.187500 0.562500 0.125000
v -0.187500 0.750000 0.125000
v -0.187500 0.000000 0.187500
v -0.187500 0.125000 0.187500
v -0.187500 0.562500 0.187500
v -0.187500 0.750000 0.187500
v -0.187500 0.000000 0.250000
v -0.187500 0.187500 0.187500
v -0.187500 0.250000 0.187500
v -0.187500 0.312500 0.187500
v -0.187500 0.375000 0.187500
v -0.187500 0.437500 0.187500
v -0.187500 0.500000 0.187500
v -0.187500 0.750000 0.250000
v -0.187500 0.000000 0.312500
v -0.187500 0.062500 0.312500
v -0.187500 0.125000 0.312500
v -0.187500 0.187500 0.312500
v -0.187500 0.250000 0.312500
v -0.187500 0.312500 0.312500
v -0.187500 0.375000 0.312500
v -0.187500 0.437500 0.312500
v -0.187500 0.500000 0.312500
v -0.187500 0.562500 0.312500
v -0.187500 0.625000 0.312500
v -0.187500 0.687500 0.312500
v -0.187500 0.750000 0.312500
v -0.125000 0.062500 -0.312500
v -0.125000 0.000000 -0.312500
v -0.125000 0.000000 -0.250000
v -0.125000 0.125000 -0.312500
v -0.125000 0.187500 -0.312500
v -0.125000 0.250000 -0.312500
v -0.125000 0.312500 -0.312500
v -0.125000 0.375000 -0.312500
v -0.125000 0.437500 -0.312500
v -0.125000 0.500000 -0.312500
v -0.125000 0.562500 -0.312500
v -0.125000 0.625000 -0.312500
v -0.125000 0.687500 -0.312500
v -0.125000 0.750000 -0.312500
v -0.125000 0.750000 -0.250000
v -0.125000 0.000000 -0.187500
v -0.125000 0.125000 -0.187500
v -0.125000 0.187500 -0.187500
v -0.125000 0.250000 -0.187500
v -0.125000 0.312500 -0.187500
v -0.125000 0.375000 -0.187500
v -0.125000 0.437500 -0.187500
v -0.125000 0.500000 -0.187500
v -0.125000 0.562500 -0.187500
v -0.125000 0.750000 -0.187500
v -0.125000 0.000000 -0.125000
v -0.125000 0.125000 -0.125000
v -0.125000 0.562500 -0.125000
v -0.125000 0.750000 -0.125000
v -0.125000 0.000000 -0.062500
v -0.125000 0.125000 -0.062500
v -0.125000 0.562500 -0.062500
v -0.125000 0.750000 -0.062500
v -0.125000 0.000000 0.000000
v -0.125000 0.125000 0.000000
v -0.125000 0.562500 0.000000
v -0.125000 0.750000 0.000000
v -0.125000 0.000000 0.062500
v -0.125000 0.125000 0.062500
v -0.125000 0.562500 0.062500
v -0.125000 0.750000 0.062500
v -0.125000 0.000000 0.125000
v -0.125000 0.125000 0.125000
v -0.125000 0.562500 0.125000
v -0.125000 0.750000 0.125000
v -0.125000 0.000000 0.187500
v -0.125000 0.125000 0.187500
v -0.125000 0.562500 0.187500
v -0.125000 0.750000 0.187500
v -0.125000 0.000000 0.250000
v -0.125000 0.187500 0.187500
v -0.125000 0.250000 0.187500
v -0.125000 0.312500 0.187500
v -0.125000 0.375000 0.187500
v -0.125000 0.437500 0.187500
v -0.125000 0.500000 0.187500
v -0.125000 0.750000 0.250000
v -0.125000 0.000000 0.312500
v -0.125000 0.062500 0.312500
v -0.125000 0.125000 0.312500
v -0.125000 0.187500 0.312500
v -0.125000 0.250000 0.312500
v -0.125000 0.312500 0.312500
v -0.125000 0.375000 0.312500
v -0.125000 0.437500 0.312500
v -0.125000 0.500000 0.312500
v -0.125000 0.562500 0.312500
v -0.125000 0.625000 0.312500
v -0.125000 0.687500 0.312500
v -0.125000 0.750000 0.312500
v -0.062500 0.062500 -0.312500
v -0.062500 0.000000 -0.312500
v -0.062500 0.000000 -0.250000
v -0.062500 0.125000 -0.312500
v -0.062500 0.187500 -0.312500
v -0.062500 0.250000 -0.312500
v -0.062500 0.312500 -0.312500
v -0.062500 0.375000 -0.312500
v -0.062500 0.437500 -0.312500
v -0.062500 0.500000 -0.312500
v -0.062500 0.562500 -0.312500
v -0.062500 0.625000 -0.312500
v -0.062500 0.687500 -0.312500
v -0.062500 0.750000 -0.312500
v -0.062500 0.750000 -0.250000
v -0.062500 0.000000 -0.187500
v -0.062500 0.125000 -0.187500
v -0.062500 0.187500 -0.187500
v -0.062500 0.250000 -0.187500
v -0.062500 0.312500 -0.187500
v -0.062500 0.375000 -0.187500
v -0.062500 0.437500 -0.187500
v -0.062500 0.500000 -0.187500
v -0.062500 0.562500 -0.187500
v -0.062500 0.750000 -0.187500
v -0.062500 0.000000 -0.125000
v -0.062500 0.125000 -0.125000
v -0.062500 0.562500 -0.125000
v -0.062500 0.750000 -0.125000
v -0.062500 0.000000 -0.062500
v -0.062500 0.125000 -0.062500
v -0.062500 0.562500 -0.062500
v -0.062500 0.750000 -0.062500
v -0.062500 0.000000 0.000000
v -0.062500 0.125000 0.000000
v -0.062500 0.562500 0.000000
v -0.062500 0.750000 0.000000
v -0.062500 0.000000 0.062500
v -0.062500 0.125000 0.062500
v -0.062500 0.562500 0.062500
v -0.062500 0.750000 0.062500
v -0.062500 0.000000 0.125000
v -0.062500 0.125000 0.125000
v -0.062500 0.562500 0.125000
v -0.062500 0.750000 0.125000
v -0.062500 0.000000 0.187500
v -0.062500 0.125000 0.187500
v -0.062500 0.562500 0.187500
v -0.062500 0.750000 0.187500
v -0.062500 0.000000 0.250000
v -0.062500 0.187500 0.187500
v -0.062500 0.250000 0.187500
v -0.062500 0.312500 0.187500
v -0.062500 0.375000 0.187500
v -0.062500 0.437500 0.187500
v -0.062500 0.500000 0.187500
v -0.062500 0.750000 0.250000
v -0.062500 0.000000 0.312500
v -0.062500 0.062500 0.312500
v -0.062500 0.125000 0.312500
v -0.062500 0.187500 0.312500
v -0.062500 0.250000 0.312500
v -0.062500 0.312500 0.312500
v -0.062500 0.375000 0.312500
v -0.062500 0.437500 0.312500
v -0.062500 0.500000 0.312500
v -0.062500 0.562500 0.312500
v -0.062500 0.625000 0.312500
v -0.062500 0.687500 0.312500
v -0.062500 0.750000 0.312500
v -0.062500 0.437500 -0.375000
v -0.062500 0.375000 -0.375000
v 0.000000 0.437500 -0.375000
v 0.000000 0.375000 -0.375000
v 0.000000 0.375000 -0.312500
v -0.062500 0.500000 -0.375000
v 0.000000 0.500000 -0.375000
v -0.062500 0.562500 -0.375000
v 0.000000 0.562500 -0.375000
v -0.062500 0.625000 -0.375000
v 0.000000 0.625000 -0.375000
v 0.000000 0.625000 -0.312500
v 0.000000 0.062500 -0.312500
v 0.000000 0.000000 -0.312500
v 0.000000 0.000000 -0.250000
v 0.000000 0.125000 -0.312500
v 0.000000 0.187500 -0.312500
v 0.000000 0.250000 -0.312500
v 0.000000 0.312500 -0.312500
v 0.000000 0.687500 -0.312500
v 0.000000 0.750000 -0.312500
v 0.000000 0.750000 -0.250000
v 0.000000 0.000000 -0.187500
v 0.000000 0.125000 -0.187500
v 0.000000 0.187500 -0.187500
v 0.000000 0.250000 -0.187500
v 0.000000 0.312500 -0.187500
v 0.000000 0.375000 -0.187500
v 0.000000 0.437500 -0.187500
v 0.000000 0.500000 -0.187500
v 0.000000 0.562500 -0.187500
v 0.000000 0.750000 -0.187500
v 0.000000 0.000000 -0.125000
v 0.000000 0.125000 -0.125000
v 0.000000 0.562500 -0.125000
v 0.000000 0.750000 -0.125000
v 0.000000 0.000000 -0.062500
v 0.000000 0.125000 -0.062500
v 0.000000 0.562500 -0.062500
v 0.000000 0.750000 -0.062500
v 0.000000 0.000000 0.000000
v 0.000000 0.125000 0.000000
v 0.000000 0.562500 0.000000
v 0.000000 0.750000 0.000000
v 0.000000 0.000000 0.062500
v 0.000000 0.125000 0.062500
v 0.000000 0.562500 0.062500
v 0.000000 0.750000 0.062500
v 0.000000 0.000000 0.125000
v 0.000000 0.125000 0.125000
v 0.000000 0.562500 0.125000
v 0.000000 0.750000 0.125000
v 0.000000 0.000000 0.187500
v 0.000000 0.125000 0.187500
v 0.000000 0.562500 0.187500
v 0.000000 0.750000 0.187500
v 0.000000 0.000000 0.250000
v 0.000000 0.187500 0.187500
v 0.000000 0.250000 0.187500
v 0.000000 0.312500 0.187500
v 0.000000 0.375000 0.187500
v 0.000000 0.437500 0.187500
v 0.000000 0.500000 0.187500
v 0.000000 0.750000 0.250000
v 0.000000 0.000000 0.312500
v 0.000000 0.062500 0.312500
v 0.000000 0.125000 0.312500
v 0.000000 0.187500 0.312500
v 0.000000 0.250000 0.312500
v 0.000000 0.312500 0.312500
v 0.000000 0.375000 0.312500
v 0.000000 0.437500 0.312500
v 0.000000 0.500000 0.312500
v 0.000000 0.562500 0.312500
v 0.000000 0.625000 0.312500
v 0.000000 0.687500 0.312500
v 0.000000 0.750000 0.312500
v 0.062500 0.437500 -0.375000
v 0.062500 0.437500 -0.312500
v 0.062500 0.375000 -0.312500
v 0.062500 0.375000 -0.375000
v 0.062500 0.500000 -0.375000
v 0.062500 0.500000 -0.312500
v 0.062500 0.562500 -0.375000
v 0.062500 0.562500 -0.312500
v 0.062500 0.625000 -0.375000
v 0.062500 0.625000 -0.312500
v 0.062500 0.062500 -0.312500
v 0.062500 0.000000 -0.312500
v 0.062500 0.000000 -0.250000
v 0.062500 0.125000 -0.312500
v 0.062500 0.187500 -0.312500
v 0.062500 0.250000 -0.312500
v 0.062500 0.312500 -0.312500
v 0.062500 0.687500 -0.312500
v 0.062500 0.750000 -0.312500
v 0.062500 0.750000 -0.250000
v 0.062500 0.000000 -0.187500
v 0.062500 0.125000 -0.187500
v 0.062500 0.187500 -0.187500
v 0.062500 0.250000 -0.187500
v 0.062500 0.312500 -0.187500
v 0.062500 0.375000 -0.187500
v 0.062500 0.437500 -0.187500
v 0.062500 0.500000 -0.187500
v 0.062500 0.562500 -0.187500
v 0.062500 0.750000 -0.187500
v 0.062500 0.000000 -0.125000
v 0.062500 0.125000 -0.125000
v 0.062500 0.562500 -0.125000
v 0.062500 0.750000 -0.125000
v 0.062500 0.000000 -0.062500
v 0.062500 0.125000 -0.062500
v 0.062500 0.562500 -0.062500
v 0.062500 0.750000 -0.062500
v 0.062500 0.000000 0.000000
v 0.062500 0.125000 0.000000
v 0.062500 0.562500 0.000000
v 0.062500 0.750000 0.000000
v 0.062500 0.000000 0.062500
v 0.062500 0.125000 0.062500
v 0.062500 0.562500 0.062500
v 0.062500 0.750000 0.062500
v 0.062500 0.000000 0.125000
v 0.062500 0.125000 0.125000
v 0.062500 0.562500 0.125000
v 0.062500 0.750000 0.125000
v 0.062500 0.000000 0.187500
v 0.062500 0.125000 0.187500
v 0.062500 0.562500 0.187500
v 0.062500 0.750000 0.187500
v 0.062500 0.000000 0.250000
v 0.062500 0.187500 0.187500
v 0.062500 0.250000 0.187500
v 0.062500 0.312500 0.187500
v 0.062500 0.375000 0.187500
v 0.062500 0.437500 0.187500
v 0.062500 0.500000 0.187500
v 0.062500 0.750000 0.250000
v 0.062500 0.000000 0.312500
v 0.062500 0.062500 0.312500
v 0.062500 0.125000 0.312500
v 0.062500 0.187500 0.312500
v 0.062500 0.250000 0.312500
v 0.062500 0.312500 0.312500
v 0.062500 0.375000 0.312500
v 0.062500 0.437500 0.312500
v 0.062500 0.500000 0.312500
v 0.062500 0.562500 0.312500
v 0.062500 0.625000 0.312500
v 0.062500 0.687500 0.312500
v 0.062500 0.750000 0.312500
v 0.125000 0.062500 -0.312500
v 0.125000 0.000000 -0.312500
v 0.125000 0.000000 -0.250000
v 0.125000 0.125000 -0.312500
v 0.125000 0.187500 -0.312500
v 0.125000 0.250000 -0.312500
v 0.125000 0.312500 -0.312500
v 0.125000 0.375000 -0.312500
v 0.125000 0.437500 -0.312500
v 0.125000 0.500000 -0.312500
v 0.125000 0.562500 -0.312500
v 0.125000 0.625000 -0.312500
v 0.125000 0.687500 -0.312500
v 0.125000 0.750000 -0.312500
v 0.125000 0.750000 -0.250000
v 0.125000 0.000000 -0.187500
v 0.125000 0.125000 -0.187500
v 0.125000 0.187500 -0.187500
v 0.125000 0.250000 -0.187500
v 0.125000 0.312500 -0.187500
v 0.125000 0.375000 -0.187500
v 0.125000 0.437500 -0.187500
v 0.125000 0.500000 -0.187500
v 0.125000 0.562500 -0.187500
v 0.125000 0.750000 -0.187500
v 0.125000 0.000000 -0.125000
v 0.125000 0.125000 -0.125000
v 0.125000 0.562500 -0.125000
v 0.125000 0.750000 -0.125000
v 0.125000 0.000000 -0.062500
v 0.125000 0.125000 -0.062500
v 0.125000 0.562500 -0.062500
v 0.125000 0.750000 -0.062500
v 0.125000 0.000000 0.000000
v 0.125000 0.125000 0.000000
v 0.125000 0.562500 0.000000
v 0.125000 0.750000 0.000000
v 0.125000 0.000000 0.062500
v 0.125000 0.125000 0.062500
v 0.125000 0.562500 0.062500
v 0.125000 0.750000 0.062500
v 0.125000 0.000000 0.125000
v 0.125000 0.125000 0.125000
v 0.125000 0.562500 0.125000
v 0.125000 0.750000 0.125000
v 0.125000 0.000000 0.187500
v 0.125000 0.125000 0.187500
v 0.125000 0.562500 0.187500
v 0.125000 0.750000 0.187500
v 0.125000 0.000000 0.250000
v 0.125000 0.187500 0.187500
v 0.125000 0.250000 0.187500
v 0.125000 0.312500 0.187500
v 0.125000 0.375000 0.187500
v 0.125000 0.437500 0.187500
v 0.125000 0.500000 0.187500
v 0.125000 0.750000 0.250000
v 0.125000 0.000000 0.312500
v 0.125000 0.062500 0.312500
v 0.125000 0.125000 0.312500
v 0.125000 0.187500 0.312500
v 0.125000 0.250000 0.312500
v 0.125000 0.312500 0.312500
v 0.125000 0.375000 0.312500
v 0.125000 0.437500 0.312500
v 0.125000 0.500000 0.312500
v 0.125000 0.562500 0.312500
v 0.125000 0.625000 0.312500
v 0.125000 0.687500 0.312500
v 0.125000 0.750000 0.312500
v 0.187500 0.062500 -0.312500
v 0.187500 0.000000 -0.312500
v 0.187500 0.000000 -0.250000
v 0.187500 0.125000 -0.312500
v 0.187500 0.187500 -0.312500
v 0.187500 0.250000 -0.312500
v 0.187500 0.312500 -0.312500
v 0.187500 0.375000 -0.312500
v 0.187500 0.437500 -0.312500
v 0.187500 0.500000 -0.312500
v 0.187500 0.562500 -0.312500
v 0.187500 0.625000 -0.312500
v 0.187500 0.687500 -0.312500
v 0.187500 0.750000 -0.312500
v 0.187500 0.750000 -0.250000
v 0.187500 0.000000 -0.187500
v 0.187500 0.125000 -0.187500
v 0.187500 0.187500 -0.187500
v 0.187500 0.250000 -0.187500
v 0.187500 0.312500 -0.187500
v 0.187500 0.375000 -0.187500
v 0.187500 0.437500 -0.187500
v 0.187500 0.500000 -0.187500
v 0.187500 0.562500 -0.187500
v 0.187500 0.750000 -0.187500
v 0.187500 0.000000 -0.125000
v 0.187500 0.125000 -0.125000
v 0.187500 0.562500 -0.125000
v 0.187500 0.750000 -0.125000
v 0.187500 0.000000 -0.062500
v 0.187500 0.125000 -0.062500
v 0.187500 0.562500 -0.062500
v 0.187500 0.750000 -0.062500
v 0.187500 0.000000 0.000000
v 0.187500 0.125000 0.000000
v 0.187500 0.562500 0.000000
v 0.187500 0.750000 0.000000
v 0.187500 0.000000 0.062500
v 0.187500 0.125000 0.062500
v 0.187500 0.562500 0.062500
v 0.187500 0.750000 0.062500
v 0.187500 0.000000 0.125000
v 0.187500 0.125000 0.125000
v 0.187500 0.562500 0.125000
v 0.187500 0.750000 0.125000
v 0.187500 0.000000 0.187500
v 0.187500 0.125000 0.187500
v 0.187500 0.562500 0.187500
v 0.187500 0.750000 0.187500
v 0.187500 0.000000 0.250000
v 0.187500 0.187500 0.187500
v 0.187500 0.250000 0.187500
v 0.187500 0.312500 0.187500
v 0.187500 0.375000 0.187500
v 0.187500 0.437500 0.187500
v 0.187500 0.500000 0.187500
v 0.187500 0.750000 0.250000
v 0.187500 0.000000 0.312500
v 0.187500 0.062500 0.312500
v 0.187500 0.125000 0.312500
v 0.187500 0.187500 0.312500
v 0.187500 0.250000 0.312500
v 0.187500 0.312500 0.312500
v 0.187500 0.375000 0.312500
v 0.187500 0.437500 0.312500
v 0.187500 0.500000 0.312500
v 0.187500 0.562500 0.312500
v 0.187500 0.625000 0.312500
v 0.187500 0.687500 0.312500
v 0.187500 0.750000 0.312500
v 0.250000 0.062500 -0.312500
v 0.250000 0.000000 -0.312500
v 0.250000 0.000000 -0.250000
v 0.250000 0.125000 -0.312500
v 0.250000 0.187500 -0.312500
v 0.250000 0.250000 -0.312500
v 0.250000 0.312500 -0.312500
v 0.250000 0.375000 -0.312500
v 0.250000 0.437500 -0.312500
v 0.250000 0.500000 -0.312500
v 0.250000 0.562500 -0.312500
v 0.250000 0.625000 -0.312500
v 0.250000 0.687500 -0.312500
v 0.250000 0.750000 -0.312500
v 0.250000 0.750000 -0.250000
v 0.250000 0.000000 -0.187500
v 0.250000 0.125000 -0.187500
v 0.250000 0.187500 -0.187500
v 0.250000 0.250000 -0.187500
v 0.250000 0.312500 -0.187500
v 0.250000 0.375000 -0.187500
v 0.250000 0.437500 -0.187500
v 0.250000 0.500000 -0.187500
v 0.250000 0.562500 -0.187500
v 0.250000 0.750000 -0.187500
v 0.250000 0.000000 -0.125000
v 0.250000 0.125000 -0.125000
v 0.250000 0.562500 -0.125000
v 0.250000 0.750000 -0.125000
v 0.250000 0.000000 -0.062500
v 0.250000 0.125000 -0.062500
v 0.250000 0.562500 -0.062500
v 0.250000 0.750000 -0.062500
v 0.250000 0.000000 0.000000
v 0.250000 0.125000 0.000000
v 0.250000 0.562500 0.000000
v 0.250000 0.750000 0.000000
v 0.250000 0.000000 0.062500
v 0.250000 0.125000 0.062500
v 0.250000 0.562500 0.062500
v 0.250000 0.750000 0.062500
v 0.250000 0.000000 0.125000
v 0.250000 0.125000 0.125000
v 0.250000 0.562500 0.125000
v 0.250000 0.750000 0.125000
v 0.250000 0.000000 0.187500
v 0.250000 0.125000 0.187500
v 0.250000 0.562500 0.187500
v 0.250000 0.750000 0.187500
v 0.250000 0.000000 0.250000
v 0.250000 0.187500 0.187500
v 0.250000 0.250000 0.187500
v 0.250000 0.312500 0.187500
v 0.250000 0.375000 0.187500
v 0.250000 0.437500 0.187500
v 0.250000 0.500000 0.187500
v 0.250000 0.750000 0.250000
v 0.250000 0.000000 0.312500
v 0.250000 0.062500 0.312500
v 0.250000 0.125000 0.312500
v 0.250000 0.187500 0.312500
v 0.250000 0.250000 0.312500
v 0.250000 0.312500 0.312500
v 0.250000 0.375000 0.312500
v 0.250000 0.437500 0.312500
v 0.250000 0.500000 0.312500
v 0.250000 0.562500 0.312500
v 0.250000 0.625000 0.312500
v 0.250000 0.687500 0.312500
v 0.250000 0.750000 0.312500
v 0.312500 0.062500 -0.312500
v 0.312500 0.000000 -0.312500
v 0.312500 0.000000 -0.250000
v 0.312500 0.125000 -0.312500
v 0.312500 0.187500 -0.312500
v 0.312500 0.250000 -0.312500
v 0.312500 0.312500 -0.312500
v 0.312500 0.375000 -0.312500
v 0.312500 0.437500 -0.312500
v 0.312500 0.500000 -0.312500
v 0.312500 0.562500 -0.312500
v 0.312500 0.625000 -0.312500
v 0.312500 0.687500 -0.312500
v 0.312500 0.750000 -0.312500
v 0.312500 0.750000 -0.250000
v 0.312500 0.000000 -0.187500
v 0.312500 0.125000 -0.187500
v 0.312500 0.187500 -0.187500
v 0.312500 0.250000 -0.187500
v 0.312500 0.312500 -0.187500
v 0.312500 0.375000 -0.187500
v 0.312500 0.437500 -0.187500
v 0.312500 0.500000 -0.187500
v 0.312500 0.562500 -0.187500
v 0.312500 0.750000 -0.187500
v 0.312500 0.000000 -0.125000
v 0.312500 0.125000 -0.125000
v 0.312500 0.562500 -0.125000
v 0.312500 0.750000 -0.125000
v 0.312500 0.000000 -0.062500
v 0.312500 0.125000 -0.062500
v 0.312500 0.562500 -0.062500
v 0.312500 0.750000 -0.062500
v 0.312500 0.000000 0.000000
v 0.312500 0.125000 0.000000
v 0.312500 0.562500 0.000000
v 0.312500 0.750000 0.000000
v 0.312500 0.000000 0.062500
v 0.312500 0.125000 0.062500
v 0.312500 0.562500 0.062500
v 0.312500 0.750000 0.062500
v 0.312500 0.000000 0.125000
v 0.312500 0.125000 0.125000
v 0.312500 0.562500 0.125000
v 0.312500 0.750000 0.125000
v 0.312500 0.000000 0.187500
v 0.312500 0.125000 0.187500
v 0.312500 0.562500 0.187500
v 0.312500 0.750000 0.187500
v 0.312500 0.000000 0.250000
v 0.312500 0.187500 0.187500
v 0.312500 0.250000 0.187500
v 0.312500 0.312500 0.187500
v 0.312500 0.375000 0.187500
v 0.312500 0.437500 0.187500
v 0.312500 0.500000 0.187500
v 0.312500 0.750000 0.250000
v 0.312500 0.000000 0.312500
v 0.312500 0.062500 0.312500
v 0.312500 0.125000 0.312500
v 0.312500 0.187500 0.312500
v 0.312500 0.250000 0.312500
v 0.312500 0.312500 0.312500
v 0.312500 0.375000 0.312500
v 0.312500 0.437500 0.312500
v 0.312500 0.500000 0.312500
v 0.312500 0.562500 0.312500
v 0.312500 0.625000 0.312500
v 0.312500 0.687500 0.312500
v 0.312500 0.750000 0.312500
v 0.375000 0.062500 -0.312500
v 0.375000 0.000000 -0.312500
v 0.375000 0.000000 -0.250000
v 0.375000 0.125000 -0.312500
v 0.375000 0.187500 -0.312500
v 0.375000 0.250000 -0.312500
v 0.375000 0.312500 -0.312500
v 0.375000 0.375000 -0.312500
v 0.375000 0.437500 -0.312500
v 0.375000 0.500000 -0.312500
v 0.375000 0.562500 -0.312500
v 0.375000 0.625000 -0.312500
v 0.375000 0.687500 -0.312500
v 0.375000 0.750000 -0.312500
v 0.375000 0.750000 -0.250000
v 0.375000 0.000000 -0.187500
v 0.375000 0.750000 -0.187500
v 0.375000 0.000000 -0.125000
v 0.312500 0.187500 -0.125000
v 0.312500 0.250000 -0.125000
v 0.312500 0.312500 -0.125000
v 0.312500 0.375000 -0.125000
v 0.312500 0.437500 -0.125000
v 0.312500 0.500000 -0.125000
v 0.375000 0.750000 -0.125000
v 0.375000 0.000000 -0.062500
v 0.312500 0.187500 -0.062500
v 0.312500 0.250000 -0.062500
v 0.312500 0.312500 -0.062500
v 0.312500 0.375000 -0.062500
v 0.312500 0.437500 -0.062500
v 0.312500 0.500000 -0.062500
v 0.375000 0.750000 -0.062500
v 0.375000 0.000000 0.000000
v 0.312500 0.187500 0.000000
v 0.312500 0.250000 0.000000
v 0.312500 0.312500 0.000000
v 0.312500 0.375000 0.000000
v 0.312500 0.437500 0.000000
v 0.312500 0.500000 0.000000
v 0.375000 0.750000 0.000000
v 0.375000 0.000000 0.062500
v 0.312500 0.187500 0.062500
v 0.312500 0.250000 0.062500
v 0.312500 0.312500 0.062500
v 0.312500 0.375000 0.062500
v 0.312500 0.437500 0.062500
v 0.312500 0.500000 0.062500
v 0.375000 0.750000 0.062500
v 0.375000 0.000000 0.125000
v 0.312500 0.187500 0.125000
v 0.312500 0.250000 0.125000
v 0.312500 0.312500 0.125000
v 0.312500 0.375000 0.125000
v 0.312500 0.437500 0.125000
v 0.312500 0.500000 0.125000
v 0.375000 0.750000 0.125000
v 0.375000 0.000000 0.187500
v 0.375000 0.750000 0.187500
v 0.375000 0.000000 0.250000
v 0.375000 0.750000 0.250000
v 0.375000 0.000000 0.312500
v 0.375000 0.062500 0.312500
v 0.375000 0.125000 0.312500
v 0.375000 0.187500 0.312500
v 0.375000 0.250000 0.312500
v 0.375000 0.312500 0.312500
v 0.375000 0.375000 0.312500
v 0.375000 0.437500 0.312500
v 0.375000 0.500000 0.312500
v 0.375000 0.562500 0.312500
v 0.375000 0.625000 0.312500
v 0.375000 0.687500 0.312500
v 0.375000 0.750000 0.312500
v 0.437500 0.062500 -0.312500
v 0.437500 0.062500 -0.250000
v 0.437500 0.000000 -0.250000
v 0.437500 0.000000 -0.312500
v 0.437500 0.125000 -0.312500
v 0.437500 0.125000 -0.250000
v 0.437500 0.187500 -0.312500
v 0.437500 0.187500 -0.250000
v 0.437500 0.250000 -0.312500
v 0.437500 0.250000 -0.250000
v 0.437500 0.312500 -0.312500
v 0.437500 0.312500 -0.250000
v 0.437500 0.375000 -0.312500
v 0.437500 0.375000 -0.250000
v 0.437500 0.437500 -0.312500
v 0.437500 0.437500 -0.250000
v 0.437500 0.500000 -0.312500
v 0.437500 0.500000 -0.250000
v 0.437500 0.562500 -0.312500
v 0.437500 0.562500 -0.250000
v 0.437500 0.625000 -0.312500
v 0.437500 0.625000 -0.250000
v 0.437500 0.687500 -0.312500
v 0.437500 0.687500 -0.250000
v 0.437500 0.750000 -0.312500
v 0.437500 0.750000 -0.250000
v 0.437500 0.062500 -0.187500
v 0.437500 0.000000 -0.187500
v 0.437500 0.125000 -0.187500
v 0.437500 0.187500 -0.187500
v 0.437500 0.250000 -0.187500
v 0.437500 0.312500 -0.187500
v 0.437500 0.375000 -0.187500
v 0.437500 0.437500 -0.187500
v 0.437500 0.500000 -0.187500
v 0.437500 0.562500 -0.187500
v 0.437500 0.625000 -0.187500
v 0.437500 0.687500 -0.187500
v 0.437500 0.750000 -0.187500
v 0.437500 0.062500 -0.125000
v 0.437500 0.000000 -0.125000
v 0.437500 0.125000 -0.125000
v 0.437500 0.187500 -0.125000
v 0.437500 0.250000 -0.125000
v 0.437500 0.312500 -0.125000
v 0.437500 0.375000 -0.125000
v 0.437500 0.437500 -0.125000
v 0.437500 0.500000 -0.125000
v 0.437500 0.562500 -0.125000
v 0.437500 0.625000 -0.125000
v 0.437500 0.687500 -0.125000
v 0.437500 0.750000 -0.125000
v 0.437500 0.062500 -0.062500
v 0.437500 0.000000 -0.062500
v 0.437500 0.125000 -0.062500
v 0.437500 0.187500 -0.062500
v 0.437500 0.250000 -0.062500
v 0.437500 0.312500 -0.062500
v 0.437500 0.375000 -0.062500
v 0.437500 0.437500 -0.062500
v 0.437500 0.500000 -0.062500
v 0.437500 0.562500 -0.062500
v 0.437500 0.625000 -0.062500
v 0.437500 0.687500 -0.062500
v 0.437500 0.750000 -0.062500
v 0.437500 0.062500 0.000000
v 0.437500 0.000000 0.000000
v 0.437500 0.125000 0.000000
v 0.437500 0.187500 0.000000
v 0.437500 0.250000 0.000000
v 0.437500 0.312500 0.000000
v 0.437500 0.375000 0.000000
v 0.437500 0.437500 0.000000
v 0.437500 0.500000 0.000000
v 0.437500 0.562500 0.000000
v 0.437500 0.625000 0.000000
v 0.437500 0.687500 0.000000
v 0.437500 0.750000 0.000000
v 0.437500 0.062500 0.062500
v 0.437500 0.000000 0.062500
v 0.437500 0.125000 0.062500
v 0.437500 0.187500 0.062500
v 0.437500 0.250000 0.062500
v 0.437500 0.312500 0.062500
v 0.437500 0.375000 0.062500
v 0.437500 0.437500 0.062500
v 0.437500 0.500000 0.062500
v 0.437500 0.562500 0.062500
v 0.437500 0.625000 0.062500
v 0.437500 0.687500 0.062500
v 0.437500 0.750000 0.062500
v 0.437500 0.062500 0.125000
v 0.437500 0.000000 0.125000
v 0.437500 0.125000 0.125000
v 0.437500 0.187500 0.125000
v 0.437500 0.250000 0.125000
v 0.437500 0.312500 0.125000
v 0.437500 0.375000 0.125000
v 0.437500 0.437500 0.125000
v 0.437500 0.500000 0.125000
v 0.437500 0.562500 0.125000
v 0.437500 0.625000 0.125000
v 0.437500 0.687500 0.125000
v 0.437500 0.750000 0.125000
v 0.437500 0.062500 0.187500
v 0.437500 0.000000 0.187500
v 0.437500 0.125000 0.187500
v 0.437500 0.187500 0.187500
v 0.437500 0.250000 0.187500
v 0.437500 0.312500 0.187500
v 0.437500 0.375000 0.187500
v 0.437500 0.437500 0.187500
v 0.437500 0.500000 0.187500
v 0.437500 0.562500 0.187500
v 0.437500 0.625000 0.187500
v 0.437500 0.687500 0.187500
v 0.437500 0.750000 0.187500
v 0.437500 0.062500 0.250000
v 0.437500 0.000000 0.250000
v 0.437500 0.125000 0.250000
v 0.437500 0.187500 0.250000
v 0.437500 0.250000 0.250000
v 0.437500 0.312500 0.250000
v 0.437500 0.375000 0.250000
v 0.437500 0.437500 0.250000
v 0.437500 0.500000 0.250000
v 0.437500 0.562500 0.250000
v 0.437500 0.625000 0.250000
v 0.437500 0.687500 0.250000
v 0.437500 0.750000 0.250000
v 0.437500 0.062500 0.312500
v 0.437500 0.000000 0.312500
v 0.437500 0.125000 0.312500
v 0.437500 0.187500 0.312500
v 0.437500 0.250000 0.312500
v 0.437500 0.312500 0.312500
v 0.437500 0.375000 0.312500
v 0.437500 0.437500 0.312500
v 0.437500 0.500000 0.312500
v 0.437500 0.562500 0.312500
v 0.437500 0.625000 0.312500
v 0.437500 0.687500 0.312500
v 0.437500 0.750000 0.312500
vt 0.03125000 0.96875000
vt 0.09375000 0.96875000
vt 0.15625000 0.96875000
vt 0.21875000 0.96875000
vt 0.28125000 0.96875000
vt 0.34375000 0.96875000
vt 0.40625000 0.96875000
vt 0.46875000 0.96875000
vt 0.53125000 0.96875000
vt 0.59375000 0.96875000
vt 0.65625000 0.96875000
vt 0.71875000 0.96875000
vt 0.78125000 0.96875000
vt 0.84375000 0.96875000
vt 0.90625000 0.96875000
vt 0.96875000 0.96875000
vt 0.03125000 0.90625000
vt 0.09375000 0.90625000
vt 0.15625000 0.90625000
vt 0.21875000 0.90625000
vt 0.28125000 0.90625000
vt 0.34375000 0.90625000
vt 0.40625000 0.90625000
vt 0.46875000 0.90625000
vt 0.53125000 0.90625000
vt 0.59375000 0.90625000
vt 0.65625000 0.90625000
vt 0.71875000 0.90625000
vt 0.78125000 0.90625000
vt 0.84375000 0.90625000
vt 0.90625000 0.90625000
vt 0.96875000 0.90625000
vt 0.03125000 0.84375000
vt 0.09375000 0.84375000
vt 0.15625000 0.84375000
vt 0.21875000 0.84375000
vt 0.28125000 0.84375000
vt 0.34375000 0.84375000
vt 0.40625000 0.84375000
vt 0.46875000 0.84375000
vt 0.53125000 0.84375000
vt 0.59375000 0.84375000
vt 0.65625000 0.84375000
vt 0.71875000 0.84375000
vt 0.78125000 0.84375000
vt 0.84375000 0.84375000
vt 0.90625000 0.84375000
vt 0.96875000 0.84375000
vt 0.03125000 0.78125000
vt 0.09375000 0.78125000
vt 0.15625000 0.78125000
vt 0.21875000 0.78125000
vt 0.28125000 0.78125000
vt 0.34375000 0.78125000
vt 0.40625000 0.78125000
vt 0.46875000 0.78125000
vt 0.53125000 0.78125000
vt 0.59375000 0.78125000
vt 0.65625000 0.78125000
vt 0.71875000 0.78125000
vt 0.78125000 0.78125000
vt 0.84375000 0.78125000
vt 0.90625000 0.78125000
vt 0.96875000 0.78125000
vt 0.03125000 0.71875000
vt 0.09375000 0.71875000
vt 0.15625000 0.71875000
vt 0.21875000 0.71875000
vt 0.28125000 0.71875000
vt 0.34375000 0.71875000
vt 0.40625000 0.71875000
vt 0.46875000 0.71875000
vt 0.53125000 0.71875000
vt 0.59375000 0.71875000
vt 0.65625000 0.71875000
vt 0.71875000 0.71875000
vt 0.78125000 0.71875000
vt 0.84375000 0.71875000
vt 0.90625000 0.71875000
vt 0.96875000 0.71875000
vt 0.03125000 0.65625000
vt 0.09375000 0.65625000
vt 0.15625000 0.65625000
vt 0.21875000 0.65625000
vt 0.28125000 0.65625000
vt 0.34375000 0.65625000
vt 0.40625000 0.65625000
vt 0.46875000 0.65625000
vt 0.53125000 0.65625000
vt 0.59375000 0.65625000
vt 0.65625000 0.65625000
vt 0.71875000 0.65625000
vt 0.78125000 0.65625000
vt 0.84375000 0.65625000
vt 0.90625000 0.65625000
vt 0.96875000 0.65625000
vt 0.03125000 0.59375000
vt 0.09375000 0.59375000
vt 0.15625000 0.59375000
vt 0.21875000 0.59375000
vt 0.28125000 0.59375000
vt 0.34375000 0.59375000
vt 0.40625000 0.59375000
vt 0.46875000 0.59375000
vt 0.53125000 0.59375000
vt 0.59375000 0.59375000
vt 0.65625000 0.59375000
vt 0.71875000 0.59375000
vt 0.78125000 0.59375000
vt 0.84375000 0.59375000
vt 0.90625000 0.59375000
vt 0.96875000 0.59375000
vt 0.03125000 0.53125000
vt 0.09375000 0.53125000
vt 0.15625000 0.53125000
vt 0.21875000 0.53125000
vt 0.28125000 0.53125000
vt 0.34375000 0.53125000
vt 0.40625000 0.53125000
vt 0.46875000 0.53125000
vt 0.53125000 0.53125000
vt 0.59375000 0.53125000
vt 0.65625000 0.53125000
vt 0.71875000 0.53125000
vt 0.78125000 0.53125000
vt 0.84375000 0.53125000
vt 0.90625000 0.53125000
vt 0.96875000 0.53125000
vt 0.03125000 0.46875000
vt 0.09375000 0.46875000
vt 0.15625000 0.46875000
vt 0.21875000 0.46875000
vt 0.28125000 0.46875000
vt 0.34375000 0.46875000
vt 0.40625000 0.46875000
vt 0.46875000 0.46875000
vt 0.53125000 0.46875000
vt 0.59375000 0.46875000
vt 0.65625000 0.46875000
vt 0.71875000 0.46875000
vt 0.78125000 0.46875000
vt 0.84375000 0.46875000
vt 0.90625000 0.46875000
vt 0.96875000 0.46875000
vt 0.03125000 0.40625000
vt 0.09375000 0.40625000
vt 0.15625000 0.40625000
vt 0.21875000 0.40625000
vt 0.28125000 0.40625000
vt 0.34375000 0.40625000
vt 0.40625000 0.40625000
vt 0.46875000 0.40625000
vt 0.53125000 0.40625000
vt 0.59375000 0.40625000
vt 0.65625000 0.40625000
vt 0.71875000 0.40625000
vt 0.78125000 0.40625000
vt 0.84375000 0.40625000
vt 0.90625000 0.40625000
vt 0.96875000 0.40625000
vt 0.03125000 0.34375000
vt 0.09375000 0.34375000
vt 0.15625000 0.34375000
vt 0.21875000 0.34375000
vt 0.28125000 0.34375000
vt 0.34375000 0.34375000
vt 0.40625000 0.34375000
vt 0.46875000 0.34375000
vt 0.53125000 0.34375000
vt 0.59375000 0.34375000
vt 0.65625000 0.34375000
vt 0.71875000 0.34375000
vt 0.78125000 0.34375000
vt 0.84375000 0.34375000
vt 0.90625000 0.34375000
vt 0.96875000 0.34375000
vt 0.03125000 0.28125000
vt 0.09375000 0.28125000
vt 0.15625000 0.28125000
vt 0.21875000 0.28125000
vt 0.28125000 0.28125000
vt 0.34375000 0.28125000
vt 0.40625000 0.28125000
vt 0.46875000 0.28125000
vt 0.53125000 0.28125000
vt 0.59375000 0.28125000
vt 0.65625000 0.28125000
vt 0.71875000 0.28125000
vt 0.78125000 0.28125000
vt 0.84375000 0.28125000
vt 0.90625000 0.28125000
vt 0.96875000 0.28125000
vt 0.03125000 0.21875000
vt 0.09375000 0.21875000
vt 0.15625000 0.21875000
vt 0.21875000 0.21875000
vt 0.28125000 0.21875000
vt 0.34375000 0.21875000
vt 0.40625000 0.21875000
vt 0.46875000 0.21875000
vt 0.53125000 0.21875000
vt 0.59375000 0.21875000
vt 0.65625000 0.21875000
vt 0.71875000 0.21875000
vt 0.78125000 0.21875000
vt 0.84375000 0.21875000
vt 0.90625000 0.21875000
vt 0.96875000 0.21875000
vt 0.03125000 0.15625000
vt 0.09375000 0.15625000
vt 0.15625000 0.15625000
vt 0.21875000 0.15625000
vt 0.28125000 0.15625000
vt 0.34375000 0.15625000
vt 0.40625000 0.15625000
vt 0.46875000 0.15625000
vt 0.53125000 0.15625000
vt 0.59375000 0.15625000
vt 0.65625000 0.15625000
vt 0.71875000 0.15625000
vt 0.78125000 0.15625000
vt 0.84375000 0.15625000
vt 0.90625000 0.15625000
vt 0.96875000 0.15625000
vt 0.03125000 0.09375000
vt 0.09375000 0.09375000
vt 0.15625000 0.09375000
vt 0.21875000 0.09375000
vt 0.28125000 0.09375000
vt 0.34375000 0.09375000
vt 0.40625000 0.09375000
vt 0.46875000 0.09375000
vt 0.53125000 0.09375000
vt 0.59375000 0.09375000
vt 0.65625000 0.09375000
vt 0.71875000 0.09375000
vt 0.78125000 0.09375000
vt 0.84375000 0.09375000
vt 0.90625000 0.09375000
vt 0.96875000 0.09375000
vt 0.03125000 0.03125000
vt 0.09375000 0.03125000
vt 0.15625000 0.03125000
vt 0.21875000 0.03125000
vt 0.28125000 0.03125000
vt 0.34375000 0.03125000
vt 0.40625000 0.03125000
vt 0.46875000 0.03125000
vt 0.53125000 0.03125000
vt 0.59375000 0.03125000
vt 0.65625000 0.03125000
vt 0.71875000 0.03125000
vt 0.78125000 0.03125000
vt 0.84375000 0.03125000
vt 0.90625000 0.03125000
vt 0.96875000 0.03125000
vn -1 0 0
vn 1 0 0
vn 0 0 -1
vn 0 0 1
vn 0 -1 0
vn 0 1 0
g palette
usemtl palette
f 1/37/1 2/37/1 3/37/1 4/37/1
f 3/37/3 5/37/3 6/37/3 4/37/3
f 6/37/5 7/37/5 1/37/5 4/37/5
f 2/37/1 8/37/1 9/37/1 3/37/1
f 9/37/3 10/37/3 5/37/3 3/37/3
f 8/37/1 11/37/1 12/37/1 9/37/1
f 12/37/3 13/37/3 10/37/3 9/37/3
f 11/37/1 14/37/1 15/37/1 12/37/1
f 15/37/3 16/37/3 13/37/3 12/37/3
f 14/37/1 17/37/1 18/37/1 15/37/1
f 18/37/3 19/37/3 16/37/3 15/37/3
f 17/37/1 20/37/1 21/37/1 18/37/1
f 21/37/3 22/37/3 19/37/3 18/37/3
f 20/37/1 23/37/1 24/37/1 21/37/1
f 24/37/3 25/37/3 22/37/3 21/37/3
f 23/37/1 26/37/1 27/37/1 24/37/1
f 27/37/3 28/37/3 25/37/3 24/37/3
f 26/37/1 29/37/1 30/37/1 27/37/1
f 30/37/3 31/37/3 28/37/3 27/37/3
f 29/38/1 32/38/1 33/38/1 30/38/1
f 33/38/3 34/38/3 31/38/3 30/38/3
f 32/38/1 35/38/1 36/38/1 33/38/1
f 36/38/3 37/38/3 34/38/3 33/38/3
f 35/38/1 38/38/1 39/38/1 36/38/1
f 39/38/3 40/38/3 37/38/3 36/38/3
f 38/38/6 41/38/6 40/38/6 39/38/6
f 42/37/1 43/37/1 2/37/1 1/37/1
f 7/37/5 44/37/5 42/37/5 1/37/5
f 43/37/1 45/37/1 8/37/1 2/37/1
f 45/37/1 46/37/1 11/37/1 8/37/1
f 46/37/1 47/37/1 14/37/1 11/37/1
f 47/37/1 48/37/1 17/37/1 14/37/1
f 48/37/1 49/37/1 20/37/1 17/37/1
f 49/37/1 50/37/1 23/37/1 20/37/1
f 50/37/1 51/37/1 26/37/1 23/37/1
f 51/37/1 52/37/1 29/37/1 26/37/1
f 52/38/1 53/38/1 32/38/1 29/38/1
f 53/38/1 54/38/1 35/38/1 32/38/1
f 54/38/1 55/38/1 38/38/1 35/38/1
f 55/38/6 56/38/6 41/38/6 38/38/6
f 57/37/1 58/37/1 43/37/1 42/37/1
f 44/37/5 59/37/5 57/37/5 42/37/5
f 58/37/1 60/37/1 45/37/1 43/37/1
f 60/37/1 61/37/1 46/37/1 45/37/1
f 61/37/1 62/37/1 47/37/1 46/37/1
f 62/37/1 63/37/1 48/37/1 47/37/1
f 63/37/1 64/37/1 49/37/1 48/37/1
f 64/37/1 65/37/1 50/37/1 49/37/1
f 65/37/1 66/37/1 51/37/1 50/37/1
f 66/37/1 67/37/1 52/37/1 51/37/1
f 67/38/1 68/38/1 53/38/1 52/38/1
f 68/38/1 69/38/1 54/38/1 53/38/1
f 69/38/1 70/38/1 55/38/1 54/38/1
f 70/38/6 71/38/6 56/38/6 55/38/6
f 72/37/1 73/37/1 58/37/1 57/37/1
f 59/37/5 74/37/5 72/37/5 57/37/5
f 73/37/1 75/37/1 60/37/1 58/37/1
f 75/37/1 76/37/1 61/37/1 60/37/1
f 76/37/1 77/37/1 62/37/1 61/37/1
f 77/37/1 78/37/1 63/37/1 62/37/1
f 78/37/1 79/37/1 64/37/1 63/37/1
f 79/37/1 80/37/1 65/37/1 64/37/1
f 80/37/1 81/37/1 66/37/1 65/37/1
f 81/37/1 82/37/1 67/37/1 66/37/1
f 82/38/1 83/38/1 68/38/1 67/38/1
f 83/38/1 84/38/1 69/38/1 68/38/1
f 84/38/1 85/38/1 70/38/1 69/38/1
f 85/38/6 86/38/6 71/38/6 70/38/6
f 87/37/1 88/37/1 73/37/1 72/37/1
f 74/37/5 89/37/5 87/37/5 72/37/5
f 88/37/1 90/37/1 75/37/1 73/37/1
f 90/37/1 91/37/1 76/37/1 75/37/1
f 91/38/1 92/38/1 77/38/1 76/38/1
f 92/37/1 93/37/1 78/37/1 77/37/1
f 93/37/1 94/37/1 79/37/1 78/37/1
f 94/37/1 95/37/1 80/37/1 79/37/1
f 95/37/1 96/37/1 81/37/1 80/37/1
f 96/37/1 97/37/1 82/37/1 81/37/1
f 97/38/1 98/38/1 83/38/1 82/38/1
f 98/38/1 99/38/1 84/38/1 83/38/1
f 99/38/1 100/38/1 85/38/1 84/38/1
f 100/38/6 101/38/6 86/38/6 85/38/6
f 102/37/1 103/37/1 88/37/1 87/37/1
f 89/37/5 104/37/5 102/37/5 87/37/5
f 103/37/1 105/37/1 90/37/1 88/37/1
f 105/37/1 106/37/1 91/37/1 90/37/1
f 106/37/1 107/37/1 92/37/1 91/37/1
f 107/37/1 108/37/1 93/37/1 92/37/1
f 108/37/1 109/37/1 94/37/1 93/37/1
f 109/37/1 110/37/1 95/37/1 94/37/1
f 110/37/1 111/37/1 96/37/1 95/37/1
f 111/37/1 112/37/1 97/37/1 96/37/1
f 112/38/1 113/38/1 98/38/1 97/38/1
f 113/38/1 114/38/1 99/38/1 98/38/1
f 114/38/1 115/38/1 100/38/1 99/38/1
f 115/38/6 116/38/6 101/38/6 100/38/6
f 117/37/1 118/37/1 103/37/1 102/37/1
f 104/37/5 119/37/5 117/37/5 102/37/5
f 118/37/1 120/37/1 105/37/1 103/37/1
f 120/37/1 121/37/1 106/37/1 105/37/1
f 121/37/1 122/37/1 107/37/1 106/37/1
f 122/37/1 123/37/1 108/37/1 107/37/1
f 123/37/1 124/37/1 109/37/1 108/37/1
f 124/37/1 125/37/1 110/37/1 109/37/1
f 125/37/1 126/37/1 111/37/1 110/37/1
f 126/37/1 127/37/1 112/37/1 111/37/1
f 127/38/1 128/38/1 113/38/1 112/38/1
f 128/38/1 129/38/1 114/38/1 113/38/1
f 129/38/1 130/38/1 115/38/1 114/38/1
f 130/38/6 131/38/6 116/38/6 115/38/6
f 132/37/1 133/37/1 118/37/1 117/37/1
f 119/37/5 134/37/5 132/37/5 117/37/5
f 133/37/1 135/37/1 120/37/1 118/37/1
f 135/37/1 136/37/1 121/37/1 120/37/1
f 136/37/1 137/37/1 122/37/1 121/37/1
f 137/37/1 138/37/1 123/37/1 122/37/1
f 138/37/1 139/37/1 124/37/1 123/37/1
f 139/37/1 140/37/1 125/37/1 124/37/1
f 140/37/1 141/37/1 126/37/1 125/37/1
f 141/37/1 142/37/1 127/37/1 126/37/1
f 142/38/1 143/38/1 128/38/1 127/38/1
f 143/38/1 144/38/1 129/38/1 128/38/1
f 144/38/1 145/38/1 130/38/1 129/38/1
f 145/38/6 146/38/6 131/38/6 130/38/6
f 147/37/1 148/37/1 133/37/1 132/37/1
f 134/37/5 149/37/5 147/37/5 132/37/5
f 148/37/1 150/37/1 135/37/1 133/37/1
f 150/37/1 151/37/1 136/37/1 135/37/1
f 151/37/1 152/37/1 137/37/1 136/37/1
f 152/37/1 153/37/1 138/37/1 137/37/1
f 153/37/1 154/37/1 139/37/1 138/37/1
f 154/37/1 155/37/1 140/37/1 139/37/1
f 155/37/1 156/37/1 141/37/1 140/37/1
f 156/37/1 157/37/1 142/37/1 141/37/1
f 157/38/1 158/38/1 143/38/1 142/38/1
f 158/38/1 159/38/1 144/38/1 143/38/1
f 159/38/1 160/38/1 145/38/1 144/38/1
f 160/38/6 161/38/6 146/38/6 145/38/6
f 162/37/1 163/37/1 148/37/1 147/37/1
f 164/37/4 165/37/4 163/37/4 162/37/4
f 149/37/5 164/37/5 162/37/5 147/37/5
f 163/37/1 166/37/1 150/37/1 148/37/1
f 165/37/4 167/37/4 166/37/4 163/37/4
f 166/37/1 168/37/1 151/37/1 150/37/1
f 167/37/4 169/37/4 168/37/4 166/37/4
f 168/37/1 170/37/1 152/37/1 151/37/1
f 169/37/4 171/37/4 170/37/4 168/37/4
f 170/37/1 172/37/1 153/37/1 152/37/1
f 171/37/4 173/37/4 172/37/4 170/37/4
f 172/37/1 174/37/1 154/37/1 153/37/1
f 173/37/4 175/37/4 174/37/4 172/37/4
f 174/37/1 176/37/1 155/37/1 154/37/1
f 175/37/4 177/37/4 176/37/4 174/37/4
f 176/37/1 178/37/1 156/37/1 155/37/1
f 177/37/4 179/37/4 178/37/4 176/37/4
f 178/37/1 180/37/1 157/37/1 156/37/1
f 179/37/4 181/37/4 180/37/4 178/37/4
f 180/38/1 182/38/1 158/38/1 157/38/1
f 181/38/4 183/38/4 182/38/4 180/38/4
f 182/38/1 184/38/1 159/38/1 158/38/1
f 183/38/4 185/38/4 184/38/4 182/38/4
f 184/38/1 186/38/1 160/38/1 159/38/1
f 185/38/4 187/38/4 186/38/4 184/38/4
f 186/38/6 187/38/6 161/38/6 160/38/6
f 5/37/3 188/37/3 189/37/3 6/37/3
f 189/37/5 190/37/5 7/37/5 6/37/5
f 10/37/3 191/37/3 188/37/3 5/37/3
f 13/37/3 192/37/3 191/37/3 10/37/3
f 16/37/3 193/37/3 192/37/3 13/37/3
f 19/37/3 194/37/3 193/37/3 16/37/3
f 22/37/3 195/37/3 194/37/3 19/37/3
f 25/37/3 196/37/3 195/37/3 22/37/3
f 28/37/3 197/37/3 196/37/3 25/37/3
f 31/37/3 198/37/3 197/37/3 28/37/3
f 34/38/3 199/38/3 198/38/3 31/38/3
f 37/38/3 200/38/3 199/38/3 34/38/3
f 40/38/3 201/38/3 200/38/3 37/38/3
f 41/38/6 202/38/6 201/38/6 40/38/6
f 190/37/5 203/37/5 44/37/5 7/37/5
f 56/38/6 204/38/6 202/38/6 41/38/6
f 203/37/5 205/37/5 59/37/5 44/37/5
f 206/37/2 207/37/2 208/37/2 209/37/2
f 210/37/2 211/37/2 207/37/2 206/37/2
f 212/37/2 213/37/2 211/37/2 210/37/2
f 214/37/2 215/37/2 213/37/2 212/37/2
f 216/37/2 217/37/2 215/37/2 214/37/2
f 218/37/2 219/37/2 217/37/2 216/37/2
f 220/37/2 221/37/2 219/37/2 218/37/2
f 71/38/6 222/38/6 204/38/6 56/38/6
f 205/37/5 223/37/5 74/37/5 59/37/5
f 207/37/2 224/37/2 225/37/2 208/37/2
f 211/37/2 226/37/2 224/37/2 207/37/2
f 213/37/2 227/37/2 226/37/2 211/37/2
f 215/37/2 228/37/2 227/37/2 213/37/2
f 217/37/2 229/37/2 228/37/2 215/37/2
f 219/37/2 230/37/2 229/37/2 217/37/2
f 221/37/2 231/37/2 230/37/2 219/37/2
f 86/38/6 232/38/6 222/38/6 71/38/6
f 223/37/5 233/37/5 89/37/5 74/37/5
f 224/37/2 234/37/2 235/37/2 225/37/2
f 226/37/2 236/37/2 234/37/2 224/37/2
f 227/37/2 237/37/2 236/37/2 226/37/2
f 228/37/2 238/37/2 237/37/2 227/37/2
f 229/37/2 239/37/2 238/37/2 228/37/2
f 230/37/2 240/37/2 239/37/2 229/37/2
f 231/37/2 241/37/2 240/37/2 230/37/2
f 101/38/6 242/38/6 232/38/6 86/38/6
f 233/37/5 243/37/5 104/37/5 89/37/5
f 234/37/2 244/37/2 245/37/2 235/37/2
f 236/37/2 246/37/2 244/37/2 234/37/2
f 237/37/2 247/37/2 246/37/2 236/37/2
f 238/37/2 248/37/2 247/37/2 237/37/2
f 239/37/2 249/37/2 248/37/2 238/37/2
f 240/37/2 250/37/2 249/37/2 239/37/2
f 241/37/2 251/37/2 250/37/2 240/37/2
f 116/38/6 252/38/6 242/38/6 101/38/6
f 243/37/5 253/37/5 119/37/5 104/37/5
f 244/37/2 254/37/2 255/37/2 245/37/2
f 246/37/2 256/37/2 254/37/2 244/37/2
f 247/37/2 257/37/2 256/37/2 246/37/2
f 248/37/2 258/37/2 257/37/2 247/37/2
f 249/37/2 259/37/2 258/37/2 248/37/2
f 250/37/2 260/37/2 259/37/2 249/37/2
f 251/37/2 261/37/2 260/37/2 250/37/2
f 131/38/6 262/38/6 252/38/6 116/38/6
f 253/37/5 263/37/5 134/37/5 119/37/5
f 254/37/2 264/37/2 265/37/2 255/37/2
f 256/37/2 266/37/2 264/37/2 254/37/2
f 257/37/2 267/37/2 266/37/2 256/37/2
f 258/37/2 268/37/2 267/37/2 257/37/2
f 259/37/2 269/37/2 268/37/2 258/37/2
f 260/37/2 270/37/2 269/37/2 259/37/2
f 261/37/2 271/37/2 270/37/2 260/37/2
f 146/38/6 272/38/6 262/38/6 131/38/6
f 263/37/5 273/37/5 149/37/5 134/37/5
f 161/38/6 274/38/6 272/38/6 146/38/6
f 275/37/4 276/37/4 165/37/4 164/37/4
f 273/37/5 275/37/5 164/37/5 149/37/5
f 276/37/4 277/37/4 167/37/4 165/37/4
f 277/37/4 278/37/4 169/37/4 167/37/4
f 278/37/4 279/37/4 171/37/4 169/37/4
f 279/37/4 280/37/4 173/37/4 171/37/4
f 280/37/4 281/37/4 175/37/4 173/37/4
f 281/37/4 282/37/4 177/37/4 175/37/4
f 282/37/4 283/37/4 179/37/4 177/37/4
f 283/37/4 284/37/4 181/37/4 179/37/4
f 284/38/4 285/38/4 183/38/4 181/38/4
f 285/38/4 286/38/4 185/38/4 183/38/4
f 286/38/4 287/38/4 187/38/4 185/38/4
f 187/38/6 287/38/6 274/38/6 161/38/6
f 188/37/3 288/37/3 289/37/3 189/37/3
f 289/37/5 290/37/5 190/37/5 189/37/5
f 191/37/3 291/37/3 288/37/3 188/37/3
f 192/37/3 292/37/3 291/37/3 191/37/3
f 193/37/3 293/37/3 292/37/3 192/37/3
f 194/37/3 294/37/3 293/37/3 193/37/3
f 195/37/3 295/37/3 294/37/3 194/37/3
f 196/37/3 296/37/3 295/37/3 195/37/3
f 197/37/3 297/37/3 296/37/3 196/37/3
f 198/37/3 298/37/3 297/37/3 197/37/3
f 199/38/3 299/38/3 298/38/3 198/38/3
f 200/38/3 300/38/3 299/38/3 199/38/3
f 201/38/3 301/38/3 300/38/3 200/38/3
f 202/38/6 302/38/6 301/38/6 201/38/6
f 290/37/5 303/37/5 203/37/5 190/37/5
f 304/37/4 305/37/4 206/37/4 209/37/4
f 305/37/4 306/37/4 210/37/4 206/37/4
f 306/37/4 307/37/4 212/37/4 210/37/4
f 307/37/4 308/37/4 214/37/4 212/37/4
f 308/37/4 309/37/4 216/37/4 214/37/4
f 309/37/4 310/37/4 218/37/4 216/37/4
f 310/37/4 311/37/4 220/37/4 218/37/4
f 204/38/6 312/38/6 302/38/6 202/38/6
f 303/37/5 313/37/5 205/37/5 203/37/5
f 208/37/6 314/37/6 304/37/6 209/37/6
f 311/38/5 315/38/5 221/38/5 220/38/5
f 222/38/6 316/38/6 312/38/6 204/38/6
f 313/37/5 317/37/5 223/37/5 205/37/5
f 225/37/6 318/37/6 314/37/6 208/37/6
f 315/38/5 319/38/5 231/38/5 221/38/5
f 232/38/6 320/38/6 316/38/6 222/38/6
f 317/37/5 321/37/5 233/37/5 223/37/5
f 235/37/6 322/37/6 318/37/6 225/37/6
f 319/38/5 323/38/5 241/38/5 231/38/5
f 242/38/6 324/38/6 320/38/6 232/38/6
f 321/37/5 325/37/5 243/37/5 233/37/5
f 245/37/6 326/37/6 322/37/6 235/37/6
f 323/38/5 327/38/5 251/38/5 241/38/5
f 252/38/6 328/38/6 324/38/6 242/38/6
f 325/37/5 329/37/5 253/37/5 243/37/5
f 255/37/6 330/37/6 326/37/6 245/37/6
f 327/38/5 331/38/5 261/38/5 251/38/5
f 262/38/6 332/38/6 328/38/6 252/38/6
f 329/37/5 333/37/5 263/37/5 253/37/5
f 265/37/6 334/37/6 330/37/6 255/37/6
f 331/38/5 335/38/5 271/38/5 261/38/5
f 272/38/6 336/38/6 332/38/6 262/38/6
f 333/37/5 337/37/5 273/37/5 263/37/5
f 264/37/3 338/37/3 334/37/3 265/37/3
f 266/37/3 339/37/3 338/37/3 264/37/3
f 267/37/3 340/37/3 339/37/3 266/37/3
f 268/37/3 341/37/3 340/37/3 267/37/3
f 269/37/3 342/37/3 341/37/3 268/37/3
f 270/37/3 343/37/3 342/37/3 269/37/3
f 271/37/3 335/37/3 343/37/3 270/37/3
f 274/38/6 344/38/6 336/38/6 272/38/6
f 345/37/4 346/37/4 276/37/4 275/37/4
f 337/37/5 345/37/5 275/37/5 273/37/5
f 346/37/4 347/37/4 277/37/4 276/37/4
f 347/37/4 348/37/4 278/37/4 277/37/4
f 348/37/4 349/37/4 279/37/4 278/37/4
f 349/37/4 350/37/4 280/37/4 279/37/4
f 350/37/4 351/37/4 281/37/4 280/37/4
f 351/37/4 352/37/4 282/37/4 281/37/4
f 352/37/4 353/37/4 283/37/4 282/37/4
f 353/37/4 354/37/4 284/37/4 283/37/4
f 354/38/4 355/38/4 285/38/4 284/38/4
f 355/38/4 356/38/4 286/38/4 285/38/4
f 356/36/4 357/36/4 287/36/4 286/36/4
f 287/36/6 357/36/6 344/36/6 274/36/6
f 288/37/3 358/37/3 359/37/3 289/37/3
f 359/37/5 360/37/5 290/37/5 289/37/5
f 291/37/3 361/37/3 358/37/3 288/37/3
f 292/37/3 362/37/3 361/37/3 291/37/3
f 293/37/3 363/37/3 362/37/3 292/37/3
f 294/37/3 364/37/3 363/37/3 293/37/3
f 295/37/3 365/37/3 364/37/3 294/37/3
f 296/37/3 366/37/3 365/37/3 295/37/3
f 297/37/3 367/37/3 366/37/3 296/37/3
f 298/37/3 368/37/3 367/37/3 297/37/3
f 299/38/3 369/38/3 368/38/3 298/38/3
f 300/38/3 370/38/3 369/38/3 299/38/3
f 301/38/3 371/38/3 370/38/3 300/38/3
f 302/38/6 372/38/6 371/38/6 301/38/6
f 360/37/5 373/37/5 303/37/5 290/37/5
f 374/37/4 375/37/4 305/37/4 304/37/4
f 375/37/4 376/37/4 306/37/4 305/37/4
f 376/37/4 377/37/4 307/37/4 306/37/4
f 377/37/4 378/37/4 308/37/4 307/37/4
f 378/37/4 379/37/4 309/37/4 308/37/4
f 379/37/4 380/37/4 310/37/4 309/37/4
f 380/37/4 381/37/4 311/37/4 310/37/4
f 312/38/6 382/38/6 372/38/6 302/38/6
f 373/37/5 383/37/5 313/37/5 303/37/5
f 314/37/6 384/37/6 374/37/6 304/37/6
f 381/38/5 385/38/5 315/38/5 311/38/5
f 316/38/6 386/38/6 382/38/6 312/38/6
f 383/37/5 387/37/5 317/37/5 313/37/5
f 318/37/6 388/37/6 384/37/6 314/37/6
f 385/38/5 389/38/5 319/38/5 315/38/5
f 320/38/6 390/38/6 386/38/6 316/38/6
f 387/37/5 391/37/5 321/37/5 317/37/5
f 322/37/6 392/37/6 388/37/6 318/37/6
f 389/38/5 393/38/5 323/38/5 319/38/5
f 324/38/6 394/38/6 390/38/6 320/38/6
f 391/37/5 395/37/5 325/37/5 321/37/5
f 326/37/6 396/37/6 392/37/6 322/37/6
f 393/38/5 397/38/5 327/38/5 323/38/5
f 328/38/6 398/38/6 394/38/6 324/38/6
f 395/37/5 399/37/5 329/37/5 325/37/5
f 330/37/6 400/37/6 396/37/6 326/37/6
f 397/38/5 401/38/5 331/38/5 327/38/5
f 332/38/6 402/38/6 398/38/6 328/38/6
f 399/37/5 403/37/5 333/37/5 329/37/5
f 334/37/6 404/37/6 400/37/6 330/37/6
f 401/38/5 405/38/5 335/38/5 331/38/5
f 336/38/6 406/38/6 402/38/6 332/38/6
f 403/37/5 407/37/5 337/37/5 333/37/5
f 338/37/3 408/37/3 404/37/3 334/37/3
f 339/37/3 409/37/3 408/37/3 338/37/3
f 340/37/3 410/37/3 409/37/3 339/37/3
f 341/37/3 411/37/3 410/37/3 340/37/3
f 342/37/3 412/37/3 411/37/3 341/37/3
f 343/37/3 413/37/3 412/37/3 342/37/3
f 335/37/3 405/37/3 413/37/3 343/37/3
f 344/38/6 414/38/6 406/38/6 336/38/6
f 415/37/4 416/37/4 346/37/4 345/37/4
f 407/37/5 415/37/5 345/37/5 337/37/5
f 416/37/4 417/37/4 347/37/4 346/37/4
f 417/37/4 418/37/4 348/37/4 347/37/4
f 418/37/4 419/37/4 349/37/4 348/37/4
f 419/37/4 420/37/4 350/37/4 349/37/4
f 420/37/4 421/37/4 351/37/4 350/37/4
f 421/37/4 422/37/4 352/37/4 351/37/4
f 422/37/4 423/37/4 353/37/4 352/37/4
f 423/37/4 424/37/4 354/37/4 353/37/4
f 424/38/4 425/38/4 355/38/4 354/38/4
f 425/38/4 426/38/4 356/38/4 355/38/4
f 426/38/4 427/38/4 357/38/4 356/38/4
f 357/38/6 427/38/6 414/38/6 344/38/6
f 358/37/3 428/37/3 429/37/3 359/37/3
f 429/37/5 430/37/5 360/37/5 359/37/5
f 361/37/3 431/37/3 428/37/3 358/37/3
f 362/37/3 432/37/3 431/37/3 361/37/3
f 363/37/3 433/37/3 432/37/3 362/37/3
f 364/37/3 434/37/3 433/37/3 363/37/3
f 365/37/3 435/37/3 434/37/3 364/37/3
f 366/37/3 436/37/3 435/37/3 365/37/3
f 367/37/3 437/37/3 436/37/3 366/37/3
f 368/37/3 438/37/3 437/37/3 367/37/3
f 369/38/3 439/38/3 438/38/3 368/38/3
f 370/38/3 440/38/3 439/38/3 369/38/3
f 371/38/3 441/38/3 440/38/3 370/38/3
f 372/38/6 442/38/6 441/38/6 371/38/6
f 430/37/5 443/37/5 373/37/5 360/37/5
f 444/37/4 445/37/4 375/37/4 374/37/4
f 445/37/4 446/37/4 376/37/4 375/37/4
f 446/37/4 447/37/4 377/37/4 376/37/4
f 447/37/4 448/37/4 378/37/4 377/37/4
f 448/37/4 449/37/4 379/37/4 378/37/4
f 449/37/4 450/37/4 380/37/4 379/37/4
f 450/37/4 451/37/4 381/37/4 380/37/4
f 382/38/6 452/38/6 442/38/6 372/38/6
f 443/37/5 453/37/5 383/37/5 373/37/5
f 384/37/6 454/37/6 444/37/6 374/37/6
f 451/38/5 455/38/5 385/38/5 381/38/5
f 386/38/6 456/38/6 452/38/6 382/38/6
f 453/37/5 457/37/5 387/37/5 383/37/5
f 388/37/6 458/37/6 454/37/6 384/37/6
f 455/38/5 459/38/5 389/38/5 385/38/5
f 390/38/6 460/38/6 456/38/6 386/38/6
f 457/37/5 461/37/5 391/37/5 387/37/5
f 392/37/6 462/37/6 458/37/6 388/37/6
f 459/38/5 463/38/5 393/38/5 389/38/5
f 394/38/6 464/38/6 460/38/6 390/38/6
f 461/37/5 465/37/5 395/37/5 391/37/5
f 396/37/6 466/37/6 462/37/6 392/37/6
f 463/38/5 467/38/5 397/38/5 393/38/5
f 398/38/6 468/38/6 464/38/6 394/38/6
f 465/37/5 469/37/5 399/37/5 395/37/5
f 400/37/6 470/37/6 466/37/6 396/37/6
f 467/38/5 471/38/5 401/38/5 397/38/5
f 402/38/6 472/38/6 468/38/6 398/38/6
f 469/37/5 473/37/5 403/37/5 399/37/5
f 404/37/6 474/37/6 470/37/6 400/37/6
f 471/38/5 475/38/5 405/38/5 401/38/5
f 406/38/6 476/38/6 472/38/6 402/38/6
f 473/37/5 477/37/5 407/37/5 403/37/5
f 408/37/3 478/37/3 474/37/3 404/37/3
f 409/37/3 479/37/3 478/37/3 408/37/3
f 410/37/3 480/37/3 479/37/3 409/37/3
f 411/37/3 481/37/3 480/37/3 410/37/3
f 412/37/3 482/37/3 481/37/3 411/37/3
f 413/37/3 483/37/3 482/37/3 412/37/3
f 405/37/3 475/37/3 483/37/3 413/37/3
f 414/38/6 484/38/6 476/38/6 406/38/6
f 485/38/4 486/38/4 416/38/4 415/38/4
f 477/38/5 485/38/5 415/38/5 407/38/5
f 486/37/4 487/37/4 417/37/4 416/37/4
f 487/37/4 488/37/4 418/37/4 417/37/4
f 488/37/4 489/37/4 419/37/4 418/37/4
f 489/37/4 490/37/4 420/37/4 419/37/4
f 490/37/4 491/37/4 421/37/4 420/37/4
f 491/38/4 492/38/4 422/38/4 421/38/4
f 492/37/4 493/37/4 423/37/4 422/37/4
f 493/37/4 494/37/4 424/37/4 423/37/4
f 494/38/4 495/38/4 425/38/4 424/38/4
f 495/38/4 496/38/4 426/38/4 425/38/4
f 496/38/4 497/38/4 427/38/4 426/38/4
f 427/38/6 497/38/6 484/38/6 414/38/6
f 428/38/3 498/38/3 499/38/3 429/38/3
f 499/38/5 500/38/5 430/38/5 429/38/5
f 431/37/3 501/37/3 498/37/3 428/37/3
f 432/37/3 502/37/3 501/37/3 431/37/3
f 433/37/3 503/37/3 502/37/3 432/37/3
f 434/37/3 504/37/3 503/37/3 433/37/3
f 435/37/3 505/37/3 504/37/3 434/37/3
f 436/37/3 506/37/3 505/37/3 435/37/3
f 437/37/3 507/37/3 506/37/3 436/37/3
f 438/37/3 508/37/3 507/37/3 437/37/3
f 439/38/3 509/38/3 508/38/3 438/38/3
f 440/38/3 510/38/3 509/38/3 439/38/3
f 441/38/3 511/38/3 510/38/3 440/38/3
f 442/38/6 512/38/6 511/38/6 441/38/6
f 500/37/5 513/37/5 443/37/5 430/37/5
f 514/37/4 515/37/4 445/37/4 444/37/4
f 515/37/4 516/37/4 446/37/4 445/37/4
f 516/37/4 517/37/4 447/37/4 446/37/4
f 517/37/4 518/37/4 448/37/4 447/37/4
f 518/37/4 519/37/4 449/37/4 448/37/4
f 519/37/4 520/37/4 450/37/4 449/37/4
f 520/37/4 521/37/4 451/37/4 450/37/4
f 452/38/6 522/38/6 512/38/6 442/38/6
f 513/37/5 523/37/5 453/37/5 443/37/5
f 454/37/6 524/37/6 514/37/6 444/37/6
f 521/38/5 525/38/5 455/38/5 451/38/5
f 456/38/6 526/38/6 522/38/6 452/38/6
f 523/37/5 527/37/5 457/37/5 453/37/5
f 458/37/6 528/37/6 524/37/6 454/37/6
f 525/38/5 529/38/5 459/38/5 455/38/5
f 460/38/6 530/38/6 526/38/6 456/38/6
f 527/37/5 531/37/5 461/37/5 457/37/5
f 462/37/6 532/37/6 528/37/6 458/37/6
f 529/38/5 533/38/5 463/38/5 459/38/5
f 464/38/6 534/38/6 530/38/6 460/38/6
f 531/37/5 535/37/5 465/37/5 461/37/5
f 466/37/6 536/37/6 532/37/6 462/37/6
f 533/38/5 537/38/5 467/38/5 463/38/5
f 468/38/6 538/38/6 534/38/6 464/38/6
f 535/37/5 539/37/5 469/37/5 465/37/5
f 470/37/6 540/37/6 536/37/6 466/37/6
f 537/38/5 541/38/5 471/38/5 467/38/5
f 472/38/6 542/38/6 538/38/6 468/38/6
f 539/37/5 543/37/5 473/37/5 469/37/5
f 474/37/6 544/37/6 540/37/6 470/37/6
f 541/38/5 545/38/5 475/38/5 471/38/5
f 476/38/6 546/38/6 542/38/6 472/38/6
f 543/37/5 547/37/5 477/37/5 473/37/5
f 478/37/3 548/37/3 544/37/3 474/37/3
f 479/37/3 549/37/3 548/37/3 478/37/3
f 480/37/3 550/37/3 549/37/3 479/37/3
f 481/37/3 551/37/3 550/37/3 480/37/3
f 482/37/3 552/37/3 551/37/3 481/37/3
f 483/37/3 553/37/3 552/37/3 482/37/3
f 475/37/3 545/37/3 553/37/3 483/37/3
f 484/38/6 554/38/6 546/38/6 476/38/6
f 555/37/4 556/37/4 486/37/4 485/37/4
f 547/37/5 555/37/5 485/37/5 477/37/5
f 556/37/4 557/37/4 487/37/4 486/37/4
f 557/37/4 558/37/4 488/37/4 487/37/4
f 558/37/4 559/37/4 489/37/4 488/37/4
f 559/37/4 560/37/4 490/37/4 489/37/4
f 560/37/4 561/37/4 491/37/4 490/37/4
f 561/37/4 562/37/4 492/37/4 491/37/4
f 562/37/4 563/37/4 493/37/4 492/37/4
f 563/37/4 564/37/4 494/37/4 493/37/4
f 564/38/4 565/38/4 495/38/4 494/38/4
f 565/38/4 566/38/4 496/38/4 495/38/4
f 566/38/4 567/38/4 497/38/4 496/38/4
f 497/38/6 567/38/6 554/38/6 484/38/6
f 505/55/1 506/55/1 568/55/1 569/55/1
f 568/55/3 570/55/3 571/55/3 569/55/3
f 571/55/5 572/55/5 505/55/5 569/55/5
f 506/55/1 507/55/1 573/55/1 568/55/1
f 573/55/3 574/55/3 570/55/3 568/55/3
f 507/54/1 508/54/1 575/54/1 573/54/1
f 575/54/3 576/54/3 574/54/3 573/54/3
f 508/54/1 509/54/1 577/54/1 575/54/1
f 577/54/3 578/54/3 576/54/3 575/54/3
f 509/54/6 579/54/6 578/54/6 577/54/6
f 498/37/3 580/37/3 581/37/3 499/37/3
f 581/37/5 582/37/5 500/37/5 499/37/5
f 501/37/3 583/37/3 580/37/3 498/37/3
f 502/37/3 584/37/3 583/37/3 501/37/3
f 503/37/3 585/37/3 584/37/3 502/37/3
f 504/37/3 586/37/3 585/37/3 503/37/3
f 505/37/3 572/37/3 586/37/3 504/37/3
f 510/38/3 587/38/3 579/38/3 509/38/3
f 511/38/3 588/38/3 587/38/3 510/38/3
f 512/38/6 589/38/6 588/38/6 511/38/6
f 582/37/5 590/37/5 513/37/5 500/37/5
f 591/37/4 592/37/4 515/37/4 514/37/4
f 592/37/4 593/37/4 516/37/4 515/37/4
f 593/37/4 594/37/4 517/37/4 516/37/4
f 594/37/4 595/37/4 518/37/4 517/37/4
f 595/37/4 596/37/4 519/37/4 518/37/4
f 596/37/4 597/37/4 520/37/4 519/37/4
f 597/37/4 598/37/4 521/37/4 520/37/4
f 522/38/6 599/38/6 589/38/6 512/38/6
f 590/37/5 600/37/5 523/37/5 513/37/5
f 524/37/6 601/37/6 591/37/6 514/37/6
f 598/38/5 602/38/5 525/38/5 521/38/5
f 526/38/6 603/38/6 599/38/6 522/38/6
f 600/37/5 604/37/5 527/37/5 523/37/5
f 528/37/6 605/37/6 601/37/6 524/37/6
f 602/38/5 606/38/5 529/38/5 525/38/5
f 530/38/6 607/38/6 603/38/6 526/38/6
f 604/37/5 608/37/5 531/37/5 527/37/5
f 532/37/6 609/37/6 605/37/6 528/37/6
f 606/38/5 610/38/5 533/38/5 529/38/5
f 534/38/6 611/38/6 607/38/6 530/38/6
f 608/37/5 612/37/5 535/37/5 531/37/5
f 536/37/6 613/37/6 609/37/6 532/37/6
f 610/38/5 614/38/5 537/38/5 533/38/5
f 538/38/6 615/38/6 611/38/6 534/38/6
f 612/37/5 616/37/5 539/37/5 535/37/5
f 540/37/6 617/37/6 613/37/6 536/37/6
f 614/38/5 618/38/5 541/38/5 537/38/5
f 542/38/6 619/38/6 615/38/6 538/38/6
f 616/37/5 620/37/5 543/37/5 539/37/5
f 544/37/6 621/37/6 617/37/6 540/37/6
f 618/38/5 622/38/5 545/38/5 541/38/5
f 546/38/6 623/38/6 619/38/6 542/38/6
f 620/37/5 624/37/5 547/37/5 543/37/5
f 548/37/3 625/37/3 621/37/3 544/37/3
f 549/37/3 626/37/3 625/37/3 548/37/3
f 550/37/3 627/37/3 626/37/3 549/37/3
f 551/37/3 628/37/3 627/37/3 550/37/3
f 552/37/3 629/37/3 628/37/3 551/37/3
f 553/37/3 630/37/3 629/37/3 552/37/3
f 545/37/3 622/37/3 630/37/3 553/37/3
f 554/38/6 631/38/6 623/38/6 546/38/6
f 632/37/4 633/37/4 556/37/4 555/37/4
f 624/37/5 632/37/5 555/37/5 547/37/5
f 633/37/4 634/37/4 557/37/4 556/37/4
f 634/37/4 635/37/4 558/37/4 557/37/4
f 635/37/4 636/37/4 559/37/4 558/37/4
f 636/37/4 637/37/4 560/37/4 559/37/4
f 637/37/4 638/37/4 561/37/4 560/37/4
f 638/37/4 639/37/4 562/37/4 561/37/4
f 639/37/4 640/37/4 563/37/4 562/37/4
f 640/37/4 641/37/4 564/37/4 563/37/4
f 641/38/4 642/38/4 565/38/4 564/38/4
f 642/38/4 643/38/4 566/38/4 565/38/4
f 643/38/4 644/38/4 567/38/4 566/38/4
f 567/38/6 644/38/6 631/38/6 554/38/6
f 645/54/2 646/54/2 647/54/2 648/54/2
f 570/54/3 645/54/3 648/54/3 571/54/3
f 648/54/5 647/54/5 572/54/5 571/54/5
f 649/55/2 650/55/2 646/55/2 645/55/2
f 574/55/3 649/55/3 645/55/3 570/55/3
f 651/53/2 652/53/2 650/53/2 649/53/2
f 576/53/3 651/53/3 649/53/3 574/53/3
f 653/55/2 654/55/2 652/55/2 651/55/2
f 578/55/3 653/55/3 651/55/3 576/55/3
f 579/55/6 654/55/6 653/55/6 578/55/6
f 580/37/3 655/37/3 656/37/3 581/37/3
f 656/37/5 657/37/5 582/37/5 581/37/5
f 583/37/3 658/37/3 655/37/3 580/37/3
f 584/37/3 659/37/3 658/37/3 583/37/3
f 585/37/3 660/37/3 659/37/3 584/37/3
f 586/37/3 661/37/3 660/37/3 585/37/3
f 572/37/3 647/37/3 661/37/3 586/37/3
f 587/38/3 662/38/3 654/38/3 579/38/3
f 588/38/3 663/38/3 662/38/3 587/38/3
f 589/38/6 664/38/6 663/38/6 588/38/6
f 657/37/5 665/37/5 590/37/5 582/37/5
f 666/37/4 667/37/4 592/37/4 591/37/4
f 667/37/4 668/37/4 593/37/4 592/37/4
f 668/37/4 669/37/4 594/37/4 593/37/4
f 669/37/4 670/37/4 595/37/4 594/37/4
f 670/37/4 671/37/4 596/37/4 595/37/4
f 671/37/4 672/37/4 597/37/4 596/37/4
f 672/37/4 673/37/4 598/37/4 597/37/4
f 599/38/6 674/38/6 664/38/6 589/38/6
f 665/37/5 675/37/5 600/37/5 590/37/5
f 601/37/6 676/37/6 666/37/6 591/37/6
f 673/38/5 677/38/5 602/38/5 598/38/5
f 603/38/6 678/38/6 674/38/6 599/38/6
f 675/37/5 679/37/5 604/37/5 600/37/5
f 605/37/6 680/37/6 676/37/6 601/37/6
f 677/38/5 681/38/5 606/38/5 602/38/5
f 607/38/6 682/38/6 678/38/6 603/38/6
f 679/37/5 683/37/5 608/37/5 604/37/5
f 609/37/6 684/37/6 680/37/6 605/37/6
f 681/38/5 685/38/5 610/38/5 606/38/5
f 611/38/6 686/38/6 682/38/6 607/38/6
f 683/37/5 687/37/5 612/37/5 608/37/5
f 613/37/6 688/37/6 684/37/6 609/37/6
f 685/38/5 689/38/5 614/38/5 610/38/5
f 615/38/6 690/38/6 686/38/6 611/38/6
f 687/37/5 691/37/5 616/37/5 612/37/5
f 617/37/6 692/37/6 688/37/6 613/37/6
f 689/38/5 693/38/5 618/38/5 614/38/5
f 619/38/6 694/38/6 690/38/6 615/38/6
f 691/37/5 695/37/5 620/37/5 616/37/5
f 621/37/6 696/37/6 692/37/6 617/37/6
f 693/38/5 697/38/5 622/38/5 618/38/5
f 623/38/6 698/38/6 694/38/6 619/38/6
f 695/37/5 699/37/5 624/37/5 620/37/5
f 625/37/3 700/37/3 696/37/3 621/37/3
f 626/37/3 701/37/3 700/37/3 625/37/3
f 627/37/3 702/37/3 701/37/3 626/37/3
f 628/37/3 703/37/3 702/37/3 627/37/3
f 629/37/3 704/37/3 703/37/3 628/37/3
f 630/37/3 705/37/3 704/37/3 629/37/3
f 622/37/3 697/37/3 705/37/3 630/37/3
f 631/38/6 706/38/6 698/38/6 623/38/6
f 707/37/4 708/37/4 633/37/4 632/37/4
f 699/37/5 707/37/5 632/37/5 624/37/5
f 708/37/4 709/37/4 634/37/4 633/37/4
f 709/37/4 710/37/4 635/37/4 634/37/4
f 710/37/4 711/37/4 636/37/4 635/37/4
f 711/37/4 712/37/4 637/37/4 636/37/4
f 712/37/4 713/37/4 638/37/4 637/37/4
f 713/37/4 714/37/4 639/37/4 638/37/4
f 714/37/4 715/37/4 640/37/4 639/37/4
f 715/37/4 716/37/4 641/37/4 640/37/4
f 716/38/4 717/38/4 642/38/4 641/38/4
f 717/38/4 718/38/4 643/38/4 642/38/4
f 718/38/4 719/38/4 644/38/4 643/38/4
f 644/38/6 719/38/6 706/38/6 631/38/6
f 655/37/3 720/37/3 721/37/3 656/37/3
f 721/37/5 722/37/5 657/37/5 656/37/5
f 658/37/3 723/37/3 720/37/3 655/37/3
f 659/37/3 724/37/3 723/37/3 658/37/3
f 660/37/3 725/37/3 724/37/3 659/37/3
f 661/37/3 726/37/3 725/37/3 660/37/3
f 647/37/3 727/37/3 726/37/3 661/37/3
f 646/37/3 728/37/3 727/37/3 647/37/3
f 650/37/3 729/37/3 728/37/3 646/37/3
f 652/37/3 730/37/3 729/37/3 650/37/3
f 654/38/3 731/38/3 730/38/3 652/38/3
f 662/38/3 732/38/3 731/38/3 654/38/3
f 663/38/3 733/38/3 732/38/3 662/38/3
f 664/38/6 734/38/6 733/38/6 663/38/6
f 722/37/5 735/37/5 665/37/5 657/37/5
f 736/37/4 737/37/4 667/37/4 666/37/4
f 737/37/4 738/37/4 668/37/4 667/37/4
f 738/37/4 739/37/4 669/37/4 668/37/4
f 739/37/4 740/37/4 670/37/4 669/37/4
f 740/37/4 741/37/4 671/37/4 670/37/4
f 741/37/4 742/37/4 672/37/4 671/37/4
f 742/37/4 743/37/4 673/37/4 672/37/4
f 674/38/6 744/38/6 734/38/6 664/38/6
f 735/37/5 745/37/5 675/37/5 665/37/5
f 676/37/6 746/37/6 736/37/6 666/37/6
f 743/38/5 747/38/5 677/38/5 673/38/5
f 678/38/6 748/38/6 744/38/6 674/38/6
f 745/37/5 749/37/5 679/37/5 675/37/5
f 680/37/6 750/37/6 746/37/6 676/37/6
f 747/38/5 751/38/5 681/38/5 677/38/5
f 682/38/6 752/38/6 748/38/6 678/38/6
f 749/37/5 753/37/5 683/37/5 679/37/5
f 684/37/6 754/37/6 750/37/6 680/37/6
f 751/38/5 755/38/5 685/38/5 681/38/5
f 686/38/6 756/38/6 752/38/6 682/38/6
f 753/37/5 757/37/5 687/37/5 683/37/5
f 688/37/6 758/37/6 754/37/6 684/37/6
f 755/38/5 759/38/5 689/38/5 685/38/5
f 690/38/6 760/38/6 756/38/6 686/38/6
f 757/36/5 761/36/5 691/36/5 687/36/5
f 692/37/6 762/37/6 758/37/6 688/37/6
f 759/38/5 763/38/5 693/38/5 689/38/5
f 694/38/6 764/38/6 760/38/6 690/38/6
f 761/37/5 765/37/5 695/37/5 691/37/5
f 696/37/6 766/37/6 762/37/6 692/37/6
f 763/38/5 767/38/5 697/38/5 693/38/5
f 698/38/6 768/38/6 764/38/6 694/38/6
f 765/37/5 769/37/5 699/37/5 695/37/5
f 700/37/3 770/37/3 766/37/3 696/37/3
f 701/37/3 771/37/3 770/37/3 700/37/3
f 702/37/3 772/37/3 771/37/3 701/37/3
f 703/37/3 773/37/3 772/37/3 702/37/3
f 704/37/3 774/37/3 773/37/3 703/37/3
f 705/37/3 775/37/3 774/37/3 704/37/3
f 697/37/3 767/37/3 775/37/3 705/37/3
f 706/38/6 776/38/6 768/38/6 698/38/6
f 777/37/4 778/37/4 708/37/4 707/37/4
f 769/37/5 777/37/5 707/37/5 699/37/5
f 778/37/4 779/37/4 709/37/4 708/37/4
f 779/37/4 780/37/4 710/37/4 709/37/4
f 780/37/4 781/37/4 711/37/4 710/37/4
f 781/37/4 782/37/4 712/37/4 711/37/4
f 782/37/4 783/37/4 713/37/4 712/37/4
f 783/37/4 784/37/4 714/37/4 713/37/4
f 784/37/4 785/37/4 715/37/4 714/37/4
f 785/37/4 786/37/4 716/37/4 715/37/4
f 786/38/4 787/38/4 717/38/4 716/38/4
f 787/38/4 788/38/4 718/38/4 717/38/4
f 788/38/4 789/38/4 719/38/4 718/38/4
f 719/38/6 789/38/6 776/38/6 706/38/6
f 720/37/3 790/37/3 791/37/3 721/37/3
f 791/37/5 792/37/5 722/37/5 721/37/5
f 723/37/3 793/37/3 790/37/3 720/37/3
f 724/37/3 794/37/3 793/37/3 723/37/3
f 725/37/3 795/37/3 794/37/3 724/37/3
f 726/37/3 796/37/3 795/37/3 725/37/3
f 727/37/3 797/37/3 796/37/3 726/37/3
f 728/36/3 798/36/3 797/36/3 727/36/3
f 729/37/3 799/37/3 798/37/3 728/37/3
f 730/37/3 800/37/3 799/37/3 729/37/3
f 731/38/3 801/38/3 800/38/3 730/38/3
f 732/38/3 802/38/3 801/38/3 731/38/3
f 733/38/3 803/38/3 802/38/3 732/38/3
f 734/38/6 804/38/6 803/38/6 733/38/6
f 792/37/5 805/37/5 735/37/5 722/37/5
f 806/37/4 807/37/4 737/37/4 736/37/4
f 807/37/4 808/37/4 738/37/4 737/37/4
f 808/37/4 809/37/4 739/37/4 738/37/4
f 809/37/4 810/37/4 740/37/4 739/37/4
f 810/36/4 811/36/4 741/36/4 740/36/4
f 811/37/4 812/37/4 742/37/4 741/37/4
f 812/37/4 813/37/4 743/37/4 742/37/4
f 744/38/6 814/38/6 804/38/6 734/38/6
f 805/37/5 815/37/5 745/37/5 735/37/5
f 746/37/6 816/37/6 806/37/6 736/37/6
f 813/38/5 817/38/5 747/38/5 743/38/5
f 748/38/6 818/38/6 814/38/6 744/38/6
f 815/37/5 819/37/5 749/37/5 745/37/5
f 750/37/6 820/37/6 816/37/6 746/37/6
f 817/38/5 821/38/5 751/38/5 747/38/5
f 752/38/6 822/38/6 818/38/6 748/38/6
f 819/37/5 823/37/5 753/37/5 749/37/5
f 754/37/6 824/37/6 820/37/6 750/37/6
f 821/38/5 825/38/5 755/38/5 751/38/5
f 756/38/6 826/38/6 822/38/6 752/38/6
f 823/37/5 827/37/5 757/37/5 753/37/5
f 758/37/6 828/37/6 824/37/6 754/37/6
f 825/38/5 829/38/5 759/38/5 755/38/5
f 760/38/6 830/38/6 826/38/6 756/38/6
f 827/37/5 831/37/5 761/37/5 757/37/5
f 762/37/6 832/37/6 828/37/6 758/37/6
f 829/38/5 833/38/5 763/38/5 759/38/5
f 764/38/6 834/38/6 830/38/6 760/38/6
f 831/37/5 835/37/5 765/37/5 761/37/5
f 766/37/6 836/37/6 832/37/6 762/37/6
f 833/38/5 837/38/5 767/38/5 763/38/5
f 768/38/6 838/38/6 834/38/6 764/38/6
f 835/37/5 839/37/5 769/37/5 765/37/5
f 770/37/3 840/37/3 836/37/3 766/37/3
f 771/37/3 841/37/3 840/37/3 770/37/3
f 772/37/3 842/37/3 841/37/3 771/37/3
f 773/37/3 843/37/3 842/37/3 772/37/3
f 774/37/3 844/37/3 843/37/3 773/37/3
f 775/37/3 845/37/3 844/37/3 774/37/3
f 767/37/3 837/37/3 845/37/3 775/37/3
f 776/38/6 846/38/6 838/38/6 768/38/6
f 847/37/4 848/37/4 778/37/4 777/37/4
f 839/37/5 847/37/5 777/37/5 769/37/5
f 848/37/4 849/37/4 779/37/4 778/37/4
f 849/37/4 850/37/4 780/37/4 779/37/4
f 850/37/4 851/37/4 781/37/4 780/37/4
f 851/37/4 852/37/4 782/37/4 781/37/4
f 852/37/4 853/37/4 783/37/4 782/37/4
f 853/37/4 854/37/4 784/37/4 783/37/4
f 854/37/4 855/37/4 785/37/4 784/37/4
f 855/37/4 856/37/4 786/37/4 785/37/4
f 856/38/4 857/38/4 787/38/4 786/38/4
f 857/38/4 858/38/4 788/38/4 787/38/4
f 858/38/4 859/38/4 789/38/4 788/38/4
f 789/38/6 859/38/6 846/38/6 776/38/6
f 790/37/3 860/37/3 861/37/3 791/37/3
f 861/37/5 862/37/5 792/37/5 791/37/5
f 793/37/3 863/37/3 860/37/3 790/37/3
f 794/37/3 864/37/3 863/37/3 793/37/3
f 795/37/3 865/37/3 864/37/3 794/37/3
f 796/37/3 866/37/3 865/37/3 795/37/3
f 797/37/3 867/37/3 866/37/3 796/37/3
f 798/37/3 868/37/3 867/37/3 797/37/3
f 799/37/3 869/37/3 868/37/3 798/37/3
f 800/37/3 870/37/3 869/37/3 799/37/3
f 801/38/3 871/38/3 870/38/3 800/38/3
f 802/38/3 872/38/3 871/38/3 801/38/3
f 803/38/3 873/38/3 872/38/3 802/38/3
f 804/38/6 874/38/6 873/38/6 803/38/6
f 862/37/5 875/37/5 805/37/5 792/37/5
f 876/37/4 877/37/4 807/37/4 806/37/4
f 877/37/4 878/37/4 808/37/4 807/37/4
f 878/37/4 879/37/4 809/37/4 808/37/4
f 879/37/4 880/37/4 810/37/4 809/37/4
f 880/37/4 881/37/4 811/37/4 810/37/4
f 881/37/4 882/37/4 812/37/4 811/37/4
f 882/37/4 883/37/4 813/37/4 812/37/4
f 814/38/6 884/38/6 874/38/6 804/38/6
f 875/37/5 885/37/5 815/37/5 805/37/5
f 816/37/6 886/37/6 876/37/6 806/37/6
f 883/38/5 887/38/5 817/38/5 813/38/5
f 818/38/6 888/38/6 884/38/6 814/38/6
f 885/37/5 889/37/5 819/37/5 815/37/5
f 820/37/6 890/37/6 886/37/6 816/37/6
f 887/38/5 891/38/5 821/38/5 817/38/5
f 822/38/6 892/38/6 888/38/6 818/38/6
f 889/37/5 893/37/5 823/37/5 819/37/5
f 824/37/6 894/37/6 890/37/6 820/37/6
f 891/38/5 895/38/5 825/38/5 821/38/5
f 826/38/6 896/38/6 892/38/6 822/38/6
f 893/37/5 897/37/5 827/37/5 823/37/5
f 828/37/6 898/37/6 894/37/6 824/37/6
f 895/38/5 899/38/5 829/38/5 825/38/5
f 830/38/6 900/38/6 896/38/6 826/38/6
f 897/37/5 901/37/5 831/37/5 827/37/5
f 832/37/6 902/37/6 898/37/6 828/37/6
f 899/38/5 903/38/5 833/38/5 829/38/5
f 834/38/6 904/38/6 900/38/6 830/38/6
f 901/37/5 905/37/5 835/37/5 831/37/5
f 836/37/6 906/37/6 902/37/6 832/37/6
f 903/38/5 907/38/5 837/38/5 833/38/5
f 838/38/6 908/38/6 904/38/6 834/38/6
f 905/37/5 909/37/5 839/37/5 835/37/5
f 840/37/3 910/37/3 906/37/3 836/37/3
f 841/37/3 911/37/3 910/37/3 840/37/3
f 842/37/3 912/37/3 911/37/3 841/37/3
f 843/37/3 913/37/3 912/37/3 842/37/3
f 844/37/3 914/37/3 913/37/3 843/37/3
f 845/37/3 915/37/3 914/37/3 844/37/3
f 837/37/3 907/37/3 915/37/3 845/37/3
f 846/38/6 916/38/6 908/38/6 838/38/6
f 917/37/4 918/37/4 848/37/4 847/37/4
f 909/37/5 917/37/5 847/37/5 839/37/5
f 918/37/4 919/37/4 849/37/4 848/37/4
f 919/37/4 920/37/4 850/37/4 849/37/4
f 920/37/4 921/37/4 851/37/4 850/37/4
f 921/37/4 922/37/4 852/37/4 851/37/4
f 922/37/4 923/37/4 853/37/4 852/37/4
f 923/37/4 924/37/4 854/37/4 853/37/4
f 924/37/4 925/37/4 855/37/4 854/37/4
f 925/37/4 926/37/4 856/37/4 855/37/4
f 926/38/4 927/38/4 857/38/4 856/38/4
f 927/38/4 928/38/4 858/38/4 857/38/4
f 928/38/4 929/38/4 859/38/4 858/38/4
f 859/38/6 929/38/6 916/38/6 846/38/6
f 860/37/3 930/37/3 931/37/3 861/37/3
f 931/37/5 932/37/5 862/37/5 861/37/5
f 863/37/3 933/37/3 930/37/3 860/37/3
f 864/37/3 934/37/3 933/37/3 863/37/3
f 865/37/3 935/37/3 934/37/3 864/37/3
f 866/37/3 936/37/3 935/37/3 865/37/3
f 867/37/3 937/37/3 936/37/3 866/37/3
f 868/38/3 938/38/3 937/38/3 867/38/3
f 869/37/3 939/37/3 938/37/3 868/37/3
f 870/37/3 940/37/3 939/37/3 869/37/3
f 871/38/3 941/38/3 940/38/3 870/38/3
f 872/38/3 942/38/3 941/38/3 871/38/3
f 873/38/3 943/38/3 942/38/3 872/38/3
f 874/38/6 944/38/6 943/38/6 873/38/6
f 932/37/5 945/37/5 875/37/5 862/37/5
f 946/37/4 947/37/4 877/37/4 876/37/4
f 947/37/4 948/37/4 878/37/4 877/37/4
f 948/37/4 949/37/4 879/37/4 878/37/4
f 949/37/4 950/37/4 880/37/4 879/37/4
f 950/37/4 951/37/4 881/37/4 880/37/4
f 951/37/4 952/37/4 882/37/4 881/37/4
f 952/37/4 953/37/4 883/37/4 882/37/4
f 884/38/6 954/38/6 944/38/6 874/38/6
f 945/37/5 955/37/5 885/37/5 875/37/5
f 886/37/6 956/37/6 946/37/6 876/37/6
f 953/38/5 957/38/5 887/38/5 883/38/5
f 888/38/6 958/38/6 954/38/6 884/38/6
f 955/37/5 959/37/5 889/37/5 885/37/5
f 890/37/6 960/37/6 956/37/6 886/37/6
f 957/38/5 961/38/5 891/38/5 887/38/5
f 892/38/6 962/38/6 958/38/6 888/38/6
f 959/37/5 963/37/5 893/37/5 889/37/5
f 894/37/6 964/37/6 960/37/6 890/37/6
f 961/38/5 965/38/5 895/38/5 891/38/5
f 896/38/6 966/38/6 962/38/6 892/38/6
f 963/37/5 967/37/5 897/37/5 893/37/5
f 898/37/6 968/37/6 964/37/6 894/37/6
f 965/38/5 969/38/5 899/38/5 895/38/5
f 900/38/6 970/38/6 966/38/6 896/38/6
f 967/37/5 971/37/5 901/37/5 897/37/5
f 902/37/6 972/37/6 968/37/6 898/37/6
f 969/38/5 973/38/5 903/38/5 899/38/5
f 904/38/6 974/38/6 970/38/6 900/38/6
f 971/37/5 975/37/5 905/37/5 901/37/5
f 906/37/6 976/37/6 972/37/6 902/37/6
f 973/38/5 977/38/5 907/38/5 903/38/5
f 908/38/6 978/38/6 974/38/6 904/38/6
f 975/37/5 979/37/5 909/37/5 905/37/5
f 910/37/3 980/37/3 976/37/3 906/37/3
f 911/37/3 981/37/3 980/37/3 910/37/3
f 912/37/3 982/37/3 981/37/3 911/37/3
f 913/37/3 983/37/3 982/37/3 912/37/3
f 914/37/3 984/37/3 983/37/3 913/37/3
f 915/37/3 985/37/3 984/37/3 914/37/3
f 907/37/3 977/37/3 985/37/3 915/37/3
f 916/38/6 986/38/6 978/38/6 908/38/6
f 987/37/4 988/37/4 918/37/4 917/37/4
f 979/37/5 987/37/5 917/37/5 909/37/5
f 988/37/4 989/37/4 919/37/4 918/37/4
f 989/37/4 990/37/4 920/37/4 919/37/4
f 990/37/4 991/37/4 921/37/4 920/37/4
f 991/37/4 992/37/4 922/37/4 921/37/4
f 992/37/4 993/37/4 923/37/4 922/37/4
f 993/37/4 994/37/4 924/37/4 923/37/4
f 994/37/4 995/37/4 925/37/4 924/37/4
f 995/37/4 996/37/4 926/37/4 925/37/4
f 996/38/4 997/38/4 927/38/4 926/38/4
f 997/38/4 998/38/4 928/38/4 927/38/4
f 998/38/4 999/38/4 929/38/4 928/38/4
f 929/38/6 999/38/6 986/38/6 916/38/6
f 930/37/3 1000/37/3 1001/37/3 931/37/3
f 1001/37/5 1002/37/5 932/37/5 931/37/5
f 933/37/3 1003/37/3 1000/37/3 930/37/3
f 934/37/3 1004/37/3 1003/37/3 933/37/3
f 935/37/3 1005/37/3 1004/37/3 934/37/3
f 936/37/3 1006/37/3 1005/37/3 935/37/3
f 937/37/3 1007/37/3 1006/37/3 936/37/3
f 938/37/3 1008/37/3 1007/37/3 937/37/3
f 939/37/3 1009/37/3 1008/37/3 938/37/3
f 940/37/3 1010/37/3 1009/37/3 939/37/3
f 941/38/3 1011/38/3 1010/38/3 940/38/3
f 942/38/3 1012/38/3 1011/38/3 941/38/3
f 943/38/3 1013/38/3 1012/38/3 942/38/3
f 944/38/6 1014/38/6 1013/38/6 943/38/6
f 1002/37/5 1015/37/5 945/37/5 932/37/5
f 954/38/6 1016/38/6 1014/38/6 944/38/6
f 1015/37/5 1017/37/5 955/37/5 945/37/5
f 956/37/1 1018/37/1 947/37/1 946/37/1
f 1018/37/1 1019/37/1 948/37/1 947/37/1
f 1019/37/1 1020/37/1 949/37/1 948/37/1
f 1020/37/1 1021/37/1 950/37/1 949/37/1
f 1021/37/1 1022/37/1 951/37/1 950/37/1
f 1022/37/1 1023/37/1 952/37/1 951/37/1
f 1023/37/1 957/37/1 953/37/1 952/37/1
f 958/38/6 1024/38/6 1016/38/6 954/38/6
f 1017/37/5 1025/37/5 959/37/5 955/37/5
f 960/37/1 1026/37/1 1018/37/1 956/37/1
f 1026/37/1 1027/37/1 1019/37/1 1018/37/1
f 1027/37/1 1028/37/1 1020/37/1 1019/37/1
f 1028/37/1 1029/37/1 1021/37/1 1020/37/1
f 1029/37/1 1030/37/1 1022/37/1 1021/37/1
f 1030/37/1 1031/37/1 1023/37/1 1022/37/1
f 1031/37/1 961/37/1 957/37/1 1023/37/1
f 962/38/6 1032/38/6 1024/38/6 958/38/6
f 1025/37/5 1033/37/5 963/37/5 959/37/5
f 964/37/1 1034/37/1 1026/37/1 960/37/1
f 1034/37/1 1035/37/1 1027/37/1 1026/37/1
f 1035/37/1 1036/37/1 1028/37/1 1027/37/1
f 1036/37/1 1037/37/1 1029/37/1 1028/37/1
f 1037/37/1 1038/37/1 1030/37/1 1029/37/1
f 1038/37/1 1039/37/1 1031/37/1 1030/37/1
f 1039/37/1 965/37/1 961/37/1 1031/37/1
f 966/38/6 1040/38/6 1032/38/6 962/38/6
f 1033/37/5 1041/37/5 967/37/5 963/37/5
f 968/37/1 1042/37/1 1034/37/1 964/37/1
f 1042/37/1 1043/37/1 1035/37/1 1034/37/1
f 1043/37/1 1044/37/1 1036/37/1 1035/37/1
f 1044/37/1 1045/37/1 1037/37/1 1036/37/1
f 1045/37/1 1046/37/1 1038/37/1 1037/37/1
f 1046/37/1 1047/37/1 1039/37/1 1038/37/1
f 1047/37/1 969/37/1 965/37/1 1039/37/1
f 970/38/6 1048/38/6 1040/38/6 966/38/6
f 1041/37/5 1049/37/5 971/37/5 967/37/5
f 972/37/1 1050/37/1 1042/37/1 968/37/1
f 1050/37/1 1051/37/1 1043/37/1 1042/37/1
f 1051/37/1 1052/37/1 1044/37/1 1043/37/1
f 1052/37/1 1053/37/1 1045/37/1 1044/37/1
f 1053/37/1 1054/37/1 1046/37/1 1045/37/1
f 1054/37/1 1055/37/1 1047/37/1 1046/37/1
f 1055/37/1 973/37/1 969/37/1 1047/37/1
f 974/38/6 1056/38/6 1048/38/6 970/38/6
f 1049/37/5 1057/37/5 975/37/5 971/37/5
f 976/37/1 980/37/1 1050/37/1 972/37/1
f 980/37/1 981/37/1 1051/37/1 1050/37/1
f 981/37/1 982/37/1 1052/37/1 1051/37/1
f 982/37/1 983/37/1 1053/37/1 1052/37/1
f 983/37/1 984/37/1 1054/37/1 1053/37/1
f 984/37/1 985/37/1 1055/37/1 1054/37/1
f 985/37/1 977/37/1 973/37/1 1055/37/1
f 978/38/6 1058/38/6 1056/38/6 974/38/6
f 1057/37/5 1059/37/5 979/37/5 975/37/5
f 986/38/6 1060/38/6 1058/38/6 978/38/6
f 1061/37/4 1062/37/4 988/37/4 987/37/4
f 1059/37/5 1061/37/5 987/37/5 979/37/5
f 1062/37/4 1063/37/4 989/37/4 988/37/4
f 1063/36/4 1064/36/4 990/36/4 989/36/4
f 1064/37/4 1065/37/4 991/37/4 990/37/4
f 1065/37/4 1066/37/4 992/37/4 991/37/4
f 1066/37/4 1067/37/4 993/37/4 992/37/4
f 1067/37/4 1068/37/4 994/37/4 993/37/4
f 1068/37/4 1069/37/4 995/37/4 994/37/4
f 1069/37/4 1070/37/4 996/37/4 995/37/4
f 1070/38/4 1071/38/4 997/38/4 996/38/4
f 1071/38/4 1072/38/4 998/38/4 997/38/4
f 1072/38/4 1073/38/4 999/38/4 998/38/4
f 999/38/6 1073/38/6 1060/38/6 986/38/6
f 1074/37/2 1075/37/2 1076/37/2 1077/37/2
f 1000/37/3 1074/37/3 1077/37/3 1001/37/3
f 1077/37/5 1076/37/5 1002/37/5 1001/37/5
f 1078/37/2 1079/37/2 1075/37/2 1074/37/2
f 1003/37/3 1078/37/3 1074/37/3 1000/37/3
f 1080/37/2 1081/37/2 1079/37/2 1078/37/2
f 1004/37/3 1080/37/3 1078/37/3 1003/37/3
f 1082/37/2 1083/37/2 1081/37/2 1080/37/2
f 1005/37/3 1082/37/3 1080/37/3 1004/37/3
f 1084/37/2 1085/37/2 1083/37/2 1082/37/2
f 1006/37/3 1084/37/3 1082/37/3 1005/37/3
f 1086/37/2 1087/37/2 1085/37/2 1084/37/2
f 1007/37/3 1086/37/3 1084/37/3 1006/37/3
f 1088/37/2 1089/37/2 1087/37/2 1086/37/2
f 1008/37/3 1088/37/3 1086/37/3 1007/37/3
f 1090/37/2 1091/37/2 1089/37/2 1088/37/2
f 1009/37/3 1090/37/3 1088/37/3 1008/37/3
f 1092/37/2 1093/37/2 1091/37/2 1090/37/2
f 1010/37/3 1092/37/3 1090/37/3 1009/37/3
f 1094/38/2 1095/38/2 1093/38/2 1092/38/2
f 1011/38/3 1094/38/3 1092/38/3 1010/38/3
f 1096/38/2 1097/38/2 1095/38/2 1094/38/2
f 1012/38/3 1096/38/3 1094/38/3 1011/38/3
f 1098/38/2 1099/38/2 1097/38/2 1096/38/2
f 1013/38/3 1098/38/3 1096/38/3 1012/38/3
f 1014/38/6 1099/38/6 1098/38/6 1013/38/6
f 1075/37/2 1100/37/2 1101/37/2 1076/37/2
f 1076/37/5 1101/37/5 1015/37/5 1002/37/5
f 1079/37/2 1102/37/2 1100/37/2 1075/37/2
f 1081/37/2 1103/37/2 1102/37/2 1079/37/2
f 1083/37/2 1104/37/2 1103/37/2 1081/37/2
f 1085/37/2 1105/37/2 1104/37/2 1083/37/2
f 1087/37/2 1106/37/2 1105/37/2 1085/37/2
f 1089/37/2 1107/37/2 1106/37/2 1087/37/2
f 1091/37/2 1108/37/2 1107/37/2 1089/37/2
f 1093/37/2 1109/37/2 1108/37/2 1091/37/2
f 1095/38/2 1110/38/2 1109/38/2 1093/38/2
f 1097/38/2 1111/38/2 1110/38/2 1095/38/2
f 1099/38/2 1112/38/2 1111/38/2 1097/38/2
f 1016/38/6 1112/38/6 1099/38/6 1014/38/6
f 1100/37/2 1113/37/2 1114/37/2 1101/37/2
f 1101/37/5 1114/37/5 1017/37/5 1015/37/5
f 1102/37/2 1115/37/2 1113/37/2 1100/37/2
f 1103/37/2 1116/37/2 1115/37/2 1102/37/2
f 1104/37/2 1117/37/2 1116/37/2 1103/37/2
f 1105/37/2 1118/37/2 1117/37/2 1104/37/2
f 1106/37/2 1119/37/2 1118/37/2 1105/37/2
f 1107/37/2 1120/37/2 1119/37/2 1106/37/2
f 1108/37/2 1121/37/2 1120/37/2 1107/37/2
f 1109/37/2 1122/37/2 1121/37/2 1108/37/2
f 1110/38/2 1123/38/2 1122/38/2 1109/38/2
f 1111/38/2 1124/38/2 1123/38/2 1110/38/2
f 1112/38/2 1125/38/2 1124/38/2 1111/38/2
f 1024/38/6 1125/38/6 1112/38/6 1016/38/6
f 1113/37/2 1126/37/2 1127/37/2 1114/37/2
f 1114/37/5 1127/37/5 1025/37/5 1017/37/5
f 1115/37/2 1128/37/2 1126/37/2 1113/37/2
f 1116/37/2 1129/37/2 1128/37/2 1115/37/2
f 1117/37/2 1130/37/2 1129/37/2 1116/37/2
f 1118/37/2 1131/37/2 1130/37/2 1117/37/2
f 1119/37/2 1132/37/2 1131/37/2 1118/37/2
f 1120/37/2 1133/37/2 1132/37/2 1119/37/2
f 1121/37/2 1134/37/2 1133/37/2 1120/37/2
f 1122/37/2 1135/37/2 1134/37/2 1121/37/2
f 1123/38/2 1136/38/2 1135/38/2 1122/38/2
f 1124/38/2 1137/38/2 1136/38/2 1123/38/2
f 1125/38/2 1138/38/2 1137/38/2 1124/38/2
f 1032/38/6 1138/38/6 1125/38/6 1024/38/6
f 1126/37/2 1139/37/2 1140/37/2 1127/37/2
f 1127/37/5 1140/37/5 1033/37/5 1025/37/5
f 1128/37/2 1141/37/2 1139/37/2 1126/37/2
f 1129/37/2 1142/37/2 1141/37/2 1128/37/2
f 1130/37/2 1143/37/2 1142/37/2 1129/37/2
f 1131/37/2 1144/37/2 1143/37/2 1130/37/2
f 1132/37/2 1145/37/2 1144/37/2 1131/37/2
f 1133/37/2 1146/37/2 1145/37/2 1132/37/2
f 1134/37/2 1147/37/2 1146/37/2 1133/37/2
f 1135/37/2 1148/37/2 1147/37/2 1134/37/2
f 1136/38/2 1149/38/2 1148/38/2 1135/38/2
f 1137/38/2 1150/38/2 1149/38/2 1136/38/2
f 1138/38/2 1151/38/2 1150/38/2 1137/38/2
f 1040/38/6 1151/38/6 1138/38/6 1032/38/6
f 1139/37/2 1152/37/2 1153/37/2 1140/37/2
f 1140/37/5 1153/37/5 1041/37/5 1033/37/5
f 1141/37/2 1154/37/2 1152/37/2 1139/37/2
f 1142/37/2 1155/37/2 1154/37/2 1141/37/2
f 1143/37/2 1156/37/2 1155/37/2 1142/37/2
f 1144/37/2 1157/37/2 1156/37/2 1143/37/2
f 1145/37/2 1158/37/2 1157/37/2 1144/37/2
f 1146/37/2 1159/37/2 1158/37/2 1145/37/2
f 1147/37/2 1160/37/2 1159/37/2 1146/37/2
f 1148/37/2 1161/37/2 1160/37/2 1147/37/2
f 1149/38/2 1162/38/2 1161/38/2 1148/38/2
f 1150/38/2 1163/38/2 1162/38/2 1149/38/2
f 1151/38/2 1164/38/2 1163/38/2 1150/38/2
f 1048/38/6 1164/38/6 1151/38/6 1040/38/6
f 1152/37/2 1165/37/2 1166/37/2 1153/37/2
f 1153/37/5 1166/37/5 1049/37/5 1041/37/5
f 1154/37/2 1167/37/2 1165/37/2 1152/37/2
f 1155/37/2 1168/37/2 1167/37/2 1154/37/2
f 1156/37/2 1169/37/2 1168/37/2 1155/37/2
f 1157/37/2 1170/37/2 1169/37/2 1156/37/2
f 1158/37/2 1171/37/2 1170/37/2 1157/37/2
f 1159/37/2 1172/37/2 1171/37/2 1158/37/2
f 1160/37/2 1173/37/2 1172/37/2 1159/37/2
f 1161/37/2 1174/37/2 1173/37/2 1160/37/2
f 1162/38/2 1175/38/2 1174/38/2 1161/38/2
f 1163/38/2 1176/38/2 1175/38/2 1162/38/2
f 1164/38/2 1177/38/2 1176/38/2 1163/38/2
f 1056/38/6 1177/38/6 1164/38/6 1048/38/6
f 1165/37/2 1178/37/2 1179/37/2 1166/37/2
f 1166/37/5 1179/37/5 1057/37/5 1049/37/5
f 1167/37/2 1180/37/2 1178/37/2 1165/37/2
f 1168/37/2 1181/37/2 1180/37/2 1167/37/2
f 1169/37/2 1182/37/2 1181/37/2 1168/37/2
f 1170/37/2 1183/37/2 1182/37/2 1169/37/2
f 1171/37/2 1184/37/2 1183/37/2 1170/37/2
f 1172/37/2 1185/37/2 1184/37/2 1171/37/2
f 1173/37/2 1186/37/2 1185/37/2 1172/37/2
f 1174/37/2 1187/37/2 1186/37/2 1173/37/2
f 1175/38/2 1188/38/2 1187/38/2 1174/38/2
f 1176/38/2 1189/38/2 1188/38/2 1175/38/2
f 1177/38/2 1190/38/2 1189/38/2 1176/38/2
f 1058/38/6 1190/38/6 1177/38/6 1056/38/6
f 1178/37/2 1191/37/2 1192/37/2 1179/37/2
f 1179/37/5 1192/37/5 1059/37/5 1057/37/5
f 1180/37/2 1193/37/2 1191/37/2 1178/37/2
f 1181/37/2 1194/37/2 1193/37/2 1180/37/2
f 1182/37/2 1195/37/2 1194/37/2 1181/37/2
f 1183/37/2 1196/37/2 1195/37/2 1182/37/2
f 1184/37/2 1197/37/2 1196/37/2 1183/37/2
f 1185/37/2 1198/37/2 1197/37/2 1184/37/2
f 1186/37/2 1199/37/2 1198/37/2 1185/37/2
f 1187/37/2 1200/37/2 1199/37/2 1186/37/2
f 1188/38/2 1201/38/2 1200/38/2 1187/38/2
f 1189/38/2 1202/38/2 1201/38/2 1188/38/2
f 1190/38/2 1203/38/2 1202/38/2 1189/38/2
f 1060/38/6 1203/38/6 1190/38/6 1058/38/6
f 1191/37/2 1204/37/2 1205/37/2 1192/37/2
f 1205/37/4 1204/37/4 1062/37/4 1061/37/4
f 1192/37/5 1205/37/5 1061/37/5 1059/37/5
f 1193/37/2 1206/37/2 1204/37/2 1191/37/2
f 1204/37/4 1206/37/4 1063/37/4 1062/37/4
f 1194/37/2 1207/37/2 1206/37/2 1193/37/2
f 1206/37/4 1207/37/4 1064/37/4 1063/37/4
f 1195/37/2 1208/37/2 1207/37/2 1194/37/2
f 1207/37/4 1208/37/4 1065/37/4 1064/37/4
f 1196/37/2 1209/37/2 1208/37/2 1195/37/2
f 1208/37/4 1209/37/4 1066/37/4 1065/37/4
f 1197/38/2 1210/38/2 1209/38/2 1196/38/2
f 1209/38/4 1210/38/4 1067/38/4 1066/38/4
f 1198/37/2 1211/37/2 1210/37/2 1197/37/2
f 1210/37/4 1211/37/4 1068/37/4 1067/37/4
f 1199/37/2 1212/37/2 1211/37/2 1198/37/2
f 1211/37/4 1212/37/4 1069/37/4 1068/37/4
f 1200/37/2 1213/37/2 1212/37/2 1199/37/2
f 1212/37/4 1213/37/4 1070/37/4 1069/37/4
f 1201/38/2 1214/38/2 1213/38/2 1200/38/2
f 1213/38/4 1214/38/4 1071/38/4 1070/38/4
f 1202/38/2 1215/38/2 1214/38/2 1201/38/2
f 1214/38/4 1215/38/4 1072/38/4 1071/38/4
f 1203/38/2 1216/38/2 1215/38/2 1202/38/2
f 1215/38/4 1216/38/4 1073/38/4 1072/38/4
f 1073/38/6 1216/38/6 1203/38/6 1060/38/6
