# Dungine crate; 1 voxel = 1/16 unit; Y-up floor-center origin
mtllib crate.mtl
o crate
s off
v -0.437500 0.000000 -0.437500
v -0.437500 0.062500 -0.437500
v -0.437500 0.062500 -0.500000
v -0.437500 0.000000 -0.500000
v -0.375000 0.062500 -0.500000
v -0.375000 0.000000 -0.500000
v -0.375000 0.000000 -0.437500
v -0.437500 0.125000 -0.437500
v -0.437500 0.125000 -0.500000
v -0.375000 0.125000 -0.500000
v -0.437500 0.187500 -0.437500
v -0.437500 0.187500 -0.500000
v -0.375000 0.187500 -0.500000
v -0.375000 0.187500 -0.437500
v -0.437500 0.687500 -0.437500
v -0.437500 0.750000 -0.437500
v -0.437500 0.750000 -0.500000
v -0.437500 0.687500 -0.500000
v -0.375000 0.750000 -0.500000
v -0.375000 0.687500 -0.500000
v -0.375000 0.687500 -0.437500
v -0.437500 0.812500 -0.437500
v -0.437500 0.812500 -0.500000
v -0.375000 0.812500 -0.500000
v -0.375000 0.812500 -0.437500
v -0.437500 0.000000 -0.375000
v -0.437500 0.062500 -0.375000
v -0.375000 0.000000 -0.375000
v -0.437500 0.125000 -0.375000
v -0.437500 0.187500 -0.375000
v -0.437500 0.250000 -0.375000
v -0.437500 0.250000 -0.437500
v -0.375000 0.250000 -0.437500
v -0.437500 0.312500 -0.375000
v -0.437500 0.312500 -0.437500
v -0.375000 0.312500 -0.437500
v -0.437500 0.375000 -0.375000
v -0.437500 0.375000 -0.437500
v -0.375000 0.375000 -0.437500
v -0.437500 0.437500 -0.375000
v -0.437500 0.437500 -0.437500
v -0.375000 0.437500 -0.437500
v -0.437500 0.500000 -0.375000
v -0.437500 0.500000 -0.437500
v -0.375000 0.500000 -0.437500
v -0.437500 0.562500 -0.375000
v -0.437500 0.562500 -0.437500
v -0.375000 0.562500 -0.437500
v -0.437500 0.625000 -0.375000
v -0.437500 0.625000 -0.437500
v -0.375000 0.625000 -0.437500
v -0.437500 0.687500 -0.375000
v -0.437500 0.750000 -0.375000
v -0.437500 0.812500 -0.375000
v -0.437500 0.875000 -0.375000
v -0.437500 0.875000 -0.437500
v -0.375000 0.875000 -0.437500
v -0.375000 0.875000 -0.375000
v -0.437500 0.000000 -0.312500
v -0.437500 0.062500 -0.312500
v -0.375000 0.000000 -0.312500
v -0.437500 0.125000 -0.312500
v -0.437500 0.187500 -0.312500
v -0.437500 0.250000 -0.312500
v -0.437500 0.312500 -0.312500
v -0.437500 0.375000 -0.312500
v -0.437500 0.437500 -0.312500
v -0.437500 0.500000 -0.312500
v -0.437500 0.562500 -0.312500
v -0.437500 0.625000 -0.312500
v -0.437500 0.687500 -0.312500
v -0.437500 0.750000 -0.312500
v -0.437500 0.812500 -0.312500
v -0.437500 0.875000 -0.312500
v -0.375000 0.875000 -0.312500
v -0.437500 0.000000 -0.250000
v -0.437500 0.062500 -0.250000
v -0.375000 0.000000 -0.250000
v -0.437500 0.125000 -0.250000
v -0.437500 0.187500 -0.250000
v -0.437500 0.250000 -0.250000
v -0.437500 0.312500 -0.250000
v -0.437500 0.375000 -0.250000
v -0.437500 0.437500 -0.250000
v -0.437500 0.500000 -0.250000
v -0.437500 0.562500 -0.250000
v -0.437500 0.625000 -0.250000
v -0.437500 0.687500 -0.250000
v -0.437500 0.750000 -0.250000
v -0.437500 0.812500 -0.250000
v -0.437500 0.875000 -0.250000
v -0.375000 0.875000 -0.250000
v -0.437500 0.000000 -0.187500
v -0.437500 0.062500 -0.187500
v -0.375000 0.000000 -0.187500
v -0.437500 0.125000 -0.187500
v -0.437500 0.187500 -0.187500
v -0.437500 0.250000 -0.187500
v -0.437500 0.312500 -0.187500
v -0.437500 0.375000 -0.187500
v -0.437500 0.437500 -0.187500
v -0.437500 0.500000 -0.187500
v -0.437500 0.562500 -0.187500
v -0.437500 0.625000 -0.187500
v -0.437500 0.687500 -0.187500
v -0.437500 0.750000 -0.187500
v -0.437500 0.812500 -0.187500
v -0.437500 0.875000 -0.187500
v -0.375000 0.875000 -0.187500
v -0.437500 0.000000 -0.125000
v -0.437500 0.062500 -0.125000
v -0.375000 0.000000 -0.125000
v -0.437500 0.125000 -0.125000
v -0.437500 0.187500 -0.125000
v -0.437500 0.250000 -0.125000
v -0.437500 0.312500 -0.125000
v -0.437500 0.375000 -0.125000
v -0.437500 0.437500 -0.125000
v -0.437500 0.500000 -0.125000
v -0.437500 0.562500 -0.125000
v -0.437500 0.625000 -0.125000
v -0.437500 0.687500 -0.125000
v -0.437500 0.750000 -0.125000
v -0.437500 0.812500 -0.125000
v -0.437500 0.875000 -0.125000
v -0.375000 0.875000 -0.125000
v -0.437500 0.000000 -0.062500
v -0.437500 0.062500 -0.062500
v -0.375000 0.000000 -0.062500
v -0.437500 0.125000 -0.062500
v -0.437500 0.187500 -0.062500
v -0.437500 0.250000 -0.062500
v -0.437500 0.312500 -0.062500
v -0.437500 0.375000 -0.062500
v -0.437500 0.437500 -0.062500
v -0.437500 0.500000 -0.062500
v -0.437500 0.562500 -0.062500
v -0.437500 0.625000 -0.062500
v -0.437500 0.687500 -0.062500
v -0.437500 0.750000 -0.062500
v -0.437500 0.812500 -0.062500
v -0.437500 0.875000 -0.062500
v -0.375000 0.875000 -0.062500
v -0.437500 0.000000 0.000000
v -0.437500 0.062500 0.000000
v -0.375000 0.000000 0.000000
v -0.437500 0.125000 0.000000
v -0.437500 0.187500 0.000000
v -0.437500 0.250000 0.000000
v -0.437500 0.312500 0.000000
v -0.437500 0.375000 0.000000
v -0.437500 0.437500 0.000000
v -0.437500 0.500000 0.000000
v -0.437500 0.562500 0.000000
v -0.437500 0.625000 0.000000
v -0.437500 0.687500 0.000000
v -0.437500 0.750000 0.000000
v -0.437500 0.812500 0.000000
v -0.437500 0.875000 0.000000
v -0.375000 0.875000 0.000000
v -0.437500 0.000000 0.062500
v -0.437500 0.062500 0.062500
v -0.375000 0.000000 0.062500
v -0.437500 0.125000 0.062500
v -0.437500 0.187500 0.062500
v -0.437500 0.250000 0.062500
v -0.437500 0.312500 0.062500
v -0.437500 0.375000 0.062500
v -0.437500 0.437500 0.062500
v -0.437500 0.500000 0.062500
v -0.437500 0.562500 0.062500
v -0.437500 0.625000 0.062500
v -0.437500 0.687500 0.062500
v -0.437500 0.750000 0.062500
v -0.437500 0.812500 0.062500
v -0.437500 0.875000 0.062500
v -0.375000 0.875000 0.062500
v -0.437500 0.000000 0.125000
v -0.437500 0.062500 0.125000
v -0.375000 0.000000 0.125000
v -0.437500 0.125000 0.125000
v -0.437500 0.187500 0.125000
v -0.437500 0.250000 0.125000
v -0.437500 0.312500 0.125000
v -0.437500 0.375000 0.125000
v -0.437500 0.437500 0.125000
v -0.437500 0.500000 0.125000
v -0.437500 0.562500 0.125000
v -0.437500 0.625000 0.125000
v -0.437500 0.687500 0.125000
v -0.437500 0.750000 0.125000
v -0.437500 0.812500 0.125000
v -0.437500 0.875000 0.125000
v -0.375000 0.875000 0.125000
v -0.437500 0.000000 0.187500
v -0.437500 0.062500 0.187500
v -0.375000 0.000000 0.187500
v -0.437500 0.125000 0.187500
v -0.437500 0.187500 0.187500
v -0.437500 0.250000 0.187500
v -0.437500 0.312500 0.187500
v -0.437500 0.375000 0.187500
v -0.437500 0.437500 0.187500
v -0.437500 0.500000 0.187500
v -0.437500 0.562500 0.187500
v -0.437500 0.625000 0.187500
v -0.437500 0.687500 0.187500
v -0.437500 0.750000 0.187500
v -0.437500 0.812500 0.187500
v -0.437500 0.875000 0.187500
v -0.375000 0.875000 0.187500
v -0.437500 0.000000 0.250000
v -0.437500 0.062500 0.250000
v -0.375000 0.000000 0.250000
v -0.437500 0.125000 0.250000
v -0.437500 0.187500 0.250000
v -0.437500 0.250000 0.250000
v -0.437500 0.312500 0.250000
v -0.437500 0.375000 0.250000
v -0.437500 0.437500 0.250000
v -0.437500 0.500000 0.250000
v -0.437500 0.562500 0.250000
v -0.437500 0.625000 0.250000
v -0.437500 0.687500 0.250000
v -0.437500 0.750000 0.250000
v -0.437500 0.812500 0.250000
v -0.437500 0.875000 0.250000
v -0.375000 0.875000 0.250000
v -0.437500 0.000000 0.312500
v -0.437500 0.062500 0.312500
v -0.375000 0.000000 0.312500
v -0.437500 0.125000 0.312500
v -0.437500 0.187500 0.312500
v -0.437500 0.250000 0.312500
v -0.437500 0.312500 0.312500
v -0.437500 0.375000 0.312500
v -0.437500 0.437500 0.312500
v -0.437500 0.500000 0.312500
v -0.437500 0.562500 0.312500
v -0.437500 0.625000 0.312500
v -0.437500 0.687500 0.312500
v -0.437500 0.750000 0.312500
v -0.437500 0.812500 0.312500
v -0.437500 0.875000 0.312500
v -0.375000 0.875000 0.312500
v -0.437500 0.000000 0.375000
v -0.437500 0.062500 0.375000
v -0.375000 0.000000 0.375000
v -0.437500 0.125000 0.375000
v -0.437500 0.187500 0.375000
v -0.437500 0.250000 0.375000
v -0.437500 0.312500 0.375000
v -0.437500 0.375000 0.375000
v -0.437500 0.437500 0.375000
v -0.437500 0.500000 0.375000
v -0.437500 0.562500 0.375000
v -0.437500 0.625000 0.375000
v -0.437500 0.687500 0.375000
v -0.437500 0.750000 0.375000
v -0.437500 0.812500 0.375000
v -0.437500 0.875000 0.375000
v -0.375000 0.875000 0.375000
v -0.437500 0.000000 0.437500
v -0.437500 0.062500 0.437500
v -0.375000 0.000000 0.437500
v -0.375000 0.062500 0.437500
v -0.437500 0.125000 0.437500
v -0.375000 0.125000 0.437500
v -0.437500 0.187500 0.437500
v -0.375000 0.187500 0.437500
v -0.437500 0.250000 0.437500
v -0.375000 0.250000 0.437500
v -0.437500 0.312500 0.437500
v -0.375000 0.312500 0.437500
v -0.437500 0.375000 0.437500
v -0.375000 0.375000 0.437500
v -0.437500 0.437500 0.437500
v -0.375000 0.437500 0.437500
v -0.437500 0.500000 0.437500
v -0.375000 0.500000 0.437500
v -0.437500 0.562500 0.437500
v -0.375000 0.562500 0.437500
v -0.437500 0.625000 0.437500
v -0.375000 0.625000 0.437500
v -0.437500 0.687500 0.437500
v -0.375000 0.687500 0.437500
v -0.437500 0.750000 0.437500
v -0.375000 0.750000 0.437500
v -0.437500 0.812500 0.437500
v -0.375000 0.812500 0.437500
v -0.437500 0.875000 0.437500
v -0.375000 0.875000 0.437500
v -0.312500 0.062500 -0.500000
v -0.312500 0.062500 -0.437500
v -0.312500 0.000000 -0.437500
v -0.312500 0.000000 -0.500000
v -0.312500 0.125000 -0.500000
v -0.312500 0.187500 -0.500000
v -0.375000 0.250000 -0.500000
v -0.312500 0.250000 -0.500000
v -0.375000 0.312500 -0.500000
v -0.312500 0.312500 -0.500000
v -0.312500 0.312500 -0.437500
v -0.312500 0.250000 -0.437500
v -0.375000 0.375000 -0.500000
v -0.312500 0.375000 -0.500000
v -0.312500 0.375000 -0.437500
v -0.375000 0.437500 -0.500000
v -0.312500 0.437500 -0.500000
v -0.312500 0.437500 -0.437500
v -0.375000 0.500000 -0.500000
v -0.312500 0.500000 -0.500000
v -0.312500 0.500000 -0.437500
v -0.375000 0.562500 -0.500000
v -0.312500 0.562500 -0.500000
v -0.312500 0.562500 -0.437500
v -0.375000 0.625000 -0.500000
v -0.312500 0.625000 -0.500000
v -0.312500 0.625000 -0.437500
v -0.312500 0.687500 -0.500000
v -0.312500 0.687500 -0.437500
v -0.312500 0.750000 -0.500000
v -0.312500 0.812500 -0.500000
v -0.375000 0.875000 -0.500000
v -0.312500 0.875000 -0.500000
v -0.312500 0.875000 -0.437500
v -0.312500 0.812500 -0.437500
v -0.312500 0.000000 -0.375000
v -0.312500 0.875000 -0.375000
v -0.312500 0.000000 -0.312500
v -0.312500 0.875000 -0.312500
v -0.312500 0.000000 -0.250000
v -0.312500 0.875000 -0.250000
v -0.312500 0.000000 -0.187500
v -0.312500 0.875000 -0.187500
v -0.312500 0.000000 -0.125000
v -0.312500 0.875000 -0.125000
v -0.312500 0.000000 -0.062500
v -0.312500 0.875000 -0.062500
v -0.312500 0.000000 0.000000
v -0.312500 0.875000 0.000000
v -0.312500 0.000000 0.062500
v -0.312500 0.875000 0.062500
v -0.312500 0.000000 0.125000
v -0.312500 0.875000 0.125000
v -0.312500 0.000000 0.187500
v -0.312500 0.875000 0.187500
v -0.312500 0.000000 0.250000
v -0.312500 0.875000 0.250000
v -0.312500 0.000000 0.312500
v -0.312500 0.875000 0.312500
v -0.312500 0.000000 0.375000
v -0.312500 0.875000 0.375000
v -0.312500 0.000000 0.437500
v -0.312500 0.062500 0.437500
v -0.312500 0.125000 0.437500
v -0.312500 0.187500 0.437500
v -0.312500 0.250000 0.437500
v -0.312500 0.312500 0.437500
v -0.312500 0.375000 0.437500
v -0.312500 0.437500 0.437500
v -0.312500 0.500000 0.437500
v -0.312500 0.562500 0.437500
v -0.312500 0.625000 0.437500
v -0.312500 0.687500 0.437500
v -0.312500 0.750000 0.437500
v -0.312500 0.812500 0.437500
v -0.312500 0.875000 0.437500
v -0.250000 0.125000 -0.500000
v -0.250000 0.062500 -0.500000
v -0.250000 0.062500 -0.437500
v -0.250000 0.187500 -0.500000
v -0.250000 0.250000 -0.500000
v -0.250000 0.250000 -0.437500
v -0.250000 0.750000 -0.500000
v -0.250000 0.687500 -0.500000
v -0.250000 0.687500 -0.437500
v -0.250000 0.812500 -0.500000
v -0.250000 0.812500 -0.437500
v -0.250000 0.000000 -0.437500
v -0.250000 0.000000 -0.375000
v -0.250000 0.312500 -0.437500
v -0.250000 0.375000 -0.437500
v -0.250000 0.437500 -0.437500
v -0.250000 0.500000 -0.437500
v -0.250000 0.562500 -0.437500
v -0.250000 0.625000 -0.437500
v -0.250000 0.875000 -0.437500
v -0.250000 0.875000 -0.375000
v -0.250000 0.000000 -0.312500
v -0.250000 0.875000 -0.312500
v -0.250000 0.000000 -0.250000
v -0.250000 0.875000 -0.250000
v -0.250000 0.000000 -0.187500
v -0.250000 0.875000 -0.187500
v -0.250000 0.000000 -0.125000
v -0.250000 0.875000 -0.125000
v -0.250000 0.000000 -0.062500
v -0.250000 0.875000 -0.062500
v -0.250000 0.000000 0.000000
v -0.250000 0.875000 0.000000
v -0.250000 0.000000 0.062500
v -0.250000 0.875000 0.062500
v -0.250000 0.000000 0.125000
v -0.250000 0.875000 0.125000
v -0.250000 0.000000 0.187500
v -0.250000 0.875000 0.187500
v -0.250000 0.000000 0.250000
v -0.250000 0.875000 0.250000
v -0.250000 0.000000 0.312500
v -0.250000 0.875000 0.312500
v -0.250000 0.000000 0.375000
v -0.250000 0.875000 0.375000
v -0.250000 0.000000 0.437500
v -0.250000 0.062500 0.437500
v -0.250000 0.125000 0.437500
v -0.250000 0.187500 0.437500
v -0.250000 0.250000 0.437500
v -0.250000 0.312500 0.437500
v -0.250000 0.375000 0.437500
v -0.250000 0.437500 0.437500
v -0.250000 0.500000 0.437500
v -0.250000 0.562500 0.437500
v -0.250000 0.625000 0.437500
v -0.250000 0.687500 0.437500
v -0.250000 0.750000 0.437500
v -0.250000 0.812500 0.437500
v -0.250000 0.875000 0.437500
v -0.187500 0.125000 -0.500000
v -0.187500 0.062500 -0.500000
v -0.187500 0.062500 -0.437500
v -0.187500 0.187500 -0.500000
v -0.187500 0.250000 -0.500000
v -0.250000 0.312500 -0.500000
v -0.187500 0.312500 -0.500000
v -0.187500 0.312500 -0.437500
v -0.187500 0.750000 -0.500000
v -0.187500 0.687500 -0.500000
v -0.187500 0.687500 -0.437500
v -0.187500 0.812500 -0.500000
v -0.187500 0.812500 -0.437500
v -0.187500 0.000000 -0.437500
v -0.187500 0.000000 -0.375000
v -0.187500 0.375000 -0.437500
v -0.187500 0.437500 -0.437500
v -0.187500 0.500000 -0.437500
v -0.187500 0.562500 -0.437500
v -0.187500 0.625000 -0.437500
v -0.187500 0.875000 -0.437500
v -0.187500 0.875000 -0.375000
v -0.187500 0.000000 -0.312500
v -0.187500 0.875000 -0.312500
v -0.187500 0.000000 -0.250000
v -0.187500 0.875000 -0.250000
v -0.187500 0.000000 -0.187500
v -0.187500 0.875000 -0.187500
v -0.187500 0.000000 -0.125000
v -0.187500 0.875000 -0.125000
v -0.187500 0.000000 -0.062500
v -0.187500 0.875000 -0.062500
v -0.187500 0.000000 0.000000
v -0.187500 0.875000 0.000000
v -0.187500 0.000000 0.062500
v -0.187500 0.875000 0.062500
v -0.187500 0.000000 0.125000
v -0.187500 0.875000 0.125000
v -0.187500 0.000000 0.187500
v -0.187500 0.875000 0.187500
v -0.187500 0.000000 0.250000
v -0.187500 0.875000 0.250000
v -0.187500 0.000000 0.312500
v -0.187500 0.875000 0.312500
v -0.187500 0.000000 0.375000
v -0.187500 0.875000 0.375000
v -0.187500 0.000000 0.437500
v -0.187500 0.062500 0.437500
v -0.187500 0.125000 0.437500
v -0.187500 0.187500 0.437500
v -0.187500 0.250000 0.437500
v -0.187500 0.312500 0.437500
v -0.187500 0.375000 0.437500
v -0.187500 0.437500 0.437500
v -0.187500 0.500000 0.437500
v -0.187500 0.562500 0.437500
v -0.187500 0.625000 0.437500
v -0.187500 0.687500 0.437500
v -0.187500 0.750000 0.437500
v -0.187500 0.812500 0.437500
v -0.187500 0.875000 0.437500
v -0.125000 0.125000 -0.500000
v -0.125000 0.062500 -0.500000
v -0.125000 0.062500 -0.437500
v -0.125000 0.187500 -0.500000
v -0.125000 0.250000 -0.500000
v -0.125000 0.250000 -0.437500
v -0.125000 0.187500 -0.437500
v -0.125000 0.312500 -0.500000
v -0.187500 0.375000 -0.500000
v -0.125000 0.375000 -0.500000
v -0.125000 0.375000 -0.437500
v -0.125000 0.750000 -0.500000
v -0.125000 0.687500 -0.500000
v -0.125000 0.687500 -0.437500
v -0.125000 0.812500 -0.500000
v -0.125000 0.812500 -0.437500
v -0.125000 0.000000 -0.437500
v -0.125000 0.000000 -0.375000
v -0.125000 0.437500 -0.437500
v -0.125000 0.500000 -0.437500
v -0.125000 0.562500 -0.437500
v -0.125000 0.625000 -0.437500
v -0.125000 0.875000 -0.437500
v -0.125000 0.875000 -0.375000
v -0.125000 0.000000 -0.312500
v -0.125000 0.875000 -0.312500
v -0.125000 0.000000 -0.250000
v -0.125000 0.875000 -0.250000
v -0.125000 0.000000 -0.187500
v -0.125000 0.875000 -0.187500
v -0.125000 0.000000 -0.125000
v -0.125000 0.875000 -0.125000
v -0.125000 0.000000 -0.062500
v -0.125000 0.875000 -0.062500
v -0.125000 0.000000 0.000000
v -0.125000 0.875000 0.000000
v -0.125000 0.000000 0.062500
v -0.125000 0.875000 0.062500
v -0.125000 0.000000 0.125000
v -0.125000 0.875000 0.125000
v -0.125000 0.000000 0.187500
v -0.125000 0.875000 0.187500
v -0.125000 0.000000 0.250000
v -0.125000 0.875000 0.250000
v -0.125000 0.000000 0.312500
v -0.125000 0.875000 0.312500
v -0.125000 0.000000 0.375000
v -0.125000 0.875000 0.375000
v -0.125000 0.000000 0.437500
v -0.125000 0.062500 0.437500
v -0.125000 0.125000 0.437500
v -0.125000 0.187500 0.437500
v -0.125000 0.250000 0.437500
v -0.125000 0.312500 0.437500
v -0.125000 0.375000 0.437500
v -0.125000 0.437500 0.437500
v -0.125000 0.500000 0.437500
v -0.125000 0.562500 0.437500
v -0.125000 0.625000 0.437500
v -0.125000 0.687500 0.437500
v -0.125000 0.750000 0.437500
v -0.125000 0.812500 0.437500
v -0.125000 0.875000 0.437500
v -0.062500 0.125000 -0.500000
v -0.062500 0.062500 -0.500000
v -0.062500 0.062500 -0.437500
v -0.062500 0.187500 -0.500000
v -0.062500 0.187500 -0.437500
v -0.062500 0.312500 -0.500000
v -0.062500 0.250000 -0.500000
v -0.062500 0.250000 -0.437500
v -0.062500 0.375000 -0.500000
v -0.125000 0.437500 -0.500000
v -0.062500 0.437500 -0.500000
v -0.062500 0.437500 -0.437500
v -0.062500 0.750000 -0.500000
v -0.062500 0.687500 -0.500000
v -0.062500 0.687500 -0.437500
v -0.062500 0.812500 -0.500000
v -0.062500 0.812500 -0.437500
v -0.062500 0.000000 -0.437500
v -0.062500 0.000000 -0.375000
v -0.062500 0.500000 -0.437500
v -0.062500 0.562500 -0.437500
v -0.062500 0.625000 -0.437500
v -0.062500 0.875000 -0.437500
v -0.062500 0.875000 -0.375000
v -0.062500 0.000000 -0.312500
v -0.062500 0.875000 -0.312500
v -0.062500 0.000000 -0.250000
v -0.062500 0.875000 -0.250000
v -0.062500 0.000000 -0.187500
v -0.062500 0.875000 -0.187500
v -0.062500 0.000000 -0.125000
v -0.062500 0.875000 -0.125000
v -0.062500 0.000000 -0.062500
v -0.062500 0.875000 -0.062500
v -0.062500 0.000000 0.000000
v -0.062500 0.875000 0.000000
v -0.062500 0.000000 0.062500
v -0.062500 0.875000 0.062500
v -0.062500 0.000000 0.125000
v -0.062500 0.875000 0.125000
v -0.062500 0.000000 0.187500
v -0.062500 0.875000 0.187500
v -0.062500 0.000000 0.250000
v -0.062500 0.875000 0.250000
v -0.062500 0.000000 0.312500
v -0.062500 0.875000 0.312500
v -0.062500 0.000000 0.375000
v -0.062500 0.875000 0.375000
v -0.062500 0.000000 0.437500
v -0.062500 0.062500 0.437500
v -0.062500 0.125000 0.437500
v -0.062500 0.187500 0.437500
v -0.062500 0.250000 0.437500
v -0.062500 0.312500 0.437500
v -0.062500 0.375000 0.437500
v -0.062500 0.437500 0.437500
v -0.062500 0.500000 0.437500
v -0.062500 0.562500 0.437500
v -0.062500 0.625000 0.437500
v -0.062500 0.687500 0.437500
v -0.062500 0.750000 0.437500
v -0.062500 0.812500 0.437500
v -0.062500 0.875000 0.437500
v -0.062500 0.000000 -0.500000
v 0.000000 0.062500 -0.500000
v 0.000000 0.062500 -0.437500
v 0.000000 0.000000 -0.437500
v 0.000000 0.000000 -0.500000
v 0.000000 0.125000 -0.500000
v 0.000000 0.187500 -0.500000
v 0.000000 0.250000 -0.500000
v 0.000000 0.250000 -0.437500
v 0.000000 0.187500 -0.437500
v 0.000000 0.312500 -0.500000
v 0.000000 0.312500 -0.437500
v 0.000000 0.375000 -0.500000
v 0.000000 0.375000 -0.437500
v 0.000000 0.437500 -0.500000
v -0.062500 0.500000 -0.500000
v 0.000000 0.500000 -0.500000
v -0.062500 0.562500 -0.500000
v 0.000000 0.562500 -0.500000
v -0.062500 0.625000 -0.500000
v 0.000000 0.625000 -0.500000
v 0.000000 0.625000 -0.437500
v 0.000000 0.562500 -0.437500
v 0.000000 0.687500 -0.500000
v 0.000000 0.687500 -0.437500
v 0.000000 0.750000 -0.500000
v 0.000000 0.812500 -0.500000
v -0.062500 0.875000 -0.500000
v 0.000000 0.875000 -0.500000
v 0.000000 0.875000 -0.437500
v 0.000000 0.812500 -0.437500
v 0.000000 0.000000 -0.375000
v 0.000000 0.875000 -0.375000
v 0.000000 0.000000 -0.312500
v 0.000000 0.875000 -0.312500
v 0.000000 0.000000 -0.250000
v 0.000000 0.875000 -0.250000
v 0.000000 0.000000 -0.187500
v 0.000000 0.875000 -0.187500
v 0.000000 0.000000 -0.125000
v 0.000000 0.875000 -0.125000
v 0.000000 0.000000 -0.062500
v 0.000000 0.875000 -0.062500
v 0.000000 0.000000 0.000000
v 0.000000 0.875000 0.000000
v 0.000000 0.000000 0.062500
v 0.000000 0.875000 0.062500
v 0.000000 0.000000 0.125000
v 0.000000 0.875000 0.125000
v 0.000000 0.000000 0.187500
v 0.000000 0.875000 0.187500
v 0.000000 0.000000 0.250000
v 0.000000 0.875000 0.250000
v 0.000000 0.000000 0.312500
v 0.000000 0.875000 0.312500
v 0.000000 0.000000 0.375000
v 0.000000 0.875000 0.375000
v 0.000000 0.000000 0.437500
v 0.000000 0.062500 0.437500
v 0.000000 0.125000 0.437500
v 0.000000 0.187500 0.437500
v 0.000000 0.250000 0.437500
v 0.000000 0.312500 0.437500
v 0.000000 0.375000 0.437500
v 0.000000 0.437500 0.437500
v 0.000000 0.500000 0.437500
v 0.000000 0.562500 0.437500
v 0.000000 0.625000 0.437500
v 0.000000 0.687500 0.437500
v 0.000000 0.750000 0.437500
v 0.000000 0.812500 0.437500
v 0.000000 0.875000 0.437500
v 0.062500 0.125000 -0.500000
v 0.062500 0.062500 -0.500000
v 0.062500 0.062500 -0.437500
v 0.062500 0.187500 -0.500000
v 0.062500 0.187500 -0.437500
v 0.062500 0.437500 -0.500000
v 0.062500 0.437500 -0.437500
v 0.062500 0.375000 -0.437500
v 0.062500 0.375000 -0.500000
v 0.062500 0.500000 -0.500000
v 0.062500 0.562500 -0.500000
v 0.062500 0.562500 -0.437500
v 0.062500 0.750000 -0.500000
v 0.062500 0.687500 -0.500000
v 0.062500 0.687500 -0.437500
v 0.062500 0.812500 -0.500000
v 0.062500 0.812500 -0.437500
v 0.062500 0.000000 -0.437500
v 0.062500 0.000000 -0.375000
v 0.062500 0.250000 -0.437500
v 0.062500 0.312500 -0.437500
v 0.062500 0.625000 -0.437500
v 0.062500 0.875000 -0.437500
v 0.062500 0.875000 -0.375000
v 0.062500 0.000000 -0.312500
v 0.062500 0.875000 -0.312500
v 0.062500 0.000000 -0.250000
v 0.062500 0.875000 -0.250000
v 0.062500 0.000000 -0.187500
v 0.062500 0.875000 -0.187500
v 0.062500 0.000000 -0.125000
v 0.062500 0.875000 -0.125000
v 0.062500 0.000000 -0.062500
v 0.062500 0.875000 -0.062500
v 0.062500 0.000000 0.000000
v 0.062500 0.875000 0.000000
v 0.062500 0.000000 0.062500
v 0.062500 0.875000 0.062500
v 0.062500 0.000000 0.125000
v 0.062500 0.875000 0.125000
v 0.062500 0.000000 0.187500
v 0.062500 0.875000 0.187500
v 0.062500 0.000000 0.250000
v 0.062500 0.875000 0.250000
v 0.062500 0.000000 0.312500
v 0.062500 0.875000 0.312500
v 0.062500 0.000000 0.375000
v 0.062500 0.875000 0.375000
v 0.062500 0.000000 0.437500
v 0.062500 0.062500 0.437500
v 0.062500 0.125000 0.437500
v 0.062500 0.187500 0.437500
v 0.062500 0.250000 0.437500
v 0.062500 0.312500 0.437500
v 0.062500 0.375000 0.437500
v 0.062500 0.437500 0.437500
v 0.062500 0.500000 0.437500
v 0.062500 0.562500 0.437500
v 0.062500 0.625000 0.437500
v 0.062500 0.687500 0.437500
v 0.062500 0.750000 0.437500
v 0.062500 0.812500 0.437500
v 0.062500 0.875000 0.437500
v 0.125000 0.125000 -0.500000
v 0.125000 0.062500 -0.500000
v 0.125000 0.062500 -0.437500
v 0.125000 0.187500 -0.500000
v 0.125000 0.187500 -0.437500
v 0.125000 0.500000 -0.500000
v 0.125000 0.500000 -0.437500
v 0.125000 0.437500 -0.437500
v 0.125000 0.437500 -0.500000
v 0.125000 0.562500 -0.500000
v 0.062500 0.625000 -0.500000
v 0.125000 0.625000 -0.500000
v 0.125000 0.625000 -0.437500
v 0.125000 0.750000 -0.500000
v 0.125000 0.687500 -0.500000
v 0.125000 0.687500 -0.437500
v 0.125000 0.812500 -0.500000
v 0.125000 0.812500 -0.437500
v 0.125000 0.000000 -0.437500
v 0.125000 0.000000 -0.375000
v 0.125000 0.250000 -0.437500
v 0.125000 0.312500 -0.437500
v 0.125000 0.375000 -0.437500
v 0.125000 0.875000 -0.437500
v 0.125000 0.875000 -0.375000
v 0.125000 0.000000 -0.312500
v 0.125000 0.875000 -0.312500
v 0.125000 0.000000 -0.250000
v 0.125000 0.875000 -0.250000
v 0.125000 0.000000 -0.187500
v 0.125000 0.875000 -0.187500
v 0.125000 0.000000 -0.125000
v 0.125000 0.875000 -0.125000
v 0.125000 0.000000 -0.062500
v 0.125000 0.875000 -0.062500
v 0.125000 0.000000 0.000000
v 0.125000 0.875000 0.000000
v 0.125000 0.000000 0.062500
v 0.125000 0.875000 0.062500
v 0.125000 0.000000 0.125000
v 0.125000 0.875000 0.125000
v 0.125000 0.000000 0.187500
v 0.125000 0.875000 0.187500
v 0.125000 0.000000 0.250000
v 0.125000 0.875000 0.250000
v 0.125000 0.000000 0.312500
v 0.125000 0.875000 0.312500
v 0.125000 0.000000 0.375000
v 0.125000 0.875000 0.375000
v 0.125000 0.000000 0.437500
v 0.125000 0.062500 0.437500
v 0.125000 0.125000 0.437500
v 0.125000 0.187500 0.437500
v 0.125000 0.250000 0.437500
v 0.125000 0.312500 0.437500
v 0.125000 0.375000 0.437500
v 0.125000 0.437500 0.437500
v 0.125000 0.500000 0.437500
v 0.125000 0.562500 0.437500
v 0.125000 0.625000 0.437500
v 0.125000 0.687500 0.437500
v 0.125000 0.750000 0.437500
v 0.125000 0.812500 0.437500
v 0.125000 0.875000 0.437500
v 0.187500 0.125000 -0.500000
v 0.187500 0.062500 -0.500000
v 0.187500 0.062500 -0.437500
v 0.187500 0.187500 -0.500000
v 0.187500 0.187500 -0.437500
v 0.187500 0.562500 -0.500000
v 0.187500 0.562500 -0.437500
v 0.187500 0.500000 -0.437500
v 0.187500 0.500000 -0.500000
v 0.187500 0.625000 -0.500000
v 0.187500 0.687500 -0.500000
v 0.187500 0.750000 -0.500000
v 0.187500 0.812500 -0.500000
v 0.187500 0.812500 -0.437500
v 0.187500 0.000000 -0.437500
v 0.187500 0.000000 -0.375000
v 0.187500 0.250000 -0.437500
v 0.187500 0.312500 -0.437500
v 0.187500 0.375000 -0.437500
v 0.187500 0.437500 -0.437500
v 0.187500 0.875000 -0.437500
v 0.187500 0.875000 -0.375000
v 0.187500 0.000000 -0.312500
v 0.187500 0.875000 -0.312500
v 0.187500 0.000000 -0.250000
v 0.187500 0.875000 -0.250000
v 0.187500 0.000000 -0.187500
v 0.187500 0.875000 -0.187500
v 0.187500 0.000000 -0.125000
v 0.187500 0.875000 -0.125000
v 0.187500 0.000000 -0.062500
v 0.187500 0.875000 -0.062500
v 0.187500 0.000000 0.000000
v 0.187500 0.875000 0.000000
v 0.187500 0.000000 0.062500
v 0.187500 0.875000 0.062500
v 0.187500 0.000000 0.125000
v 0.187500 0.875000 0.125000
v 0.187500 0.000000 0.187500
v 0.187500 0.875000 0.187500
v 0.187500 0.000000 0.250000
v 0.187500 0.875000 0.250000
v 0.187500 0.000000 0.312500
v 0.187500 0.875000 0.312500
v 0.187500 0.000000 0.375000
v 0.187500 0.875000 0.375000
v 0.187500 0.000000 0.437500
v 0.187500 0.062500 0.437500
v 0.187500 0.125000 0.437500
v 0.187500 0.187500 0.437500
v 0.187500 0.250000 0.437500
v 0.187500 0.312500 0.437500
v 0.187500 0.375000 0.437500
v 0.187500 0.437500 0.437500
v 0.187500 0.500000 0.437500
v 0.187500 0.562500 0.437500
v 0.187500 0.625000 0.437500
v 0.187500 0.687500 0.437500
v 0.187500 0.750000 0.437500
v 0.187500 0.812500 0.437500
v 0.187500 0.875000 0.437500
v 0.250000 0.125000 -0.500000
v 0.250000 0.062500 -0.500000
v 0.250000 0.062500 -0.437500
v 0.250000 0.187500 -0.500000
v 0.250000 0.187500 -0.437500
v 0.250000 0.625000 -0.500000
v 0.250000 0.562500 -0.500000
v 0.250000 0.562500 -0.437500
v 0.250000 0.687500 -0.500000
v 0.250000 0.750000 -0.500000
v 0.250000 0.812500 -0.500000
v 0.250000 0.812500 -0.437500
v 0.250000 0.000000 -0.437500
v 0.250000 0.000000 -0.375000
v 0.250000 0.250000 -0.437500
v 0.250000 0.312500 -0.437500
v 0.250000 0.375000 -0.437500
v 0.250000 0.437500 -0.437500
v 0.250000 0.500000 -0.437500
v 0.250000 0.875000 -0.437500
v 0.250000 0.875000 -0.375000
v 0.250000 0.000000 -0.312500
v 0.250000 0.875000 -0.312500
v 0.250000 0.000000 -0.250000
v 0.250000 0.875000 -0.250000
v 0.250000 0.000000 -0.187500
v 0.250000 0.875000 -0.187500
v 0.250000 0.000000 -0.125000
v 0.250000 0.875000 -0.125000
v 0.250000 0.000000 -0.062500
v 0.250000 0.875000 -0.062500
v 0.250000 0.000000 0.000000
v 0.250000 0.875000 0.000000
v 0.250000 0.000000 0.062500
v 0.250000 0.875000 0.062500
v 0.250000 0.000000 0.125000
v 0.250000 0.875000 0.125000
v 0.250000 0.000000 0.187500
v 0.250000 0.875000 0.187500
v 0.250000 0.000000 0.250000
v 0.250000 0.875000 0.250000
v 0.250000 0.000000 0.312500
v 0.250000 0.875000 0.312500
v 0.250000 0.000000 0.375000
v 0.250000 0.875000 0.375000
v 0.250000 0.000000 0.437500
v 0.250000 0.062500 0.437500
v 0.250000 0.125000 0.437500
v 0.250000 0.187500 0.437500
v 0.250000 0.250000 0.437500
v 0.250000 0.312500 0.437500
v 0.250000 0.375000 0.437500
v 0.250000 0.437500 0.437500
v 0.250000 0.500000 0.437500
v 0.250000 0.562500 0.437500
v 0.250000 0.625000 0.437500
v 0.250000 0.687500 0.437500
v 0.250000 0.750000 0.437500
v 0.250000 0.812500 0.437500
v 0.250000 0.875000 0.437500
v 0.250000 0.000000 -0.500000
v 0.312500 0.062500 -0.500000
v 0.312500 0.062500 -0.437500
v 0.312500 0.000000 -0.437500
v 0.312500 0.000000 -0.500000
v 0.312500 0.125000 -0.500000
v 0.312500 0.187500 -0.500000
v 0.250000 0.250000 -0.500000
v 0.312500 0.250000 -0.500000
v 0.312500 0.250000 -0.437500
v 0.312500 0.187500 -0.437500
v 0.250000 0.312500 -0.500000
v 0.312500 0.312500 -0.500000
v 0.312500 0.312500 -0.437500
v 0.250000 0.375000 -0.500000
v 0.312500 0.375000 -0.500000
v 0.312500 0.375000 -0.437500
v 0.250000 0.437500 -0.500000
v 0.312500 0.437500 -0.500000
v 0.312500 0.437500 -0.437500
v 0.250000 0.500000 -0.500000
v 0.312500 0.500000 -0.500000
v 0.312500 0.500000 -0.437500
v 0.312500 0.562500 -0.500000
v 0.312500 0.562500 -0.437500
v 0.312500 0.625000 -0.500000
v 0.312500 0.625000 -0.437500
v 0.312500 0.687500 -0.500000
v 0.312500 0.687500 -0.437500
v 0.312500 0.750000 -0.500000
v 0.312500 0.812500 -0.500000
v 0.250000 0.875000 -0.500000
v 0.312500 0.875000 -0.500000
v 0.312500 0.875000 -0.437500
v 0.312500 0.000000 -0.375000
v 0.312500 0.875000 -0.375000
v 0.312500 0.000000 -0.312500
v 0.312500 0.875000 -0.312500
v 0.312500 0.000000 -0.250000
v 0.312500 0.875000 -0.250000
v 0.312500 0.000000 -0.187500
v 0.312500 0.875000 -0.187500
v 0.312500 0.000000 -0.125000
v 0.312500 0.875000 -0.125000
v 0.312500 0.000000 -0.062500
v 0.312500 0.875000 -0.062500
v 0.312500 0.000000 0.000000
v 0.312500 0.875000 0.000000
v 0.312500 0.000000 0.062500
v 0.312500 0.875000 0.062500
v 0.312500 0.000000 0.125000
v 0.312500 0.875000 0.125000
v 0.312500 0.000000 0.187500
v 0.312500 0.875000 0.187500
v 0.312500 0.000000 0.250000
v 0.312500 0.875000 0.250000
v 0.312500 0.000000 0.312500
v 0.312500 0.875000 0.312500
v 0.312500 0.000000 0.375000
v 0.312500 0.875000 0.375000
v 0.312500 0.000000 0.437500
v 0.312500 0.062500 0.437500
v 0.312500 0.125000 0.437500
v 0.312500 0.187500 0.437500
v 0.312500 0.250000 0.437500
v 0.312500 0.312500 0.437500
v 0.312500 0.375000 0.437500
v 0.312500 0.437500 0.437500
v 0.312500 0.500000 0.437500
v 0.312500 0.562500 0.437500
v 0.312500 0.625000 0.437500
v 0.312500 0.687500 0.437500
v 0.312500 0.750000 0.437500
v 0.312500 0.812500 0.437500
v 0.312500 0.875000 0.437500
v 0.375000 0.125000 -0.500000
v 0.375000 0.062500 -0.500000
v 0.375000 0.062500 -0.437500
v 0.375000 0.187500 -0.500000
v 0.375000 0.187500 -0.437500
v 0.375000 0.750000 -0.500000
v 0.375000 0.687500 -0.500000
v 0.375000 0.687500 -0.437500
v 0.375000 0.812500 -0.500000
v 0.375000 0.875000 -0.500000
v 0.375000 0.875000 -0.437500
v 0.375000 0.000000 -0.437500
v 0.375000 0.000000 -0.375000
v 0.375000 0.250000 -0.437500
v 0.375000 0.312500 -0.437500
v 0.375000 0.375000 -0.437500
v 0.375000 0.437500 -0.437500
v 0.375000 0.500000 -0.437500
v 0.375000 0.562500 -0.437500
v 0.375000 0.625000 -0.437500
v 0.375000 0.875000 -0.375000
v 0.375000 0.000000 -0.312500
v 0.375000 0.875000 -0.312500
v 0.375000 0.000000 -0.250000
v 0.375000 0.875000 -0.250000
v 0.375000 0.000000 -0.187500
v 0.375000 0.875000 -0.187500
v 0.375000 0.000000 -0.125000
v 0.375000 0.875000 -0.125000
v 0.375000 0.000000 -0.062500
v 0.375000 0.875000 -0.062500
v 0.375000 0.000000 0.000000
v 0.375000 0.875000 0.000000
v 0.375000 0.000000 0.062500
v 0.375000 0.875000 0.062500
v 0.375000 0.000000 0.125000
v 0.375000 0.875000 0.125000
v 0.375000 0.000000 0.187500
v 0.375000 0.875000 0.187500
v 0.375000 0.000000 0.250000
v 0.375000 0.875000 0.250000
v 0.375000 0.000000 0.312500
v 0.375000 0.875000 0.312500
v 0.375000 0.000000 0.375000
v 0.375000 0.875000 0.375000
v 0.375000 0.000000 0.437500
v 0.375000 0.062500 0.437500
v 0.375000 0.125000 0.437500
v 0.375000 0.187500 0.437500
v 0.375000 0.250000 0.437500
v 0.375000 0.312500 0.437500
v 0.375000 0.375000 0.437500
v 0.375000 0.437500 0.437500
v 0.375000 0.500000 0.437500
v 0.375000 0.562500 0.437500
v 0.375000 0.625000 0.437500
v 0.375000 0.687500 0.437500
v 0.375000 0.750000 0.437500
v 0.375000 0.812500 0.437500
v 0.375000 0.875000 0.437500
v 0.437500 0.125000 -0.500000
v 0.437500 0.125000 -0.437500
v 0.437500 0.062500 -0.437500
v 0.437500 0.062500 -0.500000
v 0.437500 0.187500 -0.500000
v 0.437500 0.187500 -0.437500
v 0.437500 0.750000 -0.500000
v 0.437500 0.750000 -0.437500
v 0.437500 0.687500 -0.437500
v 0.437500 0.687500 -0.500000
v 0.437500 0.812500 -0.500000
v 0.437500 0.812500 -0.437500
v 0.437500 0.875000 -0.500000
v 0.437500 0.875000 -0.437500
v 0.437500 0.062500 -0.375000
v 0.437500 0.000000 -0.375000
v 0.437500 0.000000 -0.437500
v 0.437500 0.125000 -0.375000
v 0.437500 0.187500 -0.375000
v 0.437500 0.250000 -0.437500
v 0.437500 0.250000 -0.375000
v 0.437500 0.312500 -0.437500
v 0.437500 0.312500 -0.375000
v 0.437500 0.375000 -0.437500
v 0.437500 0.375000 -0.375000
v 0.437500 0.437500 -0.437500
v 0.437500 0.437500 -0.375000
v 0.437500 0.500000 -0.437500
v 0.437500 0.500000 -0.375000
v 0.437500 0.562500 -0.437500
v 0.437500 0.562500 -0.375000
v 0.437500 0.625000 -0.437500
v 0.437500 0.625000 -0.375000
v 0.437500 0.687500 -0.375000
v 0.437500 0.750000 -0.375000
v 0.437500 0.812500 -0.375000
v 0.437500 0.875000 -0.375000
v 0.437500 0.062500 -0.312500
v 0.437500 0.000000 -0.312500
v 0.437500 0.125000 -0.312500
v 0.437500 0.187500 -0.312500
v 0.437500 0.250000 -0.312500
v 0.437500 0.312500 -0.312500
v 0.437500 0.375000 -0.312500
v 0.437500 0.437500 -0.312500
v 0.437500 0.500000 -0.312500
v 0.437500 0.562500 -0.312500
v 0.437500 0.625000 -0.312500
v 0.437500 0.687500 -0.312500
v 0.437500 0.750000 -0.312500
v 0.437500 0.812500 -0.312500
v 0.437500 0.875000 -0.312500
v 0.437500 0.062500 -0.250000
v 0.437500 0.000000 -0.250000
v 0.437500 0.125000 -0.250000
v 0.437500 0.187500 -0.250000
v 0.437500 0.250000 -0.250000
v 0.437500 0.312500 -0.250000
v 0.437500 0.375000 -0.250000
v 0.437500 0.437500 -0.250000
v 0.437500 0.500000 -0.250000
v 0.437500 0.562500 -0.250000
v 0.437500 0.625000 -0.250000
v 0.437500 0.687500 -0.250000
v 0.437500 0.750000 -0.250000
v 0.437500 0.812500 -0.250000
v 0.437500 0.875000 -0.250000
v 0.437500 0.062500 -0.187500
v 0.437500 0.000000 -0.187500
v 0.437500 0.125000 -0.187500
v 0.437500 0.187500 -0.187500
v 0.437500 0.250000 -0.187500
v 0.437500 0.312500 -0.187500
v 0.437500 0.375000 -0.187500
v 0.437500 0.437500 -0.187500
v 0.437500 0.500000 -0.187500
v 0.437500 0.562500 -0.187500
v 0.437500 0.625000 -0.187500
v 0.437500 0.687500 -0.187500
v 0.437500 0.750000 -0.187500
v 0.437500 0.812500 -0.187500
v 0.437500 0.875000 -0.187500
v 0.437500 0.062500 -0.125000
v 0.437500 0.000000 -0.125000
v 0.437500 0.125000 -0.125000
v 0.437500 0.187500 -0.125000
v 0.437500 0.250000 -0.125000
v 0.437500 0.312500 -0.125000
v 0.437500 0.375000 -0.125000
v 0.437500 0.437500 -0.125000
v 0.437500 0.500000 -0.125000
v 0.437500 0.562500 -0.125000
v 0.437500 0.625000 -0.125000
v 0.437500 0.687500 -0.125000
v 0.437500 0.750000 -0.125000
v 0.437500 0.812500 -0.125000
v 0.437500 0.875000 -0.125000
v 0.437500 0.062500 -0.062500
v 0.437500 0.000000 -0.062500
v 0.437500 0.125000 -0.062500
v 0.437500 0.187500 -0.062500
v 0.437500 0.250000 -0.062500
v 0.437500 0.312500 -0.062500
v 0.437500 0.375000 -0.062500
v 0.437500 0.437500 -0.062500
v 0.437500 0.500000 -0.062500
v 0.437500 0.562500 -0.062500
v 0.437500 0.625000 -0.062500
v 0.437500 0.687500 -0.062500
v 0.437500 0.750000 -0.062500
v 0.437500 0.812500 -0.062500
v 0.437500 0.875000 -0.062500
v 0.437500 0.062500 0.000000
v 0.437500 0.000000 0.000000
v 0.437500 0.125000 0.000000
v 0.437500 0.187500 0.000000
v 0.437500 0.250000 0.000000
v 0.437500 0.312500 0.000000
v 0.437500 0.375000 0.000000
v 0.437500 0.437500 0.000000
v 0.437500 0.500000 0.000000
v 0.437500 0.562500 0.000000
v 0.437500 0.625000 0.000000
v 0.437500 0.687500 0.000000
v 0.437500 0.750000 0.000000
v 0.437500 0.812500 0.000000
v 0.437500 0.875000 0.000000
v 0.437500 0.062500 0.062500
v 0.437500 0.000000 0.062500
v 0.437500 0.125000 0.062500
v 0.437500 0.187500 0.062500
v 0.437500 0.250000 0.062500
v 0.437500 0.312500 0.062500
v 0.437500 0.375000 0.062500
v 0.437500 0.437500 0.062500
v 0.437500 0.500000 0.062500
v 0.437500 0.562500 0.062500
v 0.437500 0.625000 0.062500
v 0.437500 0.687500 0.062500
v 0.437500 0.750000 0.062500
v 0.437500 0.812500 0.062500
v 0.437500 0.875000 0.062500
v 0.437500 0.062500 0.125000
v 0.437500 0.000000 0.125000
v 0.437500 0.125000 0.125000
v 0.437500 0.187500 0.125000
v 0.437500 0.250000 0.125000
v 0.437500 0.312500 0.125000
v 0.437500 0.375000 0.125000
v 0.437500 0.437500 0.125000
v 0.437500 0.500000 0.125000
v 0.437500 0.562500 0.125000
v 0.437500 0.625000 0.125000
v 0.437500 0.687500 0.125000
v 0.437500 0.750000 0.125000
v 0.437500 0.812500 0.125000
v 0.437500 0.875000 0.125000
v 0.437500 0.062500 0.187500
v 0.437500 0.000000 0.187500
v 0.437500 0.125000 0.187500
v 0.437500 0.187500 0.187500
v 0.437500 0.250000 0.187500
v 0.437500 0.312500 0.187500
v 0.437500 0.375000 0.187500
v 0.437500 0.437500 0.187500
v 0.437500 0.500000 0.187500
v 0.437500 0.562500 0.187500
v 0.437500 0.625000 0.187500
v 0.437500 0.687500 0.187500
v 0.437500 0.750000 0.187500
v 0.437500 0.812500 0.187500
v 0.437500 0.875000 0.187500
v 0.437500 0.062500 0.250000
v 0.437500 0.000000 0.250000
v 0.437500 0.125000 0.250000
v 0.437500 0.187500 0.250000
v 0.437500 0.250000 0.250000
v 0.437500 0.312500 0.250000
v 0.437500 0.375000 0.250000
v 0.437500 0.437500 0.250000
v 0.437500 0.500000 0.250000
v 0.437500 0.562500 0.250000
v 0.437500 0.625000 0.250000
v 0.437500 0.687500 0.250000
v 0.437500 0.750000 0.250000
v 0.437500 0.812500 0.250000
v 0.437500 0.875000 0.250000
v 0.437500 0.062500 0.312500
v 0.437500 0.000000 0.312500
v 0.437500 0.125000 0.312500
v 0.437500 0.187500 0.312500
v 0.437500 0.250000 0.312500
v 0.437500 0.312500 0.312500
v 0.437500 0.375000 0.312500
v 0.437500 0.437500 0.312500
v 0.437500 0.500000 0.312500
v 0.437500 0.562500 0.312500
v 0.437500 0.625000 0.312500
v 0.437500 0.687500 0.312500
v 0.437500 0.750000 0.312500
v 0.437500 0.812500 0.312500
v 0.437500 0.875000 0.312500
v 0.437500 0.062500 0.375000
v 0.437500 0.000000 0.375000
v 0.437500 0.125000 0.375000
v 0.437500 0.187500 0.375000
v 0.437500 0.250000 0.375000
v 0.437500 0.312500 0.375000
v 0.437500 0.375000 0.375000
v 0.437500 0.437500 0.375000
v 0.437500 0.500000 0.375000
v 0.437500 0.562500 0.375000
v 0.437500 0.625000 0.375000
v 0.437500 0.687500 0.375000
v 0.437500 0.750000 0.375000
v 0.437500 0.812500 0.375000
v 0.437500 0.875000 0.375000
v 0.437500 0.062500 0.437500
v 0.437500 0.000000 0.437500
v 0.437500 0.125000 0.437500
v 0.437500 0.187500 0.437500
v 0.437500 0.250000 0.437500
v 0.437500 0.312500 0.437500
v 0.437500 0.375000 0.437500
v 0.437500 0.437500 0.437500
v 0.437500 0.500000 0.437500
v 0.437500 0.562500 0.437500
v 0.437500 0.625000 0.437500
v 0.437500 0.687500 0.437500
v 0.437500 0.750000 0.437500
v 0.437500 0.812500 0.437500
v 0.437500 0.875000 0.437500
vt 0.03125000 0.96875000
vt 0.09375000 0.96875000
vt 0.15625000 0.96875000
vt 0.21875000 0.96875000
vt 0.28125000 0.96875000
vt 0.34375000 0.96875000
vt 0.40625000 0.96875000
vt 0.46875000 0.96875000
vt 0.53125000 0.96875000
vt 0.59375000 0.96875000
vt 0.65625000 0.96875000
vt 0.71875000 0.96875000
vt 0.78125000 0.96875000
vt 0.84375000 0.96875000
vt 0.90625000 0.96875000
vt 0.96875000 0.96875000
vt 0.03125000 0.90625000
vt 0.09375000 0.90625000
vt 0.15625000 0.90625000
vt 0.21875000 0.90625000
vt 0.28125000 0.90625000
vt 0.34375000 0.90625000
vt 0.40625000 0.90625000
vt 0.46875000 0.90625000
vt 0.53125000 0.90625000
vt 0.59375000 0.90625000
vt 0.65625000 0.90625000
vt 0.71875000 0.90625000
vt 0.78125000 0.90625000
vt 0.84375000 0.90625000
vt 0.90625000 0.90625000
vt 0.96875000 0.90625000
vt 0.03125000 0.84375000
vt 0.09375000 0.84375000
vt 0.15625000 0.84375000
vt 0.21875000 0.84375000
vt 0.28125000 0.84375000
vt 0.34375000 0.84375000
vt 0.40625000 0.84375000
vt 0.46875000 0.84375000
vt 0.53125000 0.84375000
vt 0.59375000 0.84375000
vt 0.65625000 0.84375000
vt 0.71875000 0.84375000
vt 0.78125000 0.84375000
vt 0.84375000 0.84375000
vt 0.90625000 0.84375000
vt 0.96875000 0.84375000
vt 0.03125000 0.78125000
vt 0.09375000 0.78125000
vt 0.15625000 0.78125000
vt 0.21875000 0.78125000
vt 0.28125000 0.78125000
vt 0.34375000 0.78125000
vt 0.40625000 0.78125000
vt 0.46875000 0.78125000
vt 0.53125000 0.78125000
vt 0.59375000 0.78125000
vt 0.65625000 0.78125000
vt 0.71875000 0.78125000
vt 0.78125000 0.78125000
vt 0.84375000 0.78125000
vt 0.90625000 0.78125000
vt 0.96875000 0.78125000
vt 0.03125000 0.71875000
vt 0.09375000 0.71875000
vt 0.15625000 0.71875000
vt 0.21875000 0.71875000
vt 0.28125000 0.71875000
vt 0.34375000 0.71875000
vt 0.40625000 0.71875000
vt 0.46875000 0.71875000
vt 0.53125000 0.71875000
vt 0.59375000 0.71875000
vt 0.65625000 0.71875000
vt 0.71875000 0.71875000
vt 0.78125000 0.71875000
vt 0.84375000 0.71875000
vt 0.90625000 0.71875000
vt 0.96875000 0.71875000
vt 0.03125000 0.65625000
vt 0.09375000 0.65625000
vt 0.15625000 0.65625000
vt 0.21875000 0.65625000
vt 0.28125000 0.65625000
vt 0.34375000 0.65625000
vt 0.40625000 0.65625000
vt 0.46875000 0.65625000
vt 0.53125000 0.65625000
vt 0.59375000 0.65625000
vt 0.65625000 0.65625000
vt 0.71875000 0.65625000
vt 0.78125000 0.65625000
vt 0.84375000 0.65625000
vt 0.90625000 0.65625000
vt 0.96875000 0.65625000
vt 0.03125000 0.59375000
vt 0.09375000 0.59375000
vt 0.15625000 0.59375000
vt 0.21875000 0.59375000
vt 0.28125000 0.59375000
vt 0.34375000 0.59375000
vt 0.40625000 0.59375000
vt 0.46875000 0.59375000
vt 0.53125000 0.59375000
vt 0.59375000 0.59375000
vt 0.65625000 0.59375000
vt 0.71875000 0.59375000
vt 0.78125000 0.59375000
vt 0.84375000 0.59375000
vt 0.90625000 0.59375000
vt 0.96875000 0.59375000
vt 0.03125000 0.53125000
vt 0.09375000 0.53125000
vt 0.15625000 0.53125000
vt 0.21875000 0.53125000
vt 0.28125000 0.53125000
vt 0.34375000 0.53125000
vt 0.40625000 0.53125000
vt 0.46875000 0.53125000
vt 0.53125000 0.53125000
vt 0.59375000 0.53125000
vt 0.65625000 0.53125000
vt 0.71875000 0.53125000
vt 0.78125000 0.53125000
vt 0.84375000 0.53125000
vt 0.90625000 0.53125000
vt 0.96875000 0.53125000
vt 0.03125000 0.46875000
vt 0.09375000 0.46875000
vt 0.15625000 0.46875000
vt 0.21875000 0.46875000
vt 0.28125000 0.46875000
vt 0.34375000 0.46875000
vt 0.40625000 0.46875000
vt 0.46875000 0.46875000
vt 0.53125000 0.46875000
vt 0.59375000 0.46875000
vt 0.65625000 0.46875000
vt 0.71875000 0.46875000
vt 0.78125000 0.46875000
vt 0.84375000 0.46875000
vt 0.90625000 0.46875000
vt 0.96875000 0.46875000
vt 0.03125000 0.40625000
vt 0.09375000 0.40625000
vt 0.15625000 0.40625000
vt 0.21875000 0.40625000
vt 0.28125000 0.40625000
vt 0.34375000 0.40625000
vt 0.40625000 0.40625000
vt 0.46875000 0.40625000
vt 0.53125000 0.40625000
vt 0.59375000 0.40625000
vt 0.65625000 0.40625000
vt 0.71875000 0.40625000
vt 0.78125000 0.40625000
vt 0.84375000 0.40625000
vt 0.90625000 0.40625000
vt 0.96875000 0.40625000
vt 0.03125000 0.34375000
vt 0.09375000 0.34375000
vt 0.15625000 0.34375000
vt 0.21875000 0.34375000
vt 0.28125000 0.34375000
vt 0.34375000 0.34375000
vt 0.40625000 0.34375000
vt 0.46875000 0.34375000
vt 0.53125000 0.34375000
vt 0.59375000 0.34375000
vt 0.65625000 0.34375000
vt 0.71875000 0.34375000
vt 0.78125000 0.34375000
vt 0.84375000 0.34375000
vt 0.90625000 0.34375000
vt 0.96875000 0.34375000
vt 0.03125000 0.28125000
vt 0.09375000 0.28125000
vt 0.15625000 0.28125000
vt 0.21875000 0.28125000
vt 0.28125000 0.28125000
vt 0.34375000 0.28125000
vt 0.40625000 0.28125000
vt 0.46875000 0.28125000
vt 0.53125000 0.28125000
vt 0.59375000 0.28125000
vt 0.65625000 0.28125000
vt 0.71875000 0.28125000
vt 0.78125000 0.28125000
vt 0.84375000 0.28125000
vt 0.90625000 0.28125000
vt 0.96875000 0.28125000
vt 0.03125000 0.21875000
vt 0.09375000 0.21875000
vt 0.15625000 0.21875000
vt 0.21875000 0.21875000
vt 0.28125000 0.21875000
vt 0.34375000 0.21875000
vt 0.40625000 0.21875000
vt 0.46875000 0.21875000
vt 0.53125000 0.21875000
vt 0.59375000 0.21875000
vt 0.65625000 0.21875000
vt 0.71875000 0.21875000
vt 0.78125000 0.21875000
vt 0.84375000 0.21875000
vt 0.90625000 0.21875000
vt 0.96875000 0.21875000
vt 0.03125000 0.15625000
vt 0.09375000 0.15625000
vt 0.15625000 0.15625000
vt 0.21875000 0.15625000
vt 0.28125000 0.15625000
vt 0.34375000 0.15625000
vt 0.40625000 0.15625000
vt 0.46875000 0.15625000
vt 0.53125000 0.15625000
vt 0.59375000 0.15625000
vt 0.65625000 0.15625000
vt 0.71875000 0.15625000
vt 0.78125000 0.15625000
vt 0.84375000 0.15625000
vt 0.90625000 0.15625000
vt 0.96875000 0.15625000
vt 0.03125000 0.09375000
vt 0.09375000 0.09375000
vt 0.15625000 0.09375000
vt 0.21875000 0.09375000
vt 0.28125000 0.09375000
vt 0.34375000 0.09375000
vt 0.40625000 0.09375000
vt 0.46875000 0.09375000
vt 0.53125000 0.09375000
vt 0.59375000 0.09375000
vt 0.65625000 0.09375000
vt 0.71875000 0.09375000
vt 0.78125000 0.09375000
vt 0.84375000 0.09375000
vt 0.90625000 0.09375000
vt 0.96875000 0.09375000
vt 0.03125000 0.03125000
vt 0.09375000 0.03125000
vt 0.15625000 0.03125000
vt 0.21875000 0.03125000
vt 0.28125000 0.03125000
vt 0.34375000 0.03125000
vt 0.40625000 0.03125000
vt 0.46875000 0.03125000
vt 0.53125000 0.03125000
vt 0.59375000 0.03125000
vt 0.65625000 0.03125000
vt 0.71875000 0.03125000
vt 0.78125000 0.03125000
vt 0.84375000 0.03125000
vt 0.90625000 0.03125000
vt 0.96875000 0.03125000
vn -1 0 0
vn 1 0 0
vn 0 0 -1
vn 0 0 1
vn 0 -1 0
vn 0 1 0
g palette
usemtl palette
f 1/38/1 2/38/1 3/38/1 4/38/1
f 3/38/3 5/38/3 6/38/3 4/38/3
f 6/38/5 7/38/5 1/38/5 4/38/5
f 2/36/1 8/36/1 9/36/1 3/36/1
f 9/36/3 10/36/3 5/36/3 3/36/3
f 8/36/1 11/36/1 12/36/1 9/36/1
f 12/36/3 13/36/3 10/36/3 9/36/3
f 11/36/6 14/36/6 13/36/6 12/36/6
f 15/36/1 16/36/1 17/36/1 18/36/1
f 17/36/3 19/36/3 20/36/3 18/36/3
f 20/36/5 21/36/5 15/36/5 18/36/5
f 16/36/1 22/36/1 23/36/1 17/36/1
f 23/36/3 24/36/3 19/36/3 17/36/3
f 22/36/6 25/36/6 24/36/6 23/36/6
f 26/37/1 27/37/1 2/37/1 1/37/1
f 7/37/5 28/37/5 26/37/5 1/37/5
f 27/37/1 29/37/1 8/37/1 2/37/1
f 29/37/1 30/37/1 11/37/1 8/37/1
f 30/37/1 31/37/1 32/37/1 11/37/1
f 32/37/3 33/37/3 14/37/3 11/37/3
f 31/37/1 34/37/1 35/37/1 32/37/1
f 35/37/3 36/37/3 33/37/3 32/37/3
f 34/37/1 37/37/1 38/37/1 35/37/1
f 38/37/3 39/37/3 36/37/3 35/37/3
f 37/37/1 40/37/1 41/37/1 38/37/1
f 41/37/3 42/37/3 39/37/3 38/37/3
f 40/37/1 43/37/1 44/37/1 41/37/1
f 44/37/3 45/37/3 42/37/3 41/37/3
f 43/37/1 46/37/1 47/37/1 44/37/1
f 47/37/3 48/37/3 45/37/3 44/37/3
f 46/37/1 49/37/1 50/37/1 47/37/1
f 50/37/3 51/37/3 48/37/3 47/37/3
f 49/37/1 52/37/1 15/37/1 50/37/1
f 15/37/3 21/37/3 51/37/3 50/37/3
f 52/37/1 53/37/1 16/37/1 15/37/1
f 53/37/1 54/37/1 22/37/1 16/37/1
f 54/37/1 55/37/1 56/37/1 22/37/1
f 56/37/3 57/37/3 25/37/3 22/37/3
f 55/37/6 58/37/6 57/37/6 56/37/6
f 59/37/1 60/37/1 27/37/1 26/37/1
f 28/37/5 61/37/5 59/37/5 26/37/5
f 60/37/1 62/37/1 29/37/1 27/37/1
f 62/37/1 63/37/1 30/37/1 29/37/1
f 63/37/1 64/37/1 31/37/1 30/37/1
f 64/37/1 65/37/1 34/37/1 31/37/1
f 65/37/1 66/37/1 37/37/1 34/37/1
f 66/37/1 67/37/1 40/37/1 37/37/1
f 67/37/1 68/37/1 43/37/1 40/37/1
f 68/37/1 69/37/1 46/37/1 43/37/1
f 69/37/1 70/37/1 49/37/1 46/37/1
f 70/37/1 71/37/1 52/37/1 49/37/1
f 71/37/1 72/37/1 53/37/1 52/37/1
f 72/37/1 73/37/1 54/37/1 53/37/1
f 73/37/1 74/37/1 55/37/1 54/37/1
f 74/37/6 75/37/6 58/37/6 55/37/6
f 76/37/1 77/37/1 60/37/1 59/37/1
f 61/37/5 78/37/5 76/37/5 59/37/5
f 77/37/1 79/37/1 62/37/1 60/37/1
f 79/37/1 80/37/1 63/37/1 62/37/1
f 80/37/1 81/37/1 64/37/1 63/37/1
f 81/37/1 82/37/1 65/37/1 64/37/1
f 82/37/1 83/37/1 66/37/1 65/37/1
f 83/37/1 84/37/1 67/37/1 66/37/1
f 84/37/1 85/37/1 68/37/1 67/37/1
f 85/37/1 86/37/1 69/37/1 68/37/1
f 86/37/1 87/37/1 70/37/1 69/37/1
f 87/37/1 88/37/1 71/37/1 70/37/1
f 88/37/1 89/37/1 72/37/1 71/37/1
f 89/37/1 90/37/1 73/37/1 72/37/1
f 90/37/1 91/37/1 74/37/1 73/37/1
f 91/37/6 92/37/6 75/37/6 74/37/6
f 93/37/1 94/37/1 77/37/1 76/37/1
f 78/37/5 95/37/5 93/37/5 76/37/5
f 94/37/1 96/37/1 79/37/1 77/37/1
f 96/37/1 97/37/1 80/37/1 79/37/1
f 97/37/1 98/37/1 81/37/1 80/37/1
f 98/37/1 99/37/1 82/37/1 81/37/1
f 99/37/1 100/37/1 83/37/1 82/37/1
f 100/37/1 101/37/1 84/37/1 83/37/1
f 101/37/1 102/37/1 85/37/1 84/37/1
f 102/37/1 103/37/1 86/37/1 85/37/1
f 103/37/1 104/37/1 87/37/1 86/37/1
f 104/37/1 105/37/1 88/37/1 87/37/1
f 105/37/1 106/37/1 89/37/1 88/37/1
f 106/37/1 107/37/1 90/37/1 89/37/1
f 107/38/1 108/38/1 91/38/1 90/38/1
f 108/38/6 109/38/6 92/38/6 91/38/6
f 110/37/1 111/37/1 94/37/1 93/37/1
f 95/37/5 112/37/5 110/37/5 93/37/5
f 111/37/1 113/37/1 96/37/1 94/37/1
f 113/37/1 114/37/1 97/37/1 96/37/1
f 114/37/1 115/37/1 98/37/1 97/37/1
f 115/37/1 116/37/1 99/37/1 98/37/1
f 116/37/1 117/37/1 100/37/1 99/37/1
f 117/37/1 118/37/1 101/37/1 100/37/1
f 118/37/1 119/37/1 102/37/1 101/37/1
f 119/37/1 120/37/1 103/37/1 102/37/1
f 120/37/1 121/37/1 104/37/1 103/37/1
f 121/37/1 122/37/1 105/37/1 104/37/1
f 122/37/1 123/37/1 106/37/1 105/37/1
f 123/37/1 124/37/1 107/37/1 106/37/1
f 124/37/1 125/37/1 108/37/1 107/37/1
f 125/37/6 126/37/6 109/37/6 108/37/6
f 127/37/1 128/37/1 111/37/1 110/37/1
f 112/37/5 129/37/5 127/37/5 110/37/5
f 128/37/1 130/37/1 113/37/1 111/37/1
f 130/37/1 131/37/1 114/37/1 113/37/1
f 131/37/1 132/37/1 115/37/1 114/37/1
f 132/37/1 133/37/1 116/37/1 115/37/1
f 133/37/1 134/37/1 117/37/1 116/37/1
f 134/37/1 135/37/1 118/37/1 117/37/1
f 135/37/1 136/37/1 119/37/1 118/37/1
f 136/37/1 137/37/1 120/37/1 119/37/1
f 137/37/1 138/37/1 121/37/1 120/37/1
f 138/37/1 139/37/1 122/37/1 121/37/1
f 139/37/1 140/37/1 123/37/1 122/37/1
f 140/37/1 141/37/1 124/37/1 123/37/1
f 141/37/1 142/37/1 125/37/1 124/37/1
f 142/37/6 143/37/6 126/37/6 125/37/6
f 144/37/1 145/37/1 128/37/1 127/37/1
f 129/37/5 146/37/5 144/37/5 127/37/5
f 145/37/1 147/37/1 130/37/1 128/37/1
f 147/37/1 148/37/1 131/37/1 130/37/1
f 148/37/1 149/37/1 132/37/1 131/37/1
f 149/37/1 150/37/1 133/37/1 132/37/1
f 150/37/1 151/37/1 134/37/1 133/37/1
f 151/37/1 152/37/1 135/37/1 134/37/1
f 152/37/1 153/37/1 136/37/1 135/37/1
f 153/37/1 154/37/1 137/37/1 136/37/1
f 154/37/1 155/37/1 138/37/1 137/37/1
f 155/37/1 156/37/1 139/37/1 138/37/1
f 156/37/1 157/37/1 140/37/1 139/37/1
f 157/37/1 158/37/1 141/37/1 140/37/1
f 158/37/1 159/37/1 142/37/1 141/37/1
f 159/37/6 160/37/6 143/37/6 142/37/6
f 161/37/1 162/37/1 145/37/1 144/37/1
f 146/37/5 163/37/5 161/37/5 144/37/5
f 162/37/1 164/37/1 147/37/1 145/37/1
f 164/37/1 165/37/1 148/37/1 147/37/1
f 165/37/1 166/37/1 149/37/1 148/37/1
f 166/38/1 167/38/1 150/38/1 149/38/1
f 167/37/1 168/37/1 151/37/1 150/37/1
f 168/37/1 169/37/1 152/37/1 151/37/1
f 169/37/1 170/37/1 153/37/1 152/37/1
f 170/37/1 171/37/1 154/37/1 153/37/1
f 171/37/1 172/37/1 155/37/1 154/37/1
f 172/37/1 173/37/1 156/37/1 155/37/1
f 173/37/1 174/37/1 157/37/1 156/37/1
f 174/37/1 175/37/1 158/37/1 157/37/1
f 175/36/1 176/36/1 159/36/1 158/36/1
f 176/36/6 177/36/6 160/36/6 159/36/6
f 178/37/1 179/37/1 162/37/1 161/37/1
f 163/37/5 180/37/5 178/37/5 161/37/5
f 179/37/1 181/37/1 164/37/1 162/37/1
f 181/37/1 182/37/1 165/37/1 164/37/1
f 182/37/1 183/37/1 166/37/1 165/37/1
f 183/37/1 184/37/1 167/37/1 166/37/1
f 184/37/1 185/37/1 168/37/1 167/37/1
f 185/37/1 186/37/1 169/37/1 168/37/1
f 186/37/1 187/37/1 170/37/1 169/37/1
f 187/37/1 188/37/1 171/37/1 170/37/1
f 188/37/1 189/37/1 172/37/1 171/37/1
f 189/37/1 190/37/1 173/37/1 172/37/1
f 190/37/1 191/37/1 174/37/1 173/37/1
f 191/37/1 192/37/1 175/37/1 174/37/1
f 192/37/1 193/37/1 176/37/1 175/37/1
f 193/37/6 194/37/6 177/37/6 176/37/6
f 195/37/1 196/37/1 179/37/1 178/37/1
f 180/37/5 197/37/5 195/37/5 178/37/5
f 196/37/1 198/37/1 181/37/1 179/37/1
f 198/37/1 199/37/1 182/37/1 181/37/1
f 199/37/1 200/37/1 183/37/1 182/37/1
f 200/37/1 201/37/1 184/37/1 183/37/1
f 201/37/1 202/37/1 185/37/1 184/37/1
f 202/37/1 203/37/1 186/37/1 185/37/1
f 203/38/1 204/38/1 187/38/1 186/38/1
f 204/37/1 205/37/1 188/37/1 187/37/1
f 205/37/1 206/37/1 189/37/1 188/37/1
f 206/37/1 207/37/1 190/37/1 189/37/1
f 207/37/1 208/37/1 191/37/1 190/37/1
f 208/38/1 209/38/1 192/38/1 191/38/1
f 209/37/1 210/37/1 193/37/1 192/37/1
f 210/37/6 211/37/6 194/37/6 193/37/6
f 212/37/1 213/37/1 196/37/1 195/37/1
f 197/37/5 214/37/5 212/37/5 195/37/5
f 213/37/1 215/37/1 198/37/1 196/37/1
f 215/37/1 216/37/1 199/37/1 198/37/1
f 216/37/1 217/37/1 200/37/1 199/37/1
f 217/37/1 218/37/1 201/37/1 200/37/1
f 218/37/1 219/37/1 202/37/1 201/37/1
f 219/37/1 220/37/1 203/37/1 202/37/1
f 220/37/1 221/37/1 204/37/1 203/37/1
f 221/37/1 222/37/1 205/37/1 204/37/1
f 222/37/1 223/37/1 206/37/1 205/37/1
f 223/37/1 224/37/1 207/37/1 206/37/1
f 224/37/1 225/37/1 208/37/1 207/37/1
f 225/37/1 226/37/1 209/37/1 208/37/1
f 226/37/1 227/37/1 210/37/1 209/37/1
f 227/37/6 228/37/6 211/37/6 210/37/6
f 229/37/1 230/37/1 213/37/1 212/37/1
f 214/37/5 231/37/5 229/37/5 212/37/5
f 230/37/1 232/37/1 215/37/1 213/37/1
f 232/37/1 233/37/1 216/37/1 215/37/1
f 233/37/1 234/37/1 217/37/1 216/37/1
f 234/37/1 235/37/1 218/37/1 217/37/1
f 235/36/1 236/36/1 219/36/1 218/36/1
f 236/37/1 237/37/1 220/37/1 219/37/1
f 237/37/1 238/37/1 221/37/1 220/37/1
f 238/37/1 239/37/1 222/37/1 221/37/1
f 239/37/1 240/37/1 223/37/1 222/37/1
f 240/37/1 241/37/1 224/37/1 223/37/1
f 241/37/1 242/37/1 225/37/1 224/37/1
f 242/37/1 243/37/1 226/37/1 225/37/1
f 243/36/1 244/36/1 227/36/1 226/36/1
f 244/36/6 245/36/6 228/36/6 227/36/6
f 246/37/1 247/37/1 230/37/1 229/37/1
f 231/37/5 248/37/5 246/37/5 229/37/5
f 247/37/1 249/37/1 232/37/1 230/37/1
f 249/37/1 250/37/1 233/37/1 232/37/1
f 250/37/1 251/37/1 234/37/1 233/37/1
f 251/37/1 252/37/1 235/37/1 234/37/1
f 252/37/1 253/37/1 236/37/1 235/37/1
f 253/37/1 254/37/1 237/37/1 236/37/1
f 254/37/1 255/37/1 238/37/1 237/37/1
f 255/37/1 256/37/1 239/37/1 238/37/1
f 256/37/1 257/37/1 240/37/1 239/37/1
f 257/37/1 258/37/1 241/37/1 240/37/1
f 258/37/1 259/37/1 242/37/1 241/37/1
f 259/37/1 260/37/1 243/37/1 242/37/1
f 260/37/1 261/37/1 244/37/1 243/37/1
f 261/37/6 262/37/6 245/37/6 244/37/6
f 263/37/1 264/37/1 247/37/1 246/37/1
f 265/37/4 266/37/4 264/37/4 263/37/4
f 248/37/5 265/37/5 263/37/5 246/37/5
f 264/37/1 267/37/1 249/37/1 247/37/1
f 266/37/4 268/37/4 267/37/4 264/37/4
f 267/37/1 269/37/1 250/37/1 249/37/1
f 268/37/4 270/37/4 269/37/4 267/37/4
f 269/37/1 271/37/1 251/37/1 250/37/1
f 270/37/4 272/37/4 271/37/4 269/37/4
f 271/37/1 273/37/1 252/37/1 251/37/1
f 272/37/4 274/37/4 273/37/4 271/37/4
f 273/37/1 275/37/1 253/37/1 252/37/1
f 274/37/4 276/37/4 275/37/4 273/37/4
f 275/37/1 277/37/1 254/37/1 253/37/1
f 276/37/4 278/37/4 277/37/4 275/37/4
f 277/37/1 279/37/1 255/37/1 254/37/1
f 278/37/4 280/37/4 279/37/4 277/37/4
f 279/37/1 281/37/1 256/37/1 255/37/1
f 280/37/4 282/37/4 281/37/4 279/37/4
f 281/37/1 283/37/1 257/37/1 256/37/1
f 282/37/4 284/37/4 283/37/4 281/37/4
f 283/37/1 285/37/1 258/37/1 257/37/1
f 284/37/4 286/37/4 285/37/4 283/37/4
f 285/37/1 287/37/1 259/37/1 258/37/1
f 286/37/4 288/37/4 287/37/4 285/37/4
f 287/37/1 289/37/1 260/37/1 259/37/1
f 288/37/4 290/37/4 289/37/4 287/37/4
f 289/37/1 291/37/1 261/37/1 260/37/1
f 290/37/4 292/37/4 291/37/4 289/37/4
f 291/37/6 292/37/6 262/37/6 261/37/6
f 293/38/2 294/38/2 295/38/2 296/38/2
f 5/38/3 293/38/3 296/38/3 6/38/3
f 296/38/5 295/38/5 7/38/5 6/38/5
f 10/36/3 297/36/3 293/36/3 5/36/3
f 13/36/3 298/36/3 297/36/3 10/36/3
f 14/36/1 33/36/1 299/36/1 13/36/1
f 299/36/3 300/36/3 298/36/3 13/36/3
f 33/36/1 36/36/1 301/36/1 299/36/1
f 302/36/2 303/36/2 304/36/2 300/36/2
f 301/36/3 302/36/3 300/36/3 299/36/3
f 36/36/1 39/36/1 305/36/1 301/36/1
f 306/36/2 307/36/2 303/36/2 302/36/2
f 305/36/3 306/36/3 302/36/3 301/36/3
f 39/36/1 42/36/1 308/36/1 305/36/1
f 309/36/2 310/36/2 307/36/2 306/36/2
f 308/36/3 309/36/3 306/36/3 305/36/3
f 42/36/1 45/36/1 311/36/1 308/36/1
f 312/36/2 313/36/2 310/36/2 309/36/2
f 311/36/3 312/36/3 309/36/3 308/36/3
f 45/36/1 48/36/1 314/36/1 311/36/1
f 315/36/2 316/36/2 313/36/2 312/36/2
f 314/36/3 315/36/3 312/36/3 311/36/3
f 48/36/1 51/36/1 317/36/1 314/36/1
f 318/36/2 319/36/2 316/36/2 315/36/2
f 317/36/3 318/36/3 315/36/3 314/36/3
f 51/36/1 21/36/1 20/36/1 317/36/1
f 320/36/2 321/36/2 319/36/2 318/36/2
f 20/36/3 320/36/3 318/36/3 317/36/3
f 19/36/3 322/36/3 320/36/3 20/36/3
f 24/36/3 323/36/3 322/36/3 19/36/3
f 25/36/1 57/36/1 324/36/1 24/36/1
f 325/36/2 326/36/2 327/36/2 323/36/2
f 324/36/3 325/36/3 323/36/3 24/36/3
f 57/36/6 326/36/6 325/36/6 324/36/6
f 295/37/5 328/37/5 28/37/5 7/37/5
f 58/37/6 329/37/6 326/37/6 57/37/6
f 328/37/5 330/37/5 61/37/5 28/37/5
f 75/37/6 331/37/6 329/37/6 58/37/6
f 330/37/5 332/37/5 78/37/5 61/37/5
f 92/37/6 333/37/6 331/37/6 75/37/6
f 332/37/5 334/37/5 95/37/5 78/37/5
f 109/36/6 335/36/6 333/36/6 92/36/6
f 334/37/5 336/37/5 112/37/5 95/37/5
f 126/37/6 337/37/6 335/37/6 109/37/6
f 336/37/5 338/37/5 129/37/5 112/37/5
f 143/37/6 339/37/6 337/37/6 126/37/6
f 338/37/5 340/37/5 146/37/5 129/37/5
f 160/37/6 341/37/6 339/37/6 143/37/6
f 340/37/5 342/37/5 163/37/5 146/37/5
f 177/36/6 343/36/6 341/36/6 160/36/6
f 342/37/5 344/37/5 180/37/5 163/37/5
f 194/37/6 345/37/6 343/37/6 177/37/6
f 344/37/5 346/37/5 197/37/5 180/37/5
f 211/37/6 347/37/6 345/37/6 194/37/6
f 346/37/5 348/37/5 214/37/5 197/37/5
f 228/37/6 349/37/6 347/37/6 211/37/6
f 348/37/5 350/37/5 231/37/5 214/37/5
f 245/36/6 351/36/6 349/36/6 228/36/6
f 350/37/5 352/37/5 248/37/5 231/37/5
f 262/37/6 353/37/6 351/37/6 245/37/6
f 354/37/4 355/37/4 266/37/4 265/37/4
f 352/37/5 354/37/5 265/37/5 248/37/5
f 355/37/4 356/37/4 268/37/4 266/37/4
f 356/37/4 357/37/4 270/37/4 268/37/4
f 357/37/4 358/37/4 272/37/4 270/37/4
f 358/37/4 359/37/4 274/37/4 272/37/4
f 359/37/4 360/37/4 276/37/4 274/37/4
f 360/37/4 361/37/4 278/37/4 276/37/4
f 361/37/4 362/37/4 280/37/4 278/37/4
f 362/37/4 363/37/4 282/37/4 280/37/4
f 363/37/4 364/37/4 284/37/4 282/37/4
f 364/37/4 365/37/4 286/37/4 284/37/4
f 365/37/4 366/37/4 288/37/4 286/37/4
f 366/37/4 367/37/4 290/37/4 288/37/4
f 367/37/4 368/37/4 292/37/4 290/37/4
f 292/37/6 368/37/6 353/37/6 262/37/6
f 297/36/3 369/36/3 370/36/3 293/36/3
f 370/36/5 371/36/5 294/36/5 293/36/5
f 298/36/3 372/36/3 369/36/3 297/36/3
f 300/38/3 373/38/3 372/38/3 298/38/3
f 304/38/6 374/38/6 373/38/6 300/38/6
f 322/36/3 375/36/3 376/36/3 320/36/3
f 376/36/5 377/36/5 321/36/5 320/36/5
f 323/36/3 378/36/3 375/36/3 322/36/3
f 327/36/6 379/36/6 378/36/6 323/36/6
f 294/37/3 371/37/3 380/37/3 295/37/3
f 380/37/5 381/37/5 328/37/5 295/37/5
f 303/37/3 382/37/3 374/37/3 304/37/3
f 307/37/3 383/37/3 382/37/3 303/37/3
f 310/37/3 384/37/3 383/37/3 307/37/3
f 313/37/3 385/37/3 384/37/3 310/37/3
f 316/37/3 386/37/3 385/37/3 313/37/3
f 319/37/3 387/37/3 386/37/3 316/37/3
f 321/37/3 377/37/3 387/37/3 319/37/3
f 326/37/3 388/37/3 379/37/3 327/37/3
f 329/37/6 389/37/6 388/37/6 326/37/6
f 381/37/5 390/37/5 330/37/5 328/37/5
f 331/37/6 391/37/6 389/37/6 329/37/6
f 390/37/5 392/37/5 332/37/5 330/37/5
f 333/37/6 393/37/6 391/37/6 331/37/6
f 392/37/5 394/37/5 334/37/5 332/37/5
f 335/36/6 395/36/6 393/36/6 333/36/6
f 394/37/5 396/37/5 336/37/5 334/37/5
f 337/37/6 397/37/6 395/37/6 335/37/6
f 396/37/5 398/37/5 338/37/5 336/37/5
f 339/37/6 399/37/6 397/37/6 337/37/6
f 398/37/5 400/37/5 340/37/5 338/37/5
f 341/37/6 401/37/6 399/37/6 339/37/6
f 400/37/5 402/37/5 342/37/5 340/37/5
f 343/36/6 403/36/6 401/36/6 341/36/6
f 402/37/5 404/37/5 344/37/5 342/37/5
f 345/37/6 405/37/6 403/37/6 343/37/6
f 404/37/5 406/37/5 346/37/5 344/37/5
f 347/37/6 407/37/6 405/37/6 345/37/6
f 406/37/5 408/37/5 348/37/5 346/37/5
f 349/38/6 409/38/6 407/38/6 347/38/6
f 408/37/5 410/37/5 350/37/5 348/37/5
f 351/36/6 411/36/6 409/36/6 349/36/6
f 410/37/5 412/37/5 352/37/5 350/37/5
f 353/37/6 413/37/6 411/37/6 351/37/6
f 414/37/4 415/37/4 355/37/4 354/37/4
f 412/37/5 414/37/5 354/37/5 352/37/5
f 415/37/4 416/37/4 356/37/4 355/37/4
f 416/37/4 417/37/4 357/37/4 356/37/4
f 417/37/4 418/37/4 358/37/4 357/37/4
f 418/37/4 419/37/4 359/37/4 358/37/4
f 419/37/4 420/37/4 360/37/4 359/37/4
f 420/37/4 421/37/4 361/37/4 360/37/4
f 421/37/4 422/37/4 362/37/4 361/37/4
f 422/37/4 423/37/4 363/37/4 362/37/4
f 423/37/4 424/37/4 364/37/4 363/37/4
f 424/37/4 425/37/4 365/37/4 364/37/4
f 425/37/4 426/37/4 366/37/4 365/37/4
f 426/37/4 427/37/4 367/37/4 366/37/4
f 427/37/4 428/37/4 368/37/4 367/37/4
f 368/37/6 428/37/6 413/37/6 353/37/6
f 369/36/3 429/36/3 430/36/3 370/36/3
f 430/36/5 431/36/5 371/36/5 370/36/5
f 372/36/3 432/36/3 429/36/3 369/36/3
f 373/38/3 433/38/3 432/38/3 372/38/3
f 374/38/1 382/38/1 434/38/1 373/38/1
f 434/38/3 435/38/3 433/38/3 373/38/3
f 382/38/6 436/38/6 435/38/6 434/38/6
f 375/36/3 437/36/3 438/36/3 376/36/3
f 438/36/5 439/36/5 377/36/5 376/36/5
f 378/38/3 440/38/3 437/38/3 375/38/3
f 379/38/6 441/38/6 440/38/6 378/38/6
f 371/37/3 431/37/3 442/37/3 380/37/3
f 442/37/5 443/37/5 381/37/5 380/37/5
f 383/37/3 444/37/3 436/37/3 382/37/3
f 384/37/3 445/37/3 444/37/3 383/37/3
f 385/37/3 446/37/3 445/37/3 384/37/3
f 386/37/3 447/37/3 446/37/3 385/37/3
f 387/37/3 448/37/3 447/37/3 386/37/3
f 377/37/3 439/37/3 448/37/3 387/37/3
f 388/37/3 449/37/3 441/37/3 379/37/3
f 389/37/6 450/37/6 449/37/6 388/37/6
f 443/37/5 451/37/5 390/37/5 381/37/5
f 391/37/6 452/37/6 450/37/6 389/37/6
f 451/37/5 453/37/5 392/37/5 390/37/5
f 393/37/6 454/37/6 452/37/6 391/37/6
f 453/37/5 455/37/5 394/37/5 392/37/5
f 395/36/6 456/36/6 454/36/6 393/36/6
f 455/37/5 457/37/5 396/37/5 394/37/5
f 397/37/6 458/37/6 456/37/6 395/37/6
f 457/37/5 459/37/5 398/37/5 396/37/5
f 399/37/6 460/37/6 458/37/6 397/37/6
f 459/37/5 461/37/5 400/37/5 398/37/5
f 401/37/6 462/37/6 460/37/6 399/37/6
f 461/37/5 463/37/5 402/37/5 400/37/5
f 403/36/6 464/36/6 462/36/6 401/36/6
f 463/37/5 465/37/5 404/37/5 402/37/5
f 405/37/6 466/37/6 464/37/6 403/37/6
f 465/37/5 467/37/5 406/37/5 404/37/5
f 407/37/6 468/37/6 466/37/6 405/37/6
f 467/37/5 469/37/5 408/37/5 406/37/5
f 409/37/6 470/37/6 468/37/6 407/37/6
f 469/37/5 471/37/5 410/37/5 408/37/5
f 411/36/6 472/36/6 470/36/6 409/36/6
f 471/37/5 473/37/5 412/37/5 410/37/5
f 413/37/6 474/37/6 472/37/6 411/37/6
f 475/37/4 476/37/4 415/37/4 414/37/4
f 473/37/5 475/37/5 414/37/5 412/37/5
f 476/37/4 477/37/4 416/37/4 415/37/4
f 477/37/4 478/37/4 417/37/4 416/37/4
f 478/37/4 479/37/4 418/37/4 417/37/4
f 479/37/4 480/37/4 419/37/4 418/37/4
f 480/37/4 481/37/4 420/37/4 419/37/4
f 481/37/4 482/37/4 421/37/4 420/37/4
f 482/37/4 483/37/4 422/37/4 421/37/4
f 483/37/4 484/37/4 423/37/4 422/37/4
f 484/37/4 485/37/4 424/37/4 423/37/4
f 485/37/4 486/37/4 425/37/4 424/37/4
f 486/37/4 487/37/4 426/37/4 425/37/4
f 487/37/4 488/37/4 427/37/4 426/37/4
f 488/37/4 489/37/4 428/37/4 427/37/4
f 428/37/6 489/37/6 474/37/6 413/37/6
f 429/36/3 490/36/3 491/36/3 430/36/3
f 491/36/5 492/36/5 431/36/5 430/36/5
f 432/36/3 493/36/3 490/36/3 429/36/3
f 494/38/2 495/38/2 496/38/2 493/38/2
f 433/38/3 494/38/3 493/38/3 432/38/3
f 435/38/3 497/38/3 494/38/3 433/38/3
f 436/38/1 444/38/1 498/38/1 435/38/1
f 498/38/3 499/38/3 497/38/3 435/38/3
f 444/38/6 500/38/6 499/38/6 498/38/6
f 437/36/3 501/36/3 502/36/3 438/36/3
f 502/36/5 503/36/5 439/36/5 438/36/5
f 440/36/3 504/36/3 501/36/3 437/36/3
f 441/36/6 505/36/6 504/36/6 440/36/6
f 431/37/3 492/37/3 506/37/3 442/37/3
f 506/37/5 507/37/5 443/37/5 442/37/5
f 445/37/3 508/37/3 500/37/3 444/37/3
f 446/37/3 509/37/3 508/37/3 445/37/3
f 447/37/3 510/37/3 509/37/3 446/37/3
f 448/37/3 511/37/3 510/37/3 447/37/3
f 439/37/3 503/37/3 511/37/3 448/37/3
f 449/37/3 512/37/3 505/37/3 441/37/3
f 450/37/6 513/37/6 512/37/6 449/37/6
f 507/37/5 514/37/5 451/37/5 443/37/5
f 452/37/6 515/37/6 513/37/6 450/37/6
f 514/37/5 516/37/5 453/37/5 451/37/5
f 454/37/6 517/37/6 515/37/6 452/37/6
f 516/37/5 518/37/5 455/37/5 453/37/5
f 456/36/6 519/36/6 517/36/6 454/36/6
f 518/37/5 520/37/5 457/37/5 455/37/5
f 458/37/6 521/37/6 519/37/6 456/37/6
f 520/37/5 522/37/5 459/37/5 457/37/5
f 460/37/6 523/37/6 521/37/6 458/37/6
f 522/37/5 524/37/5 461/37/5 459/37/5
f 462/37/6 525/37/6 523/37/6 460/37/6
f 524/37/5 526/37/5 463/37/5 461/37/5
f 464/36/6 527/36/6 525/36/6 462/36/6
f 526/37/5 528/37/5 465/37/5 463/37/5
f 466/37/6 529/37/6 527/37/6 464/37/6
f 528/37/5 530/37/5 467/37/5 465/37/5
f 468/37/6 531/37/6 529/37/6 466/37/6
f 530/37/5 532/37/5 469/37/5 467/37/5
f 470/37/6 533/37/6 531/37/6 468/37/6
f 532/37/5 534/37/5 471/37/5 469/37/5
f 472/36/6 535/36/6 533/36/6 470/36/6
f 534/37/5 536/37/5 473/37/5 471/37/5
f 474/37/6 537/37/6 535/37/6 472/37/6
f 538/37/4 539/37/4 476/37/4 475/37/4
f 536/37/5 538/37/5 475/37/5 473/37/5
f 539/37/4 540/37/4 477/37/4 476/37/4
f 540/37/4 541/37/4 478/37/4 477/37/4
f 541/37/4 542/37/4 479/37/4 478/37/4
f 542/37/4 543/37/4 480/37/4 479/37/4
f 543/37/4 544/37/4 481/37/4 480/37/4
f 544/37/4 545/37/4 482/37/4 481/37/4
f 545/37/4 546/37/4 483/37/4 482/37/4
f 546/37/4 547/37/4 484/37/4 483/37/4
f 547/37/4 548/37/4 485/37/4 484/37/4
f 548/37/4 549/37/4 486/37/4 485/37/4
f 549/37/4 550/37/4 487/37/4 486/37/4
f 550/37/4 551/37/4 488/37/4 487/37/4
f 551/37/4 552/37/4 489/37/4 488/37/4
f 489/37/6 552/37/6 537/37/6 474/37/6
f 490/36/3 553/36/3 554/36/3 491/36/3
f 554/36/5 555/36/5 492/36/5 491/36/5
f 493/36/3 556/36/3 553/36/3 490/36/3
f 496/36/6 557/36/6 556/36/6 493/36/6
f 497/38/3 558/38/3 559/38/3 494/38/3
f 559/38/5 560/38/5 495/38/5 494/38/5
f 499/38/3 561/38/3 558/38/3 497/38/3
f 500/38/1 508/38/1 562/38/1 499/38/1
f 562/38/3 563/38/3 561/38/3 499/38/3
f 508/38/6 564/38/6 563/38/6 562/38/6
f 501/36/3 565/36/3 566/36/3 502/36/3
f 566/36/5 567/36/5 503/36/5 502/36/5
f 504/36/3 568/36/3 565/36/3 501/36/3
f 505/36/6 569/36/6 568/36/6 504/36/6
f 492/37/3 555/37/3 570/37/3 506/37/3
f 570/37/5 571/37/5 507/37/5 506/37/5
f 495/37/3 560/37/3 557/37/3 496/37/3
f 509/37/3 572/37/3 564/37/3 508/37/3
f 510/37/3 573/37/3 572/37/3 509/37/3
f 511/36/3 574/36/3 573/36/3 510/36/3
f 503/37/3 567/37/3 574/37/3 511/37/3
f 512/37/3 575/37/3 569/37/3 505/37/3
f 513/37/6 576/37/6 575/37/6 512/37/6
f 571/37/5 577/37/5 514/37/5 507/37/5
f 515/37/6 578/37/6 576/37/6 513/37/6
f 577/37/5 579/37/5 516/37/5 514/37/5
f 517/37/6 580/37/6 578/37/6 515/37/6
f 579/37/5 581/37/5 518/37/5 516/37/5
f 519/36/6 582/36/6 580/36/6 517/36/6
f 581/37/5 583/37/5 520/37/5 518/37/5
f 521/37/6 584/37/6 582/37/6 519/37/6
f 583/37/5 585/37/5 522/37/5 520/37/5
f 523/37/6 586/37/6 584/37/6 521/37/6
f 585/37/5 587/37/5 524/37/5 522/37/5
f 525/37/6 588/37/6 586/37/6 523/37/6
f 587/37/5 589/37/5 526/37/5 524/37/5
f 527/36/6 590/36/6 588/36/6 525/36/6
f 589/37/5 591/37/5 528/37/5 526/37/5
f 529/37/6 592/37/6 590/37/6 527/37/6
f 591/37/5 593/37/5 530/37/5 528/37/5
f 531/37/6 594/37/6 592/37/6 529/37/6
f 593/37/5 595/37/5 532/37/5 530/37/5
f 533/37/6 596/37/6 594/37/6 531/37/6
f 595/37/5 597/37/5 534/37/5 532/37/5
f 535/38/6 598/38/6 596/38/6 533/38/6
f 597/37/5 599/37/5 536/37/5 534/37/5
f 537/37/6 600/37/6 598/37/6 535/37/6
f 601/37/4 602/37/4 539/37/4 538/37/4
f 599/37/5 601/37/5 538/37/5 536/37/5
f 602/37/4 603/37/4 540/37/4 539/37/4
f 603/37/4 604/37/4 541/37/4 540/37/4
f 604/37/4 605/37/4 542/37/4 541/37/4
f 605/37/4 606/37/4 543/37/4 542/37/4
f 606/37/4 607/37/4 544/37/4 543/37/4
f 607/37/4 608/37/4 545/37/4 544/37/4
f 608/37/4 609/37/4 546/37/4 545/37/4
f 609/37/4 610/37/4 547/37/4 546/37/4
f 610/37/4 611/37/4 548/37/4 547/37/4
f 611/37/4 612/37/4 549/37/4 548/37/4
f 612/37/4 613/37/4 550/37/4 549/37/4
f 613/37/4 614/37/4 551/37/4 550/37/4
f 614/37/4 615/37/4 552/37/4 551/37/4
f 552/37/6 615/37/6 600/37/6 537/37/6
f 570/36/1 555/36/1 554/36/1 616/36/1
f 617/36/2 618/36/2 619/36/2 620/36/2
f 554/36/3 617/36/3 620/36/3 616/36/3
f 620/36/5 619/36/5 570/36/5 616/36/5
f 553/36/3 621/36/3 617/36/3 554/36/3
f 556/36/3 622/36/3 621/36/3 553/36/3
f 557/36/1 560/36/1 559/36/1 556/36/1
f 623/36/2 624/36/2 625/36/2 622/36/2
f 559/36/3 623/36/3 622/36/3 556/36/3
f 626/36/2 627/36/2 624/36/2 623/36/2
f 558/36/3 626/36/3 623/36/3 559/36/3
f 628/38/2 629/38/2 627/38/2 626/38/2
f 561/38/3 628/38/3 626/38/3 558/38/3
f 563/38/3 630/38/3 628/38/3 561/38/3
f 564/38/1 572/38/1 631/38/1 563/38/1
f 631/38/3 632/38/3 630/38/3 563/38/3
f 572/36/1 573/36/1 633/36/1 631/36/1
f 633/36/3 634/36/3 632/36/3 631/36/3
f 573/36/1 574/36/1 635/36/1 633/36/1
f 636/36/2 637/36/2 638/36/2 634/36/2
f 635/36/3 636/36/3 634/36/3 633/36/3
f 574/36/1 567/36/1 566/36/1 635/36/1
f 639/36/2 640/36/2 637/36/2 636/36/2
f 566/36/3 639/36/3 636/36/3 635/36/3
f 565/36/3 641/36/3 639/36/3 566/36/3
f 568/36/3 642/36/3 641/36/3 565/36/3
f 569/36/1 575/36/1 643/36/1 568/36/1
f 644/36/2 645/36/2 646/36/2 642/36/2
f 643/36/3 644/36/3 642/36/3 568/36/3
f 575/36/6 645/36/6 644/36/6 643/36/6
f 619/37/5 647/37/5 571/37/5 570/37/5
f 576/37/6 648/37/6 645/37/6 575/37/6
f 647/37/5 649/37/5 577/37/5 571/37/5
f 578/37/6 650/37/6 648/37/6 576/37/6
f 649/37/5 651/37/5 579/37/5 577/37/5
f 580/37/6 652/37/6 650/37/6 578/37/6
f 651/37/5 653/37/5 581/37/5 579/37/5
f 582/36/6 654/36/6 652/36/6 580/36/6
f 653/37/5 655/37/5 583/37/5 581/37/5
f 584/37/6 656/37/6 654/37/6 582/37/6
f 655/37/5 657/37/5 585/37/5 583/37/5
f 586/37/6 658/37/6 656/37/6 584/37/6
f 657/37/5 659/37/5 587/37/5 585/37/5
f 588/37/6 660/37/6 658/37/6 586/37/6
f 659/37/5 661/37/5 589/37/5 587/37/5
f 590/36/6 662/36/6 660/36/6 588/36/6
f 661/37/5 663/37/5 591/37/5 589/37/5
f 592/37/6 664/37/6 662/37/6 590/37/6
f 663/37/5 665/37/5 593/37/5 591/37/5
f 594/37/6 666/37/6 664/37/6 592/37/6
f 665/37/5 667/37/5 595/37/5 593/37/5
f 596/37/6 668/37/6 666/37/6 594/37/6
f 667/37/5 669/37/5 597/37/5 595/37/5
f 598/36/6 670/36/6 668/36/6 596/36/6
f 669/37/5 671/37/5 599/37/5 597/37/5
f 600/37/6 672/37/6 670/37/6 598/37/6
f 673/37/4 674/37/4 602/37/4 601/37/4
f 671/37/5 673/37/5 601/37/5 599/37/5
f 674/37/4 675/37/4 603/37/4 602/37/4
f 675/37/4 676/37/4 604/37/4 603/37/4
f 676/37/4 677/37/4 605/37/4 604/37/4
f 677/37/4 678/37/4 606/37/4 605/37/4
f 678/37/4 679/37/4 607/37/4 606/37/4
f 679/37/4 680/37/4 608/37/4 607/37/4
f 680/37/4 681/37/4 609/37/4 608/37/4
f 681/37/4 682/37/4 610/37/4 609/37/4
f 682/37/4 683/37/4 611/37/4 610/37/4
f 683/37/4 684/37/4 612/37/4 611/37/4
f 684/37/4 685/37/4 613/37/4 612/37/4
f 685/37/4 686/37/4 614/37/4 613/37/4
f 686/37/4 687/37/4 615/37/4 614/37/4
f 615/37/6 687/37/6 672/37/6 600/37/6
f 621/36/3 688/36/3 689/36/3 617/36/3
f 689/36/5 690/36/5 618/36/5 617/36/5
f 622/36/3 691/36/3 688/36/3 621/36/3
f 625/36/6 692/36/6 691/36/6 622/36/6
f 693/38/2 694/38/2 695/38/2 696/38/2
f 630/38/3 693/38/3 696/38/3 628/38/3
f 696/38/5 695/38/5 629/38/5 628/38/5
f 632/38/3 697/38/3 693/38/3 630/38/3
f 634/38/3 698/38/3 697/38/3 632/38/3
f 638/38/6 699/38/6 698/38/6 634/38/6
f 641/36/3 700/36/3 701/36/3 639/36/3
f 701/36/5 702/36/5 640/36/5 639/36/5
f 642/36/3 703/36/3 700/36/3 641/36/3
f 646/36/6 704/36/6 703/36/6 642/36/6
f 618/37/3 690/37/3 705/37/3 619/37/3
f 705/37/5 706/37/5 647/37/5 619/37/5
f 624/37/3 707/37/3 692/37/3 625/37/3
f 627/37/3 708/37/3 707/37/3 624/37/3
f 629/37/3 695/37/3 708/37/3 627/37/3
f 637/37/3 709/37/3 699/37/3 638/37/3
f 640/37/3 702/37/3 709/37/3 637/37/3
f 645/37/3 710/37/3 704/37/3 646/37/3
f 648/37/6 711/37/6 710/37/6 645/37/6
f 706/37/5 712/37/5 649/37/5 647/37/5
f 650/37/6 713/37/6 711/37/6 648/37/6
f 712/37/5 714/37/5 651/37/5 649/37/5
f 652/37/6 715/37/6 713/37/6 650/37/6
f 714/37/5 716/37/5 653/37/5 651/37/5
f 654/36/6 717/36/6 715/36/6 652/36/6
f 716/37/5 718/37/5 655/37/5 653/37/5
f 656/37/6 719/37/6 717/37/6 654/37/6
f 718/37/5 720/37/5 657/37/5 655/37/5
f 658/37/6 721/37/6 719/37/6 656/37/6
f 720/37/5 722/37/5 659/37/5 657/37/5
f 660/37/6 723/37/6 721/37/6 658/37/6
f 722/37/5 724/37/5 661/37/5 659/37/5
f 662/36/6 725/36/6 723/36/6 660/36/6
f 724/37/5 726/37/5 663/37/5 661/37/5
f 664/37/6 727/37/6 725/37/6 662/37/6
f 726/37/5 728/37/5 665/37/5 663/37/5
f 666/37/6 729/37/6 727/37/6 664/37/6
f 728/37/5 730/37/5 667/37/5 665/37/5
f 668/37/6 731/37/6 729/37/6 666/37/6
f 730/37/5 732/37/5 669/37/5 667/37/5
f 670/36/6 733/36/6 731/36/6 668/36/6
f 732/37/5 734/37/5 671/37/5 669/37/5
f 672/37/6 735/37/6 733/37/6 670/37/6
f 736/37/4 737/37/4 674/37/4 673/37/4
f 734/37/5 736/37/5 673/37/5 671/37/5
f 737/37/4 738/37/4 675/37/4 674/37/4
f 738/37/4 739/37/4 676/37/4 675/37/4
f 739/37/4 740/37/4 677/37/4 676/37/4
f 740/37/4 741/37/4 678/37/4 677/37/4
f 741/37/4 742/37/4 679/37/4 678/37/4
f 742/37/4 743/37/4 680/37/4 679/37/4
f 743/37/4 744/37/4 681/37/4 680/37/4
f 744/37/4 745/37/4 682/37/4 681/37/4
f 745/37/4 746/37/4 683/37/4 682/37/4
f 746/37/4 747/37/4 684/37/4 683/37/4
f 747/37/4 748/37/4 685/37/4 684/37/4
f 748/37/4 749/37/4 686/37/4 685/37/4
f 749/37/4 750/37/4 687/37/4 686/37/4
f 687/37/6 750/37/6 735/37/6 672/37/6
f 688/36/3 751/36/3 752/36/3 689/36/3
f 752/36/5 753/36/5 690/36/5 689/36/5
f 691/36/3 754/36/3 751/36/3 688/36/3
f 692/36/6 755/36/6 754/36/6 691/36/6
f 756/38/2 757/38/2 758/38/2 759/38/2
f 697/38/3 756/38/3 759/38/3 693/38/3
f 759/38/5 758/38/5 694/38/5 693/38/5
f 698/38/3 760/38/3 756/38/3 697/38/3
f 699/38/1 709/38/1 761/38/1 698/38/1
f 761/38/3 762/38/3 760/38/3 698/38/3
f 709/38/6 763/38/6 762/38/6 761/38/6
f 700/36/3 764/36/3 765/36/3 701/36/3
f 765/36/5 766/36/5 702/36/5 701/36/5
f 703/36/3 767/36/3 764/36/3 700/36/3
f 704/36/6 768/36/6 767/36/6 703/36/6
f 690/37/3 753/37/3 769/37/3 705/37/3
f 769/37/5 770/37/5 706/37/5 705/37/5
f 707/37/3 771/37/3 755/37/3 692/37/3
f 708/37/3 772/37/3 771/37/3 707/37/3
f 695/37/3 773/37/3 772/37/3 708/37/3
f 694/36/3 758/36/3 773/36/3 695/36/3
f 702/37/3 766/37/3 763/37/3 709/37/3
f 710/37/3 774/37/3 768/37/3 704/37/3
f 711/37/6 775/37/6 774/37/6 710/37/6
f 770/37/5 776/37/5 712/37/5 706/37/5
f 713/37/6 777/37/6 775/37/6 711/37/6
f 776/37/5 778/37/5 714/37/5 712/37/5
f 715/37/6 779/37/6 777/37/6 713/37/6
f 778/37/5 780/37/5 716/37/5 714/37/5
f 717/36/6 781/36/6 779/36/6 715/36/6
f 780/37/5 782/37/5 718/37/5 716/37/5
f 719/37/6 783/37/6 781/37/6 717/37/6
f 782/37/5 784/37/5 720/37/5 718/37/5
f 721/37/6 785/37/6 783/37/6 719/37/6
f 784/37/5 786/37/5 722/37/5 720/37/5
f 723/37/6 787/37/6 785/37/6 721/37/6
f 786/37/5 788/37/5 724/37/5 722/37/5
f 725/36/6 789/36/6 787/36/6 723/36/6
f 788/37/5 790/37/5 726/37/5 724/37/5
f 727/37/6 791/37/6 789/37/6 725/37/6
f 790/37/5 792/37/5 728/37/5 726/37/5
f 729/37/6 793/37/6 791/37/6 727/37/6
f 792/37/5 794/37/5 730/37/5 728/37/5
f 731/37/6 795/37/6 793/37/6 729/37/6
f 794/37/5 796/37/5 732/37/5 730/37/5
f 733/36/6 797/36/6 795/36/6 731/36/6
f 796/37/5 798/37/5 734/37/5 732/37/5
f 735/37/6 799/37/6 797/37/6 733/37/6
f 800/37/4 801/37/4 737/37/4 736/37/4
f 798/37/5 800/37/5 736/37/5 734/37/5
f 801/37/4 802/37/4 738/37/4 737/37/4
f 802/37/4 803/37/4 739/37/4 738/37/4
f 803/37/4 804/37/4 740/37/4 739/37/4
f 804/37/4 805/37/4 741/37/4 740/37/4
f 805/37/4 806/37/4 742/37/4 741/37/4
f 806/37/4 807/37/4 743/37/4 742/37/4
f 807/37/4 808/37/4 744/37/4 743/37/4
f 808/37/4 809/37/4 745/37/4 744/37/4
f 809/37/4 810/37/4 746/37/4 745/37/4
f 810/37/4 811/37/4 747/37/4 746/37/4
f 811/37/4 812/37/4 748/37/4 747/37/4
f 812/37/4 813/37/4 749/37/4 748/37/4
f 813/37/4 814/37/4 750/37/4 749/37/4
f 750/37/6 814/37/6 799/37/6 735/37/6
f 751/36/3 815/36/3 816/36/3 752/36/3
f 816/36/5 817/36/5 753/36/5 752/36/5
f 754/36/3 818/36/3 815/36/3 751/36/3
f 755/36/6 819/36/6 818/36/6 754/36/6
f 820/38/2 821/38/2 822/38/2 823/38/2
f 760/38/3 820/38/3 823/38/3 756/38/3
f 823/38/5 822/38/5 757/38/5 756/38/5
f 762/38/3 824/38/3 820/38/3 760/38/3
f 763/38/1 766/38/1 765/38/1 762/38/1
f 765/38/3 825/38/3 824/38/3 762/38/3
f 764/36/3 826/36/3 825/36/3 765/36/3
f 767/36/3 827/36/3 826/36/3 764/36/3
f 768/36/6 828/36/6 827/36/6 767/36/6
f 753/37/3 817/37/3 829/37/3 769/37/3
f 829/37/5 830/37/5 770/37/5 769/37/5
f 771/37/3 831/37/3 819/37/3 755/37/3
f 772/37/3 832/37/3 831/37/3 771/37/3
f 773/37/3 833/37/3 832/37/3 772/37/3
f 758/37/3 834/37/3 833/37/3 773/37/3
f 757/37/3 822/37/3 834/37/3 758/37/3
f 774/37/3 835/37/3 828/37/3 768/37/3
f 775/37/6 836/37/6 835/37/6 774/37/6
f 830/37/5 837/37/5 776/37/5 770/37/5
f 777/37/6 838/37/6 836/37/6 775/37/6
f 837/37/5 839/37/5 778/37/5 776/37/5
f 779/37/6 840/37/6 838/37/6 777/37/6
f 839/37/5 841/37/5 780/37/5 778/37/5
f 781/36/6 842/36/6 840/36/6 779/36/6
f 841/37/5 843/37/5 782/37/5 780/37/5
f 783/37/6 844/37/6 842/37/6 781/37/6
f 843/37/5 845/37/5 784/37/5 782/37/5
f 785/37/6 846/37/6 844/37/6 783/37/6
f 845/37/5 847/37/5 786/37/5 784/37/5
f 787/37/6 848/37/6 846/37/6 785/37/6
f 847/37/5 849/37/5 788/37/5 786/37/5
f 789/36/6 850/36/6 848/36/6 787/36/6
f 849/37/5 851/37/5 790/37/5 788/37/5
f 791/37/6 852/37/6 850/37/6 789/37/6
f 851/37/5 853/37/5 792/37/5 790/37/5
f 793/37/6 854/37/6 852/37/6 791/37/6
f 853/37/5 855/37/5 794/37/5 792/37/5
f 795/37/6 856/37/6 854/37/6 793/37/6
f 855/37/5 857/37/5 796/37/5 794/37/5
f 797/36/6 858/36/6 856/36/6 795/36/6
f 857/37/5 859/37/5 798/37/5 796/37/5
f 799/37/6 860/37/6 858/37/6 797/37/6
f 861/37/4 862/37/4 801/37/4 800/37/4
f 859/37/5 861/37/5 800/37/5 798/37/5
f 862/37/4 863/37/4 802/37/4 801/37/4
f 863/37/4 864/37/4 803/37/4 802/37/4
f 864/37/4 865/37/4 804/37/4 803/37/4
f 865/37/4 866/37/4 805/37/4 804/37/4
f 866/37/4 867/37/4 806/37/4 805/37/4
f 867/37/4 868/37/4 807/37/4 806/37/4
f 868/37/4 869/37/4 808/37/4 807/37/4
f 869/37/4 870/37/4 809/37/4 808/37/4
f 870/37/4 871/37/4 810/37/4 809/37/4
f 871/37/4 872/37/4 811/37/4 810/37/4
f 872/37/4 873/37/4 812/37/4 811/37/4
f 873/37/4 874/37/4 813/37/4 812/37/4
f 874/37/4 875/37/4 814/37/4 813/37/4
f 814/37/6 875/37/6 860/37/6 799/37/6
f 815/36/3 876/36/3 877/36/3 816/36/3
f 877/36/5 878/36/5 817/36/5 816/36/5
f 818/36/3 879/36/3 876/36/3 815/36/3
f 819/36/6 880/36/6 879/36/6 818/36/6
f 824/38/3 881/38/3 882/38/3 820/38/3
f 882/38/5 883/38/5 821/38/5 820/38/5
f 825/38/3 884/38/3 881/38/3 824/38/3
f 826/36/3 885/36/3 884/36/3 825/36/3
f 827/36/3 886/36/3 885/36/3 826/36/3
f 828/36/6 887/36/6 886/36/6 827/36/6
f 817/37/3 878/37/3 888/37/3 829/37/3
f 888/37/5 889/37/5 830/37/5 829/37/5
f 831/37/3 890/37/3 880/37/3 819/37/3
f 832/37/3 891/37/3 890/37/3 831/37/3
f 833/37/3 892/37/3 891/37/3 832/37/3
f 834/37/3 893/37/3 892/37/3 833/37/3
f 822/37/3 894/37/3 893/37/3 834/37/3
f 821/37/3 883/37/3 894/37/3 822/37/3
f 835/37/3 895/37/3 887/37/3 828/37/3
f 836/37/6 896/37/6 895/37/6 835/37/6
f 889/37/5 897/37/5 837/37/5 830/37/5
f 838/37/6 898/37/6 896/37/6 836/37/6
f 897/37/5 899/37/5 839/37/5 837/37/5
f 840/37/6 900/37/6 898/37/6 838/37/6
f 899/37/5 901/37/5 841/37/5 839/37/5
f 842/36/6 902/36/6 900/36/6 840/36/6
f 901/37/5 903/37/5 843/37/5 841/37/5
f 844/37/6 904/37/6 902/37/6 842/37/6
f 903/37/5 905/37/5 845/37/5 843/37/5
f 846/37/6 906/37/6 904/37/6 844/37/6
f 905/37/5 907/37/5 847/37/5 845/37/5
f 848/37/6 908/37/6 906/37/6 846/37/6
f 907/37/5 909/37/5 849/37/5 847/37/5
f 850/36/6 910/36/6 908/36/6 848/36/6
f 909/37/5 911/37/5 851/37/5 849/37/5
f 852/37/6 912/37/6 910/37/6 850/37/6
f 911/37/5 913/37/5 853/37/5 851/37/5
f 854/37/6 914/37/6 912/37/6 852/37/6
f 913/37/5 915/37/5 855/37/5 853/37/5
f 856/37/6 916/37/6 914/37/6 854/37/6
f 915/37/5 917/37/5 857/37/5 855/37/5
f 858/36/6 918/36/6 916/36/6 856/36/6
f 917/37/5 919/37/5 859/37/5 857/37/5
f 860/37/6 920/37/6 918/37/6 858/37/6
f 921/37/4 922/37/4 862/37/4 861/37/4
f 919/37/5 921/37/5 861/37/5 859/37/5
f 922/37/4 923/37/4 863/37/4 862/37/4
f 923/37/4 924/37/4 864/37/4 863/37/4
f 924/37/4 925/37/4 865/37/4 864/37/4
f 925/37/4 926/37/4 866/37/4 865/37/4
f 926/37/4 927/37/4 867/37/4 866/37/4
f 927/37/4 928/37/4 868/37/4 867/37/4
f 928/37/4 929/37/4 869/37/4 868/37/4
f 929/37/4 930/37/4 870/37/4 869/37/4
f 930/37/4 931/37/4 871/37/4 870/37/4
f 931/37/4 932/37/4 872/37/4 871/37/4
f 932/37/4 933/37/4 873/37/4 872/37/4
f 933/37/4 934/37/4 874/37/4 873/37/4
f 934/37/4 935/37/4 875/37/4 874/37/4
f 875/37/6 935/37/6 920/37/6 860/37/6
f 888/36/1 878/36/1 877/36/1 936/36/1
f 937/36/2 938/36/2 939/36/2 940/36/2
f 877/36/3 937/36/3 940/36/3 936/36/3
f 940/36/5 939/36/5 888/36/5 936/36/5
f 876/36/3 941/36/3 937/36/3 877/36/3
f 879/36/3 942/36/3 941/36/3 876/36/3
f 880/36/1 890/36/1 943/36/1 879/36/1
f 944/36/2 945/36/2 946/36/2 942/36/2
f 943/36/3 944/36/3 942/36/3 879/36/3
f 890/36/1 891/36/1 947/36/1 943/36/1
f 948/36/2 949/36/2 945/36/2 944/36/2
f 947/36/3 948/36/3 944/36/3 943/36/3
f 891/36/1 892/36/1 950/36/1 947/36/1
f 951/36/2 952/36/2 949/36/2 948/36/2
f 950/36/3 951/36/3 948/36/3 947/36/3
f 892/36/1 893/36/1 953/36/1 950/36/1
f 954/36/2 955/36/2 952/36/2 951/36/2
f 953/36/3 954/36/3 951/36/3 950/36/3
f 893/36/1 894/36/1 956/36/1 953/36/1
f 957/36/2 958/36/2 955/36/2 954/36/2
f 956/36/3 957/36/3 954/36/3 953/36/3
f 894/36/1 883/36/1 882/36/1 956/36/1
f 959/36/2 960/36/2 958/36/2 957/36/2
f 882/36/3 959/36/3 957/36/3 956/36/3
f 961/36/2 962/36/2 960/36/2 959/36/2
f 881/36/3 961/36/3 959/36/3 882/36/3
f 963/38/2 964/38/2 962/38/2 961/38/2
f 884/38/3 963/38/3 961/38/3 881/38/3
f 885/36/3 965/36/3 963/36/3 884/36/3
f 886/36/3 966/36/3 965/36/3 885/36/3
f 887/36/1 895/36/1 967/36/1 886/36/1
f 967/36/3 968/36/3 966/36/3 886/36/3
f 895/36/6 969/36/6 968/36/6 967/36/6
f 939/37/5 970/37/5 889/37/5 888/37/5
f 896/37/6 971/37/6 969/37/6 895/37/6
f 970/37/5 972/37/5 897/37/5 889/37/5
f 898/37/6 973/37/6 971/37/6 896/37/6
f 972/37/5 974/37/5 899/37/5 897/37/5
f 900/37/6 975/37/6 973/37/6 898/37/6
f 974/37/5 976/37/5 901/37/5 899/37/5
f 902/36/6 977/36/6 975/36/6 900/36/6
f 976/37/5 978/37/5 903/37/5 901/37/5
f 904/37/6 979/37/6 977/37/6 902/37/6
f 978/37/5 980/37/5 905/37/5 903/37/5
f 906/37/6 981/37/6 979/37/6 904/37/6
f 980/37/5 982/37/5 907/37/5 905/37/5
f 908/37/6 983/37/6 981/37/6 906/37/6
f 982/37/5 984/37/5 909/37/5 907/37/5
f 910/36/6 985/36/6 983/36/6 908/36/6
f 984/37/5 986/37/5 911/37/5 909/37/5
f 912/37/6 987/37/6 985/37/6 910/37/6
f 986/37/5 988/37/5 913/37/5 911/37/5
f 914/37/6 989/37/6 987/37/6 912/37/6
f 988/37/5 990/37/5 915/37/5 913/37/5
f 916/37/6 991/37/6 989/37/6 914/37/6
f 990/37/5 992/37/5 917/37/5 915/37/5
f 918/36/6 993/36/6 991/36/6 916/36/6
f 992/37/5 994/37/5 919/37/5 917/37/5
f 920/37/6 995/37/6 993/37/6 918/37/6
f 996/37/4 997/37/4 922/37/4 921/37/4
f 994/37/5 996/37/5 921/37/5 919/37/5
f 997/37/4 998/37/4 923/37/4 922/37/4
f 998/37/4 999/37/4 924/37/4 923/37/4
f 999/37/4 1000/37/4 925/37/4 924/37/4
f 1000/37/4 1001/37/4 926/37/4 925/37/4
f 1001/37/4 1002/37/4 927/37/4 926/37/4
f 1002/37/4 1003/37/4 928/37/4 927/37/4
f 1003/37/4 1004/37/4 929/37/4 928/37/4
f 1004/37/4 1005/37/4 930/37/4 929/37/4
f 1005/37/4 1006/37/4 931/37/4 930/37/4
f 1006/37/4 1007/37/4 932/37/4 931/37/4
f 1007/37/4 1008/37/4 933/37/4 932/37/4
f 1008/37/4 1009/37/4 934/37/4 933/37/4
f 1009/37/4 1010/37/4 935/37/4 934/37/4
f 935/37/6 1010/37/6 995/37/6 920/37/6
f 941/36/3 1011/36/3 1012/36/3 937/36/3
f 1012/36/5 1013/36/5 938/36/5 937/36/5
f 942/36/3 1014/36/3 1011/36/3 941/36/3
f 946/36/6 1015/36/6 1014/36/6 942/36/6
f 965/36/3 1016/36/3 1017/36/3 963/36/3
f 1017/36/5 1018/36/5 964/36/5 963/36/5
f 966/36/3 1019/36/3 1016/36/3 965/36/3
f 968/38/3 1020/38/3 1019/38/3 966/38/3
f 969/38/6 1021/38/6 1020/38/6 968/38/6
f 938/37/3 1013/37/3 1022/37/3 939/37/3
f 1022/37/5 1023/37/5 970/37/5 939/37/5
f 945/37/3 1024/37/3 1015/37/3 946/37/3
f 949/37/3 1025/37/3 1024/37/3 945/37/3
f 952/37/3 1026/37/3 1025/37/3 949/37/3
f 955/37/3 1027/37/3 1026/37/3 952/37/3
f 958/37/3 1028/37/3 1027/37/3 955/37/3
f 960/37/3 1029/37/3 1028/37/3 958/37/3
f 962/37/3 1030/37/3 1029/37/3 960/37/3
f 964/37/3 1018/37/3 1030/37/3 962/37/3
f 971/37/6 1031/37/6 1021/37/6 969/37/6
f 1023/37/5 1032/37/5 972/37/5 970/37/5
f 973/37/6 1033/37/6 1031/37/6 971/37/6
f 1032/37/5 1034/37/5 974/37/5 972/37/5
f 975/37/6 1035/37/6 1033/37/6 973/37/6
f 1034/37/5 1036/37/5 976/37/5 974/37/5
f 977/36/6 1037/36/6 1035/36/6 975/36/6
f 1036/37/5 1038/37/5 978/37/5 976/37/5
f 979/37/6 1039/37/6 1037/37/6 977/37/6
f 1038/37/5 1040/37/5 980/37/5 978/37/5
f 981/37/6 1041/37/6 1039/37/6 979/37/6
f 1040/37/5 1042/37/5 982/37/5 980/37/5
f 983/37/6 1043/37/6 1041/37/6 981/37/6
f 1042/37/5 1044/37/5 984/37/5 982/37/5
f 985/36/6 1045/36/6 1043/36/6 983/36/6
f 1044/37/5 1046/37/5 986/37/5 984/37/5
f 987/37/6 1047/37/6 1045/37/6 985/37/6
f 1046/37/5 1048/37/5 988/37/5 986/37/5
f 989/37/6 1049/37/6 1047/37/6 987/37/6
f 1048/37/5 1050/37/5 990/37/5 988/37/5
f 991/37/6 1051/37/6 1049/37/6 989/37/6
f 1050/37/5 1052/37/5 992/37/5 990/37/5
f 993/36/6 1053/36/6 1051/36/6 991/36/6
f 1052/37/5 1054/37/5 994/37/5 992/37/5
f 995/37/6 1055/37/6 1053/37/6 993/37/6
f 1056/37/4 1057/37/4 997/37/4 996/37/4
f 1054/37/5 1056/37/5 996/37/5 994/37/5
f 1057/37/4 1058/37/4 998/37/4 997/37/4
f 1058/37/4 1059/37/4 999/37/4 998/37/4
f 1059/37/4 1060/37/4 1000/37/4 999/37/4
f 1060/37/4 1061/37/4 1001/37/4 1000/37/4
f 1061/37/4 1062/37/4 1002/37/4 1001/37/4
f 1062/37/4 1063/37/4 1003/37/4 1002/37/4
f 1063/37/4 1064/37/4 1004/37/4 1003/37/4
f 1064/37/4 1065/37/4 1005/37/4 1004/37/4
f 1065/37/4 1066/37/4 1006/37/4 1005/37/4
f 1066/37/4 1067/37/4 1007/37/4 1006/37/4
f 1067/37/4 1068/37/4 1008/37/4 1007/37/4
f 1068/37/4 1069/37/4 1009/37/4 1008/37/4
f 1069/37/4 1070/37/4 1010/37/4 1009/37/4
f 1010/37/6 1070/37/6 1055/37/6 995/37/6
f 1071/36/2 1072/36/2 1073/36/2 1074/36/2
f 1011/36/3 1071/36/3 1074/36/3 1012/36/3
f 1074/36/5 1073/36/5 1013/36/5 1012/36/5
f 1075/36/2 1076/36/2 1072/36/2 1071/36/2
f 1014/36/3 1075/36/3 1071/36/3 1011/36/3
f 1015/36/6 1076/36/6 1075/36/6 1014/36/6
f 1077/36/2 1078/36/2 1079/36/2 1080/36/2
f 1016/36/3 1077/36/3 1080/36/3 1017/36/3
f 1080/36/5 1079/36/5 1018/36/5 1017/36/5
f 1081/36/2 1082/36/2 1078/36/2 1077/36/2
f 1019/36/3 1081/36/3 1077/36/3 1016/36/3
f 1083/38/2 1084/38/2 1082/38/2 1081/38/2
f 1020/38/3 1083/38/3 1081/38/3 1019/38/3
f 1021/38/6 1084/38/6 1083/38/6 1020/38/6
f 1073/37/2 1085/37/2 1086/37/2 1087/37/2
f 1013/37/3 1073/37/3 1087/37/3 1022/37/3
f 1087/37/5 1086/37/5 1023/37/5 1022/37/5
f 1072/37/2 1088/37/2 1085/37/2 1073/37/2
f 1076/37/2 1089/37/2 1088/37/2 1072/37/2
f 1090/37/2 1091/37/2 1089/37/2 1076/37/2
f 1024/37/3 1090/37/3 1076/37/3 1015/37/3
f 1092/37/2 1093/37/2 1091/37/2 1090/37/2
f 1025/37/3 1092/37/3 1090/37/3 1024/37/3
f 1094/37/2 1095/37/2 1093/37/2 1092/37/2
f 1026/37/3 1094/37/3 1092/37/3 1025/37/3
f 1096/37/2 1097/37/2 1095/37/2 1094/37/2
f 1027/37/3 1096/37/3 1094/37/3 1026/37/3
f 1098/37/2 1099/37/2 1097/37/2 1096/37/2
f 1028/37/3 1098/37/3 1096/37/3 1027/37/3
f 1100/37/2 1101/37/2 1099/37/2 1098/37/2
f 1029/37/3 1100/37/3 1098/37/3 1028/37/3
f 1102/37/2 1103/37/2 1101/37/2 1100/37/2
f 1030/37/3 1102/37/3 1100/37/3 1029/37/3
f 1079/37/2 1104/37/2 1103/37/2 1102/37/2
f 1018/37/3 1079/37/3 1102/37/3 1030/37/3
f 1078/37/2 1105/37/2 1104/37/2 1079/37/2
f 1082/37/2 1106/37/2 1105/37/2 1078/37/2
f 1084/37/2 1107/37/2 1106/37/2 1082/37/2
f 1031/37/6 1107/37/6 1084/37/6 1021/37/6
f 1085/37/2 1108/37/2 1109/37/2 1086/37/2
f 1086/37/5 1109/37/5 1032/37/5 1023/37/5
f 1088/37/2 1110/37/2 1108/37/2 1085/37/2
f 1089/37/2 1111/37/2 1110/37/2 1088/37/2
f 1091/37/2 1112/37/2 1111/37/2 1089/37/2
f 1093/37/2 1113/37/2 1112/37/2 1091/37/2
f 1095/37/2 1114/37/2 1113/37/2 1093/37/2
f 1097/37/2 1115/37/2 1114/37/2 1095/37/2
f 1099/37/2 1116/37/2 1115/37/2 1097/37/2
f 1101/37/2 1117/37/2 1116/37/2 1099/37/2
f 1103/37/2 1118/37/2 1117/37/2 1101/37/2
f 1104/37/2 1119/37/2 1118/37/2 1103/37/2
f 1105/37/2 1120/37/2 1119/37/2 1104/37/2
f 1106/37/2 1121/37/2 1120/37/2 1105/37/2
f 1107/37/2 1122/37/2 1121/37/2 1106/37/2
f 1033/37/6 1122/37/6 1107/37/6 1031/37/6
f 1108/37/2 1123/37/2 1124/37/2 1109/37/2
f 1109/37/5 1124/37/5 1034/37/5 1032/37/5
f 1110/37/2 1125/37/2 1123/37/2 1108/37/2
f 1111/37/2 1126/37/2 1125/37/2 1110/37/2
f 1112/37/2 1127/37/2 1126/37/2 1111/37/2
f 1113/37/2 1128/37/2 1127/37/2 1112/37/2
f 1114/37/2 1129/37/2 1128/37/2 1113/37/2
f 1115/37/2 1130/37/2 1129/37/2 1114/37/2
f 1116/37/2 1131/37/2 1130/37/2 1115/37/2
f 1117/37/2 1132/37/2 1131/37/2 1116/37/2
f 1118/37/2 1133/37/2 1132/37/2 1117/37/2
f 1119/37/2 1134/37/2 1133/37/2 1118/37/2
f 1120/37/2 1135/37/2 1134/37/2 1119/37/2
f 1121/37/2 1136/37/2 1135/37/2 1120/37/2
f 1122/37/2 1137/37/2 1136/37/2 1121/37/2
f 1035/37/6 1137/37/6 1122/37/6 1033/37/6
f 1123/37/2 1138/37/2 1139/37/2 1124/37/2
f 1124/37/5 1139/37/5 1036/37/5 1034/37/5
f 1125/37/2 1140/37/2 1138/37/2 1123/37/2
f 1126/37/2 1141/37/2 1140/37/2 1125/37/2
f 1127/37/2 1142/37/2 1141/37/2 1126/37/2
f 1128/37/2 1143/37/2 1142/37/2 1127/37/2
f 1129/37/2 1144/37/2 1143/37/2 1128/37/2
f 1130/37/2 1145/37/2 1144/37/2 1129/37/2
f 1131/37/2 1146/37/2 1145/37/2 1130/37/2
f 1132/37/2 1147/37/2 1146/37/2 1131/37/2
f 1133/37/2 1148/37/2 1147/37/2 1132/37/2
f 1134/37/2 1149/37/2 1148/37/2 1133/37/2
f 1135/37/2 1150/37/2 1149/37/2 1134/37/2
f 1136/37/2 1151/37/2 1150/37/2 1135/37/2
f 1137/36/2 1152/36/2 1151/36/2 1136/36/2
f 1037/36/6 1152/36/6 1137/36/6 1035/36/6
f 1138/37/2 1153/37/2 1154/37/2 1139/37/2
f 1139/37/5 1154/37/5 1038/37/5 1036/37/5
f 1140/37/2 1155/37/2 1153/37/2 1138/37/2
f 1141/37/2 1156/37/2 1155/37/2 1140/37/2
f 1142/37/2 1157/37/2 1156/37/2 1141/37/2
f 1143/37/2 1158/37/2 1157/37/2 1142/37/2
f 1144/37/2 1159/37/2 1158/37/2 1143/37/2
f 1145/37/2 1160/37/2 1159/37/2 1144/37/2
f 1146/37/2 1161/37/2 1160/37/2 1145/37/2
f 1147/37/2 1162/37/2 1161/37/2 1146/37/2
f 1148/37/2 1163/37/2 1162/37/2 1147/37/2
f 1149/37/2 1164/37/2 1163/37/2 1148/37/2
f 1150/37/2 1165/37/2 1164/37/2 1149/37/2
f 1151/37/2 1166/37/2 1165/37/2 1150/37/2
f 1152/37/2 1167/37/2 1166/37/2 1151/37/2
f 1039/37/6 1167/37/6 1152/37/6 1037/37/6
f 1153/37/2 1168/37/2 1169/37/2 1154/37/2
f 1154/37/5 1169/37/5 1040/37/5 1038/37/5
f 1155/37/2 1170/37/2 1168/37/2 1153/37/2
f 1156/37/2 1171/37/2 1170/37/2 1155/37/2
f 1157/37/2 1172/37/2 1171/37/2 1156/37/2
f 1158/37/2 1173/37/2 1172/37/2 1157/37/2
f 1159/37/2 1174/37/2 1173/37/2 1158/37/2
f 1160/37/2 1175/37/2 1174/37/2 1159/37/2
f 1161/37/2 1176/37/2 1175/37/2 1160/37/2
f 1162/37/2 1177/37/2 1176/37/2 1161/37/2
f 1163/37/2 1178/37/2 1177/37/2 1162/37/2
f 1164/37/2 1179/37/2 1178/37/2 1163/37/2
f 1165/37/2 1180/37/2 1179/37/2 1164/37/2
f 1166/37/2 1181/37/2 1180/37/2 1165/37/2
f 1167/37/2 1182/37/2 1181/37/2 1166/37/2
f 1041/37/6 1182/37/6 1167/37/6 1039/37/6
f 1168/37/2 1183/37/2 1184/37/2 1169/37/2
f 1169/37/5 1184/37/5 1042/37/5 1040/37/5
f 1170/37/2 1185/37/2 1183/37/2 1168/37/2
f 1171/37/2 1186/37/2 1185/37/2 1170/37/2
f 1172/37/2 1187/37/2 1186/37/2 1171/37/2
f 1173/37/2 1188/37/2 1187/37/2 1172/37/2
f 1174/37/2 1189/37/2 1188/37/2 1173/37/2
f 1175/37/2 1190/37/2 1189/37/2 1174/37/2
f 1176/37/2 1191/37/2 1190/37/2 1175/37/2
f 1177/37/2 1192/37/2 1191/37/2 1176/37/2
f 1178/37/2 1193/37/2 1192/37/2 1177/37/2
f 1179/37/2 1194/37/2 1193/37/2 1178/37/2
f 1180/37/2 1195/37/2 1194/37/2 1179/37/2
f 1181/37/2 1196/37/2 1195/37/2 1180/37/2
f 1182/37/2 1197/37/2 1196/37/2 1181/37/2
f 1043/37/6 1197/37/6 1182/37/6 1041/37/6
f 1183/37/2 1198/37/2 1199/37/2 1184/37/2
f 1184/37/5 1199/37/5 1044/37/5 1042/37/5
f 1185/37/2 1200/37/2 1198/37/2 1183/37/2
f 1186/36/2 1201/36/2 1200/36/2 1185/36/2
f 1187/37/2 1202/37/2 1201/37/2 1186/37/2
f 1188/37/2 1203/37/2 1202/37/2 1187/37/2
f 1189/37/2 1204/37/2 1203/37/2 1188/37/2
f 1190/37/2 1205/37/2 1204/37/2 1189/37/2
f 1191/37/2 1206/37/2 1205/37/2 1190/37/2
f 1192/37/2 1207/37/2 1206/37/2 1191/37/2
f 1193/37/2 1208/37/2 1207/37/2 1192/37/2
f 1194/37/2 1209/37/2 1208/37/2 1193/37/2
f 1195/37/2 1210/37/2 1209/37/2 1194/37/2
f 1196/37/2 1211/37/2 1210/37/2 1195/37/2
f 1197/36/2 1212/36/2 1211/36/2 1196/36/2
f 1045/36/6 1212/36/6 1197/36/6 1043/36/6
f 1198/37/2 1213/37/2 1214/37/2 1199/37/2
f 1199/37/5 1214/37/5 1046/37/5 1044/37/5
f 1200/37/2 1215/37/2 1213/37/2 1198/37/2
f 1201/37/2 1216/37/2 1215/37/2 1200/37/2
f 1202/37/2 1217/37/2 1216/37/2 1201/37/2
f 1203/37/2 1218/37/2 1217/37/2 1202/37/2
f 1204/37/2 1219/37/2 1218/37/2 1203/37/2
f 1205/37/2 1220/37/2 1219/37/2 1204/37/2
f 1206/37/2 1221/37/2 1220/37/2 1205/37/2
f 1207/37/2 1222/37/2 1221/37/2 1206/37/2
f 1208/37/2 1223/37/2 1222/37/2 1207/37/2
f 1209/37/2 1224/37/2 1223/37/2 1208/37/2
f 1210/37/2 1225/37/2 1224/37/2 1209/37/2
f 1211/37/2 1226/37/2 1225/37/2 1210/37/2
f 1212/37/2 1227/37/2 1226/37/2 1211/37/2
f 1047/37/6 1227/37/6 1212/37/6 1045/37/6
f 1213/37/2 1228/37/2 1229/37/2 1214/37/2
f 1214/37/5 1229/37/5 1048/37/5 1046/37/5
f 1215/37/2 1230/37/2 1228/37/2 1213/37/2
f 1216/37/2 1231/37/2 1230/37/2 1215/37/2
f 1217/37/2 1232/37/2 1231/37/2 1216/37/2
f 1218/37/2 1233/37/2 1232/37/2 1217/37/2
f 1219/37/2 1234/37/2 1233/37/2 1218/37/2
f 1220/37/2 1235/37/2 1234/37/2 1219/37/2
f 1221/37/2 1236/37/2 1235/37/2 1220/37/2
f 1222/37/2 1237/37/2 1236/37/2 1221/37/2
f 1223/37/2 1238/37/2 1237/37/2 1222/37/2
f 1224/37/2 1239/37/2 1238/37/2 1223/37/2
f 1225/37/2 1240/37/2 1239/37/2 1224/37/2
f 1226/37/2 1241/37/2 1240/37/2 1225/37/2
f 1227/37/2 1242/37/2 1241/37/2 1226/37/2
f 1049/37/6 1242/37/6 1227/37/6 1047/37/6
f 1228/37/2 1243/37/2 1244/37/2 1229/37/2
f 1229/37/5 1244/37/5 1050/37/5 1048/37/5
f 1230/37/2 1245/37/2 1243/37/2 1228/37/2
f 1231/37/2 1246/37/2 1245/37/2 1230/37/2
f 1232/37/2 1247/37/2 1246/37/2 1231/37/2
f 1233/37/2 1248/37/2 1247/37/2 1232/37/2
f 1234/37/2 1249/37/2 1248/37/2 1233/37/2
f 1235/37/2 1250/37/2 1249/37/2 1234/37/2
f 1236/37/2 1251/37/2 1250/37/2 1235/37/2
f 1237/37/2 1252/37/2 1251/37/2 1236/37/2
f 1238/37/2 1253/37/2 1252/37/2 1237/37/2
f 1239/37/2 1254/37/2 1253/37/2 1238/37/2
f 1240/37/2 1255/37/2 1254/37/2 1239/37/2
f 1241/37/2 1256/37/2 1255/37/2 1240/37/2
f 1242/37/2 1257/37/2 1256/37/2 1241/37/2
f 1051/37/6 1257/37/6 1242/37/6 1049/37/6
f 1243/37/2 1258/37/2 1259/37/2 1244/37/2
f 1244/37/5 1259/37/5 1052/37/5 1050/37/5
f 1245/37/2 1260/37/2 1258/37/2 1243/37/2
f 1246/37/2 1261/37/2 1260/37/2 1245/37/2
f 1247/37/2 1262/37/2 1261/37/2 1246/37/2
f 1248/37/2 1263/37/2 1262/37/2 1247/37/2
f 1249/37/2 1264/37/2 1263/37/2 1248/37/2
f 1250/37/2 1265/37/2 1264/37/2 1249/37/2
f 1251/37/2 1266/37/2 1265/37/2 1250/37/2
f 1252/37/2 1267/37/2 1266/37/2 1251/37/2
f 1253/37/2 1268/37/2 1267/37/2 1252/37/2
f 1254/37/2 1269/37/2 1268/37/2 1253/37/2
f 1255/37/2 1270/37/2 1269/37/2 1254/37/2
f 1256/37/2 1271/37/2 1270/37/2 1255/37/2
f 1257/36/2 1272/36/2 1271/36/2 1256/36/2
f 1053/36/6 1272/36/6 1257/36/6 1051/36/6
f 1258/37/2 1273/37/2 1274/37/2 1259/37/2
f 1259/37/5 1274/37/5 1054/37/5 1052/37/5
f 1260/37/2 1275/37/2 1273/37/2 1258/37/2
f 1261/37/2 1276/37/2 1275/37/2 1260/37/2
f 1262/37/2 1277/37/2 1276/37/2 1261/37/2
f 1263/37/2 1278/37/2 1277/37/2 1262/37/2
f 1264/37/2 1279/37/2 1278/37/2 1263/37/2
f 1265/37/2 1280/37/2 1279/37/2 1264/37/2
f 1266/37/2 1281/37/2 1280/37/2 1265/37/2
f 1267/37/2 1282/37/2 1281/37/2 1266/37/2
f 1268/37/2 1283/37/2 1282/37/2 1267/37/2
f 1269/37/2 1284/37/2 1283/37/2 1268/37/2
f 1270/37/2 1285/37/2 1284/37/2 1269/37/2
f 1271/37/2 1286/37/2 1285/37/2 1270/37/2
f 1272/37/2 1287/37/2 1286/37/2 1271/37/2
f 1055/37/6 1287/37/6 1272/37/6 1053/37/6
f 1273/37/2 1288/37/2 1289/37/2 1274/37/2
f 1289/37/4 1288/37/4 1057/37/4 1056/37/4
f 1274/37/5 1289/37/5 1056/37/5 1054/37/5
f 1275/37/2 1290/37/2 1288/37/2 1273/37/2
f 1288/37/4 1290/37/4 1058/37/4 1057/37/4
f 1276/37/2 1291/37/2 1290/37/2 1275/37/2
f 1290/37/4 1291/37/4 1059/37/4 1058/37/4
f 1277/37/2 1292/37/2 1291/37/2 1276/37/2
f 1291/37/4 1292/37/4 1060/37/4 1059/37/4
f 1278/37/2 1293/37/2 1292/37/2 1277/37/2
f 1292/37/4 1293/37/4 1061/37/4 1060/37/4
f 1279/37/2 1294/37/2 1293/37/2 1278/37/2
f 1293/37/4 1294/37/4 1062/37/4 1061/37/4
f 1280/37/2 1295/37/2 1294/37/2 1279/37/2
f 1294/37/4 1295/37/4 1063/37/4 1062/37/4
f 1281/37/2 1296/37/2 1295/37/2 1280/37/2
f 1295/37/4 1296/37/4 1064/37/4 1063/37/4
f 1282/37/2 1297/37/2 1296/37/2 1281/37/2
f 1296/37/4 1297/37/4 1065/37/4 1064/37/4
f 1283/37/2 1298/37/2 1297/37/2 1282/37/2
f 1297/37/4 1298/37/4 1066/37/4 1065/37/4
f 1284/37/2 1299/37/2 1298/37/2 1283/37/2
f 1298/37/4 1299/37/4 1067/37/4 1066/37/4
f 1285/37/2 1300/37/2 1299/37/2 1284/37/2
f 1299/37/4 1300/37/4 1068/37/4 1067/37/4
f 1286/37/2 1301/37/2 1300/37/2 1285/37/2
f 1300/37/4 1301/37/4 1069/37/4 1068/37/4
f 1287/37/2 1302/37/2 1301/37/2 1286/37/2
f 1301/37/4 1302/37/4 1070/37/4 1069/37/4
f 1070/37/6 1302/37/6 1287/37/6 1055/37/6
