# Dungine lantern_post; 1 voxel = 1/16 unit; Y-up floor-center origin
mtllib lantern_post.mtl
o lantern_post
s off
v -0.250000 1.250000 -0.187500
v -0.250000 1.312500 -0.187500
v -0.250000 1.312500 -0.250000
v -0.250000 1.250000 -0.250000
v -0.187500 1.312500 -0.250000
v -0.187500 1.250000 -0.250000
v -0.187500 1.250000 -0.187500
v -0.250000 1.375000 -0.187500
v -0.250000 1.375000 -0.250000
v -0.187500 1.375000 -0.250000
v -0.250000 1.437500 -0.187500
v -0.250000 1.437500 -0.250000
v -0.187500 1.437500 -0.250000
v -0.187500 1.437500 -0.187500
v -0.187500 1.375000 -0.187500
v -0.250000 1.500000 -0.187500
v -0.250000 1.500000 -0.250000
v -0.187500 1.500000 -0.250000
v -0.187500 1.500000 -0.187500
v -0.250000 1.562500 -0.187500
v -0.250000 1.562500 -0.250000
v -0.187500 1.562500 -0.250000
v -0.187500 1.562500 -0.187500
v -0.250000 1.625000 -0.187500
v -0.250000 1.625000 -0.250000
v -0.187500 1.625000 -0.250000
v -0.187500 1.625000 -0.187500
v -0.250000 1.687500 -0.187500
v -0.250000 1.687500 -0.250000
v -0.187500 1.687500 -0.250000
v -0.187500 1.687500 -0.187500
v -0.250000 1.750000 -0.187500
v -0.250000 1.750000 -0.250000
v -0.187500 1.750000 -0.250000
v -0.187500 1.750000 -0.187500
v -0.250000 1.812500 -0.187500
v -0.250000 1.812500 -0.250000
v -0.187500 1.812500 -0.250000
v -0.187500 1.812500 -0.187500
v -0.250000 1.875000 -0.187500
v -0.250000 1.875000 -0.250000
v -0.187500 1.875000 -0.250000
v -0.187500 1.875000 -0.187500
v -0.250000 1.250000 -0.125000
v -0.250000 1.312500 -0.125000
v -0.187500 1.250000 -0.125000
v -0.250000 1.375000 -0.125000
v -0.187500 1.375000 -0.125000
v -0.250000 1.812500 -0.125000
v -0.250000 1.875000 -0.125000
v -0.187500 1.812500 -0.125000
v -0.187500 1.875000 -0.125000
v -0.250000 1.250000 -0.062500
v -0.250000 1.312500 -0.062500
v -0.187500 1.250000 -0.062500
v -0.250000 1.375000 -0.062500
v -0.187500 1.375000 -0.062500
v -0.250000 1.812500 -0.062500
v -0.250000 1.875000 -0.062500
v -0.187500 1.812500 -0.062500
v -0.187500 1.875000 -0.062500
v -0.250000 1.250000 0.000000
v -0.250000 1.312500 0.000000
v -0.187500 1.250000 0.000000
v -0.250000 1.375000 0.000000
v -0.187500 1.375000 0.000000
v -0.250000 1.812500 0.000000
v -0.250000 1.875000 0.000000
v -0.187500 1.812500 0.000000
v -0.187500 1.875000 0.000000
v -0.250000 1.250000 0.062500
v -0.250000 1.312500 0.062500
v -0.187500 1.250000 0.062500
v -0.250000 1.375000 0.062500
v -0.187500 1.375000 0.062500
v -0.250000 1.812500 0.062500
v -0.250000 1.875000 0.062500
v -0.187500 1.812500 0.062500
v -0.187500 1.875000 0.062500
v -0.250000 1.250000 0.125000
v -0.250000 1.312500 0.125000
v -0.187500 1.250000 0.125000
v -0.250000 1.375000 0.125000
v -0.187500 1.375000 0.125000
v -0.250000 1.812500 0.125000
v -0.250000 1.875000 0.125000
v -0.187500 1.812500 0.125000
v -0.187500 1.875000 0.125000
v -0.250000 1.250000 0.187500
v -0.250000 1.312500 0.187500
v -0.187500 1.250000 0.187500
v -0.250000 1.375000 0.187500
v -0.187500 1.375000 0.187500
v -0.250000 1.812500 0.187500
v -0.250000 1.875000 0.187500
v -0.187500 1.812500 0.187500
v -0.187500 1.875000 0.187500
v -0.250000 1.250000 0.250000
v -0.250000 1.312500 0.250000
v -0.187500 1.250000 0.250000
v -0.187500 1.312500 0.250000
v -0.250000 1.375000 0.250000
v -0.187500 1.375000 0.250000
v -0.250000 1.437500 0.250000
v -0.250000 1.437500 0.187500
v -0.187500 1.437500 0.187500
v -0.187500 1.437500 0.250000
v -0.250000 1.500000 0.250000
v -0.250000 1.500000 0.187500
v -0.187500 1.500000 0.187500
v -0.187500 1.500000 0.250000
v -0.250000 1.562500 0.250000
v -0.250000 1.562500 0.187500
v -0.187500 1.562500 0.187500
v -0.187500 1.562500 0.250000
v -0.250000 1.625000 0.250000
v -0.250000 1.625000 0.187500
v -0.187500 1.625000 0.187500
v -0.187500 1.625000 0.250000
v -0.250000 1.687500 0.250000
v -0.250000 1.687500 0.187500
v -0.187500 1.687500 0.187500
v -0.187500 1.687500 0.250000
v -0.250000 1.750000 0.250000
v -0.250000 1.750000 0.187500
v -0.187500 1.750000 0.187500
v -0.187500 1.750000 0.250000
v -0.250000 1.812500 0.250000
v -0.187500 1.812500 0.250000
v -0.250000 1.875000 0.250000
v -0.187500 1.875000 0.250000
v -0.125000 1.312500 -0.250000
v -0.125000 1.250000 -0.250000
v -0.125000 1.250000 -0.187500
v -0.125000 1.375000 -0.250000
v -0.125000 1.375000 -0.187500
v -0.125000 1.875000 -0.250000
v -0.125000 1.812500 -0.250000
v -0.125000 1.812500 -0.187500
v -0.125000 1.875000 -0.187500
v -0.187500 0.000000 -0.125000
v -0.187500 0.062500 -0.125000
v -0.187500 0.062500 -0.187500
v -0.187500 0.000000 -0.187500
v -0.125000 0.062500 -0.187500
v -0.125000 0.000000 -0.187500
v -0.125000 0.000000 -0.125000
v -0.187500 0.125000 -0.125000
v -0.187500 0.125000 -0.187500
v -0.125000 0.125000 -0.187500
v -0.125000 0.125000 -0.125000
v -0.125000 1.250000 -0.125000
v -0.187500 1.437500 -0.125000
v -0.125000 1.437500 -0.187500
v -0.187500 1.500000 -0.125000
v -0.125000 1.500000 -0.187500
v -0.187500 1.562500 -0.125000
v -0.125000 1.562500 -0.187500
v -0.187500 1.625000 -0.125000
v -0.125000 1.625000 -0.187500
v -0.187500 1.687500 -0.125000
v -0.125000 1.687500 -0.187500
v -0.187500 1.750000 -0.125000
v -0.125000 1.750000 -0.187500
v -0.187500 1.937500 -0.125000
v -0.187500 1.937500 -0.187500
v -0.125000 1.937500 -0.187500
v -0.125000 1.937500 -0.125000
v -0.187500 0.000000 -0.062500
v -0.187500 0.062500 -0.062500
v -0.125000 0.000000 -0.062500
v -0.187500 0.125000 -0.062500
v -0.125000 0.125000 -0.062500
v -0.125000 1.250000 -0.062500
v -0.187500 1.437500 -0.062500
v -0.187500 1.500000 -0.062500
v -0.187500 1.562500 -0.062500
v -0.187500 1.625000 -0.062500
v -0.187500 1.687500 -0.062500
v -0.187500 1.750000 -0.062500
v -0.187500 1.937500 -0.062500
v -0.125000 1.937500 -0.062500
v -0.187500 0.000000 0.000000
v -0.187500 0.062500 0.000000
v -0.125000 0.000000 0.000000
v -0.187500 0.125000 0.000000
v -0.125000 0.125000 0.000000
v -0.125000 1.250000 0.000000
v -0.187500 1.437500 0.000000
v -0.187500 1.500000 0.000000
v -0.187500 1.562500 0.000000
v -0.187500 1.625000 0.000000
v -0.187500 1.687500 0.000000
v -0.187500 1.750000 0.000000
v -0.187500 1.937500 0.000000
v -0.125000 1.937500 0.000000
v -0.187500 0.000000 0.062500
v -0.187500 0.062500 0.062500
v -0.125000 0.000000 0.062500
v -0.187500 0.125000 0.062500
v -0.125000 0.125000 0.062500
v -0.125000 1.250000 0.062500
v -0.187500 1.437500 0.062500
v -0.187500 1.500000 0.062500
v -0.187500 1.562500 0.062500
v -0.187500 1.625000 0.062500
v -0.187500 1.687500 0.062500
v -0.187500 1.750000 0.062500
v -0.187500 1.937500 0.062500
v -0.125000 1.937500 0.062500
v -0.187500 0.000000 0.125000
v -0.187500 0.062500 0.125000
v -0.125000 0.000000 0.125000
v -0.187500 0.125000 0.125000
v -0.125000 0.125000 0.125000
v -0.125000 1.250000 0.125000
v -0.187500 1.437500 0.125000
v -0.187500 1.500000 0.125000
v -0.187500 1.562500 0.125000
v -0.187500 1.625000 0.125000
v -0.187500 1.687500 0.125000
v -0.187500 1.750000 0.125000
v -0.187500 1.937500 0.125000
v -0.125000 1.937500 0.125000
v -0.187500 0.000000 0.187500
v -0.187500 0.062500 0.187500
v -0.125000 0.000000 0.187500
v -0.125000 0.062500 0.187500
v -0.187500 0.125000 0.187500
v -0.125000 0.125000 0.187500
v -0.125000 1.250000 0.187500
v -0.125000 1.375000 0.187500
v -0.125000 1.437500 0.187500
v -0.125000 1.500000 0.187500
v -0.125000 1.562500 0.187500
v -0.125000 1.625000 0.187500
v -0.125000 1.687500 0.187500
v -0.125000 1.750000 0.187500
v -0.125000 1.812500 0.187500
v -0.187500 1.937500 0.187500
v -0.125000 1.875000 0.187500
v -0.125000 1.937500 0.187500
v -0.125000 1.250000 0.250000
v -0.125000 1.312500 0.250000
v -0.125000 1.375000 0.250000
v -0.125000 1.812500 0.250000
v -0.125000 1.875000 0.250000
v -0.062500 1.312500 -0.250000
v -0.062500 1.250000 -0.250000
v -0.062500 1.250000 -0.187500
v -0.062500 1.375000 -0.250000
v -0.062500 1.375000 -0.187500
v -0.062500 1.875000 -0.250000
v -0.062500 1.812500 -0.250000
v -0.062500 1.812500 -0.187500
v -0.062500 1.875000 -0.187500
v -0.062500 0.062500 -0.187500
v -0.062500 0.000000 -0.187500
v -0.062500 0.000000 -0.125000
v -0.062500 0.125000 -0.187500
v -0.062500 0.125000 -0.125000
v -0.062500 1.250000 -0.125000
v -0.062500 1.437500 -0.187500
v -0.062500 1.500000 -0.187500
v -0.062500 1.562500 -0.187500
v -0.062500 1.625000 -0.187500
v -0.062500 1.687500 -0.187500
v -0.062500 1.750000 -0.187500
v -0.062500 1.937500 -0.187500
v -0.062500 1.937500 -0.125000
v -0.062500 0.000000 -0.062500
v -0.125000 0.187500 -0.062500
v -0.125000 0.187500 -0.125000
v -0.062500 0.187500 -0.125000
v -0.062500 0.187500 -0.062500
v -0.062500 1.250000 -0.062500
v -0.062500 1.937500 -0.062500
v -0.062500 0.000000 0.000000
v -0.125000 0.187500 0.000000
v -0.062500 0.187500 0.000000
v -0.062500 1.250000 0.000000
v -0.062500 1.937500 0.000000
v -0.062500 0.000000 0.062500
v -0.125000 0.187500 0.062500
v -0.062500 0.187500 0.062500
v -0.062500 1.250000 0.062500
v -0.062500 1.937500 0.062500
v -0.062500 0.000000 0.125000
v -0.125000 0.187500 0.125000
v -0.062500 0.125000 0.125000
v -0.062500 0.187500 0.125000
v -0.062500 1.250000 0.125000
v -0.062500 1.937500 0.125000
v -0.062500 0.000000 0.187500
v -0.062500 0.062500 0.187500
v -0.062500 0.125000 0.187500
v -0.062500 1.250000 0.187500
v -0.062500 1.375000 0.187500
v -0.062500 1.437500 0.187500
v -0.062500 1.500000 0.187500
v -0.062500 1.562500 0.187500
v -0.062500 1.625000 0.187500
v -0.062500 1.687500 0.187500
v -0.062500 1.750000 0.187500
v -0.062500 1.812500 0.187500
v -0.062500 1.875000 0.187500
v -0.062500 1.937500 0.187500
v -0.062500 1.250000 0.250000
v -0.062500 1.312500 0.250000
v -0.062500 1.375000 0.250000
v -0.062500 1.812500 0.250000
v -0.062500 1.875000 0.250000
v 0.000000 1.312500 -0.250000
v 0.000000 1.250000 -0.250000
v 0.000000 1.250000 -0.187500
v 0.000000 1.375000 -0.250000
v 0.000000 1.375000 -0.187500
v 0.000000 1.875000 -0.250000
v 0.000000 1.812500 -0.250000
v 0.000000 1.812500 -0.187500
v 0.000000 1.875000 -0.187500
v 0.000000 0.062500 -0.187500
v 0.000000 0.000000 -0.187500
v 0.000000 0.000000 -0.125000
v 0.000000 0.125000 -0.187500
v 0.000000 0.125000 -0.125000
v 0.000000 1.250000 -0.125000
v 0.000000 1.437500 -0.187500
v 0.000000 1.500000 -0.187500
v 0.000000 1.562500 -0.187500
v 0.000000 1.625000 -0.187500
v 0.000000 1.687500 -0.187500
v 0.000000 1.750000 -0.187500
v 0.000000 1.937500 -0.187500
v 0.000000 1.937500 -0.125000
v 0.000000 0.000000 -0.062500
v 0.000000 0.187500 -0.125000
v 0.000000 0.187500 -0.062500
v 0.000000 1.250000 -0.062500
v 0.000000 1.937500 -0.062500
v 0.000000 0.000000 0.000000
v -0.062500 0.250000 0.000000
v -0.062500 0.250000 -0.062500
v 0.000000 0.250000 -0.062500
v -0.062500 0.312500 0.000000
v -0.062500 0.312500 -0.062500
v 0.000000 0.312500 -0.062500
v -0.062500 0.375000 0.000000
v -0.062500 0.375000 -0.062500
v 0.000000 0.375000 -0.062500
v -0.062500 0.437500 0.000000
v -0.062500 0.437500 -0.062500
v 0.000000 0.437500 -0.062500
v -0.062500 0.500000 0.000000
v -0.062500 0.500000 -0.062500
v 0.000000 0.500000 -0.062500
v -0.062500 0.562500 0.000000
v -0.062500 0.562500 -0.062500
v 0.000000 0.562500 -0.062500
v -0.062500 0.625000 0.000000
v -0.062500 0.625000 -0.062500
v 0.000000 0.625000 -0.062500
v -0.062500 0.687500 0.000000
v -0.062500 0.687500 -0.062500
v 0.000000 0.687500 -0.062500
v -0.062500 0.750000 0.000000
v -0.062500 0.750000 -0.062500
v 0.000000 0.750000 -0.062500
v -0.062500 0.812500 0.000000
v -0.062500 0.812500 -0.062500
v 0.000000 0.812500 -0.062500
v -0.062500 0.875000 0.000000
v -0.062500 0.875000 -0.062500
v 0.000000 0.875000 -0.062500
v -0.062500 0.937500 0.000000
v -0.062500 0.937500 -0.062500
v 0.000000 0.937500 -0.062500
v -0.062500 1.000000 0.000000
v -0.062500 1.000000 -0.062500
v 0.000000 1.000000 -0.062500
v -0.062500 1.062500 0.000000
v -0.062500 1.062500 -0.062500
v 0.000000 1.062500 -0.062500
v -0.062500 1.125000 0.000000
v -0.062500 1.125000 -0.062500
v 0.000000 1.125000 -0.062500
v -0.062500 1.187500 0.000000
v -0.062500 1.187500 -0.062500
v 0.000000 1.187500 -0.062500
v -0.062500 2.000000 0.000000
v -0.062500 2.000000 -0.062500
v 0.000000 2.000000 -0.062500
v 0.000000 2.000000 0.000000
v 0.000000 0.000000 0.062500
v -0.062500 0.250000 0.062500
v 0.000000 0.187500 0.062500
v 0.000000 0.250000 0.062500
v -0.062500 0.312500 0.062500
v 0.000000 0.312500 0.062500
v -0.062500 0.375000 0.062500
v 0.000000 0.375000 0.062500
v -0.062500 0.437500 0.062500
v 0.000000 0.437500 0.062500
v -0.062500 0.500000 0.062500
v 0.000000 0.500000 0.062500
v -0.062500 0.562500 0.062500
v 0.000000 0.562500 0.062500
v -0.062500 0.625000 0.062500
v 0.000000 0.625000 0.062500
v -0.062500 0.687500 0.062500
v 0.000000 0.687500 0.062500
v -0.062500 0.750000 0.062500
v 0.000000 0.750000 0.062500
v -0.062500 0.812500 0.062500
v 0.000000 0.812500 0.062500
v -0.062500 0.875000 0.062500
v 0.000000 0.875000 0.062500
v -0.062500 0.937500 0.062500
v 0.000000 0.937500 0.062500
v -0.062500 1.000000 0.062500
v 0.000000 1.000000 0.062500
v -0.062500 1.062500 0.062500
v 0.000000 1.062500 0.062500
v -0.062500 1.125000 0.062500
v 0.000000 1.125000 0.062500
v -0.062500 1.187500 0.062500
v 0.000000 1.187500 0.062500
v 0.000000 1.250000 0.062500
v -0.062500 2.000000 0.062500
v 0.000000 1.937500 0.062500
v 0.000000 2.000000 0.062500
v 0.000000 0.000000 0.125000
v 0.000000 0.125000 0.125000
v 0.000000 0.187500 0.125000
v 0.000000 1.250000 0.125000
v 0.000000 1.937500 0.125000
v 0.000000 0.000000 0.187500
v 0.000000 0.062500 0.187500
v 0.000000 0.125000 0.187500
v 0.000000 1.250000 0.187500
v 0.000000 1.375000 0.187500
v 0.000000 1.437500 0.187500
v 0.000000 1.500000 0.187500
v 0.000000 1.562500 0.187500
v 0.000000 1.625000 0.187500
v 0.000000 1.687500 0.187500
v 0.000000 1.750000 0.187500
v 0.000000 1.812500 0.187500
v 0.000000 1.875000 0.187500
v 0.000000 1.937500 0.187500
v 0.000000 1.250000 0.250000
v 0.000000 1.312500 0.250000
v 0.000000 1.375000 0.250000
v 0.000000 1.812500 0.250000
v 0.000000 1.875000 0.250000
v 0.062500 1.312500 -0.250000
v 0.062500 1.250000 -0.250000
v 0.062500 1.250000 -0.187500
v 0.062500 1.375000 -0.250000
v 0.062500 1.375000 -0.187500
v 0.062500 1.875000 -0.250000
v 0.062500 1.812500 -0.250000
v 0.062500 1.812500 -0.187500
v 0.062500 1.875000 -0.187500
v 0.062500 0.062500 -0.187500
v 0.062500 0.000000 -0.187500
v 0.062500 0.000000 -0.125000
v 0.062500 0.125000 -0.187500
v 0.062500 0.125000 -0.125000
v 0.062500 1.250000 -0.125000
v 0.062500 1.437500 -0.187500
v 0.062500 1.500000 -0.187500
v 0.062500 1.562500 -0.187500
v 0.062500 1.625000 -0.187500
v 0.062500 1.687500 -0.187500
v 0.062500 1.750000 -0.187500
v 0.062500 1.937500 -0.187500
v 0.062500 1.937500 -0.125000
v 0.062500 0.000000 -0.062500
v 0.062500 0.187500 -0.125000
v 0.062500 0.187500 -0.062500
v 0.062500 1.250000 -0.062500
v 0.062500 1.937500 -0.062500
v 0.062500 0.000000 0.000000
v 0.062500 0.250000 -0.062500
v 0.062500 0.250000 0.000000
v 0.062500 0.187500 0.000000
v 0.062500 0.312500 -0.062500
v 0.062500 0.312500 0.000000
v 0.062500 0.375000 -0.062500
v 0.062500 0.375000 0.000000
v 0.062500 0.437500 -0.062500
v 0.062500 0.437500 0.000000
v 0.062500 0.500000 -0.062500
v 0.062500 0.500000 0.000000
v 0.062500 0.562500 -0.062500
v 0.062500 0.562500 0.000000
v 0.062500 0.625000 -0.062500
v 0.062500 0.625000 0.000000
v 0.062500 0.687500 -0.062500
v 0.062500 0.687500 0.000000
v 0.062500 0.750000 -0.062500
v 0.062500 0.750000 0.000000
v 0.062500 0.812500 -0.062500
v 0.062500 0.812500 0.000000
v 0.062500 0.875000 -0.062500
v 0.062500 0.875000 0.000000
v 0.062500 0.937500 -0.062500
v 0.062500 0.937500 0.000000
v 0.062500 1.000000 -0.062500
v 0.062500 1.000000 0.000000
v 0.062500 1.062500 -0.062500
v 0.062500 1.062500 0.000000
v 0.062500 1.125000 -0.062500
v 0.062500 1.125000 0.000000
v 0.062500 1.187500 -0.062500
v 0.062500 1.187500 0.000000
v 0.062500 1.250000 0.000000
v 0.062500 2.000000 -0.062500
v 0.062500 2.000000 0.000000
v 0.062500 1.937500 0.000000
v 0.062500 0.000000 0.062500
v 0.062500 0.250000 0.062500
v 0.062500 0.187500 0.062500
v 0.062500 0.312500 0.062500
v 0.062500 0.375000 0.062500
v 0.062500 0.437500 0.062500
v 0.062500 0.500000 0.062500
v 0.062500 0.562500 0.062500
v 0.062500 0.625000 0.062500
v 0.062500 0.687500 0.062500
v 0.062500 0.750000 0.062500
v 0.062500 0.812500 0.062500
v 0.062500 0.875000 0.062500
v 0.062500 0.937500 0.062500
v 0.062500 1.000000 0.062500
v 0.062500 1.062500 0.062500
v 0.062500 1.125000 0.062500
v 0.062500 1.187500 0.062500
v 0.062500 1.250000 0.062500
v 0.062500 2.000000 0.062500
v 0.062500 1.937500 0.062500
v 0.062500 0.000000 0.125000
v 0.062500 0.125000 0.125000
v 0.062500 0.187500 0.125000
v 0.062500 1.250000 0.125000
v 0.062500 1.937500 0.125000
v 0.062500 0.000000 0.187500
v 0.062500 0.062500 0.187500
v 0.062500 0.125000 0.187500
v 0.062500 1.250000 0.187500
v 0.062500 1.375000 0.187500
v 0.062500 1.437500 0.187500
v 0.062500 1.500000 0.187500
v 0.062500 1.562500 0.187500
v 0.062500 1.625000 0.187500
v 0.062500 1.687500 0.187500
v 0.062500 1.750000 0.187500
v 0.062500 1.812500 0.187500
v 0.062500 1.875000 0.187500
v 0.062500 1.937500 0.187500
v 0.062500 1.250000 0.250000
v 0.062500 1.312500 0.250000
v 0.062500 1.375000 0.250000
v 0.062500 1.812500 0.250000
v 0.062500 1.875000 0.250000
v 0.125000 1.312500 -0.250000
v 0.125000 1.250000 -0.250000
v 0.125000 1.250000 -0.187500
v 0.125000 1.375000 -0.250000
v 0.125000 1.375000 -0.187500
v 0.125000 1.875000 -0.250000
v 0.125000 1.812500 -0.250000
v 0.125000 1.812500 -0.187500
v 0.125000 1.875000 -0.187500
v 0.125000 0.062500 -0.187500
v 0.125000 0.000000 -0.187500
v 0.125000 0.000000 -0.125000
v 0.125000 0.125000 -0.187500
v 0.125000 0.125000 -0.125000
v 0.125000 1.250000 -0.125000
v 0.125000 1.437500 -0.187500
v 0.125000 1.500000 -0.187500
v 0.125000 1.562500 -0.187500
v 0.125000 1.625000 -0.187500
v 0.125000 1.687500 -0.187500
v 0.125000 1.750000 -0.187500
v 0.125000 1.937500 -0.187500
v 0.125000 1.937500 -0.125000
v 0.125000 0.000000 -0.062500
v 0.125000 0.187500 -0.125000
v 0.125000 0.187500 -0.062500
v 0.125000 0.125000 -0.062500
v 0.125000 1.250000 -0.062500
v 0.125000 1.937500 -0.062500
v 0.125000 0.000000 0.000000
v 0.125000 0.187500 0.000000
v 0.125000 0.125000 0.000000
v 0.125000 1.250000 0.000000
v 0.125000 1.937500 0.000000
v 0.125000 0.000000 0.062500
v 0.125000 0.187500 0.062500
v 0.125000 0.125000 0.062500
v 0.125000 1.250000 0.062500
v 0.125000 1.937500 0.062500
v 0.125000 0.000000 0.125000
v 0.125000 0.187500 0.125000
v 0.125000 0.125000 0.125000
v 0.125000 1.250000 0.125000
v 0.125000 1.937500 0.125000
v 0.125000 0.000000 0.187500
v 0.125000 0.062500 0.187500
v 0.125000 0.125000 0.187500
v 0.125000 1.250000 0.187500
v 0.125000 1.375000 0.187500
v 0.125000 1.437500 0.187500
v 0.125000 1.500000 0.187500
v 0.125000 1.562500 0.187500
v 0.125000 1.625000 0.187500
v 0.125000 1.687500 0.187500
v 0.125000 1.750000 0.187500
v 0.125000 1.812500 0.187500
v 0.125000 1.875000 0.187500
v 0.125000 1.937500 0.187500
v 0.125000 1.250000 0.250000
v 0.125000 1.312500 0.250000
v 0.125000 1.375000 0.250000
v 0.125000 1.812500 0.250000
v 0.125000 1.875000 0.250000
v 0.187500 1.312500 -0.250000
v 0.187500 1.250000 -0.250000
v 0.187500 1.250000 -0.187500
v 0.187500 1.375000 -0.250000
v 0.187500 1.375000 -0.187500
v 0.187500 1.875000 -0.250000
v 0.187500 1.812500 -0.250000
v 0.187500 1.812500 -0.187500
v 0.187500 1.875000 -0.187500
v 0.187500 0.062500 -0.187500
v 0.187500 0.062500 -0.125000
v 0.187500 0.000000 -0.125000
v 0.187500 0.000000 -0.187500
v 0.187500 0.125000 -0.187500
v 0.187500 0.125000 -0.125000
v 0.187500 1.250000 -0.125000
v 0.187500 1.437500 -0.187500
v 0.187500 1.437500 -0.125000
v 0.187500 1.375000 -0.125000
v 0.187500 1.500000 -0.187500
v 0.187500 1.500000 -0.125000
v 0.187500 1.562500 -0.187500
v 0.187500 1.562500 -0.125000
v 0.187500 1.625000 -0.187500
v 0.187500 1.625000 -0.125000
v 0.187500 1.687500 -0.187500
v 0.187500 1.687500 -0.125000
v 0.187500 1.750000 -0.187500
v 0.187500 1.750000 -0.125000
v 0.187500 1.812500 -0.125000
v 0.187500 1.937500 -0.187500
v 0.187500 1.937500 -0.125000
v 0.187500 1.875000 -0.125000
v 0.187500 0.062500 -0.062500
v 0.187500 0.000000 -0.062500
v 0.187500 0.125000 -0.062500
v 0.187500 1.250000 -0.062500
v 0.187500 1.437500 -0.062500
v 0.187500 1.375000 -0.062500
v 0.187500 1.500000 -0.062500
v 0.187500 1.562500 -0.062500
v 0.187500 1.625000 -0.062500
v 0.187500 1.687500 -0.062500
v 0.187500 1.750000 -0.062500
v 0.187500 1.812500 -0.062500
v 0.187500 1.937500 -0.062500
v 0.187500 1.875000 -0.062500
v 0.187500 0.062500 0.000000
v 0.187500 0.000000 0.000000
v 0.187500 0.125000 0.000000
v 0.187500 1.250000 0.000000
v 0.187500 1.437500 0.000000
v 0.187500 1.375000 0.000000
v 0.187500 1.500000 0.000000
v 0.187500 1.562500 0.000000
v 0.187500 1.625000 0.000000
v 0.187500 1.687500 0.000000
v 0.187500 1.750000 0.000000
v 0.187500 1.812500 0.000000
v 0.187500 1.937500 0.000000
v 0.187500 1.875000 0.000000
v 0.187500 0.062500 0.062500
v 0.187500 0.000000 0.062500
v 0.187500 0.125000 0.062500
v 0.187500 1.250000 0.062500
v 0.187500 1.437500 0.062500
v 0.187500 1.375000 0.062500
v 0.187500 1.500000 0.062500
v 0.187500 1.562500 0.062500
v 0.187500 1.625000 0.062500
v 0.187500 1.687500 0.062500
v 0.187500 1.750000 0.062500
v 0.187500 1.812500 0.062500
v 0.187500 1.937500 0.062500
v 0.187500 1.875000 0.062500
v 0.187500 0.062500 0.125000
v 0.187500 0.000000 0.125000
v 0.187500 0.125000 0.125000
v 0.187500 1.250000 0.125000
v 0.187500 1.437500 0.125000
v 0.187500 1.375000 0.125000
v 0.187500 1.500000 0.125000
v 0.187500 1.562500 0.125000
v 0.187500 1.625000 0.125000
v 0.187500 1.687500 0.125000
v 0.187500 1.750000 0.125000
v 0.187500 1.812500 0.125000
v 0.187500 1.937500 0.125000
v 0.187500 1.875000 0.125000
v 0.187500 0.062500 0.187500
v 0.187500 0.000000 0.187500
v 0.187500 0.125000 0.187500
v 0.187500 1.250000 0.187500
v 0.187500 1.437500 0.187500
v 0.187500 1.375000 0.187500
v 0.187500 1.500000 0.187500
v 0.187500 1.562500 0.187500
v 0.187500 1.625000 0.187500
v 0.187500 1.687500 0.187500
v 0.187500 1.750000 0.187500
v 0.187500 1.812500 0.187500
v 0.187500 1.937500 0.187500
v 0.187500 1.875000 0.187500
v 0.187500 1.250000 0.250000
v 0.187500 1.312500 0.250000
v 0.187500 1.375000 0.250000
v 0.187500 1.812500 0.250000
v 0.187500 1.875000 0.250000
v 0.250000 1.312500 -0.250000
v 0.250000 1.312500 -0.187500
v 0.250000 1.250000 -0.187500
v 0.250000 1.250000 -0.250000
v 0.250000 1.375000 -0.250000
v 0.250000 1.375000 -0.187500
v 0.187500 1.437500 -0.250000
v 0.250000 1.437500 -0.250000
v 0.250000 1.437500 -0.187500
v 0.187500 1.500000 -0.250000
v 0.250000 1.500000 -0.250000
v 0.250000 1.500000 -0.187500
v 0.187500 1.562500 -0.250000
v 0.250000 1.562500 -0.250000
v 0.250000 1.562500 -0.187500
v 0.187500 1.625000 -0.250000
v 0.250000 1.625000 -0.250000
v 0.250000 1.625000 -0.187500
v 0.187500 1.687500 -0.250000
v 0.250000 1.687500 -0.250000
v 0.250000 1.687500 -0.187500
v 0.187500 1.750000 -0.250000
v 0.250000 1.750000 -0.250000
v 0.250000 1.750000 -0.187500
v 0.250000 1.812500 -0.250000
v 0.250000 1.812500 -0.187500
v 0.250000 1.875000 -0.250000
v 0.250000 1.875000 -0.187500
v 0.250000 1.312500 -0.125000
v 0.250000 1.250000 -0.125000
v 0.250000 1.375000 -0.125000
v 0.250000 1.875000 -0.125000
v 0.250000 1.812500 -0.125000
v 0.250000 1.312500 -0.062500
v 0.250000 1.250000 -0.062500
v 0.250000 1.375000 -0.062500
v 0.250000 1.875000 -0.062500
v 0.250000 1.812500 -0.062500
v 0.250000 1.312500 0.000000
v 0.250000 1.250000 0.000000
v 0.250000 1.375000 0.000000
v 0.250000 1.875000 0.000000
v 0.250000 1.812500 0.000000
v 0.250000 1.312500 0.062500
v 0.250000 1.250000 0.062500
v 0.250000 1.375000 0.062500
v 0.250000 1.875000 0.062500
v 0.250000 1.812500 0.062500
v 0.250000 1.312500 0.125000
v 0.250000 1.250000 0.125000
v 0.250000 1.375000 0.125000
v 0.250000 1.875000 0.125000
v 0.250000 1.812500 0.125000
v 0.250000 1.312500 0.187500
v 0.250000 1.250000 0.187500
v 0.250000 1.375000 0.187500
v 0.250000 1.875000 0.187500
v 0.250000 1.812500 0.187500
v 0.250000 1.312500 0.250000
v 0.250000 1.250000 0.250000
v 0.250000 1.375000 0.250000
v 0.187500 1.437500 0.250000
v 0.250000 1.437500 0.187500
v 0.250000 1.437500 0.250000
v 0.187500 1.500000 0.250000
v 0.250000 1.500000 0.187500
v 0.250000 1.500000 0.250000
v 0.187500 1.562500 0.250000
v 0.250000 1.562500 0.187500
v 0.250000 1.562500 0.250000
v 0.187500 1.625000 0.250000
v 0.250000 1.625000 0.187500
v 0.250000 1.625000 0.250000
v 0.187500 1.687500 0.250000
v 0.250000 1.687500 0.187500
v 0.250000 1.687500 0.250000
v 0.187500 1.750000 0.250000
v 0.250000 1.750000 0.187500
v 0.250000 1.750000 0.250000
v 0.250000 1.812500 0.250000
v 0.250000 1.875000 0.250000
vt 0.03125000 0.96875000
vt 0.09375000 0.96875000
vt 0.15625000 0.96875000
vt 0.21875000 0.96875000
vt 0.28125000 0.96875000
vt 0.34375000 0.96875000
vt 0.40625000 0.96875000
vt 0.46875000 0.96875000
vt 0.53125000 0.96875000
vt 0.59375000 0.96875000
vt 0.65625000 0.96875000
vt 0.71875000 0.96875000
vt 0.78125000 0.96875000
vt 0.84375000 0.96875000
vt 0.90625000 0.96875000
vt 0.96875000 0.96875000
vt 0.03125000 0.90625000
vt 0.09375000 0.90625000
vt 0.15625000 0.90625000
vt 0.21875000 0.90625000
vt 0.28125000 0.90625000
vt 0.34375000 0.90625000
vt 0.40625000 0.90625000
vt 0.46875000 0.90625000
vt 0.53125000 0.90625000
vt 0.59375000 0.90625000
vt 0.65625000 0.90625000
vt 0.71875000 0.90625000
vt 0.78125000 0.90625000
vt 0.84375000 0.90625000
vt 0.90625000 0.90625000
vt 0.96875000 0.90625000
vt 0.03125000 0.84375000
vt 0.09375000 0.84375000
vt 0.15625000 0.84375000
vt 0.21875000 0.84375000
vt 0.28125000 0.84375000
vt 0.34375000 0.84375000
vt 0.40625000 0.84375000
vt 0.46875000 0.84375000
vt 0.53125000 0.84375000
vt 0.59375000 0.84375000
vt 0.65625000 0.84375000
vt 0.71875000 0.84375000
vt 0.78125000 0.84375000
vt 0.84375000 0.84375000
vt 0.90625000 0.84375000
vt 0.96875000 0.84375000
vt 0.03125000 0.78125000
vt 0.09375000 0.78125000
vt 0.15625000 0.78125000
vt 0.21875000 0.78125000
vt 0.28125000 0.78125000
vt 0.34375000 0.78125000
vt 0.40625000 0.78125000
vt 0.46875000 0.78125000
vt 0.53125000 0.78125000
vt 0.59375000 0.78125000
vt 0.65625000 0.78125000
vt 0.71875000 0.78125000
vt 0.78125000 0.78125000
vt 0.84375000 0.78125000
vt 0.90625000 0.78125000
vt 0.96875000 0.78125000
vt 0.03125000 0.71875000
vt 0.09375000 0.71875000
vt 0.15625000 0.71875000
vt 0.21875000 0.71875000
vt 0.28125000 0.71875000
vt 0.34375000 0.71875000
vt 0.40625000 0.71875000
vt 0.46875000 0.71875000
vt 0.53125000 0.71875000
vt 0.59375000 0.71875000
vt 0.65625000 0.71875000
vt 0.71875000 0.71875000
vt 0.78125000 0.71875000
vt 0.84375000 0.71875000
vt 0.90625000 0.71875000
vt 0.96875000 0.71875000
vt 0.03125000 0.65625000
vt 0.09375000 0.65625000
vt 0.15625000 0.65625000
vt 0.21875000 0.65625000
vt 0.28125000 0.65625000
vt 0.34375000 0.65625000
vt 0.40625000 0.65625000
vt 0.46875000 0.65625000
vt 0.53125000 0.65625000
vt 0.59375000 0.65625000
vt 0.65625000 0.65625000
vt 0.71875000 0.65625000
vt 0.78125000 0.65625000
vt 0.84375000 0.65625000
vt 0.90625000 0.65625000
vt 0.96875000 0.65625000
vt 0.03125000 0.59375000
vt 0.09375000 0.59375000
vt 0.15625000 0.59375000
vt 0.21875000 0.59375000
vt 0.28125000 0.59375000
vt 0.34375000 0.59375000
vt 0.40625000 0.59375000
vt 0.46875000 0.59375000
vt 0.53125000 0.59375000
vt 0.59375000 0.59375000
vt 0.65625000 0.59375000
vt 0.71875000 0.59375000
vt 0.78125000 0.59375000
vt 0.84375000 0.59375000
vt 0.90625000 0.59375000
vt 0.96875000 0.59375000
vt 0.03125000 0.53125000
vt 0.09375000 0.53125000
vt 0.15625000 0.53125000
vt 0.21875000 0.53125000
vt 0.28125000 0.53125000
vt 0.34375000 0.53125000
vt 0.40625000 0.53125000
vt 0.46875000 0.53125000
vt 0.53125000 0.53125000
vt 0.59375000 0.53125000
vt 0.65625000 0.53125000
vt 0.71875000 0.53125000
vt 0.78125000 0.53125000
vt 0.84375000 0.53125000
vt 0.90625000 0.53125000
vt 0.96875000 0.53125000
vt 0.03125000 0.46875000
vt 0.09375000 0.46875000
vt 0.15625000 0.46875000
vt 0.21875000 0.46875000
vt 0.28125000 0.46875000
vt 0.34375000 0.46875000
vt 0.40625000 0.46875000
vt 0.46875000 0.46875000
vt 0.53125000 0.46875000
vt 0.59375000 0.46875000
vt 0.65625000 0.46875000
vt 0.71875000 0.46875000
vt 0.78125000 0.46875000
vt 0.84375000 0.46875000
vt 0.90625000 0.46875000
vt 0.96875000 0.46875000
vt 0.03125000 0.40625000
vt 0.09375000 0.40625000
vt 0.15625000 0.40625000
vt 0.21875000 0.40625000
vt 0.28125000 0.40625000
vt 0.34375000 0.40625000
vt 0.40625000 0.40625000
vt 0.46875000 0.40625000
vt 0.53125000 0.40625000
vt 0.59375000 0.40625000
vt 0.65625000 0.40625000
vt 0.71875000 0.40625000
vt 0.78125000 0.40625000
vt 0.84375000 0.40625000
vt 0.90625000 0.40625000
vt 0.96875000 0.40625000
vt 0.03125000 0.34375000
vt 0.09375000 0.34375000
vt 0.15625000 0.34375000
vt 0.21875000 0.34375000
vt 0.28125000 0.34375000
vt 0.34375000 0.34375000
vt 0.40625000 0.34375000
vt 0.46875000 0.34375000
vt 0.53125000 0.34375000
vt 0.59375000 0.34375000
vt 0.65625000 0.34375000
vt 0.71875000 0.34375000
vt 0.78125000 0.34375000
vt 0.84375000 0.34375000
vt 0.90625000 0.34375000
vt 0.96875000 0.34375000
vt 0.03125000 0.28125000
vt 0.09375000 0.28125000
vt 0.15625000 0.28125000
vt 0.21875000 0.28125000
vt 0.28125000 0.28125000
vt 0.34375000 0.28125000
vt 0.40625000 0.28125000
vt 0.46875000 0.28125000
vt 0.53125000 0.28125000
vt 0.59375000 0.28125000
vt 0.65625000 0.28125000
vt 0.71875000 0.28125000
vt 0.78125000 0.28125000
vt 0.84375000 0.28125000
vt 0.90625000 0.28125000
vt 0.96875000 0.28125000
vt 0.03125000 0.21875000
vt 0.09375000 0.21875000
vt 0.15625000 0.21875000
vt 0.21875000 0.21875000
vt 0.28125000 0.21875000
vt 0.34375000 0.21875000
vt 0.40625000 0.21875000
vt 0.46875000 0.21875000
vt 0.53125000 0.21875000
vt 0.59375000 0.21875000
vt 0.65625000 0.21875000
vt 0.71875000 0.21875000
vt 0.78125000 0.21875000
vt 0.84375000 0.21875000
vt 0.90625000 0.21875000
vt 0.96875000 0.21875000
vt 0.03125000 0.15625000
vt 0.09375000 0.15625000
vt 0.15625000 0.15625000
vt 0.21875000 0.15625000
vt 0.28125000 0.15625000
vt 0.34375000 0.15625000
vt 0.40625000 0.15625000
vt 0.46875000 0.15625000
vt 0.53125000 0.15625000
vt 0.59375000 0.15625000
vt 0.65625000 0.15625000
vt 0.71875000 0.15625000
vt 0.78125000 0.15625000
vt 0.84375000 0.15625000
vt 0.90625000 0.15625000
vt 0.96875000 0.15625000
vt 0.03125000 0.09375000
vt 0.09375000 0.09375000
vt 0.15625000 0.09375000
vt 0.21875000 0.09375000
vt 0.28125000 0.09375000
vt 0.34375000 0.09375000
vt 0.40625000 0.09375000
vt 0.46875000 0.09375000
vt 0.53125000 0.09375000
vt 0.59375000 0.09375000
vt 0.65625000 0.09375000
vt 0.71875000 0.09375000
vt 0.78125000 0.09375000
vt 0.84375000 0.09375000
vt 0.90625000 0.09375000
vt 0.96875000 0.09375000
vt 0.03125000 0.03125000
vt 0.09375000 0.03125000
vt 0.15625000 0.03125000
vt 0.21875000 0.03125000
vt 0.28125000 0.03125000
vt 0.34375000 0.03125000
vt 0.40625000 0.03125000
vt 0.46875000 0.03125000
vt 0.53125000 0.03125000
vt 0.59375000 0.03125000
vt 0.65625000 0.03125000
vt 0.71875000 0.03125000
vt 0.78125000 0.03125000
vt 0.84375000 0.03125000
vt 0.90625000 0.03125000
vt 0.96875000 0.03125000
vn -1 0 0
vn 1 0 0
vn 0 0 -1
vn 0 0 1
vn 0 -1 0
vn 0 1 0
g palette
usemtl palette
f 1/53/1 2/53/1 3/53/1 4/53/1
f 3/53/3 5/53/3 6/53/3 4/53/3
f 6/53/5 7/53/5 1/53/5 4/53/5
f 2/53/1 8/53/1 9/53/1 3/53/1
f 9/53/3 10/53/3 5/53/3 3/53/3
f 8/54/1 11/54/1 12/54/1 9/54/1
f 13/54/2 14/54/2 15/54/2 10/54/2
f 12/54/3 13/54/3 10/54/3 9/54/3
f 15/54/4 14/54/4 11/54/4 8/54/4
f 11/54/1 16/54/1 17/54/1 12/54/1
f 18/54/2 19/54/2 14/54/2 13/54/2
f 17/54/3 18/54/3 13/54/3 12/54/3
f 14/54/4 19/54/4 16/54/4 11/54/4
f 16/54/1 20/54/1 21/54/1 17/54/1
f 22/54/2 23/54/2 19/54/2 18/54/2
f 21/54/3 22/54/3 18/54/3 17/54/3
f 19/54/4 23/54/4 20/54/4 16/54/4
f 20/54/1 24/54/1 25/54/1 21/54/1
f 26/54/2 27/54/2 23/54/2 22/54/2
f 25/54/3 26/54/3 22/54/3 21/54/3
f 23/54/4 27/54/4 24/54/4 20/54/4
f 24/54/1 28/54/1 29/54/1 25/54/1
f 30/54/2 31/54/2 27/54/2 26/54/2
f 29/54/3 30/54/3 26/54/3 25/54/3
f 27/54/4 31/54/4 28/54/4 24/54/4
f 28/54/1 32/54/1 33/54/1 29/54/1
f 34/54/2 35/54/2 31/54/2 30/54/2
f 33/54/3 34/54/3 30/54/3 29/54/3
f 31/54/4 35/54/4 32/54/4 28/54/4
f 32/54/1 36/54/1 37/54/1 33/54/1
f 38/54/2 39/54/2 35/54/2 34/54/2
f 37/54/3 38/54/3 34/54/3 33/54/3
f 35/54/4 39/54/4 36/54/4 32/54/4
f 36/53/1 40/53/1 41/53/1 37/53/1
f 41/53/3 42/53/3 38/53/3 37/53/3
f 40/53/6 43/53/6 42/53/6 41/53/6
f 44/53/1 45/53/1 2/53/1 1/53/1
f 7/53/5 46/53/5 44/53/5 1/53/5
f 45/53/1 47/53/1 8/53/1 2/53/1
f 47/53/6 48/53/6 15/53/6 8/53/6
f 49/53/1 50/53/1 40/53/1 36/53/1
f 39/53/5 51/53/5 49/53/5 36/53/5
f 50/53/6 52/53/6 43/53/6 40/53/6
f 53/53/1 54/53/1 45/53/1 44/53/1
f 46/53/5 55/53/5 53/53/5 44/53/5
f 54/53/1 56/53/1 47/53/1 45/53/1
f 56/53/6 57/53/6 48/53/6 47/53/6
f 58/53/1 59/53/1 50/53/1 49/53/1
f 51/53/5 60/53/5 58/53/5 49/53/5
f 59/53/6 61/53/6 52/53/6 50/53/6
f 62/53/1 63/53/1 54/53/1 53/53/1
f 55/53/5 64/53/5 62/53/5 53/53/5
f 63/53/1 65/53/1 56/53/1 54/53/1
f 65/53/6 66/53/6 57/53/6 56/53/6
f 67/53/1 68/53/1 59/53/1 58/53/1
f 60/53/5 69/53/5 67/53/5 58/53/5
f 68/53/6 70/53/6 61/53/6 59/53/6
f 71/53/1 72/53/1 63/53/1 62/53/1
f 64/53/5 73/53/5 71/53/5 62/53/5
f 72/53/1 74/53/1 65/53/1 63/53/1
f 74/53/6 75/53/6 66/53/6 65/53/6
f 76/53/1 77/53/1 68/53/1 67/53/1
f 69/53/5 78/53/5 76/53/5 67/53/5
f 77/53/6 79/53/6 70/53/6 68/53/6
f 80/53/1 81/53/1 72/53/1 71/53/1
f 73/53/5 82/53/5 80/53/5 71/53/5
f 81/53/1 83/53/1 74/53/1 72/53/1
f 83/53/6 84/53/6 75/53/6 74/53/6
f 85/53/1 86/53/1 77/53/1 76/53/1
f 78/53/5 87/53/5 85/53/5 76/53/5
f 86/53/6 88/53/6 79/53/6 77/53/6
f 89/53/1 90/53/1 81/53/1 80/53/1
f 82/53/5 91/53/5 89/53/5 80/53/5
f 90/53/1 92/53/1 83/53/1 81/53/1
f 92/53/6 93/53/6 84/53/6 83/53/6
f 94/53/1 95/53/1 86/53/1 85/53/1
f 87/53/5 96/53/5 94/53/5 85/53/5
f 95/53/6 97/53/6 88/53/6 86/53/6
f 98/53/1 99/53/1 90/53/1 89/53/1
f 100/53/4 101/53/4 99/53/4 98/53/4
f 91/53/5 100/53/5 98/53/5 89/53/5
f 99/53/1 102/53/1 92/53/1 90/53/1
f 101/53/4 103/53/4 102/53/4 99/53/4
f 102/54/1 104/54/1 105/54/1 92/54/1
f 106/54/2 107/54/2 103/54/2 93/54/2
f 105/54/3 106/54/3 93/54/3 92/54/3
f 103/54/4 107/54/4 104/54/4 102/54/4
f 104/54/1 108/54/1 109/54/1 105/54/1
f 110/54/2 111/54/2 107/54/2 106/54/2
f 109/54/3 110/54/3 106/54/3 105/54/3
f 107/54/4 111/54/4 108/54/4 104/54/4
f 108/54/1 112/54/1 113/54/1 109/54/1
f 114/54/2 115/54/2 111/54/2 110/54/2
f 113/54/3 114/54/3 110/54/3 109/54/3
f 111/54/4 115/54/4 112/54/4 108/54/4
f 112/54/1 116/54/1 117/54/1 113/54/1
f 118/54/2 119/54/2 115/54/2 114/54/2
f 117/54/3 118/54/3 114/54/3 113/54/3
f 115/54/4 119/54/4 116/54/4 112/54/4
f 116/54/1 120/54/1 121/54/1 117/54/1
f 122/54/2 123/54/2 119/54/2 118/54/2
f 121/54/3 122/54/3 118/54/3 117/54/3
f 119/54/4 123/54/4 120/54/4 116/54/4
f 120/54/1 124/54/1 125/54/1 121/54/1
f 126/54/2 127/54/2 123/54/2 122/54/2
f 125/54/3 126/54/3 122/54/3 121/54/3
f 123/54/4 127/54/4 124/54/4 120/54/4
f 124/54/1 128/54/1 94/54/1 125/54/1
f 96/54/2 129/54/2 127/54/2 126/54/2
f 94/54/3 96/54/3 126/54/3 125/54/3
f 127/54/4 129/54/4 128/54/4 124/54/4
f 128/53/1 130/53/1 95/53/1 94/53/1
f 129/53/4 131/53/4 130/53/4 128/53/4
f 130/53/6 131/53/6 97/53/6 95/53/6
f 5/53/3 132/53/3 133/53/3 6/53/3
f 133/53/5 134/53/5 7/53/5 6/53/5
f 10/53/3 135/53/3 132/53/3 5/53/3
f 15/53/6 136/53/6 135/53/6 10/53/6
f 42/53/3 137/53/3 138/53/3 38/53/3
f 138/53/5 139/53/5 39/53/5 38/53/5
f 43/53/6 140/53/6 137/53/6 42/53/6
f 141/4/1 142/4/1 143/4/1 144/4/1
f 143/4/3 145/4/3 146/4/3 144/4/3
f 146/4/5 147/4/5 141/4/5 144/4/5
f 142/11/1 148/11/1 149/11/1 143/11/1
f 149/11/3 150/11/3 145/11/3 143/11/3
f 148/11/6 151/11/6 150/11/6 149/11/6
f 134/53/5 152/53/5 46/53/5 7/53/5
f 52/54/1 165/54/1 166/54/1 43/54/1
f 166/54/3 167/54/3 140/54/3 43/54/3
f 165/54/6 168/54/6 167/54/6 166/54/6
f 169/4/1 170/4/1 142/4/1 141/4/1
f 147/4/5 171/4/5 169/4/5 141/4/5
f 170/4/1 172/4/1 148/4/1 142/4/1
f 172/4/6 173/4/6 151/4/6 148/4/6
f 152/53/5 174/53/5 55/53/5 46/53/5
f 61/54/1 181/54/1 165/54/1 52/54/1
f 181/54/6 182/54/6 168/54/6 165/54/6
f 183/4/1 184/4/1 170/4/1 169/4/1
f 171/4/5 185/4/5 183/4/5 169/4/5
f 184/4/1 186/4/1 172/4/1 170/4/1
f 186/4/6 187/4/6 173/4/6 172/4/6
f 174/53/5 188/53/5 64/53/5 55/53/5
f 70/54/1 195/54/1 181/54/1 61/54/1
f 195/54/6 196/54/6 182/54/6 181/54/6
f 197/4/1 198/4/1 184/4/1 183/4/1
f 185/4/5 199/4/5 197/4/5 183/4/5
f 198/4/1 200/4/1 186/4/1 184/4/1
f 200/4/6 201/4/6 187/4/6 186/4/6
f 188/53/5 202/53/5 73/53/5 64/53/5
f 79/54/1 209/54/1 195/54/1 70/54/1
f 209/54/6 210/54/6 196/54/6 195/54/6
f 211/4/1 212/4/1 198/4/1 197/4/1
f 199/4/5 213/4/5 211/4/5 197/4/5
f 212/4/1 214/4/1 200/4/1 198/4/1
f 214/4/6 215/4/6 201/4/6 200/4/6
f 202/53/5 216/53/5 82/53/5 73/53/5
f 88/54/1 223/54/1 209/54/1 79/54/1
f 223/54/6 224/54/6 210/54/6 209/54/6
f 225/4/1 226/4/1 212/4/1 211/4/1
f 227/4/4 228/4/4 226/4/4 225/4/4
f 213/4/5 227/4/5 225/4/5 211/4/5
f 226/4/1 229/4/1 214/4/1 212/4/1
f 228/4/4 230/4/4 229/4/4 226/4/4
f 229/4/6 230/4/6 215/4/6 214/4/6
f 216/53/5 231/53/5 91/53/5 82/53/5
f 97/54/1 240/54/1 223/54/1 88/54/1
f 241/54/4 242/54/4 240/54/4 97/54/4
f 240/54/6 242/54/6 224/54/6 223/54/6
f 243/53/4 244/53/4 101/53/4 100/53/4
f 231/53/5 243/53/5 100/53/5 91/53/5
f 244/53/4 245/53/4 103/53/4 101/53/4
f 103/53/6 245/53/6 232/53/6 93/53/6
f 246/53/4 247/53/4 131/53/4 129/53/4
f 239/53/5 246/53/5 129/53/5 96/53/5
f 131/53/6 247/53/6 241/53/6 97/53/6
f 132/53/3 248/53/3 249/53/3 133/53/3
f 249/53/5 250/53/5 134/53/5 133/53/5
f 135/53/3 251/53/3 248/53/3 132/53/3
f 136/53/6 252/53/6 251/53/6 135/53/6
f 137/53/3 253/53/3 254/53/3 138/53/3
f 254/53/5 255/53/5 139/53/5 138/53/5
f 140/53/6 256/53/6 253/53/6 137/53/6
f 145/4/3 257/4/3 258/4/3 146/4/3
f 258/4/5 259/4/5 147/4/5 146/4/5
f 150/4/3 260/4/3 257/4/3 145/4/3
f 151/4/6 261/4/6 260/4/6 150/4/6
f 250/53/5 262/53/5 152/53/5 134/53/5
f 167/54/3 269/54/3 256/54/3 140/54/3
f 168/54/6 270/54/6 269/54/6 167/54/6
f 259/4/5 271/4/5 171/4/5 147/4/5
f 173/5/1 272/5/1 273/5/1 151/5/1
f 273/5/3 274/5/3 261/5/3 151/5/3
f 272/5/6 275/5/6 274/5/6 273/5/6
f 262/53/5 276/53/5 174/53/5 152/53/5
f 182/54/6 277/54/6 270/54/6 168/54/6
f 271/4/5 278/4/5 185/4/5 171/4/5
f 187/5/1 279/5/1 272/5/1 173/5/1
f 279/5/6 280/5/6 275/5/6 272/5/6
f 276/53/5 281/53/5 188/53/5 174/53/5
f 196/54/6 282/54/6 277/54/6 182/54/6
f 278/4/5 283/4/5 199/4/5 185/4/5
f 201/5/1 284/5/1 279/5/1 187/5/1
f 284/5/6 285/5/6 280/5/6 279/5/6
f 281/53/5 286/53/5 202/53/5 188/53/5
f 210/54/6 287/54/6 282/54/6 196/54/6
f 283/4/5 288/4/5 213/4/5 199/4/5
f 215/5/1 289/5/1 284/5/1 201/5/1
f 290/5/4 291/5/4 289/5/4 215/5/4
f 289/5/6 291/5/6 285/5/6 284/5/6
f 286/53/5 292/53/5 216/53/5 202/53/5
f 224/54/6 293/54/6 287/54/6 210/54/6
f 294/4/4 295/4/4 228/4/4 227/4/4
f 288/4/5 294/4/5 227/4/5 213/4/5
f 295/4/4 296/4/4 230/4/4 228/4/4
f 230/4/6 296/4/6 290/4/6 215/4/6
f 292/53/5 297/53/5 231/53/5 216/53/5
f 306/54/4 307/54/4 242/54/4 241/54/4
f 242/54/6 307/54/6 293/54/6 224/54/6
f 308/53/4 309/53/4 244/53/4 243/53/4
f 297/53/5 308/53/5 243/53/5 231/53/5
f 309/53/4 310/53/4 245/53/4 244/53/4
f 245/53/6 310/53/6 298/53/6 232/53/6
f 311/53/4 312/53/4 247/53/4 246/53/4
f 305/53/5 311/53/5 246/53/5 239/53/5
f 247/53/6 312/53/6 306/53/6 241/53/6
f 248/53/3 313/53/3 314/53/3 249/53/3
f 314/53/5 315/53/5 250/53/5 249/53/5
f 251/53/3 316/53/3 313/53/3 248/53/3
f 252/53/6 317/53/6 316/53/6 251/53/6
f 253/53/3 318/53/3 319/53/3 254/53/3
f 319/53/5 320/53/5 255/53/5 254/53/5
f 256/53/6 321/53/6 318/53/6 253/53/6
f 257/4/3 322/4/3 323/4/3 258/4/3
f 323/4/5 324/4/5 259/4/5 258/4/5
f 260/4/3 325/4/3 322/4/3 257/4/3
f 261/4/6 326/4/6 325/4/6 260/4/6
f 315/53/5 327/53/5 262/53/5 250/53/5
f 269/54/3 334/54/3 321/54/3 256/54/3
f 270/54/6 335/54/6 334/54/6 269/54/6
f 324/4/5 336/4/5 271/4/5 259/4/5
f 274/5/3 337/5/3 326/5/3 261/5/3
f 275/5/6 338/5/6 337/5/6 274/5/6
f 327/53/5 339/53/5 276/53/5 262/53/5
f 277/54/6 340/54/6 335/54/6 270/54/6
f 336/4/5 341/4/5 278/4/5 271/4/5
f 280/53/1 342/53/1 343/53/1 275/53/1
f 343/53/3 344/53/3 338/53/3 275/53/3
f 342/53/1 345/53/1 346/53/1 343/53/1
f 346/53/3 347/53/3 344/53/3 343/53/3
f 345/54/1 348/54/1 349/54/1 346/54/1
f 349/54/3 350/54/3 347/54/3 346/54/3
f 348/54/1 351/54/1 352/54/1 349/54/1
f 352/54/3 353/54/3 350/54/3 349/54/3
f 351/54/1 354/54/1 355/54/1 352/54/1
f 355/54/3 356/54/3 353/54/3 352/54/3
f 354/54/1 357/54/1 358/54/1 355/54/1
f 358/54/3 359/54/3 356/54/3 355/54/3
f 357/54/1 360/54/1 361/54/1 358/54/1
f 361/54/3 362/54/3 359/54/3 358/54/3
f 360/54/1 363/54/1 364/54/1 361/54/1
f 364/54/3 365/54/3 362/54/3 361/54/3
f 363/54/1 366/54/1 367/54/1 364/54/1
f 367/54/3 368/54/3 365/54/3 364/54/3
f 366/54/1 369/54/1 370/54/1 367/54/1
f 370/54/3 371/54/3 368/54/3 367/54/3
f 369/54/1 372/54/1 373/54/1 370/54/1
f 373/54/3 374/54/3 371/54/3 370/54/3
f 372/54/1 375/54/1 376/54/1 373/54/1
f 376/54/3 377/54/3 374/54/3 373/54/3
f 375/54/1 378/54/1 379/54/1 376/54/1
f 379/54/3 380/54/3 377/54/3 376/54/3
f 378/54/1 381/54/1 382/54/1 379/54/1
f 382/54/3 383/54/3 380/54/3 379/54/3
f 381/54/1 384/54/1 385/54/1 382/54/1
f 385/54/3 386/54/3 383/54/3 382/54/3
f 384/53/1 387/53/1 388/53/1 385/53/1
f 388/53/3 389/53/3 386/53/3 385/53/3
f 387/53/1 281/53/1 276/53/1 388/53/1
f 276/53/3 339/53/3 389/53/3 388/53/3
f 282/55/1 390/55/1 391/55/1 277/55/1
f 391/55/3 392/55/3 340/55/3 277/55/3
f 390/55/6 393/55/6 392/55/6 391/55/6
f 341/4/5 394/4/5 283/4/5 278/4/5
f 285/53/1 395/53/1 342/53/1 280/53/1
f 396/53/4 397/53/4 395/53/4 285/53/4
f 395/53/1 398/53/1 345/53/1 342/53/1
f 397/53/4 399/53/4 398/53/4 395/53/4
f 398/53/1 400/53/1 348/53/1 345/53/1
f 399/53/4 401/53/4 400/53/4 398/53/4
f 400/53/1 402/53/1 351/53/1 348/53/1
f 401/53/4 403/53/4 402/53/4 400/53/4
f 402/53/1 404/53/1 354/53/1 351/53/1
f 403/53/4 405/53/4 404/53/4 402/53/4
f 404/53/1 406/53/1 357/53/1 354/53/1
f 405/53/4 407/53/4 406/53/4 404/53/4
f 406/53/1 408/53/1 360/53/1 357/53/1
f 407/53/4 409/53/4 408/53/4 406/53/4
f 408/53/1 410/53/1 363/53/1 360/53/1
f 409/53/4 411/53/4 410/53/4 408/53/4
f 410/53/1 412/53/1 366/53/1 363/53/1
f 411/53/4 413/53/4 412/53/4 410/53/4
f 412/53/1 414/53/1 369/53/1 366/53/1
f 413/53/4 415/53/4 414/53/4 412/53/4
f 414/53/1 416/53/1 372/53/1 369/53/1
f 415/53/4 417/53/4 416/53/4 414/53/4
f 416/53/1 418/53/1 375/53/1 372/53/1
f 417/53/4 419/53/4 418/53/4 416/53/4
f 418/53/1 420/53/1 378/53/1 375/53/1
f 419/53/4 421/53/4 420/53/4 418/53/4
f 420/53/1 422/53/1 381/53/1 378/53/1
f 421/53/4 423/53/4 422/53/4 420/53/4
f 422/53/1 424/53/1 384/53/1 381/53/1
f 423/53/4 425/53/4 424/53/4 422/53/4
f 424/53/1 426/53/1 387/53/1 384/53/1
f 425/53/4 427/53/4 426/53/4 424/53/4
f 426/53/1 286/53/1 281/53/1 387/53/1
f 427/53/4 428/53/4 286/53/4 426/53/4
f 287/55/1 429/55/1 390/55/1 282/55/1
f 430/55/4 431/55/4 429/55/4 287/55/4
f 429/55/6 431/55/6 393/55/6 390/55/6
f 394/4/5 432/4/5 288/4/5 283/4/5
f 433/5/4 434/5/4 291/5/4 290/5/4
f 291/5/6 434/5/6 396/5/6 285/5/6
f 428/53/5 435/53/5 292/53/5 286/53/5
f 293/54/6 436/54/6 430/54/6 287/54/6
f 437/4/4 438/4/4 295/4/4 294/4/4
f 432/4/5 437/4/5 294/4/5 288/4/5
f 438/4/4 439/4/4 296/4/4 295/4/4
f 296/4/6 439/4/6 433/4/6 290/4/6
f 435/53/5 440/53/5 297/53/5 292/53/5
f 449/54/4 450/54/4 307/54/4 306/54/4
f 307/54/6 450/54/6 436/54/6 293/54/6
f 451/53/4 452/53/4 309/53/4 308/53/4
f 440/53/5 451/53/5 308/53/5 297/53/5
f 452/53/4 453/53/4 310/53/4 309/53/4
f 310/53/6 453/53/6 441/53/6 298/53/6
f 454/53/4 455/53/4 312/53/4 311/53/4
f 448/53/5 454/53/5 311/53/5 305/53/5
f 312/53/6 455/53/6 449/53/6 306/53/6
f 313/53/3 456/53/3 457/53/3 314/53/3
f 457/53/5 458/53/5 315/53/5 314/53/5
f 316/53/3 459/53/3 456/53/3 313/53/3
f 317/53/6 460/53/6 459/53/6 316/53/6
f 318/53/3 461/53/3 462/53/3 319/53/3
f 462/53/5 463/53/5 320/53/5 319/53/5
f 321/53/6 464/53/6 461/53/6 318/53/6
f 322/4/3 465/4/3 466/4/3 323/4/3
f 466/4/5 467/4/5 324/4/5 323/4/5
f 325/4/3 468/4/3 465/4/3 322/4/3
f 326/4/6 469/4/6 468/4/6 325/4/6
f 458/53/5 470/53/5 327/53/5 315/53/5
f 334/54/3 477/54/3 464/54/3 321/54/3
f 335/54/6 478/54/6 477/54/6 334/54/6
f 467/4/5 479/4/5 336/4/5 324/4/5
f 337/5/3 480/5/3 469/5/3 326/5/3
f 338/5/6 481/5/6 480/5/6 337/5/6
f 470/53/5 482/53/5 339/53/5 327/53/5
f 340/54/6 483/54/6 478/54/6 335/54/6
f 479/4/5 484/4/5 341/4/5 336/4/5
f 485/53/2 486/53/2 487/53/2 481/53/2
f 344/53/3 485/53/3 481/53/3 338/53/3
f 488/53/2 489/53/2 486/53/2 485/53/2
f 347/53/3 488/53/3 485/53/3 344/53/3
f 490/53/2 491/53/2 489/53/2 488/53/2
f 350/53/3 490/53/3 488/53/3 347/53/3
f 492/53/2 493/53/2 491/53/2 490/53/2
f 353/53/3 492/53/3 490/53/3 350/53/3
f 494/53/2 495/53/2 493/53/2 492/53/2
f 356/53/3 494/53/3 492/53/3 353/53/3
f 496/53/2 497/53/2 495/53/2 494/53/2
f 359/53/3 496/53/3 494/53/3 356/53/3
f 498/53/2 499/53/2 497/53/2 496/53/2
f 362/53/3 498/53/3 496/53/3 359/53/3
f 500/53/2 501/53/2 499/53/2 498/53/2
f 365/53/3 500/53/3 498/53/3 362/53/3
f 502/53/2 503/53/2 501/53/2 500/53/2
f 368/53/3 502/53/3 500/53/3 365/53/3
f 504/53/2 505/53/2 503/53/2 502/53/2
f 371/53/3 504/53/3 502/53/3 368/53/3
f 506/53/2 507/53/2 505/53/2 504/53/2
f 374/53/3 506/53/3 504/53/3 371/53/3
f 508/53/2 509/53/2 507/53/2 506/53/2
f 377/53/3 508/53/3 506/53/3 374/53/3
f 510/53/2 511/53/2 509/53/2 508/53/2
f 380/53/3 510/53/3 508/53/3 377/53/3
f 512/53/2 513/53/2 511/53/2 510/53/2
f 383/53/3 512/53/3 510/53/3 380/53/3
f 514/53/2 515/53/2 513/53/2 512/53/2
f 386/53/3 514/53/3 512/53/3 383/53/3
f 516/53/2 517/53/2 515/53/2 514/53/2
f 389/53/3 516/53/3 514/53/3 386/53/3
f 482/53/2 518/53/2 517/53/2 516/53/2
f 339/53/3 482/53/3 516/53/3 389/53/3
f 519/55/2 520/55/2 521/55/2 483/55/2
f 392/55/3 519/55/3 483/55/3 340/55/3
f 393/55/6 520/55/6 519/55/6 392/55/6
f 484/4/5 522/4/5 394/4/5 341/4/5
f 486/53/2 523/53/2 524/53/2 487/53/2
f 524/53/4 523/53/4 397/53/4 396/53/4
f 489/53/2 525/53/2 523/53/2 486/53/2
f 523/53/4 525/53/4 399/53/4 397/53/4
f 491/53/2 526/53/2 525/53/2 489/53/2
f 525/53/4 526/53/4 401/53/4 399/53/4
f 493/53/2 527/53/2 526/53/2 491/53/2
f 526/53/4 527/53/4 403/53/4 401/53/4
f 495/53/2 528/53/2 527/53/2 493/53/2
f 527/53/4 528/53/4 405/53/4 403/53/4
f 497/53/2 529/53/2 528/53/2 495/53/2
f 528/53/4 529/53/4 407/53/4 405/53/4
f 499/53/2 530/53/2 529/53/2 497/53/2
f 529/53/4 530/53/4 409/53/4 407/53/4
f 501/53/2 531/53/2 530/53/2 499/53/2
f 530/53/4 531/53/4 411/53/4 409/53/4
f 503/53/2 532/53/2 531/53/2 501/53/2
f 531/53/4 532/53/4 413/53/4 411/53/4
f 505/53/2 533/53/2 532/53/2 503/53/2
f 532/53/4 533/53/4 415/53/4 413/53/4
f 507/53/2 534/53/2 533/53/2 505/53/2
f 533/53/4 534/53/4 417/53/4 415/53/4
f 509/53/2 535/53/2 534/53/2 507/53/2
f 534/53/4 535/53/4 419/53/4 417/53/4
f 511/53/2 536/53/2 535/53/2 509/53/2
f 535/53/4 536/53/4 421/53/4 419/53/4
f 513/53/2 537/53/2 536/53/2 511/53/2
f 536/53/4 537/53/4 423/53/4 421/53/4
f 515/53/2 538/53/2 537/53/2 513/53/2
f 537/53/4 538/53/4 425/53/4 423/53/4
f 517/53/2 539/53/2 538/53/2 515/53/2
f 538/53/4 539/53/4 427/53/4 425/53/4
f 518/53/2 540/53/2 539/53/2 517/53/2
f 539/53/4 540/53/4 428/53/4 427/53/4
f 520/55/2 541/55/2 542/55/2 521/55/2
f 542/55/4 541/55/4 431/55/4 430/55/4
f 431/55/6 541/55/6 520/55/6 393/55/6
f 522/4/5 543/4/5 432/4/5 394/4/5
f 544/5/4 545/5/4 434/5/4 433/5/4
f 434/5/6 545/5/6 524/5/6 396/5/6
f 540/53/5 546/53/5 435/53/5 428/53/5
f 436/54/6 547/54/6 542/54/6 430/54/6
f 548/4/4 549/4/4 438/4/4 437/4/4
f 543/4/5 548/4/5 437/4/5 432/4/5
f 549/4/4 550/4/4 439/4/4 438/4/4
f 439/4/6 550/4/6 544/4/6 433/4/6
f 546/53/5 551/53/5 440/53/5 435/53/5
f 560/54/4 561/54/4 450/54/4 449/54/4
f 450/54/6 561/54/6 547/54/6 436/54/6
f 562/53/4 563/53/4 452/53/4 451/53/4
f 551/53/5 562/53/5 451/53/5 440/53/5
f 563/53/4 564/53/4 453/53/4 452/53/4
f 453/53/6 564/53/6 552/53/6 441/53/6
f 565/53/4 566/53/4 455/53/4 454/53/4
f 559/53/5 565/53/5 454/53/5 448/53/5
f 455/53/6 566/53/6 560/53/6 449/53/6
f 456/53/3 567/53/3 568/53/3 457/53/3
f 568/53/5 569/53/5 458/53/5 457/53/5
f 459/53/3 570/53/3 567/53/3 456/53/3
f 460/53/6 571/53/6 570/53/6 459/53/6
f 461/53/3 572/53/3 573/53/3 462/53/3
f 573/53/5 574/53/5 463/53/5 462/53/5
f 464/53/6 575/53/6 572/53/6 461/53/6
f 465/4/3 576/4/3 577/4/3 466/4/3
f 577/4/5 578/4/5 467/4/5 466/4/5
f 468/4/3 579/4/3 576/4/3 465/4/3
f 469/4/6 580/4/6 579/4/6 468/4/6
f 569/53/5 581/53/5 470/53/5 458/53/5
f 477/54/3 588/54/3 575/54/3 464/54/3
f 478/54/6 589/54/6 588/54/6 477/54/6
f 578/4/5 590/4/5 479/4/5 467/4/5
f 591/5/2 592/5/2 593/5/2 580/5/2
f 480/5/3 591/5/3 580/5/3 469/5/3
f 481/5/6 592/5/6 591/5/6 480/5/6
f 581/53/5 594/53/5 482/53/5 470/53/5
f 483/54/6 595/54/6 589/54/6 478/54/6
f 590/4/5 596/4/5 484/4/5 479/4/5
f 592/5/2 597/5/2 598/5/2 593/5/2
f 487/5/6 597/5/6 592/5/6 481/5/6
f 594/53/5 599/53/5 518/53/5 482/53/5
f 521/54/6 600/54/6 595/54/6 483/54/6
f 596/4/5 601/4/5 522/4/5 484/4/5
f 597/5/2 602/5/2 603/5/2 598/5/2
f 524/5/6 602/5/6 597/5/6 487/5/6
f 599/53/5 604/53/5 540/53/5 518/53/5
f 542/54/6 605/54/6 600/54/6 521/54/6
f 601/4/5 606/4/5 543/4/5 522/4/5
f 602/5/2 607/5/2 608/5/2 603/5/2
f 608/5/4 607/5/4 545/5/4 544/5/4
f 545/5/6 607/5/6 602/5/6 524/5/6
f 604/53/5 609/53/5 546/53/5 540/53/5
f 547/54/6 610/54/6 605/54/6 542/54/6
f 611/4/4 612/4/4 549/4/4 548/4/4
f 606/4/5 611/4/5 548/4/5 543/4/5
f 612/4/4 613/4/4 550/4/4 549/4/4
f 550/4/6 613/4/6 608/4/6 544/4/6
f 609/53/5 614/53/5 551/53/5 546/53/5
f 623/54/4 624/54/4 561/54/4 560/54/4
f 561/54/6 624/54/6 610/54/6 547/54/6
f 625/53/4 626/53/4 563/53/4 562/53/4
f 614/53/5 625/53/5 562/53/5 551/53/5
f 626/53/4 627/53/4 564/53/4 563/53/4
f 564/53/6 627/53/6 615/53/6 552/53/6
f 628/53/4 629/53/4 566/53/4 565/53/4
f 622/53/5 628/53/5 565/53/5 559/53/5
f 566/53/6 629/53/6 623/53/6 560/53/6
f 567/53/3 630/53/3 631/53/3 568/53/3
f 631/53/5 632/53/5 569/53/5 568/53/5
f 570/53/3 633/53/3 630/53/3 567/53/3
f 571/53/6 634/53/6 633/53/6 570/53/6
f 572/53/3 635/53/3 636/53/3 573/53/3
f 636/53/5 637/53/5 574/53/5 573/53/5
f 575/53/6 638/53/6 635/53/6 572/53/6
f 639/4/2 640/4/2 641/4/2 642/4/2
f 576/4/3 639/4/3 642/4/3 577/4/3
f 642/4/5 641/4/5 578/4/5 577/4/5
f 643/4/2 644/4/2 640/4/2 639/4/2
f 579/4/3 643/4/3 639/4/3 576/4/3
f 580/4/6 644/4/6 643/4/6 579/4/6
f 632/53/5 645/53/5 581/53/5 569/53/5
f 660/54/2 661/54/2 662/54/2 638/54/2
f 588/54/3 660/54/3 638/54/3 575/54/3
f 589/54/6 661/54/6 660/54/6 588/54/6
f 640/4/2 663/4/2 664/4/2 641/4/2
f 641/4/5 664/4/5 590/4/5 578/4/5
f 644/4/2 665/4/2 663/4/2 640/4/2
f 593/4/6 665/4/6 644/4/6 580/4/6
f 645/53/5 666/53/5 594/53/5 581/53/5
f 661/54/2 675/54/2 676/54/2 662/54/2
f 595/54/6 675/54/6 661/54/6 589/54/6
f 663/4/2 677/4/2 678/4/2 664/4/2
f 664/4/5 678/4/5 596/4/5 590/4/5
f 665/4/2 679/4/2 677/4/2 663/4/2
f 598/4/6 679/4/6 665/4/6 593/4/6
f 666/53/5 680/53/5 599/53/5 594/53/5
f 675/54/2 689/54/2 690/54/2 676/54/2
f 600/54/6 689/54/6 675/54/6 595/54/6
f 677/4/2 691/4/2 692/4/2 678/4/2
f 678/4/5 692/4/5 601/4/5 596/4/5
f 679/4/2 693/4/2 691/4/2 677/4/2
f 603/4/6 693/4/6 679/4/6 598/4/6
f 680/53/5 694/53/5 604/53/5 599/53/5
f 689/54/2 703/54/2 704/54/2 690/54/2
f 605/54/6 703/54/6 689/54/6 600/54/6
f 691/4/2 705/4/2 706/4/2 692/4/2
f 692/4/5 706/4/5 606/4/5 601/4/5
f 693/4/2 707/4/2 705/4/2 691/4/2
f 608/4/6 707/4/6 693/4/6 603/4/6
f 694/53/5 708/53/5 609/53/5 604/53/5
f 703/54/2 717/54/2 718/54/2 704/54/2
f 610/54/6 717/54/6 703/54/6 605/54/6
f 705/4/2 719/4/2 720/4/2 706/4/2
f 720/4/4 719/4/4 612/4/4 611/4/4
f 706/4/5 720/4/5 611/4/5 606/4/5
f 707/4/2 721/4/2 719/4/2 705/4/2
f 719/4/4 721/4/4 613/4/4 612/4/4
f 613/4/6 721/4/6 707/4/6 608/4/6
f 708/53/5 722/53/5 614/53/5 609/53/5
f 717/54/2 731/54/2 732/54/2 718/54/2
f 732/54/4 731/54/4 624/54/4 623/54/4
f 624/54/6 731/54/6 717/54/6 610/54/6
f 733/53/4 734/53/4 626/53/4 625/53/4
f 722/53/5 733/53/5 625/53/5 614/53/5
f 734/53/4 735/53/4 627/53/4 626/53/4
f 627/53/6 735/53/6 724/53/6 615/53/6
f 736/53/4 737/53/4 629/53/4 628/53/4
f 730/53/5 736/53/5 628/53/5 622/53/5
f 629/53/6 737/53/6 732/53/6 623/53/6
f 738/53/2 739/53/2 740/53/2 741/53/2
f 630/53/3 738/53/3 741/53/3 631/53/3
f 741/53/5 740/53/5 632/53/5 631/53/5
f 742/53/2 743/53/2 739/53/2 738/53/2
f 633/53/3 742/53/3 738/53/3 630/53/3
f 634/54/1 646/54/1 744/54/1 633/54/1
f 745/54/2 746/54/2 743/54/2 742/54/2
f 744/54/3 745/54/3 742/54/3 633/54/3
f 743/54/4 746/54/4 646/54/4 634/54/4
f 646/54/1 649/54/1 747/54/1 744/54/1
f 748/54/2 749/54/2 746/54/2 745/54/2
f 747/54/3 748/54/3 745/54/3 744/54/3
f 746/54/4 749/54/4 649/54/4 646/54/4
f 649/54/1 651/54/1 750/54/1 747/54/1
f 751/54/2 752/54/2 749/54/2 748/54/2
f 750/54/3 751/54/3 748/54/3 747/54/3
f 749/54/4 752/54/4 651/54/4 649/54/4
f 651/54/1 653/54/1 753/54/1 750/54/1
f 754/54/2 755/54/2 752/54/2 751/54/2
f 753/54/3 754/54/3 751/54/3 750/54/3
f 752/54/4 755/54/4 653/54/4 651/54/4
f 653/54/1 655/54/1 756/54/1 753/54/1
f 757/54/2 758/54/2 755/54/2 754/54/2
f 756/54/3 757/54/3 754/54/3 753/54/3
f 755/54/4 758/54/4 655/54/4 653/54/4
f 655/54/1 657/54/1 759/54/1 756/54/1
f 760/54/2 761/54/2 758/54/2 757/54/2
f 759/54/3 760/54/3 757/54/3 756/54/3
f 758/54/4 761/54/4 657/54/4 655/54/4
f 657/54/1 637/54/1 636/54/1 759/54/1
f 762/54/2 763/54/2 761/54/2 760/54/2
f 636/54/3 762/54/3 760/54/3 759/54/3
f 761/54/4 763/54/4 637/54/4 657/54/4
f 764/53/2 765/53/2 763/53/2 762/53/2
f 635/53/3 764/53/3 762/53/3 636/53/3
f 638/53/6 765/53/6 764/53/6 635/53/6
f 739/53/2 766/53/2 767/53/2 740/53/2
f 740/53/5 767/53/5 645/53/5 632/53/5
f 743/53/2 768/53/2 766/53/2 739/53/2
f 648/53/6 768/53/6 743/53/6 634/53/6
f 765/53/2 769/53/2 770/53/2 763/53/2
f 763/53/5 770/53/5 659/53/5 637/53/5
f 662/53/6 769/53/6 765/53/6 638/53/6
f 766/53/2 771/53/2 772/53/2 767/53/2
f 767/53/5 772/53/5 666/53/5 645/53/5
f 768/53/2 773/53/2 771/53/2 766/53/2
f 668/53/6 773/53/6 768/53/6 648/53/6
f 769/53/2 774/53/2 775/53/2 770/53/2
f 770/53/5 775/53/5 674/53/5 659/53/5
f 676/53/6 774/53/6 769/53/6 662/53/6
f 771/53/2 776/53/2 777/53/2 772/53/2
f 772/53/5 777/53/5 680/53/5 666/53/5
f 773/53/2 778/53/2 776/53/2 771/53/2
f 682/53/6 778/53/6 773/53/6 668/53/6
f 774/53/2 779/53/2 780/53/2 775/53/2
f 775/53/5 780/53/5 688/53/5 674/53/5
f 690/53/6 779/53/6 774/53/6 676/53/6
f 776/53/2 781/53/2 782/53/2 777/53/2
f 777/53/5 782/53/5 694/53/5 680/53/5
f 778/53/2 783/53/2 781/53/2 776/53/2
f 696/53/6 783/53/6 778/53/6 682/53/6
f 779/53/2 784/53/2 785/53/2 780/53/2
f 780/53/5 785/53/5 702/53/5 688/53/5
f 704/53/6 784/53/6 779/53/6 690/53/6
f 781/53/2 786/53/2 787/53/2 782/53/2
f 782/53/5 787/53/5 708/53/5 694/53/5
f 783/53/2 788/53/2 786/53/2 781/53/2
f 710/53/6 788/53/6 783/53/6 696/53/6
f 784/53/2 789/53/2 790/53/2 785/53/2
f 785/53/5 790/53/5 716/53/5 702/53/5
f 718/53/6 789/53/6 784/53/6 704/53/6
f 786/53/2 791/53/2 792/53/2 787/53/2
f 787/53/5 792/53/5 722/53/5 708/53/5
f 788/53/2 793/53/2 791/53/2 786/53/2
f 724/53/6 793/53/6 788/53/6 710/53/6
f 789/53/2 794/53/2 795/53/2 790/53/2
f 790/53/5 795/53/5 730/53/5 716/53/5
f 732/53/6 794/53/6 789/53/6 718/53/6
f 791/53/2 796/53/2 797/53/2 792/53/2
f 797/53/4 796/53/4 734/53/4 733/53/4
f 792/53/5 797/53/5 733/53/5 722/53/5
f 793/53/2 798/53/2 796/53/2 791/53/2
f 796/53/4 798/53/4 735/53/4 734/53/4
f 735/54/1 799/54/1 723/54/1 724/54/1
f 800/54/2 801/54/2 798/54/2 793/54/2
f 723/54/3 800/54/3 793/54/3 724/54/3
f 798/54/4 801/54/4 799/54/4 735/54/4
f 799/54/1 802/54/1 725/54/1 723/54/1
f 803/54/2 804/54/2 801/54/2 800/54/2
f 725/54/3 803/54/3 800/54/3 723/54/3
f 801/54/4 804/54/4 802/54/4 799/54/4
f 802/54/1 805/54/1 726/54/1 725/54/1
f 806/54/2 807/54/2 804/54/2 803/54/2
f 726/54/3 806/54/3 803/54/3 725/54/3
f 804/54/4 807/54/4 805/54/4 802/54/4
f 805/54/1 808/54/1 727/54/1 726/54/1
f 809/54/2 810/54/2 807/54/2 806/54/2
f 727/54/3 809/54/3 806/54/3 726/54/3
f 807/54/4 810/54/4 808/54/4 805/54/4
f 808/54/1 811/54/1 728/54/1 727/54/1
f 812/54/2 813/54/2 810/54/2 809/54/2
f 728/54/3 812/54/3 809/54/3 727/54/3
f 810/54/4 813/54/4 811/54/4 808/54/4
f 811/54/1 814/54/1 729/54/1 728/54/1
f 815/54/2 816/54/2 813/54/2 812/54/2
f 729/54/3 815/54/3 812/54/3 728/54/3
f 813/54/4 816/54/4 814/54/4 811/54/4
f 814/54/1 736/54/1 730/54/1 729/54/1
f 795/54/2 817/54/2 816/54/2 815/54/2
f 730/54/3 795/54/3 815/54/3 729/54/3
f 816/54/4 817/54/4 736/54/4 814/54/4
f 794/53/2 818/53/2 817/53/2 795/53/2
f 817/53/4 818/53/4 737/53/4 736/53/4
f 737/53/6 818/53/6 794/53/6 732/53/6
g emissive
usemtl emissive
f 48/22/1 153/22/1 14/22/1 15/22/1
f 14/22/3 154/22/3 136/22/3 15/22/3
f 153/22/1 155/22/1 19/22/1 14/22/1
f 19/22/3 156/22/3 154/22/3 14/22/3
f 155/23/1 157/23/1 23/23/1 19/23/1
f 23/23/3 158/23/3 156/23/3 19/23/3
f 157/23/1 159/23/1 27/23/1 23/23/1
f 27/23/3 160/23/3 158/23/3 23/23/3
f 159/23/1 161/23/1 31/23/1 27/23/1
f 31/23/3 162/23/3 160/23/3 27/23/3
f 161/23/1 163/23/1 35/23/1 31/23/1
f 35/23/3 164/23/3 162/23/3 31/23/3
f 163/22/1 51/22/1 39/22/1 35/22/1
f 39/22/3 139/22/3 164/22/3 35/22/3
f 57/22/1 175/22/1 153/22/1 48/22/1
f 175/22/1 176/22/1 155/22/1 153/22/1
f 176/23/1 177/23/1 157/23/1 155/23/1
f 177/23/1 178/23/1 159/23/1 157/23/1
f 178/23/1 179/23/1 161/23/1 159/23/1
f 179/23/1 180/23/1 163/23/1 161/23/1
f 180/22/1 60/22/1 51/22/1 163/22/1
f 66/22/1 189/22/1 175/22/1 57/22/1
f 189/22/1 190/22/1 176/22/1 175/22/1
f 190/24/1 191/24/1 177/24/1 176/24/1
f 191/24/1 192/24/1 178/24/1 177/24/1
f 192/24/1 193/24/1 179/24/1 178/24/1
f 193/23/1 194/23/1 180/23/1 179/23/1
f 194/22/1 69/22/1 60/22/1 180/22/1
f 75/22/1 203/22/1 189/22/1 66/22/1
f 203/22/1 204/22/1 190/22/1 189/22/1
f 204/24/1 205/24/1 191/24/1 190/24/1
f 205/24/1 206/24/1 192/24/1 191/24/1
f 206/24/1 207/24/1 193/24/1 192/24/1
f 207/23/1 208/23/1 194/23/1 193/23/1
f 208/22/1 78/22/1 69/22/1 194/22/1
f 84/22/1 217/22/1 203/22/1 75/22/1
f 217/22/1 218/22/1 204/22/1 203/22/1
f 218/23/1 219/23/1 205/23/1 204/23/1
f 219/23/1 220/23/1 206/23/1 205/23/1
f 220/23/1 221/23/1 207/23/1 206/23/1
f 221/23/1 222/23/1 208/23/1 207/23/1
f 222/22/1 87/22/1 78/22/1 208/22/1
f 93/22/1 106/22/1 217/22/1 84/22/1
f 232/22/4 233/22/4 106/22/4 93/22/4
f 106/22/1 110/22/1 218/22/1 217/22/1
f 233/22/4 234/22/4 110/22/4 106/22/4
f 110/23/1 114/23/1 219/23/1 218/23/1
f 234/23/4 235/23/4 114/23/4 110/23/4
f 114/23/1 118/23/1 220/23/1 219/23/1
f 235/23/4 236/23/4 118/23/4 114/23/4
f 118/23/1 122/23/1 221/23/1 220/23/1
f 236/23/4 237/23/4 122/23/4 118/23/4
f 122/23/1 126/23/1 222/23/1 221/23/1
f 237/23/4 238/23/4 126/23/4 122/23/4
f 126/22/1 96/22/1 87/22/1 222/22/1
f 238/22/4 239/22/4 96/22/4 126/22/4
f 154/22/3 263/22/3 252/22/3 136/22/3
f 156/22/3 264/22/3 263/22/3 154/22/3
f 158/23/3 265/23/3 264/23/3 156/23/3
f 160/23/3 266/23/3 265/23/3 158/23/3
f 162/23/3 267/23/3 266/23/3 160/23/3
f 164/23/3 268/23/3 267/23/3 162/23/3
f 139/22/3 255/22/3 268/22/3 164/22/3
f 298/22/4 299/22/4 233/22/4 232/22/4
f 299/22/4 300/22/4 234/22/4 233/22/4
f 300/23/4 301/23/4 235/23/4 234/23/4
f 301/23/4 302/23/4 236/23/4 235/23/4
f 302/23/4 303/23/4 237/23/4 236/23/4
f 303/23/4 304/23/4 238/23/4 237/23/4
f 304/22/4 305/22/4 239/22/4 238/22/4
f 263/22/3 328/22/3 317/22/3 252/22/3
f 264/22/3 329/22/3 328/22/3 263/22/3
f 265/24/3 330/24/3 329/24/3 264/24/3
f 266/24/3 331/24/3 330/24/3 265/24/3
f 267/24/3 332/24/3 331/24/3 266/24/3
f 268/23/3 333/23/3 332/23/3 267/23/3
f 255/22/3 320/22/3 333/22/3 268/22/3
f 441/22/4 442/22/4 299/22/4 298/22/4
f 442/22/4 443/22/4 300/22/4 299/22/4
f 443/24/4 444/24/4 301/24/4 300/24/4
f 444/24/4 445/24/4 302/24/4 301/24/4
f 445/24/4 446/24/4 303/24/4 302/24/4
f 446/23/4 447/23/4 304/23/4 303/23/4
f 447/22/4 448/22/4 305/22/4 304/22/4
f 328/22/3 471/22/3 460/22/3 317/22/3
f 329/22/3 472/22/3 471/22/3 328/22/3
f 330/24/3 473/24/3 472/24/3 329/24/3
f 331/24/3 474/24/3 473/24/3 330/24/3
f 332/24/3 475/24/3 474/24/3 331/24/3
f 333/23/3 476/23/3 475/23/3 332/23/3
f 320/22/3 463/22/3 476/22/3 333/22/3
f 552/22/4 553/22/4 442/22/4 441/22/4
f 553/22/4 554/22/4 443/22/4 442/22/4
f 554/24/4 555/24/4 444/24/4 443/24/4
f 555/24/4 556/24/4 445/24/4 444/24/4
f 556/24/4 557/24/4 446/24/4 445/24/4
f 557/23/4 558/23/4 447/23/4 446/23/4
f 558/22/4 559/22/4 448/22/4 447/22/4
f 471/22/3 582/22/3 571/22/3 460/22/3
f 472/22/3 583/22/3 582/22/3 471/22/3
f 473/23/3 584/23/3 583/23/3 472/23/3
f 474/23/3 585/23/3 584/23/3 473/23/3
f 475/23/3 586/23/3 585/23/3 474/23/3
f 476/23/3 587/23/3 586/23/3 475/23/3
f 463/22/3 574/22/3 587/22/3 476/22/3
f 615/22/4 616/22/4 553/22/4 552/22/4
f 616/22/4 617/22/4 554/22/4 553/22/4
f 617/23/4 618/23/4 555/23/4 554/23/4
f 618/23/4 619/23/4 556/23/4 555/23/4
f 619/23/4 620/23/4 557/23/4 556/23/4
f 620/23/4 621/23/4 558/23/4 557/23/4
f 621/22/4 622/22/4 559/22/4 558/22/4
f 646/22/2 647/22/2 648/22/2 634/22/2
f 582/22/3 646/22/3 634/22/3 571/22/3
f 649/22/2 650/22/2 647/22/2 646/22/2
f 583/22/3 649/22/3 646/22/3 582/22/3
f 651/23/2 652/23/2 650/23/2 649/23/2
f 584/23/3 651/23/3 649/23/3 583/23/3
f 653/23/2 654/23/2 652/23/2 651/23/2
f 585/23/3 653/23/3 651/23/3 584/23/3
f 655/23/2 656/23/2 654/23/2 653/23/2
f 586/23/3 655/23/3 653/23/3 585/23/3
f 657/23/2 658/23/2 656/23/2 655/23/2
f 587/23/3 657/23/3 655/23/3 586/23/3
f 637/22/2 659/22/2 658/22/2 657/22/2
f 574/22/3 637/22/3 657/22/3 587/22/3
f 647/22/2 667/22/2 668/22/2 648/22/2
f 650/22/2 669/22/2 667/22/2 647/22/2
f 652/23/2 670/23/2 669/23/2 650/23/2
f 654/23/2 671/23/2 670/23/2 652/23/2
f 656/23/2 672/23/2 671/23/2 654/23/2
f 658/23/2 673/23/2 672/23/2 656/23/2
f 659/22/2 674/22/2 673/22/2 658/22/2
f 667/22/2 681/22/2 682/22/2 668/22/2
f 669/22/2 683/22/2 681/22/2 667/22/2
f 670/24/2 684/24/2 683/24/2 669/24/2
f 671/24/2 685/24/2 684/24/2 670/24/2
f 672/24/2 686/24/2 685/24/2 671/24/2
f 673/23/2 687/23/2 686/23/2 672/23/2
f 674/22/2 688/22/2 687/22/2 673/22/2
f 681/22/2 695/22/2 696/22/2 682/22/2
f 683/22/2 697/22/2 695/22/2 681/22/2
f 684/24/2 698/24/2 697/24/2 683/24/2
f 685/24/2 699/24/2 698/24/2 684/24/2
f 686/24/2 700/24/2 699/24/2 685/24/2
f 687/23/2 701/23/2 700/23/2 686/23/2
f 688/22/2 702/22/2 701/22/2 687/22/2
f 695/22/2 709/22/2 710/22/2 696/22/2
f 697/22/2 711/22/2 709/22/2 695/22/2
f 698/23/2 712/23/2 711/23/2 697/23/2
f 699/23/2 713/23/2 712/23/2 698/23/2
f 700/23/2 714/23/2 713/23/2 699/23/2
f 701/23/2 715/23/2 714/23/2 700/23/2
f 702/22/2 716/22/2 715/22/2 701/22/2
f 709/22/2 723/22/2 724/22/2 710/22/2
f 724/22/4 723/22/4 616/22/4 615/22/4
f 711/22/2 725/22/2 723/22/2 709/22/2
f 723/22/4 725/22/4 617/22/4 616/22/4
f 712/23/2 726/23/2 725/23/2 711/23/2
f 725/23/4 726/23/4 618/23/4 617/23/4
f 713/23/2 727/23/2 726/23/2 712/23/2
f 726/23/4 727/23/4 619/23/4 618/23/4
f 714/23/2 728/23/2 727/23/2 713/23/2
f 727/23/4 728/23/4 620/23/4 619/23/4
f 715/23/2 729/23/2 728/23/2 714/23/2
f 728/23/4 729/23/4 621/23/4 620/23/4
f 716/22/2 730/22/2 729/22/2 715/22/2
f 729/22/4 730/22/4 622/22/4 621/22/4
