# Dungine ledge_edge; 1 voxel = 1/16 unit; Y-up floor-center origin
mtllib ledge_edge.mtl
o ledge_edge
s off
v -0.500000 0.000000 -0.437500
v -0.500000 0.062500 -0.437500
v -0.500000 0.062500 -0.500000
v -0.500000 0.000000 -0.500000
v -0.437500 0.062500 -0.500000
v -0.437500 0.000000 -0.500000
v -0.437500 0.000000 -0.437500
v -0.500000 0.125000 -0.437500
v -0.500000 0.125000 -0.500000
v -0.437500 0.125000 -0.500000
v -0.500000 0.187500 -0.437500
v -0.500000 0.187500 -0.500000
v -0.437500 0.187500 -0.500000
v -0.500000 0.250000 -0.437500
v -0.500000 0.250000 -0.500000
v -0.437500 0.250000 -0.500000
v -0.500000 0.312500 -0.437500
v -0.500000 0.312500 -0.500000
v -0.437500 0.312500 -0.500000
v -0.500000 0.375000 -0.437500
v -0.500000 0.375000 -0.500000
v -0.437500 0.375000 -0.500000
v -0.500000 0.437500 -0.437500
v -0.500000 0.437500 -0.500000
v -0.437500 0.437500 -0.500000
v -0.500000 0.500000 -0.437500
v -0.500000 0.500000 -0.500000
v -0.437500 0.500000 -0.500000
v -0.437500 0.500000 -0.437500
v -0.500000 0.000000 -0.375000
v -0.500000 0.062500 -0.375000
v -0.437500 0.000000 -0.375000
v -0.500000 0.125000 -0.375000
v -0.500000 0.187500 -0.375000
v -0.500000 0.250000 -0.375000
v -0.500000 0.312500 -0.375000
v -0.500000 0.375000 -0.375000
v -0.500000 0.437500 -0.375000
v -0.500000 0.500000 -0.375000
v -0.437500 0.500000 -0.375000
v -0.500000 0.000000 -0.312500
v -0.500000 0.062500 -0.312500
v -0.437500 0.000000 -0.312500
v -0.500000 0.125000 -0.312500
v -0.500000 0.187500 -0.312500
v -0.500000 0.250000 -0.312500
v -0.500000 0.312500 -0.312500
v -0.500000 0.375000 -0.312500
v -0.500000 0.437500 -0.312500
v -0.500000 0.500000 -0.312500
v -0.437500 0.500000 -0.312500
v -0.500000 0.000000 -0.250000
v -0.500000 0.062500 -0.250000
v -0.437500 0.000000 -0.250000
v -0.500000 0.125000 -0.250000
v -0.500000 0.187500 -0.250000
v -0.500000 0.250000 -0.250000
v -0.500000 0.312500 -0.250000
v -0.500000 0.375000 -0.250000
v -0.500000 0.437500 -0.250000
v -0.500000 0.500000 -0.250000
v -0.437500 0.500000 -0.250000
v -0.500000 0.000000 -0.187500
v -0.500000 0.062500 -0.187500
v -0.437500 0.000000 -0.187500
v -0.500000 0.125000 -0.187500
v -0.500000 0.187500 -0.187500
v -0.500000 0.250000 -0.187500
v -0.500000 0.312500 -0.187500
v -0.500000 0.375000 -0.187500
v -0.500000 0.437500 -0.187500
v -0.500000 0.500000 -0.187500
v -0.437500 0.500000 -0.187500
v -0.500000 0.000000 -0.125000
v -0.500000 0.062500 -0.125000
v -0.437500 0.000000 -0.125000
v -0.500000 0.125000 -0.125000
v -0.500000 0.187500 -0.125000
v -0.500000 0.250000 -0.125000
v -0.500000 0.312500 -0.125000
v -0.500000 0.375000 -0.125000
v -0.500000 0.437500 -0.125000
v -0.500000 0.500000 -0.125000
v -0.437500 0.500000 -0.125000
v -0.500000 0.000000 -0.062500
v -0.500000 0.062500 -0.062500
v -0.437500 0.000000 -0.062500
v -0.500000 0.125000 -0.062500
v -0.500000 0.187500 -0.062500
v -0.500000 0.250000 -0.062500
v -0.500000 0.312500 -0.062500
v -0.500000 0.375000 -0.062500
v -0.500000 0.437500 -0.062500
v -0.500000 0.500000 -0.062500
v -0.437500 0.500000 -0.062500
v -0.500000 0.000000 0.000000
v -0.500000 0.062500 0.000000
v -0.437500 0.000000 0.000000
v -0.500000 0.125000 0.000000
v -0.500000 0.187500 0.000000
v -0.500000 0.250000 0.000000
v -0.500000 0.312500 0.000000
v -0.500000 0.375000 0.000000
v -0.500000 0.437500 0.000000
v -0.500000 0.500000 0.000000
v -0.437500 0.500000 0.000000
v -0.500000 0.000000 0.062500
v -0.500000 0.062500 0.062500
v -0.437500 0.000000 0.062500
v -0.500000 0.125000 0.062500
v -0.500000 0.187500 0.062500
v -0.500000 0.250000 0.062500
v -0.500000 0.312500 0.062500
v -0.500000 0.375000 0.062500
v -0.500000 0.437500 0.062500
v -0.500000 0.500000 0.062500
v -0.437500 0.500000 0.062500
v -0.500000 0.000000 0.125000
v -0.500000 0.062500 0.125000
v -0.437500 0.000000 0.125000
v -0.500000 0.125000 0.125000
v -0.500000 0.187500 0.125000
v -0.500000 0.250000 0.125000
v -0.500000 0.312500 0.125000
v -0.500000 0.375000 0.125000
v -0.500000 0.437500 0.125000
v -0.500000 0.500000 0.125000
v -0.437500 0.500000 0.125000
v -0.500000 0.000000 0.187500
v -0.500000 0.062500 0.187500
v -0.437500 0.000000 0.187500
v -0.500000 0.125000 0.187500
v -0.500000 0.187500 0.187500
v -0.500000 0.250000 0.187500
v -0.500000 0.312500 0.187500
v -0.500000 0.375000 0.187500
v -0.500000 0.437500 0.187500
v -0.500000 0.500000 0.187500
v -0.437500 0.500000 0.187500
v -0.500000 0.000000 0.250000
v -0.500000 0.062500 0.250000
v -0.437500 0.000000 0.250000
v -0.500000 0.125000 0.250000
v -0.500000 0.187500 0.250000
v -0.500000 0.250000 0.250000
v -0.500000 0.312500 0.250000
v -0.500000 0.375000 0.250000
v -0.500000 0.437500 0.250000
v -0.500000 0.500000 0.250000
v -0.437500 0.500000 0.250000
v -0.500000 0.000000 0.312500
v -0.500000 0.062500 0.312500
v -0.437500 0.000000 0.312500
v -0.500000 0.125000 0.312500
v -0.500000 0.187500 0.312500
v -0.500000 0.250000 0.312500
v -0.500000 0.312500 0.312500
v -0.500000 0.375000 0.312500
v -0.500000 0.437500 0.312500
v -0.500000 0.500000 0.312500
v -0.437500 0.500000 0.312500
v -0.500000 0.000000 0.375000
v -0.500000 0.062500 0.375000
v -0.437500 0.000000 0.375000
v -0.500000 0.125000 0.375000
v -0.500000 0.187500 0.375000
v -0.500000 0.250000 0.375000
v -0.500000 0.312500 0.375000
v -0.500000 0.375000 0.375000
v -0.500000 0.437500 0.375000
v -0.500000 0.500000 0.375000
v -0.437500 0.500000 0.375000
v -0.500000 0.000000 0.437500
v -0.500000 0.062500 0.437500
v -0.437500 0.000000 0.437500
v -0.500000 0.125000 0.437500
v -0.500000 0.187500 0.437500
v -0.500000 0.250000 0.437500
v -0.500000 0.312500 0.437500
v -0.500000 0.375000 0.437500
v -0.500000 0.437500 0.437500
v -0.500000 0.500000 0.437500
v -0.437500 0.500000 0.437500
v -0.500000 0.000000 0.500000
v -0.500000 0.062500 0.500000
v -0.437500 0.000000 0.500000
v -0.437500 0.062500 0.500000
v -0.500000 0.125000 0.500000
v -0.437500 0.125000 0.500000
v -0.500000 0.187500 0.500000
v -0.437500 0.187500 0.500000
v -0.500000 0.250000 0.500000
v -0.437500 0.250000 0.500000
v -0.500000 0.312500 0.500000
v -0.437500 0.312500 0.500000
v -0.500000 0.375000 0.500000
v -0.437500 0.375000 0.500000
v -0.500000 0.437500 0.500000
v -0.437500 0.437500 0.500000
v -0.500000 0.500000 0.500000
v -0.437500 0.500000 0.500000
v -0.375000 0.062500 -0.500000
v -0.375000 0.000000 -0.500000
v -0.375000 0.000000 -0.437500
v -0.375000 0.125000 -0.500000
v -0.375000 0.187500 -0.500000
v -0.375000 0.250000 -0.500000
v -0.375000 0.312500 -0.500000
v -0.375000 0.375000 -0.500000
v -0.375000 0.437500 -0.500000
v -0.375000 0.437500 -0.437500
v -0.375000 0.375000 -0.437500
v -0.375000 0.500000 -0.500000
v -0.375000 0.500000 -0.437500
v -0.375000 0.000000 -0.375000
v -0.375000 0.500000 -0.375000
v -0.375000 0.000000 -0.312500
v -0.375000 0.500000 -0.312500
v -0.375000 0.000000 -0.250000
v -0.375000 0.500000 -0.250000
v -0.375000 0.000000 -0.187500
v -0.375000 0.500000 -0.187500
v -0.375000 0.000000 -0.125000
v -0.375000 0.500000 -0.125000
v -0.375000 0.000000 -0.062500
v -0.375000 0.500000 -0.062500
v -0.375000 0.000000 0.000000
v -0.375000 0.500000 0.000000
v -0.375000 0.000000 0.062500
v -0.375000 0.500000 0.062500
v -0.375000 0.000000 0.125000
v -0.375000 0.500000 0.125000
v -0.375000 0.000000 0.187500
v -0.375000 0.500000 0.187500
v -0.375000 0.000000 0.250000
v -0.375000 0.500000 0.250000
v -0.375000 0.000000 0.312500
v -0.375000 0.500000 0.312500
v -0.375000 0.000000 0.375000
v -0.375000 0.500000 0.375000
v -0.375000 0.000000 0.437500
v -0.375000 0.500000 0.437500
v -0.375000 0.000000 0.500000
v -0.375000 0.062500 0.500000
v -0.375000 0.125000 0.500000
v -0.375000 0.187500 0.500000
v -0.375000 0.250000 0.500000
v -0.375000 0.312500 0.500000
v -0.375000 0.375000 0.500000
v -0.375000 0.437500 0.500000
v -0.375000 0.500000 0.500000
v -0.312500 0.062500 -0.500000
v -0.312500 0.000000 -0.500000
v -0.312500 0.000000 -0.437500
v -0.312500 0.125000 -0.500000
v -0.312500 0.187500 -0.500000
v -0.312500 0.250000 -0.500000
v -0.312500 0.312500 -0.500000
v -0.312500 0.375000 -0.500000
v -0.312500 0.375000 -0.437500
v -0.312500 0.000000 -0.375000
v -0.312500 0.437500 -0.437500
v -0.312500 0.500000 -0.437500
v -0.312500 0.500000 -0.375000
v -0.312500 0.000000 -0.312500
v -0.312500 0.500000 -0.312500
v -0.312500 0.000000 -0.250000
v -0.312500 0.500000 -0.250000
v -0.312500 0.000000 -0.187500
v -0.312500 0.500000 -0.187500
v -0.312500 0.000000 -0.125000
v -0.312500 0.500000 -0.125000
v -0.312500 0.000000 -0.062500
v -0.312500 0.500000 -0.062500
v -0.312500 0.000000 0.000000
v -0.312500 0.500000 0.000000
v -0.312500 0.000000 0.062500
v -0.312500 0.500000 0.062500
v -0.312500 0.000000 0.125000
v -0.312500 0.500000 0.125000
v -0.312500 0.000000 0.187500
v -0.312500 0.500000 0.187500
v -0.312500 0.000000 0.250000
v -0.312500 0.500000 0.250000
v -0.312500 0.000000 0.312500
v -0.312500 0.500000 0.312500
v -0.312500 0.000000 0.375000
v -0.312500 0.500000 0.375000
v -0.312500 0.000000 0.437500
v -0.312500 0.500000 0.437500
v -0.312500 0.000000 0.500000
v -0.312500 0.062500 0.500000
v -0.312500 0.125000 0.500000
v -0.312500 0.187500 0.500000
v -0.312500 0.250000 0.500000
v -0.312500 0.312500 0.500000
v -0.312500 0.375000 0.500000
v -0.312500 0.437500 0.500000
v -0.312500 0.500000 0.500000
v -0.250000 0.062500 -0.500000
v -0.250000 0.000000 -0.500000
v -0.250000 0.000000 -0.437500
v -0.250000 0.125000 -0.500000
v -0.250000 0.187500 -0.500000
v -0.250000 0.250000 -0.500000
v -0.250000 0.312500 -0.500000
v -0.250000 0.375000 -0.500000
v -0.250000 0.375000 -0.437500
v -0.250000 0.000000 -0.375000
v -0.250000 0.437500 -0.437500
v -0.250000 0.500000 -0.437500
v -0.250000 0.500000 -0.375000
v -0.250000 0.000000 -0.312500
v -0.250000 0.500000 -0.312500
v -0.250000 0.000000 -0.250000
v -0.250000 0.500000 -0.250000
v -0.250000 0.000000 -0.187500
v -0.250000 0.500000 -0.187500
v -0.250000 0.000000 -0.125000
v -0.250000 0.500000 -0.125000
v -0.250000 0.000000 -0.062500
v -0.250000 0.500000 -0.062500
v -0.250000 0.000000 0.000000
v -0.250000 0.500000 0.000000
v -0.250000 0.000000 0.062500
v -0.250000 0.500000 0.062500
v -0.250000 0.000000 0.125000
v -0.250000 0.500000 0.125000
v -0.250000 0.000000 0.187500
v -0.250000 0.500000 0.187500
v -0.250000 0.000000 0.250000
v -0.250000 0.500000 0.250000
v -0.250000 0.000000 0.312500
v -0.250000 0.500000 0.312500
v -0.250000 0.000000 0.375000
v -0.250000 0.500000 0.375000
v -0.250000 0.000000 0.437500
v -0.250000 0.500000 0.437500
v -0.250000 0.000000 0.500000
v -0.250000 0.062500 0.500000
v -0.250000 0.125000 0.500000
v -0.250000 0.187500 0.500000
v -0.250000 0.250000 0.500000
v -0.250000 0.312500 0.500000
v -0.250000 0.375000 0.500000
v -0.250000 0.437500 0.500000
v -0.250000 0.500000 0.500000
v -0.187500 0.062500 -0.500000
v -0.187500 0.000000 -0.500000
v -0.187500 0.000000 -0.437500
v -0.187500 0.125000 -0.500000
v -0.187500 0.187500 -0.500000
v -0.187500 0.250000 -0.500000
v -0.187500 0.312500 -0.500000
v -0.187500 0.375000 -0.500000
v -0.187500 0.375000 -0.437500
v -0.187500 0.000000 -0.375000
v -0.187500 0.437500 -0.437500
v -0.187500 0.500000 -0.437500
v -0.187500 0.500000 -0.375000
v -0.187500 0.000000 -0.312500
v -0.187500 0.500000 -0.312500
v -0.187500 0.000000 -0.250000
v -0.187500 0.500000 -0.250000
v -0.187500 0.000000 -0.187500
v -0.187500 0.500000 -0.187500
v -0.187500 0.000000 -0.125000
v -0.187500 0.500000 -0.125000
v -0.187500 0.000000 -0.062500
v -0.187500 0.500000 -0.062500
v -0.187500 0.000000 0.000000
v -0.187500 0.500000 0.000000
v -0.187500 0.000000 0.062500
v -0.187500 0.500000 0.062500
v -0.187500 0.000000 0.125000
v -0.187500 0.500000 0.125000
v -0.187500 0.000000 0.187500
v -0.187500 0.500000 0.187500
v -0.187500 0.000000 0.250000
v -0.187500 0.500000 0.250000
v -0.187500 0.000000 0.312500
v -0.187500 0.500000 0.312500
v -0.187500 0.000000 0.375000
v -0.187500 0.500000 0.375000
v -0.187500 0.000000 0.437500
v -0.187500 0.500000 0.437500
v -0.187500 0.000000 0.500000
v -0.187500 0.062500 0.500000
v -0.187500 0.125000 0.500000
v -0.187500 0.187500 0.500000
v -0.187500 0.250000 0.500000
v -0.187500 0.312500 0.500000
v -0.187500 0.375000 0.500000
v -0.187500 0.437500 0.500000
v -0.187500 0.500000 0.500000
v -0.125000 0.062500 -0.500000
v -0.125000 0.000000 -0.500000
v -0.125000 0.000000 -0.437500
v -0.125000 0.125000 -0.500000
v -0.125000 0.187500 -0.500000
v -0.125000 0.250000 -0.500000
v -0.125000 0.312500 -0.500000
v -0.125000 0.375000 -0.500000
v -0.187500 0.437500 -0.500000
v -0.125000 0.437500 -0.500000
v -0.187500 0.500000 -0.500000
v -0.125000 0.500000 -0.500000
v -0.125000 0.500000 -0.437500
v -0.125000 0.000000 -0.375000
v -0.125000 0.500000 -0.375000
v -0.125000 0.000000 -0.312500
v -0.125000 0.500000 -0.312500
v -0.125000 0.000000 -0.250000
v -0.125000 0.500000 -0.250000
v -0.125000 0.000000 -0.187500
v -0.125000 0.500000 -0.187500
v -0.125000 0.000000 -0.125000
v -0.125000 0.500000 -0.125000
v -0.125000 0.000000 -0.062500
v -0.125000 0.500000 -0.062500
v -0.125000 0.000000 0.000000
v -0.125000 0.500000 0.000000
v -0.125000 0.000000 0.062500
v -0.125000 0.500000 0.062500
v -0.125000 0.000000 0.125000
v -0.125000 0.500000 0.125000
v -0.125000 0.000000 0.187500
v -0.125000 0.500000 0.187500
v -0.125000 0.000000 0.250000
v -0.125000 0.500000 0.250000
v -0.125000 0.000000 0.312500
v -0.125000 0.500000 0.312500
v -0.125000 0.000000 0.375000
v -0.125000 0.500000 0.375000
v -0.125000 0.000000 0.437500
v -0.125000 0.500000 0.437500
v -0.125000 0.000000 0.500000
v -0.125000 0.062500 0.500000
v -0.125000 0.125000 0.500000
v -0.125000 0.187500 0.500000
v -0.125000 0.250000 0.500000
v -0.125000 0.312500 0.500000
v -0.125000 0.375000 0.500000
v -0.125000 0.437500 0.500000
v -0.125000 0.500000 0.500000
v -0.062500 0.062500 -0.500000
v -0.062500 0.000000 -0.500000
v -0.062500 0.000000 -0.437500
v -0.062500 0.125000 -0.500000
v -0.062500 0.187500 -0.500000
v -0.062500 0.250000 -0.500000
v -0.062500 0.312500 -0.500000
v -0.062500 0.375000 -0.500000
v -0.062500 0.437500 -0.500000
v -0.062500 0.500000 -0.500000
v -0.062500 0.500000 -0.437500
v -0.062500 0.000000 -0.375000
v -0.062500 0.500000 -0.375000
v -0.062500 0.000000 -0.312500
v -0.062500 0.500000 -0.312500
v -0.062500 0.000000 -0.250000
v -0.062500 0.500000 -0.250000
v -0.062500 0.000000 -0.187500
v -0.062500 0.500000 -0.187500
v -0.062500 0.000000 -0.125000
v -0.062500 0.500000 -0.125000
v -0.062500 0.000000 -0.062500
v -0.062500 0.500000 -0.062500
v -0.062500 0.000000 0.000000
v -0.062500 0.500000 0.000000
v -0.062500 0.000000 0.062500
v -0.062500 0.500000 0.062500
v -0.062500 0.000000 0.125000
v -0.062500 0.500000 0.125000
v -0.062500 0.000000 0.187500
v -0.062500 0.500000 0.187500
v -0.062500 0.000000 0.250000
v -0.062500 0.500000 0.250000
v -0.062500 0.000000 0.312500
v -0.062500 0.500000 0.312500
v -0.062500 0.000000 0.375000
v -0.062500 0.500000 0.375000
v -0.062500 0.000000 0.437500
v -0.062500 0.500000 0.437500
v -0.062500 0.000000 0.500000
v -0.062500 0.062500 0.500000
v -0.062500 0.125000 0.500000
v -0.062500 0.187500 0.500000
v -0.062500 0.250000 0.500000
v -0.062500 0.312500 0.500000
v -0.062500 0.375000 0.500000
v -0.062500 0.437500 0.500000
v -0.062500 0.500000 0.500000
v 0.000000 0.062500 -0.500000
v 0.000000 0.000000 -0.500000
v 0.000000 0.000000 -0.437500
v 0.000000 0.125000 -0.500000
v 0.000000 0.187500 -0.500000
v 0.000000 0.250000 -0.500000
v 0.000000 0.312500 -0.500000
v 0.000000 0.375000 -0.500000
v 0.000000 0.437500 -0.500000
v 0.000000 0.500000 -0.500000
v 0.000000 0.500000 -0.437500
v 0.000000 0.000000 -0.375000
v 0.000000 0.500000 -0.375000
v 0.000000 0.000000 -0.312500
v 0.000000 0.500000 -0.312500
v 0.000000 0.000000 -0.250000
v 0.000000 0.500000 -0.250000
v 0.000000 0.000000 -0.187500
v 0.000000 0.500000 -0.187500
v 0.000000 0.000000 -0.125000
v 0.000000 0.500000 -0.125000
v 0.000000 0.000000 -0.062500
v 0.000000 0.500000 -0.062500
v 0.000000 0.000000 0.000000
v 0.000000 0.500000 0.000000
v 0.000000 0.000000 0.062500
v 0.000000 0.500000 0.062500
v 0.000000 0.000000 0.125000
v 0.000000 0.500000 0.125000
v 0.000000 0.000000 0.187500
v 0.000000 0.500000 0.187500
v 0.000000 0.000000 0.250000
v 0.000000 0.500000 0.250000
v 0.000000 0.000000 0.312500
v 0.000000 0.500000 0.312500
v 0.000000 0.000000 0.375000
v 0.000000 0.500000 0.375000
v 0.000000 0.000000 0.437500
v 0.000000 0.500000 0.437500
v 0.000000 0.000000 0.500000
v 0.000000 0.062500 0.500000
v 0.000000 0.125000 0.500000
v 0.000000 0.187500 0.500000
v 0.000000 0.250000 0.500000
v 0.000000 0.312500 0.500000
v 0.000000 0.375000 0.500000
v 0.000000 0.437500 0.500000
v 0.000000 0.500000 0.500000
v 0.062500 0.062500 -0.500000
v 0.062500 0.000000 -0.500000
v 0.062500 0.000000 -0.437500
v 0.062500 0.125000 -0.500000
v 0.062500 0.187500 -0.500000
v 0.062500 0.250000 -0.500000
v 0.062500 0.312500 -0.500000
v 0.062500 0.375000 -0.500000
v 0.062500 0.437500 -0.500000
v 0.062500 0.500000 -0.500000
v 0.062500 0.500000 -0.437500
v 0.062500 0.000000 -0.375000
v 0.062500 0.500000 -0.375000
v 0.062500 0.000000 -0.312500
v 0.062500 0.500000 -0.312500
v 0.062500 0.000000 -0.250000
v 0.062500 0.500000 -0.250000
v 0.062500 0.000000 -0.187500
v 0.062500 0.500000 -0.187500
v 0.062500 0.000000 -0.125000
v 0.062500 0.500000 -0.125000
v 0.062500 0.000000 -0.062500
v 0.062500 0.500000 -0.062500
v 0.062500 0.000000 0.000000
v 0.062500 0.500000 0.000000
v 0.062500 0.000000 0.062500
v 0.062500 0.500000 0.062500
v 0.062500 0.000000 0.125000
v 0.062500 0.500000 0.125000
v 0.062500 0.000000 0.187500
v 0.062500 0.500000 0.187500
v 0.062500 0.000000 0.250000
v 0.062500 0.500000 0.250000
v 0.062500 0.000000 0.312500
v 0.062500 0.500000 0.312500
v 0.062500 0.000000 0.375000
v 0.062500 0.500000 0.375000
v 0.062500 0.000000 0.437500
v 0.062500 0.500000 0.437500
v 0.062500 0.000000 0.500000
v 0.062500 0.062500 0.500000
v 0.062500 0.125000 0.500000
v 0.062500 0.187500 0.500000
v 0.062500 0.250000 0.500000
v 0.062500 0.312500 0.500000
v 0.062500 0.375000 0.500000
v 0.062500 0.437500 0.500000
v 0.062500 0.500000 0.500000
v 0.125000 0.062500 -0.500000
v 0.125000 0.000000 -0.500000
v 0.125000 0.000000 -0.437500
v 0.125000 0.125000 -0.500000
v 0.125000 0.187500 -0.500000
v 0.125000 0.250000 -0.500000
v 0.125000 0.312500 -0.500000
v 0.125000 0.375000 -0.500000
v 0.125000 0.437500 -0.500000
v 0.125000 0.500000 -0.500000
v 0.125000 0.500000 -0.437500
v 0.125000 0.000000 -0.375000
v 0.125000 0.500000 -0.375000
v 0.125000 0.000000 -0.312500
v 0.125000 0.500000 -0.312500
v 0.125000 0.000000 -0.250000
v 0.125000 0.500000 -0.250000
v 0.125000 0.000000 -0.187500
v 0.125000 0.500000 -0.187500
v 0.125000 0.000000 -0.125000
v 0.125000 0.500000 -0.125000
v 0.125000 0.000000 -0.062500
v 0.125000 0.500000 -0.062500
v 0.125000 0.000000 0.000000
v 0.125000 0.500000 0.000000
v 0.125000 0.000000 0.062500
v 0.125000 0.500000 0.062500
v 0.125000 0.000000 0.125000
v 0.125000 0.500000 0.125000
v 0.125000 0.000000 0.187500
v 0.125000 0.500000 0.187500
v 0.125000 0.000000 0.250000
v 0.125000 0.500000 0.250000
v 0.125000 0.000000 0.312500
v 0.125000 0.500000 0.312500
v 0.125000 0.000000 0.375000
v 0.125000 0.500000 0.375000
v 0.125000 0.000000 0.437500
v 0.125000 0.500000 0.437500
v 0.125000 0.000000 0.500000
v 0.125000 0.062500 0.500000
v 0.125000 0.125000 0.500000
v 0.125000 0.187500 0.500000
v 0.125000 0.250000 0.500000
v 0.125000 0.312500 0.500000
v 0.125000 0.375000 0.500000
v 0.125000 0.437500 0.500000
v 0.125000 0.500000 0.500000
v 0.187500 0.062500 -0.500000
v 0.187500 0.000000 -0.500000
v 0.187500 0.000000 -0.437500
v 0.187500 0.125000 -0.500000
v 0.187500 0.187500 -0.500000
v 0.187500 0.250000 -0.500000
v 0.187500 0.312500 -0.500000
v 0.187500 0.375000 -0.500000
v 0.187500 0.437500 -0.500000
v 0.187500 0.500000 -0.500000
v 0.187500 0.500000 -0.437500
v 0.187500 0.000000 -0.375000
v 0.187500 0.500000 -0.375000
v 0.187500 0.000000 -0.312500
v 0.187500 0.500000 -0.312500
v 0.187500 0.000000 -0.250000
v 0.187500 0.500000 -0.250000
v 0.187500 0.000000 -0.187500
v 0.187500 0.500000 -0.187500
v 0.187500 0.000000 -0.125000
v 0.187500 0.500000 -0.125000
v 0.187500 0.000000 -0.062500
v 0.187500 0.500000 -0.062500
v 0.187500 0.000000 0.000000
v 0.187500 0.500000 0.000000
v 0.187500 0.000000 0.062500
v 0.187500 0.500000 0.062500
v 0.187500 0.000000 0.125000
v 0.187500 0.500000 0.125000
v 0.187500 0.000000 0.187500
v 0.187500 0.500000 0.187500
v 0.187500 0.000000 0.250000
v 0.187500 0.500000 0.250000
v 0.187500 0.000000 0.312500
v 0.187500 0.500000 0.312500
v 0.187500 0.000000 0.375000
v 0.187500 0.500000 0.375000
v 0.187500 0.000000 0.437500
v 0.187500 0.500000 0.437500
v 0.187500 0.000000 0.500000
v 0.187500 0.062500 0.500000
v 0.187500 0.125000 0.500000
v 0.187500 0.187500 0.500000
v 0.187500 0.250000 0.500000
v 0.187500 0.312500 0.500000
v 0.187500 0.375000 0.500000
v 0.187500 0.437500 0.500000
v 0.187500 0.500000 0.500000
v 0.250000 0.062500 -0.500000
v 0.250000 0.000000 -0.500000
v 0.250000 0.000000 -0.437500
v 0.250000 0.125000 -0.500000
v 0.250000 0.187500 -0.500000
v 0.250000 0.250000 -0.500000
v 0.250000 0.312500 -0.500000
v 0.250000 0.375000 -0.500000
v 0.250000 0.437500 -0.500000
v 0.250000 0.500000 -0.500000
v 0.250000 0.500000 -0.437500
v 0.250000 0.000000 -0.375000
v 0.250000 0.500000 -0.375000
v 0.250000 0.000000 -0.312500
v 0.250000 0.500000 -0.312500
v 0.250000 0.000000 -0.250000
v 0.250000 0.500000 -0.250000
v 0.250000 0.000000 -0.187500
v 0.250000 0.500000 -0.187500
v 0.250000 0.000000 -0.125000
v 0.250000 0.500000 -0.125000
v 0.250000 0.000000 -0.062500
v 0.250000 0.500000 -0.062500
v 0.250000 0.000000 0.000000
v 0.250000 0.500000 0.000000
v 0.250000 0.000000 0.062500
v 0.250000 0.500000 0.062500
v 0.250000 0.000000 0.125000
v 0.250000 0.500000 0.125000
v 0.250000 0.000000 0.187500
v 0.250000 0.500000 0.187500
v 0.250000 0.000000 0.250000
v 0.250000 0.500000 0.250000
v 0.250000 0.000000 0.312500
v 0.250000 0.500000 0.312500
v 0.250000 0.000000 0.375000
v 0.250000 0.500000 0.375000
v 0.250000 0.000000 0.437500
v 0.250000 0.500000 0.437500
v 0.250000 0.000000 0.500000
v 0.250000 0.062500 0.500000
v 0.250000 0.125000 0.500000
v 0.250000 0.187500 0.500000
v 0.250000 0.250000 0.500000
v 0.250000 0.312500 0.500000
v 0.250000 0.375000 0.500000
v 0.250000 0.437500 0.500000
v 0.250000 0.500000 0.500000
v 0.312500 0.062500 -0.500000
v 0.312500 0.000000 -0.500000
v 0.312500 0.000000 -0.437500
v 0.312500 0.125000 -0.500000
v 0.312500 0.187500 -0.500000
v 0.312500 0.250000 -0.500000
v 0.312500 0.312500 -0.500000
v 0.312500 0.375000 -0.500000
v 0.312500 0.437500 -0.500000
v 0.312500 0.500000 -0.500000
v 0.312500 0.500000 -0.437500
v 0.312500 0.000000 -0.375000
v 0.312500 0.500000 -0.375000
v 0.312500 0.000000 -0.312500
v 0.312500 0.500000 -0.312500
v 0.312500 0.000000 -0.250000
v 0.312500 0.500000 -0.250000
v 0.312500 0.000000 -0.187500
v 0.312500 0.500000 -0.187500
v 0.312500 0.000000 -0.125000
v 0.312500 0.500000 -0.125000
v 0.312500 0.000000 -0.062500
v 0.312500 0.500000 -0.062500
v 0.312500 0.000000 0.000000
v 0.312500 0.500000 0.000000
v 0.312500 0.000000 0.062500
v 0.312500 0.500000 0.062500
v 0.312500 0.000000 0.125000
v 0.312500 0.500000 0.125000
v 0.312500 0.000000 0.187500
v 0.312500 0.500000 0.187500
v 0.312500 0.000000 0.250000
v 0.312500 0.500000 0.250000
v 0.312500 0.000000 0.312500
v 0.312500 0.500000 0.312500
v 0.312500 0.000000 0.375000
v 0.312500 0.500000 0.375000
v 0.312500 0.000000 0.437500
v 0.312500 0.500000 0.437500
v 0.312500 0.000000 0.500000
v 0.312500 0.062500 0.500000
v 0.312500 0.125000 0.500000
v 0.312500 0.187500 0.500000
v 0.312500 0.250000 0.500000
v 0.312500 0.312500 0.500000
v 0.312500 0.375000 0.500000
v 0.312500 0.437500 0.500000
v 0.312500 0.500000 0.500000
v 0.375000 0.062500 -0.500000
v 0.375000 0.000000 -0.500000
v 0.375000 0.000000 -0.437500
v 0.375000 0.125000 -0.500000
v 0.375000 0.187500 -0.500000
v 0.375000 0.250000 -0.500000
v 0.375000 0.312500 -0.500000
v 0.375000 0.375000 -0.500000
v 0.375000 0.437500 -0.500000
v 0.375000 0.500000 -0.500000
v 0.375000 0.500000 -0.437500
v 0.375000 0.000000 -0.375000
v 0.375000 0.500000 -0.375000
v 0.375000 0.000000 -0.312500
v 0.375000 0.500000 -0.312500
v 0.375000 0.000000 -0.250000
v 0.375000 0.500000 -0.250000
v 0.375000 0.000000 -0.187500
v 0.375000 0.500000 -0.187500
v 0.375000 0.000000 -0.125000
v 0.375000 0.500000 -0.125000
v 0.375000 0.000000 -0.062500
v 0.375000 0.500000 -0.062500
v 0.375000 0.000000 0.000000
v 0.375000 0.500000 0.000000
v 0.375000 0.000000 0.062500
v 0.375000 0.500000 0.062500
v 0.375000 0.000000 0.125000
v 0.375000 0.500000 0.125000
v 0.375000 0.000000 0.187500
v 0.375000 0.500000 0.187500
v 0.375000 0.000000 0.250000
v 0.375000 0.500000 0.250000
v 0.375000 0.000000 0.312500
v 0.375000 0.500000 0.312500
v 0.375000 0.000000 0.375000
v 0.375000 0.500000 0.375000
v 0.375000 0.000000 0.437500
v 0.375000 0.500000 0.437500
v 0.375000 0.000000 0.500000
v 0.375000 0.062500 0.500000
v 0.375000 0.125000 0.500000
v 0.375000 0.187500 0.500000
v 0.375000 0.250000 0.500000
v 0.375000 0.312500 0.500000
v 0.375000 0.375000 0.500000
v 0.375000 0.437500 0.500000
v 0.375000 0.500000 0.500000
v 0.437500 0.062500 -0.500000
v 0.437500 0.000000 -0.500000
v 0.437500 0.000000 -0.437500
v 0.437500 0.125000 -0.500000
v 0.437500 0.187500 -0.500000
v 0.437500 0.250000 -0.500000
v 0.437500 0.312500 -0.500000
v 0.437500 0.375000 -0.500000
v 0.437500 0.437500 -0.500000
v 0.437500 0.500000 -0.500000
v 0.437500 0.500000 -0.437500
v 0.437500 0.000000 -0.375000
v 0.437500 0.500000 -0.375000
v 0.437500 0.000000 -0.312500
v 0.437500 0.500000 -0.312500
v 0.437500 0.000000 -0.250000
v 0.437500 0.500000 -0.250000
v 0.437500 0.000000 -0.187500
v 0.437500 0.500000 -0.187500
v 0.437500 0.000000 -0.125000
v 0.437500 0.500000 -0.125000
v 0.437500 0.000000 -0.062500
v 0.437500 0.500000 -0.062500
v 0.437500 0.000000 0.000000
v 0.437500 0.500000 0.000000
v 0.437500 0.000000 0.062500
v 0.437500 0.500000 0.062500
v 0.437500 0.000000 0.125000
v 0.437500 0.500000 0.125000
v 0.437500 0.000000 0.187500
v 0.437500 0.500000 0.187500
v 0.437500 0.000000 0.250000
v 0.437500 0.500000 0.250000
v 0.437500 0.000000 0.312500
v 0.437500 0.500000 0.312500
v 0.437500 0.000000 0.375000
v 0.437500 0.500000 0.375000
v 0.437500 0.000000 0.437500
v 0.437500 0.500000 0.437500
v 0.437500 0.000000 0.500000
v 0.437500 0.062500 0.500000
v 0.437500 0.125000 0.500000
v 0.437500 0.187500 0.500000
v 0.437500 0.250000 0.500000
v 0.437500 0.312500 0.500000
v 0.437500 0.375000 0.500000
v 0.437500 0.437500 0.500000
v 0.437500 0.500000 0.500000
v 0.500000 0.062500 -0.500000
v 0.500000 0.062500 -0.437500
v 0.500000 0.000000 -0.437500
v 0.500000 0.000000 -0.500000
v 0.500000 0.125000 -0.500000
v 0.500000 0.125000 -0.437500
v 0.500000 0.187500 -0.500000
v 0.500000 0.187500 -0.437500
v 0.500000 0.250000 -0.500000
v 0.500000 0.250000 -0.437500
v 0.500000 0.312500 -0.500000
v 0.500000 0.312500 -0.437500
v 0.500000 0.375000 -0.500000
v 0.500000 0.375000 -0.437500
v 0.500000 0.437500 -0.500000
v 0.500000 0.437500 -0.437500
v 0.500000 0.500000 -0.500000
v 0.500000 0.500000 -0.437500
v 0.500000 0.062500 -0.375000
v 0.500000 0.000000 -0.375000
v 0.500000 0.125000 -0.375000
v 0.500000 0.187500 -0.375000
v 0.500000 0.250000 -0.375000
v 0.500000 0.312500 -0.375000
v 0.500000 0.375000 -0.375000
v 0.500000 0.437500 -0.375000
v 0.500000 0.500000 -0.375000
v 0.500000 0.062500 -0.312500
v 0.500000 0.000000 -0.312500
v 0.500000 0.125000 -0.312500
v 0.500000 0.187500 -0.312500
v 0.500000 0.250000 -0.312500
v 0.500000 0.312500 -0.312500
v 0.500000 0.375000 -0.312500
v 0.500000 0.437500 -0.312500
v 0.500000 0.500000 -0.312500
v 0.500000 0.062500 -0.250000
v 0.500000 0.000000 -0.250000
v 0.500000 0.125000 -0.250000
v 0.500000 0.187500 -0.250000
v 0.500000 0.250000 -0.250000
v 0.500000 0.312500 -0.250000
v 0.500000 0.375000 -0.250000
v 0.500000 0.437500 -0.250000
v 0.500000 0.500000 -0.250000
v 0.500000 0.062500 -0.187500
v 0.500000 0.000000 -0.187500
v 0.500000 0.125000 -0.187500
v 0.500000 0.187500 -0.187500
v 0.500000 0.250000 -0.187500
v 0.500000 0.312500 -0.187500
v 0.500000 0.375000 -0.187500
v 0.500000 0.437500 -0.187500
v 0.500000 0.500000 -0.187500
v 0.500000 0.062500 -0.125000
v 0.500000 0.000000 -0.125000
v 0.500000 0.125000 -0.125000
v 0.500000 0.187500 -0.125000
v 0.500000 0.250000 -0.125000
v 0.500000 0.312500 -0.125000
v 0.500000 0.375000 -0.125000
v 0.500000 0.437500 -0.125000
v 0.500000 0.500000 -0.125000
v 0.500000 0.062500 -0.062500
v 0.500000 0.000000 -0.062500
v 0.500000 0.125000 -0.062500
v 0.500000 0.187500 -0.062500
v 0.500000 0.250000 -0.062500
v 0.500000 0.312500 -0.062500
v 0.500000 0.375000 -0.062500
v 0.500000 0.437500 -0.062500
v 0.500000 0.500000 -0.062500
v 0.500000 0.062500 0.000000
v 0.500000 0.000000 0.000000
v 0.500000 0.125000 0.000000
v 0.500000 0.187500 0.000000
v 0.500000 0.250000 0.000000
v 0.500000 0.312500 0.000000
v 0.500000 0.375000 0.000000
v 0.500000 0.437500 0.000000
v 0.500000 0.500000 0.000000
v 0.500000 0.062500 0.062500
v 0.500000 0.000000 0.062500
v 0.500000 0.125000 0.062500
v 0.500000 0.187500 0.062500
v 0.500000 0.250000 0.062500
v 0.500000 0.312500 0.062500
v 0.500000 0.375000 0.062500
v 0.500000 0.437500 0.062500
v 0.500000 0.500000 0.062500
v 0.500000 0.062500 0.125000
v 0.500000 0.000000 0.125000
v 0.500000 0.125000 0.125000
v 0.500000 0.187500 0.125000
v 0.500000 0.250000 0.125000
v 0.500000 0.312500 0.125000
v 0.500000 0.375000 0.125000
v 0.500000 0.437500 0.125000
v 0.500000 0.500000 0.125000
v 0.500000 0.062500 0.187500
v 0.500000 0.000000 0.187500
v 0.500000 0.125000 0.187500
v 0.500000 0.187500 0.187500
v 0.500000 0.250000 0.187500
v 0.500000 0.312500 0.187500
v 0.500000 0.375000 0.187500
v 0.500000 0.437500 0.187500
v 0.500000 0.500000 0.187500
v 0.500000 0.062500 0.250000
v 0.500000 0.000000 0.250000
v 0.500000 0.125000 0.250000
v 0.500000 0.187500 0.250000
v 0.500000 0.250000 0.250000
v 0.500000 0.312500 0.250000
v 0.500000 0.375000 0.250000
v 0.500000 0.437500 0.250000
v 0.500000 0.500000 0.250000
v 0.500000 0.062500 0.312500
v 0.500000 0.000000 0.312500
v 0.500000 0.125000 0.312500
v 0.500000 0.187500 0.312500
v 0.500000 0.250000 0.312500
v 0.500000 0.312500 0.312500
v 0.500000 0.375000 0.312500
v 0.500000 0.437500 0.312500
v 0.500000 0.500000 0.312500
v 0.500000 0.062500 0.375000
v 0.500000 0.000000 0.375000
v 0.500000 0.125000 0.375000
v 0.500000 0.187500 0.375000
v 0.500000 0.250000 0.375000
v 0.500000 0.312500 0.375000
v 0.500000 0.375000 0.375000
v 0.500000 0.437500 0.375000
v 0.500000 0.500000 0.375000
v 0.500000 0.062500 0.437500
v 0.500000 0.000000 0.437500
v 0.500000 0.125000 0.437500
v 0.500000 0.187500 0.437500
v 0.500000 0.250000 0.437500
v 0.500000 0.312500 0.437500
v 0.500000 0.375000 0.437500
v 0.500000 0.437500 0.437500
v 0.500000 0.500000 0.437500
v 0.500000 0.062500 0.500000
v 0.500000 0.000000 0.500000
v 0.500000 0.125000 0.500000
v 0.500000 0.187500 0.500000
v 0.500000 0.250000 0.500000
v 0.500000 0.312500 0.500000
v 0.500000 0.375000 0.500000
v 0.500000 0.437500 0.500000
v 0.500000 0.500000 0.500000
vt 0.03125000 0.96875000
vt 0.09375000 0.96875000
vt 0.15625000 0.96875000
vt 0.21875000 0.96875000
vt 0.28125000 0.96875000
vt 0.34375000 0.96875000
vt 0.40625000 0.96875000
vt 0.46875000 0.96875000
vt 0.53125000 0.96875000
vt 0.59375000 0.96875000
vt 0.65625000 0.96875000
vt 0.71875000 0.96875000
vt 0.78125000 0.96875000
vt 0.84375000 0.96875000
vt 0.90625000 0.96875000
vt 0.96875000 0.96875000
vt 0.03125000 0.90625000
vt 0.09375000 0.90625000
vt 0.15625000 0.90625000
vt 0.21875000 0.90625000
vt 0.28125000 0.90625000
vt 0.34375000 0.90625000
vt 0.40625000 0.90625000
vt 0.46875000 0.90625000
vt 0.53125000 0.90625000
vt 0.59375000 0.90625000
vt 0.65625000 0.90625000
vt 0.71875000 0.90625000
vt 0.78125000 0.90625000
vt 0.84375000 0.90625000
vt 0.90625000 0.90625000
vt 0.96875000 0.90625000
vt 0.03125000 0.84375000
vt 0.09375000 0.84375000
vt 0.15625000 0.84375000
vt 0.21875000 0.84375000
vt 0.28125000 0.84375000
vt 0.34375000 0.84375000
vt 0.40625000 0.84375000
vt 0.46875000 0.84375000
vt 0.53125000 0.84375000
vt 0.59375000 0.84375000
vt 0.65625000 0.84375000
vt 0.71875000 0.84375000
vt 0.78125000 0.84375000
vt 0.84375000 0.84375000
vt 0.90625000 0.84375000
vt 0.96875000 0.84375000
vt 0.03125000 0.78125000
vt 0.09375000 0.78125000
vt 0.15625000 0.78125000
vt 0.21875000 0.78125000
vt 0.28125000 0.78125000
vt 0.34375000 0.78125000
vt 0.40625000 0.78125000
vt 0.46875000 0.78125000
vt 0.53125000 0.78125000
vt 0.59375000 0.78125000
vt 0.65625000 0.78125000
vt 0.71875000 0.78125000
vt 0.78125000 0.78125000
vt 0.84375000 0.78125000
vt 0.90625000 0.78125000
vt 0.96875000 0.78125000
vt 0.03125000 0.71875000
vt 0.09375000 0.71875000
vt 0.15625000 0.71875000
vt 0.21875000 0.71875000
vt 0.28125000 0.71875000
vt 0.34375000 0.71875000
vt 0.40625000 0.71875000
vt 0.46875000 0.71875000
vt 0.53125000 0.71875000
vt 0.59375000 0.71875000
vt 0.65625000 0.71875000
vt 0.71875000 0.71875000
vt 0.78125000 0.71875000
vt 0.84375000 0.71875000
vt 0.90625000 0.71875000
vt 0.96875000 0.71875000
vt 0.03125000 0.65625000
vt 0.09375000 0.65625000
vt 0.15625000 0.65625000
vt 0.21875000 0.65625000
vt 0.28125000 0.65625000
vt 0.34375000 0.65625000
vt 0.40625000 0.65625000
vt 0.46875000 0.65625000
vt 0.53125000 0.65625000
vt 0.59375000 0.65625000
vt 0.65625000 0.65625000
vt 0.71875000 0.65625000
vt 0.78125000 0.65625000
vt 0.84375000 0.65625000
vt 0.90625000 0.65625000
vt 0.96875000 0.65625000
vt 0.03125000 0.59375000
vt 0.09375000 0.59375000
vt 0.15625000 0.59375000
vt 0.21875000 0.59375000
vt 0.28125000 0.59375000
vt 0.34375000 0.59375000
vt 0.40625000 0.59375000
vt 0.46875000 0.59375000
vt 0.53125000 0.59375000
vt 0.59375000 0.59375000
vt 0.65625000 0.59375000
vt 0.71875000 0.59375000
vt 0.78125000 0.59375000
vt 0.84375000 0.59375000
vt 0.90625000 0.59375000
vt 0.96875000 0.59375000
vt 0.03125000 0.53125000
vt 0.09375000 0.53125000
vt 0.15625000 0.53125000
vt 0.21875000 0.53125000
vt 0.28125000 0.53125000
vt 0.34375000 0.53125000
vt 0.40625000 0.53125000
vt 0.46875000 0.53125000
vt 0.53125000 0.53125000
vt 0.59375000 0.53125000
vt 0.65625000 0.53125000
vt 0.71875000 0.53125000
vt 0.78125000 0.53125000
vt 0.84375000 0.53125000
vt 0.90625000 0.53125000
vt 0.96875000 0.53125000
vt 0.03125000 0.46875000
vt 0.09375000 0.46875000
vt 0.15625000 0.46875000
vt 0.21875000 0.46875000
vt 0.28125000 0.46875000
vt 0.34375000 0.46875000
vt 0.40625000 0.46875000
vt 0.46875000 0.46875000
vt 0.53125000 0.46875000
vt 0.59375000 0.46875000
vt 0.65625000 0.46875000
vt 0.71875000 0.46875000
vt 0.78125000 0.46875000
vt 0.84375000 0.46875000
vt 0.90625000 0.46875000
vt 0.96875000 0.46875000
vt 0.03125000 0.40625000
vt 0.09375000 0.40625000
vt 0.15625000 0.40625000
vt 0.21875000 0.40625000
vt 0.28125000 0.40625000
vt 0.34375000 0.40625000
vt 0.40625000 0.40625000
vt 0.46875000 0.40625000
vt 0.53125000 0.40625000
vt 0.59375000 0.40625000
vt 0.65625000 0.40625000
vt 0.71875000 0.40625000
vt 0.78125000 0.40625000
vt 0.84375000 0.40625000
vt 0.90625000 0.40625000
vt 0.96875000 0.40625000
vt 0.03125000 0.34375000
vt 0.09375000 0.34375000
vt 0.15625000 0.34375000
vt 0.21875000 0.34375000
vt 0.28125000 0.34375000
vt 0.34375000 0.34375000
vt 0.40625000 0.34375000
vt 0.46875000 0.34375000
vt 0.53125000 0.34375000
vt 0.59375000 0.34375000
vt 0.65625000 0.34375000
vt 0.71875000 0.34375000
vt 0.78125000 0.34375000
vt 0.84375000 0.34375000
vt 0.90625000 0.34375000
vt 0.96875000 0.34375000
vt 0.03125000 0.28125000
vt 0.09375000 0.28125000
vt 0.15625000 0.28125000
vt 0.21875000 0.28125000
vt 0.28125000 0.28125000
vt 0.34375000 0.28125000
vt 0.40625000 0.28125000
vt 0.46875000 0.28125000
vt 0.53125000 0.28125000
vt 0.59375000 0.28125000
vt 0.65625000 0.28125000
vt 0.71875000 0.28125000
vt 0.78125000 0.28125000
vt 0.84375000 0.28125000
vt 0.90625000 0.28125000
vt 0.96875000 0.28125000
vt 0.03125000 0.21875000
vt 0.09375000 0.21875000
vt 0.15625000 0.21875000
vt 0.21875000 0.21875000
vt 0.28125000 0.21875000
vt 0.34375000 0.21875000
vt 0.40625000 0.21875000
vt 0.46875000 0.21875000
vt 0.53125000 0.21875000
vt 0.59375000 0.21875000
vt 0.65625000 0.21875000
vt 0.71875000 0.21875000
vt 0.78125000 0.21875000
vt 0.84375000 0.21875000
vt 0.90625000 0.21875000
vt 0.96875000 0.21875000
vt 0.03125000 0.15625000
vt 0.09375000 0.15625000
vt 0.15625000 0.15625000
vt 0.21875000 0.15625000
vt 0.28125000 0.15625000
vt 0.34375000 0.15625000
vt 0.40625000 0.15625000
vt 0.46875000 0.15625000
vt 0.53125000 0.15625000
vt 0.59375000 0.15625000
vt 0.65625000 0.15625000
vt 0.71875000 0.15625000
vt 0.78125000 0.15625000
vt 0.84375000 0.15625000
vt 0.90625000 0.15625000
vt 0.96875000 0.15625000
vt 0.03125000 0.09375000
vt 0.09375000 0.09375000
vt 0.15625000 0.09375000
vt 0.21875000 0.09375000
vt 0.28125000 0.09375000
vt 0.34375000 0.09375000
vt 0.40625000 0.09375000
vt 0.46875000 0.09375000
vt 0.53125000 0.09375000
vt 0.59375000 0.09375000
vt 0.65625000 0.09375000
vt 0.71875000 0.09375000
vt 0.78125000 0.09375000
vt 0.84375000 0.09375000
vt 0.90625000 0.09375000
vt 0.96875000 0.09375000
vt 0.03125000 0.03125000
vt 0.09375000 0.03125000
vt 0.15625000 0.03125000
vt 0.21875000 0.03125000
vt 0.28125000 0.03125000
vt 0.34375000 0.03125000
vt 0.40625000 0.03125000
vt 0.46875000 0.03125000
vt 0.53125000 0.03125000
vt 0.59375000 0.03125000
vt 0.65625000 0.03125000
vt 0.71875000 0.03125000
vt 0.78125000 0.03125000
vt 0.84375000 0.03125000
vt 0.90625000 0.03125000
vt 0.96875000 0.03125000
vn -1 0 0
vn 1 0 0
vn 0 0 -1
vn 0 0 1
vn 0 -1 0
vn 0 1 0
g palette
usemtl palette
f 1/4/1 2/4/1 3/4/1 4/4/1
f 3/4/3 5/4/3 6/4/3 4/4/3
f 6/4/5 7/4/5 1/4/5 4/4/5
f 2/4/1 8/4/1 9/4/1 3/4/1
f 9/4/3 10/4/3 5/4/3 3/4/3
f 8/4/1 11/4/1 12/4/1 9/4/1
f 12/4/3 13/4/3 10/4/3 9/4/3
f 11/4/1 14/4/1 15/4/1 12/4/1
f 15/4/3 16/4/3 13/4/3 12/4/3
f 14/4/1 17/4/1 18/4/1 15/4/1
f 18/4/3 19/4/3 16/4/3 15/4/3
f 17/4/1 20/4/1 21/4/1 18/4/1
f 21/4/3 22/4/3 19/4/3 18/4/3
f 20/4/1 23/4/1 24/4/1 21/4/1
f 24/4/3 25/4/3 22/4/3 21/4/3
f 23/11/1 26/11/1 27/11/1 24/11/1
f 27/11/3 28/11/3 25/11/3 24/11/3
f 26/11/6 29/11/6 28/11/6 27/11/6
f 30/4/1 31/4/1 2/4/1 1/4/1
f 7/4/5 32/4/5 30/4/5 1/4/5
f 31/4/1 33/4/1 8/4/1 2/4/1
f 33/4/1 34/4/1 11/4/1 8/4/1
f 34/4/1 35/4/1 14/4/1 11/4/1
f 35/4/1 36/4/1 17/4/1 14/4/1
f 36/4/1 37/4/1 20/4/1 17/4/1
f 37/4/1 38/4/1 23/4/1 20/4/1
f 38/11/1 39/11/1 26/11/1 23/11/1
f 39/11/6 40/11/6 29/11/6 26/11/6
f 41/4/1 42/4/1 31/4/1 30/4/1
f 32/4/5 43/4/5 41/4/5 30/4/5
f 42/4/1 44/4/1 33/4/1 31/4/1
f 44/4/1 45/4/1 34/4/1 33/4/1
f 45/4/1 46/4/1 35/4/1 34/4/1
f 46/4/1 47/4/1 36/4/1 35/4/1
f 47/4/1 48/4/1 37/4/1 36/4/1
f 48/4/1 49/4/1 38/4/1 37/4/1
f 49/5/1 50/5/1 39/5/1 38/5/1
f 50/5/6 51/5/6 40/5/6 39/5/6
f 52/4/1 53/4/1 42/4/1 41/4/1
f 43/4/5 54/4/5 52/4/5 41/4/5
f 53/4/1 55/4/1 44/4/1 42/4/1
f 55/4/1 56/4/1 45/4/1 44/4/1
f 56/4/1 57/4/1 46/4/1 45/4/1
f 57/4/1 58/4/1 47/4/1 46/4/1
f 58/4/1 59/4/1 48/4/1 47/4/1
f 59/4/1 60/4/1 49/4/1 48/4/1
f 60/5/1 61/5/1 50/5/1 49/5/1
f 61/5/6 62/5/6 51/5/6 50/5/6
f 63/4/1 64/4/1 53/4/1 52/4/1
f 54/4/5 65/4/5 63/4/5 52/4/5
f 64/4/1 66/4/1 55/4/1 53/4/1
f 66/4/1 67/4/1 56/4/1 55/4/1
f 67/4/1 68/4/1 57/4/1 56/4/1
f 68/4/1 69/4/1 58/4/1 57/4/1
f 69/4/1 70/4/1 59/4/1 58/4/1
f 70/4/1 71/4/1 60/4/1 59/4/1
f 71/5/1 72/5/1 61/5/1 60/5/1
f 72/5/6 73/5/6 62/5/6 61/5/6
f 74/4/1 75/4/1 64/4/1 63/4/1
f 65/4/5 76/4/5 74/4/5 63/4/5
f 75/4/1 77/4/1 66/4/1 64/4/1
f 77/4/1 78/4/1 67/4/1 66/4/1
f 78/4/1 79/4/1 68/4/1 67/4/1
f 79/4/1 80/4/1 69/4/1 68/4/1
f 80/4/1 81/4/1 70/4/1 69/4/1
f 81/4/1 82/4/1 71/4/1 70/4/1
f 82/5/1 83/5/1 72/5/1 71/5/1
f 83/5/6 84/5/6 73/5/6 72/5/6
f 85/4/1 86/4/1 75/4/1 74/4/1
f 76/4/5 87/4/5 85/4/5 74/4/5
f 86/4/1 88/4/1 77/4/1 75/4/1
f 88/4/1 89/4/1 78/4/1 77/4/1
f 89/4/1 90/4/1 79/4/1 78/4/1
f 90/4/1 91/4/1 80/4/1 79/4/1
f 91/4/1 92/4/1 81/4/1 80/4/1
f 92/4/1 93/4/1 82/4/1 81/4/1
f 93/5/1 94/5/1 83/5/1 82/5/1
f 94/5/6 95/5/6 84/5/6 83/5/6
f 96/4/1 97/4/1 86/4/1 85/4/1
f 87/4/5 98/4/5 96/4/5 85/4/5
f 97/4/1 99/4/1 88/4/1 86/4/1
f 99/4/1 100/4/1 89/4/1 88/4/1
f 100/4/1 101/4/1 90/4/1 89/4/1
f 101/4/1 102/4/1 91/4/1 90/4/1
f 102/4/1 103/4/1 92/4/1 91/4/1
f 103/4/1 104/4/1 93/4/1 92/4/1
f 104/5/1 105/5/1 94/5/1 93/5/1
f 105/5/6 106/5/6 95/5/6 94/5/6
f 107/4/1 108/4/1 97/4/1 96/4/1
f 98/4/5 109/4/5 107/4/5 96/4/5
f 108/4/1 110/4/1 99/4/1 97/4/1
f 110/4/1 111/4/1 100/4/1 99/4/1
f 111/4/1 112/4/1 101/4/1 100/4/1
f 112/4/1 113/4/1 102/4/1 101/4/1
f 113/4/1 114/4/1 103/4/1 102/4/1
f 114/4/1 115/4/1 104/4/1 103/4/1
f 115/5/1 116/5/1 105/5/1 104/5/1
f 116/5/6 117/5/6 106/5/6 105/5/6
f 118/4/1 119/4/1 108/4/1 107/4/1
f 109/4/5 120/4/5 118/4/5 107/4/5
f 119/4/1 121/4/1 110/4/1 108/4/1
f 121/4/1 122/4/1 111/4/1 110/4/1
f 122/4/1 123/4/1 112/4/1 111/4/1
f 123/4/1 124/4/1 113/4/1 112/4/1
f 124/4/1 125/4/1 114/4/1 113/4/1
f 125/4/1 126/4/1 115/4/1 114/4/1
f 126/5/1 127/5/1 116/5/1 115/5/1
f 127/5/6 128/5/6 117/5/6 116/5/6
f 129/4/1 130/4/1 119/4/1 118/4/1
f 120/4/5 131/4/5 129/4/5 118/4/5
f 130/4/1 132/4/1 121/4/1 119/4/1
f 132/4/1 133/4/1 122/4/1 121/4/1
f 133/4/1 134/4/1 123/4/1 122/4/1
f 134/4/1 135/4/1 124/4/1 123/4/1
f 135/4/1 136/4/1 125/4/1 124/4/1
f 136/4/1 137/4/1 126/4/1 125/4/1
f 137/5/1 138/5/1 127/5/1 126/5/1
f 138/5/6 139/5/6 128/5/6 127/5/6
f 140/4/1 141/4/1 130/4/1 129/4/1
f 131/4/5 142/4/5 140/4/5 129/4/5
f 141/4/1 143/4/1 132/4/1 130/4/1
f 143/4/1 144/4/1 133/4/1 132/4/1
f 144/5/1 145/5/1 134/5/1 133/5/1
f 145/4/1 146/4/1 135/4/1 134/4/1
f 146/4/1 147/4/1 136/4/1 135/4/1
f 147/4/1 148/4/1 137/4/1 136/4/1
f 148/5/1 149/5/1 138/5/1 137/5/1
f 149/5/6 150/5/6 139/5/6 138/5/6
f 151/4/1 152/4/1 141/4/1 140/4/1
f 142/4/5 153/4/5 151/4/5 140/4/5
f 152/4/1 154/4/1 143/4/1 141/4/1
f 154/4/1 155/4/1 144/4/1 143/4/1
f 155/4/1 156/4/1 145/4/1 144/4/1
f 156/4/1 157/4/1 146/4/1 145/4/1
f 157/4/1 158/4/1 147/4/1 146/4/1
f 158/4/1 159/4/1 148/4/1 147/4/1
f 159/5/1 160/5/1 149/5/1 148/5/1
f 160/5/6 161/5/6 150/5/6 149/5/6
f 162/4/1 163/4/1 152/4/1 151/4/1
f 153/4/5 164/4/5 162/4/5 151/4/5
f 163/4/1 165/4/1 154/4/1 152/4/1
f 165/4/1 166/4/1 155/4/1 154/4/1
f 166/4/1 167/4/1 156/4/1 155/4/1
f 167/4/1 168/4/1 157/4/1 156/4/1
f 168/4/1 169/4/1 158/4/1 157/4/1
f 169/4/1 170/4/1 159/4/1 158/4/1
f 170/5/1 171/5/1 160/5/1 159/5/1
f 171/5/6 172/5/6 161/5/6 160/5/6
f 173/4/1 174/4/1 163/4/1 162/4/1
f 164/4/5 175/4/5 173/4/5 162/4/5
f 174/4/1 176/4/1 165/4/1 163/4/1
f 176/4/1 177/4/1 166/4/1 165/4/1
f 177/4/1 178/4/1 167/4/1 166/4/1
f 178/4/1 179/4/1 168/4/1 167/4/1
f 179/4/1 180/4/1 169/4/1 168/4/1
f 180/4/1 181/4/1 170/4/1 169/4/1
f 181/5/1 182/5/1 171/5/1 170/5/1
f 182/5/6 183/5/6 172/5/6 171/5/6
f 184/4/1 185/4/1 174/4/1 173/4/1
f 186/4/4 187/4/4 185/4/4 184/4/4
f 175/4/5 186/4/5 184/4/5 173/4/5
f 185/4/1 188/4/1 176/4/1 174/4/1
f 187/4/4 189/4/4 188/4/4 185/4/4
f 188/4/1 190/4/1 177/4/1 176/4/1
f 189/4/4 191/4/4 190/4/4 188/4/4
f 190/4/1 192/4/1 178/4/1 177/4/1
f 191/4/4 193/4/4 192/4/4 190/4/4
f 192/4/1 194/4/1 179/4/1 178/4/1
f 193/4/4 195/4/4 194/4/4 192/4/4
f 194/4/1 196/4/1 180/4/1 179/4/1
f 195/4/4 197/4/4 196/4/4 194/4/4
f 196/4/1 198/4/1 181/4/1 180/4/1
f 197/4/4 199/4/4 198/4/4 196/4/4
f 198/5/1 200/5/1 182/5/1 181/5/1
f 199/5/4 201/5/4 200/5/4 198/5/4
f 200/5/6 201/5/6 183/5/6 182/5/6
f 5/4/3 202/4/3 203/4/3 6/4/3
f 203/4/5 204/4/5 7/4/5 6/4/5
f 10/4/3 205/4/3 202/4/3 5/4/3
f 13/4/3 206/4/3 205/4/3 10/4/3
f 16/4/3 207/4/3 206/4/3 13/4/3
f 19/4/3 208/4/3 207/4/3 16/4/3
f 22/4/3 209/4/3 208/4/3 19/4/3
f 210/4/2 211/4/2 212/4/2 209/4/2
f 25/4/3 210/4/3 209/4/3 22/4/3
f 213/11/2 214/11/2 211/11/2 210/11/2
f 28/11/3 213/11/3 210/11/3 25/11/3
f 29/11/6 214/11/6 213/11/6 28/11/6
f 204/4/5 215/4/5 32/4/5 7/4/5
f 40/11/6 216/11/6 214/11/6 29/11/6
f 215/4/5 217/4/5 43/4/5 32/4/5
f 51/5/6 218/5/6 216/5/6 40/5/6
f 217/4/5 219/4/5 54/4/5 43/4/5
f 62/5/6 220/5/6 218/5/6 51/5/6
f 219/4/5 221/4/5 65/4/5 54/4/5
f 73/5/6 222/5/6 220/5/6 62/5/6
f 221/4/5 223/4/5 76/4/5 65/4/5
f 84/5/6 224/5/6 222/5/6 73/5/6
f 223/4/5 225/4/5 87/4/5 76/4/5
f 95/5/6 226/5/6 224/5/6 84/5/6
f 225/5/5 227/5/5 98/5/5 87/5/5
f 106/5/6 228/5/6 226/5/6 95/5/6
f 227/4/5 229/4/5 109/4/5 98/4/5
f 117/5/6 230/5/6 228/5/6 106/5/6
f 229/4/5 231/4/5 120/4/5 109/4/5
f 128/5/6 232/5/6 230/5/6 117/5/6
f 231/5/5 233/5/5 131/5/5 120/5/5
f 139/5/6 234/5/6 232/5/6 128/5/6
f 233/4/5 235/4/5 142/4/5 131/4/5
f 150/5/6 236/5/6 234/5/6 139/5/6
f 235/4/5 237/4/5 153/4/5 142/4/5
f 161/5/6 238/5/6 236/5/6 150/5/6
f 237/4/5 239/4/5 164/4/5 153/4/5
f 172/5/6 240/5/6 238/5/6 161/5/6
f 239/4/5 241/4/5 175/4/5 164/4/5
f 183/5/6 242/5/6 240/5/6 172/5/6
f 243/4/4 244/4/4 187/4/4 186/4/4
f 241/4/5 243/4/5 186/4/5 175/4/5
f 244/4/4 245/4/4 189/4/4 187/4/4
f 245/4/4 246/4/4 191/4/4 189/4/4
f 246/4/4 247/4/4 193/4/4 191/4/4
f 247/4/4 248/4/4 195/4/4 193/4/4
f 248/4/4 249/4/4 197/4/4 195/4/4
f 249/4/4 250/4/4 199/4/4 197/4/4
f 250/5/4 251/5/4 201/5/4 199/5/4
f 201/5/6 251/5/6 242/5/6 183/5/6
f 202/4/3 252/4/3 253/4/3 203/4/3
f 253/4/5 254/4/5 204/4/5 203/4/5
f 205/4/3 255/4/3 252/4/3 202/4/3
f 206/4/3 256/4/3 255/4/3 205/4/3
f 207/4/3 257/4/3 256/4/3 206/4/3
f 208/4/3 258/4/3 257/4/3 207/4/3
f 209/4/3 259/4/3 258/4/3 208/4/3
f 212/4/6 260/4/6 259/4/6 209/4/6
f 254/4/5 261/4/5 215/4/5 204/4/5
f 211/4/3 262/4/3 260/4/3 212/4/3
f 214/11/3 263/11/3 262/11/3 211/11/3
f 216/11/6 264/11/6 263/11/6 214/11/6
f 261/4/5 265/4/5 217/4/5 215/4/5
f 218/5/6 266/5/6 264/5/6 216/5/6
f 265/4/5 267/4/5 219/4/5 217/4/5
f 220/5/6 268/5/6 266/5/6 218/5/6
f 267/4/5 269/4/5 221/4/5 219/4/5
f 222/5/6 270/5/6 268/5/6 220/5/6
f 269/4/5 271/4/5 223/4/5 221/4/5
f 224/5/6 272/5/6 270/5/6 222/5/6
f 271/4/5 273/4/5 225/4/5 223/4/5
f 226/5/6 274/5/6 272/5/6 224/5/6
f 273/4/5 275/4/5 227/4/5 225/4/5
f 228/5/6 276/5/6 274/5/6 226/5/6
f 275/4/5 277/4/5 229/4/5 227/4/5
f 230/5/6 278/5/6 276/5/6 228/5/6
f 277/4/5 279/4/5 231/4/5 229/4/5
f 232/5/6 280/5/6 278/5/6 230/5/6
f 279/4/5 281/4/5 233/4/5 231/4/5
f 234/5/6 282/5/6 280/5/6 232/5/6
f 281/4/5 283/4/5 235/4/5 233/4/5
f 236/5/6 284/5/6 282/5/6 234/5/6
f 283/4/5 285/4/5 237/4/5 235/4/5
f 238/5/6 286/5/6 284/5/6 236/5/6
f 285/4/5 287/4/5 239/4/5 237/4/5
f 240/5/6 288/5/6 286/5/6 238/5/6
f 287/4/5 289/4/5 241/4/5 239/4/5
f 242/5/6 290/5/6 288/5/6 240/5/6
f 291/4/4 292/4/4 244/4/4 243/4/4
f 289/4/5 291/4/5 243/4/5 241/4/5
f 292/4/4 293/4/4 245/4/4 244/4/4
f 293/4/4 294/4/4 246/4/4 245/4/4
f 294/4/4 295/4/4 247/4/4 246/4/4
f 295/4/4 296/4/4 248/4/4 247/4/4
f 296/4/4 297/4/4 249/4/4 248/4/4
f 297/4/4 298/4/4 250/4/4 249/4/4
f 298/5/4 299/5/4 251/5/4 250/5/4
f 251/5/6 299/5/6 290/5/6 242/5/6
f 252/4/3 300/4/3 301/4/3 253/4/3
f 301/4/5 302/4/5 254/4/5 253/4/5
f 255/4/3 303/4/3 300/4/3 252/4/3
f 256/4/3 304/4/3 303/4/3 255/4/3
f 257/4/3 305/4/3 304/4/3 256/4/3
f 258/4/3 306/4/3 305/4/3 257/4/3
f 259/4/3 307/4/3 306/4/3 258/4/3
f 260/4/6 308/4/6 307/4/6 259/4/6
f 302/4/5 309/4/5 261/4/5 254/4/5
f 262/4/3 310/4/3 308/4/3 260/4/3
f 263/11/3 311/11/3 310/11/3 262/11/3
f 264/11/6 312/11/6 311/11/6 263/11/6
f 309/4/5 313/4/5 265/4/5 261/4/5
f 266/5/6 314/5/6 312/5/6 264/5/6
f 313/4/5 315/4/5 267/4/5 265/4/5
f 268/5/6 316/5/6 314/5/6 266/5/6
f 315/4/5 317/4/5 269/4/5 267/4/5
f 270/5/6 318/5/6 316/5/6 268/5/6
f 317/4/5 319/4/5 271/4/5 269/4/5
f 272/5/6 320/5/6 318/5/6 270/5/6
f 319/4/5 321/4/5 273/4/5 271/4/5
f 274/5/6 322/5/6 320/5/6 272/5/6
f 321/4/5 323/4/5 275/4/5 273/4/5
f 276/5/6 324/5/6 322/5/6 274/5/6
f 323/4/5 325/4/5 277/4/5 275/4/5
f 278/5/6 326/5/6 324/5/6 276/5/6
f 325/4/5 327/4/5 279/4/5 277/4/5
f 280/5/6 328/5/6 326/5/6 278/5/6
f 327/4/5 329/4/5 281/4/5 279/4/5
f 282/5/6 330/5/6 328/5/6 280/5/6
f 329/4/5 331/4/5 283/4/5 281/4/5
f 284/5/6 332/5/6 330/5/6 282/5/6
f 331/4/5 333/4/5 285/4/5 283/4/5
f 286/5/6 334/5/6 332/5/6 284/5/6
f 333/4/5 335/4/5 287/4/5 285/4/5
f 288/5/6 336/5/6 334/5/6 286/5/6
f 335/4/5 337/4/5 289/4/5 287/4/5
f 290/5/6 338/5/6 336/5/6 288/5/6
f 339/4/4 340/4/4 292/4/4 291/4/4
f 337/4/5 339/4/5 291/4/5 289/4/5
f 340/4/4 341/4/4 293/4/4 292/4/4
f 341/4/4 342/4/4 294/4/4 293/4/4
f 342/4/4 343/4/4 295/4/4 294/4/4
f 343/4/4 344/4/4 296/4/4 295/4/4
f 344/4/4 345/4/4 297/4/4 296/4/4
f 345/4/4 346/4/4 298/4/4 297/4/4
f 346/5/4 347/5/4 299/5/4 298/5/4
f 299/5/6 347/5/6 338/5/6 290/5/6
f 300/5/3 348/5/3 349/5/3 301/5/3
f 349/5/5 350/5/5 302/5/5 301/5/5
f 303/4/3 351/4/3 348/4/3 300/4/3
f 304/4/3 352/4/3 351/4/3 303/4/3
f 305/4/3 353/4/3 352/4/3 304/4/3
f 306/4/3 354/4/3 353/4/3 305/4/3
f 307/4/3 355/4/3 354/4/3 306/4/3
f 308/4/6 356/4/6 355/4/6 307/4/6
f 350/4/5 357/4/5 309/4/5 302/4/5
f 310/4/3 358/4/3 356/4/3 308/4/3
f 311/11/3 359/11/3 358/11/3 310/11/3
f 312/11/6 360/11/6 359/11/6 311/11/6
f 357/4/5 361/4/5 313/4/5 309/4/5
f 314/5/6 362/5/6 360/5/6 312/5/6
f 361/4/5 363/4/5 315/4/5 313/4/5
f 316/5/6 364/5/6 362/5/6 314/5/6
f 363/4/5 365/4/5 317/4/5 315/4/5
f 318/5/6 366/5/6 364/5/6 316/5/6
f 365/4/5 367/4/5 319/4/5 317/4/5
f 320/5/6 368/5/6 366/5/6 318/5/6
f 367/4/5 369/4/5 321/4/5 319/4/5
f 322/5/6 370/5/6 368/5/6 320/5/6
f 369/4/5 371/4/5 323/4/5 321/4/5
f 324/11/6 372/11/6 370/11/6 322/11/6
f 371/4/5 373/4/5 325/4/5 323/4/5
f 326/5/6 374/5/6 372/5/6 324/5/6
f 373/4/5 375/4/5 327/4/5 325/4/5
f 328/5/6 376/5/6 374/5/6 326/5/6
f 375/4/5 377/4/5 329/4/5 327/4/5
f 330/5/6 378/5/6 376/5/6 328/5/6
f 377/4/5 379/4/5 331/4/5 329/4/5
f 332/5/6 380/5/6 378/5/6 330/5/6
f 379/4/5 381/4/5 333/4/5 331/4/5
f 334/5/6 382/5/6 380/5/6 332/5/6
f 381/4/5 383/4/5 335/4/5 333/4/5
f 336/5/6 384/5/6 382/5/6 334/5/6
f 383/4/5 385/4/5 337/4/5 335/4/5
f 338/5/6 386/5/6 384/5/6 336/5/6
f 387/4/4 388/4/4 340/4/4 339/4/4
f 385/4/5 387/4/5 339/4/5 337/4/5
f 388/4/4 389/4/4 341/4/4 340/4/4
f 389/4/4 390/4/4 342/4/4 341/4/4
f 390/4/4 391/4/4 343/4/4 342/4/4
f 391/4/4 392/4/4 344/4/4 343/4/4
f 392/4/4 393/4/4 345/4/4 344/4/4
f 393/4/4 394/4/4 346/4/4 345/4/4
f 394/5/4 395/5/4 347/5/4 346/5/4
f 347/5/6 395/5/6 386/5/6 338/5/6
f 348/4/3 396/4/3 397/4/3 349/4/3
f 397/4/5 398/4/5 350/4/5 349/4/5
f 351/4/3 399/4/3 396/4/3 348/4/3
f 352/4/3 400/4/3 399/4/3 351/4/3
f 353/4/3 401/4/3 400/4/3 352/4/3
f 354/4/3 402/4/3 401/4/3 353/4/3
f 355/4/3 403/4/3 402/4/3 354/4/3
f 356/4/1 358/4/1 404/4/1 355/4/1
f 404/4/3 405/4/3 403/4/3 355/4/3
f 358/11/1 359/11/1 406/11/1 404/11/1
f 406/11/3 407/11/3 405/11/3 404/11/3
f 359/11/6 408/11/6 407/11/6 406/11/6
f 398/4/5 409/4/5 357/4/5 350/4/5
f 360/11/6 410/11/6 408/11/6 359/11/6
f 409/4/5 411/4/5 361/4/5 357/4/5
f 362/5/6 412/5/6 410/5/6 360/5/6
f 411/4/5 413/4/5 363/4/5 361/4/5
f 364/5/6 414/5/6 412/5/6 362/5/6
f 413/4/5 415/4/5 365/4/5 363/4/5
f 366/5/6 416/5/6 414/5/6 364/5/6
f 415/4/5 417/4/5 367/4/5 365/4/5
f 368/5/6 418/5/6 416/5/6 366/5/6
f 417/4/5 419/4/5 369/4/5 367/4/5
f 370/5/6 420/5/6 418/5/6 368/5/6
f 419/4/5 421/4/5 371/4/5 369/4/5
f 372/5/6 422/5/6 420/5/6 370/5/6
f 421/4/5 423/4/5 373/4/5 371/4/5
f 374/5/6 424/5/6 422/5/6 372/5/6
f 423/4/5 425/4/5 375/4/5 373/4/5
f 376/5/6 426/5/6 424/5/6 374/5/6
f 425/4/5 427/4/5 377/4/5 375/4/5
f 378/5/6 428/5/6 426/5/6 376/5/6
f 427/4/5 429/4/5 379/4/5 377/4/5
f 380/11/6 430/11/6 428/11/6 378/11/6
f 429/11/5 431/11/5 381/11/5 379/11/5
f 382/5/6 432/5/6 430/5/6 380/5/6
f 431/4/5 433/4/5 383/4/5 381/4/5
f 384/5/6 434/5/6 432/5/6 382/5/6
f 433/4/5 435/4/5 385/4/5 383/4/5
f 386/5/6 436/5/6 434/5/6 384/5/6
f 437/4/4 438/4/4 388/4/4 387/4/4
f 435/4/5 437/4/5 387/4/5 385/4/5
f 438/4/4 439/4/4 389/4/4 388/4/4
f 439/4/4 440/4/4 390/4/4 389/4/4
f 440/4/4 441/4/4 391/4/4 390/4/4
f 441/4/4 442/4/4 392/4/4 391/4/4
f 442/4/4 443/4/4 393/4/4 392/4/4
f 443/4/4 444/4/4 394/4/4 393/4/4
f 444/5/4 445/5/4 395/5/4 394/5/4
f 395/5/6 445/5/6 436/5/6 386/5/6
f 396/4/3 446/4/3 447/4/3 397/4/3
f 447/4/5 448/4/5 398/4/5 397/4/5
f 399/4/3 449/4/3 446/4/3 396/4/3
f 400/4/3 450/4/3 449/4/3 399/4/3
f 401/4/3 451/4/3 450/4/3 400/4/3
f 402/4/3 452/4/3 451/4/3 401/4/3
f 403/4/3 453/4/3 452/4/3 402/4/3
f 405/4/3 454/4/3 453/4/3 403/4/3
f 407/11/3 455/11/3 454/11/3 405/11/3
f 408/11/6 456/11/6 455/11/6 407/11/6
f 448/4/5 457/4/5 409/4/5 398/4/5
f 410/11/6 458/11/6 456/11/6 408/11/6
f 457/4/5 459/4/5 411/4/5 409/4/5
f 412/5/6 460/5/6 458/5/6 410/5/6
f 459/4/5 461/4/5 413/4/5 411/4/5
f 414/5/6 462/5/6 460/5/6 412/5/6
f 461/4/5 463/4/5 415/4/5 413/4/5
f 416/5/6 464/5/6 462/5/6 414/5/6
f 463/4/5 465/4/5 417/4/5 415/4/5
f 418/5/6 466/5/6 464/5/6 416/5/6
f 465/4/5 467/4/5 419/4/5 417/4/5
f 420/5/6 468/5/6 466/5/6 418/5/6
f 467/4/5 469/4/5 421/4/5 419/4/5
f 422/5/6 470/5/6 468/5/6 420/5/6
f 469/4/5 471/4/5 423/4/5 421/4/5
f 424/5/6 472/5/6 470/5/6 422/5/6
f 471/4/5 473/4/5 425/4/5 423/4/5
f 426/5/6 474/5/6 472/5/6 424/5/6
f 473/4/5 475/4/5 427/4/5 425/4/5
f 428/5/6 476/5/6 474/5/6 426/5/6
f 475/4/5 477/4/5 429/4/5 427/4/5
f 430/5/6 478/5/6 476/5/6 428/5/6
f 477/4/5 479/4/5 431/4/5 429/4/5
f 432/5/6 480/5/6 478/5/6 430/5/6
f 479/4/5 481/4/5 433/4/5 431/4/5
f 434/5/6 482/5/6 480/5/6 432/5/6
f 481/4/5 483/4/5 435/4/5 433/4/5
f 436/5/6 484/5/6 482/5/6 434/5/6
f 485/5/4 486/5/4 438/5/4 437/5/4
f 483/5/5 485/5/5 437/5/5 435/5/5
f 486/4/4 487/4/4 439/4/4 438/4/4
f 487/4/4 488/4/4 440/4/4 439/4/4
f 488/4/4 489/4/4 441/4/4 440/4/4
f 489/4/4 490/4/4 442/4/4 441/4/4
f 490/4/4 491/4/4 443/4/4 442/4/4
f 491/4/4 492/4/4 444/4/4 443/4/4
f 492/5/4 493/5/4 445/5/4 444/5/4
f 445/5/6 493/5/6 484/5/6 436/5/6
f 446/4/3 494/4/3 495/4/3 447/4/3
f 495/4/5 496/4/5 448/4/5 447/4/5
f 449/4/3 497/4/3 494/4/3 446/4/3
f 450/4/3 498/4/3 497/4/3 449/4/3
f 451/4/3 499/4/3 498/4/3 450/4/3
f 452/4/3 500/4/3 499/4/3 451/4/3
f 453/4/3 501/4/3 500/4/3 452/4/3
f 454/4/3 502/4/3 501/4/3 453/4/3
f 455/11/3 503/11/3 502/11/3 454/11/3
f 456/11/6 504/11/6 503/11/6 455/11/6
f 496/4/5 505/4/5 457/4/5 448/4/5
f 458/11/6 506/11/6 504/11/6 456/11/6
f 505/4/5 507/4/5 459/4/5 457/4/5
f 460/5/6 508/5/6 506/5/6 458/5/6
f 507/4/5 509/4/5 461/4/5 459/4/5
f 462/5/6 510/5/6 508/5/6 460/5/6
f 509/4/5 511/4/5 463/4/5 461/4/5
f 464/5/6 512/5/6 510/5/6 462/5/6
f 511/4/5 513/4/5 465/4/5 463/4/5
f 466/5/6 514/5/6 512/5/6 464/5/6
f 513/4/5 515/4/5 467/4/5 465/4/5
f 468/11/6 516/11/6 514/11/6 466/11/6
f 515/4/5 517/4/5 469/4/5 467/4/5
f 470/5/6 518/5/6 516/5/6 468/5/6
f 517/4/5 519/4/5 471/4/5 469/4/5
f 472/5/6 520/5/6 518/5/6 470/5/6
f 519/4/5 521/4/5 473/4/5 471/4/5
f 474/5/6 522/5/6 520/5/6 472/5/6
f 521/4/5 523/4/5 475/4/5 473/4/5
f 476/5/6 524/5/6 522/5/6 474/5/6
f 523/4/5 525/4/5 477/4/5 475/4/5
f 478/5/6 526/5/6 524/5/6 476/5/6
f 525/4/5 527/4/5 479/4/5 477/4/5
f 480/5/6 528/5/6 526/5/6 478/5/6
f 527/4/5 529/4/5 481/4/5 479/4/5
f 482/5/6 530/5/6 528/5/6 480/5/6
f 529/4/5 531/4/5 483/4/5 481/4/5
f 484/5/6 532/5/6 530/5/6 482/5/6
f 533/4/4 534/4/4 486/4/4 485/4/4
f 531/4/5 533/4/5 485/4/5 483/4/5
f 534/4/4 535/4/4 487/4/4 486/4/4
f 535/4/4 536/4/4 488/4/4 487/4/4
f 536/4/4 537/4/4 489/4/4 488/4/4
f 537/4/4 538/4/4 490/4/4 489/4/4
f 538/4/4 539/4/4 491/4/4 490/4/4
f 539/4/4 540/4/4 492/4/4 491/4/4
f 540/5/4 541/5/4 493/5/4 492/5/4
f 493/5/6 541/5/6 532/5/6 484/5/6
f 494/4/3 542/4/3 543/4/3 495/4/3
f 543/4/5 544/4/5 496/4/5 495/4/5
f 497/4/3 545/4/3 542/4/3 494/4/3
f 498/4/3 546/4/3 545/4/3 497/4/3
f 499/4/3 547/4/3 546/4/3 498/4/3
f 500/4/3 548/4/3 547/4/3 499/4/3
f 501/4/3 549/4/3 548/4/3 500/4/3
f 502/4/3 550/4/3 549/4/3 501/4/3
f 503/11/3 551/11/3 550/11/3 502/11/3
f 504/11/6 552/11/6 551/11/6 503/11/6
f 544/4/5 553/4/5 505/4/5 496/4/5
f 506/11/6 554/11/6 552/11/6 504/11/6
f 553/4/5 555/4/5 507/4/5 505/4/5
f 508/5/6 556/5/6 554/5/6 506/5/6
f 555/4/5 557/4/5 509/4/5 507/4/5
f 510/5/6 558/5/6 556/5/6 508/5/6
f 557/4/5 559/4/5 511/4/5 509/4/5
f 512/5/6 560/5/6 558/5/6 510/5/6
f 559/4/5 561/4/5 513/4/5 511/4/5
f 514/5/6 562/5/6 560/5/6 512/5/6
f 561/4/5 563/4/5 515/4/5 513/4/5
f 516/5/6 564/5/6 562/5/6 514/5/6
f 563/4/5 565/4/5 517/4/5 515/4/5
f 518/5/6 566/5/6 564/5/6 516/5/6
f 565/4/5 567/4/5 519/4/5 517/4/5
f 520/5/6 568/5/6 566/5/6 518/5/6
f 567/4/5 569/4/5 521/4/5 519/4/5
f 522/5/6 570/5/6 568/5/6 520/5/6
f 569/4/5 571/4/5 523/4/5 521/4/5
f 524/5/6 572/5/6 570/5/6 522/5/6
f 571/4/5 573/4/5 525/4/5 523/4/5
f 526/5/6 574/5/6 572/5/6 524/5/6
f 573/4/5 575/4/5 527/4/5 525/4/5
f 528/5/6 576/5/6 574/5/6 526/5/6
f 575/4/5 577/4/5 529/4/5 527/4/5
f 530/5/6 578/5/6 576/5/6 528/5/6
f 577/4/5 579/4/5 531/4/5 529/4/5
f 532/5/6 580/5/6 578/5/6 530/5/6
f 581/4/4 582/4/4 534/4/4 533/4/4
f 579/4/5 581/4/5 533/4/5 531/4/5
f 582/4/4 583/4/4 535/4/4 534/4/4
f 583/4/4 584/4/4 536/4/4 535/4/4
f 584/4/4 585/4/4 537/4/4 536/4/4
f 585/4/4 586/4/4 538/4/4 537/4/4
f 586/4/4 587/4/4 539/4/4 538/4/4
f 587/4/4 588/4/4 540/4/4 539/4/4
f 588/5/4 589/5/4 541/5/4 540/5/4
f 541/5/6 589/5/6 580/5/6 532/5/6
f 542/4/3 590/4/3 591/4/3 543/4/3
f 591/4/5 592/4/5 544/4/5 543/4/5
f 545/4/3 593/4/3 590/4/3 542/4/3
f 546/4/3 594/4/3 593/4/3 545/4/3
f 547/4/3 595/4/3 594/4/3 546/4/3
f 548/4/3 596/4/3 595/4/3 547/4/3
f 549/4/3 597/4/3 596/4/3 548/4/3
f 550/4/3 598/4/3 597/4/3 549/4/3
f 551/11/3 599/11/3 598/11/3 550/11/3
f 552/11/6 600/11/6 599/11/6 551/11/6
f 592/4/5 601/4/5 553/4/5 544/4/5
f 554/11/6 602/11/6 600/11/6 552/11/6
f 601/4/5 603/4/5 555/4/5 553/4/5
f 556/5/6 604/5/6 602/5/6 554/5/6
f 603/11/5 605/11/5 557/11/5 555/11/5
f 558/5/6 606/5/6 604/5/6 556/5/6
f 605/4/5 607/4/5 559/4/5 557/4/5
f 560/5/6 608/5/6 606/5/6 558/5/6
f 607/4/5 609/4/5 561/4/5 559/4/5
f 562/5/6 610/5/6 608/5/6 560/5/6
f 609/4/5 611/4/5 563/4/5 561/4/5
f 564/5/6 612/5/6 610/5/6 562/5/6
f 611/4/5 613/4/5 565/4/5 563/4/5
f 566/5/6 614/5/6 612/5/6 564/5/6
f 613/4/5 615/4/5 567/4/5 565/4/5
f 568/5/6 616/5/6 614/5/6 566/5/6
f 615/4/5 617/4/5 569/4/5 567/4/5
f 570/5/6 618/5/6 616/5/6 568/5/6
f 617/4/5 619/4/5 571/4/5 569/4/5
f 572/5/6 620/5/6 618/5/6 570/5/6
f 619/4/5 621/4/5 573/4/5 571/4/5
f 574/5/6 622/5/6 620/5/6 572/5/6
f 621/4/5 623/4/5 575/4/5 573/4/5
f 576/5/6 624/5/6 622/5/6 574/5/6
f 623/4/5 625/4/5 577/4/5 575/4/5
f 578/5/6 626/5/6 624/5/6 576/5/6
f 625/4/5 627/4/5 579/4/5 577/4/5
f 580/5/6 628/5/6 626/5/6 578/5/6
f 629/4/4 630/4/4 582/4/4 581/4/4
f 627/4/5 629/4/5 581/4/5 579/4/5
f 630/4/4 631/4/4 583/4/4 582/4/4
f 631/4/4 632/4/4 584/4/4 583/4/4
f 632/4/4 633/4/4 585/4/4 584/4/4
f 633/4/4 634/4/4 586/4/4 585/4/4
f 634/4/4 635/4/4 587/4/4 586/4/4
f 635/4/4 636/4/4 588/4/4 587/4/4
f 636/5/4 637/5/4 589/5/4 588/5/4
f 589/5/6 637/5/6 628/5/6 580/5/6
f 590/4/3 638/4/3 639/4/3 591/4/3
f 639/4/5 640/4/5 592/4/5 591/4/5
f 593/4/3 641/4/3 638/4/3 590/4/3
f 594/4/3 642/4/3 641/4/3 593/4/3
f 595/4/3 643/4/3 642/4/3 594/4/3
f 596/4/3 644/4/3 643/4/3 595/4/3
f 597/4/3 645/4/3 644/4/3 596/4/3
f 598/4/3 646/4/3 645/4/3 597/4/3
f 599/11/3 647/11/3 646/11/3 598/11/3
f 600/11/6 648/11/6 647/11/6 599/11/6
f 640/4/5 649/4/5 601/4/5 592/4/5
f 602/11/6 650/11/6 648/11/6 600/11/6
f 649/4/5 651/4/5 603/4/5 601/4/5
f 604/5/6 652/5/6 650/5/6 602/5/6
f 651/4/5 653/4/5 605/4/5 603/4/5
f 606/5/6 654/5/6 652/5/6 604/5/6
f 653/4/5 655/4/5 607/4/5 605/4/5
f 608/5/6 656/5/6 654/5/6 606/5/6
f 655/4/5 657/4/5 609/4/5 607/4/5
f 610/5/6 658/5/6 656/5/6 608/5/6
f 657/4/5 659/4/5 611/4/5 609/4/5
f 612/5/6 660/5/6 658/5/6 610/5/6
f 659/4/5 661/4/5 613/4/5 611/4/5
f 614/5/6 662/5/6 660/5/6 612/5/6
f 661/4/5 663/4/5 615/4/5 613/4/5
f 616/5/6 664/5/6 662/5/6 614/5/6
f 663/4/5 665/4/5 617/4/5 615/4/5
f 618/5/6 666/5/6 664/5/6 616/5/6
f 665/4/5 667/4/5 619/4/5 617/4/5
f 620/5/6 668/5/6 666/5/6 618/5/6
f 667/4/5 669/4/5 621/4/5 619/4/5
f 622/5/6 670/5/6 668/5/6 620/5/6
f 669/4/5 671/4/5 623/4/5 621/4/5
f 624/5/6 672/5/6 670/5/6 622/5/6
f 671/4/5 673/4/5 625/4/5 623/4/5
f 626/5/6 674/5/6 672/5/6 624/5/6
f 673/4/5 675/4/5 627/4/5 625/4/5
f 628/5/6 676/5/6 674/5/6 626/5/6
f 677/4/4 678/4/4 630/4/4 629/4/4
f 675/4/5 677/4/5 629/4/5 627/4/5
f 678/4/4 679/4/4 631/4/4 630/4/4
f 679/4/4 680/4/4 632/4/4 631/4/4
f 680/4/4 681/4/4 633/4/4 632/4/4
f 681/4/4 682/4/4 634/4/4 633/4/4
f 682/4/4 683/4/4 635/4/4 634/4/4
f 683/4/4 684/4/4 636/4/4 635/4/4
f 684/5/4 685/5/4 637/5/4 636/5/4
f 637/5/6 685/5/6 676/5/6 628/5/6
f 638/4/3 686/4/3 687/4/3 639/4/3
f 687/4/5 688/4/5 640/4/5 639/4/5
f 641/4/3 689/4/3 686/4/3 638/4/3
f 642/4/3 690/4/3 689/4/3 641/4/3
f 643/4/3 691/4/3 690/4/3 642/4/3
f 644/4/3 692/4/3 691/4/3 643/4/3
f 645/4/3 693/4/3 692/4/3 644/4/3
f 646/4/3 694/4/3 693/4/3 645/4/3
f 647/11/3 695/11/3 694/11/3 646/11/3
f 648/11/6 696/11/6 695/11/6 647/11/6
f 688/4/5 697/4/5 649/4/5 640/4/5
f 650/11/6 698/11/6 696/11/6 648/11/6
f 697/4/5 699/4/5 651/4/5 649/4/5
f 652/5/6 700/5/6 698/5/6 650/5/6
f 699/4/5 701/4/5 653/4/5 651/4/5
f 654/5/6 702/5/6 700/5/6 652/5/6
f 701/4/5 703/4/5 655/4/5 653/4/5
f 656/5/6 704/5/6 702/5/6 654/5/6
f 703/4/5 705/4/5 657/4/5 655/4/5
f 658/5/6 706/5/6 704/5/6 656/5/6
f 705/4/5 707/4/5 659/4/5 657/4/5
f 660/5/6 708/5/6 706/5/6 658/5/6
f 707/4/5 709/4/5 661/4/5 659/4/5
f 662/5/6 710/5/6 708/5/6 660/5/6
f 709/4/5 711/4/5 663/4/5 661/4/5
f 664/5/6 712/5/6 710/5/6 662/5/6
f 711/4/5 713/4/5 665/4/5 663/4/5
f 666/5/6 714/5/6 712/5/6 664/5/6
f 713/4/5 715/4/5 667/4/5 665/4/5
f 668/5/6 716/5/6 714/5/6 666/5/6
f 715/4/5 717/4/5 669/4/5 667/4/5
f 670/5/6 718/5/6 716/5/6 668/5/6
f 717/4/5 719/4/5 671/4/5 669/4/5
f 672/5/6 720/5/6 718/5/6 670/5/6
f 719/4/5 721/4/5 673/4/5 671/4/5
f 674/5/6 722/5/6 720/5/6 672/5/6
f 721/4/5 723/4/5 675/4/5 673/4/5
f 676/5/6 724/5/6 722/5/6 674/5/6
f 725/4/4 726/4/4 678/4/4 677/4/4
f 723/4/5 725/4/5 677/4/5 675/4/5
f 726/4/4 727/4/4 679/4/4 678/4/4
f 727/4/4 728/4/4 680/4/4 679/4/4
f 728/4/4 729/4/4 681/4/4 680/4/4
f 729/4/4 730/4/4 682/4/4 681/4/4
f 730/4/4 731/4/4 683/4/4 682/4/4
f 731/4/4 732/4/4 684/4/4 683/4/4
f 732/5/4 733/5/4 685/5/4 684/5/4
f 685/5/6 733/5/6 724/5/6 676/5/6
f 686/4/3 734/4/3 735/4/3 687/4/3
f 735/4/5 736/4/5 688/4/5 687/4/5
f 689/4/3 737/4/3 734/4/3 686/4/3
f 690/4/3 738/4/3 737/4/3 689/4/3
f 691/4/3 739/4/3 738/4/3 690/4/3
f 692/4/3 740/4/3 739/4/3 691/4/3
f 693/4/3 741/4/3 740/4/3 692/4/3
f 694/4/3 742/4/3 741/4/3 693/4/3
f 695/11/3 743/11/3 742/11/3 694/11/3
f 696/11/6 744/11/6 743/11/6 695/11/6
f 736/4/5 745/4/5 697/4/5 688/4/5
f 698/11/6 746/11/6 744/11/6 696/11/6
f 745/4/5 747/4/5 699/4/5 697/4/5
f 700/5/6 748/5/6 746/5/6 698/5/6
f 747/4/5 749/4/5 701/4/5 699/4/5
f 702/5/6 750/5/6 748/5/6 700/5/6
f 749/4/5 751/4/5 703/4/5 701/4/5
f 704/5/6 752/5/6 750/5/6 702/5/6
f 751/4/5 753/4/5 705/4/5 703/4/5
f 706/5/6 754/5/6 752/5/6 704/5/6
f 753/4/5 755/4/5 707/4/5 705/4/5
f 708/5/6 756/5/6 754/5/6 706/5/6
f 755/4/5 757/4/5 709/4/5 707/4/5
f 710/5/6 758/5/6 756/5/6 708/5/6
f 757/4/5 759/4/5 711/4/5 709/4/5
f 712/5/6 760/5/6 758/5/6 710/5/6
f 759/4/5 761/4/5 713/4/5 711/4/5
f 714/5/6 762/5/6 760/5/6 712/5/6
f 761/4/5 763/4/5 715/4/5 713/4/5
f 716/5/6 764/5/6 762/5/6 714/5/6
f 763/4/5 765/4/5 717/4/5 715/4/5
f 718/5/6 766/5/6 764/5/6 716/5/6
f 765/4/5 767/4/5 719/4/5 717/4/5
f 720/5/6 768/5/6 766/5/6 718/5/6
f 767/4/5 769/4/5 721/4/5 719/4/5
f 722/5/6 770/5/6 768/5/6 720/5/6
f 769/4/5 771/4/5 723/4/5 721/4/5
f 724/5/6 772/5/6 770/5/6 722/5/6
f 773/4/4 774/4/4 726/4/4 725/4/4
f 771/4/5 773/4/5 725/4/5 723/4/5
f 774/4/4 775/4/4 727/4/4 726/4/4
f 775/4/4 776/4/4 728/4/4 727/4/4
f 776/4/4 777/4/4 729/4/4 728/4/4
f 777/4/4 778/4/4 730/4/4 729/4/4
f 778/4/4 779/4/4 731/4/4 730/4/4
f 779/4/4 780/4/4 732/4/4 731/4/4
f 780/5/4 781/5/4 733/5/4 732/5/4
f 733/5/6 781/5/6 772/5/6 724/5/6
f 734/4/3 782/4/3 783/4/3 735/4/3
f 783/4/5 784/4/5 736/4/5 735/4/5
f 737/4/3 785/4/3 782/4/3 734/4/3
f 738/4/3 786/4/3 785/4/3 737/4/3
f 739/4/3 787/4/3 786/4/3 738/4/3
f 740/4/3 788/4/3 787/4/3 739/4/3
f 741/4/3 789/4/3 788/4/3 740/4/3
f 742/4/3 790/4/3 789/4/3 741/4/3
f 743/11/3 791/11/3 790/11/3 742/11/3
f 744/11/6 792/11/6 791/11/6 743/11/6
f 784/4/5 793/4/5 745/4/5 736/4/5
f 746/11/6 794/11/6 792/11/6 744/11/6
f 793/4/5 795/4/5 747/4/5 745/4/5
f 748/5/6 796/5/6 794/5/6 746/5/6
f 795/4/5 797/4/5 749/4/5 747/4/5
f 750/5/6 798/5/6 796/5/6 748/5/6
f 797/4/5 799/4/5 751/4/5 749/4/5
f 752/5/6 800/5/6 798/5/6 750/5/6
f 799/4/5 801/4/5 753/4/5 751/4/5
f 754/5/6 802/5/6 800/5/6 752/5/6
f 801/5/5 803/5/5 755/5/5 753/5/5
f 756/5/6 804/5/6 802/5/6 754/5/6
f 803/4/5 805/4/5 757/4/5 755/4/5
f 758/5/6 806/5/6 804/5/6 756/5/6
f 805/4/5 807/4/5 759/4/5 757/4/5
f 760/5/6 808/5/6 806/5/6 758/5/6
f 807/4/5 809/4/5 761/4/5 759/4/5
f 762/5/6 810/5/6 808/5/6 760/5/6
f 809/4/5 811/4/5 763/4/5 761/4/5
f 764/5/6 812/5/6 810/5/6 762/5/6
f 811/4/5 813/4/5 765/4/5 763/4/5
f 766/5/6 814/5/6 812/5/6 764/5/6
f 813/4/5 815/4/5 767/4/5 765/4/5
f 768/5/6 816/5/6 814/5/6 766/5/6
f 815/4/5 817/4/5 769/4/5 767/4/5
f 770/5/6 818/5/6 816/5/6 768/5/6
f 817/4/5 819/4/5 771/4/5 769/4/5
f 772/5/6 820/5/6 818/5/6 770/5/6
f 821/4/4 822/4/4 774/4/4 773/4/4
f 819/4/5 821/4/5 773/4/5 771/4/5
f 822/4/4 823/4/4 775/4/4 774/4/4
f 823/4/4 824/4/4 776/4/4 775/4/4
f 824/4/4 825/4/4 777/4/4 776/4/4
f 825/4/4 826/4/4 778/4/4 777/4/4
f 826/4/4 827/4/4 779/4/4 778/4/4
f 827/4/4 828/4/4 780/4/4 779/4/4
f 828/5/4 829/5/4 781/5/4 780/5/4
f 781/5/6 829/5/6 820/5/6 772/5/6
f 782/4/3 830/4/3 831/4/3 783/4/3
f 831/4/5 832/4/5 784/4/5 783/4/5
f 785/4/3 833/4/3 830/4/3 782/4/3
f 786/4/3 834/4/3 833/4/3 785/4/3
f 787/4/3 835/4/3 834/4/3 786/4/3
f 788/4/3 836/4/3 835/4/3 787/4/3
f 789/4/3 837/4/3 836/4/3 788/4/3
f 790/4/3 838/4/3 837/4/3 789/4/3
f 791/11/3 839/11/3 838/11/3 790/11/3
f 792/11/6 840/11/6 839/11/6 791/11/6
f 832/4/5 841/4/5 793/4/5 784/4/5
f 794/11/6 842/11/6 840/11/6 792/11/6
f 841/4/5 843/4/5 795/4/5 793/4/5
f 796/5/6 844/5/6 842/5/6 794/5/6
f 843/4/5 845/4/5 797/4/5 795/4/5
f 798/5/6 846/5/6 844/5/6 796/5/6
f 845/4/5 847/4/5 799/4/5 797/4/5
f 800/5/6 848/5/6 846/5/6 798/5/6
f 847/4/5 849/4/5 801/4/5 799/4/5
f 802/5/6 850/5/6 848/5/6 800/5/6
f 849/4/5 851/4/5 803/4/5 801/4/5
f 804/5/6 852/5/6 850/5/6 802/5/6
f 851/4/5 853/4/5 805/4/5 803/4/5
f 806/5/6 854/5/6 852/5/6 804/5/6
f 853/4/5 855/4/5 807/4/5 805/4/5
f 808/5/6 856/5/6 854/5/6 806/5/6
f 855/4/5 857/4/5 809/4/5 807/4/5
f 810/5/6 858/5/6 856/5/6 808/5/6
f 857/4/5 859/4/5 811/4/5 809/4/5
f 812/11/6 860/11/6 858/11/6 810/11/6
f 859/4/5 861/4/5 813/4/5 811/4/5
f 814/5/6 862/5/6 860/5/6 812/5/6
f 861/4/5 863/4/5 815/4/5 813/4/5
f 816/5/6 864/5/6 862/5/6 814/5/6
f 863/4/5 865/4/5 817/4/5 815/4/5
f 818/5/6 866/5/6 864/5/6 816/5/6
f 865/4/5 867/4/5 819/4/5 817/4/5
f 820/11/6 868/11/6 866/11/6 818/11/6
f 869/4/4 870/4/4 822/4/4 821/4/4
f 867/4/5 869/4/5 821/4/5 819/4/5
f 870/4/4 871/4/4 823/4/4 822/4/4
f 871/4/4 872/4/4 824/4/4 823/4/4
f 872/5/4 873/5/4 825/5/4 824/5/4
f 873/4/4 874/4/4 826/4/4 825/4/4
f 874/4/4 875/4/4 827/4/4 826/4/4
f 875/4/4 876/4/4 828/4/4 827/4/4
f 876/5/4 877/5/4 829/5/4 828/5/4
f 829/5/6 877/5/6 868/5/6 820/5/6
f 878/4/2 879/4/2 880/4/2 881/4/2
f 830/4/3 878/4/3 881/4/3 831/4/3
f 881/4/5 880/4/5 832/4/5 831/4/5
f 882/4/2 883/4/2 879/4/2 878/4/2
f 833/4/3 882/4/3 878/4/3 830/4/3
f 884/4/2 885/4/2 883/4/2 882/4/2
f 834/4/3 884/4/3 882/4/3 833/4/3
f 886/4/2 887/4/2 885/4/2 884/4/2
f 835/4/3 886/4/3 884/4/3 834/4/3
f 888/4/2 889/4/2 887/4/2 886/4/2
f 836/4/3 888/4/3 886/4/3 835/4/3
f 890/4/2 891/4/2 889/4/2 888/4/2
f 837/4/3 890/4/3 888/4/3 836/4/3
f 892/4/2 893/4/2 891/4/2 890/4/2
f 838/4/3 892/4/3 890/4/3 837/4/3
f 894/11/2 895/11/2 893/11/2 892/11/2
f 839/11/3 894/11/3 892/11/3 838/11/3
f 840/11/6 895/11/6 894/11/6 839/11/6
f 879/4/2 896/4/2 897/4/2 880/4/2
f 880/4/5 897/4/5 841/4/5 832/4/5
f 883/4/2 898/4/2 896/4/2 879/4/2
f 885/4/2 899/4/2 898/4/2 883/4/2
f 887/4/2 900/4/2 899/4/2 885/4/2
f 889/4/2 901/4/2 900/4/2 887/4/2
f 891/4/2 902/4/2 901/4/2 889/4/2
f 893/4/2 903/4/2 902/4/2 891/4/2
f 895/11/2 904/11/2 903/11/2 893/11/2
f 842/11/6 904/11/6 895/11/6 840/11/6
f 896/4/2 905/4/2 906/4/2 897/4/2
f 897/4/5 906/4/5 843/4/5 841/4/5
f 898/4/2 907/4/2 905/4/2 896/4/2
f 899/4/2 908/4/2 907/4/2 898/4/2
f 900/4/2 909/4/2 908/4/2 899/4/2
f 901/4/2 910/4/2 909/4/2 900/4/2
f 902/4/2 911/4/2 910/4/2 901/4/2
f 903/4/2 912/4/2 911/4/2 902/4/2
f 904/5/2 913/5/2 912/5/2 903/5/2
f 844/5/6 913/5/6 904/5/6 842/5/6
f 905/4/2 914/4/2 915/4/2 906/4/2
f 906/4/5 915/4/5 845/4/5 843/4/5
f 907/4/2 916/4/2 914/4/2 905/4/2
f 908/4/2 917/4/2 916/4/2 907/4/2
f 909/4/2 918/4/2 917/4/2 908/4/2
f 910/4/2 919/4/2 918/4/2 909/4/2
f 911/4/2 920/4/2 919/4/2 910/4/2
f 912/4/2 921/4/2 920/4/2 911/4/2
f 913/5/2 922/5/2 921/5/2 912/5/2
f 846/5/6 922/5/6 913/5/6 844/5/6
f 914/4/2 923/4/2 924/4/2 915/4/2
f 915/4/5 924/4/5 847/4/5 845/4/5
f 916/4/2 925/4/2 923/4/2 914/4/2
f 917/4/2 926/4/2 925/4/2 916/4/2
f 918/4/2 927/4/2 926/4/2 917/4/2
f 919/4/2 928/4/2 927/4/2 918/4/2
f 920/4/2 929/4/2 928/4/2 919/4/2
f 921/4/2 930/4/2 929/4/2 920/4/2
f 922/5/2 931/5/2 930/5/2 921/5/2
f 848/5/6 931/5/6 922/5/6 846/5/6
f 923/4/2 932/4/2 933/4/2 924/4/2
f 924/4/5 933/4/5 849/4/5 847/4/5
f 925/4/2 934/4/2 932/4/2 923/4/2
f 926/4/2 935/4/2 934/4/2 925/4/2
f 927/4/2 936/4/2 935/4/2 926/4/2
f 928/4/2 937/4/2 936/4/2 927/4/2
f 929/4/2 938/4/2 937/4/2 928/4/2
f 930/4/2 939/4/2 938/4/2 929/4/2
f 931/5/2 940/5/2 939/5/2 930/5/2
f 850/5/6 940/5/6 931/5/6 848/5/6
f 932/4/2 941/4/2 942/4/2 933/4/2
f 933/4/5 942/4/5 851/4/5 849/4/5
f 934/4/2 943/4/2 941/4/2 932/4/2
f 935/4/2 944/4/2 943/4/2 934/4/2
f 936/4/2 945/4/2 944/4/2 935/4/2
f 937/4/2 946/4/2 945/4/2 936/4/2
f 938/4/2 947/4/2 946/4/2 937/4/2
f 939/4/2 948/4/2 947/4/2 938/4/2
f 940/5/2 949/5/2 948/5/2 939/5/2
f 852/5/6 949/5/6 940/5/6 850/5/6
f 941/4/2 950/4/2 951/4/2 942/4/2
f 942/4/5 951/4/5 853/4/5 851/4/5
f 943/4/2 952/4/2 950/4/2 941/4/2
f 944/4/2 953/4/2 952/4/2 943/4/2
f 945/4/2 954/4/2 953/4/2 944/4/2
f 946/4/2 955/4/2 954/4/2 945/4/2
f 947/4/2 956/4/2 955/4/2 946/4/2
f 948/4/2 957/4/2 956/4/2 947/4/2
f 949/11/2 958/11/2 957/11/2 948/11/2
f 854/11/6 958/11/6 949/11/6 852/11/6
f 950/4/2 959/4/2 960/4/2 951/4/2
f 951/4/5 960/4/5 855/4/5 853/4/5
f 952/4/2 961/4/2 959/4/2 950/4/2
f 953/4/2 962/4/2 961/4/2 952/4/2
f 954/4/2 963/4/2 962/4/2 953/4/2
f 955/4/2 964/4/2 963/4/2 954/4/2
f 956/4/2 965/4/2 964/4/2 955/4/2
f 957/4/2 966/4/2 965/4/2 956/4/2
f 958/5/2 967/5/2 966/5/2 957/5/2
f 856/5/6 967/5/6 958/5/6 854/5/6
f 959/4/2 968/4/2 969/4/2 960/4/2
f 960/4/5 969/4/5 857/4/5 855/4/5
f 961/4/2 970/4/2 968/4/2 959/4/2
f 962/4/2 971/4/2 970/4/2 961/4/2
f 963/4/2 972/4/2 971/4/2 962/4/2
f 964/4/2 973/4/2 972/4/2 963/4/2
f 965/4/2 974/4/2 973/4/2 964/4/2
f 966/4/2 975/4/2 974/4/2 965/4/2
f 967/5/2 976/5/2 975/5/2 966/5/2
f 858/5/6 976/5/6 967/5/6 856/5/6
f 968/4/2 977/4/2 978/4/2 969/4/2
f 969/4/5 978/4/5 859/4/5 857/4/5
f 970/4/2 979/4/2 977/4/2 968/4/2
f 971/4/2 980/4/2 979/4/2 970/4/2
f 972/4/2 981/4/2 980/4/2 971/4/2
f 973/4/2 982/4/2 981/4/2 972/4/2
f 974/4/2 983/4/2 982/4/2 973/4/2
f 975/4/2 984/4/2 983/4/2 974/4/2
f 976/5/2 985/5/2 984/5/2 975/5/2
f 860/5/6 985/5/6 976/5/6 858/5/6
f 977/4/2 986/4/2 987/4/2 978/4/2
f 978/4/5 987/4/5 861/4/5 859/4/5
f 979/4/2 988/4/2 986/4/2 977/4/2
f 980/4/2 989/4/2 988/4/2 979/4/2
f 981/4/2 990/4/2 989/4/2 980/4/2
f 982/4/2 991/4/2 990/4/2 981/4/2
f 983/4/2 992/4/2 991/4/2 982/4/2
f 984/4/2 993/4/2 992/4/2 983/4/2
f 985/5/2 994/5/2 993/5/2 984/5/2
f 862/5/6 994/5/6 985/5/6 860/5/6
f 986/4/2 995/4/2 996/4/2 987/4/2
f 987/4/5 996/4/5 863/4/5 861/4/5
f 988/4/2 997/4/2 995/4/2 986/4/2
f 989/4/2 998/4/2 997/4/2 988/4/2
f 990/4/2 999/4/2 998/4/2 989/4/2
f 991/4/2 1000/4/2 999/4/2 990/4/2
f 992/4/2 1001/4/2 1000/4/2 991/4/2
f 993/4/2 1002/4/2 1001/4/2 992/4/2
f 994/5/2 1003/5/2 1002/5/2 993/5/2
f 864/5/6 1003/5/6 994/5/6 862/5/6
f 995/4/2 1004/4/2 1005/4/2 996/4/2
f 996/4/5 1005/4/5 865/4/5 863/4/5
f 997/4/2 1006/4/2 1004/4/2 995/4/2
f 998/4/2 1007/4/2 1006/4/2 997/4/2
f 999/4/2 1008/4/2 1007/4/2 998/4/2
f 1000/4/2 1009/4/2 1008/4/2 999/4/2
f 1001/4/2 1010/4/2 1009/4/2 1000/4/2
f 1002/4/2 1011/4/2 1010/4/2 1001/4/2
f 1003/5/2 1012/5/2 1011/5/2 1002/5/2
f 866/5/6 1012/5/6 1003/5/6 864/5/6
f 1004/4/2 1013/4/2 1014/4/2 1005/4/2
f 1005/4/5 1014/4/5 867/4/5 865/4/5
f 1006/4/2 1015/4/2 1013/4/2 1004/4/2
f 1007/4/2 1016/4/2 1015/4/2 1006/4/2
f 1008/4/2 1017/4/2 1016/4/2 1007/4/2
f 1009/4/2 1018/4/2 1017/4/2 1008/4/2
f 1010/4/2 1019/4/2 1018/4/2 1009/4/2
f 1011/4/2 1020/4/2 1019/4/2 1010/4/2
f 1012/5/2 1021/5/2 1020/5/2 1011/5/2
f 868/5/6 1021/5/6 1012/5/6 866/5/6
f 1013/4/2 1022/4/2 1023/4/2 1014/4/2
f 1023/4/4 1022/4/4 870/4/4 869/4/4
f 1014/4/5 1023/4/5 869/4/5 867/4/5
f 1015/4/2 1024/4/2 1022/4/2 1013/4/2
f 1022/4/4 1024/4/4 871/4/4 870/4/4
f 1016/4/2 1025/4/2 1024/4/2 1015/4/2
f 1024/4/4 1025/4/4 872/4/4 871/4/4
f 1017/4/2 1026/4/2 1025/4/2 1016/4/2
f 1025/4/4 1026/4/4 873/4/4 872/4/4
f 1018/4/2 1027/4/2 1026/4/2 1017/4/2
f 1026/4/4 1027/4/4 874/4/4 873/4/4
f 1019/4/2 1028/4/2 1027/4/2 1018/4/2
f 1027/4/4 1028/4/4 875/4/4 874/4/4
f 1020/4/2 1029/4/2 1028/4/2 1019/4/2
f 1028/4/4 1029/4/4 876/4/4 875/4/4
f 1021/5/2 1030/5/2 1029/5/2 1020/5/2
f 1029/5/4 1030/5/4 877/5/4 876/5/4
f 877/5/6 1030/5/6 1021/5/6 868/5/6
