# Dungine lever_wall_off; 1 voxel = 1/16 unit; Y-up floor-center origin
mtllib lever_wall_off.mtl
o lever_wall_off
s off
v -0.250000 1.125000 0.187500
v -0.250000 1.187500 0.187500
v -0.250000 1.187500 0.125000
v -0.250000 1.125000 0.125000
v -0.187500 1.187500 0.125000
v -0.187500 1.125000 0.125000
v -0.187500 1.125000 0.187500
v -0.187500 1.187500 0.187500
v -0.250000 1.062500 0.250000
v -0.250000 1.125000 0.250000
v -0.250000 1.062500 0.187500
v -0.187500 1.062500 0.187500
v -0.187500 1.062500 0.250000
v -0.250000 1.187500 0.250000
v -0.250000 1.250000 0.250000
v -0.250000 1.250000 0.187500
v -0.187500 1.250000 0.187500
v -0.187500 1.250000 0.250000
v -0.250000 1.062500 0.312500
v -0.250000 1.125000 0.312500
v -0.187500 1.062500 0.312500
v -0.250000 1.187500 0.312500
v -0.250000 1.250000 0.312500
v -0.187500 1.250000 0.312500
v -0.250000 1.062500 0.375000
v -0.250000 1.125000 0.375000
v -0.187500 1.062500 0.375000
v -0.187500 1.125000 0.375000
v -0.250000 1.187500 0.375000
v -0.187500 1.187500 0.375000
v -0.250000 1.250000 0.375000
v -0.187500 1.250000 0.375000
v -0.125000 1.187500 0.125000
v -0.125000 1.125000 0.125000
v -0.125000 1.125000 0.187500
v -0.125000 1.187500 0.187500
v -0.125000 1.062500 0.187500
v -0.125000 1.062500 0.250000
v -0.125000 1.250000 0.187500
v -0.125000 1.250000 0.250000
v -0.125000 1.062500 0.312500
v -0.125000 1.250000 0.312500
v -0.187500 0.812500 0.375000
v -0.187500 0.875000 0.375000
v -0.187500 0.875000 0.312500
v -0.187500 0.812500 0.312500
v -0.125000 0.875000 0.312500
v -0.125000 0.812500 0.312500
v -0.125000 0.812500 0.375000
v -0.125000 0.875000 0.375000
v -0.125000 1.062500 0.375000
v -0.125000 1.250000 0.375000
v -0.187500 1.375000 0.375000
v -0.187500 1.437500 0.375000
v -0.187500 1.437500 0.312500
v -0.187500 1.375000 0.312500
v -0.125000 1.437500 0.312500
v -0.125000 1.375000 0.312500
v -0.125000 1.375000 0.375000
v -0.125000 1.437500 0.375000
v -0.187500 0.750000 0.437500
v -0.187500 0.812500 0.437500
v -0.187500 0.750000 0.375000
v -0.125000 0.750000 0.375000
v -0.125000 0.750000 0.437500
v -0.187500 0.875000 0.437500
v -0.187500 0.937500 0.437500
v -0.187500 0.937500 0.375000
v -0.125000 0.937500 0.375000
v -0.187500 1.000000 0.437500
v -0.187500 1.000000 0.375000
v -0.125000 1.000000 0.375000
v -0.187500 1.062500 0.437500
v -0.187500 1.125000 0.437500
v -0.187500 1.187500 0.437500
v -0.187500 1.250000 0.437500
v -0.187500 1.312500 0.437500
v -0.187500 1.312500 0.375000
v -0.125000 1.312500 0.375000
v -0.187500 1.375000 0.437500
v -0.187500 1.437500 0.437500
v -0.125000 1.437500 0.437500
v -0.187500 0.750000 0.500000
v -0.187500 0.812500 0.500000
v -0.125000 0.750000 0.500000
v -0.125000 0.812500 0.500000
v -0.187500 0.875000 0.500000
v -0.125000 0.875000 0.500000
v -0.187500 0.937500 0.500000
v -0.125000 0.937500 0.500000
v -0.187500 1.000000 0.500000
v -0.125000 1.000000 0.500000
v -0.187500 1.062500 0.500000
v -0.125000 1.062500 0.500000
v -0.187500 1.125000 0.500000
v -0.125000 1.125000 0.500000
v -0.187500 1.187500 0.500000
v -0.125000 1.187500 0.500000
v -0.187500 1.250000 0.500000
v -0.125000 1.250000 0.500000
v -0.187500 1.312500 0.500000
v -0.125000 1.312500 0.500000
v -0.187500 1.375000 0.500000
v -0.125000 1.375000 0.500000
v -0.187500 1.437500 0.500000
v -0.125000 1.437500 0.500000
v -0.125000 1.500000 -0.125000
v -0.125000 1.562500 -0.125000
v -0.125000 1.562500 -0.187500
v -0.125000 1.500000 -0.187500
v -0.062500 1.562500 -0.187500
v -0.062500 1.500000 -0.187500
v -0.062500 1.500000 -0.125000
v -0.125000 1.625000 -0.125000
v -0.125000 1.625000 -0.187500
v -0.062500 1.625000 -0.187500
v -0.125000 1.687500 -0.125000
v -0.125000 1.687500 -0.187500
v -0.062500 1.687500 -0.187500
v -0.062500 1.687500 -0.125000
v -0.125000 1.500000 -0.062500
v -0.125000 1.562500 -0.062500
v -0.062500 1.500000 -0.062500
v -0.125000 1.625000 -0.062500
v -0.125000 1.687500 -0.062500
v -0.062500 1.687500 -0.062500
v -0.125000 1.500000 0.000000
v -0.125000 1.562500 0.000000
v -0.062500 1.500000 0.000000
v -0.062500 1.562500 0.000000
v -0.125000 1.625000 0.000000
v -0.062500 1.625000 0.000000
v -0.125000 1.687500 0.000000
v -0.062500 1.687500 0.000000
v -0.062500 1.187500 0.125000
v -0.062500 1.125000 0.125000
v -0.062500 1.125000 0.187500
v -0.062500 1.187500 0.187500
v -0.062500 1.062500 0.187500
v -0.062500 1.062500 0.250000
v -0.062500 1.250000 0.187500
v -0.062500 1.250000 0.250000
v -0.062500 1.062500 0.312500
v -0.062500 1.250000 0.312500
v -0.062500 0.875000 0.312500
v -0.062500 0.812500 0.312500
v -0.062500 0.812500 0.375000
v -0.125000 0.937500 0.312500
v -0.062500 0.937500 0.312500
v -0.125000 1.000000 0.312500
v -0.062500 1.000000 0.312500
v -0.125000 1.312500 0.312500
v -0.062500 1.312500 0.312500
v -0.062500 1.375000 0.312500
v -0.062500 1.437500 0.312500
v -0.062500 1.437500 0.375000
v -0.062500 0.750000 0.375000
v -0.062500 0.750000 0.437500
v -0.125000 1.500000 0.437500
v -0.125000 1.500000 0.375000
v -0.062500 1.500000 0.375000
v -0.062500 1.500000 0.437500
v -0.062500 0.750000 0.500000
v -0.062500 0.812500 0.500000
v -0.062500 0.875000 0.500000
v -0.062500 0.937500 0.500000
v -0.062500 1.000000 0.500000
v -0.062500 1.062500 0.500000
v -0.062500 1.125000 0.500000
v -0.062500 1.187500 0.500000
v -0.062500 1.250000 0.500000
v -0.062500 1.312500 0.500000
v -0.062500 1.375000 0.500000
v -0.062500 1.437500 0.500000
v -0.125000 1.500000 0.500000
v -0.062500 1.500000 0.500000
v 0.000000 1.562500 -0.187500
v 0.000000 1.500000 -0.187500
v 0.000000 1.500000 -0.125000
v 0.000000 1.625000 -0.187500
v 0.000000 1.687500 -0.187500
v 0.000000 1.687500 -0.125000
v 0.000000 1.500000 -0.062500
v 0.000000 1.687500 -0.062500
v -0.062500 1.437500 0.000000
v -0.062500 1.437500 -0.062500
v 0.000000 1.437500 -0.062500
v 0.000000 1.437500 0.000000
v 0.000000 1.562500 0.000000
v 0.000000 1.625000 0.000000
v 0.000000 1.687500 0.000000
v -0.062500 1.375000 0.062500
v -0.062500 1.437500 0.062500
v -0.062500 1.375000 0.000000
v 0.000000 1.375000 0.000000
v 0.000000 1.375000 0.062500
v -0.062500 1.500000 0.062500
v -0.062500 1.562500 0.062500
v 0.000000 1.500000 0.062500
v 0.000000 1.562500 0.062500
v -0.062500 1.312500 0.125000
v -0.062500 1.375000 0.125000
v -0.062500 1.312500 0.062500
v 0.000000 1.312500 0.062500
v 0.000000 1.312500 0.125000
v -0.062500 1.437500 0.125000
v -0.062500 1.500000 0.125000
v 0.000000 1.437500 0.125000
v 0.000000 1.500000 0.125000
v 0.000000 1.187500 0.125000
v 0.000000 1.125000 0.125000
v 0.000000 1.125000 0.187500
v 0.000000 1.187500 0.187500
v -0.062500 1.312500 0.187500
v -0.062500 1.250000 0.125000
v 0.000000 1.250000 0.125000
v 0.000000 1.250000 0.187500
v -0.062500 1.375000 0.187500
v -0.062500 1.437500 0.187500
v 0.000000 1.375000 0.187500
v 0.000000 1.437500 0.187500
v 0.000000 1.062500 0.187500
v 0.000000 1.062500 0.250000
v -0.062500 1.312500 0.250000
v -0.062500 1.375000 0.250000
v 0.000000 1.312500 0.250000
v 0.000000 1.375000 0.250000
v 0.000000 1.062500 0.312500
v 0.000000 1.312500 0.312500
v 0.000000 0.875000 0.312500
v 0.000000 0.812500 0.312500
v 0.000000 0.812500 0.375000
v 0.000000 0.937500 0.312500
v 0.000000 1.000000 0.312500
v 0.000000 1.375000 0.312500
v 0.000000 1.437500 0.312500
v 0.000000 1.437500 0.375000
v 0.000000 0.750000 0.375000
v 0.000000 0.750000 0.437500
v 0.000000 1.500000 0.375000
v 0.000000 1.500000 0.437500
v 0.000000 0.750000 0.500000
v 0.000000 0.812500 0.500000
v 0.000000 0.875000 0.500000
v 0.000000 0.937500 0.500000
v 0.000000 1.000000 0.500000
v 0.000000 1.062500 0.500000
v 0.000000 1.125000 0.500000
v 0.000000 1.187500 0.500000
v 0.000000 1.250000 0.500000
v 0.000000 1.312500 0.500000
v 0.000000 1.375000 0.500000
v 0.000000 1.437500 0.500000
v 0.000000 1.500000 0.500000
v 0.062500 1.562500 -0.187500
v 0.062500 1.500000 -0.187500
v 0.062500 1.500000 -0.125000
v 0.062500 1.625000 -0.187500
v 0.062500 1.687500 -0.187500
v 0.062500 1.687500 -0.125000
v 0.062500 1.500000 -0.062500
v 0.062500 1.687500 -0.062500
v 0.062500 1.500000 0.000000
v 0.062500 1.437500 0.000000
v 0.062500 1.437500 -0.062500
v 0.062500 1.562500 0.000000
v 0.062500 1.625000 0.000000
v 0.062500 1.687500 0.000000
v 0.062500 1.437500 0.062500
v 0.062500 1.375000 0.062500
v 0.062500 1.375000 0.000000
v 0.062500 1.500000 0.062500
v 0.062500 1.562500 0.062500
v 0.062500 1.375000 0.125000
v 0.062500 1.312500 0.125000
v 0.062500 1.312500 0.062500
v 0.062500 1.437500 0.125000
v 0.062500 1.500000 0.125000
v 0.062500 1.187500 0.125000
v 0.062500 1.125000 0.125000
v 0.062500 1.125000 0.187500
v 0.062500 1.187500 0.187500
v 0.062500 1.312500 0.187500
v 0.062500 1.250000 0.187500
v 0.062500 1.250000 0.125000
v 0.062500 1.375000 0.187500
v 0.062500 1.437500 0.187500
v 0.062500 1.062500 0.187500
v 0.062500 1.062500 0.250000
v 0.062500 1.312500 0.250000
v 0.062500 1.250000 0.250000
v 0.062500 1.375000 0.250000
v 0.062500 1.062500 0.312500
v 0.062500 1.312500 0.312500
v 0.062500 1.250000 0.312500
v 0.062500 0.875000 0.312500
v 0.062500 0.812500 0.312500
v 0.062500 0.812500 0.375000
v 0.062500 0.937500 0.312500
v 0.062500 1.000000 0.312500
v 0.062500 1.375000 0.312500
v 0.062500 1.437500 0.312500
v 0.062500 1.437500 0.375000
v 0.062500 0.750000 0.375000
v 0.062500 0.750000 0.437500
v 0.062500 1.500000 0.375000
v 0.062500 1.500000 0.437500
v 0.062500 0.750000 0.500000
v 0.062500 0.812500 0.500000
v 0.062500 0.875000 0.500000
v 0.062500 0.937500 0.500000
v 0.062500 1.000000 0.500000
v 0.062500 1.062500 0.500000
v 0.062500 1.125000 0.500000
v 0.062500 1.187500 0.500000
v 0.062500 1.250000 0.500000
v 0.062500 1.312500 0.500000
v 0.062500 1.375000 0.500000
v 0.062500 1.437500 0.500000
v 0.062500 1.500000 0.500000
v 0.125000 1.562500 -0.187500
v 0.125000 1.562500 -0.125000
v 0.125000 1.500000 -0.125000
v 0.125000 1.500000 -0.187500
v 0.125000 1.625000 -0.187500
v 0.125000 1.625000 -0.125000
v 0.125000 1.687500 -0.187500
v 0.125000 1.687500 -0.125000
v 0.125000 1.562500 -0.062500
v 0.125000 1.500000 -0.062500
v 0.125000 1.625000 -0.062500
v 0.125000 1.687500 -0.062500
v 0.125000 1.562500 0.000000
v 0.125000 1.500000 0.000000
v 0.125000 1.625000 0.000000
v 0.125000 1.687500 0.000000
v 0.125000 1.187500 0.125000
v 0.125000 1.125000 0.125000
v 0.125000 1.125000 0.187500
v 0.125000 1.187500 0.187500
v 0.125000 1.062500 0.187500
v 0.125000 1.062500 0.250000
v 0.125000 1.250000 0.187500
v 0.125000 1.250000 0.250000
v 0.125000 1.062500 0.312500
v 0.125000 1.250000 0.312500
v 0.125000 0.875000 0.312500
v 0.125000 0.812500 0.312500
v 0.125000 0.812500 0.375000
v 0.125000 0.937500 0.312500
v 0.125000 0.937500 0.375000
v 0.125000 0.875000 0.375000
v 0.125000 1.000000 0.312500
v 0.125000 1.000000 0.375000
v 0.125000 1.062500 0.375000
v 0.125000 1.312500 0.312500
v 0.125000 1.312500 0.375000
v 0.125000 1.250000 0.375000
v 0.125000 1.375000 0.312500
v 0.125000 1.375000 0.375000
v 0.125000 1.437500 0.312500
v 0.125000 1.437500 0.375000
v 0.125000 0.750000 0.375000
v 0.125000 0.750000 0.437500
v 0.125000 1.500000 0.375000
v 0.125000 1.500000 0.437500
v 0.125000 0.750000 0.500000
v 0.125000 0.812500 0.500000
v 0.125000 0.875000 0.500000
v 0.125000 0.937500 0.500000
v 0.125000 1.000000 0.500000
v 0.125000 1.062500 0.500000
v 0.125000 1.125000 0.500000
v 0.125000 1.187500 0.500000
v 0.125000 1.250000 0.500000
v 0.125000 1.312500 0.500000
v 0.125000 1.375000 0.500000
v 0.125000 1.437500 0.500000
v 0.125000 1.500000 0.500000
v 0.187500 1.187500 0.125000
v 0.187500 1.125000 0.125000
v 0.187500 1.125000 0.187500
v 0.187500 1.187500 0.187500
v 0.187500 1.062500 0.187500
v 0.187500 1.062500 0.250000
v 0.187500 1.250000 0.187500
v 0.187500 1.250000 0.250000
v 0.187500 1.062500 0.312500
v 0.187500 1.250000 0.312500
v 0.187500 0.875000 0.312500
v 0.187500 0.875000 0.375000
v 0.187500 0.812500 0.375000
v 0.187500 0.812500 0.312500
v 0.187500 1.062500 0.375000
v 0.187500 1.250000 0.375000
v 0.187500 1.437500 0.312500
v 0.187500 1.437500 0.375000
v 0.187500 1.375000 0.375000
v 0.187500 1.375000 0.312500
v 0.187500 0.812500 0.437500
v 0.187500 0.750000 0.437500
v 0.187500 0.750000 0.375000
v 0.187500 0.875000 0.437500
v 0.187500 0.937500 0.375000
v 0.187500 0.937500 0.437500
v 0.187500 1.000000 0.375000
v 0.187500 1.000000 0.437500
v 0.187500 1.062500 0.437500
v 0.187500 1.125000 0.375000
v 0.187500 1.125000 0.437500
v 0.187500 1.187500 0.375000
v 0.187500 1.187500 0.437500
v 0.187500 1.250000 0.437500
v 0.187500 1.312500 0.375000
v 0.187500 1.312500 0.437500
v 0.187500 1.375000 0.437500
v 0.187500 1.437500 0.437500
v 0.187500 1.500000 0.375000
v 0.187500 1.500000 0.437500
v 0.187500 0.812500 0.500000
v 0.187500 0.750000 0.500000
v 0.187500 0.875000 0.500000
v 0.187500 0.937500 0.500000
v 0.187500 1.000000 0.500000
v 0.187500 1.062500 0.500000
v 0.187500 1.125000 0.500000
v 0.187500 1.187500 0.500000
v 0.187500 1.250000 0.500000
v 0.187500 1.312500 0.500000
v 0.187500 1.375000 0.500000
v 0.187500 1.437500 0.500000
v 0.187500 1.500000 0.500000
v 0.250000 1.187500 0.125000
v 0.250000 1.187500 0.187500
v 0.250000 1.125000 0.187500
v 0.250000 1.125000 0.125000
v 0.250000 1.125000 0.250000
v 0.250000 1.062500 0.250000
v 0.250000 1.062500 0.187500
v 0.250000 1.187500 0.250000
v 0.250000 1.250000 0.187500
v 0.250000 1.250000 0.250000
v 0.250000 1.125000 0.312500
v 0.250000 1.062500 0.312500
v 0.250000 1.187500 0.312500
v 0.250000 1.250000 0.312500
v 0.250000 1.125000 0.375000
v 0.250000 1.062500 0.375000
v 0.250000 1.187500 0.375000
v 0.250000 1.250000 0.375000
vt 0.03125000 0.96875000
vt 0.09375000 0.96875000
vt 0.15625000 0.96875000
vt 0.21875000 0.96875000
vt 0.28125000 0.96875000
vt 0.34375000 0.96875000
vt 0.40625000 0.96875000
vt 0.46875000 0.96875000
vt 0.53125000 0.96875000
vt 0.59375000 0.96875000
vt 0.65625000 0.96875000
vt 0.71875000 0.96875000
vt 0.78125000 0.96875000
vt 0.84375000 0.96875000
vt 0.90625000 0.96875000
vt 0.96875000 0.96875000
vt 0.03125000 0.90625000
vt 0.09375000 0.90625000
vt 0.15625000 0.90625000
vt 0.21875000 0.90625000
vt 0.28125000 0.90625000
vt 0.34375000 0.90625000
vt 0.40625000 0.90625000
vt 0.46875000 0.90625000
vt 0.53125000 0.90625000
vt 0.59375000 0.90625000
vt 0.65625000 0.90625000
vt 0.71875000 0.90625000
vt 0.78125000 0.90625000
vt 0.84375000 0.90625000
vt 0.90625000 0.90625000
vt 0.96875000 0.90625000
vt 0.03125000 0.84375000
vt 0.09375000 0.84375000
vt 0.15625000 0.84375000
vt 0.21875000 0.84375000
vt 0.28125000 0.84375000
vt 0.34375000 0.84375000
vt 0.40625000 0.84375000
vt 0.46875000 0.84375000
vt 0.53125000 0.84375000
vt 0.59375000 0.84375000
vt 0.65625000 0.84375000
vt 0.71875000 0.84375000
vt 0.78125000 0.84375000
vt 0.84375000 0.84375000
vt 0.90625000 0.84375000
vt 0.96875000 0.84375000
vt 0.03125000 0.78125000
vt 0.09375000 0.78125000
vt 0.15625000 0.78125000
vt 0.21875000 0.78125000
vt 0.28125000 0.78125000
vt 0.34375000 0.78125000
vt 0.40625000 0.78125000
vt 0.46875000 0.78125000
vt 0.53125000 0.78125000
vt 0.59375000 0.78125000
vt 0.65625000 0.78125000
vt 0.71875000 0.78125000
vt 0.78125000 0.78125000
vt 0.84375000 0.78125000
vt 0.90625000 0.78125000
vt 0.96875000 0.78125000
vt 0.03125000 0.71875000
vt 0.09375000 0.71875000
vt 0.15625000 0.71875000
vt 0.21875000 0.71875000
vt 0.28125000 0.71875000
vt 0.34375000 0.71875000
vt 0.40625000 0.71875000
vt 0.46875000 0.71875000
vt 0.53125000 0.71875000
vt 0.59375000 0.71875000
vt 0.65625000 0.71875000
vt 0.71875000 0.71875000
vt 0.78125000 0.71875000
vt 0.84375000 0.71875000
vt 0.90625000 0.71875000
vt 0.96875000 0.71875000
vt 0.03125000 0.65625000
vt 0.09375000 0.65625000
vt 0.15625000 0.65625000
vt 0.21875000 0.65625000
vt 0.28125000 0.65625000
vt 0.34375000 0.65625000
vt 0.40625000 0.65625000
vt 0.46875000 0.65625000
vt 0.53125000 0.65625000
vt 0.59375000 0.65625000
vt 0.65625000 0.65625000
vt 0.71875000 0.65625000
vt 0.78125000 0.65625000
vt 0.84375000 0.65625000
vt 0.90625000 0.65625000
vt 0.96875000 0.65625000
vt 0.03125000 0.59375000
vt 0.09375000 0.59375000
vt 0.15625000 0.59375000
vt 0.21875000 0.59375000
vt 0.28125000 0.59375000
vt 0.34375000 0.59375000
vt 0.40625000 0.59375000
vt 0.46875000 0.59375000
vt 0.53125000 0.59375000
vt 0.59375000 0.59375000
vt 0.65625000 0.59375000
vt 0.71875000 0.59375000
vt 0.78125000 0.59375000
vt 0.84375000 0.59375000
vt 0.90625000 0.59375000
vt 0.96875000 0.59375000
vt 0.03125000 0.53125000
vt 0.09375000 0.53125000
vt 0.15625000 0.53125000
vt 0.21875000 0.53125000
vt 0.28125000 0.53125000
vt 0.34375000 0.53125000
vt 0.40625000 0.53125000
vt 0.46875000 0.53125000
vt 0.53125000 0.53125000
vt 0.59375000 0.53125000
vt 0.65625000 0.53125000
vt 0.71875000 0.53125000
vt 0.78125000 0.53125000
vt 0.84375000 0.53125000
vt 0.90625000 0.53125000
vt 0.96875000 0.53125000
vt 0.03125000 0.46875000
vt 0.09375000 0.46875000
vt 0.15625000 0.46875000
vt 0.21875000 0.46875000
vt 0.28125000 0.46875000
vt 0.34375000 0.46875000
vt 0.40625000 0.46875000
vt 0.46875000 0.46875000
vt 0.53125000 0.46875000
vt 0.59375000 0.46875000
vt 0.65625000 0.46875000
vt 0.71875000 0.46875000
vt 0.78125000 0.46875000
vt 0.84375000 0.46875000
vt 0.90625000 0.46875000
vt 0.96875000 0.46875000
vt 0.03125000 0.40625000
vt 0.09375000 0.40625000
vt 0.15625000 0.40625000
vt 0.21875000 0.40625000
vt 0.28125000 0.40625000
vt 0.34375000 0.40625000
vt 0.40625000 0.40625000
vt 0.46875000 0.40625000
vt 0.53125000 0.40625000
vt 0.59375000 0.40625000
vt 0.65625000 0.40625000
vt 0.71875000 0.40625000
vt 0.78125000 0.40625000
vt 0.84375000 0.40625000
vt 0.90625000 0.40625000
vt 0.96875000 0.40625000
vt 0.03125000 0.34375000
vt 0.09375000 0.34375000
vt 0.15625000 0.34375000
vt 0.21875000 0.34375000
vt 0.28125000 0.34375000
vt 0.34375000 0.34375000
vt 0.40625000 0.34375000
vt 0.46875000 0.34375000
vt 0.53125000 0.34375000
vt 0.59375000 0.34375000
vt 0.65625000 0.34375000
vt 0.71875000 0.34375000
vt 0.78125000 0.34375000
vt 0.84375000 0.34375000
vt 0.90625000 0.34375000
vt 0.96875000 0.34375000
vt 0.03125000 0.28125000
vt 0.09375000 0.28125000
vt 0.15625000 0.28125000
vt 0.21875000 0.28125000
vt 0.28125000 0.28125000
vt 0.34375000 0.28125000
vt 0.40625000 0.28125000
vt 0.46875000 0.28125000
vt 0.53125000 0.28125000
vt 0.59375000 0.28125000
vt 0.65625000 0.28125000
vt 0.71875000 0.28125000
vt 0.78125000 0.28125000
vt 0.84375000 0.28125000
vt 0.90625000 0.28125000
vt 0.96875000 0.28125000
vt 0.03125000 0.21875000
vt 0.09375000 0.21875000
vt 0.15625000 0.21875000
vt 0.21875000 0.21875000
vt 0.28125000 0.21875000
vt 0.34375000 0.21875000
vt 0.40625000 0.21875000
vt 0.46875000 0.21875000
vt 0.53125000 0.21875000
vt 0.59375000 0.21875000
vt 0.65625000 0.21875000
vt 0.71875000 0.21875000
vt 0.78125000 0.21875000
vt 0.84375000 0.21875000
vt 0.90625000 0.21875000
vt 0.96875000 0.21875000
vt 0.03125000 0.15625000
vt 0.09375000 0.15625000
vt 0.15625000 0.15625000
vt 0.21875000 0.15625000
vt 0.28125000 0.15625000
vt 0.34375000 0.15625000
vt 0.40625000 0.15625000
vt 0.46875000 0.15625000
vt 0.53125000 0.15625000
vt 0.59375000 0.15625000
vt 0.65625000 0.15625000
vt 0.71875000 0.15625000
vt 0.78125000 0.15625000
vt 0.84375000 0.15625000
vt 0.90625000 0.15625000
vt 0.96875000 0.15625000
vt 0.03125000 0.09375000
vt 0.09375000 0.09375000
vt 0.15625000 0.09375000
vt 0.21875000 0.09375000
vt 0.28125000 0.09375000
vt 0.34375000 0.09375000
vt 0.40625000 0.09375000
vt 0.46875000 0.09375000
vt 0.53125000 0.09375000
vt 0.59375000 0.09375000
vt 0.65625000 0.09375000
vt 0.71875000 0.09375000
vt 0.78125000 0.09375000
vt 0.84375000 0.09375000
vt 0.90625000 0.09375000
vt 0.96875000 0.09375000
vt 0.03125000 0.03125000
vt 0.09375000 0.03125000
vt 0.15625000 0.03125000
vt 0.21875000 0.03125000
vt 0.28125000 0.03125000
vt 0.34375000 0.03125000
vt 0.40625000 0.03125000
vt 0.46875000 0.03125000
vt 0.53125000 0.03125000
vt 0.59375000 0.03125000
vt 0.65625000 0.03125000
vt 0.71875000 0.03125000
vt 0.78125000 0.03125000
vt 0.84375000 0.03125000
vt 0.90625000 0.03125000
vt 0.96875000 0.03125000
vn -1 0 0
vn 1 0 0
vn 0 0 -1
vn 0 0 1
vn 0 -1 0
vn 0 1 0
g palette
usemtl palette
f 1/55/1 2/55/1 3/55/1 4/55/1
f 3/55/3 5/55/3 6/55/3 4/55/3
f 6/55/5 7/55/5 1/55/5 4/55/5
f 2/55/6 8/55/6 5/55/6 3/55/6
f 9/53/1 10/53/1 1/53/1 11/53/1
f 1/53/3 7/53/3 12/53/3 11/53/3
f 12/53/5 13/53/5 9/53/5 11/53/5
f 10/53/1 14/53/1 2/53/1 1/53/1
f 14/53/1 15/53/1 16/53/1 2/53/1
f 16/53/3 17/53/3 8/53/3 2/53/3
f 15/53/6 18/53/6 17/53/6 16/53/6
f 19/53/1 20/53/1 10/53/1 9/53/1
f 13/53/5 21/53/5 19/53/5 9/53/5
f 20/53/1 22/53/1 14/53/1 10/53/1
f 22/53/1 23/53/1 15/53/1 14/53/1
f 23/53/6 24/53/6 18/53/6 15/53/6
f 25/53/1 26/53/1 20/53/1 19/53/1
f 27/53/4 28/53/4 26/53/4 25/53/4
f 21/53/5 27/53/5 25/53/5 19/53/5
f 26/53/1 29/53/1 22/53/1 20/53/1
f 28/53/4 30/53/4 29/53/4 26/53/4
f 29/53/1 31/53/1 23/53/1 22/53/1
f 30/53/4 32/53/4 31/53/4 29/53/4
f 31/53/6 32/53/6 24/53/6 23/53/6
f 5/55/3 33/55/3 34/55/3 6/55/3
f 34/55/5 35/55/5 7/55/5 6/55/5
f 8/55/6 36/55/6 33/55/6 5/55/6
f 7/53/3 35/53/3 37/53/3 12/53/3
f 37/53/5 38/53/5 13/53/5 12/53/5
f 17/53/3 39/53/3 36/53/3 8/53/3
f 18/53/6 40/53/6 39/53/6 17/53/6
f 38/53/5 41/53/5 21/53/5 13/53/5
f 24/53/6 42/53/6 40/53/6 18/53/6
f 43/55/1 44/55/1 45/55/1 46/55/1
f 45/55/3 47/55/3 48/55/3 46/55/3
f 48/55/5 49/55/5 43/55/5 46/55/5
f 44/55/6 50/55/6 47/55/6 45/55/6
f 41/53/5 51/53/5 27/53/5 21/53/5
f 32/53/6 52/53/6 42/53/6 24/53/6
f 53/55/1 54/55/1 55/55/1 56/55/1
f 55/55/3 57/55/3 58/55/3 56/55/3
f 58/55/5 59/55/5 53/55/5 56/55/5
f 54/55/6 60/55/6 57/55/6 55/55/6
f 61/53/1 62/53/1 43/53/1 63/53/1
f 43/53/3 49/53/3 64/53/3 63/53/3
f 64/53/5 65/53/5 61/53/5 63/53/5
f 62/53/1 66/53/1 44/53/1 43/53/1
f 66/53/1 67/53/1 68/53/1 44/53/1
f 68/53/3 69/53/3 50/53/3 44/53/3
f 67/53/1 70/53/1 71/53/1 68/53/1
f 71/53/3 72/53/3 69/53/3 68/53/3
f 70/53/1 73/53/1 27/53/1 71/53/1
f 27/53/3 51/53/3 72/53/3 71/53/3
f 73/53/1 74/53/1 28/53/1 27/53/1
f 74/53/1 75/53/1 30/53/1 28/53/1
f 75/53/1 76/53/1 32/53/1 30/53/1
f 76/53/1 77/53/1 78/53/1 32/53/1
f 78/53/3 79/53/3 52/53/3 32/53/3
f 77/53/1 80/53/1 53/53/1 78/53/1
f 53/53/3 59/53/3 79/53/3 78/53/3
f 80/53/1 81/53/1 54/53/1 53/53/1
f 81/53/6 82/53/6 60/53/6 54/53/6
f 83/53/1 84/53/1 62/53/1 61/53/1
f 85/53/4 86/53/4 84/53/4 83/53/4
f 65/53/5 85/53/5 83/53/5 61/53/5
f 84/53/1 87/53/1 66/53/1 62/53/1
f 86/53/4 88/53/4 87/53/4 84/53/4
f 87/53/1 89/53/1 67/53/1 66/53/1
f 88/53/4 90/53/4 89/53/4 87/53/4
f 89/53/1 91/53/1 70/53/1 67/53/1
f 90/53/4 92/53/4 91/53/4 89/53/4
f 91/53/1 93/53/1 73/53/1 70/53/1
f 92/53/4 94/53/4 93/53/4 91/53/4
f 93/53/1 95/53/1 74/53/1 73/53/1
f 94/53/4 96/53/4 95/53/4 93/53/4
f 95/53/1 97/53/1 75/53/1 74/53/1
f 96/53/4 98/53/4 97/53/4 95/53/4
f 97/53/1 99/53/1 76/53/1 75/53/1
f 98/53/4 100/53/4 99/53/4 97/53/4
f 99/53/1 101/53/1 77/53/1 76/53/1
f 100/53/4 102/53/4 101/53/4 99/53/4
f 101/53/1 103/53/1 80/53/1 77/53/1
f 102/53/4 104/53/4 103/53/4 101/53/4
f 103/53/1 105/53/1 81/53/1 80/53/1
f 104/53/4 106/53/4 105/53/4 103/53/4
f 105/53/6 106/53/6 82/53/6 81/53/6
f 107/36/1 108/36/1 109/36/1 110/36/1
f 109/36/3 111/36/3 112/36/3 110/36/3
f 112/36/5 113/36/5 107/36/5 110/36/5
f 108/37/1 114/37/1 115/37/1 109/37/1
f 115/37/3 116/37/3 111/37/3 109/37/3
f 114/38/1 117/38/1 118/38/1 115/38/1
f 118/38/3 119/38/3 116/38/3 115/38/3
f 117/38/6 120/38/6 119/38/6 118/38/6
f 121/37/1 122/37/1 108/37/1 107/37/1
f 113/37/5 123/37/5 121/37/5 107/37/5
f 122/37/1 124/37/1 114/37/1 108/37/1
f 124/38/1 125/38/1 117/38/1 114/38/1
f 125/38/6 126/38/6 120/38/6 117/38/6
f 127/37/1 128/37/1 122/37/1 121/37/1
f 129/37/4 130/37/4 128/37/4 127/37/4
f 123/37/5 129/37/5 127/37/5 121/37/5
f 128/37/1 131/37/1 124/37/1 122/37/1
f 130/37/4 132/37/4 131/37/4 128/37/4
f 131/37/1 133/37/1 125/37/1 124/37/1
f 132/37/4 134/37/4 133/37/4 131/37/4
f 133/37/6 134/37/6 126/37/6 125/37/6
f 33/55/3 135/55/3 136/55/3 34/55/3
f 136/55/5 137/55/5 35/55/5 34/55/5
f 36/55/6 138/55/6 135/55/6 33/55/6
f 35/53/3 137/53/3 139/53/3 37/53/3
f 139/53/5 140/53/5 38/53/5 37/53/5
f 39/53/3 141/53/3 138/53/3 36/53/3
f 40/53/6 142/53/6 141/53/6 39/53/6
f 140/53/5 143/53/5 41/53/5 38/53/5
f 42/53/6 144/53/6 142/53/6 40/53/6
f 47/54/3 145/54/3 146/54/3 48/54/3
f 146/54/5 147/54/5 49/54/5 48/54/5
f 50/54/1 69/54/1 148/54/1 47/54/1
f 148/54/3 149/54/3 145/54/3 47/54/3
f 69/54/1 72/54/1 150/54/1 148/54/1
f 150/54/3 151/54/3 149/54/3 148/54/3
f 72/54/1 51/54/1 41/54/1 150/54/1
f 41/54/3 143/54/3 151/54/3 150/54/3
f 52/54/1 79/54/1 152/54/1 42/54/1
f 152/54/3 153/54/3 144/54/3 42/54/3
f 79/54/1 59/54/1 58/54/1 152/54/1
f 58/54/3 154/54/3 153/54/3 152/54/3
f 57/54/3 155/54/3 154/54/3 58/54/3
f 60/54/6 156/54/6 155/54/6 57/54/6
f 49/53/3 147/53/3 157/53/3 64/53/3
f 157/53/5 158/53/5 65/53/5 64/53/5
f 82/53/1 159/53/1 160/53/1 60/53/1
f 160/53/3 161/53/3 156/53/3 60/53/3
f 159/53/6 162/53/6 161/53/6 160/53/6
f 163/53/4 164/53/4 86/53/4 85/53/4
f 158/53/5 163/53/5 85/53/5 65/53/5
f 164/53/4 165/53/4 88/53/4 86/53/4
f 165/53/4 166/53/4 90/53/4 88/53/4
f 166/53/4 167/53/4 92/53/4 90/53/4
f 167/53/4 168/53/4 94/53/4 92/53/4
f 168/53/4 169/53/4 96/53/4 94/53/4
f 169/53/4 170/53/4 98/53/4 96/53/4
f 170/53/4 171/53/4 100/53/4 98/53/4
f 171/53/4 172/53/4 102/53/4 100/53/4
f 172/53/4 173/53/4 104/53/4 102/53/4
f 173/53/4 174/53/4 106/53/4 104/53/4
f 106/53/1 175/53/1 159/53/1 82/53/1
f 174/53/4 176/53/4 175/53/4 106/53/4
f 175/53/6 176/53/6 162/53/6 159/53/6
f 111/36/3 177/36/3 178/36/3 112/36/3
f 178/36/5 179/36/5 113/36/5 112/36/5
f 116/37/3 180/37/3 177/37/3 111/37/3
f 119/38/3 181/38/3 180/38/3 116/38/3
f 120/38/6 182/38/6 181/38/6 119/38/6
f 179/37/5 183/37/5 123/37/5 113/37/5
f 126/38/6 184/38/6 182/38/6 120/38/6
f 185/54/1 129/54/1 123/54/1 186/54/1
f 123/54/3 183/54/3 187/54/3 186/54/3
f 187/54/5 188/54/5 185/54/5 186/54/5
f 189/37/4 190/37/4 132/37/4 130/37/4
f 190/37/4 191/37/4 134/37/4 132/37/4
f 134/37/6 191/37/6 184/37/6 126/37/6
f 192/54/1 193/54/1 185/54/1 194/54/1
f 185/54/3 188/54/3 195/54/3 194/54/3
f 195/54/5 196/54/5 192/54/5 194/54/5
f 193/54/1 197/54/1 129/54/1 185/54/1
f 197/54/1 198/54/1 130/54/1 129/54/1
f 199/54/4 200/54/4 198/54/4 197/54/4
f 198/54/6 200/54/6 189/54/6 130/54/6
f 201/54/1 202/54/1 192/54/1 203/54/1
f 192/54/3 196/54/3 204/54/3 203/54/3
f 204/54/5 205/54/5 201/54/5 203/54/5
f 202/54/1 206/54/1 193/54/1 192/54/1
f 206/54/1 207/54/1 197/54/1 193/54/1
f 208/54/4 209/54/4 207/54/4 206/54/4
f 207/54/6 209/54/6 199/54/6 197/54/6
f 135/55/3 210/55/3 211/55/3 136/55/3
f 211/55/5 212/55/5 137/55/5 136/55/5
f 138/55/6 213/55/6 210/55/6 135/55/6
f 141/54/1 214/54/1 201/54/1 215/54/1
f 201/54/3 205/54/3 216/54/3 215/54/3
f 216/54/5 217/54/5 141/54/5 215/54/5
f 214/54/1 218/54/1 202/54/1 201/54/1
f 218/54/1 219/54/1 206/54/1 202/54/1
f 220/54/4 221/54/4 219/54/4 218/54/4
f 219/54/6 221/54/6 208/54/6 206/54/6
f 137/53/3 212/53/3 222/53/3 139/53/3
f 222/53/5 223/53/5 140/53/5 139/53/5
f 141/54/3 217/54/3 213/54/3 138/54/3
f 142/54/1 224/54/1 214/54/1 141/54/1
f 224/54/1 225/54/1 218/54/1 214/54/1
f 226/54/4 227/54/4 225/54/4 224/54/4
f 225/54/6 227/54/6 220/54/6 218/54/6
f 223/53/5 228/53/5 143/53/5 140/53/5
f 144/54/1 153/54/1 224/54/1 142/54/1
f 153/54/6 229/54/6 226/54/6 224/54/6
f 145/54/3 230/54/3 231/54/3 146/54/3
f 231/54/5 232/54/5 147/54/5 146/54/5
f 149/54/3 233/54/3 230/54/3 145/54/3
f 151/54/3 234/54/3 233/54/3 149/54/3
f 143/54/3 228/54/3 234/54/3 151/54/3
f 154/54/3 235/54/3 229/54/3 153/54/3
f 155/54/3 236/54/3 235/54/3 154/54/3
f 156/54/6 237/54/6 236/54/6 155/54/6
f 147/53/3 232/53/3 238/53/3 157/53/3
f 238/53/5 239/53/5 158/53/5 157/53/5
f 161/53/3 240/53/3 237/53/3 156/53/3
f 162/53/6 241/53/6 240/53/6 161/53/6
f 242/53/4 243/53/4 164/53/4 163/53/4
f 239/53/5 242/53/5 163/53/5 158/53/5
f 243/53/4 244/53/4 165/53/4 164/53/4
f 244/53/4 245/53/4 166/53/4 165/53/4
f 245/53/4 246/53/4 167/53/4 166/53/4
f 246/53/4 247/53/4 168/53/4 167/53/4
f 247/53/4 248/53/4 169/53/4 168/53/4
f 248/53/4 249/53/4 170/53/4 169/53/4
f 249/53/4 250/53/4 171/53/4 170/53/4
f 250/53/4 251/53/4 172/53/4 171/53/4
f 251/53/4 252/53/4 173/53/4 172/53/4
f 252/53/4 253/53/4 174/53/4 173/53/4
f 253/53/4 254/53/4 176/53/4 174/53/4
f 176/53/6 254/53/6 241/53/6 162/53/6
f 177/36/3 255/36/3 256/36/3 178/36/3
f 256/36/5 257/36/5 179/36/5 178/36/5
f 180/37/3 258/37/3 255/37/3 177/37/3
f 181/38/3 259/38/3 258/38/3 180/38/3
f 182/38/6 260/38/6 259/38/6 181/38/6
f 257/37/5 261/37/5 183/37/5 179/37/5
f 184/38/6 262/38/6 260/38/6 182/38/6
f 261/54/2 263/54/2 264/54/2 265/54/2
f 183/54/3 261/54/3 265/54/3 187/54/3
f 265/54/5 264/54/5 188/54/5 187/54/5
f 266/37/4 267/37/4 190/37/4 189/37/4
f 267/37/4 268/37/4 191/37/4 190/37/4
f 191/37/6 268/37/6 262/37/6 184/37/6
f 264/54/2 269/54/2 270/54/2 271/54/2
f 188/54/3 264/54/3 271/54/3 195/54/3
f 271/54/5 270/54/5 196/54/5 195/54/5
f 263/54/2 272/54/2 269/54/2 264/54/2
f 266/54/2 273/54/2 272/54/2 263/54/2
f 272/54/4 273/54/4 200/54/4 199/54/4
f 200/54/6 273/54/6 266/54/6 189/54/6
f 270/54/2 274/54/2 275/54/2 276/54/2
f 196/54/3 270/54/3 276/54/3 204/54/3
f 276/54/5 275/54/5 205/54/5 204/54/5
f 269/54/2 277/54/2 274/54/2 270/54/2
f 272/54/2 278/54/2 277/54/2 269/54/2
f 277/54/4 278/54/4 209/54/4 208/54/4
f 209/54/6 278/54/6 272/54/6 199/54/6
f 210/55/3 279/55/3 280/55/3 211/55/3
f 280/55/5 281/55/5 212/55/5 211/55/5
f 213/55/6 282/55/6 279/55/6 210/55/6
f 275/54/2 283/54/2 284/54/2 285/54/2
f 205/54/3 275/54/3 285/54/3 216/54/3
f 285/54/5 284/54/5 217/54/5 216/54/5
f 274/54/2 286/54/2 283/54/2 275/54/2
f 277/54/2 287/54/2 286/54/2 274/54/2
f 286/54/4 287/54/4 221/54/4 220/54/4
f 221/54/6 287/54/6 277/54/6 208/54/6
f 212/53/3 281/53/3 288/53/3 222/53/3
f 288/53/5 289/53/5 223/53/5 222/53/5
f 217/54/3 284/54/3 282/54/3 213/54/3
f 283/54/2 290/54/2 291/54/2 284/54/2
f 286/54/2 292/54/2 290/54/2 283/54/2
f 290/54/4 292/54/4 227/54/4 226/54/4
f 227/54/6 292/54/6 286/54/6 220/54/6
f 289/53/5 293/53/5 228/53/5 223/53/5
f 290/54/2 294/54/2 295/54/2 291/54/2
f 229/54/6 294/54/6 290/54/6 226/54/6
f 230/54/3 296/54/3 297/54/3 231/54/3
f 297/54/5 298/54/5 232/54/5 231/54/5
f 233/54/3 299/54/3 296/54/3 230/54/3
f 234/54/3 300/54/3 299/54/3 233/54/3
f 228/54/3 293/54/3 300/54/3 234/54/3
f 235/54/3 301/54/3 294/54/3 229/54/3
f 236/54/3 302/54/3 301/54/3 235/54/3
f 237/54/6 303/54/6 302/54/6 236/54/6
f 232/53/3 298/53/3 304/53/3 238/53/3
f 304/53/5 305/53/5 239/53/5 238/53/5
f 240/53/3 306/53/3 303/53/3 237/53/3
f 241/53/6 307/53/6 306/53/6 240/53/6
f 308/53/4 309/53/4 243/53/4 242/53/4
f 305/53/5 308/53/5 242/53/5 239/53/5
f 309/53/4 310/53/4 244/53/4 243/53/4
f 310/53/4 311/53/4 245/53/4 244/53/4
f 311/53/4 312/53/4 246/53/4 245/53/4
f 312/53/4 313/53/4 247/53/4 246/53/4
f 313/53/4 314/53/4 248/53/4 247/53/4
f 314/53/4 315/53/4 249/53/4 248/53/4
f 315/53/4 316/53/4 250/53/4 249/53/4
f 316/53/4 317/53/4 251/53/4 250/53/4
f 317/53/4 318/53/4 252/53/4 251/53/4
f 318/53/4 319/53/4 253/53/4 252/53/4
f 319/53/4 320/53/4 254/53/4 253/53/4
f 254/53/6 320/53/6 307/53/6 241/53/6
f 321/36/2 322/36/2 323/36/2 324/36/2
f 255/36/3 321/36/3 324/36/3 256/36/3
f 324/36/5 323/36/5 257/36/5 256/36/5
f 325/37/2 326/37/2 322/37/2 321/37/2
f 258/37/3 325/37/3 321/37/3 255/37/3
f 327/38/2 328/38/2 326/38/2 325/38/2
f 259/38/3 327/38/3 325/38/3 258/38/3
f 260/38/6 328/38/6 327/38/6 259/38/6
f 322/37/2 329/37/2 330/37/2 323/37/2
f 323/37/5 330/37/5 261/37/5 257/37/5
f 326/37/2 331/37/2 329/37/2 322/37/2
f 328/38/2 332/38/2 331/38/2 326/38/2
f 262/38/6 332/38/6 328/38/6 260/38/6
f 329/37/2 333/37/2 334/37/2 330/37/2
f 334/37/4 333/37/4 266/37/4 263/37/4
f 330/37/5 334/37/5 263/37/5 261/37/5
f 331/37/2 335/37/2 333/37/2 329/37/2
f 333/37/4 335/37/4 267/37/4 266/37/4
f 332/37/2 336/37/2 335/37/2 331/37/2
f 335/37/4 336/37/4 268/37/4 267/37/4
f 268/37/6 336/37/6 332/37/6 262/37/6
f 279/55/3 337/55/3 338/55/3 280/55/3
f 338/55/5 339/55/5 281/55/5 280/55/5
f 282/55/6 340/55/6 337/55/6 279/55/6
f 281/53/3 339/53/3 341/53/3 288/53/3
f 341/53/5 342/53/5 289/53/5 288/53/5
f 284/53/3 343/53/3 340/53/3 282/53/3
f 291/53/6 344/53/6 343/53/6 284/53/6
f 342/53/5 345/53/5 293/53/5 289/53/5
f 295/53/6 346/53/6 344/53/6 291/53/6
f 296/54/3 347/54/3 348/54/3 297/54/3
f 348/54/5 349/54/5 298/54/5 297/54/5
f 350/54/2 351/54/2 352/54/2 347/54/2
f 299/54/3 350/54/3 347/54/3 296/54/3
f 353/54/2 354/54/2 351/54/2 350/54/2
f 300/54/3 353/54/3 350/54/3 299/54/3
f 345/54/2 355/54/2 354/54/2 353/54/2
f 293/54/3 345/54/3 353/54/3 300/54/3
f 356/54/2 357/54/2 358/54/2 346/54/2
f 294/54/3 356/54/3 346/54/3 295/54/3
f 359/54/2 360/54/2 357/54/2 356/54/2
f 301/54/3 359/54/3 356/54/3 294/54/3
f 302/54/3 361/54/3 359/54/3 301/54/3
f 303/54/6 362/54/6 361/54/6 302/54/6
f 298/53/3 349/53/3 363/53/3 304/53/3
f 363/53/5 364/53/5 305/53/5 304/53/5
f 306/53/3 365/53/3 362/53/3 303/53/3
f 307/53/6 366/53/6 365/53/6 306/53/6
f 367/53/4 368/53/4 309/53/4 308/53/4
f 364/53/5 367/53/5 308/53/5 305/53/5
f 368/53/4 369/53/4 310/53/4 309/53/4
f 369/53/4 370/53/4 311/53/4 310/53/4
f 370/53/4 371/53/4 312/53/4 311/53/4
f 371/53/4 372/53/4 313/53/4 312/53/4
f 372/53/4 373/53/4 314/53/4 313/53/4
f 373/53/4 374/53/4 315/53/4 314/53/4
f 374/53/4 375/53/4 316/53/4 315/53/4
f 375/53/4 376/53/4 317/53/4 316/53/4
f 376/53/4 377/53/4 318/53/4 317/53/4
f 377/53/4 378/53/4 319/53/4 318/53/4
f 378/53/4 379/53/4 320/53/4 319/53/4
f 320/53/6 379/53/6 366/53/6 307/53/6
f 337/55/3 380/55/3 381/55/3 338/55/3
f 381/55/5 382/55/5 339/55/5 338/55/5
f 340/55/6 383/55/6 380/55/6 337/55/6
f 339/53/3 382/53/3 384/53/3 341/53/3
f 384/53/5 385/53/5 342/53/5 341/53/5
f 343/53/3 386/53/3 383/53/3 340/53/3
f 344/53/6 387/53/6 386/53/6 343/53/6
f 385/53/5 388/53/5 345/53/5 342/53/5
f 346/53/6 389/53/6 387/53/6 344/53/6
f 390/55/2 391/55/2 392/55/2 393/55/2
f 347/55/3 390/55/3 393/55/3 348/55/3
f 393/55/5 392/55/5 349/55/5 348/55/5
f 352/55/6 391/55/6 390/55/6 347/55/6
f 388/53/5 394/53/5 355/53/5 345/53/5
f 358/53/6 395/53/6 389/53/6 346/53/6
f 396/55/2 397/55/2 398/55/2 399/55/2
f 361/55/3 396/55/3 399/55/3 359/55/3
f 399/55/5 398/55/5 360/55/5 359/55/5
f 362/55/6 397/55/6 396/55/6 361/55/6
f 392/53/2 400/53/2 401/53/2 402/53/2
f 349/53/3 392/53/3 402/53/3 363/53/3
f 402/53/5 401/53/5 364/53/5 363/53/5
f 391/53/2 403/53/2 400/53/2 392/53/2
f 404/53/2 405/53/2 403/53/2 391/53/2
f 351/53/3 404/53/3 391/53/3 352/53/3
f 406/53/2 407/53/2 405/53/2 404/53/2
f 354/53/3 406/53/3 404/53/3 351/53/3
f 394/53/2 408/53/2 407/53/2 406/53/2
f 355/53/3 394/53/3 406/53/3 354/53/3
f 409/53/2 410/53/2 408/53/2 394/53/2
f 411/53/2 412/53/2 410/53/2 409/53/2
f 395/53/2 413/53/2 412/53/2 411/53/2
f 414/53/2 415/53/2 413/53/2 395/53/2
f 357/53/3 414/53/3 395/53/3 358/53/3
f 398/53/2 416/53/2 415/53/2 414/53/2
f 360/53/3 398/53/3 414/53/3 357/53/3
f 397/53/2 417/53/2 416/53/2 398/53/2
f 418/53/2 419/53/2 417/53/2 397/53/2
f 365/53/3 418/53/3 397/53/3 362/53/3
f 366/53/6 419/53/6 418/53/6 365/53/6
f 400/53/2 420/53/2 421/53/2 401/53/2
f 421/53/4 420/53/4 368/53/4 367/53/4
f 401/53/5 421/53/5 367/53/5 364/53/5
f 403/53/2 422/53/2 420/53/2 400/53/2
f 420/53/4 422/53/4 369/53/4 368/53/4
f 405/53/2 423/53/2 422/53/2 403/53/2
f 422/53/4 423/53/4 370/53/4 369/53/4
f 407/53/2 424/53/2 423/53/2 405/53/2
f 423/53/4 424/53/4 371/53/4 370/53/4
f 408/53/2 425/53/2 424/53/2 407/53/2
f 424/53/4 425/53/4 372/53/4 371/53/4
f 410/53/2 426/53/2 425/53/2 408/53/2
f 425/53/4 426/53/4 373/53/4 372/53/4
f 412/53/2 427/53/2 426/53/2 410/53/2
f 426/53/4 427/53/4 374/53/4 373/53/4
f 413/53/2 428/53/2 427/53/2 412/53/2
f 427/53/4 428/53/4 375/53/4 374/53/4
f 415/53/2 429/53/2 428/53/2 413/53/2
f 428/53/4 429/53/4 376/53/4 375/53/4
f 416/53/2 430/53/2 429/53/2 415/53/2
f 429/53/4 430/53/4 377/53/4 376/53/4
f 417/53/2 431/53/2 430/53/2 416/53/2
f 430/53/4 431/53/4 378/53/4 377/53/4
f 419/53/2 432/53/2 431/53/2 417/53/2
f 431/53/4 432/53/4 379/53/4 378/53/4
f 379/53/6 432/53/6 419/53/6 366/53/6
f 433/55/2 434/55/2 435/55/2 436/55/2
f 380/55/3 433/55/3 436/55/3 381/55/3
f 436/55/5 435/55/5 382/55/5 381/55/5
f 383/55/6 434/55/6 433/55/6 380/55/6
f 435/53/2 437/53/2 438/53/2 439/53/2
f 382/53/3 435/53/3 439/53/3 384/53/3
f 439/53/5 438/53/5 385/53/5 384/53/5
f 434/53/2 440/53/2 437/53/2 435/53/2
f 441/53/2 442/53/2 440/53/2 434/53/2
f 386/53/3 441/53/3 434/53/3 383/53/3
f 387/53/6 442/53/6 441/53/6 386/53/6
f 437/53/2 443/53/2 444/53/2 438/53/2
f 438/53/5 444/53/5 388/53/5 385/53/5
f 440/53/2 445/53/2 443/53/2 437/53/2
f 442/53/2 446/53/2 445/53/2 440/53/2
f 389/53/6 446/53/6 442/53/6 387/53/6
f 443/53/2 447/53/2 448/53/2 444/53/2
f 448/53/4 447/53/4 409/53/4 394/53/4
f 444/53/5 448/53/5 394/53/5 388/53/5
f 445/53/2 449/53/2 447/53/2 443/53/2
f 447/53/4 449/53/4 411/53/4 409/53/4
f 446/53/2 450/53/2 449/53/2 445/53/2
f 449/53/4 450/53/4 395/53/4 411/53/4
f 395/53/6 450/53/6 446/53/6 389/53/6
