# Dungine lever_wall_on; 1 voxel = 1/16 unit; Y-up floor-center origin
mtllib lever_wall_on.mtl
o lever_wall_on
s off
v -0.250000 1.125000 0.187500
v -0.250000 1.187500 0.187500
v -0.250000 1.187500 0.125000
v -0.250000 1.125000 0.125000
v -0.187500 1.187500 0.125000
v -0.187500 1.125000 0.125000
v -0.187500 1.125000 0.187500
v -0.187500 1.187500 0.187500
v -0.250000 1.062500 0.250000
v -0.250000 1.125000 0.250000
v -0.250000 1.062500 0.187500
v -0.187500 1.062500 0.187500
v -0.187500 1.062500 0.250000
v -0.250000 1.187500 0.250000
v -0.250000 1.250000 0.250000
v -0.250000 1.250000 0.187500
v -0.187500 1.250000 0.187500
v -0.187500 1.250000 0.250000
v -0.250000 1.062500 0.312500
v -0.250000 1.125000 0.312500
v -0.187500 1.062500 0.312500
v -0.250000 1.187500 0.312500
v -0.250000 1.250000 0.312500
v -0.187500 1.250000 0.312500
v -0.250000 1.062500 0.375000
v -0.250000 1.125000 0.375000
v -0.187500 1.062500 0.375000
v -0.187500 1.125000 0.375000
v -0.250000 1.187500 0.375000
v -0.187500 1.187500 0.375000
v -0.250000 1.250000 0.375000
v -0.187500 1.250000 0.375000
v -0.125000 1.187500 0.125000
v -0.125000 1.125000 0.125000
v -0.125000 1.125000 0.187500
v -0.125000 1.187500 0.187500
v -0.125000 1.062500 0.187500
v -0.125000 1.062500 0.250000
v -0.125000 1.250000 0.187500
v -0.125000 1.250000 0.250000
v -0.125000 1.062500 0.312500
v -0.125000 1.250000 0.312500
v -0.187500 0.812500 0.375000
v -0.187500 0.875000 0.375000
v -0.187500 0.875000 0.312500
v -0.187500 0.812500 0.312500
v -0.125000 0.875000 0.312500
v -0.125000 0.812500 0.312500
v -0.125000 0.812500 0.375000
v -0.125000 0.875000 0.375000
v -0.125000 1.062500 0.375000
v -0.125000 1.250000 0.375000
v -0.187500 1.375000 0.375000
v -0.187500 1.437500 0.375000
v -0.187500 1.437500 0.312500
v -0.187500 1.375000 0.312500
v -0.125000 1.437500 0.312500
v -0.125000 1.375000 0.312500
v -0.125000 1.375000 0.375000
v -0.125000 1.437500 0.375000
v -0.187500 0.750000 0.437500
v -0.187500 0.812500 0.437500
v -0.187500 0.750000 0.375000
v -0.125000 0.750000 0.375000
v -0.125000 0.750000 0.437500
v -0.187500 0.875000 0.437500
v -0.187500 0.937500 0.437500
v -0.187500 0.937500 0.375000
v -0.125000 0.937500 0.375000
v -0.187500 1.000000 0.437500
v -0.187500 1.000000 0.375000
v -0.125000 1.000000 0.375000
v -0.187500 1.062500 0.437500
v -0.187500 1.125000 0.437500
v -0.187500 1.187500 0.437500
v -0.187500 1.250000 0.437500
v -0.187500 1.312500 0.437500
v -0.187500 1.312500 0.375000
v -0.125000 1.312500 0.375000
v -0.187500 1.375000 0.437500
v -0.187500 1.437500 0.437500
v -0.125000 1.437500 0.437500
v -0.187500 0.750000 0.500000
v -0.187500 0.812500 0.500000
v -0.125000 0.750000 0.500000
v -0.125000 0.812500 0.500000
v -0.187500 0.875000 0.500000
v -0.125000 0.875000 0.500000
v -0.187500 0.937500 0.500000
v -0.125000 0.937500 0.500000
v -0.187500 1.000000 0.500000
v -0.125000 1.000000 0.500000
v -0.187500 1.062500 0.500000
v -0.125000 1.062500 0.500000
v -0.187500 1.125000 0.500000
v -0.125000 1.125000 0.500000
v -0.187500 1.187500 0.500000
v -0.125000 1.187500 0.500000
v -0.187500 1.250000 0.500000
v -0.125000 1.250000 0.500000
v -0.187500 1.312500 0.500000
v -0.125000 1.312500 0.500000
v -0.187500 1.375000 0.500000
v -0.125000 1.375000 0.500000
v -0.187500 1.437500 0.500000
v -0.125000 1.437500 0.500000
v -0.125000 0.687500 -0.125000
v -0.125000 0.750000 -0.125000
v -0.125000 0.750000 -0.187500
v -0.125000 0.687500 -0.187500
v -0.062500 0.750000 -0.187500
v -0.062500 0.687500 -0.187500
v -0.062500 0.687500 -0.125000
v -0.125000 0.812500 -0.125000
v -0.125000 0.812500 -0.187500
v -0.062500 0.812500 -0.187500
v -0.125000 0.875000 -0.125000
v -0.125000 0.875000 -0.187500
v -0.062500 0.875000 -0.187500
v -0.062500 0.875000 -0.125000
v -0.125000 0.687500 -0.062500
v -0.125000 0.750000 -0.062500
v -0.062500 0.687500 -0.062500
v -0.125000 0.812500 -0.062500
v -0.125000 0.875000 -0.062500
v -0.062500 0.875000 -0.062500
v -0.125000 0.687500 0.000000
v -0.125000 0.750000 0.000000
v -0.062500 0.687500 0.000000
v -0.062500 0.750000 0.000000
v -0.125000 0.812500 0.000000
v -0.062500 0.812500 0.000000
v -0.125000 0.875000 0.000000
v -0.062500 0.875000 0.000000
v -0.062500 1.187500 0.125000
v -0.062500 1.125000 0.125000
v -0.062500 1.125000 0.187500
v -0.062500 1.187500 0.187500
v -0.062500 1.062500 0.187500
v -0.062500 1.062500 0.250000
v -0.062500 1.250000 0.187500
v -0.062500 1.250000 0.250000
v -0.062500 1.062500 0.312500
v -0.062500 1.250000 0.312500
v -0.062500 0.875000 0.312500
v -0.062500 0.812500 0.312500
v -0.062500 0.812500 0.375000
v -0.125000 0.937500 0.312500
v -0.062500 0.937500 0.312500
v -0.125000 1.000000 0.312500
v -0.062500 1.000000 0.312500
v -0.125000 1.312500 0.312500
v -0.062500 1.312500 0.312500
v -0.062500 1.375000 0.312500
v -0.062500 1.437500 0.312500
v -0.062500 1.437500 0.375000
v -0.062500 0.750000 0.375000
v -0.062500 0.750000 0.437500
v -0.125000 1.500000 0.437500
v -0.125000 1.500000 0.375000
v -0.062500 1.500000 0.375000
v -0.062500 1.500000 0.437500
v -0.062500 0.750000 0.500000
v -0.062500 0.812500 0.500000
v -0.062500 0.875000 0.500000
v -0.062500 0.937500 0.500000
v -0.062500 1.000000 0.500000
v -0.062500 1.062500 0.500000
v -0.062500 1.125000 0.500000
v -0.062500 1.187500 0.500000
v -0.062500 1.250000 0.500000
v -0.062500 1.312500 0.500000
v -0.062500 1.375000 0.500000
v -0.062500 1.437500 0.500000
v -0.125000 1.500000 0.500000
v -0.062500 1.500000 0.500000
v 0.000000 0.750000 -0.187500
v 0.000000 0.687500 -0.187500
v 0.000000 0.687500 -0.125000
v 0.000000 0.812500 -0.187500
v 0.000000 0.875000 -0.187500
v 0.000000 0.875000 -0.125000
v 0.000000 0.687500 -0.062500
v 0.000000 0.875000 -0.062500
v 0.000000 0.687500 0.000000
v 0.000000 0.750000 0.000000
v 0.000000 0.812500 0.000000
v -0.062500 0.937500 0.000000
v -0.062500 0.937500 -0.062500
v 0.000000 0.937500 -0.062500
v 0.000000 0.937500 0.000000
v -0.062500 0.812500 0.062500
v -0.062500 0.875000 0.062500
v 0.000000 0.812500 0.062500
v 0.000000 0.875000 0.062500
v -0.062500 0.937500 0.062500
v -0.062500 1.000000 0.062500
v -0.062500 1.000000 0.000000
v 0.000000 1.000000 0.000000
v 0.000000 1.000000 0.062500
v -0.062500 0.875000 0.125000
v -0.062500 0.937500 0.125000
v 0.000000 0.875000 0.125000
v 0.000000 0.937500 0.125000
v -0.062500 1.000000 0.125000
v -0.062500 1.062500 0.125000
v -0.062500 1.062500 0.062500
v 0.000000 1.062500 0.062500
v 0.000000 1.062500 0.125000
v -0.062500 0.937500 0.187500
v -0.062500 1.000000 0.187500
v 0.000000 0.937500 0.187500
v 0.000000 1.000000 0.187500
v 0.000000 1.125000 0.125000
v 0.000000 1.187500 0.125000
v 0.000000 1.187500 0.187500
v -0.062500 1.000000 0.250000
v 0.000000 1.000000 0.250000
v 0.000000 1.062500 0.250000
v 0.000000 1.250000 0.187500
v 0.000000 1.250000 0.250000
v 0.000000 1.062500 0.312500
v 0.000000 1.250000 0.312500
v 0.000000 0.875000 0.312500
v 0.000000 0.812500 0.312500
v 0.000000 0.812500 0.375000
v 0.000000 0.937500 0.312500
v 0.000000 1.000000 0.312500
v 0.000000 1.312500 0.312500
v 0.000000 1.375000 0.312500
v 0.000000 1.437500 0.312500
v 0.000000 1.437500 0.375000
v 0.000000 0.750000 0.375000
v 0.000000 0.750000 0.437500
v 0.000000 1.500000 0.375000
v 0.000000 1.500000 0.437500
v 0.000000 0.750000 0.500000
v 0.000000 0.812500 0.500000
v 0.000000 0.875000 0.500000
v 0.000000 0.937500 0.500000
v 0.000000 1.000000 0.500000
v 0.000000 1.062500 0.500000
v 0.000000 1.125000 0.500000
v 0.000000 1.187500 0.500000
v 0.000000 1.250000 0.500000
v 0.000000 1.312500 0.500000
v 0.000000 1.375000 0.500000
v 0.000000 1.437500 0.500000
v 0.000000 1.500000 0.500000
v 0.062500 0.750000 -0.187500
v 0.062500 0.687500 -0.187500
v 0.062500 0.687500 -0.125000
v 0.062500 0.812500 -0.187500
v 0.062500 0.875000 -0.187500
v 0.062500 0.875000 -0.125000
v 0.062500 0.687500 -0.062500
v 0.062500 0.875000 -0.062500
v 0.062500 0.687500 0.000000
v 0.062500 0.750000 0.000000
v 0.062500 0.812500 0.000000
v 0.062500 0.937500 -0.062500
v 0.062500 0.937500 0.000000
v 0.062500 0.875000 0.000000
v 0.062500 0.875000 0.062500
v 0.062500 0.812500 0.062500
v 0.062500 0.937500 0.062500
v 0.062500 1.000000 0.000000
v 0.062500 1.000000 0.062500
v 0.062500 0.937500 0.125000
v 0.062500 0.875000 0.125000
v 0.062500 1.000000 0.125000
v 0.062500 1.062500 0.062500
v 0.062500 1.062500 0.125000
v 0.062500 1.000000 0.187500
v 0.062500 0.937500 0.187500
v 0.062500 1.062500 0.187500
v 0.062500 1.125000 0.125000
v 0.062500 1.125000 0.187500
v 0.062500 1.187500 0.125000
v 0.062500 1.187500 0.187500
v 0.062500 1.062500 0.250000
v 0.062500 1.000000 0.250000
v 0.062500 1.250000 0.187500
v 0.062500 1.250000 0.250000
v 0.062500 1.062500 0.312500
v 0.062500 1.250000 0.312500
v 0.062500 0.875000 0.312500
v 0.062500 0.812500 0.312500
v 0.062500 0.812500 0.375000
v 0.062500 0.937500 0.312500
v 0.062500 1.000000 0.312500
v 0.062500 1.312500 0.312500
v 0.062500 1.375000 0.312500
v 0.062500 1.437500 0.312500
v 0.062500 1.437500 0.375000
v 0.062500 0.750000 0.375000
v 0.062500 0.750000 0.437500
v 0.062500 1.500000 0.375000
v 0.062500 1.500000 0.437500
v 0.062500 0.750000 0.500000
v 0.062500 0.812500 0.500000
v 0.062500 0.875000 0.500000
v 0.062500 0.937500 0.500000
v 0.062500 1.000000 0.500000
v 0.062500 1.062500 0.500000
v 0.062500 1.125000 0.500000
v 0.062500 1.187500 0.500000
v 0.062500 1.250000 0.500000
v 0.062500 1.312500 0.500000
v 0.062500 1.375000 0.500000
v 0.062500 1.437500 0.500000
v 0.062500 1.500000 0.500000
v 0.125000 0.750000 -0.187500
v 0.125000 0.750000 -0.125000
v 0.125000 0.687500 -0.125000
v 0.125000 0.687500 -0.187500
v 0.125000 0.812500 -0.187500
v 0.125000 0.812500 -0.125000
v 0.125000 0.875000 -0.187500
v 0.125000 0.875000 -0.125000
v 0.125000 0.750000 -0.062500
v 0.125000 0.687500 -0.062500
v 0.125000 0.812500 -0.062500
v 0.125000 0.875000 -0.062500
v 0.125000 0.750000 0.000000
v 0.125000 0.687500 0.000000
v 0.125000 0.812500 0.000000
v 0.125000 0.875000 0.000000
v 0.125000 1.187500 0.125000
v 0.125000 1.125000 0.125000
v 0.125000 1.125000 0.187500
v 0.125000 1.187500 0.187500
v 0.125000 1.062500 0.187500
v 0.125000 1.062500 0.250000
v 0.125000 1.250000 0.187500
v 0.125000 1.250000 0.250000
v 0.125000 1.062500 0.312500
v 0.125000 1.250000 0.312500
v 0.125000 0.875000 0.312500
v 0.125000 0.812500 0.312500
v 0.125000 0.812500 0.375000
v 0.125000 0.937500 0.312500
v 0.125000 0.937500 0.375000
v 0.125000 0.875000 0.375000
v 0.125000 1.000000 0.312500
v 0.125000 1.000000 0.375000
v 0.125000 1.062500 0.375000
v 0.125000 1.312500 0.312500
v 0.125000 1.312500 0.375000
v 0.125000 1.250000 0.375000
v 0.125000 1.375000 0.312500
v 0.125000 1.375000 0.375000
v 0.125000 1.437500 0.312500
v 0.125000 1.437500 0.375000
v 0.125000 0.750000 0.375000
v 0.125000 0.750000 0.437500
v 0.125000 1.500000 0.375000
v 0.125000 1.500000 0.437500
v 0.125000 0.750000 0.500000
v 0.125000 0.812500 0.500000
v 0.125000 0.875000 0.500000
v 0.125000 0.937500 0.500000
v 0.125000 1.000000 0.500000
v 0.125000 1.062500 0.500000
v 0.125000 1.125000 0.500000
v 0.125000 1.187500 0.500000
v 0.125000 1.250000 0.500000
v 0.125000 1.312500 0.500000
v 0.125000 1.375000 0.500000
v 0.125000 1.437500 0.500000
v 0.125000 1.500000 0.500000
v 0.187500 1.187500 0.125000
v 0.187500 1.125000 0.125000
v 0.187500 1.125000 0.187500
v 0.187500 1.187500 0.187500
v 0.187500 1.062500 0.187500
v 0.187500 1.062500 0.250000
v 0.187500 1.250000 0.187500
v 0.187500 1.250000 0.250000
v 0.187500 1.062500 0.312500
v 0.187500 1.250000 0.312500
v 0.187500 0.875000 0.312500
v 0.187500 0.875000 0.375000
v 0.187500 0.812500 0.375000
v 0.187500 0.812500 0.312500
v 0.187500 1.062500 0.375000
v 0.187500 1.250000 0.375000
v 0.187500 1.437500 0.312500
v 0.187500 1.437500 0.375000
v 0.187500 1.375000 0.375000
v 0.187500 1.375000 0.312500
v 0.187500 0.812500 0.437500
v 0.187500 0.750000 0.437500
v 0.187500 0.750000 0.375000
v 0.187500 0.875000 0.437500
v 0.187500 0.937500 0.375000
v 0.187500 0.937500 0.437500
v 0.187500 1.000000 0.375000
v 0.187500 1.000000 0.437500
v 0.187500 1.062500 0.437500
v 0.187500 1.125000 0.375000
v 0.187500 1.125000 0.437500
v 0.187500 1.187500 0.375000
v 0.187500 1.187500 0.437500
v 0.187500 1.250000 0.437500
v 0.187500 1.312500 0.375000
v 0.187500 1.312500 0.437500
v 0.187500 1.375000 0.437500
v 0.187500 1.437500 0.437500
v 0.187500 1.500000 0.375000
v 0.187500 1.500000 0.437500
v 0.187500 0.812500 0.500000
v 0.187500 0.750000 0.500000
v 0.187500 0.875000 0.500000
v 0.187500 0.937500 0.500000
v 0.187500 1.000000 0.500000
v 0.187500 1.062500 0.500000
v 0.187500 1.125000 0.500000
v 0.187500 1.187500 0.500000
v 0.187500 1.250000 0.500000
v 0.187500 1.312500 0.500000
v 0.187500 1.375000 0.500000
v 0.187500 1.437500 0.500000
v 0.187500 1.500000 0.500000
v 0.250000 1.187500 0.125000
v 0.250000 1.187500 0.187500
v 0.250000 1.125000 0.187500
v 0.250000 1.125000 0.125000
v 0.250000 1.125000 0.250000
v 0.250000 1.062500 0.250000
v 0.250000 1.062500 0.187500
v 0.250000 1.187500 0.250000
v 0.250000 1.250000 0.187500
v 0.250000 1.250000 0.250000
v 0.250000 1.125000 0.312500
v 0.250000 1.062500 0.312500
v 0.250000 1.187500 0.312500
v 0.250000 1.250000 0.312500
v 0.250000 1.125000 0.375000
v 0.250000 1.062500 0.375000
v 0.250000 1.187500 0.375000
v 0.250000 1.250000 0.375000
vt 0.03125000 0.96875000
vt 0.09375000 0.96875000
vt 0.15625000 0.96875000
vt 0.21875000 0.96875000
vt 0.28125000 0.96875000
vt 0.34375000 0.96875000
vt 0.40625000 0.96875000
vt 0.46875000 0.96875000
vt 0.53125000 0.96875000
vt 0.59375000 0.96875000
vt 0.65625000 0.96875000
vt 0.71875000 0.96875000
vt 0.78125000 0.96875000
vt 0.84375000 0.96875000
vt 0.90625000 0.96875000
vt 0.96875000 0.96875000
vt 0.03125000 0.90625000
vt 0.09375000 0.90625000
vt 0.15625000 0.90625000
vt 0.21875000 0.90625000
vt 0.28125000 0.90625000
vt 0.34375000 0.90625000
vt 0.40625000 0.90625000
vt 0.46875000 0.90625000
vt 0.53125000 0.90625000
vt 0.59375000 0.90625000
vt 0.65625000 0.90625000
vt 0.71875000 0.90625000
vt 0.78125000 0.90625000
vt 0.84375000 0.90625000
vt 0.90625000 0.90625000
vt 0.96875000 0.90625000
vt 0.03125000 0.84375000
vt 0.09375000 0.84375000
vt 0.15625000 0.84375000
vt 0.21875000 0.84375000
vt 0.28125000 0.84375000
vt 0.34375000 0.84375000
vt 0.40625000 0.84375000
vt 0.46875000 0.84375000
vt 0.53125000 0.84375000
vt 0.59375000 0.84375000
vt 0.65625000 0.84375000
vt 0.71875000 0.84375000
vt 0.78125000 0.84375000
vt 0.84375000 0.84375000
vt 0.90625000 0.84375000
vt 0.96875000 0.84375000
vt 0.03125000 0.78125000
vt 0.09375000 0.78125000
vt 0.15625000 0.78125000
vt 0.21875000 0.78125000
vt 0.28125000 0.78125000
vt 0.34375000 0.78125000
vt 0.40625000 0.78125000
vt 0.46875000 0.78125000
vt 0.53125000 0.78125000
vt 0.59375000 0.78125000
vt 0.65625000 0.78125000
vt 0.71875000 0.78125000
vt 0.78125000 0.78125000
vt 0.84375000 0.78125000
vt 0.90625000 0.78125000
vt 0.96875000 0.78125000
vt 0.03125000 0.71875000
vt 0.09375000 0.71875000
vt 0.15625000 0.71875000
vt 0.21875000 0.71875000
vt 0.28125000 0.71875000
vt 0.34375000 0.71875000
vt 0.40625000 0.71875000
vt 0.46875000 0.71875000
vt 0.53125000 0.71875000
vt 0.59375000 0.71875000
vt 0.65625000 0.71875000
vt 0.71875000 0.71875000
vt 0.78125000 0.71875000
vt 0.84375000 0.71875000
vt 0.90625000 0.71875000
vt 0.96875000 0.71875000
vt 0.03125000 0.65625000
vt 0.09375000 0.65625000
vt 0.15625000 0.65625000
vt 0.21875000 0.65625000
vt 0.28125000 0.65625000
vt 0.34375000 0.65625000
vt 0.40625000 0.65625000
vt 0.46875000 0.65625000
vt 0.53125000 0.65625000
vt 0.59375000 0.65625000
vt 0.65625000 0.65625000
vt 0.71875000 0.65625000
vt 0.78125000 0.65625000
vt 0.84375000 0.65625000
vt 0.90625000 0.65625000
vt 0.96875000 0.65625000
vt 0.03125000 0.59375000
vt 0.09375000 0.59375000
vt 0.15625000 0.59375000
vt 0.21875000 0.59375000
vt 0.28125000 0.59375000
vt 0.34375000 0.59375000
vt 0.40625000 0.59375000
vt 0.46875000 0.59375000
vt 0.53125000 0.59375000
vt 0.59375000 0.59375000
vt 0.65625000 0.59375000
vt 0.71875000 0.59375000
vt 0.78125000 0.59375000
vt 0.84375000 0.59375000
vt 0.90625000 0.59375000
vt 0.96875000 0.59375000
vt 0.03125000 0.53125000
vt 0.09375000 0.53125000
vt 0.15625000 0.53125000
vt 0.21875000 0.53125000
vt 0.28125000 0.53125000
vt 0.34375000 0.53125000
vt 0.40625000 0.53125000
vt 0.46875000 0.53125000
vt 0.53125000 0.53125000
vt 0.59375000 0.53125000
vt 0.65625000 0.53125000
vt 0.71875000 0.53125000
vt 0.78125000 0.53125000
vt 0.84375000 0.53125000
vt 0.90625000 0.53125000
vt 0.96875000 0.53125000
vt 0.03125000 0.46875000
vt 0.09375000 0.46875000
vt 0.15625000 0.46875000
vt 0.21875000 0.46875000
vt 0.28125000 0.46875000
vt 0.34375000 0.46875000
vt 0.40625000 0.46875000
vt 0.46875000 0.46875000
vt 0.53125000 0.46875000
vt 0.59375000 0.46875000
vt 0.65625000 0.46875000
vt 0.71875000 0.46875000
vt 0.78125000 0.46875000
vt 0.84375000 0.46875000
vt 0.90625000 0.46875000
vt 0.96875000 0.46875000
vt 0.03125000 0.40625000
vt 0.09375000 0.40625000
vt 0.15625000 0.40625000
vt 0.21875000 0.40625000
vt 0.28125000 0.40625000
vt 0.34375000 0.40625000
vt 0.40625000 0.40625000
vt 0.46875000 0.40625000
vt 0.53125000 0.40625000
vt 0.59375000 0.40625000
vt 0.65625000 0.40625000
vt 0.71875000 0.40625000
vt 0.78125000 0.40625000
vt 0.84375000 0.40625000
vt 0.90625000 0.40625000
vt 0.96875000 0.40625000
vt 0.03125000 0.34375000
vt 0.09375000 0.34375000
vt 0.15625000 0.34375000
vt 0.21875000 0.34375000
vt 0.28125000 0.34375000
vt 0.34375000 0.34375000
vt 0.40625000 0.34375000
vt 0.46875000 0.34375000
vt 0.53125000 0.34375000
vt 0.59375000 0.34375000
vt 0.65625000 0.34375000
vt 0.71875000 0.34375000
vt 0.78125000 0.34375000
vt 0.84375000 0.34375000
vt 0.90625000 0.34375000
vt 0.96875000 0.34375000
vt 0.03125000 0.28125000
vt 0.09375000 0.28125000
vt 0.15625000 0.28125000
vt 0.21875000 0.28125000
vt 0.28125000 0.28125000
vt 0.34375000 0.28125000
vt 0.40625000 0.28125000
vt 0.46875000 0.28125000
vt 0.53125000 0.28125000
vt 0.59375000 0.28125000
vt 0.65625000 0.28125000
vt 0.71875000 0.28125000
vt 0.78125000 0.28125000
vt 0.84375000 0.28125000
vt 0.90625000 0.28125000
vt 0.96875000 0.28125000
vt 0.03125000 0.21875000
vt 0.09375000 0.21875000
vt 0.15625000 0.21875000
vt 0.21875000 0.21875000
vt 0.28125000 0.21875000
vt 0.34375000 0.21875000
vt 0.40625000 0.21875000
vt 0.46875000 0.21875000
vt 0.53125000 0.21875000
vt 0.59375000 0.21875000
vt 0.65625000 0.21875000
vt 0.71875000 0.21875000
vt 0.78125000 0.21875000
vt 0.84375000 0.21875000
vt 0.90625000 0.21875000
vt 0.96875000 0.21875000
vt 0.03125000 0.15625000
vt 0.09375000 0.15625000
vt 0.15625000 0.15625000
vt 0.21875000 0.15625000
vt 0.28125000 0.15625000
vt 0.34375000 0.15625000
vt 0.40625000 0.15625000
vt 0.46875000 0.15625000
vt 0.53125000 0.15625000
vt 0.59375000 0.15625000
vt 0.65625000 0.15625000
vt 0.71875000 0.15625000
vt 0.78125000 0.15625000
vt 0.84375000 0.15625000
vt 0.90625000 0.15625000
vt 0.96875000 0.15625000
vt 0.03125000 0.09375000
vt 0.09375000 0.09375000
vt 0.15625000 0.09375000
vt 0.21875000 0.09375000
vt 0.28125000 0.09375000
vt 0.34375000 0.09375000
vt 0.40625000 0.09375000
vt 0.46875000 0.09375000
vt 0.53125000 0.09375000
vt 0.59375000 0.09375000
vt 0.65625000 0.09375000
vt 0.71875000 0.09375000
vt 0.78125000 0.09375000
vt 0.84375000 0.09375000
vt 0.90625000 0.09375000
vt 0.96875000 0.09375000
vt 0.03125000 0.03125000
vt 0.09375000 0.03125000
vt 0.15625000 0.03125000
vt 0.21875000 0.03125000
vt 0.28125000 0.03125000
vt 0.34375000 0.03125000
vt 0.40625000 0.03125000
vt 0.46875000 0.03125000
vt 0.53125000 0.03125000
vt 0.59375000 0.03125000
vt 0.65625000 0.03125000
vt 0.71875000 0.03125000
vt 0.78125000 0.03125000
vt 0.84375000 0.03125000
vt 0.90625000 0.03125000
vt 0.96875000 0.03125000
vn -1 0 0
vn 1 0 0
vn 0 0 -1
vn 0 0 1
vn 0 -1 0
vn 0 1 0
g palette
usemtl palette
f 1/55/1 2/55/1 3/55/1 4/55/1
f 3/55/3 5/55/3 6/55/3 4/55/3
f 6/55/5 7/55/5 1/55/5 4/55/5
f 2/55/6 8/55/6 5/55/6 3/55/6
f 9/53/1 10/53/1 1/53/1 11/53/1
f 1/53/3 7/53/3 12/53/3 11/53/3
f 12/53/5 13/53/5 9/53/5 11/53/5
f 10/53/1 14/53/1 2/53/1 1/53/1
f 14/53/1 15/53/1 16/53/1 2/53/1
f 16/53/3 17/53/3 8/53/3 2/53/3
f 15/53/6 18/53/6 17/53/6 16/53/6
f 19/53/1 20/53/1 10/53/1 9/53/1
f 13/53/5 21/53/5 19/53/5 9/53/5
f 20/53/1 22/53/1 14/53/1 10/53/1
f 22/53/1 23/53/1 15/53/1 14/53/1
f 23/53/6 24/53/6 18/53/6 15/53/6
f 25/53/1 26/53/1 20/53/1 19/53/1
f 27/53/4 28/53/4 26/53/4 25/53/4
f 21/53/5 27/53/5 25/53/5 19/53/5
f 26/53/1 29/53/1 22/53/1 20/53/1
f 28/53/4 30/53/4 29/53/4 26/53/4
f 29/53/1 31/53/1 23/53/1 22/53/1
f 30/53/4 32/53/4 31/53/4 29/53/4
f 31/53/6 32/53/6 24/53/6 23/53/6
f 5/55/3 33/55/3 34/55/3 6/55/3
f 34/55/5 35/55/5 7/55/5 6/55/5
f 8/55/6 36/55/6 33/55/6 5/55/6
f 7/53/3 35/53/3 37/53/3 12/53/3
f 37/53/5 38/53/5 13/53/5 12/53/5
f 17/53/3 39/53/3 36/53/3 8/53/3
f 18/53/6 40/53/6 39/53/6 17/53/6
f 38/53/5 41/53/5 21/53/5 13/53/5
f 24/53/6 42/53/6 40/53/6 18/53/6
f 43/55/1 44/55/1 45/55/1 46/55/1
f 45/55/3 47/55/3 48/55/3 46/55/3
f 48/55/5 49/55/5 43/55/5 46/55/5
f 44/55/6 50/55/6 47/55/6 45/55/6
f 41/53/5 51/53/5 27/53/5 21/53/5
f 32/53/6 52/53/6 42/53/6 24/53/6
f 53/55/1 54/55/1 55/55/1 56/55/1
f 55/55/3 57/55/3 58/55/3 56/55/3
f 58/55/5 59/55/5 53/55/5 56/55/5
f 54/55/6 60/55/6 57/55/6 55/55/6
f 61/53/1 62/53/1 43/53/1 63/53/1
f 43/53/3 49/53/3 64/53/3 63/53/3
f 64/53/5 65/53/5 61/53/5 63/53/5
f 62/53/1 66/53/1 44/53/1 43/53/1
f 66/53/1 67/53/1 68/53/1 44/53/1
f 68/53/3 69/53/3 50/53/3 44/53/3
f 67/53/1 70/53/1 71/53/1 68/53/1
f 71/53/3 72/53/3 69/53/3 68/53/3
f 70/53/1 73/53/1 27/53/1 71/53/1
f 27/53/3 51/53/3 72/53/3 71/53/3
f 73/53/1 74/53/1 28/53/1 27/53/1
f 74/53/1 75/53/1 30/53/1 28/53/1
f 75/53/1 76/53/1 32/53/1 30/53/1
f 76/53/1 77/53/1 78/53/1 32/53/1
f 78/53/3 79/53/3 52/53/3 32/53/3
f 77/53/1 80/53/1 53/53/1 78/53/1
f 53/53/3 59/53/3 79/53/3 78/53/3
f 80/53/1 81/53/1 54/53/1 53/53/1
f 81/53/6 82/53/6 60/53/6 54/53/6
f 83/53/1 84/53/1 62/53/1 61/53/1
f 85/53/4 86/53/4 84/53/4 83/53/4
f 65/53/5 85/53/5 83/53/5 61/53/5
f 84/53/1 87/53/1 66/53/1 62/53/1
f 86/53/4 88/53/4 87/53/4 84/53/4
f 87/53/1 89/53/1 67/53/1 66/53/1
f 88/53/4 90/53/4 89/53/4 87/53/4
f 89/53/1 91/53/1 70/53/1 67/53/1
f 90/53/4 92/53/4 91/53/4 89/53/4
f 91/53/1 93/53/1 73/53/1 70/53/1
f 92/53/4 94/53/4 93/53/4 91/53/4
f 93/53/1 95/53/1 74/53/1 73/53/1
f 94/53/4 96/53/4 95/53/4 93/53/4
f 95/53/1 97/53/1 75/53/1 74/53/1
f 96/53/4 98/53/4 97/53/4 95/53/4
f 97/53/1 99/53/1 76/53/1 75/53/1
f 98/53/4 100/53/4 99/53/4 97/53/4
f 99/53/1 101/53/1 77/53/1 76/53/1
f 100/53/4 102/53/4 101/53/4 99/53/4
f 101/53/1 103/53/1 80/53/1 77/53/1
f 102/53/4 104/53/4 103/53/4 101/53/4
f 103/53/1 105/53/1 81/53/1 80/53/1
f 104/53/4 106/53/4 105/53/4 103/53/4
f 105/53/6 106/53/6 82/53/6 81/53/6
f 107/36/1 108/36/1 109/36/1 110/36/1
f 109/36/3 111/36/3 112/36/3 110/36/3
f 112/36/5 113/36/5 107/36/5 110/36/5
f 108/37/1 114/37/1 115/37/1 109/37/1
f 115/37/3 116/37/3 111/37/3 109/37/3
f 114/38/1 117/38/1 118/38/1 115/38/1
f 118/38/3 119/38/3 116/38/3 115/38/3
f 117/38/6 120/38/6 119/38/6 118/38/6
f 121/37/1 122/37/1 108/37/1 107/37/1
f 113/37/5 123/37/5 121/37/5 107/37/5
f 122/37/1 124/37/1 114/37/1 108/37/1
f 124/38/1 125/38/1 117/38/1 114/38/1
f 125/38/6 126/38/6 120/38/6 117/38/6
f 127/37/1 128/37/1 122/37/1 121/37/1
f 129/37/4 130/37/4 128/37/4 127/37/4
f 123/37/5 129/37/5 127/37/5 121/37/5
f 128/37/1 131/37/1 124/37/1 122/37/1
f 130/37/4 132/37/4 131/37/4 128/37/4
f 131/37/1 133/37/1 125/37/1 124/37/1
f 132/37/4 134/37/4 133/37/4 131/37/4
f 133/37/6 134/37/6 126/37/6 125/37/6
f 33/55/3 135/55/3 136/55/3 34/55/3
f 136/55/5 137/55/5 35/55/5 34/55/5
f 36/55/6 138/55/6 135/55/6 33/55/6
f 35/53/3 137/53/3 139/53/3 37/53/3
f 139/53/5 140/53/5 38/53/5 37/53/5
f 39/53/3 141/53/3 138/53/3 36/53/3
f 40/53/6 142/53/6 141/53/6 39/53/6
f 140/53/5 143/53/5 41/53/5 38/53/5
f 42/53/6 144/53/6 142/53/6 40/53/6
f 47/54/3 145/54/3 146/54/3 48/54/3
f 146/54/5 147/54/5 49/54/5 48/54/5
f 50/54/1 69/54/1 148/54/1 47/54/1
f 148/54/3 149/54/3 145/54/3 47/54/3
f 69/54/1 72/54/1 150/54/1 148/54/1
f 150/54/3 151/54/3 149/54/3 148/54/3
f 72/54/1 51/54/1 41/54/1 150/54/1
f 41/54/3 143/54/3 151/54/3 150/54/3
f 52/54/1 79/54/1 152/54/1 42/54/1
f 152/54/3 153/54/3 144/54/3 42/54/3
f 79/54/1 59/54/1 58/54/1 152/54/1
f 58/54/3 154/54/3 153/54/3 152/54/3
f 57/54/3 155/54/3 154/54/3 58/54/3
f 60/54/6 156/54/6 155/54/6 57/54/6
f 49/53/3 147/53/3 157/53/3 64/53/3
f 157/53/5 158/53/5 65/53/5 64/53/5
f 82/53/1 159/53/1 160/53/1 60/53/1
f 160/53/3 161/53/3 156/53/3 60/53/3
f 159/53/6 162/53/6 161/53/6 160/53/6
f 163/53/4 164/53/4 86/53/4 85/53/4
f 158/53/5 163/53/5 85/53/5 65/53/5
f 164/53/4 165/53/4 88/53/4 86/53/4
f 165/53/4 166/53/4 90/53/4 88/53/4
f 166/53/4 167/53/4 92/53/4 90/53/4
f 167/53/4 168/53/4 94/53/4 92/53/4
f 168/53/4 169/53/4 96/53/4 94/53/4
f 169/53/4 170/53/4 98/53/4 96/53/4
f 170/53/4 171/53/4 100/53/4 98/53/4
f 171/53/4 172/53/4 102/53/4 100/53/4
f 172/53/4 173/53/4 104/53/4 102/53/4
f 173/53/4 174/53/4 106/53/4 104/53/4
f 106/53/1 175/53/1 159/53/1 82/53/1
f 174/53/4 176/53/4 175/53/4 106/53/4
f 175/53/6 176/53/6 162/53/6 159/53/6
f 111/36/3 177/36/3 178/36/3 112/36/3
f 178/36/5 179/36/5 113/36/5 112/36/5
f 116/37/3 180/37/3 177/37/3 111/37/3
f 119/38/3 181/38/3 180/38/3 116/38/3
f 120/38/6 182/38/6 181/38/6 119/38/6
f 179/37/5 183/37/5 123/37/5 113/37/5
f 126/38/6 184/38/6 182/38/6 120/38/6
f 185/37/4 186/37/4 130/37/4 129/37/4
f 183/37/5 185/37/5 129/37/5 123/37/5
f 186/37/4 187/37/4 132/37/4 130/37/4
f 134/54/1 188/54/1 189/54/1 126/54/1
f 189/54/3 190/54/3 184/54/3 126/54/3
f 188/54/6 191/54/6 190/54/6 189/54/6
f 192/54/1 193/54/1 134/54/1 132/54/1
f 194/54/4 195/54/4 193/54/4 192/54/4
f 187/54/5 194/54/5 192/54/5 132/54/5
f 193/54/1 196/54/1 188/54/1 134/54/1
f 196/54/1 197/54/1 198/54/1 188/54/1
f 198/54/3 199/54/3 191/54/3 188/54/3
f 197/54/6 200/54/6 199/54/6 198/54/6
f 201/54/1 202/54/1 196/54/1 193/54/1
f 203/54/4 204/54/4 202/54/4 201/54/4
f 195/54/5 203/54/5 201/54/5 193/54/5
f 202/54/1 205/54/1 197/54/1 196/54/1
f 205/54/1 206/54/1 207/54/1 197/54/1
f 207/54/3 208/54/3 200/54/3 197/54/3
f 206/54/6 209/54/6 208/54/6 207/54/6
f 210/54/1 211/54/1 205/54/1 202/54/1
f 212/54/4 213/54/4 211/54/4 210/54/4
f 204/54/5 212/54/5 210/54/5 202/54/5
f 211/54/1 139/54/1 206/54/1 205/54/1
f 139/54/1 137/54/1 136/54/1 206/54/1
f 136/54/3 214/54/3 209/54/3 206/54/3
f 135/55/3 215/55/3 214/55/3 136/55/3
f 138/55/6 216/55/6 215/55/6 135/55/6
f 217/54/1 140/54/1 139/54/1 211/54/1
f 218/54/4 219/54/4 140/54/4 217/54/4
f 213/54/5 218/54/5 217/54/5 211/54/5
f 141/53/3 220/53/3 216/53/3 138/53/3
f 142/53/6 221/53/6 220/53/6 141/53/6
f 219/54/5 222/54/5 143/54/5 140/54/5
f 144/54/6 223/54/6 221/54/6 142/54/6
f 145/54/3 224/54/3 225/54/3 146/54/3
f 225/54/5 226/54/5 147/54/5 146/54/5
f 149/54/3 227/54/3 224/54/3 145/54/3
f 151/54/3 228/54/3 227/54/3 149/54/3
f 143/54/3 222/54/3 228/54/3 151/54/3
f 153/54/3 229/54/3 223/54/3 144/54/3
f 154/54/3 230/54/3 229/54/3 153/54/3
f 155/54/3 231/54/3 230/54/3 154/54/3
f 156/54/6 232/54/6 231/54/6 155/54/6
f 147/53/3 226/53/3 233/53/3 157/53/3
f 233/53/5 234/53/5 158/53/5 157/53/5
f 161/53/3 235/53/3 232/53/3 156/53/3
f 162/53/6 236/53/6 235/53/6 161/53/6
f 237/53/4 238/53/4 164/53/4 163/53/4
f 234/53/5 237/53/5 163/53/5 158/53/5
f 238/53/4 239/53/4 165/53/4 164/53/4
f 239/53/4 240/53/4 166/53/4 165/53/4
f 240/53/4 241/53/4 167/53/4 166/53/4
f 241/53/4 242/53/4 168/53/4 167/53/4
f 242/53/4 243/53/4 169/53/4 168/53/4
f 243/53/4 244/53/4 170/53/4 169/53/4
f 244/53/4 245/53/4 171/53/4 170/53/4
f 245/53/4 246/53/4 172/53/4 171/53/4
f 246/53/4 247/53/4 173/53/4 172/53/4
f 247/53/4 248/53/4 174/53/4 173/53/4
f 248/53/4 249/53/4 176/53/4 174/53/4
f 176/53/6 249/53/6 236/53/6 162/53/6
f 177/36/3 250/36/3 251/36/3 178/36/3
f 251/36/5 252/36/5 179/36/5 178/36/5
f 180/37/3 253/37/3 250/37/3 177/37/3
f 181/38/3 254/38/3 253/38/3 180/38/3
f 182/38/6 255/38/6 254/38/6 181/38/6
f 252/37/5 256/37/5 183/37/5 179/37/5
f 184/38/6 257/38/6 255/38/6 182/38/6
f 258/37/4 259/37/4 186/37/4 185/37/4
f 256/37/5 258/37/5 185/37/5 183/37/5
f 259/37/4 260/37/4 187/37/4 186/37/4
f 261/54/2 262/54/2 263/54/2 257/54/2
f 190/54/3 261/54/3 257/54/3 184/54/3
f 191/54/6 262/54/6 261/54/6 190/54/6
f 263/54/2 264/54/2 265/54/2 260/54/2
f 265/54/4 264/54/4 195/54/4 194/54/4
f 260/54/5 265/54/5 194/54/5 187/54/5
f 262/54/2 266/54/2 264/54/2 263/54/2
f 267/54/2 268/54/2 266/54/2 262/54/2
f 199/54/3 267/54/3 262/54/3 191/54/3
f 200/54/6 268/54/6 267/54/6 199/54/6
f 266/54/2 269/54/2 270/54/2 264/54/2
f 270/54/4 269/54/4 204/54/4 203/54/4
f 264/54/5 270/54/5 203/54/5 195/54/5
f 268/54/2 271/54/2 269/54/2 266/54/2
f 272/54/2 273/54/2 271/54/2 268/54/2
f 208/54/3 272/54/3 268/54/3 200/54/3
f 209/54/6 273/54/6 272/54/6 208/54/6
f 271/54/2 274/54/2 275/54/2 269/54/2
f 275/54/4 274/54/4 213/54/4 212/54/4
f 269/54/5 275/54/5 212/54/5 204/54/5
f 273/54/2 276/54/2 274/54/2 271/54/2
f 277/54/2 278/54/2 276/54/2 273/54/2
f 214/54/3 277/54/3 273/54/3 209/54/3
f 215/55/3 279/55/3 277/55/3 214/55/3
f 216/55/6 280/55/6 279/55/6 215/55/6
f 276/54/2 281/54/2 282/54/2 274/54/2
f 282/54/4 281/54/4 219/54/4 218/54/4
f 274/54/5 282/54/5 218/54/5 213/54/5
f 220/53/3 283/53/3 280/53/3 216/53/3
f 221/53/6 284/53/6 283/53/6 220/53/6
f 281/54/5 285/54/5 222/54/5 219/54/5
f 223/54/6 286/54/6 284/54/6 221/54/6
f 224/54/3 287/54/3 288/54/3 225/54/3
f 288/54/5 289/54/5 226/54/5 225/54/5
f 227/54/3 290/54/3 287/54/3 224/54/3
f 228/54/3 291/54/3 290/54/3 227/54/3
f 222/54/3 285/54/3 291/54/3 228/54/3
f 229/54/3 292/54/3 286/54/3 223/54/3
f 230/54/3 293/54/3 292/54/3 229/54/3
f 231/54/3 294/54/3 293/54/3 230/54/3
f 232/54/6 295/54/6 294/54/6 231/54/6
f 226/53/3 289/53/3 296/53/3 233/53/3
f 296/53/5 297/53/5 234/53/5 233/53/5
f 235/53/3 298/53/3 295/53/3 232/53/3
f 236/53/6 299/53/6 298/53/6 235/53/6
f 300/53/4 301/53/4 238/53/4 237/53/4
f 297/53/5 300/53/5 237/53/5 234/53/5
f 301/53/4 302/53/4 239/53/4 238/53/4
f 302/53/4 303/53/4 240/53/4 239/53/4
f 303/53/4 304/53/4 241/53/4 240/53/4
f 304/53/4 305/53/4 242/53/4 241/53/4
f 305/53/4 306/53/4 243/53/4 242/53/4
f 306/53/4 307/53/4 244/53/4 243/53/4
f 307/53/4 308/53/4 245/53/4 244/53/4
f 308/53/4 309/53/4 246/53/4 245/53/4
f 309/53/4 310/53/4 247/53/4 246/53/4
f 310/53/4 311/53/4 248/53/4 247/53/4
f 311/53/4 312/53/4 249/53/4 248/53/4
f 249/53/6 312/53/6 299/53/6 236/53/6
f 313/36/2 314/36/2 315/36/2 316/36/2
f 250/36/3 313/36/3 316/36/3 251/36/3
f 316/36/5 315/36/5 252/36/5 251/36/5
f 317/37/2 318/37/2 314/37/2 313/37/2
f 253/37/3 317/37/3 313/37/3 250/37/3
f 319/38/2 320/38/2 318/38/2 317/38/2
f 254/38/3 319/38/3 317/38/3 253/38/3
f 255/38/6 320/38/6 319/38/6 254/38/6
f 314/37/2 321/37/2 322/37/2 315/37/2
f 315/37/5 322/37/5 256/37/5 252/37/5
f 318/37/2 323/37/2 321/37/2 314/37/2
f 320/38/2 324/38/2 323/38/2 318/38/2
f 257/38/6 324/38/6 320/38/6 255/38/6
f 321/37/2 325/37/2 326/37/2 322/37/2
f 326/37/4 325/37/4 259/37/4 258/37/4
f 322/37/5 326/37/5 258/37/5 256/37/5
f 323/37/2 327/37/2 325/37/2 321/37/2
f 325/37/4 327/37/4 260/37/4 259/37/4
f 324/37/2 328/37/2 327/37/2 323/37/2
f 327/37/4 328/37/4 263/37/4 260/37/4
f 263/37/6 328/37/6 324/37/6 257/37/6
f 279/55/3 329/55/3 330/55/3 277/55/3
f 330/55/5 331/55/5 278/55/5 277/55/5
f 280/55/6 332/55/6 329/55/6 279/55/6
f 278/53/3 331/53/3 333/53/3 276/53/3
f 333/53/5 334/53/5 281/53/5 276/53/5
f 283/53/3 335/53/3 332/53/3 280/53/3
f 284/53/6 336/53/6 335/53/6 283/53/6
f 334/53/5 337/53/5 285/53/5 281/53/5
f 286/53/6 338/53/6 336/53/6 284/53/6
f 287/54/3 339/54/3 340/54/3 288/54/3
f 340/54/5 341/54/5 289/54/5 288/54/5
f 342/54/2 343/54/2 344/54/2 339/54/2
f 290/54/3 342/54/3 339/54/3 287/54/3
f 345/54/2 346/54/2 343/54/2 342/54/2
f 291/54/3 345/54/3 342/54/3 290/54/3
f 337/54/2 347/54/2 346/54/2 345/54/2
f 285/54/3 337/54/3 345/54/3 291/54/3
f 348/54/2 349/54/2 350/54/2 338/54/2
f 292/54/3 348/54/3 338/54/3 286/54/3
f 351/54/2 352/54/2 349/54/2 348/54/2
f 293/54/3 351/54/3 348/54/3 292/54/3
f 294/54/3 353/54/3 351/54/3 293/54/3
f 295/54/6 354/54/6 353/54/6 294/54/6
f 289/53/3 341/53/3 355/53/3 296/53/3
f 355/53/5 356/53/5 297/53/5 296/53/5
f 298/53/3 357/53/3 354/53/3 295/53/3
f 299/53/6 358/53/6 357/53/6 298/53/6
f 359/53/4 360/53/4 301/53/4 300/53/4
f 356/53/5 359/53/5 300/53/5 297/53/5
f 360/53/4 361/53/4 302/53/4 301/53/4
f 361/53/4 362/53/4 303/53/4 302/53/4
f 362/53/4 363/53/4 304/53/4 303/53/4
f 363/53/4 364/53/4 305/53/4 304/53/4
f 364/53/4 365/53/4 306/53/4 305/53/4
f 365/53/4 366/53/4 307/53/4 306/53/4
f 366/53/4 367/53/4 308/53/4 307/53/4
f 367/53/4 368/53/4 309/53/4 308/53/4
f 368/53/4 369/53/4 310/53/4 309/53/4
f 369/53/4 370/53/4 311/53/4 310/53/4
f 370/53/4 371/53/4 312/53/4 311/53/4
f 312/53/6 371/53/6 358/53/6 299/53/6
f 329/55/3 372/55/3 373/55/3 330/55/3
f 373/55/5 374/55/5 331/55/5 330/55/5
f 332/55/6 375/55/6 372/55/6 329/55/6
f 331/53/3 374/53/3 376/53/3 333/53/3
f 376/53/5 377/53/5 334/53/5 333/53/5
f 335/53/3 378/53/3 375/53/3 332/53/3
f 336/53/6 379/53/6 378/53/6 335/53/6
f 377/53/5 380/53/5 337/53/5 334/53/5
f 338/53/6 381/53/6 379/53/6 336/53/6
f 382/55/2 383/55/2 384/55/2 385/55/2
f 339/55/3 382/55/3 385/55/3 340/55/3
f 385/55/5 384/55/5 341/55/5 340/55/5
f 344/55/6 383/55/6 382/55/6 339/55/6
f 380/53/5 386/53/5 347/53/5 337/53/5
f 350/53/6 387/53/6 381/53/6 338/53/6
f 388/55/2 389/55/2 390/55/2 391/55/2
f 353/55/3 388/55/3 391/55/3 351/55/3
f 391/55/5 390/55/5 352/55/5 351/55/5
f 354/55/6 389/55/6 388/55/6 353/55/6
f 384/53/2 392/53/2 393/53/2 394/53/2
f 341/53/3 384/53/3 394/53/3 355/53/3
f 394/53/5 393/53/5 356/53/5 355/53/5
f 383/53/2 395/53/2 392/53/2 384/53/2
f 396/53/2 397/53/2 395/53/2 383/53/2
f 343/53/3 396/53/3 383/53/3 344/53/3
f 398/53/2 399/53/2 397/53/2 396/53/2
f 346/53/3 398/53/3 396/53/3 343/53/3
f 386/53/2 400/53/2 399/53/2 398/53/2
f 347/53/3 386/53/3 398/53/3 346/53/3
f 401/53/2 402/53/2 400/53/2 386/53/2
f 403/53/2 404/53/2 402/53/2 401/53/2
f 387/53/2 405/53/2 404/53/2 403/53/2
f 406/53/2 407/53/2 405/53/2 387/53/2
f 349/53/3 406/53/3 387/53/3 350/53/3
f 390/53/2 408/53/2 407/53/2 406/53/2
f 352/53/3 390/53/3 406/53/3 349/53/3
f 389/53/2 409/53/2 408/53/2 390/53/2
f 410/53/2 411/53/2 409/53/2 389/53/2
f 357/53/3 410/53/3 389/53/3 354/53/3
f 358/53/6 411/53/6 410/53/6 357/53/6
f 392/53/2 412/53/2 413/53/2 393/53/2
f 413/53/4 412/53/4 360/53/4 359/53/4
f 393/53/5 413/53/5 359/53/5 356/53/5
f 395/53/2 414/53/2 412/53/2 392/53/2
f 412/53/4 414/53/4 361/53/4 360/53/4
f 397/53/2 415/53/2 414/53/2 395/53/2
f 414/53/4 415/53/4 362/53/4 361/53/4
f 399/53/2 416/53/2 415/53/2 397/53/2
f 415/53/4 416/53/4 363/53/4 362/53/4
f 400/53/2 417/53/2 416/53/2 399/53/2
f 416/53/4 417/53/4 364/53/4 363/53/4
f 402/53/2 418/53/2 417/53/2 400/53/2
f 417/53/4 418/53/4 365/53/4 364/53/4
f 404/53/2 419/53/2 418/53/2 402/53/2
f 418/53/4 419/53/4 366/53/4 365/53/4
f 405/53/2 420/53/2 419/53/2 404/53/2
f 419/53/4 420/53/4 367/53/4 366/53/4
f 407/53/2 421/53/2 420/53/2 405/53/2
f 420/53/4 421/53/4 368/53/4 367/53/4
f 408/53/2 422/53/2 421/53/2 407/53/2
f 421/53/4 422/53/4 369/53/4 368/53/4
f 409/53/2 423/53/2 422/53/2 408/53/2
f 422/53/4 423/53/4 370/53/4 369/53/4
f 411/53/2 424/53/2 423/53/2 409/53/2
f 423/53/4 424/53/4 371/53/4 370/53/4
f 371/53/6 424/53/6 411/53/6 358/53/6
f 425/55/2 426/55/2 427/55/2 428/55/2
f 372/55/3 425/55/3 428/55/3 373/55/3
f 428/55/5 427/55/5 374/55/5 373/55/5
f 375/55/6 426/55/6 425/55/6 372/55/6
f 427/53/2 429/53/2 430/53/2 431/53/2
f 374/53/3 427/53/3 431/53/3 376/53/3
f 431/53/5 430/53/5 377/53/5 376/53/5
f 426/53/2 432/53/2 429/53/2 427/53/2
f 433/53/2 434/53/2 432/53/2 426/53/2
f 378/53/3 433/53/3 426/53/3 375/53/3
f 379/53/6 434/53/6 433/53/6 378/53/6
f 429/53/2 435/53/2 436/53/2 430/53/2
f 430/53/5 436/53/5 380/53/5 377/53/5
f 432/53/2 437/53/2 435/53/2 429/53/2
f 434/53/2 438/53/2 437/53/2 432/53/2
f 381/53/6 438/53/6 434/53/6 379/53/6
f 435/53/2 439/53/2 440/53/2 436/53/2
f 440/53/4 439/53/4 401/53/4 386/53/4
f 436/53/5 440/53/5 386/53/5 380/53/5
f 437/53/2 441/53/2 439/53/2 435/53/2
f 439/53/4 441/53/4 403/53/4 401/53/4
f 438/53/2 442/53/2 441/53/2 437/53/2
f 441/53/4 442/53/4 387/53/4 403/53/4
f 387/53/6 442/53/6 438/53/6 381/53/6
