# Dungine platform_half; 1 voxel = 1/16 unit; Y-up floor-center origin
mtllib platform_half.mtl
o platform_half
s off
v -0.500000 0.000000 -0.437500
v -0.500000 0.062500 -0.437500
v -0.500000 0.062500 -0.500000
v -0.500000 0.000000 -0.500000
v -0.437500 0.062500 -0.500000
v -0.437500 0.000000 -0.500000
v -0.437500 0.000000 -0.437500
v -0.500000 0.125000 -0.437500
v -0.500000 0.125000 -0.500000
v -0.437500 0.125000 -0.500000
v -0.500000 0.187500 -0.437500
v -0.500000 0.187500 -0.500000
v -0.437500 0.187500 -0.500000
v -0.500000 0.250000 -0.437500
v -0.500000 0.250000 -0.500000
v -0.437500 0.250000 -0.500000
v -0.500000 0.312500 -0.437500
v -0.500000 0.312500 -0.500000
v -0.437500 0.312500 -0.500000
v -0.500000 0.375000 -0.437500
v -0.500000 0.375000 -0.500000
v -0.437500 0.375000 -0.500000
v -0.500000 0.437500 -0.437500
v -0.500000 0.437500 -0.500000
v -0.437500 0.437500 -0.500000
v -0.500000 0.500000 -0.437500
v -0.500000 0.500000 -0.500000
v -0.437500 0.500000 -0.500000
v -0.437500 0.500000 -0.437500
v -0.500000 0.000000 -0.375000
v -0.500000 0.062500 -0.375000
v -0.437500 0.000000 -0.375000
v -0.500000 0.125000 -0.375000
v -0.500000 0.187500 -0.375000
v -0.500000 0.250000 -0.375000
v -0.500000 0.312500 -0.375000
v -0.500000 0.375000 -0.375000
v -0.500000 0.437500 -0.375000
v -0.500000 0.500000 -0.375000
v -0.437500 0.500000 -0.375000
v -0.500000 0.000000 -0.312500
v -0.500000 0.062500 -0.312500
v -0.437500 0.000000 -0.312500
v -0.500000 0.125000 -0.312500
v -0.500000 0.187500 -0.312500
v -0.500000 0.250000 -0.312500
v -0.500000 0.312500 -0.312500
v -0.500000 0.375000 -0.312500
v -0.500000 0.437500 -0.312500
v -0.500000 0.500000 -0.312500
v -0.437500 0.500000 -0.312500
v -0.500000 0.000000 -0.250000
v -0.500000 0.062500 -0.250000
v -0.437500 0.000000 -0.250000
v -0.500000 0.125000 -0.250000
v -0.500000 0.187500 -0.250000
v -0.500000 0.250000 -0.250000
v -0.500000 0.312500 -0.250000
v -0.500000 0.375000 -0.250000
v -0.500000 0.437500 -0.250000
v -0.500000 0.500000 -0.250000
v -0.437500 0.500000 -0.250000
v -0.500000 0.000000 -0.187500
v -0.500000 0.062500 -0.187500
v -0.437500 0.000000 -0.187500
v -0.500000 0.125000 -0.187500
v -0.500000 0.187500 -0.187500
v -0.500000 0.250000 -0.187500
v -0.500000 0.312500 -0.187500
v -0.500000 0.375000 -0.187500
v -0.500000 0.437500 -0.187500
v -0.500000 0.500000 -0.187500
v -0.437500 0.500000 -0.187500
v -0.500000 0.000000 -0.125000
v -0.500000 0.062500 -0.125000
v -0.437500 0.000000 -0.125000
v -0.500000 0.125000 -0.125000
v -0.500000 0.187500 -0.125000
v -0.500000 0.250000 -0.125000
v -0.500000 0.312500 -0.125000
v -0.500000 0.375000 -0.125000
v -0.500000 0.437500 -0.125000
v -0.500000 0.500000 -0.125000
v -0.437500 0.500000 -0.125000
v -0.500000 0.000000 -0.062500
v -0.500000 0.062500 -0.062500
v -0.437500 0.000000 -0.062500
v -0.500000 0.125000 -0.062500
v -0.500000 0.187500 -0.062500
v -0.500000 0.250000 -0.062500
v -0.500000 0.312500 -0.062500
v -0.500000 0.375000 -0.062500
v -0.500000 0.437500 -0.062500
v -0.500000 0.500000 -0.062500
v -0.437500 0.500000 -0.062500
v -0.500000 0.000000 0.000000
v -0.500000 0.062500 0.000000
v -0.437500 0.000000 0.000000
v -0.500000 0.125000 0.000000
v -0.500000 0.187500 0.000000
v -0.500000 0.250000 0.000000
v -0.500000 0.312500 0.000000
v -0.500000 0.375000 0.000000
v -0.500000 0.437500 0.000000
v -0.500000 0.500000 0.000000
v -0.437500 0.500000 0.000000
v -0.500000 0.000000 0.062500
v -0.500000 0.062500 0.062500
v -0.437500 0.000000 0.062500
v -0.500000 0.125000 0.062500
v -0.500000 0.187500 0.062500
v -0.500000 0.250000 0.062500
v -0.500000 0.312500 0.062500
v -0.500000 0.375000 0.062500
v -0.500000 0.437500 0.062500
v -0.500000 0.500000 0.062500
v -0.437500 0.500000 0.062500
v -0.500000 0.000000 0.125000
v -0.500000 0.062500 0.125000
v -0.437500 0.000000 0.125000
v -0.500000 0.125000 0.125000
v -0.500000 0.187500 0.125000
v -0.500000 0.250000 0.125000
v -0.500000 0.312500 0.125000
v -0.500000 0.375000 0.125000
v -0.500000 0.437500 0.125000
v -0.500000 0.500000 0.125000
v -0.437500 0.500000 0.125000
v -0.500000 0.000000 0.187500
v -0.500000 0.062500 0.187500
v -0.437500 0.000000 0.187500
v -0.500000 0.125000 0.187500
v -0.500000 0.187500 0.187500
v -0.500000 0.250000 0.187500
v -0.500000 0.312500 0.187500
v -0.500000 0.375000 0.187500
v -0.500000 0.437500 0.187500
v -0.500000 0.500000 0.187500
v -0.437500 0.500000 0.187500
v -0.500000 0.000000 0.250000
v -0.500000 0.062500 0.250000
v -0.437500 0.000000 0.250000
v -0.500000 0.125000 0.250000
v -0.500000 0.187500 0.250000
v -0.500000 0.250000 0.250000
v -0.500000 0.312500 0.250000
v -0.500000 0.375000 0.250000
v -0.500000 0.437500 0.250000
v -0.500000 0.500000 0.250000
v -0.437500 0.500000 0.250000
v -0.500000 0.000000 0.312500
v -0.500000 0.062500 0.312500
v -0.437500 0.000000 0.312500
v -0.500000 0.125000 0.312500
v -0.500000 0.187500 0.312500
v -0.500000 0.250000 0.312500
v -0.500000 0.312500 0.312500
v -0.500000 0.375000 0.312500
v -0.500000 0.437500 0.312500
v -0.500000 0.500000 0.312500
v -0.437500 0.500000 0.312500
v -0.500000 0.000000 0.375000
v -0.500000 0.062500 0.375000
v -0.437500 0.000000 0.375000
v -0.500000 0.125000 0.375000
v -0.500000 0.187500 0.375000
v -0.500000 0.250000 0.375000
v -0.500000 0.312500 0.375000
v -0.500000 0.375000 0.375000
v -0.500000 0.437500 0.375000
v -0.500000 0.500000 0.375000
v -0.437500 0.500000 0.375000
v -0.500000 0.000000 0.437500
v -0.500000 0.062500 0.437500
v -0.437500 0.000000 0.437500
v -0.500000 0.125000 0.437500
v -0.500000 0.187500 0.437500
v -0.500000 0.250000 0.437500
v -0.500000 0.312500 0.437500
v -0.500000 0.375000 0.437500
v -0.500000 0.437500 0.437500
v -0.500000 0.500000 0.437500
v -0.437500 0.500000 0.437500
v -0.500000 0.000000 0.500000
v -0.500000 0.062500 0.500000
v -0.437500 0.000000 0.500000
v -0.437500 0.062500 0.500000
v -0.500000 0.125000 0.500000
v -0.437500 0.125000 0.500000
v -0.500000 0.187500 0.500000
v -0.437500 0.187500 0.500000
v -0.500000 0.250000 0.500000
v -0.437500 0.250000 0.500000
v -0.500000 0.312500 0.500000
v -0.437500 0.312500 0.500000
v -0.500000 0.375000 0.500000
v -0.437500 0.375000 0.500000
v -0.500000 0.437500 0.500000
v -0.437500 0.437500 0.500000
v -0.500000 0.500000 0.500000
v -0.437500 0.500000 0.500000
v -0.375000 0.062500 -0.500000
v -0.375000 0.000000 -0.500000
v -0.375000 0.000000 -0.437500
v -0.375000 0.125000 -0.500000
v -0.375000 0.187500 -0.500000
v -0.375000 0.250000 -0.500000
v -0.375000 0.312500 -0.500000
v -0.375000 0.375000 -0.500000
v -0.375000 0.437500 -0.500000
v -0.375000 0.500000 -0.500000
v -0.375000 0.500000 -0.437500
v -0.375000 0.000000 -0.375000
v -0.375000 0.500000 -0.375000
v -0.375000 0.000000 -0.312500
v -0.375000 0.500000 -0.312500
v -0.375000 0.000000 -0.250000
v -0.375000 0.500000 -0.250000
v -0.375000 0.000000 -0.187500
v -0.375000 0.500000 -0.187500
v -0.375000 0.000000 -0.125000
v -0.375000 0.500000 -0.125000
v -0.375000 0.000000 -0.062500
v -0.375000 0.500000 -0.062500
v -0.375000 0.000000 0.000000
v -0.375000 0.500000 0.000000
v -0.375000 0.000000 0.062500
v -0.375000 0.500000 0.062500
v -0.375000 0.000000 0.125000
v -0.375000 0.500000 0.125000
v -0.375000 0.000000 0.187500
v -0.375000 0.500000 0.187500
v -0.375000 0.000000 0.250000
v -0.375000 0.500000 0.250000
v -0.375000 0.000000 0.312500
v -0.375000 0.500000 0.312500
v -0.375000 0.000000 0.375000
v -0.375000 0.500000 0.375000
v -0.375000 0.000000 0.437500
v -0.375000 0.500000 0.437500
v -0.375000 0.000000 0.500000
v -0.375000 0.062500 0.500000
v -0.375000 0.125000 0.500000
v -0.375000 0.187500 0.500000
v -0.375000 0.250000 0.500000
v -0.375000 0.312500 0.500000
v -0.375000 0.375000 0.500000
v -0.375000 0.437500 0.500000
v -0.375000 0.500000 0.500000
v -0.312500 0.062500 -0.500000
v -0.312500 0.000000 -0.500000
v -0.312500 0.000000 -0.437500
v -0.312500 0.125000 -0.500000
v -0.312500 0.187500 -0.500000
v -0.312500 0.250000 -0.500000
v -0.312500 0.312500 -0.500000
v -0.312500 0.375000 -0.500000
v -0.312500 0.437500 -0.500000
v -0.312500 0.500000 -0.500000
v -0.312500 0.500000 -0.437500
v -0.312500 0.000000 -0.375000
v -0.312500 0.500000 -0.375000
v -0.312500 0.000000 -0.312500
v -0.312500 0.500000 -0.312500
v -0.312500 0.000000 -0.250000
v -0.312500 0.500000 -0.250000
v -0.312500 0.000000 -0.187500
v -0.312500 0.500000 -0.187500
v -0.312500 0.000000 -0.125000
v -0.312500 0.500000 -0.125000
v -0.312500 0.000000 -0.062500
v -0.312500 0.500000 -0.062500
v -0.312500 0.000000 0.000000
v -0.312500 0.500000 0.000000
v -0.312500 0.000000 0.062500
v -0.312500 0.500000 0.062500
v -0.312500 0.000000 0.125000
v -0.312500 0.500000 0.125000
v -0.312500 0.000000 0.187500
v -0.312500 0.500000 0.187500
v -0.312500 0.000000 0.250000
v -0.312500 0.500000 0.250000
v -0.312500 0.000000 0.312500
v -0.312500 0.500000 0.312500
v -0.312500 0.000000 0.375000
v -0.312500 0.500000 0.375000
v -0.312500 0.000000 0.437500
v -0.312500 0.500000 0.437500
v -0.312500 0.000000 0.500000
v -0.312500 0.062500 0.500000
v -0.312500 0.125000 0.500000
v -0.312500 0.187500 0.500000
v -0.312500 0.250000 0.500000
v -0.312500 0.312500 0.500000
v -0.312500 0.375000 0.500000
v -0.312500 0.437500 0.500000
v -0.312500 0.500000 0.500000
v -0.250000 0.062500 -0.500000
v -0.250000 0.000000 -0.500000
v -0.250000 0.000000 -0.437500
v -0.250000 0.125000 -0.500000
v -0.250000 0.187500 -0.500000
v -0.250000 0.250000 -0.500000
v -0.250000 0.312500 -0.500000
v -0.250000 0.375000 -0.500000
v -0.250000 0.437500 -0.500000
v -0.250000 0.500000 -0.500000
v -0.250000 0.500000 -0.437500
v -0.250000 0.000000 -0.375000
v -0.250000 0.500000 -0.375000
v -0.250000 0.000000 -0.312500
v -0.250000 0.500000 -0.312500
v -0.250000 0.000000 -0.250000
v -0.250000 0.500000 -0.250000
v -0.250000 0.000000 -0.187500
v -0.250000 0.500000 -0.187500
v -0.250000 0.000000 -0.125000
v -0.250000 0.500000 -0.125000
v -0.250000 0.000000 -0.062500
v -0.250000 0.500000 -0.062500
v -0.250000 0.000000 0.000000
v -0.250000 0.500000 0.000000
v -0.250000 0.000000 0.062500
v -0.250000 0.500000 0.062500
v -0.250000 0.000000 0.125000
v -0.250000 0.500000 0.125000
v -0.250000 0.000000 0.187500
v -0.250000 0.500000 0.187500
v -0.250000 0.000000 0.250000
v -0.250000 0.500000 0.250000
v -0.250000 0.000000 0.312500
v -0.250000 0.500000 0.312500
v -0.250000 0.000000 0.375000
v -0.250000 0.500000 0.375000
v -0.250000 0.000000 0.437500
v -0.250000 0.500000 0.437500
v -0.250000 0.000000 0.500000
v -0.250000 0.062500 0.500000
v -0.250000 0.125000 0.500000
v -0.250000 0.187500 0.500000
v -0.250000 0.250000 0.500000
v -0.250000 0.312500 0.500000
v -0.250000 0.375000 0.500000
v -0.250000 0.437500 0.500000
v -0.250000 0.500000 0.500000
v -0.187500 0.062500 -0.500000
v -0.187500 0.000000 -0.500000
v -0.187500 0.000000 -0.437500
v -0.187500 0.125000 -0.500000
v -0.187500 0.187500 -0.500000
v -0.187500 0.250000 -0.500000
v -0.187500 0.312500 -0.500000
v -0.187500 0.375000 -0.500000
v -0.187500 0.437500 -0.500000
v -0.187500 0.500000 -0.500000
v -0.187500 0.500000 -0.437500
v -0.187500 0.000000 -0.375000
v -0.187500 0.500000 -0.375000
v -0.187500 0.000000 -0.312500
v -0.187500 0.500000 -0.312500
v -0.187500 0.000000 -0.250000
v -0.187500 0.500000 -0.250000
v -0.187500 0.000000 -0.187500
v -0.187500 0.500000 -0.187500
v -0.187500 0.000000 -0.125000
v -0.187500 0.500000 -0.125000
v -0.187500 0.000000 -0.062500
v -0.187500 0.500000 -0.062500
v -0.187500 0.000000 0.000000
v -0.187500 0.500000 0.000000
v -0.187500 0.000000 0.062500
v -0.187500 0.500000 0.062500
v -0.187500 0.000000 0.125000
v -0.187500 0.500000 0.125000
v -0.187500 0.000000 0.187500
v -0.187500 0.500000 0.187500
v -0.187500 0.000000 0.250000
v -0.187500 0.500000 0.250000
v -0.187500 0.000000 0.312500
v -0.187500 0.500000 0.312500
v -0.187500 0.000000 0.375000
v -0.187500 0.500000 0.375000
v -0.187500 0.000000 0.437500
v -0.187500 0.500000 0.437500
v -0.187500 0.000000 0.500000
v -0.187500 0.062500 0.500000
v -0.187500 0.125000 0.500000
v -0.187500 0.187500 0.500000
v -0.187500 0.250000 0.500000
v -0.187500 0.312500 0.500000
v -0.187500 0.375000 0.500000
v -0.187500 0.437500 0.500000
v -0.187500 0.500000 0.500000
v -0.125000 0.062500 -0.500000
v -0.125000 0.000000 -0.500000
v -0.125000 0.000000 -0.437500
v -0.125000 0.125000 -0.500000
v -0.125000 0.187500 -0.500000
v -0.125000 0.250000 -0.500000
v -0.125000 0.312500 -0.500000
v -0.125000 0.375000 -0.500000
v -0.125000 0.437500 -0.500000
v -0.125000 0.500000 -0.500000
v -0.125000 0.500000 -0.437500
v -0.125000 0.000000 -0.375000
v -0.125000 0.500000 -0.375000
v -0.125000 0.000000 -0.312500
v -0.125000 0.500000 -0.312500
v -0.125000 0.000000 -0.250000
v -0.125000 0.500000 -0.250000
v -0.125000 0.000000 -0.187500
v -0.125000 0.500000 -0.187500
v -0.125000 0.000000 -0.125000
v -0.125000 0.500000 -0.125000
v -0.125000 0.000000 -0.062500
v -0.125000 0.500000 -0.062500
v -0.125000 0.000000 0.000000
v -0.125000 0.500000 0.000000
v -0.125000 0.000000 0.062500
v -0.125000 0.500000 0.062500
v -0.125000 0.000000 0.125000
v -0.125000 0.500000 0.125000
v -0.125000 0.000000 0.187500
v -0.125000 0.500000 0.187500
v -0.125000 0.000000 0.250000
v -0.125000 0.500000 0.250000
v -0.125000 0.000000 0.312500
v -0.125000 0.500000 0.312500
v -0.125000 0.000000 0.375000
v -0.125000 0.500000 0.375000
v -0.125000 0.000000 0.437500
v -0.125000 0.500000 0.437500
v -0.125000 0.000000 0.500000
v -0.125000 0.062500 0.500000
v -0.125000 0.125000 0.500000
v -0.125000 0.187500 0.500000
v -0.125000 0.250000 0.500000
v -0.125000 0.312500 0.500000
v -0.125000 0.375000 0.500000
v -0.125000 0.437500 0.500000
v -0.125000 0.500000 0.500000
v -0.062500 0.062500 -0.500000
v -0.062500 0.000000 -0.500000
v -0.062500 0.000000 -0.437500
v -0.062500 0.125000 -0.500000
v -0.062500 0.187500 -0.500000
v -0.062500 0.250000 -0.500000
v -0.062500 0.312500 -0.500000
v -0.062500 0.375000 -0.500000
v -0.062500 0.437500 -0.500000
v -0.062500 0.500000 -0.500000
v -0.062500 0.500000 -0.437500
v -0.062500 0.000000 -0.375000
v -0.062500 0.500000 -0.375000
v -0.062500 0.000000 -0.312500
v -0.062500 0.500000 -0.312500
v -0.062500 0.000000 -0.250000
v -0.062500 0.500000 -0.250000
v -0.062500 0.000000 -0.187500
v -0.062500 0.500000 -0.187500
v -0.062500 0.000000 -0.125000
v -0.062500 0.500000 -0.125000
v -0.062500 0.000000 -0.062500
v -0.062500 0.500000 -0.062500
v -0.062500 0.000000 0.000000
v -0.062500 0.500000 0.000000
v -0.062500 0.000000 0.062500
v -0.062500 0.500000 0.062500
v -0.062500 0.000000 0.125000
v -0.062500 0.500000 0.125000
v -0.062500 0.000000 0.187500
v -0.062500 0.500000 0.187500
v -0.062500 0.000000 0.250000
v -0.062500 0.500000 0.250000
v -0.062500 0.000000 0.312500
v -0.062500 0.500000 0.312500
v -0.062500 0.000000 0.375000
v -0.062500 0.500000 0.375000
v -0.062500 0.000000 0.437500
v -0.062500 0.500000 0.437500
v -0.062500 0.000000 0.500000
v -0.062500 0.062500 0.500000
v -0.062500 0.125000 0.500000
v -0.062500 0.187500 0.500000
v -0.062500 0.250000 0.500000
v -0.062500 0.312500 0.500000
v -0.062500 0.375000 0.500000
v -0.062500 0.437500 0.500000
v -0.062500 0.500000 0.500000
v 0.000000 0.062500 -0.500000
v 0.000000 0.000000 -0.500000
v 0.000000 0.000000 -0.437500
v 0.000000 0.125000 -0.500000
v 0.000000 0.187500 -0.500000
v 0.000000 0.250000 -0.500000
v 0.000000 0.312500 -0.500000
v 0.000000 0.375000 -0.500000
v 0.000000 0.437500 -0.500000
v 0.000000 0.500000 -0.500000
v 0.000000 0.500000 -0.437500
v 0.000000 0.000000 -0.375000
v 0.000000 0.500000 -0.375000
v 0.000000 0.000000 -0.312500
v 0.000000 0.500000 -0.312500
v 0.000000 0.000000 -0.250000
v 0.000000 0.500000 -0.250000
v 0.000000 0.000000 -0.187500
v 0.000000 0.500000 -0.187500
v 0.000000 0.000000 -0.125000
v 0.000000 0.500000 -0.125000
v 0.000000 0.000000 -0.062500
v 0.000000 0.500000 -0.062500
v 0.000000 0.000000 0.000000
v 0.000000 0.500000 0.000000
v 0.000000 0.000000 0.062500
v 0.000000 0.500000 0.062500
v 0.000000 0.000000 0.125000
v 0.000000 0.500000 0.125000
v 0.000000 0.000000 0.187500
v 0.000000 0.500000 0.187500
v 0.000000 0.000000 0.250000
v 0.000000 0.500000 0.250000
v 0.000000 0.000000 0.312500
v 0.000000 0.500000 0.312500
v 0.000000 0.000000 0.375000
v 0.000000 0.500000 0.375000
v 0.000000 0.000000 0.437500
v 0.000000 0.500000 0.437500
v 0.000000 0.000000 0.500000
v 0.000000 0.062500 0.500000
v 0.000000 0.125000 0.500000
v 0.000000 0.187500 0.500000
v 0.000000 0.250000 0.500000
v 0.000000 0.312500 0.500000
v 0.000000 0.375000 0.500000
v 0.000000 0.437500 0.500000
v 0.000000 0.500000 0.500000
v 0.062500 0.062500 -0.500000
v 0.062500 0.000000 -0.500000
v 0.062500 0.000000 -0.437500
v 0.062500 0.125000 -0.500000
v 0.062500 0.187500 -0.500000
v 0.062500 0.250000 -0.500000
v 0.062500 0.312500 -0.500000
v 0.062500 0.375000 -0.500000
v 0.062500 0.437500 -0.500000
v 0.062500 0.500000 -0.500000
v 0.062500 0.500000 -0.437500
v 0.062500 0.000000 -0.375000
v 0.062500 0.500000 -0.375000
v 0.062500 0.000000 -0.312500
v 0.062500 0.500000 -0.312500
v 0.062500 0.000000 -0.250000
v 0.062500 0.500000 -0.250000
v 0.062500 0.000000 -0.187500
v 0.062500 0.500000 -0.187500
v 0.062500 0.000000 -0.125000
v 0.062500 0.500000 -0.125000
v 0.062500 0.000000 -0.062500
v 0.062500 0.500000 -0.062500
v 0.062500 0.000000 0.000000
v 0.062500 0.500000 0.000000
v 0.062500 0.000000 0.062500
v 0.062500 0.500000 0.062500
v 0.062500 0.000000 0.125000
v 0.062500 0.500000 0.125000
v 0.062500 0.000000 0.187500
v 0.062500 0.500000 0.187500
v 0.062500 0.000000 0.250000
v 0.062500 0.500000 0.250000
v 0.062500 0.000000 0.312500
v 0.062500 0.500000 0.312500
v 0.062500 0.000000 0.375000
v 0.062500 0.500000 0.375000
v 0.062500 0.000000 0.437500
v 0.062500 0.500000 0.437500
v 0.062500 0.000000 0.500000
v 0.062500 0.062500 0.500000
v 0.062500 0.125000 0.500000
v 0.062500 0.187500 0.500000
v 0.062500 0.250000 0.500000
v 0.062500 0.312500 0.500000
v 0.062500 0.375000 0.500000
v 0.062500 0.437500 0.500000
v 0.062500 0.500000 0.500000
v 0.125000 0.062500 -0.500000
v 0.125000 0.000000 -0.500000
v 0.125000 0.000000 -0.437500
v 0.125000 0.125000 -0.500000
v 0.125000 0.187500 -0.500000
v 0.125000 0.250000 -0.500000
v 0.125000 0.312500 -0.500000
v 0.125000 0.375000 -0.500000
v 0.125000 0.437500 -0.500000
v 0.125000 0.500000 -0.500000
v 0.125000 0.500000 -0.437500
v 0.125000 0.000000 -0.375000
v 0.125000 0.500000 -0.375000
v 0.125000 0.000000 -0.312500
v 0.125000 0.500000 -0.312500
v 0.125000 0.000000 -0.250000
v 0.125000 0.500000 -0.250000
v 0.125000 0.000000 -0.187500
v 0.125000 0.500000 -0.187500
v 0.125000 0.000000 -0.125000
v 0.125000 0.500000 -0.125000
v 0.125000 0.000000 -0.062500
v 0.125000 0.500000 -0.062500
v 0.125000 0.000000 0.000000
v 0.125000 0.500000 0.000000
v 0.125000 0.000000 0.062500
v 0.125000 0.500000 0.062500
v 0.125000 0.000000 0.125000
v 0.125000 0.500000 0.125000
v 0.125000 0.000000 0.187500
v 0.125000 0.500000 0.187500
v 0.125000 0.000000 0.250000
v 0.125000 0.500000 0.250000
v 0.125000 0.000000 0.312500
v 0.125000 0.500000 0.312500
v 0.125000 0.000000 0.375000
v 0.125000 0.500000 0.375000
v 0.125000 0.000000 0.437500
v 0.125000 0.500000 0.437500
v 0.125000 0.000000 0.500000
v 0.125000 0.062500 0.500000
v 0.125000 0.125000 0.500000
v 0.125000 0.187500 0.500000
v 0.125000 0.250000 0.500000
v 0.125000 0.312500 0.500000
v 0.125000 0.375000 0.500000
v 0.125000 0.437500 0.500000
v 0.125000 0.500000 0.500000
v 0.187500 0.062500 -0.500000
v 0.187500 0.000000 -0.500000
v 0.187500 0.000000 -0.437500
v 0.187500 0.125000 -0.500000
v 0.187500 0.187500 -0.500000
v 0.187500 0.250000 -0.500000
v 0.187500 0.312500 -0.500000
v 0.187500 0.375000 -0.500000
v 0.187500 0.437500 -0.500000
v 0.187500 0.500000 -0.500000
v 0.187500 0.500000 -0.437500
v 0.187500 0.000000 -0.375000
v 0.187500 0.500000 -0.375000
v 0.187500 0.000000 -0.312500
v 0.187500 0.500000 -0.312500
v 0.187500 0.000000 -0.250000
v 0.187500 0.500000 -0.250000
v 0.187500 0.000000 -0.187500
v 0.187500 0.500000 -0.187500
v 0.187500 0.000000 -0.125000
v 0.187500 0.500000 -0.125000
v 0.187500 0.000000 -0.062500
v 0.187500 0.500000 -0.062500
v 0.187500 0.000000 0.000000
v 0.187500 0.500000 0.000000
v 0.187500 0.000000 0.062500
v 0.187500 0.500000 0.062500
v 0.187500 0.000000 0.125000
v 0.187500 0.500000 0.125000
v 0.187500 0.000000 0.187500
v 0.187500 0.500000 0.187500
v 0.187500 0.000000 0.250000
v 0.187500 0.500000 0.250000
v 0.187500 0.000000 0.312500
v 0.187500 0.500000 0.312500
v 0.187500 0.000000 0.375000
v 0.187500 0.500000 0.375000
v 0.187500 0.000000 0.437500
v 0.187500 0.500000 0.437500
v 0.187500 0.000000 0.500000
v 0.187500 0.062500 0.500000
v 0.187500 0.125000 0.500000
v 0.187500 0.187500 0.500000
v 0.187500 0.250000 0.500000
v 0.187500 0.312500 0.500000
v 0.187500 0.375000 0.500000
v 0.187500 0.437500 0.500000
v 0.187500 0.500000 0.500000
v 0.250000 0.062500 -0.500000
v 0.250000 0.000000 -0.500000
v 0.250000 0.000000 -0.437500
v 0.250000 0.125000 -0.500000
v 0.250000 0.187500 -0.500000
v 0.250000 0.250000 -0.500000
v 0.250000 0.312500 -0.500000
v 0.250000 0.375000 -0.500000
v 0.250000 0.437500 -0.500000
v 0.250000 0.500000 -0.500000
v 0.250000 0.500000 -0.437500
v 0.250000 0.000000 -0.375000
v 0.250000 0.500000 -0.375000
v 0.250000 0.000000 -0.312500
v 0.250000 0.500000 -0.312500
v 0.250000 0.000000 -0.250000
v 0.250000 0.500000 -0.250000
v 0.250000 0.000000 -0.187500
v 0.250000 0.500000 -0.187500
v 0.250000 0.000000 -0.125000
v 0.250000 0.500000 -0.125000
v 0.250000 0.000000 -0.062500
v 0.250000 0.500000 -0.062500
v 0.250000 0.000000 0.000000
v 0.250000 0.500000 0.000000
v 0.250000 0.000000 0.062500
v 0.250000 0.500000 0.062500
v 0.250000 0.000000 0.125000
v 0.250000 0.500000 0.125000
v 0.250000 0.000000 0.187500
v 0.250000 0.500000 0.187500
v 0.250000 0.000000 0.250000
v 0.250000 0.500000 0.250000
v 0.250000 0.000000 0.312500
v 0.250000 0.500000 0.312500
v 0.250000 0.000000 0.375000
v 0.250000 0.500000 0.375000
v 0.250000 0.000000 0.437500
v 0.250000 0.500000 0.437500
v 0.250000 0.000000 0.500000
v 0.250000 0.062500 0.500000
v 0.250000 0.125000 0.500000
v 0.250000 0.187500 0.500000
v 0.250000 0.250000 0.500000
v 0.250000 0.312500 0.500000
v 0.250000 0.375000 0.500000
v 0.250000 0.437500 0.500000
v 0.250000 0.500000 0.500000
v 0.312500 0.062500 -0.500000
v 0.312500 0.000000 -0.500000
v 0.312500 0.000000 -0.437500
v 0.312500 0.125000 -0.500000
v 0.312500 0.187500 -0.500000
v 0.312500 0.250000 -0.500000
v 0.312500 0.312500 -0.500000
v 0.312500 0.375000 -0.500000
v 0.312500 0.437500 -0.500000
v 0.312500 0.500000 -0.500000
v 0.312500 0.500000 -0.437500
v 0.312500 0.000000 -0.375000
v 0.312500 0.500000 -0.375000
v 0.312500 0.000000 -0.312500
v 0.312500 0.500000 -0.312500
v 0.312500 0.000000 -0.250000
v 0.312500 0.500000 -0.250000
v 0.312500 0.000000 -0.187500
v 0.312500 0.500000 -0.187500
v 0.312500 0.000000 -0.125000
v 0.312500 0.500000 -0.125000
v 0.312500 0.000000 -0.062500
v 0.312500 0.500000 -0.062500
v 0.312500 0.000000 0.000000
v 0.312500 0.500000 0.000000
v 0.312500 0.000000 0.062500
v 0.312500 0.500000 0.062500
v 0.312500 0.000000 0.125000
v 0.312500 0.500000 0.125000
v 0.312500 0.000000 0.187500
v 0.312500 0.500000 0.187500
v 0.312500 0.000000 0.250000
v 0.312500 0.500000 0.250000
v 0.312500 0.000000 0.312500
v 0.312500 0.500000 0.312500
v 0.312500 0.000000 0.375000
v 0.312500 0.500000 0.375000
v 0.312500 0.000000 0.437500
v 0.312500 0.500000 0.437500
v 0.312500 0.000000 0.500000
v 0.312500 0.062500 0.500000
v 0.312500 0.125000 0.500000
v 0.312500 0.187500 0.500000
v 0.312500 0.250000 0.500000
v 0.312500 0.312500 0.500000
v 0.312500 0.375000 0.500000
v 0.312500 0.437500 0.500000
v 0.312500 0.500000 0.500000
v 0.375000 0.062500 -0.500000
v 0.375000 0.000000 -0.500000
v 0.375000 0.000000 -0.437500
v 0.375000 0.125000 -0.500000
v 0.375000 0.187500 -0.500000
v 0.375000 0.250000 -0.500000
v 0.375000 0.312500 -0.500000
v 0.375000 0.375000 -0.500000
v 0.375000 0.437500 -0.500000
v 0.375000 0.500000 -0.500000
v 0.375000 0.500000 -0.437500
v 0.375000 0.000000 -0.375000
v 0.375000 0.500000 -0.375000
v 0.375000 0.000000 -0.312500
v 0.375000 0.500000 -0.312500
v 0.375000 0.000000 -0.250000
v 0.375000 0.500000 -0.250000
v 0.375000 0.000000 -0.187500
v 0.375000 0.500000 -0.187500
v 0.375000 0.000000 -0.125000
v 0.375000 0.500000 -0.125000
v 0.375000 0.000000 -0.062500
v 0.375000 0.500000 -0.062500
v 0.375000 0.000000 0.000000
v 0.375000 0.500000 0.000000
v 0.375000 0.000000 0.062500
v 0.375000 0.500000 0.062500
v 0.375000 0.000000 0.125000
v 0.375000 0.500000 0.125000
v 0.375000 0.000000 0.187500
v 0.375000 0.500000 0.187500
v 0.375000 0.000000 0.250000
v 0.375000 0.500000 0.250000
v 0.375000 0.000000 0.312500
v 0.375000 0.500000 0.312500
v 0.375000 0.000000 0.375000
v 0.375000 0.500000 0.375000
v 0.375000 0.000000 0.437500
v 0.375000 0.500000 0.437500
v 0.375000 0.000000 0.500000
v 0.375000 0.062500 0.500000
v 0.375000 0.125000 0.500000
v 0.375000 0.187500 0.500000
v 0.375000 0.250000 0.500000
v 0.375000 0.312500 0.500000
v 0.375000 0.375000 0.500000
v 0.375000 0.437500 0.500000
v 0.375000 0.500000 0.500000
v 0.437500 0.062500 -0.500000
v 0.437500 0.000000 -0.500000
v 0.437500 0.000000 -0.437500
v 0.437500 0.125000 -0.500000
v 0.437500 0.187500 -0.500000
v 0.437500 0.250000 -0.500000
v 0.437500 0.312500 -0.500000
v 0.437500 0.375000 -0.500000
v 0.437500 0.437500 -0.500000
v 0.437500 0.500000 -0.500000
v 0.437500 0.500000 -0.437500
v 0.437500 0.000000 -0.375000
v 0.437500 0.500000 -0.375000
v 0.437500 0.000000 -0.312500
v 0.437500 0.500000 -0.312500
v 0.437500 0.000000 -0.250000
v 0.437500 0.500000 -0.250000
v 0.437500 0.000000 -0.187500
v 0.437500 0.500000 -0.187500
v 0.437500 0.000000 -0.125000
v 0.437500 0.500000 -0.125000
v 0.437500 0.000000 -0.062500
v 0.437500 0.500000 -0.062500
v 0.437500 0.000000 0.000000
v 0.437500 0.500000 0.000000
v 0.437500 0.000000 0.062500
v 0.437500 0.500000 0.062500
v 0.437500 0.000000 0.125000
v 0.437500 0.500000 0.125000
v 0.437500 0.000000 0.187500
v 0.437500 0.500000 0.187500
v 0.437500 0.000000 0.250000
v 0.437500 0.500000 0.250000
v 0.437500 0.000000 0.312500
v 0.437500 0.500000 0.312500
v 0.437500 0.000000 0.375000
v 0.437500 0.500000 0.375000
v 0.437500 0.000000 0.437500
v 0.437500 0.500000 0.437500
v 0.437500 0.000000 0.500000
v 0.437500 0.062500 0.500000
v 0.437500 0.125000 0.500000
v 0.437500 0.187500 0.500000
v 0.437500 0.250000 0.500000
v 0.437500 0.312500 0.500000
v 0.437500 0.375000 0.500000
v 0.437500 0.437500 0.500000
v 0.437500 0.500000 0.500000
v 0.500000 0.062500 -0.500000
v 0.500000 0.062500 -0.437500
v 0.500000 0.000000 -0.437500
v 0.500000 0.000000 -0.500000
v 0.500000 0.125000 -0.500000
v 0.500000 0.125000 -0.437500
v 0.500000 0.187500 -0.500000
v 0.500000 0.187500 -0.437500
v 0.500000 0.250000 -0.500000
v 0.500000 0.250000 -0.437500
v 0.500000 0.312500 -0.500000
v 0.500000 0.312500 -0.437500
v 0.500000 0.375000 -0.500000
v 0.500000 0.375000 -0.437500
v 0.500000 0.437500 -0.500000
v 0.500000 0.437500 -0.437500
v 0.500000 0.500000 -0.500000
v 0.500000 0.500000 -0.437500
v 0.500000 0.062500 -0.375000
v 0.500000 0.000000 -0.375000
v 0.500000 0.125000 -0.375000
v 0.500000 0.187500 -0.375000
v 0.500000 0.250000 -0.375000
v 0.500000 0.312500 -0.375000
v 0.500000 0.375000 -0.375000
v 0.500000 0.437500 -0.375000
v 0.500000 0.500000 -0.375000
v 0.500000 0.062500 -0.312500
v 0.500000 0.000000 -0.312500
v 0.500000 0.125000 -0.312500
v 0.500000 0.187500 -0.312500
v 0.500000 0.250000 -0.312500
v 0.500000 0.312500 -0.312500
v 0.500000 0.375000 -0.312500
v 0.500000 0.437500 -0.312500
v 0.500000 0.500000 -0.312500
v 0.500000 0.062500 -0.250000
v 0.500000 0.000000 -0.250000
v 0.500000 0.125000 -0.250000
v 0.500000 0.187500 -0.250000
v 0.500000 0.250000 -0.250000
v 0.500000 0.312500 -0.250000
v 0.500000 0.375000 -0.250000
v 0.500000 0.437500 -0.250000
v 0.500000 0.500000 -0.250000
v 0.500000 0.062500 -0.187500
v 0.500000 0.000000 -0.187500
v 0.500000 0.125000 -0.187500
v 0.500000 0.187500 -0.187500
v 0.500000 0.250000 -0.187500
v 0.500000 0.312500 -0.187500
v 0.500000 0.375000 -0.187500
v 0.500000 0.437500 -0.187500
v 0.500000 0.500000 -0.187500
v 0.500000 0.062500 -0.125000
v 0.500000 0.000000 -0.125000
v 0.500000 0.125000 -0.125000
v 0.500000 0.187500 -0.125000
v 0.500000 0.250000 -0.125000
v 0.500000 0.312500 -0.125000
v 0.500000 0.375000 -0.125000
v 0.500000 0.437500 -0.125000
v 0.500000 0.500000 -0.125000
v 0.500000 0.062500 -0.062500
v 0.500000 0.000000 -0.062500
v 0.500000 0.125000 -0.062500
v 0.500000 0.187500 -0.062500
v 0.500000 0.250000 -0.062500
v 0.500000 0.312500 -0.062500
v 0.500000 0.375000 -0.062500
v 0.500000 0.437500 -0.062500
v 0.500000 0.500000 -0.062500
v 0.500000 0.062500 0.000000
v 0.500000 0.000000 0.000000
v 0.500000 0.125000 0.000000
v 0.500000 0.187500 0.000000
v 0.500000 0.250000 0.000000
v 0.500000 0.312500 0.000000
v 0.500000 0.375000 0.000000
v 0.500000 0.437500 0.000000
v 0.500000 0.500000 0.000000
v 0.500000 0.062500 0.062500
v 0.500000 0.000000 0.062500
v 0.500000 0.125000 0.062500
v 0.500000 0.187500 0.062500
v 0.500000 0.250000 0.062500
v 0.500000 0.312500 0.062500
v 0.500000 0.375000 0.062500
v 0.500000 0.437500 0.062500
v 0.500000 0.500000 0.062500
v 0.500000 0.062500 0.125000
v 0.500000 0.000000 0.125000
v 0.500000 0.125000 0.125000
v 0.500000 0.187500 0.125000
v 0.500000 0.250000 0.125000
v 0.500000 0.312500 0.125000
v 0.500000 0.375000 0.125000
v 0.500000 0.437500 0.125000
v 0.500000 0.500000 0.125000
v 0.500000 0.062500 0.187500
v 0.500000 0.000000 0.187500
v 0.500000 0.125000 0.187500
v 0.500000 0.187500 0.187500
v 0.500000 0.250000 0.187500
v 0.500000 0.312500 0.187500
v 0.500000 0.375000 0.187500
v 0.500000 0.437500 0.187500
v 0.500000 0.500000 0.187500
v 0.500000 0.062500 0.250000
v 0.500000 0.000000 0.250000
v 0.500000 0.125000 0.250000
v 0.500000 0.187500 0.250000
v 0.500000 0.250000 0.250000
v 0.500000 0.312500 0.250000
v 0.500000 0.375000 0.250000
v 0.500000 0.437500 0.250000
v 0.500000 0.500000 0.250000
v 0.500000 0.062500 0.312500
v 0.500000 0.000000 0.312500
v 0.500000 0.125000 0.312500
v 0.500000 0.187500 0.312500
v 0.500000 0.250000 0.312500
v 0.500000 0.312500 0.312500
v 0.500000 0.375000 0.312500
v 0.500000 0.437500 0.312500
v 0.500000 0.500000 0.312500
v 0.500000 0.062500 0.375000
v 0.500000 0.000000 0.375000
v 0.500000 0.125000 0.375000
v 0.500000 0.187500 0.375000
v 0.500000 0.250000 0.375000
v 0.500000 0.312500 0.375000
v 0.500000 0.375000 0.375000
v 0.500000 0.437500 0.375000
v 0.500000 0.500000 0.375000
v 0.500000 0.062500 0.437500
v 0.500000 0.000000 0.437500
v 0.500000 0.125000 0.437500
v 0.500000 0.187500 0.437500
v 0.500000 0.250000 0.437500
v 0.500000 0.312500 0.437500
v 0.500000 0.375000 0.437500
v 0.500000 0.437500 0.437500
v 0.500000 0.500000 0.437500
v 0.500000 0.062500 0.500000
v 0.500000 0.000000 0.500000
v 0.500000 0.125000 0.500000
v 0.500000 0.187500 0.500000
v 0.500000 0.250000 0.500000
v 0.500000 0.312500 0.500000
v 0.500000 0.375000 0.500000
v 0.500000 0.437500 0.500000
v 0.500000 0.500000 0.500000
vt 0.03125000 0.96875000
vt 0.09375000 0.96875000
vt 0.15625000 0.96875000
vt 0.21875000 0.96875000
vt 0.28125000 0.96875000
vt 0.34375000 0.96875000
vt 0.40625000 0.96875000
vt 0.46875000 0.96875000
vt 0.53125000 0.96875000
vt 0.59375000 0.96875000
vt 0.65625000 0.96875000
vt 0.71875000 0.96875000
vt 0.78125000 0.96875000
vt 0.84375000 0.96875000
vt 0.90625000 0.96875000
vt 0.96875000 0.96875000
vt 0.03125000 0.90625000
vt 0.09375000 0.90625000
vt 0.15625000 0.90625000
vt 0.21875000 0.90625000
vt 0.28125000 0.90625000
vt 0.34375000 0.90625000
vt 0.40625000 0.90625000
vt 0.46875000 0.90625000
vt 0.53125000 0.90625000
vt 0.59375000 0.90625000
vt 0.65625000 0.90625000
vt 0.71875000 0.90625000
vt 0.78125000 0.90625000
vt 0.84375000 0.90625000
vt 0.90625000 0.90625000
vt 0.96875000 0.90625000
vt 0.03125000 0.84375000
vt 0.09375000 0.84375000
vt 0.15625000 0.84375000
vt 0.21875000 0.84375000
vt 0.28125000 0.84375000
vt 0.34375000 0.84375000
vt 0.40625000 0.84375000
vt 0.46875000 0.84375000
vt 0.53125000 0.84375000
vt 0.59375000 0.84375000
vt 0.65625000 0.84375000
vt 0.71875000 0.84375000
vt 0.78125000 0.84375000
vt 0.84375000 0.84375000
vt 0.90625000 0.84375000
vt 0.96875000 0.84375000
vt 0.03125000 0.78125000
vt 0.09375000 0.78125000
vt 0.15625000 0.78125000
vt 0.21875000 0.78125000
vt 0.28125000 0.78125000
vt 0.34375000 0.78125000
vt 0.40625000 0.78125000
vt 0.46875000 0.78125000
vt 0.53125000 0.78125000
vt 0.59375000 0.78125000
vt 0.65625000 0.78125000
vt 0.71875000 0.78125000
vt 0.78125000 0.78125000
vt 0.84375000 0.78125000
vt 0.90625000 0.78125000
vt 0.96875000 0.78125000
vt 0.03125000 0.71875000
vt 0.09375000 0.71875000
vt 0.15625000 0.71875000
vt 0.21875000 0.71875000
vt 0.28125000 0.71875000
vt 0.34375000 0.71875000
vt 0.40625000 0.71875000
vt 0.46875000 0.71875000
vt 0.53125000 0.71875000
vt 0.59375000 0.71875000
vt 0.65625000 0.71875000
vt 0.71875000 0.71875000
vt 0.78125000 0.71875000
vt 0.84375000 0.71875000
vt 0.90625000 0.71875000
vt 0.96875000 0.71875000
vt 0.03125000 0.65625000
vt 0.09375000 0.65625000
vt 0.15625000 0.65625000
vt 0.21875000 0.65625000
vt 0.28125000 0.65625000
vt 0.34375000 0.65625000
vt 0.40625000 0.65625000
vt 0.46875000 0.65625000
vt 0.53125000 0.65625000
vt 0.59375000 0.65625000
vt 0.65625000 0.65625000
vt 0.71875000 0.65625000
vt 0.78125000 0.65625000
vt 0.84375000 0.65625000
vt 0.90625000 0.65625000
vt 0.96875000 0.65625000
vt 0.03125000 0.59375000
vt 0.09375000 0.59375000
vt 0.15625000 0.59375000
vt 0.21875000 0.59375000
vt 0.28125000 0.59375000
vt 0.34375000 0.59375000
vt 0.40625000 0.59375000
vt 0.46875000 0.59375000
vt 0.53125000 0.59375000
vt 0.59375000 0.59375000
vt 0.65625000 0.59375000
vt 0.71875000 0.59375000
vt 0.78125000 0.59375000
vt 0.84375000 0.59375000
vt 0.90625000 0.59375000
vt 0.96875000 0.59375000
vt 0.03125000 0.53125000
vt 0.09375000 0.53125000
vt 0.15625000 0.53125000
vt 0.21875000 0.53125000
vt 0.28125000 0.53125000
vt 0.34375000 0.53125000
vt 0.40625000 0.53125000
vt 0.46875000 0.53125000
vt 0.53125000 0.53125000
vt 0.59375000 0.53125000
vt 0.65625000 0.53125000
vt 0.71875000 0.53125000
vt 0.78125000 0.53125000
vt 0.84375000 0.53125000
vt 0.90625000 0.53125000
vt 0.96875000 0.53125000
vt 0.03125000 0.46875000
vt 0.09375000 0.46875000
vt 0.15625000 0.46875000
vt 0.21875000 0.46875000
vt 0.28125000 0.46875000
vt 0.34375000 0.46875000
vt 0.40625000 0.46875000
vt 0.46875000 0.46875000
vt 0.53125000 0.46875000
vt 0.59375000 0.46875000
vt 0.65625000 0.46875000
vt 0.71875000 0.46875000
vt 0.78125000 0.46875000
vt 0.84375000 0.46875000
vt 0.90625000 0.46875000
vt 0.96875000 0.46875000
vt 0.03125000 0.40625000
vt 0.09375000 0.40625000
vt 0.15625000 0.40625000
vt 0.21875000 0.40625000
vt 0.28125000 0.40625000
vt 0.34375000 0.40625000
vt 0.40625000 0.40625000
vt 0.46875000 0.40625000
vt 0.53125000 0.40625000
vt 0.59375000 0.40625000
vt 0.65625000 0.40625000
vt 0.71875000 0.40625000
vt 0.78125000 0.40625000
vt 0.84375000 0.40625000
vt 0.90625000 0.40625000
vt 0.96875000 0.40625000
vt 0.03125000 0.34375000
vt 0.09375000 0.34375000
vt 0.15625000 0.34375000
vt 0.21875000 0.34375000
vt 0.28125000 0.34375000
vt 0.34375000 0.34375000
vt 0.40625000 0.34375000
vt 0.46875000 0.34375000
vt 0.53125000 0.34375000
vt 0.59375000 0.34375000
vt 0.65625000 0.34375000
vt 0.71875000 0.34375000
vt 0.78125000 0.34375000
vt 0.84375000 0.34375000
vt 0.90625000 0.34375000
vt 0.96875000 0.34375000
vt 0.03125000 0.28125000
vt 0.09375000 0.28125000
vt 0.15625000 0.28125000
vt 0.21875000 0.28125000
vt 0.28125000 0.28125000
vt 0.34375000 0.28125000
vt 0.40625000 0.28125000
vt 0.46875000 0.28125000
vt 0.53125000 0.28125000
vt 0.59375000 0.28125000
vt 0.65625000 0.28125000
vt 0.71875000 0.28125000
vt 0.78125000 0.28125000
vt 0.84375000 0.28125000
vt 0.90625000 0.28125000
vt 0.96875000 0.28125000
vt 0.03125000 0.21875000
vt 0.09375000 0.21875000
vt 0.15625000 0.21875000
vt 0.21875000 0.21875000
vt 0.28125000 0.21875000
vt 0.34375000 0.21875000
vt 0.40625000 0.21875000
vt 0.46875000 0.21875000
vt 0.53125000 0.21875000
vt 0.59375000 0.21875000
vt 0.65625000 0.21875000
vt 0.71875000 0.21875000
vt 0.78125000 0.21875000
vt 0.84375000 0.21875000
vt 0.90625000 0.21875000
vt 0.96875000 0.21875000
vt 0.03125000 0.15625000
vt 0.09375000 0.15625000
vt 0.15625000 0.15625000
vt 0.21875000 0.15625000
vt 0.28125000 0.15625000
vt 0.34375000 0.15625000
vt 0.40625000 0.15625000
vt 0.46875000 0.15625000
vt 0.53125000 0.15625000
vt 0.59375000 0.15625000
vt 0.65625000 0.15625000
vt 0.71875000 0.15625000
vt 0.78125000 0.15625000
vt 0.84375000 0.15625000
vt 0.90625000 0.15625000
vt 0.96875000 0.15625000
vt 0.03125000 0.09375000
vt 0.09375000 0.09375000
vt 0.15625000 0.09375000
vt 0.21875000 0.09375000
vt 0.28125000 0.09375000
vt 0.34375000 0.09375000
vt 0.40625000 0.09375000
vt 0.46875000 0.09375000
vt 0.53125000 0.09375000
vt 0.59375000 0.09375000
vt 0.65625000 0.09375000
vt 0.71875000 0.09375000
vt 0.78125000 0.09375000
vt 0.84375000 0.09375000
vt 0.90625000 0.09375000
vt 0.96875000 0.09375000
vt 0.03125000 0.03125000
vt 0.09375000 0.03125000
vt 0.15625000 0.03125000
vt 0.21875000 0.03125000
vt 0.28125000 0.03125000
vt 0.34375000 0.03125000
vt 0.40625000 0.03125000
vt 0.46875000 0.03125000
vt 0.53125000 0.03125000
vt 0.59375000 0.03125000
vt 0.65625000 0.03125000
vt 0.71875000 0.03125000
vt 0.78125000 0.03125000
vt 0.84375000 0.03125000
vt 0.90625000 0.03125000
vt 0.96875000 0.03125000
vn -1 0 0
vn 1 0 0
vn 0 0 -1
vn 0 0 1
vn 0 -1 0
vn 0 1 0
g palette
usemtl palette
f 1/4/1 2/4/1 3/4/1 4/4/1
f 3/4/3 5/4/3 6/4/3 4/4/3
f 6/4/5 7/4/5 1/4/5 4/4/5
f 2/4/1 8/4/1 9/4/1 3/4/1
f 9/4/3 10/4/3 5/4/3 3/4/3
f 8/4/1 11/4/1 12/4/1 9/4/1
f 12/4/3 13/4/3 10/4/3 9/4/3
f 11/4/1 14/4/1 15/4/1 12/4/1
f 15/4/3 16/4/3 13/4/3 12/4/3
f 14/4/1 17/4/1 18/4/1 15/4/1
f 18/4/3 19/4/3 16/4/3 15/4/3
f 17/4/1 20/4/1 21/4/1 18/4/1
f 21/4/3 22/4/3 19/4/3 18/4/3
f 20/4/1 23/4/1 24/4/1 21/4/1
f 24/4/3 25/4/3 22/4/3 21/4/3
f 23/5/1 26/5/1 27/5/1 24/5/1
f 27/5/3 28/5/3 25/5/3 24/5/3
f 26/5/6 29/5/6 28/5/6 27/5/6
f 30/4/1 31/4/1 2/4/1 1/4/1
f 7/4/5 32/4/5 30/4/5 1/4/5
f 31/4/1 33/4/1 8/4/1 2/4/1
f 33/4/1 34/4/1 11/4/1 8/4/1
f 34/4/1 35/4/1 14/4/1 11/4/1
f 35/4/1 36/4/1 17/4/1 14/4/1
f 36/4/1 37/4/1 20/4/1 17/4/1
f 37/4/1 38/4/1 23/4/1 20/4/1
f 38/5/1 39/5/1 26/5/1 23/5/1
f 39/5/6 40/5/6 29/5/6 26/5/6
f 41/4/1 42/4/1 31/4/1 30/4/1
f 32/4/5 43/4/5 41/4/5 30/4/5
f 42/4/1 44/4/1 33/4/1 31/4/1
f 44/4/1 45/4/1 34/4/1 33/4/1
f 45/4/1 46/4/1 35/4/1 34/4/1
f 46/4/1 47/4/1 36/4/1 35/4/1
f 47/4/1 48/4/1 37/4/1 36/4/1
f 48/5/1 49/5/1 38/5/1 37/5/1
f 49/5/1 50/5/1 39/5/1 38/5/1
f 50/5/6 51/5/6 40/5/6 39/5/6
f 52/4/1 53/4/1 42/4/1 41/4/1
f 43/4/5 54/4/5 52/4/5 41/4/5
f 53/4/1 55/4/1 44/4/1 42/4/1
f 55/4/1 56/4/1 45/4/1 44/4/1
f 56/4/1 57/4/1 46/4/1 45/4/1
f 57/4/1 58/4/1 47/4/1 46/4/1
f 58/4/1 59/4/1 48/4/1 47/4/1
f 59/4/1 60/4/1 49/4/1 48/4/1
f 60/5/1 61/5/1 50/5/1 49/5/1
f 61/5/6 62/5/6 51/5/6 50/5/6
f 63/4/1 64/4/1 53/4/1 52/4/1
f 54/4/5 65/4/5 63/4/5 52/4/5
f 64/4/1 66/4/1 55/4/1 53/4/1
f 66/4/1 67/4/1 56/4/1 55/4/1
f 67/4/1 68/4/1 57/4/1 56/4/1
f 68/4/1 69/4/1 58/4/1 57/4/1
f 69/4/1 70/4/1 59/4/1 58/4/1
f 70/4/1 71/4/1 60/4/1 59/4/1
f 71/5/1 72/5/1 61/5/1 60/5/1
f 72/5/6 73/5/6 62/5/6 61/5/6
f 74/4/1 75/4/1 64/4/1 63/4/1
f 65/4/5 76/4/5 74/4/5 63/4/5
f 75/4/1 77/4/1 66/4/1 64/4/1
f 77/4/1 78/4/1 67/4/1 66/4/1
f 78/4/1 79/4/1 68/4/1 67/4/1
f 79/4/1 80/4/1 69/4/1 68/4/1
f 80/4/1 81/4/1 70/4/1 69/4/1
f 81/4/1 82/4/1 71/4/1 70/4/1
f 82/5/1 83/5/1 72/5/1 71/5/1
f 83/5/6 84/5/6 73/5/6 72/5/6
f 85/4/1 86/4/1 75/4/1 74/4/1
f 76/4/5 87/4/5 85/4/5 74/4/5
f 86/4/1 88/4/1 77/4/1 75/4/1
f 88/4/1 89/4/1 78/4/1 77/4/1
f 89/4/1 90/4/1 79/4/1 78/4/1
f 90/4/1 91/4/1 80/4/1 79/4/1
f 91/4/1 92/4/1 81/4/1 80/4/1
f 92/4/1 93/4/1 82/4/1 81/4/1
f 93/5/1 94/5/1 83/5/1 82/5/1
f 94/5/6 95/5/6 84/5/6 83/5/6
f 96/4/1 97/4/1 86/4/1 85/4/1
f 87/4/5 98/4/5 96/4/5 85/4/5
f 97/4/1 99/4/1 88/4/1 86/4/1
f 99/4/1 100/4/1 89/4/1 88/4/1
f 100/4/1 101/4/1 90/4/1 89/4/1
f 101/4/1 102/4/1 91/4/1 90/4/1
f 102/4/1 103/4/1 92/4/1 91/4/1
f 103/4/1 104/4/1 93/4/1 92/4/1
f 104/5/1 105/5/1 94/5/1 93/5/1
f 105/5/6 106/5/6 95/5/6 94/5/6
f 107/4/1 108/4/1 97/4/1 96/4/1
f 98/4/5 109/4/5 107/4/5 96/4/5
f 108/4/1 110/4/1 99/4/1 97/4/1
f 110/4/1 111/4/1 100/4/1 99/4/1
f 111/4/1 112/4/1 101/4/1 100/4/1
f 112/4/1 113/4/1 102/4/1 101/4/1
f 113/4/1 114/4/1 103/4/1 102/4/1
f 114/4/1 115/4/1 104/4/1 103/4/1
f 115/5/1 116/5/1 105/5/1 104/5/1
f 116/5/6 117/5/6 106/5/6 105/5/6
f 118/4/1 119/4/1 108/4/1 107/4/1
f 109/4/5 120/4/5 118/4/5 107/4/5
f 119/4/1 121/4/1 110/4/1 108/4/1
f 121/4/1 122/4/1 111/4/1 110/4/1
f 122/4/1 123/4/1 112/4/1 111/4/1
f 123/4/1 124/4/1 113/4/1 112/4/1
f 124/4/1 125/4/1 114/4/1 113/4/1
f 125/4/1 126/4/1 115/4/1 114/4/1
f 126/5/1 127/5/1 116/5/1 115/5/1
f 127/5/6 128/5/6 117/5/6 116/5/6
f 129/4/1 130/4/1 119/4/1 118/4/1
f 120/4/5 131/4/5 129/4/5 118/4/5
f 130/4/1 132/4/1 121/4/1 119/4/1
f 132/4/1 133/4/1 122/4/1 121/4/1
f 133/4/1 134/4/1 123/4/1 122/4/1
f 134/4/1 135/4/1 124/4/1 123/4/1
f 135/4/1 136/4/1 125/4/1 124/4/1
f 136/4/1 137/4/1 126/4/1 125/4/1
f 137/5/1 138/5/1 127/5/1 126/5/1
f 138/5/6 139/5/6 128/5/6 127/5/6
f 140/4/1 141/4/1 130/4/1 129/4/1
f 131/4/5 142/4/5 140/4/5 129/4/5
f 141/4/1 143/4/1 132/4/1 130/4/1
f 143/4/1 144/4/1 133/4/1 132/4/1
f 144/4/1 145/4/1 134/4/1 133/4/1
f 145/4/1 146/4/1 135/4/1 134/4/1
f 146/4/1 147/4/1 136/4/1 135/4/1
f 147/4/1 148/4/1 137/4/1 136/4/1
f 148/5/1 149/5/1 138/5/1 137/5/1
f 149/5/6 150/5/6 139/5/6 138/5/6
f 151/4/1 152/4/1 141/4/1 140/4/1
f 142/4/5 153/4/5 151/4/5 140/4/5
f 152/4/1 154/4/1 143/4/1 141/4/1
f 154/4/1 155/4/1 144/4/1 143/4/1
f 155/4/1 156/4/1 145/4/1 144/4/1
f 156/4/1 157/4/1 146/4/1 145/4/1
f 157/4/1 158/4/1 147/4/1 146/4/1
f 158/4/1 159/4/1 148/4/1 147/4/1
f 159/5/1 160/5/1 149/5/1 148/5/1
f 160/5/6 161/5/6 150/5/6 149/5/6
f 162/4/1 163/4/1 152/4/1 151/4/1
f 153/4/5 164/4/5 162/4/5 151/4/5
f 163/4/1 165/4/1 154/4/1 152/4/1
f 165/4/1 166/4/1 155/4/1 154/4/1
f 166/4/1 167/4/1 156/4/1 155/4/1
f 167/4/1 168/4/1 157/4/1 156/4/1
f 168/4/1 169/4/1 158/4/1 157/4/1
f 169/4/1 170/4/1 159/4/1 158/4/1
f 170/5/1 171/5/1 160/5/1 159/5/1
f 171/5/6 172/5/6 161/5/6 160/5/6
f 173/4/1 174/4/1 163/4/1 162/4/1
f 164/4/5 175/4/5 173/4/5 162/4/5
f 174/4/1 176/4/1 165/4/1 163/4/1
f 176/4/1 177/4/1 166/4/1 165/4/1
f 177/4/1 178/4/1 167/4/1 166/4/1
f 178/4/1 179/4/1 168/4/1 167/4/1
f 179/4/1 180/4/1 169/4/1 168/4/1
f 180/4/1 181/4/1 170/4/1 169/4/1
f 181/5/1 182/5/1 171/5/1 170/5/1
f 182/5/6 183/5/6 172/5/6 171/5/6
f 184/4/1 185/4/1 174/4/1 173/4/1
f 186/4/4 187/4/4 185/4/4 184/4/4
f 175/4/5 186/4/5 184/4/5 173/4/5
f 185/4/1 188/4/1 176/4/1 174/4/1
f 187/4/4 189/4/4 188/4/4 185/4/4
f 188/4/1 190/4/1 177/4/1 176/4/1
f 189/4/4 191/4/4 190/4/4 188/4/4
f 190/4/1 192/4/1 178/4/1 177/4/1
f 191/4/4 193/4/4 192/4/4 190/4/4
f 192/4/1 194/4/1 179/4/1 178/4/1
f 193/4/4 195/4/4 194/4/4 192/4/4
f 194/4/1 196/4/1 180/4/1 179/4/1
f 195/4/4 197/4/4 196/4/4 194/4/4
f 196/4/1 198/4/1 181/4/1 180/4/1
f 197/4/4 199/4/4 198/4/4 196/4/4
f 198/5/1 200/5/1 182/5/1 181/5/1
f 199/5/4 201/5/4 200/5/4 198/5/4
f 200/5/6 201/5/6 183/5/6 182/5/6
f 5/4/3 202/4/3 203/4/3 6/4/3
f 203/4/5 204/4/5 7/4/5 6/4/5
f 10/4/3 205/4/3 202/4/3 5/4/3
f 13/4/3 206/4/3 205/4/3 10/4/3
f 16/4/3 207/4/3 206/4/3 13/4/3
f 19/4/3 208/4/3 207/4/3 16/4/3
f 22/4/3 209/4/3 208/4/3 19/4/3
f 25/4/3 210/4/3 209/4/3 22/4/3
f 28/5/3 211/5/3 210/5/3 25/5/3
f 29/5/6 212/5/6 211/5/6 28/5/6
f 204/4/5 213/4/5 32/4/5 7/4/5
f 40/5/6 214/5/6 212/5/6 29/5/6
f 213/4/5 215/4/5 43/4/5 32/4/5
f 51/5/6 216/5/6 214/5/6 40/5/6
f 215/4/5 217/4/5 54/4/5 43/4/5
f 62/5/6 218/5/6 216/5/6 51/5/6
f 217/4/5 219/4/5 65/4/5 54/4/5
f 73/5/6 220/5/6 218/5/6 62/5/6
f 219/4/5 221/4/5 76/4/5 65/4/5
f 84/5/6 222/5/6 220/5/6 73/5/6
f 221/4/5 223/4/5 87/4/5 76/4/5
f 95/5/6 224/5/6 222/5/6 84/5/6
f 223/4/5 225/4/5 98/4/5 87/4/5
f 106/5/6 226/5/6 224/5/6 95/5/6
f 225/4/5 227/4/5 109/4/5 98/4/5
f 117/5/6 228/5/6 226/5/6 106/5/6
f 227/4/5 229/4/5 120/4/5 109/4/5
f 128/5/6 230/5/6 228/5/6 117/5/6
f 229/4/5 231/4/5 131/4/5 120/4/5
f 139/5/6 232/5/6 230/5/6 128/5/6
f 231/4/5 233/4/5 142/4/5 131/4/5
f 150/5/6 234/5/6 232/5/6 139/5/6
f 233/4/5 235/4/5 153/4/5 142/4/5
f 161/5/6 236/5/6 234/5/6 150/5/6
f 235/4/5 237/4/5 164/4/5 153/4/5
f 172/5/6 238/5/6 236/5/6 161/5/6
f 237/4/5 239/4/5 175/4/5 164/4/5
f 183/5/6 240/5/6 238/5/6 172/5/6
f 241/4/4 242/4/4 187/4/4 186/4/4
f 239/4/5 241/4/5 186/4/5 175/4/5
f 242/4/4 243/4/4 189/4/4 187/4/4
f 243/4/4 244/4/4 191/4/4 189/4/4
f 244/4/4 245/4/4 193/4/4 191/4/4
f 245/4/4 246/4/4 195/4/4 193/4/4
f 246/4/4 247/4/4 197/4/4 195/4/4
f 247/4/4 248/4/4 199/4/4 197/4/4
f 248/5/4 249/5/4 201/5/4 199/5/4
f 201/5/6 249/5/6 240/5/6 183/5/6
f 202/4/3 250/4/3 251/4/3 203/4/3
f 251/4/5 252/4/5 204/4/5 203/4/5
f 205/4/3 253/4/3 250/4/3 202/4/3
f 206/4/3 254/4/3 253/4/3 205/4/3
f 207/4/3 255/4/3 254/4/3 206/4/3
f 208/4/3 256/4/3 255/4/3 207/4/3
f 209/4/3 257/4/3 256/4/3 208/4/3
f 210/4/3 258/4/3 257/4/3 209/4/3
f 211/5/3 259/5/3 258/5/3 210/5/3
f 212/5/6 260/5/6 259/5/6 211/5/6
f 252/4/5 261/4/5 213/4/5 204/4/5
f 214/5/6 262/5/6 260/5/6 212/5/6
f 261/4/5 263/4/5 215/4/5 213/4/5
f 216/5/6 264/5/6 262/5/6 214/5/6
f 263/4/5 265/4/5 217/4/5 215/4/5
f 218/5/6 266/5/6 264/5/6 216/5/6
f 265/4/5 267/4/5 219/4/5 217/4/5
f 220/5/6 268/5/6 266/5/6 218/5/6
f 267/4/5 269/4/5 221/4/5 219/4/5
f 222/5/6 270/5/6 268/5/6 220/5/6
f 269/4/5 271/4/5 223/4/5 221/4/5
f 224/5/6 272/5/6 270/5/6 222/5/6
f 271/4/5 273/4/5 225/4/5 223/4/5
f 226/5/6 274/5/6 272/5/6 224/5/6
f 273/4/5 275/4/5 227/4/5 225/4/5
f 228/5/6 276/5/6 274/5/6 226/5/6
f 275/4/5 277/4/5 229/4/5 227/4/5
f 230/5/6 278/5/6 276/5/6 228/5/6
f 277/4/5 279/4/5 231/4/5 229/4/5
f 232/5/6 280/5/6 278/5/6 230/5/6
f 279/4/5 281/4/5 233/4/5 231/4/5
f 234/5/6 282/5/6 280/5/6 232/5/6
f 281/4/5 283/4/5 235/4/5 233/4/5
f 236/5/6 284/5/6 282/5/6 234/5/6
f 283/4/5 285/4/5 237/4/5 235/4/5
f 238/5/6 286/5/6 284/5/6 236/5/6
f 285/4/5 287/4/5 239/4/5 237/4/5
f 240/5/6 288/5/6 286/5/6 238/5/6
f 289/4/4 290/4/4 242/4/4 241/4/4
f 287/4/5 289/4/5 241/4/5 239/4/5
f 290/4/4 291/4/4 243/4/4 242/4/4
f 291/4/4 292/4/4 244/4/4 243/4/4
f 292/4/4 293/4/4 245/4/4 244/4/4
f 293/4/4 294/4/4 246/4/4 245/4/4
f 294/4/4 295/4/4 247/4/4 246/4/4
f 295/5/4 296/5/4 248/5/4 247/5/4
f 296/5/4 297/5/4 249/5/4 248/5/4
f 249/5/6 297/5/6 288/5/6 240/5/6
f 250/4/3 298/4/3 299/4/3 251/4/3
f 299/4/5 300/4/5 252/4/5 251/4/5
f 253/4/3 301/4/3 298/4/3 250/4/3
f 254/4/3 302/4/3 301/4/3 253/4/3
f 255/4/3 303/4/3 302/4/3 254/4/3
f 256/4/3 304/4/3 303/4/3 255/4/3
f 257/4/3 305/4/3 304/4/3 256/4/3
f 258/4/3 306/4/3 305/4/3 257/4/3
f 259/5/3 307/5/3 306/5/3 258/5/3
f 260/5/6 308/5/6 307/5/6 259/5/6
f 300/4/5 309/4/5 261/4/5 252/4/5
f 262/5/6 310/5/6 308/5/6 260/5/6
f 309/4/5 311/4/5 263/4/5 261/4/5
f 264/5/6 312/5/6 310/5/6 262/5/6
f 311/4/5 313/4/5 265/4/5 263/4/5
f 266/5/6 314/5/6 312/5/6 264/5/6
f 313/4/5 315/4/5 267/4/5 265/4/5
f 268/5/6 316/5/6 314/5/6 266/5/6
f 315/4/5 317/4/5 269/4/5 267/4/5
f 270/5/6 318/5/6 316/5/6 268/5/6
f 317/4/5 319/4/5 271/4/5 269/4/5
f 272/5/6 320/5/6 318/5/6 270/5/6
f 319/4/5 321/4/5 273/4/5 271/4/5
f 274/5/6 322/5/6 320/5/6 272/5/6
f 321/4/5 323/4/5 275/4/5 273/4/5
f 276/5/6 324/5/6 322/5/6 274/5/6
f 323/4/5 325/4/5 277/4/5 275/4/5
f 278/5/6 326/5/6 324/5/6 276/5/6
f 325/4/5 327/4/5 279/4/5 277/4/5
f 280/5/6 328/5/6 326/5/6 278/5/6
f 327/4/5 329/4/5 281/4/5 279/4/5
f 282/5/6 330/5/6 328/5/6 280/5/6
f 329/4/5 331/4/5 283/4/5 281/4/5
f 284/5/6 332/5/6 330/5/6 282/5/6
f 331/4/5 333/4/5 285/4/5 283/4/5
f 286/5/6 334/5/6 332/5/6 284/5/6
f 333/4/5 335/4/5 287/4/5 285/4/5
f 288/5/6 336/5/6 334/5/6 286/5/6
f 337/4/4 338/4/4 290/4/4 289/4/4
f 335/4/5 337/4/5 289/4/5 287/4/5
f 338/4/4 339/4/4 291/4/4 290/4/4
f 339/4/4 340/4/4 292/4/4 291/4/4
f 340/4/4 341/4/4 293/4/4 292/4/4
f 341/4/4 342/4/4 294/4/4 293/4/4
f 342/4/4 343/4/4 295/4/4 294/4/4
f 343/4/4 344/4/4 296/4/4 295/4/4
f 344/5/4 345/5/4 297/5/4 296/5/4
f 297/5/6 345/5/6 336/5/6 288/5/6
f 298/4/3 346/4/3 347/4/3 299/4/3
f 347/4/5 348/4/5 300/4/5 299/4/5
f 301/4/3 349/4/3 346/4/3 298/4/3
f 302/4/3 350/4/3 349/4/3 301/4/3
f 303/4/3 351/4/3 350/4/3 302/4/3
f 304/4/3 352/4/3 351/4/3 303/4/3
f 305/4/3 353/4/3 352/4/3 304/4/3
f 306/4/3 354/4/3 353/4/3 305/4/3
f 307/5/3 355/5/3 354/5/3 306/5/3
f 308/5/6 356/5/6 355/5/6 307/5/6
f 348/4/5 357/4/5 309/4/5 300/4/5
f 310/5/6 358/5/6 356/5/6 308/5/6
f 357/4/5 359/4/5 311/4/5 309/4/5
f 312/5/6 360/5/6 358/5/6 310/5/6
f 359/4/5 361/4/5 313/4/5 311/4/5
f 314/5/6 362/5/6 360/5/6 312/5/6
f 361/4/5 363/4/5 315/4/5 313/4/5
f 316/5/6 364/5/6 362/5/6 314/5/6
f 363/4/5 365/4/5 317/4/5 315/4/5
f 318/5/6 366/5/6 364/5/6 316/5/6
f 365/4/5 367/4/5 319/4/5 317/4/5
f 320/5/6 368/5/6 366/5/6 318/5/6
f 367/4/5 369/4/5 321/4/5 319/4/5
f 322/5/6 370/5/6 368/5/6 320/5/6
f 369/4/5 371/4/5 323/4/5 321/4/5
f 324/5/6 372/5/6 370/5/6 322/5/6
f 371/4/5 373/4/5 325/4/5 323/4/5
f 326/5/6 374/5/6 372/5/6 324/5/6
f 373/4/5 375/4/5 327/4/5 325/4/5
f 328/5/6 376/5/6 374/5/6 326/5/6
f 375/4/5 377/4/5 329/4/5 327/4/5
f 330/5/6 378/5/6 376/5/6 328/5/6
f 377/4/5 379/4/5 331/4/5 329/4/5
f 332/5/6 380/5/6 378/5/6 330/5/6
f 379/4/5 381/4/5 333/4/5 331/4/5
f 334/5/6 382/5/6 380/5/6 332/5/6
f 381/4/5 383/4/5 335/4/5 333/4/5
f 336/5/6 384/5/6 382/5/6 334/5/6
f 385/4/4 386/4/4 338/4/4 337/4/4
f 383/4/5 385/4/5 337/4/5 335/4/5
f 386/4/4 387/4/4 339/4/4 338/4/4
f 387/4/4 388/4/4 340/4/4 339/4/4
f 388/4/4 389/4/4 341/4/4 340/4/4
f 389/4/4 390/4/4 342/4/4 341/4/4
f 390/4/4 391/4/4 343/4/4 342/4/4
f 391/4/4 392/4/4 344/4/4 343/4/4
f 392/5/4 393/5/4 345/5/4 344/5/4
f 345/5/6 393/5/6 384/5/6 336/5/6
f 346/4/3 394/4/3 395/4/3 347/4/3
f 395/4/5 396/4/5 348/4/5 347/4/5
f 349/4/3 397/4/3 394/4/3 346/4/3
f 350/4/3 398/4/3 397/4/3 349/4/3
f 351/4/3 399/4/3 398/4/3 350/4/3
f 352/5/3 400/5/3 399/5/3 351/5/3
f 353/4/3 401/4/3 400/4/3 352/4/3
f 354/4/3 402/4/3 401/4/3 353/4/3
f 355/5/3 403/5/3 402/5/3 354/5/3
f 356/5/6 404/5/6 403/5/6 355/5/6
f 396/4/5 405/4/5 357/4/5 348/4/5
f 358/5/6 406/5/6 404/5/6 356/5/6
f 405/4/5 407/4/5 359/4/5 357/4/5
f 360/5/6 408/5/6 406/5/6 358/5/6
f 407/4/5 409/4/5 361/4/5 359/4/5
f 362/5/6 410/5/6 408/5/6 360/5/6
f 409/4/5 411/4/5 363/4/5 361/4/5
f 364/5/6 412/5/6 410/5/6 362/5/6
f 411/4/5 413/4/5 365/4/5 363/4/5
f 366/5/6 414/5/6 412/5/6 364/5/6
f 413/4/5 415/4/5 367/4/5 365/4/5
f 368/5/6 416/5/6 414/5/6 366/5/6
f 415/4/5 417/4/5 369/4/5 367/4/5
f 370/5/6 418/5/6 416/5/6 368/5/6
f 417/4/5 419/4/5 371/4/5 369/4/5
f 372/5/6 420/5/6 418/5/6 370/5/6
f 419/4/5 421/4/5 373/4/5 371/4/5
f 374/5/6 422/5/6 420/5/6 372/5/6
f 421/4/5 423/4/5 375/4/5 373/4/5
f 376/5/6 424/5/6 422/5/6 374/5/6
f 423/4/5 425/4/5 377/4/5 375/4/5
f 378/5/6 426/5/6 424/5/6 376/5/6
f 425/4/5 427/4/5 379/4/5 377/4/5
f 380/5/6 428/5/6 426/5/6 378/5/6
f 427/4/5 429/4/5 381/4/5 379/4/5
f 382/5/6 430/5/6 428/5/6 380/5/6
f 429/4/5 431/4/5 383/4/5 381/4/5
f 384/5/6 432/5/6 430/5/6 382/5/6
f 433/4/4 434/4/4 386/4/4 385/4/4
f 431/4/5 433/4/5 385/4/5 383/4/5
f 434/4/4 435/4/4 387/4/4 386/4/4
f 435/4/4 436/4/4 388/4/4 387/4/4
f 436/4/4 437/4/4 389/4/4 388/4/4
f 437/4/4 438/4/4 390/4/4 389/4/4
f 438/4/4 439/4/4 391/4/4 390/4/4
f 439/4/4 440/4/4 392/4/4 391/4/4
f 440/5/4 441/5/4 393/5/4 392/5/4
f 393/5/6 441/5/6 432/5/6 384/5/6
f 394/4/3 442/4/3 443/4/3 395/4/3
f 443/4/5 444/4/5 396/4/5 395/4/5
f 397/4/3 445/4/3 442/4/3 394/4/3
f 398/4/3 446/4/3 445/4/3 397/4/3
f 399/4/3 447/4/3 446/4/3 398/4/3
f 400/4/3 448/4/3 447/4/3 399/4/3
f 401/4/3 449/4/3 448/4/3 400/4/3
f 402/4/3 450/4/3 449/4/3 401/4/3
f 403/5/3 451/5/3 450/5/3 402/5/3
f 404/5/6 452/5/6 451/5/6 403/5/6
f 444/4/5 453/4/5 405/4/5 396/4/5
f 406/5/6 454/5/6 452/5/6 404/5/6
f 453/4/5 455/4/5 407/4/5 405/4/5
f 408/5/6 456/5/6 454/5/6 406/5/6
f 455/4/5 457/4/5 409/4/5 407/4/5
f 410/5/6 458/5/6 456/5/6 408/5/6
f 457/4/5 459/4/5 411/4/5 409/4/5
f 412/5/6 460/5/6 458/5/6 410/5/6
f 459/4/5 461/4/5 413/4/5 411/4/5
f 414/5/6 462/5/6 460/5/6 412/5/6
f 461/4/5 463/4/5 415/4/5 413/4/5
f 416/5/6 464/5/6 462/5/6 414/5/6
f 463/4/5 465/4/5 417/4/5 415/4/5
f 418/5/6 466/5/6 464/5/6 416/5/6
f 465/4/5 467/4/5 419/4/5 417/4/5
f 420/5/6 468/5/6 466/5/6 418/5/6
f 467/4/5 469/4/5 421/4/5 419/4/5
f 422/5/6 470/5/6 468/5/6 420/5/6
f 469/4/5 471/4/5 423/4/5 421/4/5
f 424/5/6 472/5/6 470/5/6 422/5/6
f 471/4/5 473/4/5 425/4/5 423/4/5
f 426/5/6 474/5/6 472/5/6 424/5/6
f 473/4/5 475/4/5 427/4/5 425/4/5
f 428/5/6 476/5/6 474/5/6 426/5/6
f 475/4/5 477/4/5 429/4/5 427/4/5
f 430/5/6 478/5/6 476/5/6 428/5/6
f 477/4/5 479/4/5 431/4/5 429/4/5
f 432/5/6 480/5/6 478/5/6 430/5/6
f 481/4/4 482/4/4 434/4/4 433/4/4
f 479/4/5 481/4/5 433/4/5 431/4/5
f 482/4/4 483/4/4 435/4/4 434/4/4
f 483/4/4 484/4/4 436/4/4 435/4/4
f 484/4/4 485/4/4 437/4/4 436/4/4
f 485/4/4 486/4/4 438/4/4 437/4/4
f 486/4/4 487/4/4 439/4/4 438/4/4
f 487/11/4 488/11/4 440/11/4 439/11/4
f 488/5/4 489/5/4 441/5/4 440/5/4
f 441/5/6 489/5/6 480/5/6 432/5/6
f 442/4/3 490/4/3 491/4/3 443/4/3
f 491/4/5 492/4/5 444/4/5 443/4/5
f 445/4/3 493/4/3 490/4/3 442/4/3
f 446/4/3 494/4/3 493/4/3 445/4/3
f 447/4/3 495/4/3 494/4/3 446/4/3
f 448/4/3 496/4/3 495/4/3 447/4/3
f 449/4/3 497/4/3 496/4/3 448/4/3
f 450/4/3 498/4/3 497/4/3 449/4/3
f 451/5/3 499/5/3 498/5/3 450/5/3
f 452/5/6 500/5/6 499/5/6 451/5/6
f 492/4/5 501/4/5 453/4/5 444/4/5
f 454/5/6 502/5/6 500/5/6 452/5/6
f 501/4/5 503/4/5 455/4/5 453/4/5
f 456/5/6 504/5/6 502/5/6 454/5/6
f 503/4/5 505/4/5 457/4/5 455/4/5
f 458/5/6 506/5/6 504/5/6 456/5/6
f 505/4/5 507/4/5 459/4/5 457/4/5
f 460/5/6 508/5/6 506/5/6 458/5/6
f 507/4/5 509/4/5 461/4/5 459/4/5
f 462/5/6 510/5/6 508/5/6 460/5/6
f 509/4/5 511/4/5 463/4/5 461/4/5
f 464/11/6 512/11/6 510/11/6 462/11/6
f 511/4/5 513/4/5 465/4/5 463/4/5
f 466/5/6 514/5/6 512/5/6 464/5/6
f 513/4/5 515/4/5 467/4/5 465/4/5
f 468/5/6 516/5/6 514/5/6 466/5/6
f 515/4/5 517/4/5 469/4/5 467/4/5
f 470/5/6 518/5/6 516/5/6 468/5/6
f 517/4/5 519/4/5 471/4/5 469/4/5
f 472/5/6 520/5/6 518/5/6 470/5/6
f 519/4/5 521/4/5 473/4/5 471/4/5
f 474/5/6 522/5/6 520/5/6 472/5/6
f 521/4/5 523/4/5 475/4/5 473/4/5
f 476/5/6 524/5/6 522/5/6 474/5/6
f 523/4/5 525/4/5 477/4/5 475/4/5
f 478/5/6 526/5/6 524/5/6 476/5/6
f 525/4/5 527/4/5 479/4/5 477/4/5
f 480/5/6 528/5/6 526/5/6 478/5/6
f 529/4/4 530/4/4 482/4/4 481/4/4
f 527/4/5 529/4/5 481/4/5 479/4/5
f 530/4/4 531/4/4 483/4/4 482/4/4
f 531/4/4 532/4/4 484/4/4 483/4/4
f 532/4/4 533/4/4 485/4/4 484/4/4
f 533/4/4 534/4/4 486/4/4 485/4/4
f 534/4/4 535/4/4 487/4/4 486/4/4
f 535/4/4 536/4/4 488/4/4 487/4/4
f 536/5/4 537/5/4 489/5/4 488/5/4
f 489/5/6 537/5/6 528/5/6 480/5/6
f 490/4/3 538/4/3 539/4/3 491/4/3
f 539/4/5 540/4/5 492/4/5 491/4/5
f 493/4/3 541/4/3 538/4/3 490/4/3
f 494/4/3 542/4/3 541/4/3 493/4/3
f 495/4/3 543/4/3 542/4/3 494/4/3
f 496/4/3 544/4/3 543/4/3 495/4/3
f 497/4/3 545/4/3 544/4/3 496/4/3
f 498/4/3 546/4/3 545/4/3 497/4/3
f 499/5/3 547/5/3 546/5/3 498/5/3
f 500/5/6 548/5/6 547/5/6 499/5/6
f 540/4/5 549/4/5 501/4/5 492/4/5
f 502/5/6 550/5/6 548/5/6 500/5/6
f 549/4/5 551/4/5 503/4/5 501/4/5
f 504/5/6 552/5/6 550/5/6 502/5/6
f 551/4/5 553/4/5 505/4/5 503/4/5
f 506/5/6 554/5/6 552/5/6 504/5/6
f 553/4/5 555/4/5 507/4/5 505/4/5
f 508/5/6 556/5/6 554/5/6 506/5/6
f 555/4/5 557/4/5 509/4/5 507/4/5
f 510/5/6 558/5/6 556/5/6 508/5/6
f 557/4/5 559/4/5 511/4/5 509/4/5
f 512/5/6 560/5/6 558/5/6 510/5/6
f 559/4/5 561/4/5 513/4/5 511/4/5
f 514/5/6 562/5/6 560/5/6 512/5/6
f 561/4/5 563/4/5 515/4/5 513/4/5
f 516/5/6 564/5/6 562/5/6 514/5/6
f 563/4/5 565/4/5 517/4/5 515/4/5
f 518/5/6 566/5/6 564/5/6 516/5/6
f 565/4/5 567/4/5 519/4/5 517/4/5
f 520/5/6 568/5/6 566/5/6 518/5/6
f 567/4/5 569/4/5 521/4/5 519/4/5
f 522/5/6 570/5/6 568/5/6 520/5/6
f 569/4/5 571/4/5 523/4/5 521/4/5
f 524/5/6 572/5/6 570/5/6 522/5/6
f 571/4/5 573/4/5 525/4/5 523/4/5
f 526/5/6 574/5/6 572/5/6 524/5/6
f 573/4/5 575/4/5 527/4/5 525/4/5
f 528/5/6 576/5/6 574/5/6 526/5/6
f 577/4/4 578/4/4 530/4/4 529/4/4
f 575/4/5 577/4/5 529/4/5 527/4/5
f 578/4/4 579/4/4 531/4/4 530/4/4
f 579/4/4 580/4/4 532/4/4 531/4/4
f 580/4/4 581/4/4 533/4/4 532/4/4
f 581/4/4 582/4/4 534/4/4 533/4/4
f 582/4/4 583/4/4 535/4/4 534/4/4
f 583/4/4 584/4/4 536/4/4 535/4/4
f 584/5/4 585/5/4 537/5/4 536/5/4
f 537/5/6 585/5/6 576/5/6 528/5/6
f 538/4/3 586/4/3 587/4/3 539/4/3
f 587/4/5 588/4/5 540/4/5 539/4/5
f 541/4/3 589/4/3 586/4/3 538/4/3
f 542/4/3 590/4/3 589/4/3 541/4/3
f 543/4/3 591/4/3 590/4/3 542/4/3
f 544/4/3 592/4/3 591/4/3 543/4/3
f 545/4/3 593/4/3 592/4/3 544/4/3
f 546/4/3 594/4/3 593/4/3 545/4/3
f 547/5/3 595/5/3 594/5/3 546/5/3
f 548/5/6 596/5/6 595/5/6 547/5/6
f 588/4/5 597/4/5 549/4/5 540/4/5
f 550/5/6 598/5/6 596/5/6 548/5/6
f 597/4/5 599/4/5 551/4/5 549/4/5
f 552/5/6 600/5/6 598/5/6 550/5/6
f 599/4/5 601/4/5 553/4/5 551/4/5
f 554/5/6 602/5/6 600/5/6 552/5/6
f 601/4/5 603/4/5 555/4/5 553/4/5
f 556/5/6 604/5/6 602/5/6 554/5/6
f 603/4/5 605/4/5 557/4/5 555/4/5
f 558/5/6 606/5/6 604/5/6 556/5/6
f 605/11/5 607/11/5 559/11/5 557/11/5
f 560/5/6 608/5/6 606/5/6 558/5/6
f 607/4/5 609/4/5 561/4/5 559/4/5
f 562/5/6 610/5/6 608/5/6 560/5/6
f 609/4/5 611/4/5 563/4/5 561/4/5
f 564/5/6 612/5/6 610/5/6 562/5/6
f 611/4/5 613/4/5 565/4/5 563/4/5
f 566/5/6 614/5/6 612/5/6 564/5/6
f 613/4/5 615/4/5 567/4/5 565/4/5
f 568/5/6 616/5/6 614/5/6 566/5/6
f 615/4/5 617/4/5 569/4/5 567/4/5
f 570/5/6 618/5/6 616/5/6 568/5/6
f 617/4/5 619/4/5 571/4/5 569/4/5
f 572/5/6 620/5/6 618/5/6 570/5/6
f 619/11/5 621/11/5 573/11/5 571/11/5
f 574/5/6 622/5/6 620/5/6 572/5/6
f 621/4/5 623/4/5 575/4/5 573/4/5
f 576/5/6 624/5/6 622/5/6 574/5/6
f 625/4/4 626/4/4 578/4/4 577/4/4
f 623/4/5 625/4/5 577/4/5 575/4/5
f 626/4/4 627/4/4 579/4/4 578/4/4
f 627/4/4 628/4/4 580/4/4 579/4/4
f 628/4/4 629/4/4 581/4/4 580/4/4
f 629/11/4 630/11/4 582/11/4 581/11/4
f 630/4/4 631/4/4 583/4/4 582/4/4
f 631/4/4 632/4/4 584/4/4 583/4/4
f 632/5/4 633/5/4 585/5/4 584/5/4
f 585/5/6 633/5/6 624/5/6 576/5/6
f 586/4/3 634/4/3 635/4/3 587/4/3
f 635/4/5 636/4/5 588/4/5 587/4/5
f 589/4/3 637/4/3 634/4/3 586/4/3
f 590/4/3 638/4/3 637/4/3 589/4/3
f 591/4/3 639/4/3 638/4/3 590/4/3
f 592/4/3 640/4/3 639/4/3 591/4/3
f 593/4/3 641/4/3 640/4/3 592/4/3
f 594/4/3 642/4/3 641/4/3 593/4/3
f 595/5/3 643/5/3 642/5/3 594/5/3
f 596/5/6 644/5/6 643/5/6 595/5/6
f 636/4/5 645/4/5 597/4/5 588/4/5
f 598/5/6 646/5/6 644/5/6 596/5/6
f 645/4/5 647/4/5 599/4/5 597/4/5
f 600/5/6 648/5/6 646/5/6 598/5/6
f 647/4/5 649/4/5 601/4/5 599/4/5
f 602/5/6 650/5/6 648/5/6 600/5/6
f 649/4/5 651/4/5 603/4/5 601/4/5
f 604/5/6 652/5/6 650/5/6 602/5/6
f 651/4/5 653/4/5 605/4/5 603/4/5
f 606/5/6 654/5/6 652/5/6 604/5/6
f 653/4/5 655/4/5 607/4/5 605/4/5
f 608/5/6 656/5/6 654/5/6 606/5/6
f 655/4/5 657/4/5 609/4/5 607/4/5
f 610/5/6 658/5/6 656/5/6 608/5/6
f 657/4/5 659/4/5 611/4/5 609/4/5
f 612/5/6 660/5/6 658/5/6 610/5/6
f 659/4/5 661/4/5 613/4/5 611/4/5
f 614/5/6 662/5/6 660/5/6 612/5/6
f 661/4/5 663/4/5 615/4/5 613/4/5
f 616/5/6 664/5/6 662/5/6 614/5/6
f 663/4/5 665/4/5 617/4/5 615/4/5
f 618/5/6 666/5/6 664/5/6 616/5/6
f 665/4/5 667/4/5 619/4/5 617/4/5
f 620/5/6 668/5/6 666/5/6 618/5/6
f 667/4/5 669/4/5 621/4/5 619/4/5
f 622/5/6 670/5/6 668/5/6 620/5/6
f 669/4/5 671/4/5 623/4/5 621/4/5
f 624/5/6 672/5/6 670/5/6 622/5/6
f 673/4/4 674/4/4 626/4/4 625/4/4
f 671/4/5 673/4/5 625/4/5 623/4/5
f 674/4/4 675/4/4 627/4/4 626/4/4
f 675/4/4 676/4/4 628/4/4 627/4/4
f 676/11/4 677/11/4 629/11/4 628/11/4
f 677/4/4 678/4/4 630/4/4 629/4/4
f 678/4/4 679/4/4 631/4/4 630/4/4
f 679/4/4 680/4/4 632/4/4 631/4/4
f 680/5/4 681/5/4 633/5/4 632/5/4
f 633/5/6 681/5/6 672/5/6 624/5/6
f 634/4/3 682/4/3 683/4/3 635/4/3
f 683/4/5 684/4/5 636/4/5 635/4/5
f 637/4/3 685/4/3 682/4/3 634/4/3
f 638/4/3 686/4/3 685/4/3 637/4/3
f 639/4/3 687/4/3 686/4/3 638/4/3
f 640/4/3 688/4/3 687/4/3 639/4/3
f 641/4/3 689/4/3 688/4/3 640/4/3
f 642/4/3 690/4/3 689/4/3 641/4/3
f 643/5/3 691/5/3 690/5/3 642/5/3
f 644/5/6 692/5/6 691/5/6 643/5/6
f 684/4/5 693/4/5 645/4/5 636/4/5
f 646/5/6 694/5/6 692/5/6 644/5/6
f 693/4/5 695/4/5 647/4/5 645/4/5
f 648/5/6 696/5/6 694/5/6 646/5/6
f 695/4/5 697/4/5 649/4/5 647/4/5
f 650/5/6 698/5/6 696/5/6 648/5/6
f 697/4/5 699/4/5 651/4/5 649/4/5
f 652/5/6 700/5/6 698/5/6 650/5/6
f 699/4/5 701/4/5 653/4/5 651/4/5
f 654/5/6 702/5/6 700/5/6 652/5/6
f 701/5/5 703/5/5 655/5/5 653/5/5
f 656/5/6 704/5/6 702/5/6 654/5/6
f 703/4/5 705/4/5 657/4/5 655/4/5
f 658/5/6 706/5/6 704/5/6 656/5/6
f 705/4/5 707/4/5 659/4/5 657/4/5
f 660/5/6 708/5/6 706/5/6 658/5/6
f 707/4/5 709/4/5 661/4/5 659/4/5
f 662/5/6 710/5/6 708/5/6 660/5/6
f 709/4/5 711/4/5 663/4/5 661/4/5
f 664/5/6 712/5/6 710/5/6 662/5/6
f 711/4/5 713/4/5 665/4/5 663/4/5
f 666/5/6 714/5/6 712/5/6 664/5/6
f 713/4/5 715/4/5 667/4/5 665/4/5
f 668/5/6 716/5/6 714/5/6 666/5/6
f 715/4/5 717/4/5 669/4/5 667/4/5
f 670/5/6 718/5/6 716/5/6 668/5/6
f 717/4/5 719/4/5 671/4/5 669/4/5
f 672/5/6 720/5/6 718/5/6 670/5/6
f 721/4/4 722/4/4 674/4/4 673/4/4
f 719/4/5 721/4/5 673/4/5 671/4/5
f 722/4/4 723/4/4 675/4/4 674/4/4
f 723/4/4 724/4/4 676/4/4 675/4/4
f 724/4/4 725/4/4 677/4/4 676/4/4
f 725/4/4 726/4/4 678/4/4 677/4/4
f 726/4/4 727/4/4 679/4/4 678/4/4
f 727/11/4 728/11/4 680/11/4 679/11/4
f 728/5/4 729/5/4 681/5/4 680/5/4
f 681/5/6 729/5/6 720/5/6 672/5/6
f 682/4/3 730/4/3 731/4/3 683/4/3
f 731/4/5 732/4/5 684/4/5 683/4/5
f 685/4/3 733/4/3 730/4/3 682/4/3
f 686/4/3 734/4/3 733/4/3 685/4/3
f 687/4/3 735/4/3 734/4/3 686/4/3
f 688/4/3 736/4/3 735/4/3 687/4/3
f 689/4/3 737/4/3 736/4/3 688/4/3
f 690/4/3 738/4/3 737/4/3 689/4/3
f 691/5/3 739/5/3 738/5/3 690/5/3
f 692/5/6 740/5/6 739/5/6 691/5/6
f 732/4/5 741/4/5 693/4/5 684/4/5
f 694/5/6 742/5/6 740/5/6 692/5/6
f 741/11/5 743/11/5 695/11/5 693/11/5
f 696/5/6 744/5/6 742/5/6 694/5/6
f 743/4/5 745/4/5 697/4/5 695/4/5
f 698/5/6 746/5/6 744/5/6 696/5/6
f 745/4/5 747/4/5 699/4/5 697/4/5
f 700/5/6 748/5/6 746/5/6 698/5/6
f 747/4/5 749/4/5 701/4/5 699/4/5
f 702/5/6 750/5/6 748/5/6 700/5/6
f 749/4/5 751/4/5 703/4/5 701/4/5
f 704/5/6 752/5/6 750/5/6 702/5/6
f 751/4/5 753/4/5 705/4/5 703/4/5
f 706/5/6 754/5/6 752/5/6 704/5/6
f 753/4/5 755/4/5 707/4/5 705/4/5
f 708/5/6 756/5/6 754/5/6 706/5/6
f 755/4/5 757/4/5 709/4/5 707/4/5
f 710/5/6 758/5/6 756/5/6 708/5/6
f 757/4/5 759/4/5 711/4/5 709/4/5
f 712/5/6 760/5/6 758/5/6 710/5/6
f 759/4/5 761/4/5 713/4/5 711/4/5
f 714/5/6 762/5/6 760/5/6 712/5/6
f 761/4/5 763/4/5 715/4/5 713/4/5
f 716/5/6 764/5/6 762/5/6 714/5/6
f 763/4/5 765/4/5 717/4/5 715/4/5
f 718/5/6 766/5/6 764/5/6 716/5/6
f 765/4/5 767/4/5 719/4/5 717/4/5
f 720/5/6 768/5/6 766/5/6 718/5/6
f 769/4/4 770/4/4 722/4/4 721/4/4
f 767/4/5 769/4/5 721/4/5 719/4/5
f 770/4/4 771/4/4 723/4/4 722/4/4
f 771/4/4 772/4/4 724/4/4 723/4/4
f 772/4/4 773/4/4 725/4/4 724/4/4
f 773/4/4 774/4/4 726/4/4 725/4/4
f 774/4/4 775/4/4 727/4/4 726/4/4
f 775/4/4 776/4/4 728/4/4 727/4/4
f 776/5/4 777/5/4 729/5/4 728/5/4
f 729/5/6 777/5/6 768/5/6 720/5/6
f 730/4/3 778/4/3 779/4/3 731/4/3
f 779/4/5 780/4/5 732/4/5 731/4/5
f 733/4/3 781/4/3 778/4/3 730/4/3
f 734/4/3 782/4/3 781/4/3 733/4/3
f 735/4/3 783/4/3 782/4/3 734/4/3
f 736/4/3 784/4/3 783/4/3 735/4/3
f 737/4/3 785/4/3 784/4/3 736/4/3
f 738/5/3 786/5/3 785/5/3 737/5/3
f 739/5/3 787/5/3 786/5/3 738/5/3
f 740/5/6 788/5/6 787/5/6 739/5/6
f 780/4/5 789/4/5 741/4/5 732/4/5
f 742/5/6 790/5/6 788/5/6 740/5/6
f 789/4/5 791/4/5 743/4/5 741/4/5
f 744/5/6 792/5/6 790/5/6 742/5/6
f 791/4/5 793/4/5 745/4/5 743/4/5
f 746/5/6 794/5/6 792/5/6 744/5/6
f 793/4/5 795/4/5 747/4/5 745/4/5
f 748/5/6 796/5/6 794/5/6 746/5/6
f 795/4/5 797/4/5 749/4/5 747/4/5
f 750/5/6 798/5/6 796/5/6 748/5/6
f 797/4/5 799/4/5 751/4/5 749/4/5
f 752/5/6 800/5/6 798/5/6 750/5/6
f 799/4/5 801/4/5 753/4/5 751/4/5
f 754/5/6 802/5/6 800/5/6 752/5/6
f 801/4/5 803/4/5 755/4/5 753/4/5
f 756/5/6 804/5/6 802/5/6 754/5/6
f 803/4/5 805/4/5 757/4/5 755/4/5
f 758/5/6 806/5/6 804/5/6 756/5/6
f 805/4/5 807/4/5 759/4/5 757/4/5
f 760/5/6 808/5/6 806/5/6 758/5/6
f 807/4/5 809/4/5 761/4/5 759/4/5
f 762/5/6 810/5/6 808/5/6 760/5/6
f 809/4/5 811/4/5 763/4/5 761/4/5
f 764/5/6 812/5/6 810/5/6 762/5/6
f 811/4/5 813/4/5 765/4/5 763/4/5
f 766/5/6 814/5/6 812/5/6 764/5/6
f 813/4/5 815/4/5 767/4/5 765/4/5
f 768/5/6 816/5/6 814/5/6 766/5/6
f 817/4/4 818/4/4 770/4/4 769/4/4
f 815/4/5 817/4/5 769/4/5 767/4/5
f 818/4/4 819/4/4 771/4/4 770/4/4
f 819/4/4 820/4/4 772/4/4 771/4/4
f 820/4/4 821/4/4 773/4/4 772/4/4
f 821/4/4 822/4/4 774/4/4 773/4/4
f 822/4/4 823/4/4 775/4/4 774/4/4
f 823/4/4 824/4/4 776/4/4 775/4/4
f 824/5/4 825/5/4 777/5/4 776/5/4
f 777/5/6 825/5/6 816/5/6 768/5/6
f 778/4/3 826/4/3 827/4/3 779/4/3
f 827/4/5 828/4/5 780/4/5 779/4/5
f 781/11/3 829/11/3 826/11/3 778/11/3
f 782/4/3 830/4/3 829/4/3 781/4/3
f 783/4/3 831/4/3 830/4/3 782/4/3
f 784/4/3 832/4/3 831/4/3 783/4/3
f 785/4/3 833/4/3 832/4/3 784/4/3
f 786/4/3 834/4/3 833/4/3 785/4/3
f 787/5/3 835/5/3 834/5/3 786/5/3
f 788/5/6 836/5/6 835/5/6 787/5/6
f 828/4/5 837/4/5 789/4/5 780/4/5
f 790/5/6 838/5/6 836/5/6 788/5/6
f 837/11/5 839/11/5 791/11/5 789/11/5
f 792/5/6 840/5/6 838/5/6 790/5/6
f 839/4/5 841/4/5 793/4/5 791/4/5
f 794/5/6 842/5/6 840/5/6 792/5/6
f 841/4/5 843/4/5 795/4/5 793/4/5
f 796/5/6 844/5/6 842/5/6 794/5/6
f 843/4/5 845/4/5 797/4/5 795/4/5
f 798/5/6 846/5/6 844/5/6 796/5/6
f 845/4/5 847/4/5 799/4/5 797/4/5
f 800/5/6 848/5/6 846/5/6 798/5/6
f 847/4/5 849/4/5 801/4/5 799/4/5
f 802/5/6 850/5/6 848/5/6 800/5/6
f 849/4/5 851/4/5 803/4/5 801/4/5
f 804/5/6 852/5/6 850/5/6 802/5/6
f 851/4/5 853/4/5 805/4/5 803/4/5
f 806/5/6 854/5/6 852/5/6 804/5/6
f 853/4/5 855/4/5 807/4/5 805/4/5
f 808/5/6 856/5/6 854/5/6 806/5/6
f 855/4/5 857/4/5 809/4/5 807/4/5
f 810/5/6 858/5/6 856/5/6 808/5/6
f 857/4/5 859/4/5 811/4/5 809/4/5
f 812/5/6 860/5/6 858/5/6 810/5/6
f 859/4/5 861/4/5 813/4/5 811/4/5
f 814/5/6 862/5/6 860/5/6 812/5/6
f 861/4/5 863/4/5 815/4/5 813/4/5
f 816/5/6 864/5/6 862/5/6 814/5/6
f 865/4/4 866/4/4 818/4/4 817/4/4
f 863/4/5 865/4/5 817/4/5 815/4/5
f 866/4/4 867/4/4 819/4/4 818/4/4
f 867/4/4 868/4/4 820/4/4 819/4/4
f 868/4/4 869/4/4 821/4/4 820/4/4
f 869/4/4 870/4/4 822/4/4 821/4/4
f 870/4/4 871/4/4 823/4/4 822/4/4
f 871/4/4 872/4/4 824/4/4 823/4/4
f 872/5/4 873/5/4 825/5/4 824/5/4
f 825/5/6 873/5/6 864/5/6 816/5/6
f 874/4/2 875/4/2 876/4/2 877/4/2
f 826/4/3 874/4/3 877/4/3 827/4/3
f 877/4/5 876/4/5 828/4/5 827/4/5
f 878/4/2 879/4/2 875/4/2 874/4/2
f 829/4/3 878/4/3 874/4/3 826/4/3
f 880/4/2 881/4/2 879/4/2 878/4/2
f 830/4/3 880/4/3 878/4/3 829/4/3
f 882/4/2 883/4/2 881/4/2 880/4/2
f 831/4/3 882/4/3 880/4/3 830/4/3
f 884/4/2 885/4/2 883/4/2 882/4/2
f 832/4/3 884/4/3 882/4/3 831/4/3
f 886/4/2 887/4/2 885/4/2 884/4/2
f 833/4/3 886/4/3 884/4/3 832/4/3
f 888/4/2 889/4/2 887/4/2 886/4/2
f 834/4/3 888/4/3 886/4/3 833/4/3
f 890/5/2 891/5/2 889/5/2 888/5/2
f 835/5/3 890/5/3 888/5/3 834/5/3
f 836/5/6 891/5/6 890/5/6 835/5/6
f 875/4/2 892/4/2 893/4/2 876/4/2
f 876/4/5 893/4/5 837/4/5 828/4/5
f 879/4/2 894/4/2 892/4/2 875/4/2
f 881/4/2 895/4/2 894/4/2 879/4/2
f 883/4/2 896/4/2 895/4/2 881/4/2
f 885/4/2 897/4/2 896/4/2 883/4/2
f 887/4/2 898/4/2 897/4/2 885/4/2
f 889/4/2 899/4/2 898/4/2 887/4/2
f 891/5/2 900/5/2 899/5/2 889/5/2
f 838/5/6 900/5/6 891/5/6 836/5/6
f 892/4/2 901/4/2 902/4/2 893/4/2
f 893/4/5 902/4/5 839/4/5 837/4/5
f 894/4/2 903/4/2 901/4/2 892/4/2
f 895/4/2 904/4/2 903/4/2 894/4/2
f 896/4/2 905/4/2 904/4/2 895/4/2
f 897/4/2 906/4/2 905/4/2 896/4/2
f 898/4/2 907/4/2 906/4/2 897/4/2
f 899/4/2 908/4/2 907/4/2 898/4/2
f 900/5/2 909/5/2 908/5/2 899/5/2
f 840/5/6 909/5/6 900/5/6 838/5/6
f 901/4/2 910/4/2 911/4/2 902/4/2
f 902/4/5 911/4/5 841/4/5 839/4/5
f 903/4/2 912/4/2 910/4/2 901/4/2
f 904/4/2 913/4/2 912/4/2 903/4/2
f 905/4/2 914/4/2 913/4/2 904/4/2
f 906/4/2 915/4/2 914/4/2 905/4/2
f 907/4/2 916/4/2 915/4/2 906/4/2
f 908/4/2 917/4/2 916/4/2 907/4/2
f 909/5/2 918/5/2 917/5/2 908/5/2
f 842/5/6 918/5/6 909/5/6 840/5/6
f 910/4/2 919/4/2 920/4/2 911/4/2
f 911/4/5 920/4/5 843/4/5 841/4/5
f 912/4/2 921/4/2 919/4/2 910/4/2
f 913/4/2 922/4/2 921/4/2 912/4/2
f 914/4/2 923/4/2 922/4/2 913/4/2
f 915/4/2 924/4/2 923/4/2 914/4/2
f 916/4/2 925/4/2 924/4/2 915/4/2
f 917/4/2 926/4/2 925/4/2 916/4/2
f 918/5/2 927/5/2 926/5/2 917/5/2
f 844/5/6 927/5/6 918/5/6 842/5/6
f 919/4/2 928/4/2 929/4/2 920/4/2
f 920/4/5 929/4/5 845/4/5 843/4/5
f 921/4/2 930/4/2 928/4/2 919/4/2
f 922/4/2 931/4/2 930/4/2 921/4/2
f 923/4/2 932/4/2 931/4/2 922/4/2
f 924/4/2 933/4/2 932/4/2 923/4/2
f 925/4/2 934/4/2 933/4/2 924/4/2
f 926/4/2 935/4/2 934/4/2 925/4/2
f 927/5/2 936/5/2 935/5/2 926/5/2
f 846/5/6 936/5/6 927/5/6 844/5/6
f 928/4/2 937/4/2 938/4/2 929/4/2
f 929/4/5 938/4/5 847/4/5 845/4/5
f 930/4/2 939/4/2 937/4/2 928/4/2
f 931/4/2 940/4/2 939/4/2 930/4/2
f 932/4/2 941/4/2 940/4/2 931/4/2
f 933/4/2 942/4/2 941/4/2 932/4/2
f 934/4/2 943/4/2 942/4/2 933/4/2
f 935/4/2 944/4/2 943/4/2 934/4/2
f 936/5/2 945/5/2 944/5/2 935/5/2
f 848/5/6 945/5/6 936/5/6 846/5/6
f 937/4/2 946/4/2 947/4/2 938/4/2
f 938/4/5 947/4/5 849/4/5 847/4/5
f 939/4/2 948/4/2 946/4/2 937/4/2
f 940/4/2 949/4/2 948/4/2 939/4/2
f 941/4/2 950/4/2 949/4/2 940/4/2
f 942/4/2 951/4/2 950/4/2 941/4/2
f 943/4/2 952/4/2 951/4/2 942/4/2
f 944/4/2 953/4/2 952/4/2 943/4/2
f 945/5/2 954/5/2 953/5/2 944/5/2
f 850/5/6 954/5/6 945/5/6 848/5/6
f 946/4/2 955/4/2 956/4/2 947/4/2
f 947/4/5 956/4/5 851/4/5 849/4/5
f 948/4/2 957/4/2 955/4/2 946/4/2
f 949/4/2 958/4/2 957/4/2 948/4/2
f 950/4/2 959/4/2 958/4/2 949/4/2
f 951/4/2 960/4/2 959/4/2 950/4/2
f 952/4/2 961/4/2 960/4/2 951/4/2
f 953/4/2 962/4/2 961/4/2 952/4/2
f 954/5/2 963/5/2 962/5/2 953/5/2
f 852/5/6 963/5/6 954/5/6 850/5/6
f 955/4/2 964/4/2 965/4/2 956/4/2
f 956/4/5 965/4/5 853/4/5 851/4/5
f 957/4/2 966/4/2 964/4/2 955/4/2
f 958/4/2 967/4/2 966/4/2 957/4/2
f 959/4/2 968/4/2 967/4/2 958/4/2
f 960/4/2 969/4/2 968/4/2 959/4/2
f 961/4/2 970/4/2 969/4/2 960/4/2
f 962/4/2 971/4/2 970/4/2 961/4/2
f 963/5/2 972/5/2 971/5/2 962/5/2
f 854/5/6 972/5/6 963/5/6 852/5/6
f 964/4/2 973/4/2 974/4/2 965/4/2
f 965/4/5 974/4/5 855/4/5 853/4/5
f 966/4/2 975/4/2 973/4/2 964/4/2
f 967/4/2 976/4/2 975/4/2 966/4/2
f 968/4/2 977/4/2 976/4/2 967/4/2
f 969/5/2 978/5/2 977/5/2 968/5/2
f 970/4/2 979/4/2 978/4/2 969/4/2
f 971/4/2 980/4/2 979/4/2 970/4/2
f 972/5/2 981/5/2 980/5/2 971/5/2
f 856/5/6 981/5/6 972/5/6 854/5/6
f 973/4/2 982/4/2 983/4/2 974/4/2
f 974/4/5 983/4/5 857/4/5 855/4/5
f 975/4/2 984/4/2 982/4/2 973/4/2
f 976/4/2 985/4/2 984/4/2 975/4/2
f 977/4/2 986/4/2 985/4/2 976/4/2
f 978/4/2 987/4/2 986/4/2 977/4/2
f 979/4/2 988/4/2 987/4/2 978/4/2
f 980/4/2 989/4/2 988/4/2 979/4/2
f 981/5/2 990/5/2 989/5/2 980/5/2
f 858/5/6 990/5/6 981/5/6 856/5/6
f 982/4/2 991/4/2 992/4/2 983/4/2
f 983/4/5 992/4/5 859/4/5 857/4/5
f 984/4/2 993/4/2 991/4/2 982/4/2
f 985/4/2 994/4/2 993/4/2 984/4/2
f 986/4/2 995/4/2 994/4/2 985/4/2
f 987/4/2 996/4/2 995/4/2 986/4/2
f 988/4/2 997/4/2 996/4/2 987/4/2
f 989/4/2 998/4/2 997/4/2 988/4/2
f 990/5/2 999/5/2 998/5/2 989/5/2
f 860/5/6 999/5/6 990/5/6 858/5/6
f 991/4/2 1000/4/2 1001/4/2 992/4/2
f 992/4/5 1001/4/5 861/4/5 859/4/5
f 993/4/2 1002/4/2 1000/4/2 991/4/2
f 994/4/2 1003/4/2 1002/4/2 993/4/2
f 995/4/2 1004/4/2 1003/4/2 994/4/2
f 996/4/2 1005/4/2 1004/4/2 995/4/2
f 997/4/2 1006/4/2 1005/4/2 996/4/2
f 998/4/2 1007/4/2 1006/4/2 997/4/2
f 999/5/2 1008/5/2 1007/5/2 998/5/2
f 862/5/6 1008/5/6 999/5/6 860/5/6
f 1000/4/2 1009/4/2 1010/4/2 1001/4/2
f 1001/4/5 1010/4/5 863/4/5 861/4/5
f 1002/4/2 1011/4/2 1009/4/2 1000/4/2
f 1003/4/2 1012/4/2 1011/4/2 1002/4/2
f 1004/4/2 1013/4/2 1012/4/2 1003/4/2
f 1005/4/2 1014/4/2 1013/4/2 1004/4/2
f 1006/4/2 1015/4/2 1014/4/2 1005/4/2
f 1007/4/2 1016/4/2 1015/4/2 1006/4/2
f 1008/5/2 1017/5/2 1016/5/2 1007/5/2
f 864/5/6 1017/5/6 1008/5/6 862/5/6
f 1009/4/2 1018/4/2 1019/4/2 1010/4/2
f 1019/4/4 1018/4/4 866/4/4 865/4/4
f 1010/4/5 1019/4/5 865/4/5 863/4/5
f 1011/4/2 1020/4/2 1018/4/2 1009/4/2
f 1018/4/4 1020/4/4 867/4/4 866/4/4
f 1012/4/2 1021/4/2 1020/4/2 1011/4/2
f 1020/4/4 1021/4/4 868/4/4 867/4/4
f 1013/4/2 1022/4/2 1021/4/2 1012/4/2
f 1021/4/4 1022/4/4 869/4/4 868/4/4
f 1014/4/2 1023/4/2 1022/4/2 1013/4/2
f 1022/4/4 1023/4/4 870/4/4 869/4/4
f 1015/4/2 1024/4/2 1023/4/2 1014/4/2
f 1023/4/4 1024/4/4 871/4/4 870/4/4
f 1016/4/2 1025/4/2 1024/4/2 1015/4/2
f 1024/4/4 1025/4/4 872/4/4 871/4/4
f 1017/5/2 1026/5/2 1025/5/2 1016/5/2
f 1025/5/4 1026/5/4 873/5/4 872/5/4
f 873/5/6 1026/5/6 1017/5/6 864/5/6
