# Dungine rubble_cave; 1 voxel = 1/16 unit; Y-up floor-center origin
mtllib rubble_cave.mtl
o rubble_cave
s off
v -0.437500 0.000000 -0.187500
v -0.437500 0.062500 -0.187500
v -0.437500 0.062500 -0.250000
v -0.437500 0.000000 -0.250000
v -0.375000 0.062500 -0.250000
v -0.375000 0.000000 -0.250000
v -0.375000 0.000000 -0.187500
v -0.375000 0.062500 -0.187500
v -0.375000 0.000000 -0.312500
v -0.375000 0.062500 -0.312500
v -0.375000 0.062500 -0.375000
v -0.375000 0.000000 -0.375000
v -0.312500 0.062500 -0.375000
v -0.312500 0.000000 -0.375000
v -0.312500 0.000000 -0.312500
v -0.375000 0.125000 -0.312500
v -0.375000 0.125000 -0.375000
v -0.312500 0.125000 -0.375000
v -0.312500 0.125000 -0.312500
v -0.312500 0.000000 -0.250000
v -0.375000 0.125000 -0.250000
v -0.375000 0.187500 -0.250000
v -0.375000 0.187500 -0.312500
v -0.312500 0.187500 -0.312500
v -0.312500 0.187500 -0.250000
v -0.312500 0.000000 -0.187500
v -0.375000 0.125000 -0.187500
v -0.375000 0.187500 -0.187500
v -0.375000 0.250000 -0.187500
v -0.375000 0.250000 -0.250000
v -0.312500 0.250000 -0.250000
v -0.312500 0.187500 -0.187500
v -0.312500 0.250000 -0.187500
v -0.375000 0.000000 -0.125000
v -0.375000 0.062500 -0.125000
v -0.312500 0.000000 -0.125000
v -0.375000 0.125000 -0.125000
v -0.375000 0.187500 -0.125000
v -0.312500 0.125000 -0.125000
v -0.312500 0.187500 -0.125000
v -0.375000 0.000000 -0.062500
v -0.375000 0.062500 -0.062500
v -0.312500 0.000000 -0.062500
v -0.312500 0.062500 -0.062500
v -0.375000 0.125000 -0.062500
v -0.312500 0.125000 -0.062500
v -0.375000 0.000000 0.250000
v -0.375000 0.062500 0.250000
v -0.375000 0.062500 0.187500
v -0.375000 0.000000 0.187500
v -0.312500 0.062500 0.187500
v -0.312500 0.000000 0.187500
v -0.312500 0.000000 0.250000
v -0.312500 0.062500 0.250000
v -0.250000 0.062500 -0.375000
v -0.250000 0.000000 -0.375000
v -0.250000 0.000000 -0.312500
v -0.250000 0.125000 -0.375000
v -0.312500 0.187500 -0.375000
v -0.250000 0.187500 -0.375000
v -0.250000 0.187500 -0.312500
v -0.250000 0.000000 -0.250000
v -0.312500 0.250000 -0.312500
v -0.250000 0.250000 -0.312500
v -0.250000 0.250000 -0.250000
v -0.250000 0.000000 -0.187500
v -0.250000 0.250000 -0.187500
v -0.250000 0.000000 -0.125000
v -0.312500 0.250000 -0.125000
v -0.250000 0.187500 -0.125000
v -0.250000 0.250000 -0.125000
v -0.250000 0.000000 -0.062500
v -0.250000 0.062500 -0.062500
v -0.250000 0.125000 -0.062500
v -0.312500 0.187500 -0.062500
v -0.250000 0.187500 -0.062500
v -0.312500 0.000000 0.125000
v -0.312500 0.062500 0.125000
v -0.312500 0.062500 0.062500
v -0.312500 0.000000 0.062500
v -0.250000 0.062500 0.062500
v -0.250000 0.000000 0.062500
v -0.250000 0.000000 0.125000
v -0.250000 0.062500 0.125000
v -0.250000 0.000000 0.187500
v -0.312500 0.125000 0.187500
v -0.312500 0.125000 0.125000
v -0.250000 0.125000 0.125000
v -0.250000 0.125000 0.187500
v -0.250000 0.000000 0.250000
v -0.312500 0.125000 0.250000
v -0.312500 0.187500 0.250000
v -0.312500 0.187500 0.187500
v -0.250000 0.187500 0.187500
v -0.250000 0.125000 0.250000
v -0.250000 0.187500 0.250000
v -0.312500 0.000000 0.312500
v -0.312500 0.062500 0.312500
v -0.250000 0.000000 0.312500
v -0.312500 0.125000 0.312500
v -0.250000 0.062500 0.312500
v -0.250000 0.125000 0.312500
v -0.312500 0.000000 0.375000
v -0.312500 0.062500 0.375000
v -0.250000 0.000000 0.375000
v -0.250000 0.062500 0.375000
v -0.250000 0.062500 -0.437500
v -0.250000 0.000000 -0.437500
v -0.187500 0.062500 -0.437500
v -0.187500 0.062500 -0.375000
v -0.187500 0.000000 -0.375000
v -0.187500 0.000000 -0.437500
v -0.187500 0.000000 -0.312500
v -0.187500 0.125000 -0.375000
v -0.187500 0.187500 -0.375000
v -0.250000 0.250000 -0.375000
v -0.187500 0.250000 -0.375000
v -0.187500 0.250000 -0.312500
v -0.187500 0.187500 -0.312500
v -0.187500 0.000000 -0.250000
v -0.187500 0.250000 -0.250000
v -0.187500 0.000000 -0.187500
v -0.187500 0.250000 -0.187500
v -0.187500 0.000000 -0.125000
v -0.187500 0.250000 -0.125000
v -0.187500 0.000000 -0.062500
v -0.187500 0.062500 -0.062500
v -0.187500 0.125000 -0.062500
v -0.187500 0.187500 -0.062500
v -0.250000 0.250000 -0.062500
v -0.187500 0.250000 -0.062500
v -0.187500 0.187500 -0.125000
v -0.250000 0.000000 0.000000
v -0.250000 0.062500 0.000000
v -0.187500 0.062500 0.000000
v -0.187500 0.000000 0.000000
v -0.187500 0.062500 0.062500
v -0.187500 0.000000 0.062500
v -0.187500 0.000000 0.125000
v -0.250000 0.125000 0.062500
v -0.187500 0.125000 0.062500
v -0.187500 0.125000 0.125000
v -0.187500 0.000000 0.187500
v -0.250000 0.187500 0.125000
v -0.187500 0.187500 0.125000
v -0.187500 0.187500 0.187500
v -0.187500 0.000000 0.250000
v -0.187500 0.187500 0.250000
v -0.187500 0.000000 0.312500
v -0.250000 0.187500 0.312500
v -0.187500 0.125000 0.312500
v -0.187500 0.187500 0.312500
v -0.187500 0.000000 0.375000
v -0.187500 0.062500 0.375000
v -0.250000 0.125000 0.375000
v -0.187500 0.125000 0.375000
v -0.125000 0.062500 -0.375000
v -0.125000 0.000000 -0.375000
v -0.125000 0.000000 -0.312500
v -0.125000 0.125000 -0.375000
v -0.125000 0.187500 -0.375000
v -0.125000 0.187500 -0.312500
v -0.125000 0.125000 -0.312500
v -0.125000 0.000000 -0.250000
v -0.125000 0.250000 -0.312500
v -0.125000 0.250000 -0.250000
v -0.125000 0.187500 -0.250000
v -0.125000 0.000000 -0.187500
v -0.125000 0.250000 -0.187500
v -0.125000 0.000000 -0.125000
v -0.125000 0.250000 -0.125000
v -0.125000 0.187500 -0.125000
v -0.125000 0.187500 -0.187500
v -0.125000 0.000000 -0.062500
v -0.125000 0.062500 -0.062500
v -0.125000 0.125000 -0.062500
v -0.125000 0.187500 -0.062500
v -0.125000 0.125000 -0.125000
v -0.125000 0.062500 0.000000
v -0.125000 0.062500 0.062500
v -0.125000 0.000000 0.062500
v -0.125000 0.000000 0.000000
v -0.125000 0.000000 0.125000
v -0.125000 0.125000 0.062500
v -0.187500 0.187500 0.062500
v -0.125000 0.187500 0.062500
v -0.125000 0.187500 0.125000
v -0.125000 0.125000 0.125000
v -0.125000 0.000000 0.187500
v -0.125000 0.187500 0.187500
v -0.125000 0.000000 0.250000
v -0.125000 0.187500 0.250000
v -0.125000 0.000000 0.312500
v -0.125000 0.187500 0.312500
v -0.125000 0.000000 0.375000
v -0.125000 0.062500 0.375000
v -0.125000 0.125000 0.375000
v -0.187500 0.187500 0.375000
v -0.125000 0.187500 0.375000
v -0.125000 0.125000 0.312500
v -0.187500 0.000000 0.437500
v -0.187500 0.062500 0.437500
v -0.125000 0.062500 0.437500
v -0.125000 0.000000 0.437500
v -0.062500 0.062500 -0.375000
v -0.062500 0.062500 -0.312500
v -0.062500 0.000000 -0.312500
v -0.062500 0.000000 -0.375000
v -0.062500 0.125000 -0.375000
v -0.062500 0.125000 -0.312500
v -0.062500 0.062500 -0.250000
v -0.062500 0.000000 -0.250000
v -0.062500 0.125000 -0.250000
v -0.062500 0.187500 -0.312500
v -0.062500 0.187500 -0.250000
v -0.062500 0.000000 -0.187500
v -0.062500 0.250000 -0.250000
v -0.062500 0.187500 -0.187500
v -0.062500 0.250000 -0.187500
v -0.062500 0.000000 -0.125000
v -0.062500 0.125000 -0.125000
v -0.062500 0.187500 -0.125000
v -0.062500 0.000000 -0.062500
v -0.062500 0.062500 -0.062500
v -0.062500 0.125000 -0.062500
v -0.062500 0.062500 0.062500
v -0.062500 0.000000 0.062500
v -0.062500 0.000000 0.125000
v -0.062500 0.125000 0.062500
v -0.062500 0.125000 0.125000
v -0.062500 0.062500 0.125000
v -0.062500 0.000000 0.187500
v -0.062500 0.187500 0.125000
v -0.062500 0.187500 0.187500
v -0.062500 0.125000 0.187500
v -0.062500 0.000000 0.250000
v -0.062500 0.187500 0.250000
v -0.062500 0.000000 0.312500
v -0.062500 0.187500 0.312500
v -0.062500 0.125000 0.312500
v -0.062500 0.125000 0.250000
v -0.062500 0.000000 0.375000
v -0.062500 0.062500 0.375000
v -0.062500 0.125000 0.375000
v -0.062500 0.062500 0.312500
v 0.000000 0.062500 -0.250000
v 0.000000 0.000000 -0.250000
v 0.000000 0.000000 -0.187500
v 0.000000 0.125000 -0.250000
v 0.000000 0.187500 -0.250000
v 0.000000 0.250000 -0.250000
v 0.000000 0.250000 -0.187500
v 0.000000 0.000000 -0.125000
v -0.062500 0.250000 -0.125000
v -0.062500 0.312500 -0.125000
v -0.062500 0.312500 -0.187500
v 0.000000 0.312500 -0.187500
v 0.000000 0.250000 -0.125000
v 0.000000 0.312500 -0.125000
v 0.000000 0.000000 -0.062500
v 0.000000 0.062500 -0.062500
v 0.000000 0.125000 -0.062500
v -0.062500 0.187500 -0.062500
v 0.000000 0.187500 -0.062500
v -0.062500 0.250000 -0.062500
v 0.000000 0.250000 -0.062500
v 0.000000 0.062500 0.062500
v 0.000000 0.062500 0.125000
v 0.000000 0.000000 0.125000
v 0.000000 0.000000 0.062500
v 0.000000 0.062500 0.187500
v 0.000000 0.000000 0.187500
v 0.000000 0.125000 0.125000
v 0.000000 0.125000 0.187500
v 0.000000 0.000000 0.250000
v 0.000000 0.125000 0.250000
v 0.000000 0.062500 0.250000
v 0.000000 0.187500 0.187500
v 0.000000 0.187500 0.250000
v 0.000000 0.062500 0.312500
v 0.000000 0.000000 0.312500
v 0.000000 0.125000 0.312500
v 0.000000 0.062500 0.375000
v 0.000000 0.000000 0.375000
v 0.000000 0.062500 -0.312500
v 0.000000 0.000000 -0.312500
v 0.062500 0.062500 -0.312500
v 0.062500 0.000000 -0.312500
v 0.062500 0.000000 -0.250000
v 0.000000 0.125000 -0.312500
v 0.062500 0.125000 -0.312500
v 0.000000 0.187500 -0.312500
v 0.062500 0.187500 -0.312500
v 0.000000 0.250000 -0.312500
v 0.062500 0.250000 -0.312500
v 0.062500 0.250000 -0.250000
v 0.062500 0.000000 -0.187500
v 0.000000 0.312500 -0.250000
v 0.062500 0.312500 -0.250000
v 0.062500 0.312500 -0.187500
v 0.062500 0.250000 -0.187500
v 0.000000 0.375000 -0.187500
v 0.000000 0.375000 -0.250000
v 0.062500 0.375000 -0.250000
v 0.062500 0.375000 -0.187500
v 0.062500 0.000000 -0.125000
v 0.000000 0.375000 -0.125000
v 0.062500 0.375000 -0.125000
v 0.062500 0.000000 -0.062500
v 0.000000 0.312500 -0.062500
v 0.062500 0.250000 -0.062500
v 0.062500 0.312500 -0.062500
v 0.000000 0.375000 -0.062500
v 0.062500 0.375000 -0.062500
v 0.000000 0.000000 0.000000
v 0.000000 0.062500 0.000000
v 0.062500 0.000000 0.000000
v 0.062500 0.062500 0.000000
v 0.000000 0.125000 0.000000
v 0.062500 0.125000 0.000000
v 0.000000 0.187500 0.000000
v 0.062500 0.187500 0.000000
v 0.000000 0.250000 0.000000
v 0.062500 0.250000 0.000000
v 0.062500 0.062500 0.187500
v 0.062500 0.062500 0.250000
v 0.062500 0.000000 0.250000
v 0.062500 0.000000 0.187500
v 0.125000 0.062500 -0.312500
v 0.125000 0.000000 -0.312500
v 0.125000 0.000000 -0.250000
v 0.125000 0.125000 -0.312500
v 0.125000 0.187500 -0.312500
v 0.125000 0.250000 -0.312500
v 0.125000 0.250000 -0.250000
v 0.125000 0.000000 -0.187500
v 0.125000 0.250000 -0.187500
v 0.125000 0.000000 -0.125000
v 0.125000 0.312500 -0.187500
v 0.125000 0.375000 -0.187500
v 0.125000 0.375000 -0.125000
v 0.125000 0.000000 -0.062500
v 0.125000 0.312500 -0.062500
v 0.125000 0.375000 -0.062500
v 0.125000 0.000000 0.000000
v 0.125000 0.062500 0.000000
v 0.125000 0.125000 0.000000
v 0.125000 0.187500 0.000000
v 0.125000 0.250000 0.000000
v 0.062500 0.312500 0.000000
v 0.125000 0.312500 0.000000
v 0.125000 0.062500 -0.375000
v 0.125000 0.000000 -0.375000
v 0.187500 0.062500 -0.375000
v 0.187500 0.062500 -0.312500
v 0.187500 0.000000 -0.312500
v 0.187500 0.000000 -0.375000
v 0.187500 0.000000 -0.250000
v 0.187500 0.125000 -0.312500
v 0.187500 0.187500 -0.312500
v 0.187500 0.250000 -0.312500
v 0.187500 0.250000 -0.250000
v 0.187500 0.000000 -0.187500
v 0.187500 0.250000 -0.187500
v 0.187500 0.000000 -0.125000
v 0.187500 0.312500 -0.187500
v 0.187500 0.375000 -0.187500
v 0.187500 0.375000 -0.125000
v 0.187500 0.000000 -0.062500
v 0.187500 0.375000 -0.062500
v 0.187500 0.000000 0.000000
v 0.187500 0.062500 0.000000
v 0.187500 0.125000 0.000000
v 0.187500 0.187500 0.000000
v 0.187500 0.250000 0.000000
v 0.187500 0.312500 0.000000
v 0.125000 0.375000 0.000000
v 0.187500 0.375000 0.000000
v 0.187500 0.312500 -0.062500
v 0.125000 0.000000 0.062500
v 0.125000 0.062500 0.062500
v 0.187500 0.062500 0.062500
v 0.187500 0.000000 0.062500
v 0.125000 0.000000 0.312500
v 0.125000 0.062500 0.312500
v 0.125000 0.062500 0.250000
v 0.125000 0.000000 0.250000
v 0.187500 0.062500 0.250000
v 0.187500 0.000000 0.250000
v 0.187500 0.000000 0.312500
v 0.187500 0.062500 0.312500
v 0.250000 0.062500 -0.312500
v 0.250000 0.000000 -0.312500
v 0.250000 0.000000 -0.250000
v 0.250000 0.125000 -0.312500
v 0.250000 0.187500 -0.312500
v 0.250000 0.250000 -0.312500
v 0.187500 0.312500 -0.250000
v 0.187500 0.312500 -0.312500
v 0.250000 0.312500 -0.312500
v 0.250000 0.312500 -0.250000
v 0.250000 0.250000 -0.250000
v 0.250000 0.000000 -0.187500
v 0.187500 0.375000 -0.250000
v 0.250000 0.375000 -0.250000
v 0.250000 0.375000 -0.187500
v 0.250000 0.000000 -0.125000
v 0.250000 0.375000 -0.125000
v 0.250000 0.000000 -0.062500
v 0.250000 0.312500 -0.062500
v 0.250000 0.375000 -0.062500
v 0.250000 0.000000 0.000000
v 0.250000 0.062500 0.000000
v 0.250000 0.125000 0.000000
v 0.250000 0.187500 0.000000
v 0.250000 0.250000 0.000000
v 0.250000 0.312500 0.000000
v 0.250000 0.250000 -0.062500
v 0.187500 0.062500 0.187500
v 0.187500 0.000000 0.187500
v 0.250000 0.062500 0.187500
v 0.250000 0.000000 0.187500
v 0.250000 0.000000 0.250000
v 0.250000 0.062500 0.250000
v 0.250000 0.000000 0.312500
v 0.187500 0.125000 0.312500
v 0.187500 0.125000 0.250000
v 0.250000 0.125000 0.250000
v 0.250000 0.062500 0.312500
v 0.250000 0.125000 0.312500
v 0.187500 0.000000 0.375000
v 0.187500 0.062500 0.375000
v 0.250000 0.000000 0.375000
v 0.250000 0.062500 0.375000
v 0.312500 0.062500 -0.312500
v 0.312500 0.062500 -0.250000
v 0.312500 0.000000 -0.250000
v 0.312500 0.000000 -0.312500
v 0.312500 0.125000 -0.312500
v 0.312500 0.125000 -0.250000
v 0.312500 0.187500 -0.312500
v 0.312500 0.187500 -0.250000
v 0.312500 0.250000 -0.312500
v 0.312500 0.250000 -0.250000
v 0.312500 0.000000 -0.187500
v 0.312500 0.312500 -0.250000
v 0.312500 0.312500 -0.187500
v 0.312500 0.250000 -0.187500
v 0.312500 0.375000 -0.250000
v 0.312500 0.375000 -0.187500
v 0.312500 0.000000 -0.125000
v 0.312500 0.375000 -0.125000
v 0.312500 0.312500 -0.125000
v 0.312500 0.000000 -0.062500
v 0.312500 0.312500 -0.062500
v 0.312500 0.250000 -0.062500
v 0.312500 0.250000 -0.125000
v 0.312500 0.375000 -0.062500
v 0.312500 0.062500 -0.062500
v 0.312500 0.062500 0.000000
v 0.312500 0.000000 0.000000
v 0.312500 0.125000 -0.062500
v 0.312500 0.125000 0.000000
v 0.312500 0.187500 -0.062500
v 0.312500 0.187500 0.000000
v 0.312500 0.250000 0.000000
v 0.250000 0.062500 0.125000
v 0.250000 0.000000 0.125000
v 0.312500 0.062500 0.125000
v 0.312500 0.062500 0.187500
v 0.312500 0.000000 0.187500
v 0.312500 0.000000 0.125000
v 0.312500 0.000000 0.250000
v 0.250000 0.125000 0.187500
v 0.312500 0.125000 0.187500
v 0.312500 0.125000 0.250000
v 0.312500 0.062500 0.250000
v 0.312500 0.000000 0.312500
v 0.312500 0.125000 0.312500
v 0.312500 0.000000 0.375000
v 0.250000 0.125000 0.375000
v 0.312500 0.125000 0.375000
v 0.312500 0.062500 0.375000
v 0.312500 0.062500 0.312500
v 0.250000 0.000000 0.437500
v 0.250000 0.062500 0.437500
v 0.312500 0.062500 0.437500
v 0.312500 0.000000 0.437500
v 0.375000 0.062500 -0.250000
v 0.375000 0.062500 -0.187500
v 0.375000 0.000000 -0.187500
v 0.375000 0.000000 -0.250000
v 0.375000 0.125000 -0.250000
v 0.375000 0.125000 -0.187500
v 0.375000 0.187500 -0.250000
v 0.375000 0.187500 -0.187500
v 0.375000 0.250000 -0.250000
v 0.375000 0.250000 -0.187500
v 0.375000 0.000000 -0.125000
v 0.375000 0.125000 -0.125000
v 0.375000 0.062500 -0.125000
v 0.375000 0.187500 -0.125000
v 0.375000 0.250000 -0.125000
v 0.375000 0.312500 -0.187500
v 0.375000 0.312500 -0.125000
v 0.375000 0.062500 -0.062500
v 0.375000 0.000000 -0.062500
v 0.375000 0.125000 -0.062500
v 0.375000 0.187500 -0.062500
v 0.375000 0.250000 -0.062500
v 0.375000 0.062500 0.187500
v 0.375000 0.062500 0.250000
v 0.375000 0.000000 0.250000
v 0.375000 0.000000 0.187500
v 0.375000 0.000000 0.312500
v 0.375000 0.125000 0.250000
v 0.375000 0.125000 0.312500
v 0.375000 0.062500 0.312500
v 0.375000 0.062500 0.375000
v 0.375000 0.000000 0.375000
v 0.437500 0.062500 -0.187500
v 0.437500 0.062500 -0.125000
v 0.437500 0.000000 -0.125000
v 0.437500 0.000000 -0.187500
v 0.437500 0.062500 0.250000
v 0.437500 0.062500 0.312500
v 0.437500 0.000000 0.312500
v 0.437500 0.000000 0.250000
vt 0.03125000 0.96875000
vt 0.09375000 0.96875000
vt 0.15625000 0.96875000
vt 0.21875000 0.96875000
vt 0.28125000 0.96875000
vt 0.34375000 0.96875000
vt 0.40625000 0.96875000
vt 0.46875000 0.96875000
vt 0.53125000 0.96875000
vt 0.59375000 0.96875000
vt 0.65625000 0.96875000
vt 0.71875000 0.96875000
vt 0.78125000 0.96875000
vt 0.84375000 0.96875000
vt 0.90625000 0.96875000
vt 0.96875000 0.96875000
vt 0.03125000 0.90625000
vt 0.09375000 0.90625000
vt 0.15625000 0.90625000
vt 0.21875000 0.90625000
vt 0.28125000 0.90625000
vt 0.34375000 0.90625000
vt 0.40625000 0.90625000
vt 0.46875000 0.90625000
vt 0.53125000 0.90625000
vt 0.59375000 0.90625000
vt 0.65625000 0.90625000
vt 0.71875000 0.90625000
vt 0.78125000 0.90625000
vt 0.84375000 0.90625000
vt 0.90625000 0.90625000
vt 0.96875000 0.90625000
vt 0.03125000 0.84375000
vt 0.09375000 0.84375000
vt 0.15625000 0.84375000
vt 0.21875000 0.84375000
vt 0.28125000 0.84375000
vt 0.34375000 0.84375000
vt 0.40625000 0.84375000
vt 0.46875000 0.84375000
vt 0.53125000 0.84375000
vt 0.59375000 0.84375000
vt 0.65625000 0.84375000
vt 0.71875000 0.84375000
vt 0.78125000 0.84375000
vt 0.84375000 0.84375000
vt 0.90625000 0.84375000
vt 0.96875000 0.84375000
vt 0.03125000 0.78125000
vt 0.09375000 0.78125000
vt 0.15625000 0.78125000
vt 0.21875000 0.78125000
vt 0.28125000 0.78125000
vt 0.34375000 0.78125000
vt 0.40625000 0.78125000
vt 0.46875000 0.78125000
vt 0.53125000 0.78125000
vt 0.59375000 0.78125000
vt 0.65625000 0.78125000
vt 0.71875000 0.78125000
vt 0.78125000 0.78125000
vt 0.84375000 0.78125000
vt 0.90625000 0.78125000
vt 0.96875000 0.78125000
vt 0.03125000 0.71875000
vt 0.09375000 0.71875000
vt 0.15625000 0.71875000
vt 0.21875000 0.71875000
vt 0.28125000 0.71875000
vt 0.34375000 0.71875000
vt 0.40625000 0.71875000
vt 0.46875000 0.71875000
vt 0.53125000 0.71875000
vt 0.59375000 0.71875000
vt 0.65625000 0.71875000
vt 0.71875000 0.71875000
vt 0.78125000 0.71875000
vt 0.84375000 0.71875000
vt 0.90625000 0.71875000
vt 0.96875000 0.71875000
vt 0.03125000 0.65625000
vt 0.09375000 0.65625000
vt 0.15625000 0.65625000
vt 0.21875000 0.65625000
vt 0.28125000 0.65625000
vt 0.34375000 0.65625000
vt 0.40625000 0.65625000
vt 0.46875000 0.65625000
vt 0.53125000 0.65625000
vt 0.59375000 0.65625000
vt 0.65625000 0.65625000
vt 0.71875000 0.65625000
vt 0.78125000 0.65625000
vt 0.84375000 0.65625000
vt 0.90625000 0.65625000
vt 0.96875000 0.65625000
vt 0.03125000 0.59375000
vt 0.09375000 0.59375000
vt 0.15625000 0.59375000
vt 0.21875000 0.59375000
vt 0.28125000 0.59375000
vt 0.34375000 0.59375000
vt 0.40625000 0.59375000
vt 0.46875000 0.59375000
vt 0.53125000 0.59375000
vt 0.59375000 0.59375000
vt 0.65625000 0.59375000
vt 0.71875000 0.59375000
vt 0.78125000 0.59375000
vt 0.84375000 0.59375000
vt 0.90625000 0.59375000
vt 0.96875000 0.59375000
vt 0.03125000 0.53125000
vt 0.09375000 0.53125000
vt 0.15625000 0.53125000
vt 0.21875000 0.53125000
vt 0.28125000 0.53125000
vt 0.34375000 0.53125000
vt 0.40625000 0.53125000
vt 0.46875000 0.53125000
vt 0.53125000 0.53125000
vt 0.59375000 0.53125000
vt 0.65625000 0.53125000
vt 0.71875000 0.53125000
vt 0.78125000 0.53125000
vt 0.84375000 0.53125000
vt 0.90625000 0.53125000
vt 0.96875000 0.53125000
vt 0.03125000 0.46875000
vt 0.09375000 0.46875000
vt 0.15625000 0.46875000
vt 0.21875000 0.46875000
vt 0.28125000 0.46875000
vt 0.34375000 0.46875000
vt 0.40625000 0.46875000
vt 0.46875000 0.46875000
vt 0.53125000 0.46875000
vt 0.59375000 0.46875000
vt 0.65625000 0.46875000
vt 0.71875000 0.46875000
vt 0.78125000 0.46875000
vt 0.84375000 0.46875000
vt 0.90625000 0.46875000
vt 0.96875000 0.46875000
vt 0.03125000 0.40625000
vt 0.09375000 0.40625000
vt 0.15625000 0.40625000
vt 0.21875000 0.40625000
vt 0.28125000 0.40625000
vt 0.34375000 0.40625000
vt 0.40625000 0.40625000
vt 0.46875000 0.40625000
vt 0.53125000 0.40625000
vt 0.59375000 0.40625000
vt 0.65625000 0.40625000
vt 0.71875000 0.40625000
vt 0.78125000 0.40625000
vt 0.84375000 0.40625000
vt 0.90625000 0.40625000
vt 0.96875000 0.40625000
vt 0.03125000 0.34375000
vt 0.09375000 0.34375000
vt 0.15625000 0.34375000
vt 0.21875000 0.34375000
vt 0.28125000 0.34375000
vt 0.34375000 0.34375000
vt 0.40625000 0.34375000
vt 0.46875000 0.34375000
vt 0.53125000 0.34375000
vt 0.59375000 0.34375000
vt 0.65625000 0.34375000
vt 0.71875000 0.34375000
vt 0.78125000 0.34375000
vt 0.84375000 0.34375000
vt 0.90625000 0.34375000
vt 0.96875000 0.34375000
vt 0.03125000 0.28125000
vt 0.09375000 0.28125000
vt 0.15625000 0.28125000
vt 0.21875000 0.28125000
vt 0.28125000 0.28125000
vt 0.34375000 0.28125000
vt 0.40625000 0.28125000
vt 0.46875000 0.28125000
vt 0.53125000 0.28125000
vt 0.59375000 0.28125000
vt 0.65625000 0.28125000
vt 0.71875000 0.28125000
vt 0.78125000 0.28125000
vt 0.84375000 0.28125000
vt 0.90625000 0.28125000
vt 0.96875000 0.28125000
vt 0.03125000 0.21875000
vt 0.09375000 0.21875000
vt 0.15625000 0.21875000
vt 0.21875000 0.21875000
vt 0.28125000 0.21875000
vt 0.34375000 0.21875000
vt 0.40625000 0.21875000
vt 0.46875000 0.21875000
vt 0.53125000 0.21875000
vt 0.59375000 0.21875000
vt 0.65625000 0.21875000
vt 0.71875000 0.21875000
vt 0.78125000 0.21875000
vt 0.84375000 0.21875000
vt 0.90625000 0.21875000
vt 0.96875000 0.21875000
vt 0.03125000 0.15625000
vt 0.09375000 0.15625000
vt 0.15625000 0.15625000
vt 0.21875000 0.15625000
vt 0.28125000 0.15625000
vt 0.34375000 0.15625000
vt 0.40625000 0.15625000
vt 0.46875000 0.15625000
vt 0.53125000 0.15625000
vt 0.59375000 0.15625000
vt 0.65625000 0.15625000
vt 0.71875000 0.15625000
vt 0.78125000 0.15625000
vt 0.84375000 0.15625000
vt 0.90625000 0.15625000
vt 0.96875000 0.15625000
vt 0.03125000 0.09375000
vt 0.09375000 0.09375000
vt 0.15625000 0.09375000
vt 0.21875000 0.09375000
vt 0.28125000 0.09375000
vt 0.34375000 0.09375000
vt 0.40625000 0.09375000
vt 0.46875000 0.09375000
vt 0.53125000 0.09375000
vt 0.59375000 0.09375000
vt 0.65625000 0.09375000
vt 0.71875000 0.09375000
vt 0.78125000 0.09375000
vt 0.84375000 0.09375000
vt 0.90625000 0.09375000
vt 0.96875000 0.09375000
vt 0.03125000 0.03125000
vt 0.09375000 0.03125000
vt 0.15625000 0.03125000
vt 0.21875000 0.03125000
vt 0.28125000 0.03125000
vt 0.34375000 0.03125000
vt 0.40625000 0.03125000
vt 0.46875000 0.03125000
vt 0.53125000 0.03125000
vt 0.59375000 0.03125000
vt 0.65625000 0.03125000
vt 0.71875000 0.03125000
vt 0.78125000 0.03125000
vt 0.84375000 0.03125000
vt 0.90625000 0.03125000
vt 0.96875000 0.03125000
vn -1 0 0
vn 1 0 0
vn 0 0 -1
vn 0 0 1
vn 0 -1 0
vn 0 1 0
g palette
usemtl palette
f 1/11/1 2/11/1 3/11/1 4/11/1
f 3/11/3 5/11/3 6/11/3 4/11/3
f 7/11/4 8/11/4 2/11/4 1/11/4
f 6/11/5 7/11/5 1/11/5 4/11/5
f 2/11/6 8/11/6 5/11/6 3/11/6
f 9/11/1 10/11/1 11/11/1 12/11/1
f 11/11/3 13/11/3 14/11/3 12/11/3
f 14/11/5 15/11/5 9/11/5 12/11/5
f 10/11/1 16/11/1 17/11/1 11/11/1
f 17/11/3 18/11/3 13/11/3 11/11/3
f 16/11/6 19/11/6 18/11/6 17/11/6
f 6/11/1 5/11/1 10/11/1 9/11/1
f 15/11/5 20/11/5 6/11/5 9/11/5
f 5/11/1 21/11/1 16/11/1 10/11/1
f 21/11/1 22/11/1 23/11/1 16/11/1
f 23/11/3 24/11/3 19/11/3 16/11/3
f 22/11/6 25/11/6 24/11/6 23/11/6
f 20/11/5 26/11/5 7/11/5 6/11/5
f 8/11/1 27/11/1 21/11/1 5/11/1
f 27/11/1 28/11/1 22/11/1 21/11/1
f 28/11/1 29/11/1 30/11/1 22/11/1
f 30/11/3 31/11/3 25/11/3 22/11/3
f 32/11/4 33/11/4 29/11/4 28/11/4
f 29/11/6 33/11/6 31/11/6 30/11/6
f 34/11/1 35/11/1 8/11/1 7/11/1
f 26/11/5 36/11/5 34/11/5 7/11/5
f 35/11/1 37/11/1 27/11/1 8/11/1
f 37/11/1 38/11/1 28/11/1 27/11/1
f 39/11/4 40/11/4 38/11/4 37/11/4
f 38/11/6 40/11/6 32/11/6 28/11/6
f 41/11/1 42/11/1 35/11/1 34/11/1
f 43/11/4 44/11/4 42/11/4 41/11/4
f 36/11/5 43/11/5 41/11/5 34/11/5
f 42/11/1 45/11/1 37/11/1 35/11/1
f 44/11/4 46/11/4 45/11/4 42/11/4
f 45/11/6 46/11/6 39/11/6 37/11/6
f 47/11/1 48/11/1 49/11/1 50/11/1
f 49/11/3 51/11/3 52/11/3 50/11/3
f 53/11/4 54/11/4 48/11/4 47/11/4
f 52/11/5 53/11/5 47/11/5 50/11/5
f 48/11/6 54/11/6 51/11/6 49/11/6
f 13/4/3 55/4/3 56/4/3 14/4/3
f 56/4/5 57/4/5 15/4/5 14/4/5
f 18/4/3 58/4/3 55/4/3 13/4/3
f 19/4/1 24/4/1 59/4/1 18/4/1
f 59/4/3 60/4/3 58/4/3 18/4/3
f 24/4/6 61/4/6 60/4/6 59/4/6
f 57/4/5 62/4/5 20/4/5 15/4/5
f 25/11/1 31/11/1 63/11/1 24/11/1
f 63/11/3 64/11/3 61/11/3 24/11/3
f 31/11/6 65/11/6 64/11/6 63/11/6
f 62/4/5 66/4/5 26/4/5 20/4/5
f 33/5/6 67/5/6 65/5/6 31/5/6
f 66/4/5 68/4/5 36/4/5 26/4/5
f 40/5/1 69/5/1 33/5/1 32/5/1
f 70/5/4 71/5/4 69/5/4 40/5/4
f 69/5/6 71/5/6 67/5/6 33/5/6
f 72/4/4 73/4/4 44/4/4 43/4/4
f 68/4/5 72/4/5 43/4/5 36/4/5
f 73/4/4 74/4/4 46/4/4 44/4/4
f 46/11/1 75/11/1 40/11/1 39/11/1
f 74/11/4 76/11/4 75/11/4 46/11/4
f 75/11/6 76/11/6 70/11/6 40/11/6
f 77/11/1 78/11/1 79/11/1 80/11/1
f 79/11/3 81/11/3 82/11/3 80/11/3
f 82/11/5 83/11/5 77/11/5 80/11/5
f 78/11/6 84/11/6 81/11/6 79/11/6
f 52/11/1 51/11/1 78/11/1 77/11/1
f 83/11/5 85/11/5 52/11/5 77/11/5
f 51/11/1 86/11/1 87/11/1 78/11/1
f 87/11/3 88/11/3 84/11/3 78/11/3
f 86/11/6 89/11/6 88/11/6 87/11/6
f 85/11/5 90/11/5 53/11/5 52/11/5
f 54/11/1 91/11/1 86/11/1 51/11/1
f 91/11/1 92/11/1 93/11/1 86/11/1
f 93/11/3 94/11/3 89/11/3 86/11/3
f 95/11/4 96/11/4 92/11/4 91/11/4
f 92/11/6 96/11/6 94/11/6 93/11/6
f 97/11/1 98/11/1 54/11/1 53/11/1
f 90/11/5 99/11/5 97/11/5 53/11/5
f 98/11/1 100/11/1 91/11/1 54/11/1
f 101/11/4 102/11/4 100/11/4 98/11/4
f 100/11/6 102/11/6 95/11/6 91/11/6
f 103/11/1 104/11/1 98/11/1 97/11/1
f 105/11/4 106/11/4 104/11/4 103/11/4
f 99/11/5 105/11/5 103/11/5 97/11/5
f 104/11/6 106/11/6 101/11/6 98/11/6
f 56/4/1 55/4/1 107/4/1 108/4/1
f 109/4/2 110/4/2 111/4/2 112/4/2
f 107/4/3 109/4/3 112/4/3 108/4/3
f 112/4/5 111/4/5 56/4/5 108/4/5
f 55/4/6 110/4/6 109/4/6 107/4/6
f 111/4/5 113/4/5 57/4/5 56/4/5
f 58/4/3 114/4/3 110/4/3 55/4/3
f 60/4/3 115/4/3 114/4/3 58/4/3
f 61/5/1 64/5/1 116/5/1 60/5/1
f 117/5/2 118/5/2 119/5/2 115/5/2
f 116/5/3 117/5/3 115/5/3 60/5/3
f 64/5/6 118/5/6 117/5/6 116/5/6
f 113/4/5 120/4/5 62/4/5 57/4/5
f 65/5/6 121/5/6 118/5/6 64/5/6
f 120/11/5 122/11/5 66/11/5 62/11/5
f 67/5/6 123/5/6 121/5/6 65/5/6
f 122/4/5 124/4/5 68/4/5 66/4/5
f 71/5/6 125/5/6 123/5/6 67/5/6
f 124/4/5 126/4/5 72/4/5 68/4/5
f 127/4/4 128/4/4 74/4/4 73/4/4
f 128/4/4 129/4/4 76/4/4 74/4/4
f 76/5/1 130/5/1 71/5/1 70/5/1
f 125/5/2 131/5/2 129/5/2 132/5/2
f 129/5/4 131/5/4 130/5/4 76/5/4
f 130/5/6 131/5/6 125/5/6 71/5/6
f 133/4/1 134/4/1 73/4/1 72/4/1
f 127/4/2 135/4/2 136/4/2 126/4/2
f 136/4/4 135/4/4 134/4/4 133/4/4
f 126/4/5 136/4/5 133/4/5 72/4/5
f 134/4/6 135/4/6 127/4/6 73/4/6
f 81/4/3 137/4/3 138/4/3 82/4/3
f 138/4/5 139/4/5 83/4/5 82/4/5
f 84/4/1 88/4/1 140/4/1 81/4/1
f 140/4/3 141/4/3 137/4/3 81/4/3
f 88/4/6 142/4/6 141/4/6 140/4/6
f 139/4/5 143/4/5 85/4/5 83/4/5
f 89/5/1 94/5/1 144/5/1 88/5/1
f 144/5/3 145/5/3 142/5/3 88/5/3
f 94/5/6 146/5/6 145/5/6 144/5/6
f 143/4/5 147/4/5 90/4/5 85/4/5
f 96/5/6 148/5/6 146/5/6 94/5/6
f 147/4/5 149/4/5 99/4/5 90/4/5
f 102/5/1 150/5/1 96/5/1 95/5/1
f 151/5/4 152/5/4 150/5/4 102/5/4
f 150/5/6 152/5/6 148/5/6 96/5/6
f 153/4/4 154/4/4 106/4/4 105/4/4
f 149/4/5 153/4/5 105/4/5 99/4/5
f 106/4/1 155/4/1 102/4/1 101/4/1
f 154/4/4 156/4/4 155/4/4 106/4/4
f 155/4/6 156/4/6 151/4/6 102/4/6
f 110/4/3 157/4/3 158/4/3 111/4/3
f 158/4/5 159/4/5 113/4/5 111/4/5
f 114/4/3 160/4/3 157/4/3 110/4/3
f 161/4/2 162/4/2 163/4/2 160/4/2
f 115/4/3 161/4/3 160/4/3 114/4/3
f 119/4/6 162/4/6 161/4/6 115/4/6
f 159/4/5 164/4/5 120/4/5 113/4/5
f 165/5/2 166/5/2 167/5/2 162/5/2
f 118/5/3 165/5/3 162/5/3 119/5/3
f 121/5/6 166/5/6 165/5/6 118/5/6
f 164/4/5 168/4/5 122/4/5 120/4/5
f 123/5/6 169/5/6 166/5/6 121/5/6
f 168/4/5 170/4/5 124/4/5 122/4/5
f 169/5/2 171/5/2 172/5/2 173/5/2
f 172/5/4 171/5/4 125/5/4 132/5/4
f 125/5/6 171/5/6 169/5/6 123/5/6
f 174/4/4 175/4/4 127/4/4 126/4/4
f 170/4/5 174/4/5 126/4/5 124/4/5
f 175/4/4 176/4/4 128/4/4 127/4/4
f 172/4/2 177/4/2 176/4/2 178/4/2
f 176/4/4 177/4/4 129/4/4 128/4/4
f 129/4/6 177/4/6 172/4/6 132/4/6
f 138/4/1 137/4/1 135/4/1 136/4/1
f 179/4/2 180/4/2 181/4/2 182/4/2
f 135/4/3 179/4/3 182/4/3 136/4/3
f 182/4/5 181/4/5 138/4/5 136/4/5
f 137/4/6 180/4/6 179/4/6 135/4/6
f 181/4/5 183/4/5 139/4/5 138/4/5
f 141/4/3 184/4/3 180/4/3 137/4/3
f 142/5/1 145/5/1 185/5/1 141/5/1
f 186/5/2 187/5/2 188/5/2 184/5/2
f 185/5/3 186/5/3 184/5/3 141/5/3
f 145/5/6 187/5/6 186/5/6 185/5/6
f 183/4/5 189/4/5 143/4/5 139/4/5
f 146/5/6 190/5/6 187/5/6 145/5/6
f 189/4/5 191/4/5 147/4/5 143/4/5
f 148/5/6 192/5/6 190/5/6 146/5/6
f 191/4/5 193/4/5 149/4/5 147/4/5
f 152/5/6 194/5/6 192/5/6 148/5/6
f 193/4/5 195/4/5 153/4/5 149/4/5
f 196/4/4 197/4/4 156/4/4 154/4/4
f 156/5/1 198/5/1 152/5/1 151/5/1
f 194/5/2 199/5/2 197/5/2 200/5/2
f 197/5/4 199/5/4 198/5/4 156/5/4
f 198/5/6 199/5/6 194/5/6 152/5/6
f 201/4/1 202/4/1 154/4/1 153/4/1
f 196/4/2 203/4/2 204/4/2 195/4/2
f 204/4/4 203/4/4 202/4/4 201/4/4
f 195/4/5 204/4/5 201/4/5 153/4/5
f 202/4/6 203/4/6 196/4/6 154/4/6
f 205/4/2 206/4/2 207/4/2 208/4/2
f 157/4/3 205/4/3 208/4/3 158/4/3
f 208/4/5 207/4/5 159/4/5 158/4/5
f 209/4/2 210/4/2 206/4/2 205/4/2
f 160/4/3 209/4/3 205/4/3 157/4/3
f 163/4/6 210/4/6 209/4/6 160/4/6
f 206/4/2 211/4/2 212/4/2 207/4/2
f 207/4/5 212/4/5 164/4/5 159/4/5
f 210/4/2 213/4/2 211/4/2 206/4/2
f 214/4/2 215/4/2 213/4/2 210/4/2
f 162/4/3 214/4/3 210/4/3 163/4/3
f 167/4/6 215/4/6 214/4/6 162/4/6
f 212/4/5 216/4/5 168/4/5 164/4/5
f 166/5/3 217/5/3 215/5/3 167/5/3
f 218/5/4 219/5/4 169/5/4 173/5/4
f 169/5/6 219/5/6 217/5/6 166/5/6
f 216/11/5 220/11/5 170/11/5 168/11/5
f 221/4/4 222/4/4 172/4/4 178/4/4
f 172/4/6 222/4/6 218/4/6 173/4/6
f 223/4/4 224/4/4 175/4/4 174/4/4
f 220/4/5 223/4/5 174/4/5 170/4/5
f 224/4/4 225/4/4 176/4/4 175/4/4
f 176/4/6 225/4/6 221/4/6 178/4/6
f 180/4/3 226/4/3 227/4/3 181/4/3
f 227/4/5 228/4/5 183/4/5 181/4/5
f 229/5/2 230/5/2 231/5/2 226/5/2
f 184/5/3 229/5/3 226/5/3 180/5/3
f 188/5/6 230/5/6 229/5/6 184/5/6
f 228/4/5 232/4/5 189/4/5 183/4/5
f 233/5/2 234/5/2 235/5/2 230/5/2
f 187/5/3 233/5/3 230/5/3 188/5/3
f 190/5/6 234/5/6 233/5/6 187/5/6
f 232/4/5 236/4/5 191/4/5 189/4/5
f 192/11/6 237/11/6 234/11/6 190/11/6
f 236/4/5 238/4/5 193/4/5 191/4/5
f 237/5/2 239/5/2 240/5/2 241/5/2
f 240/5/4 239/5/4 194/5/4 200/5/4
f 194/5/6 239/5/6 237/5/6 192/5/6
f 242/4/4 243/4/4 196/4/4 195/4/4
f 238/4/5 242/4/5 195/4/5 193/4/5
f 240/4/2 244/4/2 243/4/2 245/4/2
f 243/4/4 244/4/4 197/4/4 196/4/4
f 197/4/6 244/4/6 240/4/6 200/4/6
f 211/11/3 246/11/3 247/11/3 212/11/3
f 247/11/5 248/11/5 216/11/5 212/11/5
f 213/11/3 249/11/3 246/11/3 211/11/3
f 215/11/3 250/11/3 249/11/3 213/11/3
f 217/11/3 251/11/3 250/11/3 215/11/3
f 219/11/6 252/11/6 251/11/6 217/11/6
f 248/11/5 253/11/5 220/11/5 216/11/5
f 222/11/1 254/11/1 219/11/1 218/11/1
f 254/11/1 255/11/1 256/11/1 219/11/1
f 256/11/3 257/11/3 252/11/3 219/11/3
f 258/11/4 259/11/4 255/11/4 254/11/4
f 255/11/6 259/11/6 257/11/6 256/11/6
f 260/11/4 261/11/4 224/11/4 223/11/4
f 253/11/5 260/11/5 223/11/5 220/11/5
f 261/11/4 262/11/4 225/11/4 224/11/4
f 225/11/1 263/11/1 222/11/1 221/11/1
f 262/11/4 264/11/4 263/11/4 225/11/4
f 263/11/1 265/11/1 254/11/1 222/11/1
f 264/11/4 266/11/4 265/11/4 263/11/4
f 265/11/6 266/11/6 258/11/6 254/11/6
f 267/4/2 268/4/2 269/4/2 270/4/2
f 226/4/3 267/4/3 270/4/3 227/4/3
f 270/4/5 269/4/5 228/4/5 227/4/5
f 231/4/6 268/4/6 267/4/6 226/4/6
f 268/4/2 271/4/2 272/4/2 269/4/2
f 269/4/5 272/4/5 232/4/5 228/4/5
f 273/4/2 274/4/2 271/4/2 268/4/2
f 230/4/3 273/4/3 268/4/3 231/4/3
f 235/4/6 274/4/6 273/4/6 230/4/6
f 272/4/5 275/4/5 236/4/5 232/4/5
f 274/4/2 276/4/2 277/4/2 271/4/2
f 278/5/2 279/5/2 276/5/2 274/5/2
f 234/5/3 278/5/3 274/5/3 235/5/3
f 276/5/4 279/5/4 237/5/4 241/5/4
f 237/5/6 279/5/6 278/5/6 234/5/6
f 277/4/2 280/4/2 281/4/2 275/4/2
f 275/4/5 281/4/5 238/4/5 236/4/5
f 276/4/2 282/4/2 280/4/2 277/4/2
f 280/4/4 282/4/4 240/4/4 245/4/4
f 240/4/6 282/4/6 276/4/6 241/4/6
f 280/4/2 283/4/2 284/4/2 281/4/2
f 284/4/4 283/4/4 243/4/4 242/4/4
f 281/4/5 284/4/5 242/4/5 238/4/5
f 243/4/6 283/4/6 280/4/6 245/4/6
f 247/4/1 246/4/1 285/4/1 286/4/1
f 285/4/3 287/4/3 288/4/3 286/4/3
f 288/4/5 289/4/5 247/4/5 286/4/5
f 246/4/1 249/4/1 290/4/1 285/4/1
f 290/4/3 291/4/3 287/4/3 285/4/3
f 249/4/1 250/4/1 292/4/1 290/4/1
f 292/4/3 293/4/3 291/4/3 290/4/3
f 250/4/1 251/4/1 294/4/1 292/4/1
f 294/4/3 295/4/3 293/4/3 292/4/3
f 251/4/6 296/4/6 295/4/6 294/4/6
f 289/4/5 297/4/5 248/4/5 247/4/5
f 252/4/1 257/4/1 298/4/1 251/4/1
f 299/4/2 300/4/2 301/4/2 296/4/2
f 298/4/3 299/4/3 296/4/3 251/4/3
f 257/5/1 302/5/1 303/5/1 298/5/1
f 304/5/2 305/5/2 300/5/2 299/5/2
f 303/5/3 304/5/3 299/5/3 298/5/3
f 302/5/6 305/5/6 304/5/6 303/5/6
f 297/4/5 306/4/5 253/4/5 248/4/5
f 259/5/1 307/5/1 302/5/1 257/5/1
f 307/5/6 308/5/6 305/5/6 302/5/6
f 306/11/5 309/11/5 260/11/5 253/11/5
f 266/4/1 310/4/1 259/4/1 258/4/1
f 311/4/4 312/4/4 310/4/4 266/4/4
f 310/5/1 313/5/1 307/5/1 259/5/1
f 312/5/4 314/5/4 313/5/4 310/5/4
f 313/5/6 314/5/6 308/5/6 307/5/6
f 315/4/1 316/4/1 261/4/1 260/4/1
f 317/4/4 318/4/4 316/4/4 315/4/4
f 309/4/5 317/4/5 315/4/5 260/4/5
f 316/4/1 319/4/1 262/4/1 261/4/1
f 318/4/4 320/4/4 319/4/4 316/4/4
f 319/4/1 321/4/1 264/4/1 262/4/1
f 320/4/4 322/4/4 321/4/4 319/4/4
f 321/4/1 323/4/1 266/4/1 264/4/1
f 322/4/4 324/4/4 323/4/4 321/4/4
f 323/4/6 324/4/6 311/4/6 266/4/6
f 325/4/2 326/4/2 327/4/2 328/4/2
f 271/4/3 325/4/3 328/4/3 272/4/3
f 327/4/4 326/4/4 277/4/4 275/4/4
f 328/4/5 327/4/5 275/4/5 272/4/5
f 277/4/6 326/4/6 325/4/6 271/4/6
f 287/4/3 329/4/3 330/4/3 288/4/3
f 330/4/5 331/4/5 289/4/5 288/4/5
f 291/4/3 332/4/3 329/4/3 287/4/3
f 293/4/3 333/4/3 332/4/3 291/4/3
f 295/4/3 334/4/3 333/4/3 293/4/3
f 296/4/6 335/4/6 334/4/6 295/4/6
f 331/4/5 336/4/5 297/4/5 289/4/5
f 301/4/6 337/4/6 335/4/6 296/4/6
f 336/4/5 338/4/5 306/4/5 297/4/5
f 300/4/3 339/4/3 337/4/3 301/4/3
f 305/5/3 340/5/3 339/5/3 300/5/3
f 308/5/6 341/5/6 340/5/6 305/5/6
f 338/4/5 342/4/5 309/4/5 306/4/5
f 343/5/4 344/5/4 314/5/4 312/5/4
f 314/5/6 344/5/6 341/5/6 308/5/6
f 345/4/4 346/4/4 318/4/4 317/4/4
f 342/4/5 345/4/5 317/4/5 309/4/5
f 346/4/4 347/4/4 320/4/4 318/4/4
f 347/4/4 348/4/4 322/4/4 320/4/4
f 348/4/4 349/4/4 324/4/4 322/4/4
f 324/4/1 350/4/1 312/4/1 311/4/1
f 349/4/4 351/4/4 350/4/4 324/4/4
f 350/4/6 351/4/6 343/4/6 312/4/6
f 330/11/1 329/11/1 352/11/1 353/11/1
f 354/11/2 355/11/2 356/11/2 357/11/2
f 352/11/3 354/11/3 357/11/3 353/11/3
f 357/11/5 356/11/5 330/11/5 353/11/5
f 329/11/6 355/11/6 354/11/6 352/11/6
f 356/4/5 358/4/5 331/4/5 330/4/5
f 332/4/3 359/4/3 355/4/3 329/4/3
f 333/4/3 360/4/3 359/4/3 332/4/3
f 334/4/3 361/4/3 360/4/3 333/4/3
f 335/4/6 362/4/6 361/4/6 334/4/6
f 358/5/5 363/5/5 336/5/5 331/5/5
f 337/4/6 364/4/6 362/4/6 335/4/6
f 363/4/5 365/4/5 338/4/5 336/4/5
f 339/5/3 366/5/3 364/5/3 337/5/3
f 340/5/3 367/5/3 366/5/3 339/5/3
f 341/5/6 368/5/6 367/5/6 340/5/6
f 365/5/5 369/5/5 342/5/5 338/5/5
f 344/5/6 370/5/6 368/5/6 341/5/6
f 369/4/5 371/4/5 345/4/5 342/4/5
f 372/5/4 373/5/4 347/5/4 346/5/4
f 373/4/4 374/4/4 348/4/4 347/4/4
f 374/4/4 375/4/4 349/4/4 348/4/4
f 375/4/4 376/4/4 351/4/4 349/4/4
f 351/5/1 377/5/1 344/5/1 343/5/1
f 370/5/2 378/5/2 376/5/2 379/5/2
f 376/5/4 378/5/4 377/5/4 351/5/4
f 377/5/6 378/5/6 370/5/6 344/5/6
f 380/4/1 381/4/1 346/4/1 345/4/1
f 372/4/2 382/4/2 383/4/2 371/4/2
f 383/4/4 382/4/4 381/4/4 380/4/4
f 371/4/5 383/4/5 380/4/5 345/4/5
f 381/4/6 382/4/6 372/4/6 346/4/6
f 384/11/1 385/11/1 386/11/1 387/11/1
f 386/11/3 388/11/3 389/11/3 387/11/3
f 390/11/4 391/11/4 385/11/4 384/11/4
f 389/11/5 390/11/5 384/11/5 387/11/5
f 385/11/6 391/11/6 388/11/6 386/11/6
f 355/4/3 392/4/3 393/4/3 356/4/3
f 393/4/5 394/4/5 358/4/5 356/4/5
f 359/4/3 395/4/3 392/4/3 355/4/3
f 360/4/3 396/4/3 395/4/3 359/4/3
f 361/4/3 397/4/3 396/4/3 360/4/3
f 362/4/1 398/4/1 399/4/1 361/4/1
f 400/4/2 401/4/2 402/4/2 397/4/2
f 399/4/3 400/4/3 397/4/3 361/4/3
f 398/4/6 401/4/6 400/4/6 399/4/6
f 394/4/5 403/4/5 363/4/5 358/4/5
f 364/4/1 366/4/1 398/4/1 362/4/1
f 366/5/1 367/5/1 404/5/1 398/5/1
f 404/5/3 405/5/3 401/5/3 398/5/3
f 367/5/6 406/5/6 405/5/6 404/5/6
f 403/4/5 407/4/5 365/4/5 363/4/5
f 368/5/6 408/5/6 406/5/6 367/5/6
f 407/4/5 409/4/5 369/4/5 365/4/5
f 410/5/4 411/5/4 370/5/4 379/5/4
f 370/5/6 411/5/6 408/5/6 368/5/6
f 412/4/4 413/4/4 372/4/4 371/4/4
f 409/4/5 412/4/5 371/4/5 369/4/5
f 413/4/4 414/4/4 373/4/4 372/4/4
f 414/4/4 415/4/4 374/4/4 373/4/4
f 415/4/4 416/4/4 375/4/4 374/4/4
f 410/4/2 417/4/2 416/4/2 418/4/2
f 416/4/4 417/4/4 376/4/4 375/4/4
f 376/4/6 417/4/6 410/4/6 379/4/6
f 389/4/1 388/4/1 419/4/1 420/4/1
f 419/4/3 421/4/3 422/4/3 420/4/3
f 422/4/5 423/4/5 389/4/5 420/4/5
f 388/4/6 424/4/6 421/4/6 419/4/6
f 423/4/5 425/4/5 390/4/5 389/4/5
f 391/5/1 426/5/1 427/5/1 388/5/1
f 427/5/3 428/5/3 424/5/3 388/5/3
f 429/5/4 430/5/4 426/5/4 391/5/4
f 426/5/6 430/5/6 428/5/6 427/5/6
f 431/4/1 432/4/1 391/4/1 390/4/1
f 433/4/4 434/4/4 432/4/4 431/4/4
f 425/4/5 433/4/5 431/4/5 390/4/5
f 432/4/6 434/4/6 429/4/6 391/4/6
f 435/4/2 436/4/2 437/4/2 438/4/2
f 392/4/3 435/4/3 438/4/3 393/4/3
f 438/4/5 437/4/5 394/4/5 393/4/5
f 439/4/2 440/4/2 436/4/2 435/4/2
f 395/4/3 439/4/3 435/4/3 392/4/3
f 441/4/2 442/4/2 440/4/2 439/4/2
f 396/4/3 441/4/3 439/4/3 395/4/3
f 443/4/2 444/4/2 442/4/2 441/4/2
f 397/4/3 443/4/3 441/4/3 396/4/3
f 402/4/6 444/4/6 443/4/6 397/4/6
f 437/4/5 445/4/5 403/4/5 394/4/5
f 446/4/2 447/4/2 448/4/2 444/4/2
f 401/4/3 446/4/3 444/4/3 402/4/3
f 449/11/2 450/11/2 447/11/2 446/11/2
f 405/11/3 449/11/3 446/11/3 401/11/3
f 406/11/6 450/11/6 449/11/6 405/11/6
f 445/4/5 451/4/5 407/4/5 403/4/5
f 450/5/2 452/5/2 453/5/2 447/5/2
f 408/5/6 452/5/6 450/5/6 406/5/6
f 451/4/5 454/4/5 409/4/5 407/4/5
f 453/4/2 455/4/2 456/4/2 457/4/2
f 456/4/4 455/4/4 410/4/4 418/4/4
f 452/5/2 458/5/2 455/5/2 453/5/2
f 455/5/4 458/5/4 411/5/4 410/5/4
f 411/5/6 458/5/6 452/5/6 408/5/6
f 459/4/2 460/4/2 461/4/2 454/4/2
f 461/4/4 460/4/4 413/4/4 412/4/4
f 454/4/5 461/4/5 412/4/5 409/4/5
f 462/4/2 463/4/2 460/4/2 459/4/2
f 460/4/4 463/4/4 414/4/4 413/4/4
f 464/4/2 465/4/2 463/4/2 462/4/2
f 463/4/4 465/4/4 415/4/4 414/4/4
f 456/5/2 466/5/2 465/5/2 464/5/2
f 465/5/4 466/5/4 416/5/4 415/5/4
f 416/5/6 466/5/6 456/5/6 418/5/6
f 422/4/1 421/4/1 467/4/1 468/4/1
f 469/4/2 470/4/2 471/4/2 472/4/2
f 467/4/3 469/4/3 472/4/3 468/4/3
f 472/4/5 471/4/5 422/4/5 468/4/5
f 421/4/6 470/4/6 469/4/6 467/4/6
f 471/4/5 473/4/5 423/4/5 422/4/5
f 424/5/1 428/5/1 474/5/1 421/5/1
f 475/5/2 476/5/2 477/5/2 470/5/2
f 474/5/3 475/5/3 470/5/3 421/5/3
f 428/5/6 476/5/6 475/5/6 474/5/6
f 473/4/5 478/4/5 425/4/5 423/4/5
f 430/5/6 479/5/6 476/5/6 428/5/6
f 478/4/5 480/4/5 433/4/5 425/4/5
f 434/5/1 481/5/1 430/5/1 429/5/1
f 479/5/2 482/5/2 483/5/2 484/5/2
f 483/5/4 482/5/4 481/5/4 434/5/4
f 481/5/6 482/5/6 479/5/6 430/5/6
f 485/4/1 486/4/1 434/4/1 433/4/1
f 483/4/2 487/4/2 488/4/2 480/4/2
f 488/4/4 487/4/4 486/4/4 485/4/4
f 480/4/5 488/4/5 485/4/5 433/4/5
f 486/4/6 487/4/6 483/4/6 434/4/6
f 489/4/2 490/4/2 491/4/2 492/4/2
f 436/4/3 489/4/3 492/4/3 437/4/3
f 492/4/5 491/4/5 445/4/5 437/4/5
f 493/4/2 494/4/2 490/4/2 489/4/2
f 440/4/3 493/4/3 489/4/3 436/4/3
f 495/4/2 496/4/2 494/4/2 493/4/2
f 442/4/3 495/4/3 493/4/3 440/4/3
f 497/4/2 498/4/2 496/4/2 495/4/2
f 444/4/3 497/4/3 495/4/3 442/4/3
f 448/4/6 498/4/6 497/4/6 444/4/6
f 491/4/5 499/4/5 451/4/5 445/4/5
f 494/4/2 500/4/2 501/4/2 490/4/2
f 496/4/2 502/4/2 500/4/2 494/4/2
f 498/4/2 503/4/2 502/4/2 496/4/2
f 504/4/2 505/4/2 503/4/2 498/4/2
f 447/4/3 504/4/3 498/4/3 448/4/3
f 503/4/4 505/4/4 453/4/4 457/4/4
f 453/4/6 505/4/6 504/4/6 447/4/6
f 501/4/2 506/4/2 507/4/2 499/4/2
f 507/4/4 506/4/4 459/4/4 454/4/4
f 499/4/5 507/4/5 454/4/5 451/4/5
f 500/4/2 508/4/2 506/4/2 501/4/2
f 506/4/4 508/4/4 462/4/4 459/4/4
f 502/4/2 509/4/2 508/4/2 500/4/2
f 508/4/4 509/4/4 464/4/4 462/4/4
f 503/4/2 510/4/2 509/4/2 502/4/2
f 509/4/4 510/4/4 456/4/4 464/4/4
f 456/4/6 510/4/6 503/4/6 457/4/6
f 511/4/2 512/4/2 513/4/2 514/4/2
f 470/4/3 511/4/3 514/4/3 471/4/3
f 514/4/5 513/4/5 473/4/5 471/4/5
f 477/4/6 512/4/6 511/4/6 470/4/6
f 513/4/5 515/4/5 478/4/5 473/4/5
f 516/5/2 517/5/2 518/5/2 512/5/2
f 476/5/3 516/5/3 512/5/3 477/5/3
f 518/5/4 517/5/4 479/5/4 484/5/4
f 479/5/6 517/5/6 516/5/6 476/5/6
f 518/4/2 519/4/2 520/4/2 515/4/2
f 520/4/4 519/4/4 483/4/4 480/4/4
f 515/4/5 520/4/5 480/4/5 478/4/5
f 483/4/6 519/4/6 518/4/6 484/4/6
f 521/4/2 522/4/2 523/4/2 524/4/2
f 490/4/3 521/4/3 524/4/3 491/4/3
f 523/4/4 522/4/4 501/4/4 499/4/4
f 524/4/5 523/4/5 499/4/5 491/4/5
f 501/4/6 522/4/6 521/4/6 490/4/6
f 525/4/2 526/4/2 527/4/2 528/4/2
f 512/4/3 525/4/3 528/4/3 513/4/3
f 527/4/4 526/4/4 518/4/4 515/4/4
f 528/4/5 527/4/5 515/4/5 513/4/5
f 518/4/6 526/4/6 525/4/6 512/4/6
