# Dungine rubble; 1 voxel = 1/16 unit; Y-up floor-center origin
mtllib rubble.mtl
o rubble
s off
v -0.437500 0.000000 -0.375000
v -0.437500 0.062500 -0.375000
v -0.437500 0.062500 -0.437500
v -0.437500 0.000000 -0.437500
v -0.375000 0.062500 -0.437500
v -0.375000 0.000000 -0.437500
v -0.375000 0.000000 -0.375000
v -0.437500 0.125000 -0.375000
v -0.437500 0.125000 -0.437500
v -0.375000 0.125000 -0.437500
v -0.437500 0.187500 -0.375000
v -0.437500 0.187500 -0.437500
v -0.375000 0.187500 -0.437500
v -0.437500 0.250000 -0.375000
v -0.437500 0.250000 -0.437500
v -0.375000 0.250000 -0.437500
v -0.375000 0.250000 -0.375000
v -0.437500 0.000000 -0.312500
v -0.437500 0.062500 -0.312500
v -0.375000 0.000000 -0.312500
v -0.437500 0.125000 -0.312500
v -0.437500 0.187500 -0.312500
v -0.437500 0.250000 -0.312500
v -0.375000 0.250000 -0.312500
v -0.437500 0.000000 -0.250000
v -0.437500 0.062500 -0.250000
v -0.375000 0.000000 -0.250000
v -0.437500 0.125000 -0.250000
v -0.437500 0.187500 -0.250000
v -0.437500 0.250000 -0.250000
v -0.375000 0.250000 -0.250000
v -0.437500 0.000000 -0.187500
v -0.437500 0.062500 -0.187500
v -0.375000 0.000000 -0.187500
v -0.375000 0.062500 -0.187500
v -0.437500 0.125000 -0.187500
v -0.375000 0.125000 -0.187500
v -0.437500 0.187500 -0.187500
v -0.375000 0.187500 -0.187500
v -0.437500 0.250000 -0.187500
v -0.375000 0.250000 -0.187500
v -0.312500 0.062500 -0.437500
v -0.312500 0.000000 -0.437500
v -0.312500 0.000000 -0.375000
v -0.312500 0.125000 -0.437500
v -0.312500 0.187500 -0.437500
v -0.312500 0.250000 -0.437500
v -0.312500 0.250000 -0.375000
v -0.312500 0.000000 -0.312500
v -0.312500 0.250000 -0.312500
v -0.312500 0.000000 -0.250000
v -0.312500 0.250000 -0.250000
v -0.312500 0.000000 -0.187500
v -0.312500 0.062500 -0.187500
v -0.312500 0.125000 -0.187500
v -0.312500 0.187500 -0.187500
v -0.312500 0.250000 -0.187500
v -0.250000 0.062500 -0.437500
v -0.250000 0.000000 -0.437500
v -0.250000 0.000000 -0.375000
v -0.250000 0.125000 -0.437500
v -0.250000 0.187500 -0.437500
v -0.250000 0.250000 -0.437500
v -0.250000 0.250000 -0.375000
v -0.250000 0.000000 -0.312500
v -0.250000 0.250000 -0.312500
v -0.250000 0.000000 -0.250000
v -0.250000 0.250000 -0.250000
v -0.250000 0.000000 -0.187500
v -0.250000 0.062500 -0.187500
v -0.250000 0.125000 -0.187500
v -0.250000 0.187500 -0.187500
v -0.250000 0.250000 -0.187500
v -0.312500 0.000000 0.125000
v -0.312500 0.062500 0.125000
v -0.312500 0.062500 0.062500
v -0.312500 0.000000 0.062500
v -0.250000 0.062500 0.062500
v -0.250000 0.000000 0.062500
v -0.250000 0.000000 0.125000
v -0.312500 0.125000 0.125000
v -0.312500 0.125000 0.062500
v -0.250000 0.125000 0.062500
v -0.312500 0.187500 0.125000
v -0.312500 0.187500 0.062500
v -0.250000 0.187500 0.062500
v -0.312500 0.250000 0.125000
v -0.312500 0.250000 0.062500
v -0.250000 0.250000 0.062500
v -0.312500 0.312500 0.125000
v -0.312500 0.312500 0.062500
v -0.250000 0.312500 0.062500
v -0.250000 0.312500 0.125000
v -0.312500 0.000000 0.187500
v -0.312500 0.062500 0.187500
v -0.250000 0.000000 0.187500
v -0.312500 0.125000 0.187500
v -0.312500 0.187500 0.187500
v -0.312500 0.250000 0.187500
v -0.312500 0.312500 0.187500
v -0.250000 0.312500 0.187500
v -0.312500 0.000000 0.250000
v -0.312500 0.062500 0.250000
v -0.250000 0.000000 0.250000
v -0.312500 0.125000 0.250000
v -0.312500 0.187500 0.250000
v -0.312500 0.250000 0.250000
v -0.312500 0.312500 0.250000
v -0.250000 0.312500 0.250000
v -0.312500 0.000000 0.312500
v -0.312500 0.062500 0.312500
v -0.250000 0.000000 0.312500
v -0.312500 0.125000 0.312500
v -0.312500 0.187500 0.312500
v -0.312500 0.250000 0.312500
v -0.312500 0.312500 0.312500
v -0.250000 0.312500 0.312500
v -0.312500 0.000000 0.375000
v -0.312500 0.062500 0.375000
v -0.250000 0.000000 0.375000
v -0.250000 0.062500 0.375000
v -0.312500 0.125000 0.375000
v -0.250000 0.125000 0.375000
v -0.312500 0.187500 0.375000
v -0.250000 0.187500 0.375000
v -0.312500 0.250000 0.375000
v -0.250000 0.250000 0.375000
v -0.312500 0.312500 0.375000
v -0.250000 0.312500 0.375000
v -0.187500 0.062500 -0.437500
v -0.187500 0.062500 -0.375000
v -0.187500 0.000000 -0.375000
v -0.187500 0.000000 -0.437500
v -0.187500 0.125000 -0.437500
v -0.187500 0.125000 -0.375000
v -0.187500 0.187500 -0.437500
v -0.187500 0.187500 -0.375000
v -0.187500 0.250000 -0.437500
v -0.187500 0.250000 -0.375000
v -0.187500 0.062500 -0.312500
v -0.187500 0.000000 -0.312500
v -0.187500 0.125000 -0.312500
v -0.187500 0.187500 -0.312500
v -0.187500 0.250000 -0.312500
v -0.187500 0.062500 -0.250000
v -0.187500 0.000000 -0.250000
v -0.187500 0.125000 -0.250000
v -0.187500 0.187500 -0.250000
v -0.187500 0.250000 -0.250000
v -0.187500 0.062500 -0.187500
v -0.187500 0.000000 -0.187500
v -0.187500 0.125000 -0.187500
v -0.187500 0.187500 -0.187500
v -0.187500 0.250000 -0.187500
v -0.187500 0.062500 0.062500
v -0.187500 0.000000 0.062500
v -0.187500 0.000000 0.125000
v -0.187500 0.125000 0.062500
v -0.187500 0.187500 0.062500
v -0.187500 0.250000 0.062500
v -0.187500 0.312500 0.062500
v -0.187500 0.312500 0.125000
v -0.187500 0.000000 0.187500
v -0.187500 0.312500 0.187500
v -0.187500 0.000000 0.250000
v -0.187500 0.312500 0.250000
v -0.187500 0.000000 0.312500
v -0.187500 0.312500 0.312500
v -0.187500 0.000000 0.375000
v -0.187500 0.062500 0.375000
v -0.187500 0.125000 0.375000
v -0.187500 0.187500 0.375000
v -0.187500 0.250000 0.375000
v -0.187500 0.312500 0.375000
v -0.125000 0.062500 0.062500
v -0.125000 0.000000 0.062500
v -0.125000 0.000000 0.125000
v -0.125000 0.125000 0.062500
v -0.125000 0.187500 0.062500
v -0.125000 0.250000 0.062500
v -0.125000 0.312500 0.062500
v -0.125000 0.312500 0.125000
v -0.125000 0.000000 0.187500
v -0.125000 0.312500 0.187500
v -0.125000 0.000000 0.250000
v -0.125000 0.312500 0.250000
v -0.125000 0.000000 0.312500
v -0.125000 0.312500 0.312500
v -0.125000 0.000000 0.375000
v -0.125000 0.062500 0.375000
v -0.125000 0.125000 0.375000
v -0.125000 0.187500 0.375000
v -0.125000 0.250000 0.375000
v -0.125000 0.312500 0.375000
v -0.062500 0.062500 0.062500
v -0.062500 0.000000 0.062500
v -0.062500 0.000000 0.125000
v -0.062500 0.125000 0.062500
v -0.062500 0.187500 0.062500
v -0.062500 0.250000 0.062500
v -0.062500 0.312500 0.062500
v -0.062500 0.312500 0.125000
v -0.062500 0.000000 0.187500
v -0.062500 0.312500 0.187500
v -0.062500 0.000000 0.250000
v -0.062500 0.312500 0.250000
v -0.062500 0.000000 0.312500
v -0.062500 0.312500 0.312500
v -0.062500 0.000000 0.375000
v -0.062500 0.062500 0.375000
v -0.062500 0.125000 0.375000
v -0.062500 0.187500 0.375000
v -0.062500 0.250000 0.375000
v -0.062500 0.312500 0.375000
v -0.062500 0.000000 -0.312500
v -0.062500 0.062500 -0.312500
v -0.062500 0.062500 -0.375000
v -0.062500 0.000000 -0.375000
v 0.000000 0.062500 -0.375000
v 0.000000 0.000000 -0.375000
v 0.000000 0.000000 -0.312500
v -0.062500 0.125000 -0.312500
v -0.062500 0.125000 -0.375000
v 0.000000 0.125000 -0.375000
v -0.062500 0.187500 -0.312500
v -0.062500 0.187500 -0.375000
v 0.000000 0.187500 -0.375000
v -0.062500 0.250000 -0.312500
v -0.062500 0.250000 -0.375000
v 0.000000 0.250000 -0.375000
v -0.062500 0.312500 -0.312500
v -0.062500 0.312500 -0.375000
v 0.000000 0.312500 -0.375000
v -0.062500 0.375000 -0.312500
v -0.062500 0.375000 -0.375000
v 0.000000 0.375000 -0.375000
v 0.000000 0.375000 -0.312500
v -0.062500 0.000000 -0.250000
v -0.062500 0.062500 -0.250000
v 0.000000 0.000000 -0.250000
v -0.062500 0.125000 -0.250000
v -0.062500 0.187500 -0.250000
v -0.062500 0.250000 -0.250000
v -0.062500 0.312500 -0.250000
v -0.062500 0.375000 -0.250000
v 0.000000 0.375000 -0.250000
v -0.062500 0.000000 -0.187500
v -0.062500 0.062500 -0.187500
v 0.000000 0.000000 -0.187500
v -0.062500 0.125000 -0.187500
v -0.062500 0.187500 -0.187500
v -0.062500 0.250000 -0.187500
v -0.062500 0.312500 -0.187500
v -0.062500 0.375000 -0.187500
v 0.000000 0.375000 -0.187500
v -0.062500 0.000000 -0.125000
v -0.062500 0.062500 -0.125000
v 0.000000 0.000000 -0.125000
v -0.062500 0.125000 -0.125000
v -0.062500 0.187500 -0.125000
v -0.062500 0.250000 -0.125000
v -0.062500 0.312500 -0.125000
v -0.062500 0.375000 -0.125000
v 0.000000 0.375000 -0.125000
v -0.062500 0.000000 -0.062500
v -0.062500 0.062500 -0.062500
v 0.000000 0.000000 -0.062500
v -0.062500 0.125000 -0.062500
v -0.062500 0.187500 -0.062500
v -0.062500 0.250000 -0.062500
v -0.062500 0.312500 -0.062500
v -0.062500 0.375000 -0.062500
v 0.000000 0.375000 -0.062500
v -0.062500 0.000000 0.000000
v -0.062500 0.062500 0.000000
v 0.000000 0.000000 0.000000
v 0.000000 0.062500 0.000000
v -0.062500 0.125000 0.000000
v 0.000000 0.125000 0.000000
v -0.062500 0.187500 0.000000
v 0.000000 0.187500 0.000000
v -0.062500 0.250000 0.000000
v 0.000000 0.250000 0.000000
v -0.062500 0.312500 0.000000
v 0.000000 0.312500 0.000000
v -0.062500 0.375000 0.000000
v 0.000000 0.375000 0.000000
v 0.000000 0.062500 0.062500
v 0.000000 0.062500 0.125000
v 0.000000 0.000000 0.125000
v 0.000000 0.000000 0.062500
v 0.000000 0.125000 0.062500
v 0.000000 0.125000 0.125000
v 0.000000 0.187500 0.062500
v 0.000000 0.187500 0.125000
v 0.000000 0.250000 0.062500
v 0.000000 0.250000 0.125000
v 0.000000 0.312500 0.062500
v 0.000000 0.312500 0.125000
v 0.000000 0.062500 0.187500
v 0.000000 0.000000 0.187500
v 0.000000 0.125000 0.187500
v 0.000000 0.187500 0.187500
v 0.000000 0.250000 0.187500
v 0.000000 0.312500 0.187500
v 0.000000 0.062500 0.250000
v 0.000000 0.000000 0.250000
v 0.000000 0.125000 0.250000
v 0.000000 0.187500 0.250000
v 0.000000 0.250000 0.250000
v 0.000000 0.312500 0.250000
v 0.000000 0.062500 0.312500
v 0.000000 0.000000 0.312500
v 0.000000 0.125000 0.312500
v 0.000000 0.187500 0.312500
v 0.000000 0.250000 0.312500
v 0.000000 0.312500 0.312500
v 0.000000 0.062500 0.375000
v 0.000000 0.000000 0.375000
v 0.000000 0.125000 0.375000
v 0.000000 0.187500 0.375000
v 0.000000 0.250000 0.375000
v 0.000000 0.312500 0.375000
v 0.062500 0.062500 -0.375000
v 0.062500 0.000000 -0.375000
v 0.062500 0.000000 -0.312500
v 0.062500 0.125000 -0.375000
v 0.062500 0.187500 -0.375000
v 0.062500 0.250000 -0.375000
v 0.062500 0.312500 -0.375000
v 0.062500 0.375000 -0.375000
v 0.062500 0.375000 -0.312500
v 0.062500 0.000000 -0.250000
v 0.062500 0.375000 -0.250000
v 0.062500 0.000000 -0.187500
v 0.062500 0.375000 -0.187500
v 0.062500 0.000000 -0.125000
v 0.062500 0.375000 -0.125000
v 0.062500 0.000000 -0.062500
v 0.062500 0.375000 -0.062500
v 0.062500 0.000000 0.000000
v 0.062500 0.062500 0.000000
v 0.062500 0.125000 0.000000
v 0.062500 0.187500 0.000000
v 0.062500 0.250000 0.000000
v 0.062500 0.312500 0.000000
v 0.062500 0.375000 0.000000
v 0.125000 0.062500 -0.375000
v 0.125000 0.000000 -0.375000
v 0.125000 0.000000 -0.312500
v 0.125000 0.125000 -0.375000
v 0.125000 0.187500 -0.375000
v 0.125000 0.250000 -0.375000
v 0.125000 0.312500 -0.375000
v 0.125000 0.375000 -0.375000
v 0.125000 0.375000 -0.312500
v 0.125000 0.000000 -0.250000
v 0.125000 0.375000 -0.250000
v 0.125000 0.000000 -0.187500
v 0.125000 0.375000 -0.187500
v 0.125000 0.000000 -0.125000
v 0.125000 0.375000 -0.125000
v 0.125000 0.000000 -0.062500
v 0.125000 0.375000 -0.062500
v 0.125000 0.000000 0.000000
v 0.125000 0.062500 0.000000
v 0.125000 0.125000 0.000000
v 0.125000 0.187500 0.000000
v 0.125000 0.250000 0.000000
v 0.125000 0.312500 0.000000
v 0.125000 0.375000 0.000000
v 0.187500 0.062500 -0.375000
v 0.187500 0.000000 -0.375000
v 0.187500 0.000000 -0.312500
v 0.187500 0.125000 -0.375000
v 0.187500 0.187500 -0.375000
v 0.187500 0.250000 -0.375000
v 0.187500 0.312500 -0.375000
v 0.187500 0.375000 -0.375000
v 0.187500 0.375000 -0.312500
v 0.187500 0.000000 -0.250000
v 0.187500 0.375000 -0.250000
v 0.187500 0.000000 -0.187500
v 0.187500 0.375000 -0.187500
v 0.187500 0.000000 -0.125000
v 0.187500 0.375000 -0.125000
v 0.187500 0.000000 -0.062500
v 0.187500 0.375000 -0.062500
v 0.187500 0.000000 0.000000
v 0.187500 0.062500 0.000000
v 0.187500 0.125000 0.000000
v 0.187500 0.187500 0.000000
v 0.187500 0.250000 0.000000
v 0.187500 0.312500 0.000000
v 0.187500 0.375000 0.000000
v 0.250000 0.062500 -0.375000
v 0.250000 0.000000 -0.375000
v 0.250000 0.000000 -0.312500
v 0.250000 0.125000 -0.375000
v 0.250000 0.187500 -0.375000
v 0.250000 0.250000 -0.375000
v 0.250000 0.312500 -0.375000
v 0.250000 0.375000 -0.375000
v 0.250000 0.375000 -0.312500
v 0.250000 0.000000 -0.250000
v 0.250000 0.375000 -0.250000
v 0.250000 0.000000 -0.187500
v 0.250000 0.375000 -0.187500
v 0.250000 0.000000 -0.125000
v 0.250000 0.375000 -0.125000
v 0.250000 0.000000 -0.062500
v 0.250000 0.375000 -0.062500
v 0.250000 0.000000 0.000000
v 0.250000 0.062500 0.000000
v 0.250000 0.125000 0.000000
v 0.250000 0.187500 0.000000
v 0.250000 0.250000 0.000000
v 0.250000 0.312500 0.000000
v 0.250000 0.375000 0.000000
v 0.187500 0.000000 0.250000
v 0.187500 0.062500 0.250000
v 0.187500 0.062500 0.187500
v 0.187500 0.000000 0.187500
v 0.250000 0.062500 0.187500
v 0.250000 0.000000 0.187500
v 0.250000 0.000000 0.250000
v 0.187500 0.125000 0.250000
v 0.187500 0.125000 0.187500
v 0.250000 0.125000 0.187500
v 0.187500 0.187500 0.250000
v 0.187500 0.187500 0.187500
v 0.250000 0.187500 0.187500
v 0.250000 0.187500 0.250000
v 0.187500 0.000000 0.312500
v 0.187500 0.062500 0.312500
v 0.250000 0.000000 0.312500
v 0.187500 0.125000 0.312500
v 0.187500 0.187500 0.312500
v 0.250000 0.187500 0.312500
v 0.187500 0.000000 0.375000
v 0.187500 0.062500 0.375000
v 0.250000 0.000000 0.375000
v 0.250000 0.062500 0.375000
v 0.187500 0.125000 0.375000
v 0.250000 0.125000 0.375000
v 0.187500 0.187500 0.375000
v 0.250000 0.187500 0.375000
v 0.312500 0.062500 -0.375000
v 0.312500 0.062500 -0.312500
v 0.312500 0.000000 -0.312500
v 0.312500 0.000000 -0.375000
v 0.312500 0.125000 -0.375000
v 0.312500 0.125000 -0.312500
v 0.312500 0.187500 -0.375000
v 0.312500 0.187500 -0.312500
v 0.312500 0.250000 -0.375000
v 0.312500 0.250000 -0.312500
v 0.312500 0.312500 -0.375000
v 0.312500 0.312500 -0.312500
v 0.312500 0.375000 -0.375000
v 0.312500 0.375000 -0.312500
v 0.312500 0.062500 -0.250000
v 0.312500 0.000000 -0.250000
v 0.312500 0.125000 -0.250000
v 0.312500 0.187500 -0.250000
v 0.312500 0.250000 -0.250000
v 0.312500 0.312500 -0.250000
v 0.312500 0.375000 -0.250000
v 0.312500 0.062500 -0.187500
v 0.312500 0.000000 -0.187500
v 0.312500 0.125000 -0.187500
v 0.312500 0.187500 -0.187500
v 0.312500 0.250000 -0.187500
v 0.312500 0.312500 -0.187500
v 0.312500 0.375000 -0.187500
v 0.312500 0.062500 -0.125000
v 0.312500 0.000000 -0.125000
v 0.312500 0.125000 -0.125000
v 0.312500 0.187500 -0.125000
v 0.312500 0.250000 -0.125000
v 0.312500 0.312500 -0.125000
v 0.312500 0.375000 -0.125000
v 0.312500 0.062500 -0.062500
v 0.312500 0.000000 -0.062500
v 0.312500 0.125000 -0.062500
v 0.312500 0.187500 -0.062500
v 0.312500 0.250000 -0.062500
v 0.312500 0.312500 -0.062500
v 0.312500 0.375000 -0.062500
v 0.312500 0.062500 0.000000
v 0.312500 0.000000 0.000000
v 0.312500 0.125000 0.000000
v 0.312500 0.187500 0.000000
v 0.312500 0.250000 0.000000
v 0.312500 0.312500 0.000000
v 0.312500 0.375000 0.000000
v 0.312500 0.062500 0.187500
v 0.312500 0.000000 0.187500
v 0.312500 0.000000 0.250000
v 0.312500 0.125000 0.187500
v 0.312500 0.187500 0.187500
v 0.312500 0.187500 0.250000
v 0.312500 0.000000 0.312500
v 0.312500 0.187500 0.312500
v 0.312500 0.000000 0.375000
v 0.312500 0.062500 0.375000
v 0.312500 0.125000 0.375000
v 0.312500 0.187500 0.375000
v 0.375000 0.062500 0.187500
v 0.375000 0.062500 0.250000
v 0.375000 0.000000 0.250000
v 0.375000 0.000000 0.187500
v 0.375000 0.125000 0.187500
v 0.375000 0.125000 0.250000
v 0.375000 0.187500 0.187500
v 0.375000 0.187500 0.250000
v 0.375000 0.062500 0.312500
v 0.375000 0.000000 0.312500
v 0.375000 0.125000 0.312500
v 0.375000 0.187500 0.312500
v 0.375000 0.062500 0.375000
v 0.375000 0.000000 0.375000
v 0.375000 0.125000 0.375000
v 0.375000 0.187500 0.375000
vt 0.03125000 0.96875000
vt 0.09375000 0.96875000
vt 0.15625000 0.96875000
vt 0.21875000 0.96875000
vt 0.28125000 0.96875000
vt 0.34375000 0.96875000
vt 0.40625000 0.96875000
vt 0.46875000 0.96875000
vt 0.53125000 0.96875000
vt 0.59375000 0.96875000
vt 0.65625000 0.96875000
vt 0.71875000 0.96875000
vt 0.78125000 0.96875000
vt 0.84375000 0.96875000
vt 0.90625000 0.96875000
vt 0.96875000 0.96875000
vt 0.03125000 0.90625000
vt 0.09375000 0.90625000
vt 0.15625000 0.90625000
vt 0.21875000 0.90625000
vt 0.28125000 0.90625000
vt 0.34375000 0.90625000
vt 0.40625000 0.90625000
vt 0.46875000 0.90625000
vt 0.53125000 0.90625000
vt 0.59375000 0.90625000
vt 0.65625000 0.90625000
vt 0.71875000 0.90625000
vt 0.78125000 0.90625000
vt 0.84375000 0.90625000
vt 0.90625000 0.90625000
vt 0.96875000 0.90625000
vt 0.03125000 0.84375000
vt 0.09375000 0.84375000
vt 0.15625000 0.84375000
vt 0.21875000 0.84375000
vt 0.28125000 0.84375000
vt 0.34375000 0.84375000
vt 0.40625000 0.84375000
vt 0.46875000 0.84375000
vt 0.53125000 0.84375000
vt 0.59375000 0.84375000
vt 0.65625000 0.84375000
vt 0.71875000 0.84375000
vt 0.78125000 0.84375000
vt 0.84375000 0.84375000
vt 0.90625000 0.84375000
vt 0.96875000 0.84375000
vt 0.03125000 0.78125000
vt 0.09375000 0.78125000
vt 0.15625000 0.78125000
vt 0.21875000 0.78125000
vt 0.28125000 0.78125000
vt 0.34375000 0.78125000
vt 0.40625000 0.78125000
vt 0.46875000 0.78125000
vt 0.53125000 0.78125000
vt 0.59375000 0.78125000
vt 0.65625000 0.78125000
vt 0.71875000 0.78125000
vt 0.78125000 0.78125000
vt 0.84375000 0.78125000
vt 0.90625000 0.78125000
vt 0.96875000 0.78125000
vt 0.03125000 0.71875000
vt 0.09375000 0.71875000
vt 0.15625000 0.71875000
vt 0.21875000 0.71875000
vt 0.28125000 0.71875000
vt 0.34375000 0.71875000
vt 0.40625000 0.71875000
vt 0.46875000 0.71875000
vt 0.53125000 0.71875000
vt 0.59375000 0.71875000
vt 0.65625000 0.71875000
vt 0.71875000 0.71875000
vt 0.78125000 0.71875000
vt 0.84375000 0.71875000
vt 0.90625000 0.71875000
vt 0.96875000 0.71875000
vt 0.03125000 0.65625000
vt 0.09375000 0.65625000
vt 0.15625000 0.65625000
vt 0.21875000 0.65625000
vt 0.28125000 0.65625000
vt 0.34375000 0.65625000
vt 0.40625000 0.65625000
vt 0.46875000 0.65625000
vt 0.53125000 0.65625000
vt 0.59375000 0.65625000
vt 0.65625000 0.65625000
vt 0.71875000 0.65625000
vt 0.78125000 0.65625000
vt 0.84375000 0.65625000
vt 0.90625000 0.65625000
vt 0.96875000 0.65625000
vt 0.03125000 0.59375000
vt 0.09375000 0.59375000
vt 0.15625000 0.59375000
vt 0.21875000 0.59375000
vt 0.28125000 0.59375000
vt 0.34375000 0.59375000
vt 0.40625000 0.59375000
vt 0.46875000 0.59375000
vt 0.53125000 0.59375000
vt 0.59375000 0.59375000
vt 0.65625000 0.59375000
vt 0.71875000 0.59375000
vt 0.78125000 0.59375000
vt 0.84375000 0.59375000
vt 0.90625000 0.59375000
vt 0.96875000 0.59375000
vt 0.03125000 0.53125000
vt 0.09375000 0.53125000
vt 0.15625000 0.53125000
vt 0.21875000 0.53125000
vt 0.28125000 0.53125000
vt 0.34375000 0.53125000
vt 0.40625000 0.53125000
vt 0.46875000 0.53125000
vt 0.53125000 0.53125000
vt 0.59375000 0.53125000
vt 0.65625000 0.53125000
vt 0.71875000 0.53125000
vt 0.78125000 0.53125000
vt 0.84375000 0.53125000
vt 0.90625000 0.53125000
vt 0.96875000 0.53125000
vt 0.03125000 0.46875000
vt 0.09375000 0.46875000
vt 0.15625000 0.46875000
vt 0.21875000 0.46875000
vt 0.28125000 0.46875000
vt 0.34375000 0.46875000
vt 0.40625000 0.46875000
vt 0.46875000 0.46875000
vt 0.53125000 0.46875000
vt 0.59375000 0.46875000
vt 0.65625000 0.46875000
vt 0.71875000 0.46875000
vt 0.78125000 0.46875000
vt 0.84375000 0.46875000
vt 0.90625000 0.46875000
vt 0.96875000 0.46875000
vt 0.03125000 0.40625000
vt 0.09375000 0.40625000
vt 0.15625000 0.40625000
vt 0.21875000 0.40625000
vt 0.28125000 0.40625000
vt 0.34375000 0.40625000
vt 0.40625000 0.40625000
vt 0.46875000 0.40625000
vt 0.53125000 0.40625000
vt 0.59375000 0.40625000
vt 0.65625000 0.40625000
vt 0.71875000 0.40625000
vt 0.78125000 0.40625000
vt 0.84375000 0.40625000
vt 0.90625000 0.40625000
vt 0.96875000 0.40625000
vt 0.03125000 0.34375000
vt 0.09375000 0.34375000
vt 0.15625000 0.34375000
vt 0.21875000 0.34375000
vt 0.28125000 0.34375000
vt 0.34375000 0.34375000
vt 0.40625000 0.34375000
vt 0.46875000 0.34375000
vt 0.53125000 0.34375000
vt 0.59375000 0.34375000
vt 0.65625000 0.34375000
vt 0.71875000 0.34375000
vt 0.78125000 0.34375000
vt 0.84375000 0.34375000
vt 0.90625000 0.34375000
vt 0.96875000 0.34375000
vt 0.03125000 0.28125000
vt 0.09375000 0.28125000
vt 0.15625000 0.28125000
vt 0.21875000 0.28125000
vt 0.28125000 0.28125000
vt 0.34375000 0.28125000
vt 0.40625000 0.28125000
vt 0.46875000 0.28125000
vt 0.53125000 0.28125000
vt 0.59375000 0.28125000
vt 0.65625000 0.28125000
vt 0.71875000 0.28125000
vt 0.78125000 0.28125000
vt 0.84375000 0.28125000
vt 0.90625000 0.28125000
vt 0.96875000 0.28125000
vt 0.03125000 0.21875000
vt 0.09375000 0.21875000
vt 0.15625000 0.21875000
vt 0.21875000 0.21875000
vt 0.28125000 0.21875000
vt 0.34375000 0.21875000
vt 0.40625000 0.21875000
vt 0.46875000 0.21875000
vt 0.53125000 0.21875000
vt 0.59375000 0.21875000
vt 0.65625000 0.21875000
vt 0.71875000 0.21875000
vt 0.78125000 0.21875000
vt 0.84375000 0.21875000
vt 0.90625000 0.21875000
vt 0.96875000 0.21875000
vt 0.03125000 0.15625000
vt 0.09375000 0.15625000
vt 0.15625000 0.15625000
vt 0.21875000 0.15625000
vt 0.28125000 0.15625000
vt 0.34375000 0.15625000
vt 0.40625000 0.15625000
vt 0.46875000 0.15625000
vt 0.53125000 0.15625000
vt 0.59375000 0.15625000
vt 0.65625000 0.15625000
vt 0.71875000 0.15625000
vt 0.78125000 0.15625000
vt 0.84375000 0.15625000
vt 0.90625000 0.15625000
vt 0.96875000 0.15625000
vt 0.03125000 0.09375000
vt 0.09375000 0.09375000
vt 0.15625000 0.09375000
vt 0.21875000 0.09375000
vt 0.28125000 0.09375000
vt 0.34375000 0.09375000
vt 0.40625000 0.09375000
vt 0.46875000 0.09375000
vt 0.53125000 0.09375000
vt 0.59375000 0.09375000
vt 0.65625000 0.09375000
vt 0.71875000 0.09375000
vt 0.78125000 0.09375000
vt 0.84375000 0.09375000
vt 0.90625000 0.09375000
vt 0.96875000 0.09375000
vt 0.03125000 0.03125000
vt 0.09375000 0.03125000
vt 0.15625000 0.03125000
vt 0.21875000 0.03125000
vt 0.28125000 0.03125000
vt 0.34375000 0.03125000
vt 0.40625000 0.03125000
vt 0.46875000 0.03125000
vt 0.53125000 0.03125000
vt 0.59375000 0.03125000
vt 0.65625000 0.03125000
vt 0.71875000 0.03125000
vt 0.78125000 0.03125000
vt 0.84375000 0.03125000
vt 0.90625000 0.03125000
vt 0.96875000 0.03125000
vn -1 0 0
vn 1 0 0
vn 0 0 -1
vn 0 0 1
vn 0 -1 0
vn 0 1 0
g palette
usemtl palette
f 1/4/1 2/4/1 3/4/1 4/4/1
f 3/4/3 5/4/3 6/4/3 4/4/3
f 6/4/5 7/4/5 1/4/5 4/4/5
f 2/4/1 8/4/1 9/4/1 3/4/1
f 9/4/3 10/4/3 5/4/3 3/4/3
f 8/4/1 11/4/1 12/4/1 9/4/1
f 12/4/3 13/4/3 10/4/3 9/4/3
f 11/5/1 14/5/1 15/5/1 12/5/1
f 15/5/3 16/5/3 13/5/3 12/5/3
f 14/5/6 17/5/6 16/5/6 15/5/6
f 18/4/1 19/4/1 2/4/1 1/4/1
f 7/4/5 20/4/5 18/4/5 1/4/5
f 19/4/1 21/4/1 8/4/1 2/4/1
f 21/11/1 22/11/1 11/11/1 8/11/1
f 22/5/1 23/5/1 14/5/1 11/5/1
f 23/5/6 24/5/6 17/5/6 14/5/6
f 25/4/1 26/4/1 19/4/1 18/4/1
f 20/4/5 27/4/5 25/4/5 18/4/5
f 26/4/1 28/4/1 21/4/1 19/4/1
f 28/4/1 29/4/1 22/4/1 21/4/1
f 29/5/1 30/5/1 23/5/1 22/5/1
f 30/5/6 31/5/6 24/5/6 23/5/6
f 32/4/1 33/4/1 26/4/1 25/4/1
f 34/4/4 35/4/4 33/4/4 32/4/4
f 27/4/5 34/4/5 32/4/5 25/4/5
f 33/4/1 36/4/1 28/4/1 26/4/1
f 35/4/4 37/4/4 36/4/4 33/4/4
f 36/4/1 38/4/1 29/4/1 28/4/1
f 37/4/4 39/4/4 38/4/4 36/4/4
f 38/5/1 40/5/1 30/5/1 29/5/1
f 39/5/4 41/5/4 40/5/4 38/5/4
f 40/5/6 41/5/6 31/5/6 30/5/6
f 5/4/3 42/4/3 43/4/3 6/4/3
f 43/4/5 44/4/5 7/4/5 6/4/5
f 10/4/3 45/4/3 42/4/3 5/4/3
f 13/4/3 46/4/3 45/4/3 10/4/3
f 16/5/3 47/5/3 46/5/3 13/5/3
f 17/5/6 48/5/6 47/5/6 16/5/6
f 44/4/5 49/4/5 20/4/5 7/4/5
f 24/5/6 50/5/6 48/5/6 17/5/6
f 49/4/5 51/4/5 27/4/5 20/4/5
f 31/5/6 52/5/6 50/5/6 24/5/6
f 53/4/4 54/4/4 35/4/4 34/4/4
f 51/4/5 53/4/5 34/4/5 27/4/5
f 54/4/4 55/4/4 37/4/4 35/4/4
f 55/4/4 56/4/4 39/4/4 37/4/4
f 56/5/4 57/5/4 41/5/4 39/5/4
f 41/5/6 57/5/6 52/5/6 31/5/6
f 42/4/3 58/4/3 59/4/3 43/4/3
f 59/4/5 60/4/5 44/4/5 43/4/5
f 45/4/3 61/4/3 58/4/3 42/4/3
f 46/4/3 62/4/3 61/4/3 45/4/3
f 47/5/3 63/5/3 62/5/3 46/5/3
f 48/5/6 64/5/6 63/5/6 47/5/6
f 60/4/5 65/4/5 49/4/5 44/4/5
f 50/5/6 66/5/6 64/5/6 48/5/6
f 65/4/5 67/4/5 51/4/5 49/4/5
f 52/5/6 68/5/6 66/5/6 50/5/6
f 69/4/4 70/4/4 54/4/4 53/4/4
f 67/4/5 69/4/5 53/4/5 51/4/5
f 70/4/4 71/4/4 55/4/4 54/4/4
f 71/5/4 72/5/4 56/5/4 55/5/4
f 72/5/4 73/5/4 57/5/4 56/5/4
f 57/5/6 73/5/6 68/5/6 52/5/6
f 74/4/1 75/4/1 76/4/1 77/4/1
f 76/4/3 78/4/3 79/4/3 77/4/3
f 79/4/5 80/4/5 74/4/5 77/4/5
f 75/4/1 81/4/1 82/4/1 76/4/1
f 82/4/3 83/4/3 78/4/3 76/4/3
f 81/4/1 84/4/1 85/4/1 82/4/1
f 85/4/3 86/4/3 83/4/3 82/4/3
f 84/4/1 87/4/1 88/4/1 85/4/1
f 88/4/3 89/4/3 86/4/3 85/4/3
f 87/5/1 90/5/1 91/5/1 88/5/1
f 91/5/3 92/5/3 89/5/3 88/5/3
f 90/5/6 93/5/6 92/5/6 91/5/6
f 94/4/1 95/4/1 75/4/1 74/4/1
f 80/4/5 96/4/5 94/4/5 74/4/5
f 95/4/1 97/4/1 81/4/1 75/4/1
f 97/4/1 98/4/1 84/4/1 81/4/1
f 98/4/1 99/4/1 87/4/1 84/4/1
f 99/5/1 100/5/1 90/5/1 87/5/1
f 100/5/6 101/5/6 93/5/6 90/5/6
f 102/5/1 103/5/1 95/5/1 94/5/1
f 96/5/5 104/5/5 102/5/5 94/5/5
f 103/4/1 105/4/1 97/4/1 95/4/1
f 105/4/1 106/4/1 98/4/1 97/4/1
f 106/4/1 107/4/1 99/4/1 98/4/1
f 107/5/1 108/5/1 100/5/1 99/5/1
f 108/5/6 109/5/6 101/5/6 100/5/6
f 110/4/1 111/4/1 103/4/1 102/4/1
f 104/4/5 112/4/5 110/4/5 102/4/5
f 111/4/1 113/4/1 105/4/1 103/4/1
f 113/4/1 114/4/1 106/4/1 105/4/1
f 114/4/1 115/4/1 107/4/1 106/4/1
f 115/5/1 116/5/1 108/5/1 107/5/1
f 116/5/6 117/5/6 109/5/6 108/5/6
f 118/4/1 119/4/1 111/4/1 110/4/1
f 120/4/4 121/4/4 119/4/4 118/4/4
f 112/4/5 120/4/5 118/4/5 110/4/5
f 119/4/1 122/4/1 113/4/1 111/4/1
f 121/4/4 123/4/4 122/4/4 119/4/4
f 122/4/1 124/4/1 114/4/1 113/4/1
f 123/4/4 125/4/4 124/4/4 122/4/4
f 124/4/1 126/4/1 115/4/1 114/4/1
f 125/4/4 127/4/4 126/4/4 124/4/4
f 126/5/1 128/5/1 116/5/1 115/5/1
f 127/5/4 129/5/4 128/5/4 126/5/4
f 128/5/6 129/5/6 117/5/6 116/5/6
f 130/4/2 131/4/2 132/4/2 133/4/2
f 58/4/3 130/4/3 133/4/3 59/4/3
f 133/4/5 132/4/5 60/4/5 59/4/5
f 134/4/2 135/4/2 131/4/2 130/4/2
f 61/4/3 134/4/3 130/4/3 58/4/3
f 136/4/2 137/4/2 135/4/2 134/4/2
f 62/4/3 136/4/3 134/4/3 61/4/3
f 138/5/2 139/5/2 137/5/2 136/5/2
f 63/5/3 138/5/3 136/5/3 62/5/3
f 64/5/6 139/5/6 138/5/6 63/5/6
f 131/4/2 140/4/2 141/4/2 132/4/2
f 132/4/5 141/4/5 65/4/5 60/4/5
f 135/4/2 142/4/2 140/4/2 131/4/2
f 137/4/2 143/4/2 142/4/2 135/4/2
f 139/5/2 144/5/2 143/5/2 137/5/2
f 66/5/6 144/5/6 139/5/6 64/5/6
f 140/4/2 145/4/2 146/4/2 141/4/2
f 141/4/5 146/4/5 67/4/5 65/4/5
f 142/4/2 147/4/2 145/4/2 140/4/2
f 143/4/2 148/4/2 147/4/2 142/4/2
f 144/5/2 149/5/2 148/5/2 143/5/2
f 68/5/6 149/5/6 144/5/6 66/5/6
f 145/4/2 150/4/2 151/4/2 146/4/2
f 151/4/4 150/4/4 70/4/4 69/4/4
f 146/4/5 151/4/5 69/4/5 67/4/5
f 147/4/2 152/4/2 150/4/2 145/4/2
f 150/4/4 152/4/4 71/4/4 70/4/4
f 148/4/2 153/4/2 152/4/2 147/4/2
f 152/4/4 153/4/4 72/4/4 71/4/4
f 149/5/2 154/5/2 153/5/2 148/5/2
f 153/5/4 154/5/4 73/5/4 72/5/4
f 73/5/6 154/5/6 149/5/6 68/5/6
f 78/4/3 155/4/3 156/4/3 79/4/3
f 156/4/5 157/4/5 80/4/5 79/4/5
f 83/4/3 158/4/3 155/4/3 78/4/3
f 86/4/3 159/4/3 158/4/3 83/4/3
f 89/4/3 160/4/3 159/4/3 86/4/3
f 92/5/3 161/5/3 160/5/3 89/5/3
f 93/5/6 162/5/6 161/5/6 92/5/6
f 157/5/5 163/5/5 96/5/5 80/5/5
f 101/5/6 164/5/6 162/5/6 93/5/6
f 163/4/5 165/4/5 104/4/5 96/4/5
f 109/5/6 166/5/6 164/5/6 101/5/6
f 165/4/5 167/4/5 112/4/5 104/4/5
f 117/5/6 168/5/6 166/5/6 109/5/6
f 169/4/4 170/4/4 121/4/4 120/4/4
f 167/4/5 169/4/5 120/4/5 112/4/5
f 170/4/4 171/4/4 123/4/4 121/4/4
f 171/4/4 172/4/4 125/4/4 123/4/4
f 172/4/4 173/4/4 127/4/4 125/4/4
f 173/5/4 174/5/4 129/5/4 127/5/4
f 129/5/6 174/5/6 168/5/6 117/5/6
f 155/4/3 175/4/3 176/4/3 156/4/3
f 176/4/5 177/4/5 157/4/5 156/4/5
f 158/4/3 178/4/3 175/4/3 155/4/3
f 159/4/3 179/4/3 178/4/3 158/4/3
f 160/4/3 180/4/3 179/4/3 159/4/3
f 161/5/3 181/5/3 180/5/3 160/5/3
f 162/5/6 182/5/6 181/5/6 161/5/6
f 177/4/5 183/4/5 163/4/5 157/4/5
f 164/5/6 184/5/6 182/5/6 162/5/6
f 183/4/5 185/4/5 165/4/5 163/4/5
f 166/5/6 186/5/6 184/5/6 164/5/6
f 185/4/5 187/4/5 167/4/5 165/4/5
f 168/5/6 188/5/6 186/5/6 166/5/6
f 189/4/4 190/4/4 170/4/4 169/4/4
f 187/4/5 189/4/5 169/4/5 167/4/5
f 190/5/4 191/5/4 171/5/4 170/5/4
f 191/4/4 192/4/4 172/4/4 171/4/4
f 192/4/4 193/4/4 173/4/4 172/4/4
f 193/5/4 194/5/4 174/5/4 173/5/4
f 174/5/6 194/5/6 188/5/6 168/5/6
f 175/4/3 195/4/3 196/4/3 176/4/3
f 196/4/5 197/4/5 177/4/5 176/4/5
f 178/4/3 198/4/3 195/4/3 175/4/3
f 179/4/3 199/4/3 198/4/3 178/4/3
f 180/4/3 200/4/3 199/4/3 179/4/3
f 181/5/3 201/5/3 200/5/3 180/5/3
f 182/5/6 202/5/6 201/5/6 181/5/6
f 197/4/5 203/4/5 183/4/5 177/4/5
f 184/5/6 204/5/6 202/5/6 182/5/6
f 203/4/5 205/4/5 185/4/5 183/4/5
f 186/5/6 206/5/6 204/5/6 184/5/6
f 205/11/5 207/11/5 187/11/5 185/11/5
f 188/5/6 208/5/6 206/5/6 186/5/6
f 209/5/4 210/5/4 190/5/4 189/5/4
f 207/5/5 209/5/5 189/5/5 187/5/5
f 210/4/4 211/4/4 191/4/4 190/4/4
f 211/4/4 212/4/4 192/4/4 191/4/4
f 212/4/4 213/4/4 193/4/4 192/4/4
f 213/5/4 214/5/4 194/5/4 193/5/4
f 194/5/6 214/5/6 208/5/6 188/5/6
f 215/4/1 216/4/1 217/4/1 218/4/1
f 217/4/3 219/4/3 220/4/3 218/4/3
f 220/4/5 221/4/5 215/4/5 218/4/5
f 216/4/1 222/4/1 223/4/1 217/4/1
f 223/4/3 224/4/3 219/4/3 217/4/3
f 222/4/1 225/4/1 226/4/1 223/4/1
f 226/4/3 227/4/3 224/4/3 223/4/3
f 225/4/1 228/4/1 229/4/1 226/4/1
f 229/4/3 230/4/3 227/4/3 226/4/3
f 228/4/1 231/4/1 232/4/1 229/4/1
f 232/4/3 233/4/3 230/4/3 229/4/3
f 231/5/1 234/5/1 235/5/1 232/5/1
f 235/5/3 236/5/3 233/5/3 232/5/3
f 234/5/6 237/5/6 236/5/6 235/5/6
f 238/4/1 239/4/1 216/4/1 215/4/1
f 221/4/5 240/4/5 238/4/5 215/4/5
f 239/4/1 241/4/1 222/4/1 216/4/1
f 241/4/1 242/4/1 225/4/1 222/4/1
f 242/4/1 243/4/1 228/4/1 225/4/1
f 243/4/1 244/4/1 231/4/1 228/4/1
f 244/5/1 245/5/1 234/5/1 231/5/1
f 245/5/6 246/5/6 237/5/6 234/5/6
f 247/4/1 248/4/1 239/4/1 238/4/1
f 240/4/5 249/4/5 247/4/5 238/4/5
f 248/4/1 250/4/1 241/4/1 239/4/1
f 250/4/1 251/4/1 242/4/1 241/4/1
f 251/4/1 252/4/1 243/4/1 242/4/1
f 252/4/1 253/4/1 244/4/1 243/4/1
f 253/5/1 254/5/1 245/5/1 244/5/1
f 254/5/6 255/5/6 246/5/6 245/5/6
f 256/4/1 257/4/1 248/4/1 247/4/1
f 249/4/5 258/4/5 256/4/5 247/4/5
f 257/4/1 259/4/1 250/4/1 248/4/1
f 259/4/1 260/4/1 251/4/1 250/4/1
f 260/4/1 261/4/1 252/4/1 251/4/1
f 261/4/1 262/4/1 253/4/1 252/4/1
f 262/5/1 263/5/1 254/5/1 253/5/1
f 263/5/6 264/5/6 255/5/6 254/5/6
f 265/4/1 266/4/1 257/4/1 256/4/1
f 258/4/5 267/4/5 265/4/5 256/4/5
f 266/4/1 268/4/1 259/4/1 257/4/1
f 268/4/1 269/4/1 260/4/1 259/4/1
f 269/4/1 270/4/1 261/4/1 260/4/1
f 270/4/1 271/4/1 262/4/1 261/4/1
f 271/5/1 272/5/1 263/5/1 262/5/1
f 272/5/6 273/5/6 264/5/6 263/5/6
f 274/4/1 275/4/1 266/4/1 265/4/1
f 276/4/4 277/4/4 275/4/4 274/4/4
f 267/4/5 276/4/5 274/4/5 265/4/5
f 275/4/1 278/4/1 268/4/1 266/4/1
f 277/4/4 279/4/4 278/4/4 275/4/4
f 278/5/1 280/5/1 269/5/1 268/5/1
f 279/5/4 281/5/4 280/5/4 278/5/4
f 280/4/1 282/4/1 270/4/1 269/4/1
f 281/4/4 283/4/4 282/4/4 280/4/4
f 282/4/1 284/4/1 271/4/1 270/4/1
f 283/4/4 285/4/4 284/4/4 282/4/4
f 284/5/1 286/5/1 272/5/1 271/5/1
f 285/5/4 287/5/4 286/5/4 284/5/4
f 286/5/6 287/5/6 273/5/6 272/5/6
f 288/4/2 289/4/2 290/4/2 291/4/2
f 195/4/3 288/4/3 291/4/3 196/4/3
f 291/4/5 290/4/5 197/4/5 196/4/5
f 292/4/2 293/4/2 289/4/2 288/4/2
f 198/4/3 292/4/3 288/4/3 195/4/3
f 294/4/2 295/4/2 293/4/2 292/4/2
f 199/4/3 294/4/3 292/4/3 198/4/3
f 296/4/2 297/4/2 295/4/2 294/4/2
f 200/4/3 296/4/3 294/4/3 199/4/3
f 298/5/2 299/5/2 297/5/2 296/5/2
f 201/5/3 298/5/3 296/5/3 200/5/3
f 202/5/6 299/5/6 298/5/6 201/5/6
f 289/4/2 300/4/2 301/4/2 290/4/2
f 290/4/5 301/4/5 203/4/5 197/4/5
f 293/4/2 302/4/2 300/4/2 289/4/2
f 295/4/2 303/4/2 302/4/2 293/4/2
f 297/4/2 304/4/2 303/4/2 295/4/2
f 299/5/2 305/5/2 304/5/2 297/5/2
f 204/5/6 305/5/6 299/5/6 202/5/6
f 300/4/2 306/4/2 307/4/2 301/4/2
f 301/4/5 307/4/5 205/4/5 203/4/5
f 302/4/2 308/4/2 306/4/2 300/4/2
f 303/4/2 309/4/2 308/4/2 302/4/2
f 304/4/2 310/4/2 309/4/2 303/4/2
f 305/5/2 311/5/2 310/5/2 304/5/2
f 206/5/6 311/5/6 305/5/6 204/5/6
f 306/4/2 312/4/2 313/4/2 307/4/2
f 307/4/5 313/4/5 207/4/5 205/4/5
f 308/4/2 314/4/2 312/4/2 306/4/2
f 309/4/2 315/4/2 314/4/2 308/4/2
f 310/4/2 316/4/2 315/4/2 309/4/2
f 311/5/2 317/5/2 316/5/2 310/5/2
f 208/5/6 317/5/6 311/5/6 206/5/6
f 312/4/2 318/4/2 319/4/2 313/4/2
f 319/4/4 318/4/4 210/4/4 209/4/4
f 313/4/5 319/4/5 209/4/5 207/4/5
f 314/4/2 320/4/2 318/4/2 312/4/2
f 318/4/4 320/4/4 211/4/4 210/4/4
f 315/4/2 321/4/2 320/4/2 314/4/2
f 320/4/4 321/4/4 212/4/4 211/4/4
f 316/4/2 322/4/2 321/4/2 315/4/2
f 321/4/4 322/4/4 213/4/4 212/4/4
f 317/5/2 323/5/2 322/5/2 316/5/2
f 322/5/4 323/5/4 214/5/4 213/5/4
f 214/5/6 323/5/6 317/5/6 208/5/6
f 219/4/3 324/4/3 325/4/3 220/4/3
f 325/4/5 326/4/5 221/4/5 220/4/5
f 224/4/3 327/4/3 324/4/3 219/4/3
f 227/4/3 328/4/3 327/4/3 224/4/3
f 230/4/3 329/4/3 328/4/3 227/4/3
f 233/4/3 330/4/3 329/4/3 230/4/3
f 236/5/3 331/5/3 330/5/3 233/5/3
f 237/5/6 332/5/6 331/5/6 236/5/6
f 326/4/5 333/4/5 240/4/5 221/4/5
f 246/5/6 334/5/6 332/5/6 237/5/6
f 333/4/5 335/4/5 249/4/5 240/4/5
f 255/5/6 336/5/6 334/5/6 246/5/6
f 335/4/5 337/4/5 258/4/5 249/4/5
f 264/5/6 338/5/6 336/5/6 255/5/6
f 337/4/5 339/4/5 267/4/5 258/4/5
f 273/5/6 340/5/6 338/5/6 264/5/6
f 341/4/4 342/4/4 277/4/4 276/4/4
f 339/4/5 341/4/5 276/4/5 267/4/5
f 342/4/4 343/4/4 279/4/4 277/4/4
f 343/4/4 344/4/4 281/4/4 279/4/4
f 344/4/4 345/4/4 283/4/4 281/4/4
f 345/4/4 346/4/4 285/4/4 283/4/4
f 346/5/4 347/5/4 287/5/4 285/5/4
f 287/5/6 347/5/6 340/5/6 273/5/6
f 324/4/3 348/4/3 349/4/3 325/4/3
f 349/4/5 350/4/5 326/4/5 325/4/5
f 327/4/3 351/4/3 348/4/3 324/4/3
f 328/4/3 352/4/3 351/4/3 327/4/3
f 329/4/3 353/4/3 352/4/3 328/4/3
f 330/4/3 354/4/3 353/4/3 329/4/3
f 331/5/3 355/5/3 354/5/3 330/5/3
f 332/5/6 356/5/6 355/5/6 331/5/6
f 350/4/5 357/4/5 333/4/5 326/4/5
f 334/5/6 358/5/6 356/5/6 332/5/6
f 357/4/5 359/4/5 335/4/5 333/4/5
f 336/5/6 360/5/6 358/5/6 334/5/6
f 359/4/5 361/4/5 337/4/5 335/4/5
f 338/5/6 362/5/6 360/5/6 336/5/6
f 361/4/5 363/4/5 339/4/5 337/4/5
f 340/5/6 364/5/6 362/5/6 338/5/6
f 365/4/4 366/4/4 342/4/4 341/4/4
f 363/4/5 365/4/5 341/4/5 339/4/5
f 366/4/4 367/4/4 343/4/4 342/4/4
f 367/4/4 368/4/4 344/4/4 343/4/4
f 368/4/4 369/4/4 345/4/4 344/4/4
f 369/4/4 370/4/4 346/4/4 345/4/4
f 370/11/4 371/11/4 347/11/4 346/11/4
f 347/11/6 371/11/6 364/11/6 340/11/6
f 348/4/3 372/4/3 373/4/3 349/4/3
f 373/4/5 374/4/5 350/4/5 349/4/5
f 351/4/3 375/4/3 372/4/3 348/4/3
f 352/4/3 376/4/3 375/4/3 351/4/3
f 353/4/3 377/4/3 376/4/3 352/4/3
f 354/4/3 378/4/3 377/4/3 353/4/3
f 355/5/3 379/5/3 378/5/3 354/5/3
f 356/5/6 380/5/6 379/5/6 355/5/6
f 374/4/5 381/4/5 357/4/5 350/4/5
f 358/5/6 382/5/6 380/5/6 356/5/6
f 381/4/5 383/4/5 359/4/5 357/4/5
f 360/5/6 384/5/6 382/5/6 358/5/6
f 383/4/5 385/4/5 361/4/5 359/4/5
f 362/5/6 386/5/6 384/5/6 360/5/6
f 385/11/5 387/11/5 363/11/5 361/11/5
f 364/5/6 388/5/6 386/5/6 362/5/6
f 389/4/4 390/4/4 366/4/4 365/4/4
f 387/4/5 389/4/5 365/4/5 363/4/5
f 390/4/4 391/4/4 367/4/4 366/4/4
f 391/4/4 392/4/4 368/4/4 367/4/4
f 392/4/4 393/4/4 369/4/4 368/4/4
f 393/4/4 394/4/4 370/4/4 369/4/4
f 394/5/4 395/5/4 371/5/4 370/5/4
f 371/5/6 395/5/6 388/5/6 364/5/6
f 372/4/3 396/4/3 397/4/3 373/4/3
f 397/4/5 398/4/5 374/4/5 373/4/5
f 375/11/3 399/11/3 396/11/3 372/11/3
f 376/4/3 400/4/3 399/4/3 375/4/3
f 377/4/3 401/4/3 400/4/3 376/4/3
f 378/4/3 402/4/3 401/4/3 377/4/3
f 379/5/3 403/5/3 402/5/3 378/5/3
f 380/5/6 404/5/6 403/5/6 379/5/6
f 398/4/5 405/4/5 381/4/5 374/4/5
f 382/5/6 406/5/6 404/5/6 380/5/6
f 405/4/5 407/4/5 383/4/5 381/4/5
f 384/5/6 408/5/6 406/5/6 382/5/6
f 407/4/5 409/4/5 385/4/5 383/4/5
f 386/5/6 410/5/6 408/5/6 384/5/6
f 409/4/5 411/4/5 387/4/5 385/4/5
f 388/5/6 412/5/6 410/5/6 386/5/6
f 413/4/4 414/4/4 390/4/4 389/4/4
f 411/4/5 413/4/5 389/4/5 387/4/5
f 414/5/4 415/5/4 391/5/4 390/5/4
f 415/4/4 416/4/4 392/4/4 391/4/4
f 416/4/4 417/4/4 393/4/4 392/4/4
f 417/4/4 418/4/4 394/4/4 393/4/4
f 418/5/4 419/5/4 395/5/4 394/5/4
f 395/5/6 419/5/6 412/5/6 388/5/6
f 420/4/1 421/4/1 422/4/1 423/4/1
f 422/4/3 424/4/3 425/4/3 423/4/3
f 425/4/5 426/4/5 420/4/5 423/4/5
f 421/4/1 427/4/1 428/4/1 422/4/1
f 428/4/3 429/4/3 424/4/3 422/4/3
f 427/5/1 430/5/1 431/5/1 428/5/1
f 431/5/3 432/5/3 429/5/3 428/5/3
f 430/5/6 433/5/6 432/5/6 431/5/6
f 434/4/1 435/4/1 421/4/1 420/4/1
f 426/4/5 436/4/5 434/4/5 420/4/5
f 435/4/1 437/4/1 427/4/1 421/4/1
f 437/5/1 438/5/1 430/5/1 427/5/1
f 438/5/6 439/5/6 433/5/6 430/5/6
f 440/4/1 441/4/1 435/4/1 434/4/1
f 442/4/4 443/4/4 441/4/4 440/4/4
f 436/4/5 442/4/5 440/4/5 434/4/5
f 441/4/1 444/4/1 437/4/1 435/4/1
f 443/4/4 445/4/4 444/4/4 441/4/4
f 444/5/1 446/5/1 438/5/1 437/5/1
f 445/5/4 447/5/4 446/5/4 444/5/4
f 446/5/6 447/5/6 439/5/6 438/5/6
f 448/4/2 449/4/2 450/4/2 451/4/2
f 396/4/3 448/4/3 451/4/3 397/4/3
f 451/4/5 450/4/5 398/4/5 397/4/5
f 452/4/2 453/4/2 449/4/2 448/4/2
f 399/4/3 452/4/3 448/4/3 396/4/3
f 454/4/2 455/4/2 453/4/2 452/4/2
f 400/4/3 454/4/3 452/4/3 399/4/3
f 456/4/2 457/4/2 455/4/2 454/4/2
f 401/4/3 456/4/3 454/4/3 400/4/3
f 458/4/2 459/4/2 457/4/2 456/4/2
f 402/4/3 458/4/3 456/4/3 401/4/3
f 460/5/2 461/5/2 459/5/2 458/5/2
f 403/5/3 460/5/3 458/5/3 402/5/3
f 404/5/6 461/5/6 460/5/6 403/5/6
f 449/4/2 462/4/2 463/4/2 450/4/2
f 450/4/5 463/4/5 405/4/5 398/4/5
f 453/4/2 464/4/2 462/4/2 449/4/2
f 455/4/2 465/4/2 464/4/2 453/4/2
f 457/4/2 466/4/2 465/4/2 455/4/2
f 459/4/2 467/4/2 466/4/2 457/4/2
f 461/5/2 468/5/2 467/5/2 459/5/2
f 406/5/6 468/5/6 461/5/6 404/5/6
f 462/4/2 469/4/2 470/4/2 463/4/2
f 463/4/5 470/4/5 407/4/5 405/4/5
f 464/4/2 471/4/2 469/4/2 462/4/2
f 465/4/2 472/4/2 471/4/2 464/4/2
f 466/4/2 473/4/2 472/4/2 465/4/2
f 467/4/2 474/4/2 473/4/2 466/4/2
f 468/5/2 475/5/2 474/5/2 467/5/2
f 408/5/6 475/5/6 468/5/6 406/5/6
f 469/4/2 476/4/2 477/4/2 470/4/2
f 470/4/5 477/4/5 409/4/5 407/4/5
f 471/4/2 478/4/2 476/4/2 469/4/2
f 472/4/2 479/4/2 478/4/2 471/4/2
f 473/4/2 480/4/2 479/4/2 472/4/2
f 474/4/2 481/4/2 480/4/2 473/4/2
f 475/5/2 482/5/2 481/5/2 474/5/2
f 410/5/6 482/5/6 475/5/6 408/5/6
f 476/4/2 483/4/2 484/4/2 477/4/2
f 477/4/5 484/4/5 411/4/5 409/4/5
f 478/5/2 485/5/2 483/5/2 476/5/2
f 479/4/2 486/4/2 485/4/2 478/4/2
f 480/4/2 487/4/2 486/4/2 479/4/2
f 481/11/2 488/11/2 487/11/2 480/11/2
f 482/5/2 489/5/2 488/5/2 481/5/2
f 412/5/6 489/5/6 482/5/6 410/5/6
f 483/4/2 490/4/2 491/4/2 484/4/2
f 491/4/4 490/4/4 414/4/4 413/4/4
f 484/4/5 491/4/5 413/4/5 411/4/5
f 485/4/2 492/4/2 490/4/2 483/4/2
f 490/4/4 492/4/4 415/4/4 414/4/4
f 486/4/2 493/4/2 492/4/2 485/4/2
f 492/4/4 493/4/4 416/4/4 415/4/4
f 487/4/2 494/4/2 493/4/2 486/4/2
f 493/4/4 494/4/4 417/4/4 416/4/4
f 488/4/2 495/4/2 494/4/2 487/4/2
f 494/4/4 495/4/4 418/4/4 417/4/4
f 489/5/2 496/5/2 495/5/2 488/5/2
f 495/5/4 496/5/4 419/5/4 418/5/4
f 419/5/6 496/5/6 489/5/6 412/5/6
f 424/4/3 497/4/3 498/4/3 425/4/3
f 498/4/5 499/4/5 426/4/5 425/4/5
f 429/4/3 500/4/3 497/4/3 424/4/3
f 432/5/3 501/5/3 500/5/3 429/5/3
f 433/5/6 502/5/6 501/5/6 432/5/6
f 499/4/5 503/4/5 436/4/5 426/4/5
f 439/11/6 504/11/6 502/11/6 433/11/6
f 505/4/4 506/4/4 443/4/4 442/4/4
f 503/4/5 505/4/5 442/4/5 436/4/5
f 506/4/4 507/4/4 445/4/4 443/4/4
f 507/5/4 508/5/4 447/5/4 445/5/4
f 447/5/6 508/5/6 504/5/6 439/5/6
f 509/4/2 510/4/2 511/4/2 512/4/2
f 497/4/3 509/4/3 512/4/3 498/4/3
f 512/4/5 511/4/5 499/4/5 498/4/5
f 513/4/2 514/4/2 510/4/2 509/4/2
f 500/4/3 513/4/3 509/4/3 497/4/3
f 515/5/2 516/5/2 514/5/2 513/5/2
f 501/5/3 515/5/3 513/5/3 500/5/3
f 502/5/6 516/5/6 515/5/6 501/5/6
f 510/4/2 517/4/2 518/4/2 511/4/2
f 511/4/5 518/4/5 503/4/5 499/4/5
f 514/4/2 519/4/2 517/4/2 510/4/2
f 516/5/2 520/5/2 519/5/2 514/5/2
f 504/5/6 520/5/6 516/5/6 502/5/6
f 517/4/2 521/4/2 522/4/2 518/4/2
f 522/4/4 521/4/4 506/4/4 505/4/4
f 518/4/5 522/4/5 505/4/5 503/4/5
f 519/4/2 523/4/2 521/4/2 517/4/2
f 521/4/4 523/4/4 507/4/4 506/4/4
f 520/5/2 524/5/2 523/5/2 519/5/2
f 523/5/4 524/5/4 508/5/4 507/5/4
f 508/5/6 524/5/6 520/5/6 504/5/6
