# Dungine stairs_half_up; 1 voxel = 1/16 unit; Y-up floor-center origin
mtllib stairs_half_up.mtl
o stairs_half_up
s off
v -0.500000 0.000000 -0.437500
v -0.500000 0.062500 -0.437500
v -0.500000 0.062500 -0.500000
v -0.500000 0.000000 -0.500000
v -0.437500 0.062500 -0.500000
v -0.437500 0.000000 -0.500000
v -0.437500 0.000000 -0.437500
v -0.437500 0.062500 -0.437500
v -0.500000 0.000000 -0.375000
v -0.500000 0.062500 -0.375000
v -0.437500 0.000000 -0.375000
v -0.437500 0.062500 -0.375000
v -0.500000 0.000000 -0.312500
v -0.500000 0.062500 -0.312500
v -0.437500 0.000000 -0.312500
v -0.500000 0.125000 -0.312500
v -0.500000 0.125000 -0.375000
v -0.437500 0.125000 -0.375000
v -0.437500 0.125000 -0.312500
v -0.500000 0.000000 -0.250000
v -0.500000 0.062500 -0.250000
v -0.437500 0.000000 -0.250000
v -0.500000 0.125000 -0.250000
v -0.437500 0.125000 -0.250000
v -0.500000 0.000000 -0.187500
v -0.500000 0.062500 -0.187500
v -0.437500 0.000000 -0.187500
v -0.500000 0.125000 -0.187500
v -0.500000 0.187500 -0.187500
v -0.500000 0.187500 -0.250000
v -0.437500 0.187500 -0.250000
v -0.437500 0.187500 -0.187500
v -0.500000 0.000000 -0.125000
v -0.500000 0.062500 -0.125000
v -0.437500 0.000000 -0.125000
v -0.500000 0.125000 -0.125000
v -0.500000 0.187500 -0.125000
v -0.437500 0.187500 -0.125000
v -0.500000 0.000000 -0.062500
v -0.500000 0.062500 -0.062500
v -0.437500 0.000000 -0.062500
v -0.500000 0.125000 -0.062500
v -0.500000 0.187500 -0.062500
v -0.500000 0.250000 -0.062500
v -0.500000 0.250000 -0.125000
v -0.437500 0.250000 -0.125000
v -0.437500 0.250000 -0.062500
v -0.500000 0.000000 0.000000
v -0.500000 0.062500 0.000000
v -0.437500 0.000000 0.000000
v -0.500000 0.125000 0.000000
v -0.500000 0.187500 0.000000
v -0.500000 0.250000 0.000000
v -0.437500 0.250000 0.000000
v -0.500000 0.000000 0.062500
v -0.500000 0.062500 0.062500
v -0.437500 0.000000 0.062500
v -0.500000 0.125000 0.062500
v -0.500000 0.187500 0.062500
v -0.500000 0.250000 0.062500
v -0.500000 0.312500 0.062500
v -0.500000 0.312500 0.000000
v -0.437500 0.312500 0.000000
v -0.437500 0.312500 0.062500
v -0.500000 0.000000 0.125000
v -0.500000 0.062500 0.125000
v -0.437500 0.000000 0.125000
v -0.500000 0.125000 0.125000
v -0.500000 0.187500 0.125000
v -0.500000 0.250000 0.125000
v -0.500000 0.312500 0.125000
v -0.437500 0.312500 0.125000
v -0.500000 0.000000 0.187500
v -0.500000 0.062500 0.187500
v -0.437500 0.000000 0.187500
v -0.500000 0.125000 0.187500
v -0.500000 0.187500 0.187500
v -0.500000 0.250000 0.187500
v -0.500000 0.312500 0.187500
v -0.500000 0.375000 0.187500
v -0.500000 0.375000 0.125000
v -0.437500 0.375000 0.125000
v -0.437500 0.375000 0.187500
v -0.500000 0.000000 0.250000
v -0.500000 0.062500 0.250000
v -0.437500 0.000000 0.250000
v -0.500000 0.125000 0.250000
v -0.500000 0.187500 0.250000
v -0.500000 0.250000 0.250000
v -0.500000 0.312500 0.250000
v -0.500000 0.375000 0.250000
v -0.437500 0.375000 0.250000
v -0.500000 0.000000 0.312500
v -0.500000 0.062500 0.312500
v -0.437500 0.000000 0.312500
v -0.500000 0.125000 0.312500
v -0.500000 0.187500 0.312500
v -0.500000 0.250000 0.312500
v -0.500000 0.312500 0.312500
v -0.500000 0.375000 0.312500
v -0.500000 0.437500 0.312500
v -0.500000 0.437500 0.250000
v -0.437500 0.437500 0.250000
v -0.437500 0.437500 0.312500
v -0.500000 0.000000 0.375000
v -0.500000 0.062500 0.375000
v -0.437500 0.000000 0.375000
v -0.500000 0.125000 0.375000
v -0.500000 0.187500 0.375000
v -0.500000 0.250000 0.375000
v -0.500000 0.312500 0.375000
v -0.500000 0.375000 0.375000
v -0.500000 0.437500 0.375000
v -0.437500 0.437500 0.375000
v -0.500000 0.000000 0.437500
v -0.500000 0.062500 0.437500
v -0.437500 0.000000 0.437500
v -0.500000 0.125000 0.437500
v -0.500000 0.187500 0.437500
v -0.500000 0.250000 0.437500
v -0.500000 0.312500 0.437500
v -0.500000 0.375000 0.437500
v -0.500000 0.437500 0.437500
v -0.500000 0.500000 0.437500
v -0.500000 0.500000 0.375000
v -0.437500 0.500000 0.375000
v -0.437500 0.500000 0.437500
v -0.500000 0.000000 0.500000
v -0.500000 0.062500 0.500000
v -0.437500 0.000000 0.500000
v -0.437500 0.062500 0.500000
v -0.500000 0.125000 0.500000
v -0.437500 0.125000 0.500000
v -0.500000 0.187500 0.500000
v -0.437500 0.187500 0.500000
v -0.500000 0.250000 0.500000
v -0.437500 0.250000 0.500000
v -0.500000 0.312500 0.500000
v -0.437500 0.312500 0.500000
v -0.500000 0.375000 0.500000
v -0.437500 0.375000 0.500000
v -0.500000 0.437500 0.500000
v -0.437500 0.437500 0.500000
v -0.500000 0.500000 0.500000
v -0.437500 0.500000 0.500000
v -0.375000 0.062500 -0.500000
v -0.375000 0.000000 -0.500000
v -0.375000 0.000000 -0.437500
v -0.375000 0.062500 -0.437500
v -0.375000 0.000000 -0.375000
v -0.375000 0.062500 -0.375000
v -0.375000 0.000000 -0.312500
v -0.375000 0.125000 -0.375000
v -0.375000 0.125000 -0.312500
v -0.375000 0.000000 -0.250000
v -0.375000 0.125000 -0.250000
v -0.375000 0.000000 -0.187500
v -0.375000 0.187500 -0.250000
v -0.375000 0.187500 -0.187500
v -0.375000 0.000000 -0.125000
v -0.375000 0.187500 -0.125000
v -0.375000 0.000000 -0.062500
v -0.375000 0.250000 -0.125000
v -0.375000 0.250000 -0.062500
v -0.375000 0.000000 0.000000
v -0.375000 0.250000 0.000000
v -0.375000 0.000000 0.062500
v -0.375000 0.312500 0.000000
v -0.375000 0.312500 0.062500
v -0.375000 0.000000 0.125000
v -0.375000 0.312500 0.125000
v -0.375000 0.000000 0.187500
v -0.375000 0.375000 0.125000
v -0.375000 0.375000 0.187500
v -0.375000 0.000000 0.250000
v -0.375000 0.375000 0.250000
v -0.375000 0.000000 0.312500
v -0.375000 0.437500 0.250000
v -0.375000 0.437500 0.312500
v -0.375000 0.000000 0.375000
v -0.375000 0.437500 0.375000
v -0.375000 0.000000 0.437500
v -0.375000 0.500000 0.375000
v -0.375000 0.500000 0.437500
v -0.375000 0.000000 0.500000
v -0.375000 0.062500 0.500000
v -0.375000 0.125000 0.500000
v -0.375000 0.187500 0.500000
v -0.375000 0.250000 0.500000
v -0.375000 0.312500 0.500000
v -0.375000 0.375000 0.500000
v -0.375000 0.437500 0.500000
v -0.375000 0.500000 0.500000
v -0.312500 0.062500 -0.500000
v -0.312500 0.000000 -0.500000
v -0.312500 0.000000 -0.437500
v -0.312500 0.062500 -0.437500
v -0.312500 0.000000 -0.375000
v -0.312500 0.062500 -0.375000
v -0.312500 0.000000 -0.312500
v -0.312500 0.125000 -0.375000
v -0.312500 0.125000 -0.312500
v -0.312500 0.000000 -0.250000
v -0.312500 0.125000 -0.250000
v -0.312500 0.000000 -0.187500
v -0.312500 0.187500 -0.250000
v -0.312500 0.187500 -0.187500
v -0.312500 0.000000 -0.125000
v -0.312500 0.187500 -0.125000
v -0.312500 0.000000 -0.062500
v -0.312500 0.250000 -0.125000
v -0.312500 0.250000 -0.062500
v -0.312500 0.000000 0.000000
v -0.312500 0.250000 0.000000
v -0.312500 0.000000 0.062500
v -0.312500 0.312500 0.000000
v -0.312500 0.312500 0.062500
v -0.312500 0.000000 0.125000
v -0.312500 0.312500 0.125000
v -0.312500 0.000000 0.187500
v -0.312500 0.375000 0.125000
v -0.312500 0.375000 0.187500
v -0.312500 0.000000 0.250000
v -0.312500 0.375000 0.250000
v -0.312500 0.000000 0.312500
v -0.312500 0.437500 0.250000
v -0.312500 0.437500 0.312500
v -0.312500 0.000000 0.375000
v -0.312500 0.437500 0.375000
v -0.312500 0.000000 0.437500
v -0.312500 0.500000 0.375000
v -0.312500 0.500000 0.437500
v -0.312500 0.000000 0.500000
v -0.312500 0.062500 0.500000
v -0.312500 0.125000 0.500000
v -0.312500 0.187500 0.500000
v -0.312500 0.250000 0.500000
v -0.312500 0.312500 0.500000
v -0.312500 0.375000 0.500000
v -0.312500 0.437500 0.500000
v -0.312500 0.500000 0.500000
v -0.250000 0.062500 -0.500000
v -0.250000 0.000000 -0.500000
v -0.250000 0.000000 -0.437500
v -0.250000 0.062500 -0.437500
v -0.250000 0.000000 -0.375000
v -0.250000 0.062500 -0.375000
v -0.250000 0.000000 -0.312500
v -0.250000 0.125000 -0.375000
v -0.250000 0.125000 -0.312500
v -0.250000 0.000000 -0.250000
v -0.250000 0.125000 -0.250000
v -0.250000 0.000000 -0.187500
v -0.250000 0.187500 -0.250000
v -0.250000 0.187500 -0.187500
v -0.250000 0.000000 -0.125000
v -0.250000 0.187500 -0.125000
v -0.250000 0.000000 -0.062500
v -0.250000 0.250000 -0.125000
v -0.250000 0.250000 -0.062500
v -0.250000 0.000000 0.000000
v -0.250000 0.250000 0.000000
v -0.250000 0.000000 0.062500
v -0.250000 0.312500 0.000000
v -0.250000 0.312500 0.062500
v -0.250000 0.000000 0.125000
v -0.250000 0.312500 0.125000
v -0.250000 0.000000 0.187500
v -0.250000 0.375000 0.125000
v -0.250000 0.375000 0.187500
v -0.250000 0.000000 0.250000
v -0.250000 0.375000 0.250000
v -0.250000 0.000000 0.312500
v -0.250000 0.437500 0.250000
v -0.250000 0.437500 0.312500
v -0.250000 0.000000 0.375000
v -0.250000 0.437500 0.375000
v -0.250000 0.000000 0.437500
v -0.250000 0.500000 0.375000
v -0.250000 0.500000 0.437500
v -0.250000 0.000000 0.500000
v -0.250000 0.062500 0.500000
v -0.250000 0.125000 0.500000
v -0.250000 0.187500 0.500000
v -0.250000 0.250000 0.500000
v -0.250000 0.312500 0.500000
v -0.250000 0.375000 0.500000
v -0.250000 0.437500 0.500000
v -0.250000 0.500000 0.500000
v -0.187500 0.062500 -0.500000
v -0.187500 0.000000 -0.500000
v -0.187500 0.000000 -0.437500
v -0.187500 0.062500 -0.437500
v -0.187500 0.000000 -0.375000
v -0.187500 0.062500 -0.375000
v -0.187500 0.000000 -0.312500
v -0.187500 0.125000 -0.375000
v -0.187500 0.125000 -0.312500
v -0.187500 0.000000 -0.250000
v -0.187500 0.125000 -0.250000
v -0.187500 0.000000 -0.187500
v -0.187500 0.187500 -0.250000
v -0.187500 0.187500 -0.187500
v -0.187500 0.000000 -0.125000
v -0.187500 0.187500 -0.125000
v -0.187500 0.000000 -0.062500
v -0.187500 0.250000 -0.125000
v -0.187500 0.250000 -0.062500
v -0.187500 0.000000 0.000000
v -0.187500 0.250000 0.000000
v -0.187500 0.000000 0.062500
v -0.187500 0.312500 0.000000
v -0.187500 0.312500 0.062500
v -0.187500 0.000000 0.125000
v -0.187500 0.312500 0.125000
v -0.187500 0.000000 0.187500
v -0.187500 0.375000 0.125000
v -0.187500 0.375000 0.187500
v -0.187500 0.000000 0.250000
v -0.187500 0.375000 0.250000
v -0.187500 0.000000 0.312500
v -0.187500 0.437500 0.250000
v -0.187500 0.437500 0.312500
v -0.187500 0.000000 0.375000
v -0.187500 0.437500 0.375000
v -0.187500 0.000000 0.437500
v -0.187500 0.500000 0.375000
v -0.187500 0.500000 0.437500
v -0.187500 0.000000 0.500000
v -0.187500 0.062500 0.500000
v -0.187500 0.125000 0.500000
v -0.187500 0.187500 0.500000
v -0.187500 0.250000 0.500000
v -0.187500 0.312500 0.500000
v -0.187500 0.375000 0.500000
v -0.187500 0.437500 0.500000
v -0.187500 0.500000 0.500000
v -0.125000 0.062500 -0.500000
v -0.125000 0.000000 -0.500000
v -0.125000 0.000000 -0.437500
v -0.125000 0.062500 -0.437500
v -0.125000 0.000000 -0.375000
v -0.125000 0.062500 -0.375000
v -0.125000 0.000000 -0.312500
v -0.125000 0.125000 -0.375000
v -0.125000 0.125000 -0.312500
v -0.125000 0.000000 -0.250000
v -0.125000 0.125000 -0.250000
v -0.125000 0.000000 -0.187500
v -0.125000 0.187500 -0.250000
v -0.125000 0.187500 -0.187500
v -0.125000 0.000000 -0.125000
v -0.125000 0.187500 -0.125000
v -0.125000 0.000000 -0.062500
v -0.125000 0.250000 -0.125000
v -0.125000 0.250000 -0.062500
v -0.125000 0.000000 0.000000
v -0.125000 0.250000 0.000000
v -0.125000 0.000000 0.062500
v -0.125000 0.312500 0.000000
v -0.125000 0.312500 0.062500
v -0.125000 0.000000 0.125000
v -0.125000 0.312500 0.125000
v -0.125000 0.000000 0.187500
v -0.125000 0.375000 0.125000
v -0.125000 0.375000 0.187500
v -0.125000 0.000000 0.250000
v -0.125000 0.375000 0.250000
v -0.125000 0.000000 0.312500
v -0.125000 0.437500 0.250000
v -0.125000 0.437500 0.312500
v -0.125000 0.000000 0.375000
v -0.125000 0.437500 0.375000
v -0.125000 0.000000 0.437500
v -0.125000 0.500000 0.375000
v -0.125000 0.500000 0.437500
v -0.125000 0.000000 0.500000
v -0.125000 0.062500 0.500000
v -0.125000 0.125000 0.500000
v -0.125000 0.187500 0.500000
v -0.125000 0.250000 0.500000
v -0.125000 0.312500 0.500000
v -0.125000 0.375000 0.500000
v -0.125000 0.437500 0.500000
v -0.125000 0.500000 0.500000
v -0.062500 0.062500 -0.500000
v -0.062500 0.000000 -0.500000
v -0.062500 0.000000 -0.437500
v -0.062500 0.062500 -0.437500
v -0.062500 0.000000 -0.375000
v -0.062500 0.062500 -0.375000
v -0.062500 0.000000 -0.312500
v -0.062500 0.125000 -0.375000
v -0.062500 0.125000 -0.312500
v -0.062500 0.000000 -0.250000
v -0.062500 0.125000 -0.250000
v -0.062500 0.000000 -0.187500
v -0.062500 0.187500 -0.250000
v -0.062500 0.187500 -0.187500
v -0.062500 0.000000 -0.125000
v -0.062500 0.187500 -0.125000
v -0.062500 0.000000 -0.062500
v -0.062500 0.250000 -0.125000
v -0.062500 0.250000 -0.062500
v -0.062500 0.000000 0.000000
v -0.062500 0.250000 0.000000
v -0.062500 0.000000 0.062500
v -0.062500 0.312500 0.000000
v -0.062500 0.312500 0.062500
v -0.062500 0.000000 0.125000
v -0.062500 0.312500 0.125000
v -0.062500 0.000000 0.187500
v -0.062500 0.375000 0.125000
v -0.062500 0.375000 0.187500
v -0.062500 0.000000 0.250000
v -0.062500 0.375000 0.250000
v -0.062500 0.000000 0.312500
v -0.062500 0.437500 0.250000
v -0.062500 0.437500 0.312500
v -0.062500 0.000000 0.375000
v -0.062500 0.437500 0.375000
v -0.062500 0.000000 0.437500
v -0.062500 0.500000 0.375000
v -0.062500 0.500000 0.437500
v -0.062500 0.000000 0.500000
v -0.062500 0.062500 0.500000
v -0.062500 0.125000 0.500000
v -0.062500 0.187500 0.500000
v -0.062500 0.250000 0.500000
v -0.062500 0.312500 0.500000
v -0.062500 0.375000 0.500000
v -0.062500 0.437500 0.500000
v -0.062500 0.500000 0.500000
v 0.000000 0.062500 -0.500000
v 0.000000 0.000000 -0.500000
v 0.000000 0.000000 -0.437500
v 0.000000 0.062500 -0.437500
v 0.000000 0.000000 -0.375000
v 0.000000 0.062500 -0.375000
v 0.000000 0.000000 -0.312500
v 0.000000 0.125000 -0.375000
v 0.000000 0.125000 -0.312500
v 0.000000 0.000000 -0.250000
v 0.000000 0.125000 -0.250000
v 0.000000 0.000000 -0.187500
v 0.000000 0.187500 -0.250000
v 0.000000 0.187500 -0.187500
v 0.000000 0.000000 -0.125000
v 0.000000 0.187500 -0.125000
v 0.000000 0.000000 -0.062500
v 0.000000 0.250000 -0.125000
v 0.000000 0.250000 -0.062500
v 0.000000 0.000000 0.000000
v 0.000000 0.250000 0.000000
v 0.000000 0.000000 0.062500
v 0.000000 0.312500 0.000000
v 0.000000 0.312500 0.062500
v 0.000000 0.000000 0.125000
v 0.000000 0.312500 0.125000
v 0.000000 0.000000 0.187500
v 0.000000 0.375000 0.125000
v 0.000000 0.375000 0.187500
v 0.000000 0.000000 0.250000
v 0.000000 0.375000 0.250000
v 0.000000 0.000000 0.312500
v 0.000000 0.437500 0.250000
v 0.000000 0.437500 0.312500
v 0.000000 0.000000 0.375000
v 0.000000 0.437500 0.375000
v 0.000000 0.000000 0.437500
v 0.000000 0.500000 0.375000
v 0.000000 0.500000 0.437500
v 0.000000 0.000000 0.500000
v 0.000000 0.062500 0.500000
v 0.000000 0.125000 0.500000
v 0.000000 0.187500 0.500000
v 0.000000 0.250000 0.500000
v 0.000000 0.312500 0.500000
v 0.000000 0.375000 0.500000
v 0.000000 0.437500 0.500000
v 0.000000 0.500000 0.500000
v 0.062500 0.062500 -0.500000
v 0.062500 0.000000 -0.500000
v 0.062500 0.000000 -0.437500
v 0.062500 0.062500 -0.437500
v 0.062500 0.000000 -0.375000
v 0.062500 0.062500 -0.375000
v 0.062500 0.000000 -0.312500
v 0.062500 0.125000 -0.375000
v 0.062500 0.125000 -0.312500
v 0.062500 0.000000 -0.250000
v 0.062500 0.125000 -0.250000
v 0.062500 0.000000 -0.187500
v 0.062500 0.187500 -0.250000
v 0.062500 0.187500 -0.187500
v 0.062500 0.000000 -0.125000
v 0.062500 0.187500 -0.125000
v 0.062500 0.000000 -0.062500
v 0.062500 0.250000 -0.125000
v 0.062500 0.250000 -0.062500
v 0.062500 0.000000 0.000000
v 0.062500 0.250000 0.000000
v 0.062500 0.000000 0.062500
v 0.062500 0.312500 0.000000
v 0.062500 0.312500 0.062500
v 0.062500 0.000000 0.125000
v 0.062500 0.312500 0.125000
v 0.062500 0.000000 0.187500
v 0.062500 0.375000 0.125000
v 0.062500 0.375000 0.187500
v 0.062500 0.000000 0.250000
v 0.062500 0.375000 0.250000
v 0.062500 0.000000 0.312500
v 0.062500 0.437500 0.250000
v 0.062500 0.437500 0.312500
v 0.062500 0.000000 0.375000
v 0.062500 0.437500 0.375000
v 0.062500 0.000000 0.437500
v 0.062500 0.500000 0.375000
v 0.062500 0.500000 0.437500
v 0.062500 0.000000 0.500000
v 0.062500 0.062500 0.500000
v 0.062500 0.125000 0.500000
v 0.062500 0.187500 0.500000
v 0.062500 0.250000 0.500000
v 0.062500 0.312500 0.500000
v 0.062500 0.375000 0.500000
v 0.062500 0.437500 0.500000
v 0.062500 0.500000 0.500000
v 0.125000 0.062500 -0.500000
v 0.125000 0.000000 -0.500000
v 0.125000 0.000000 -0.437500
v 0.125000 0.062500 -0.437500
v 0.125000 0.000000 -0.375000
v 0.125000 0.062500 -0.375000
v 0.125000 0.000000 -0.312500
v 0.125000 0.125000 -0.375000
v 0.125000 0.125000 -0.312500
v 0.125000 0.000000 -0.250000
v 0.125000 0.125000 -0.250000
v 0.125000 0.000000 -0.187500
v 0.125000 0.187500 -0.250000
v 0.125000 0.187500 -0.187500
v 0.125000 0.000000 -0.125000
v 0.125000 0.187500 -0.125000
v 0.125000 0.000000 -0.062500
v 0.125000 0.250000 -0.125000
v 0.125000 0.250000 -0.062500
v 0.125000 0.000000 0.000000
v 0.125000 0.250000 0.000000
v 0.125000 0.000000 0.062500
v 0.125000 0.312500 0.000000
v 0.125000 0.312500 0.062500
v 0.125000 0.000000 0.125000
v 0.125000 0.312500 0.125000
v 0.125000 0.000000 0.187500
v 0.125000 0.375000 0.125000
v 0.125000 0.375000 0.187500
v 0.125000 0.000000 0.250000
v 0.125000 0.375000 0.250000
v 0.125000 0.000000 0.312500
v 0.125000 0.437500 0.250000
v 0.125000 0.437500 0.312500
v 0.125000 0.000000 0.375000
v 0.125000 0.437500 0.375000
v 0.125000 0.000000 0.437500
v 0.125000 0.500000 0.375000
v 0.125000 0.500000 0.437500
v 0.125000 0.000000 0.500000
v 0.125000 0.062500 0.500000
v 0.125000 0.125000 0.500000
v 0.125000 0.187500 0.500000
v 0.125000 0.250000 0.500000
v 0.125000 0.312500 0.500000
v 0.125000 0.375000 0.500000
v 0.125000 0.437500 0.500000
v 0.125000 0.500000 0.500000
v 0.187500 0.062500 -0.500000
v 0.187500 0.000000 -0.500000
v 0.187500 0.000000 -0.437500
v 0.187500 0.062500 -0.437500
v 0.187500 0.000000 -0.375000
v 0.187500 0.062500 -0.375000
v 0.187500 0.000000 -0.312500
v 0.187500 0.125000 -0.375000
v 0.187500 0.125000 -0.312500
v 0.187500 0.000000 -0.250000
v 0.187500 0.125000 -0.250000
v 0.187500 0.000000 -0.187500
v 0.187500 0.187500 -0.250000
v 0.187500 0.187500 -0.187500
v 0.187500 0.000000 -0.125000
v 0.187500 0.187500 -0.125000
v 0.187500 0.000000 -0.062500
v 0.187500 0.250000 -0.125000
v 0.187500 0.250000 -0.062500
v 0.187500 0.000000 0.000000
v 0.187500 0.250000 0.000000
v 0.187500 0.000000 0.062500
v 0.187500 0.312500 0.000000
v 0.187500 0.312500 0.062500
v 0.187500 0.000000 0.125000
v 0.187500 0.312500 0.125000
v 0.187500 0.000000 0.187500
v 0.187500 0.375000 0.125000
v 0.187500 0.375000 0.187500
v 0.187500 0.000000 0.250000
v 0.187500 0.375000 0.250000
v 0.187500 0.000000 0.312500
v 0.187500 0.437500 0.250000
v 0.187500 0.437500 0.312500
v 0.187500 0.000000 0.375000
v 0.187500 0.437500 0.375000
v 0.187500 0.000000 0.437500
v 0.187500 0.500000 0.375000
v 0.187500 0.500000 0.437500
v 0.187500 0.000000 0.500000
v 0.187500 0.062500 0.500000
v 0.187500 0.125000 0.500000
v 0.187500 0.187500 0.500000
v 0.187500 0.250000 0.500000
v 0.187500 0.312500 0.500000
v 0.187500 0.375000 0.500000
v 0.187500 0.437500 0.500000
v 0.187500 0.500000 0.500000
v 0.250000 0.062500 -0.500000
v 0.250000 0.000000 -0.500000
v 0.250000 0.000000 -0.437500
v 0.250000 0.062500 -0.437500
v 0.250000 0.000000 -0.375000
v 0.250000 0.062500 -0.375000
v 0.250000 0.000000 -0.312500
v 0.250000 0.125000 -0.375000
v 0.250000 0.125000 -0.312500
v 0.250000 0.000000 -0.250000
v 0.250000 0.125000 -0.250000
v 0.250000 0.000000 -0.187500
v 0.250000 0.187500 -0.250000
v 0.250000 0.187500 -0.187500
v 0.250000 0.000000 -0.125000
v 0.250000 0.187500 -0.125000
v 0.250000 0.000000 -0.062500
v 0.250000 0.250000 -0.125000
v 0.250000 0.250000 -0.062500
v 0.250000 0.000000 0.000000
v 0.250000 0.250000 0.000000
v 0.250000 0.000000 0.062500
v 0.250000 0.312500 0.000000
v 0.250000 0.312500 0.062500
v 0.250000 0.000000 0.125000
v 0.250000 0.312500 0.125000
v 0.250000 0.000000 0.187500
v 0.250000 0.375000 0.125000
v 0.250000 0.375000 0.187500
v 0.250000 0.000000 0.250000
v 0.250000 0.375000 0.250000
v 0.250000 0.000000 0.312500
v 0.250000 0.437500 0.250000
v 0.250000 0.437500 0.312500
v 0.250000 0.000000 0.375000
v 0.250000 0.437500 0.375000
v 0.250000 0.000000 0.437500
v 0.250000 0.500000 0.375000
v 0.250000 0.500000 0.437500
v 0.250000 0.000000 0.500000
v 0.250000 0.062500 0.500000
v 0.250000 0.125000 0.500000
v 0.250000 0.187500 0.500000
v 0.250000 0.250000 0.500000
v 0.250000 0.312500 0.500000
v 0.250000 0.375000 0.500000
v 0.250000 0.437500 0.500000
v 0.250000 0.500000 0.500000
v 0.312500 0.062500 -0.500000
v 0.312500 0.000000 -0.500000
v 0.312500 0.000000 -0.437500
v 0.312500 0.062500 -0.437500
v 0.312500 0.000000 -0.375000
v 0.312500 0.062500 -0.375000
v 0.312500 0.000000 -0.312500
v 0.312500 0.125000 -0.375000
v 0.312500 0.125000 -0.312500
v 0.312500 0.000000 -0.250000
v 0.312500 0.125000 -0.250000
v 0.312500 0.000000 -0.187500
v 0.312500 0.187500 -0.250000
v 0.312500 0.187500 -0.187500
v 0.312500 0.000000 -0.125000
v 0.312500 0.187500 -0.125000
v 0.312500 0.000000 -0.062500
v 0.312500 0.250000 -0.125000
v 0.312500 0.250000 -0.062500
v 0.312500 0.000000 0.000000
v 0.312500 0.250000 0.000000
v 0.312500 0.000000 0.062500
v 0.312500 0.312500 0.000000
v 0.312500 0.312500 0.062500
v 0.312500 0.000000 0.125000
v 0.312500 0.312500 0.125000
v 0.312500 0.000000 0.187500
v 0.312500 0.375000 0.125000
v 0.312500 0.375000 0.187500
v 0.312500 0.000000 0.250000
v 0.312500 0.375000 0.250000
v 0.312500 0.000000 0.312500
v 0.312500 0.437500 0.250000
v 0.312500 0.437500 0.312500
v 0.312500 0.000000 0.375000
v 0.312500 0.437500 0.375000
v 0.312500 0.000000 0.437500
v 0.312500 0.500000 0.375000
v 0.312500 0.500000 0.437500
v 0.312500 0.000000 0.500000
v 0.312500 0.062500 0.500000
v 0.312500 0.125000 0.500000
v 0.312500 0.187500 0.500000
v 0.312500 0.250000 0.500000
v 0.312500 0.312500 0.500000
v 0.312500 0.375000 0.500000
v 0.312500 0.437500 0.500000
v 0.312500 0.500000 0.500000
v 0.375000 0.062500 -0.500000
v 0.375000 0.000000 -0.500000
v 0.375000 0.000000 -0.437500
v 0.375000 0.062500 -0.437500
v 0.375000 0.000000 -0.375000
v 0.375000 0.062500 -0.375000
v 0.375000 0.000000 -0.312500
v 0.375000 0.125000 -0.375000
v 0.375000 0.125000 -0.312500
v 0.375000 0.000000 -0.250000
v 0.375000 0.125000 -0.250000
v 0.375000 0.000000 -0.187500
v 0.375000 0.187500 -0.250000
v 0.375000 0.187500 -0.187500
v 0.375000 0.000000 -0.125000
v 0.375000 0.187500 -0.125000
v 0.375000 0.000000 -0.062500
v 0.375000 0.250000 -0.125000
v 0.375000 0.250000 -0.062500
v 0.375000 0.000000 0.000000
v 0.375000 0.250000 0.000000
v 0.375000 0.000000 0.062500
v 0.375000 0.312500 0.000000
v 0.375000 0.312500 0.062500
v 0.375000 0.000000 0.125000
v 0.375000 0.312500 0.125000
v 0.375000 0.000000 0.187500
v 0.375000 0.375000 0.125000
v 0.375000 0.375000 0.187500
v 0.375000 0.000000 0.250000
v 0.375000 0.375000 0.250000
v 0.375000 0.000000 0.312500
v 0.375000 0.437500 0.250000
v 0.375000 0.437500 0.312500
v 0.375000 0.000000 0.375000
v 0.375000 0.437500 0.375000
v 0.375000 0.000000 0.437500
v 0.375000 0.500000 0.375000
v 0.375000 0.500000 0.437500
v 0.375000 0.000000 0.500000
v 0.375000 0.062500 0.500000
v 0.375000 0.125000 0.500000
v 0.375000 0.187500 0.500000
v 0.375000 0.250000 0.500000
v 0.375000 0.312500 0.500000
v 0.375000 0.375000 0.500000
v 0.375000 0.437500 0.500000
v 0.375000 0.500000 0.500000
v 0.437500 0.062500 -0.500000
v 0.437500 0.000000 -0.500000
v 0.437500 0.000000 -0.437500
v 0.437500 0.062500 -0.437500
v 0.437500 0.000000 -0.375000
v 0.437500 0.062500 -0.375000
v 0.437500 0.000000 -0.312500
v 0.437500 0.125000 -0.375000
v 0.437500 0.125000 -0.312500
v 0.437500 0.000000 -0.250000
v 0.437500 0.125000 -0.250000
v 0.437500 0.000000 -0.187500
v 0.437500 0.187500 -0.250000
v 0.437500 0.187500 -0.187500
v 0.437500 0.000000 -0.125000
v 0.437500 0.187500 -0.125000
v 0.437500 0.000000 -0.062500
v 0.437500 0.250000 -0.125000
v 0.437500 0.250000 -0.062500
v 0.437500 0.000000 0.000000
v 0.437500 0.250000 0.000000
v 0.437500 0.000000 0.062500
v 0.437500 0.312500 0.000000
v 0.437500 0.312500 0.062500
v 0.437500 0.000000 0.125000
v 0.437500 0.312500 0.125000
v 0.437500 0.000000 0.187500
v 0.437500 0.375000 0.125000
v 0.437500 0.375000 0.187500
v 0.437500 0.000000 0.250000
v 0.437500 0.375000 0.250000
v 0.437500 0.000000 0.312500
v 0.437500 0.437500 0.250000
v 0.437500 0.437500 0.312500
v 0.437500 0.000000 0.375000
v 0.437500 0.437500 0.375000
v 0.437500 0.000000 0.437500
v 0.437500 0.500000 0.375000
v 0.437500 0.500000 0.437500
v 0.437500 0.000000 0.500000
v 0.437500 0.062500 0.500000
v 0.437500 0.125000 0.500000
v 0.437500 0.187500 0.500000
v 0.437500 0.250000 0.500000
v 0.437500 0.312500 0.500000
v 0.437500 0.375000 0.500000
v 0.437500 0.437500 0.500000
v 0.437500 0.500000 0.500000
v 0.500000 0.062500 -0.500000
v 0.500000 0.062500 -0.437500
v 0.500000 0.000000 -0.437500
v 0.500000 0.000000 -0.500000
v 0.500000 0.062500 -0.375000
v 0.500000 0.000000 -0.375000
v 0.500000 0.062500 -0.312500
v 0.500000 0.000000 -0.312500
v 0.500000 0.125000 -0.375000
v 0.500000 0.125000 -0.312500
v 0.500000 0.062500 -0.250000
v 0.500000 0.000000 -0.250000
v 0.500000 0.125000 -0.250000
v 0.500000 0.062500 -0.187500
v 0.500000 0.000000 -0.187500
v 0.500000 0.125000 -0.187500
v 0.500000 0.187500 -0.250000
v 0.500000 0.187500 -0.187500
v 0.500000 0.062500 -0.125000
v 0.500000 0.000000 -0.125000
v 0.500000 0.125000 -0.125000
v 0.500000 0.187500 -0.125000
v 0.500000 0.062500 -0.062500
v 0.500000 0.000000 -0.062500
v 0.500000 0.125000 -0.062500
v 0.500000 0.187500 -0.062500
v 0.500000 0.250000 -0.125000
v 0.500000 0.250000 -0.062500
v 0.500000 0.062500 0.000000
v 0.500000 0.000000 0.000000
v 0.500000 0.125000 0.000000
v 0.500000 0.187500 0.000000
v 0.500000 0.250000 0.000000
v 0.500000 0.062500 0.062500
v 0.500000 0.000000 0.062500
v 0.500000 0.125000 0.062500
v 0.500000 0.187500 0.062500
v 0.500000 0.250000 0.062500
v 0.500000 0.312500 0.000000
v 0.500000 0.312500 0.062500
v 0.500000 0.062500 0.125000
v 0.500000 0.000000 0.125000
v 0.500000 0.125000 0.125000
v 0.500000 0.187500 0.125000
v 0.500000 0.250000 0.125000
v 0.500000 0.312500 0.125000
v 0.500000 0.062500 0.187500
v 0.500000 0.000000 0.187500
v 0.500000 0.125000 0.187500
v 0.500000 0.187500 0.187500
v 0.500000 0.250000 0.187500
v 0.500000 0.312500 0.187500
v 0.500000 0.375000 0.125000
v 0.500000 0.375000 0.187500
v 0.500000 0.062500 0.250000
v 0.500000 0.000000 0.250000
v 0.500000 0.125000 0.250000
v 0.500000 0.187500 0.250000
v 0.500000 0.250000 0.250000
v 0.500000 0.312500 0.250000
v 0.500000 0.375000 0.250000
v 0.500000 0.062500 0.312500
v 0.500000 0.000000 0.312500
v 0.500000 0.125000 0.312500
v 0.500000 0.187500 0.312500
v 0.500000 0.250000 0.312500
v 0.500000 0.312500 0.312500
v 0.500000 0.375000 0.312500
v 0.500000 0.437500 0.250000
v 0.500000 0.437500 0.312500
v 0.500000 0.062500 0.375000
v 0.500000 0.000000 0.375000
v 0.500000 0.125000 0.375000
v 0.500000 0.187500 0.375000
v 0.500000 0.250000 0.375000
v 0.500000 0.312500 0.375000
v 0.500000 0.375000 0.375000
v 0.500000 0.437500 0.375000
v 0.500000 0.062500 0.437500
v 0.500000 0.000000 0.437500
v 0.500000 0.125000 0.437500
v 0.500000 0.187500 0.437500
v 0.500000 0.250000 0.437500
v 0.500000 0.312500 0.437500
v 0.500000 0.375000 0.437500
v 0.500000 0.437500 0.437500
v 0.500000 0.500000 0.375000
v 0.500000 0.500000 0.437500
v 0.500000 0.062500 0.500000
v 0.500000 0.000000 0.500000
v 0.500000 0.125000 0.500000
v 0.500000 0.187500 0.500000
v 0.500000 0.250000 0.500000
v 0.500000 0.312500 0.500000
v 0.500000 0.375000 0.500000
v 0.500000 0.437500 0.500000
v 0.500000 0.500000 0.500000
vt 0.03125000 0.96875000
vt 0.09375000 0.96875000
vt 0.15625000 0.96875000
vt 0.21875000 0.96875000
vt 0.28125000 0.96875000
vt 0.34375000 0.96875000
vt 0.40625000 0.96875000
vt 0.46875000 0.96875000
vt 0.53125000 0.96875000
vt 0.59375000 0.96875000
vt 0.65625000 0.96875000
vt 0.71875000 0.96875000
vt 0.78125000 0.96875000
vt 0.84375000 0.96875000
vt 0.90625000 0.96875000
vt 0.96875000 0.96875000
vt 0.03125000 0.90625000
vt 0.09375000 0.90625000
vt 0.15625000 0.90625000
vt 0.21875000 0.90625000
vt 0.28125000 0.90625000
vt 0.34375000 0.90625000
vt 0.40625000 0.90625000
vt 0.46875000 0.90625000
vt 0.53125000 0.90625000
vt 0.59375000 0.90625000
vt 0.65625000 0.90625000
vt 0.71875000 0.90625000
vt 0.78125000 0.90625000
vt 0.84375000 0.90625000
vt 0.90625000 0.90625000
vt 0.96875000 0.90625000
vt 0.03125000 0.84375000
vt 0.09375000 0.84375000
vt 0.15625000 0.84375000
vt 0.21875000 0.84375000
vt 0.28125000 0.84375000
vt 0.34375000 0.84375000
vt 0.40625000 0.84375000
vt 0.46875000 0.84375000
vt 0.53125000 0.84375000
vt 0.59375000 0.84375000
vt 0.65625000 0.84375000
vt 0.71875000 0.84375000
vt 0.78125000 0.84375000
vt 0.84375000 0.84375000
vt 0.90625000 0.84375000
vt 0.96875000 0.84375000
vt 0.03125000 0.78125000
vt 0.09375000 0.78125000
vt 0.15625000 0.78125000
vt 0.21875000 0.78125000
vt 0.28125000 0.78125000
vt 0.34375000 0.78125000
vt 0.40625000 0.78125000
vt 0.46875000 0.78125000
vt 0.53125000 0.78125000
vt 0.59375000 0.78125000
vt 0.65625000 0.78125000
vt 0.71875000 0.78125000
vt 0.78125000 0.78125000
vt 0.84375000 0.78125000
vt 0.90625000 0.78125000
vt 0.96875000 0.78125000
vt 0.03125000 0.71875000
vt 0.09375000 0.71875000
vt 0.15625000 0.71875000
vt 0.21875000 0.71875000
vt 0.28125000 0.71875000
vt 0.34375000 0.71875000
vt 0.40625000 0.71875000
vt 0.46875000 0.71875000
vt 0.53125000 0.71875000
vt 0.59375000 0.71875000
vt 0.65625000 0.71875000
vt 0.71875000 0.71875000
vt 0.78125000 0.71875000
vt 0.84375000 0.71875000
vt 0.90625000 0.71875000
vt 0.96875000 0.71875000
vt 0.03125000 0.65625000
vt 0.09375000 0.65625000
vt 0.15625000 0.65625000
vt 0.21875000 0.65625000
vt 0.28125000 0.65625000
vt 0.34375000 0.65625000
vt 0.40625000 0.65625000
vt 0.46875000 0.65625000
vt 0.53125000 0.65625000
vt 0.59375000 0.65625000
vt 0.65625000 0.65625000
vt 0.71875000 0.65625000
vt 0.78125000 0.65625000
vt 0.84375000 0.65625000
vt 0.90625000 0.65625000
vt 0.96875000 0.65625000
vt 0.03125000 0.59375000
vt 0.09375000 0.59375000
vt 0.15625000 0.59375000
vt 0.21875000 0.59375000
vt 0.28125000 0.59375000
vt 0.34375000 0.59375000
vt 0.40625000 0.59375000
vt 0.46875000 0.59375000
vt 0.53125000 0.59375000
vt 0.59375000 0.59375000
vt 0.65625000 0.59375000
vt 0.71875000 0.59375000
vt 0.78125000 0.59375000
vt 0.84375000 0.59375000
vt 0.90625000 0.59375000
vt 0.96875000 0.59375000
vt 0.03125000 0.53125000
vt 0.09375000 0.53125000
vt 0.15625000 0.53125000
vt 0.21875000 0.53125000
vt 0.28125000 0.53125000
vt 0.34375000 0.53125000
vt 0.40625000 0.53125000
vt 0.46875000 0.53125000
vt 0.53125000 0.53125000
vt 0.59375000 0.53125000
vt 0.65625000 0.53125000
vt 0.71875000 0.53125000
vt 0.78125000 0.53125000
vt 0.84375000 0.53125000
vt 0.90625000 0.53125000
vt 0.96875000 0.53125000
vt 0.03125000 0.46875000
vt 0.09375000 0.46875000
vt 0.15625000 0.46875000
vt 0.21875000 0.46875000
vt 0.28125000 0.46875000
vt 0.34375000 0.46875000
vt 0.40625000 0.46875000
vt 0.46875000 0.46875000
vt 0.53125000 0.46875000
vt 0.59375000 0.46875000
vt 0.65625000 0.46875000
vt 0.71875000 0.46875000
vt 0.78125000 0.46875000
vt 0.84375000 0.46875000
vt 0.90625000 0.46875000
vt 0.96875000 0.46875000
vt 0.03125000 0.40625000
vt 0.09375000 0.40625000
vt 0.15625000 0.40625000
vt 0.21875000 0.40625000
vt 0.28125000 0.40625000
vt 0.34375000 0.40625000
vt 0.40625000 0.40625000
vt 0.46875000 0.40625000
vt 0.53125000 0.40625000
vt 0.59375000 0.40625000
vt 0.65625000 0.40625000
vt 0.71875000 0.40625000
vt 0.78125000 0.40625000
vt 0.84375000 0.40625000
vt 0.90625000 0.40625000
vt 0.96875000 0.40625000
vt 0.03125000 0.34375000
vt 0.09375000 0.34375000
vt 0.15625000 0.34375000
vt 0.21875000 0.34375000
vt 0.28125000 0.34375000
vt 0.34375000 0.34375000
vt 0.40625000 0.34375000
vt 0.46875000 0.34375000
vt 0.53125000 0.34375000
vt 0.59375000 0.34375000
vt 0.65625000 0.34375000
vt 0.71875000 0.34375000
vt 0.78125000 0.34375000
vt 0.84375000 0.34375000
vt 0.90625000 0.34375000
vt 0.96875000 0.34375000
vt 0.03125000 0.28125000
vt 0.09375000 0.28125000
vt 0.15625000 0.28125000
vt 0.21875000 0.28125000
vt 0.28125000 0.28125000
vt 0.34375000 0.28125000
vt 0.40625000 0.28125000
vt 0.46875000 0.28125000
vt 0.53125000 0.28125000
vt 0.59375000 0.28125000
vt 0.65625000 0.28125000
vt 0.71875000 0.28125000
vt 0.78125000 0.28125000
vt 0.84375000 0.28125000
vt 0.90625000 0.28125000
vt 0.96875000 0.28125000
vt 0.03125000 0.21875000
vt 0.09375000 0.21875000
vt 0.15625000 0.21875000
vt 0.21875000 0.21875000
vt 0.28125000 0.21875000
vt 0.34375000 0.21875000
vt 0.40625000 0.21875000
vt 0.46875000 0.21875000
vt 0.53125000 0.21875000
vt 0.59375000 0.21875000
vt 0.65625000 0.21875000
vt 0.71875000 0.21875000
vt 0.78125000 0.21875000
vt 0.84375000 0.21875000
vt 0.90625000 0.21875000
vt 0.96875000 0.21875000
vt 0.03125000 0.15625000
vt 0.09375000 0.15625000
vt 0.15625000 0.15625000
vt 0.21875000 0.15625000
vt 0.28125000 0.15625000
vt 0.34375000 0.15625000
vt 0.40625000 0.15625000
vt 0.46875000 0.15625000
vt 0.53125000 0.15625000
vt 0.59375000 0.15625000
vt 0.65625000 0.15625000
vt 0.71875000 0.15625000
vt 0.78125000 0.15625000
vt 0.84375000 0.15625000
vt 0.90625000 0.15625000
vt 0.96875000 0.15625000
vt 0.03125000 0.09375000
vt 0.09375000 0.09375000
vt 0.15625000 0.09375000
vt 0.21875000 0.09375000
vt 0.28125000 0.09375000
vt 0.34375000 0.09375000
vt 0.40625000 0.09375000
vt 0.46875000 0.09375000
vt 0.53125000 0.09375000
vt 0.59375000 0.09375000
vt 0.65625000 0.09375000
vt 0.71875000 0.09375000
vt 0.78125000 0.09375000
vt 0.84375000 0.09375000
vt 0.90625000 0.09375000
vt 0.96875000 0.09375000
vt 0.03125000 0.03125000
vt 0.09375000 0.03125000
vt 0.15625000 0.03125000
vt 0.21875000 0.03125000
vt 0.28125000 0.03125000
vt 0.34375000 0.03125000
vt 0.40625000 0.03125000
vt 0.46875000 0.03125000
vt 0.53125000 0.03125000
vt 0.59375000 0.03125000
vt 0.65625000 0.03125000
vt 0.71875000 0.03125000
vt 0.78125000 0.03125000
vt 0.84375000 0.03125000
vt 0.90625000 0.03125000
vt 0.96875000 0.03125000
vn -1 0 0
vn 1 0 0
vn 0 0 -1
vn 0 0 1
vn 0 -1 0
vn 0 1 0
g palette
usemtl palette
f 1/5/1 2/5/1 3/5/1 4/5/1
f 3/5/3 5/5/3 6/5/3 4/5/3
f 6/5/5 7/5/5 1/5/5 4/5/5
f 2/5/6 8/5/6 5/5/6 3/5/6
f 9/5/1 10/5/1 2/5/1 1/5/1
f 7/5/5 11/5/5 9/5/5 1/5/5
f 10/5/6 12/5/6 8/5/6 2/5/6
f 13/4/1 14/4/1 10/4/1 9/4/1
f 11/4/5 15/4/5 13/4/5 9/4/5
f 14/5/1 16/5/1 17/5/1 10/5/1
f 17/5/3 18/5/3 12/5/3 10/5/3
f 16/5/6 19/5/6 18/5/6 17/5/6
f 20/4/1 21/4/1 14/4/1 13/4/1
f 15/4/5 22/4/5 20/4/5 13/4/5
f 21/5/1 23/5/1 16/5/1 14/5/1
f 23/5/6 24/5/6 19/5/6 16/5/6
f 25/4/1 26/4/1 21/4/1 20/4/1
f 22/4/5 27/4/5 25/4/5 20/4/5
f 26/4/1 28/4/1 23/4/1 21/4/1
f 28/5/1 29/5/1 30/5/1 23/5/1
f 30/5/3 31/5/3 24/5/3 23/5/3
f 29/5/6 32/5/6 31/5/6 30/5/6
f 33/4/1 34/4/1 26/4/1 25/4/1
f 27/4/5 35/4/5 33/4/5 25/4/5
f 34/4/1 36/4/1 28/4/1 26/4/1
f 36/11/1 37/11/1 29/11/1 28/11/1
f 37/11/6 38/11/6 32/11/6 29/11/6
f 39/4/1 40/4/1 34/4/1 33/4/1
f 35/4/5 41/4/5 39/4/5 33/4/5
f 40/4/1 42/4/1 36/4/1 34/4/1
f 42/4/1 43/4/1 37/4/1 36/4/1
f 43/5/1 44/5/1 45/5/1 37/5/1
f 45/5/3 46/5/3 38/5/3 37/5/3
f 44/5/6 47/5/6 46/5/6 45/5/6
f 48/4/1 49/4/1 40/4/1 39/4/1
f 41/4/5 50/4/5 48/4/5 39/4/5
f 49/4/1 51/4/1 42/4/1 40/4/1
f 51/4/1 52/4/1 43/4/1 42/4/1
f 52/5/1 53/5/1 44/5/1 43/5/1
f 53/5/6 54/5/6 47/5/6 44/5/6
f 55/4/1 56/4/1 49/4/1 48/4/1
f 50/4/5 57/4/5 55/4/5 48/4/5
f 56/4/1 58/4/1 51/4/1 49/4/1
f 58/4/1 59/4/1 52/4/1 51/4/1
f 59/4/1 60/4/1 53/4/1 52/4/1
f 60/5/1 61/5/1 62/5/1 53/5/1
f 62/5/3 63/5/3 54/5/3 53/5/3
f 61/5/6 64/5/6 63/5/6 62/5/6
f 65/4/1 66/4/1 56/4/1 55/4/1
f 57/4/5 67/4/5 65/4/5 55/4/5
f 66/4/1 68/4/1 58/4/1 56/4/1
f 68/4/1 69/4/1 59/4/1 58/4/1
f 69/4/1 70/4/1 60/4/1 59/4/1
f 70/5/1 71/5/1 61/5/1 60/5/1
f 71/5/6 72/5/6 64/5/6 61/5/6
f 73/4/1 74/4/1 66/4/1 65/4/1
f 67/4/5 75/4/5 73/4/5 65/4/5
f 74/4/1 76/4/1 68/4/1 66/4/1
f 76/4/1 77/4/1 69/4/1 68/4/1
f 77/4/1 78/4/1 70/4/1 69/4/1
f 78/4/1 79/4/1 71/4/1 70/4/1
f 79/5/1 80/5/1 81/5/1 71/5/1
f 81/5/3 82/5/3 72/5/3 71/5/3
f 80/5/6 83/5/6 82/5/6 81/5/6
f 84/4/1 85/4/1 74/4/1 73/4/1
f 75/4/5 86/4/5 84/4/5 73/4/5
f 85/4/1 87/4/1 76/4/1 74/4/1
f 87/4/1 88/4/1 77/4/1 76/4/1
f 88/4/1 89/4/1 78/4/1 77/4/1
f 89/4/1 90/4/1 79/4/1 78/4/1
f 90/5/1 91/5/1 80/5/1 79/5/1
f 91/5/6 92/5/6 83/5/6 80/5/6
f 93/4/1 94/4/1 85/4/1 84/4/1
f 86/4/5 95/4/5 93/4/5 84/4/5
f 94/4/1 96/4/1 87/4/1 85/4/1
f 96/4/1 97/4/1 88/4/1 87/4/1
f 97/4/1 98/4/1 89/4/1 88/4/1
f 98/4/1 99/4/1 90/4/1 89/4/1
f 99/4/1 100/4/1 91/4/1 90/4/1
f 100/5/1 101/5/1 102/5/1 91/5/1
f 102/5/3 103/5/3 92/5/3 91/5/3
f 101/5/6 104/5/6 103/5/6 102/5/6
f 105/4/1 106/4/1 94/4/1 93/4/1
f 95/4/5 107/4/5 105/4/5 93/4/5
f 106/4/1 108/4/1 96/4/1 94/4/1
f 108/4/1 109/4/1 97/4/1 96/4/1
f 109/4/1 110/4/1 98/4/1 97/4/1
f 110/4/1 111/4/1 99/4/1 98/4/1
f 111/4/1 112/4/1 100/4/1 99/4/1
f 112/5/1 113/5/1 101/5/1 100/5/1
f 113/5/6 114/5/6 104/5/6 101/5/6
f 115/4/1 116/4/1 106/4/1 105/4/1
f 107/4/5 117/4/5 115/4/5 105/4/5
f 116/4/1 118/4/1 108/4/1 106/4/1
f 118/4/1 119/4/1 109/4/1 108/4/1
f 119/4/1 120/4/1 110/4/1 109/4/1
f 120/4/1 121/4/1 111/4/1 110/4/1
f 121/4/1 122/4/1 112/4/1 111/4/1
f 122/4/1 123/4/1 113/4/1 112/4/1
f 123/5/1 124/5/1 125/5/1 113/5/1
f 125/5/3 126/5/3 114/5/3 113/5/3
f 124/5/6 127/5/6 126/5/6 125/5/6
f 128/4/1 129/4/1 116/4/1 115/4/1
f 130/4/4 131/4/4 129/4/4 128/4/4
f 117/4/5 130/4/5 128/4/5 115/4/5
f 129/4/1 132/4/1 118/4/1 116/4/1
f 131/4/4 133/4/4 132/4/4 129/4/4
f 132/4/1 134/4/1 119/4/1 118/4/1
f 133/4/4 135/4/4 134/4/4 132/4/4
f 134/4/1 136/4/1 120/4/1 119/4/1
f 135/4/4 137/4/4 136/4/4 134/4/4
f 136/4/1 138/4/1 121/4/1 120/4/1
f 137/4/4 139/4/4 138/4/4 136/4/4
f 138/4/1 140/4/1 122/4/1 121/4/1
f 139/4/4 141/4/4 140/4/4 138/4/4
f 140/4/1 142/4/1 123/4/1 122/4/1
f 141/4/4 143/4/4 142/4/4 140/4/4
f 142/5/1 144/5/1 124/5/1 123/5/1
f 143/5/4 145/5/4 144/5/4 142/5/4
f 144/5/6 145/5/6 127/5/6 124/5/6
f 5/5/3 146/5/3 147/5/3 6/5/3
f 147/5/5 148/5/5 7/5/5 6/5/5
f 8/5/6 149/5/6 146/5/6 5/5/6
f 148/5/5 150/5/5 11/5/5 7/5/5
f 12/5/6 151/5/6 149/5/6 8/5/6
f 150/4/5 152/4/5 15/4/5 11/4/5
f 18/5/3 153/5/3 151/5/3 12/5/3
f 19/5/6 154/5/6 153/5/6 18/5/6
f 152/4/5 155/4/5 22/4/5 15/4/5
f 24/5/6 156/5/6 154/5/6 19/5/6
f 155/4/5 157/4/5 27/4/5 22/4/5
f 31/5/3 158/5/3 156/5/3 24/5/3
f 32/5/6 159/5/6 158/5/6 31/5/6
f 157/4/5 160/4/5 35/4/5 27/4/5
f 38/5/6 161/5/6 159/5/6 32/5/6
f 160/4/5 162/4/5 41/4/5 35/4/5
f 46/5/3 163/5/3 161/5/3 38/5/3
f 47/5/6 164/5/6 163/5/6 46/5/6
f 162/4/5 165/4/5 50/4/5 41/4/5
f 54/5/6 166/5/6 164/5/6 47/5/6
f 165/4/5 167/4/5 57/4/5 50/4/5
f 63/5/3 168/5/3 166/5/3 54/5/3
f 64/5/6 169/5/6 168/5/6 63/5/6
f 167/4/5 170/4/5 67/4/5 57/4/5
f 72/5/6 171/5/6 169/5/6 64/5/6
f 170/4/5 172/4/5 75/4/5 67/4/5
f 82/5/3 173/5/3 171/5/3 72/5/3
f 83/5/6 174/5/6 173/5/6 82/5/6
f 172/4/5 175/4/5 86/4/5 75/4/5
f 92/5/6 176/5/6 174/5/6 83/5/6
f 175/4/5 177/4/5 95/4/5 86/4/5
f 103/5/3 178/5/3 176/5/3 92/5/3
f 104/5/6 179/5/6 178/5/6 103/5/6
f 177/4/5 180/4/5 107/4/5 95/4/5
f 114/5/6 181/5/6 179/5/6 104/5/6
f 180/4/5 182/4/5 117/4/5 107/4/5
f 126/5/3 183/5/3 181/5/3 114/5/3
f 127/5/6 184/5/6 183/5/6 126/5/6
f 185/4/4 186/4/4 131/4/4 130/4/4
f 182/4/5 185/4/5 130/4/5 117/4/5
f 186/4/4 187/4/4 133/4/4 131/4/4
f 187/4/4 188/4/4 135/4/4 133/4/4
f 188/4/4 189/4/4 137/4/4 135/4/4
f 189/4/4 190/4/4 139/4/4 137/4/4
f 190/4/4 191/4/4 141/4/4 139/4/4
f 191/4/4 192/4/4 143/4/4 141/4/4
f 192/5/4 193/5/4 145/5/4 143/5/4
f 145/5/6 193/5/6 184/5/6 127/5/6
f 146/5/3 194/5/3 195/5/3 147/5/3
f 195/5/5 196/5/5 148/5/5 147/5/5
f 149/5/6 197/5/6 194/5/6 146/5/6
f 196/5/5 198/5/5 150/5/5 148/5/5
f 151/5/6 199/5/6 197/5/6 149/5/6
f 198/4/5 200/4/5 152/4/5 150/4/5
f 153/5/3 201/5/3 199/5/3 151/5/3
f 154/5/6 202/5/6 201/5/6 153/5/6
f 200/4/5 203/4/5 155/4/5 152/4/5
f 156/5/6 204/5/6 202/5/6 154/5/6
f 203/4/5 205/4/5 157/4/5 155/4/5
f 158/5/3 206/5/3 204/5/3 156/5/3
f 159/5/6 207/5/6 206/5/6 158/5/6
f 205/4/5 208/4/5 160/4/5 157/4/5
f 161/5/6 209/5/6 207/5/6 159/5/6
f 208/4/5 210/4/5 162/4/5 160/4/5
f 163/5/3 211/5/3 209/5/3 161/5/3
f 164/5/6 212/5/6 211/5/6 163/5/6
f 210/4/5 213/4/5 165/4/5 162/4/5
f 166/5/6 214/5/6 212/5/6 164/5/6
f 213/4/5 215/4/5 167/4/5 165/4/5
f 168/5/3 216/5/3 214/5/3 166/5/3
f 169/5/6 217/5/6 216/5/6 168/5/6
f 215/4/5 218/4/5 170/4/5 167/4/5
f 171/5/6 219/5/6 217/5/6 169/5/6
f 218/4/5 220/4/5 172/4/5 170/4/5
f 173/5/3 221/5/3 219/5/3 171/5/3
f 174/5/6 222/5/6 221/5/6 173/5/6
f 220/4/5 223/4/5 175/4/5 172/4/5
f 176/5/6 224/5/6 222/5/6 174/5/6
f 223/4/5 225/4/5 177/4/5 175/4/5
f 178/5/3 226/5/3 224/5/3 176/5/3
f 179/5/6 227/5/6 226/5/6 178/5/6
f 225/4/5 228/4/5 180/4/5 177/4/5
f 181/5/6 229/5/6 227/5/6 179/5/6
f 228/4/5 230/4/5 182/4/5 180/4/5
f 183/5/3 231/5/3 229/5/3 181/5/3
f 184/5/6 232/5/6 231/5/6 183/5/6
f 233/4/4 234/4/4 186/4/4 185/4/4
f 230/4/5 233/4/5 185/4/5 182/4/5
f 234/4/4 235/4/4 187/4/4 186/4/4
f 235/4/4 236/4/4 188/4/4 187/4/4
f 236/4/4 237/4/4 189/4/4 188/4/4
f 237/4/4 238/4/4 190/4/4 189/4/4
f 238/4/4 239/4/4 191/4/4 190/4/4
f 239/5/4 240/5/4 192/5/4 191/5/4
f 240/5/4 241/5/4 193/5/4 192/5/4
f 193/5/6 241/5/6 232/5/6 184/5/6
f 194/5/3 242/5/3 243/5/3 195/5/3
f 243/5/5 244/5/5 196/5/5 195/5/5
f 197/5/6 245/5/6 242/5/6 194/5/6
f 244/5/5 246/5/5 198/5/5 196/5/5
f 199/5/6 247/5/6 245/5/6 197/5/6
f 246/4/5 248/4/5 200/4/5 198/4/5
f 201/5/3 249/5/3 247/5/3 199/5/3
f 202/5/6 250/5/6 249/5/6 201/5/6
f 248/4/5 251/4/5 203/4/5 200/4/5
f 204/5/6 252/5/6 250/5/6 202/5/6
f 251/4/5 253/4/5 205/4/5 203/4/5
f 206/5/3 254/5/3 252/5/3 204/5/3
f 207/5/6 255/5/6 254/5/6 206/5/6
f 253/4/5 256/4/5 208/4/5 205/4/5
f 209/5/6 257/5/6 255/5/6 207/5/6
f 256/4/5 258/4/5 210/4/5 208/4/5
f 211/5/3 259/5/3 257/5/3 209/5/3
f 212/5/6 260/5/6 259/5/6 211/5/6
f 258/4/5 261/4/5 213/4/5 210/4/5
f 214/5/6 262/5/6 260/5/6 212/5/6
f 261/4/5 263/4/5 215/4/5 213/4/5
f 216/5/3 264/5/3 262/5/3 214/5/3
f 217/5/6 265/5/6 264/5/6 216/5/6
f 263/4/5 266/4/5 218/4/5 215/4/5
f 219/5/6 267/5/6 265/5/6 217/5/6
f 266/4/5 268/4/5 220/4/5 218/4/5
f 221/5/3 269/5/3 267/5/3 219/5/3
f 222/5/6 270/5/6 269/5/6 221/5/6
f 268/4/5 271/4/5 223/4/5 220/4/5
f 224/5/6 272/5/6 270/5/6 222/5/6
f 271/4/5 273/4/5 225/4/5 223/4/5
f 226/5/3 274/5/3 272/5/3 224/5/3
f 227/5/6 275/5/6 274/5/6 226/5/6
f 273/4/5 276/4/5 228/4/5 225/4/5
f 229/5/6 277/5/6 275/5/6 227/5/6
f 276/4/5 278/4/5 230/4/5 228/4/5
f 231/5/3 279/5/3 277/5/3 229/5/3
f 232/5/6 280/5/6 279/5/6 231/5/6
f 281/5/4 282/5/4 234/5/4 233/5/4
f 278/5/5 281/5/5 233/5/5 230/5/5
f 282/4/4 283/4/4 235/4/4 234/4/4
f 283/4/4 284/4/4 236/4/4 235/4/4
f 284/4/4 285/4/4 237/4/4 236/4/4
f 285/4/4 286/4/4 238/4/4 237/4/4
f 286/11/4 287/11/4 239/11/4 238/11/4
f 287/4/4 288/4/4 240/4/4 239/4/4
f 288/5/4 289/5/4 241/5/4 240/5/4
f 241/5/6 289/5/6 280/5/6 232/5/6
f 242/5/3 290/5/3 291/5/3 243/5/3
f 291/5/5 292/5/5 244/5/5 243/5/5
f 245/5/6 293/5/6 290/5/6 242/5/6
f 292/5/5 294/5/5 246/5/5 244/5/5
f 247/5/6 295/5/6 293/5/6 245/5/6
f 294/4/5 296/4/5 248/4/5 246/4/5
f 249/5/3 297/5/3 295/5/3 247/5/3
f 250/5/6 298/5/6 297/5/6 249/5/6
f 296/4/5 299/4/5 251/4/5 248/4/5
f 252/5/6 300/5/6 298/5/6 250/5/6
f 299/4/5 301/4/5 253/4/5 251/4/5
f 254/5/3 302/5/3 300/5/3 252/5/3
f 255/5/6 303/5/6 302/5/6 254/5/6
f 301/4/5 304/4/5 256/4/5 253/4/5
f 257/5/6 305/5/6 303/5/6 255/5/6
f 304/4/5 306/4/5 258/4/5 256/4/5
f 259/5/3 307/5/3 305/5/3 257/5/3
f 260/5/6 308/5/6 307/5/6 259/5/6
f 306/4/5 309/4/5 261/4/5 258/4/5
f 262/5/6 310/5/6 308/5/6 260/5/6
f 309/4/5 311/4/5 263/4/5 261/4/5
f 264/11/3 312/11/3 310/11/3 262/11/3
f 265/11/6 313/11/6 312/11/6 264/11/6
f 311/4/5 314/4/5 266/4/5 263/4/5
f 267/5/6 315/5/6 313/5/6 265/5/6
f 314/4/5 316/4/5 268/4/5 266/4/5
f 269/5/3 317/5/3 315/5/3 267/5/3
f 270/5/6 318/5/6 317/5/6 269/5/6
f 316/4/5 319/4/5 271/4/5 268/4/5
f 272/5/6 320/5/6 318/5/6 270/5/6
f 319/4/5 321/4/5 273/4/5 271/4/5
f 274/5/3 322/5/3 320/5/3 272/5/3
f 275/5/6 323/5/6 322/5/6 274/5/6
f 321/4/5 324/4/5 276/4/5 273/4/5
f 277/5/6 325/5/6 323/5/6 275/5/6
f 324/4/5 326/4/5 278/4/5 276/4/5
f 279/5/3 327/5/3 325/5/3 277/5/3
f 280/5/6 328/5/6 327/5/6 279/5/6
f 329/4/4 330/4/4 282/4/4 281/4/4
f 326/4/5 329/4/5 281/4/5 278/4/5
f 330/4/4 331/4/4 283/4/4 282/4/4
f 331/4/4 332/4/4 284/4/4 283/4/4
f 332/4/4 333/4/4 285/4/4 284/4/4
f 333/4/4 334/4/4 286/4/4 285/4/4
f 334/4/4 335/4/4 287/4/4 286/4/4
f 335/4/4 336/4/4 288/4/4 287/4/4
f 336/5/4 337/5/4 289/5/4 288/5/4
f 289/5/6 337/5/6 328/5/6 280/5/6
f 290/5/3 338/5/3 339/5/3 291/5/3
f 339/5/5 340/5/5 292/5/5 291/5/5
f 293/5/6 341/5/6 338/5/6 290/5/6
f 340/11/5 342/11/5 294/11/5 292/11/5
f 295/11/6 343/11/6 341/11/6 293/11/6
f 342/4/5 344/4/5 296/4/5 294/4/5
f 297/5/3 345/5/3 343/5/3 295/5/3
f 298/5/6 346/5/6 345/5/6 297/5/6
f 344/4/5 347/4/5 299/4/5 296/4/5
f 300/5/6 348/5/6 346/5/6 298/5/6
f 347/4/5 349/4/5 301/4/5 299/4/5
f 302/5/3 350/5/3 348/5/3 300/5/3
f 303/5/6 351/5/6 350/5/6 302/5/6
f 349/4/5 352/4/5 304/4/5 301/4/5
f 305/5/6 353/5/6 351/5/6 303/5/6
f 352/4/5 354/4/5 306/4/5 304/4/5
f 307/5/3 355/5/3 353/5/3 305/5/3
f 308/5/6 356/5/6 355/5/6 307/5/6
f 354/4/5 357/4/5 309/4/5 306/4/5
f 310/5/6 358/5/6 356/5/6 308/5/6
f 357/4/5 359/4/5 311/4/5 309/4/5
f 312/5/3 360/5/3 358/5/3 310/5/3
f 313/5/6 361/5/6 360/5/6 312/5/6
f 359/4/5 362/4/5 314/4/5 311/4/5
f 315/5/6 363/5/6 361/5/6 313/5/6
f 362/4/5 364/4/5 316/4/5 314/4/5
f 317/5/3 365/5/3 363/5/3 315/5/3
f 318/5/6 366/5/6 365/5/6 317/5/6
f 364/4/5 367/4/5 319/4/5 316/4/5
f 320/5/6 368/5/6 366/5/6 318/5/6
f 367/4/5 369/4/5 321/4/5 319/4/5
f 322/5/3 370/5/3 368/5/3 320/5/3
f 323/5/6 371/5/6 370/5/6 322/5/6
f 369/4/5 372/4/5 324/4/5 321/4/5
f 325/5/6 373/5/6 371/5/6 323/5/6
f 372/4/5 374/4/5 326/4/5 324/4/5
f 327/5/3 375/5/3 373/5/3 325/5/3
f 328/5/6 376/5/6 375/5/6 327/5/6
f 377/4/4 378/4/4 330/4/4 329/4/4
f 374/4/5 377/4/5 329/4/5 326/4/5
f 378/4/4 379/4/4 331/4/4 330/4/4
f 379/4/4 380/4/4 332/4/4 331/4/4
f 380/4/4 381/4/4 333/4/4 332/4/4
f 381/4/4 382/4/4 334/4/4 333/4/4
f 382/4/4 383/4/4 335/4/4 334/4/4
f 383/4/4 384/4/4 336/4/4 335/4/4
f 384/5/4 385/5/4 337/5/4 336/5/4
f 337/5/6 385/5/6 376/5/6 328/5/6
f 338/5/3 386/5/3 387/5/3 339/5/3
f 387/5/5 388/5/5 340/5/5 339/5/5
f 341/5/6 389/5/6 386/5/6 338/5/6
f 388/5/5 390/5/5 342/5/5 340/5/5
f 343/5/6 391/5/6 389/5/6 341/5/6
f 390/4/5 392/4/5 344/4/5 342/4/5
f 345/5/3 393/5/3 391/5/3 343/5/3
f 346/5/6 394/5/6 393/5/6 345/5/6
f 392/4/5 395/4/5 347/4/5 344/4/5
f 348/5/6 396/5/6 394/5/6 346/5/6
f 395/4/5 397/4/5 349/4/5 347/4/5
f 350/5/3 398/5/3 396/5/3 348/5/3
f 351/5/6 399/5/6 398/5/6 350/5/6
f 397/4/5 400/4/5 352/4/5 349/4/5
f 353/5/6 401/5/6 399/5/6 351/5/6
f 400/4/5 402/4/5 354/4/5 352/4/5
f 355/5/3 403/5/3 401/5/3 353/5/3
f 356/5/6 404/5/6 403/5/6 355/5/6
f 402/4/5 405/4/5 357/4/5 354/4/5
f 358/5/6 406/5/6 404/5/6 356/5/6
f 405/4/5 407/4/5 359/4/5 357/4/5
f 360/5/3 408/5/3 406/5/3 358/5/3
f 361/5/6 409/5/6 408/5/6 360/5/6
f 407/4/5 410/4/5 362/4/5 359/4/5
f 363/5/6 411/5/6 409/5/6 361/5/6
f 410/4/5 412/4/5 364/4/5 362/4/5
f 365/5/3 413/5/3 411/5/3 363/5/3
f 366/5/6 414/5/6 413/5/6 365/5/6
f 412/4/5 415/4/5 367/4/5 364/4/5
f 368/5/6 416/5/6 414/5/6 366/5/6
f 415/4/5 417/4/5 369/4/5 367/4/5
f 370/5/3 418/5/3 416/5/3 368/5/3
f 371/5/6 419/5/6 418/5/6 370/5/6
f 417/4/5 420/4/5 372/4/5 369/4/5
f 373/5/6 421/5/6 419/5/6 371/5/6
f 420/4/5 422/4/5 374/4/5 372/4/5
f 375/5/3 423/5/3 421/5/3 373/5/3
f 376/5/6 424/5/6 423/5/6 375/5/6
f 425/4/4 426/4/4 378/4/4 377/4/4
f 422/4/5 425/4/5 377/4/5 374/4/5
f 426/4/4 427/4/4 379/4/4 378/4/4
f 427/4/4 428/4/4 380/4/4 379/4/4
f 428/4/4 429/4/4 381/4/4 380/4/4
f 429/4/4 430/4/4 382/4/4 381/4/4
f 430/4/4 431/4/4 383/4/4 382/4/4
f 431/4/4 432/4/4 384/4/4 383/4/4
f 432/5/4 433/5/4 385/5/4 384/5/4
f 385/5/6 433/5/6 424/5/6 376/5/6
f 386/5/3 434/5/3 435/5/3 387/5/3
f 435/5/5 436/5/5 388/5/5 387/5/5
f 389/5/6 437/5/6 434/5/6 386/5/6
f 436/5/5 438/5/5 390/5/5 388/5/5
f 391/5/6 439/5/6 437/5/6 389/5/6
f 438/4/5 440/4/5 392/4/5 390/4/5
f 393/5/3 441/5/3 439/5/3 391/5/3
f 394/5/6 442/5/6 441/5/6 393/5/6
f 440/4/5 443/4/5 395/4/5 392/4/5
f 396/5/6 444/5/6 442/5/6 394/5/6
f 443/4/5 445/4/5 397/4/5 395/4/5
f 398/5/3 446/5/3 444/5/3 396/5/3
f 399/5/6 447/5/6 446/5/6 398/5/6
f 445/4/5 448/4/5 400/4/5 397/4/5
f 401/5/6 449/5/6 447/5/6 399/5/6
f 448/4/5 450/4/5 402/4/5 400/4/5
f 403/11/3 451/11/3 449/11/3 401/11/3
f 404/11/6 452/11/6 451/11/6 403/11/6
f 450/4/5 453/4/5 405/4/5 402/4/5
f 406/5/6 454/5/6 452/5/6 404/5/6
f 453/4/5 455/4/5 407/4/5 405/4/5
f 408/5/3 456/5/3 454/5/3 406/5/3
f 409/5/6 457/5/6 456/5/6 408/5/6
f 455/4/5 458/4/5 410/4/5 407/4/5
f 411/5/6 459/5/6 457/5/6 409/5/6
f 458/4/5 460/4/5 412/4/5 410/4/5
f 413/5/3 461/5/3 459/5/3 411/5/3
f 414/5/6 462/5/6 461/5/6 413/5/6
f 460/4/5 463/4/5 415/4/5 412/4/5
f 416/5/6 464/5/6 462/5/6 414/5/6
f 463/4/5 465/4/5 417/4/5 415/4/5
f 418/5/3 466/5/3 464/5/3 416/5/3
f 419/5/6 467/5/6 466/5/6 418/5/6
f 465/4/5 468/4/5 420/4/5 417/4/5
f 421/5/6 469/5/6 467/5/6 419/5/6
f 468/4/5 470/4/5 422/4/5 420/4/5
f 423/5/3 471/5/3 469/5/3 421/5/3
f 424/5/6 472/5/6 471/5/6 423/5/6
f 473/5/4 474/5/4 426/5/4 425/5/4
f 470/5/5 473/5/5 425/5/5 422/5/5
f 474/4/4 475/4/4 427/4/4 426/4/4
f 475/4/4 476/4/4 428/4/4 427/4/4
f 476/4/4 477/4/4 429/4/4 428/4/4
f 477/4/4 478/4/4 430/4/4 429/4/4
f 478/4/4 479/4/4 431/4/4 430/4/4
f 479/4/4 480/4/4 432/4/4 431/4/4
f 480/5/4 481/5/4 433/5/4 432/5/4
f 433/5/6 481/5/6 472/5/6 424/5/6
f 434/5/3 482/5/3 483/5/3 435/5/3
f 483/5/5 484/5/5 436/5/5 435/5/5
f 437/5/6 485/5/6 482/5/6 434/5/6
f 484/5/5 486/5/5 438/5/5 436/5/5
f 439/5/6 487/5/6 485/5/6 437/5/6
f 486/4/5 488/4/5 440/4/5 438/4/5
f 441/5/3 489/5/3 487/5/3 439/5/3
f 442/5/6 490/5/6 489/5/6 441/5/6
f 488/4/5 491/4/5 443/4/5 440/4/5
f 444/5/6 492/5/6 490/5/6 442/5/6
f 491/4/5 493/4/5 445/4/5 443/4/5
f 446/5/3 494/5/3 492/5/3 444/5/3
f 447/5/6 495/5/6 494/5/6 446/5/6
f 493/4/5 496/4/5 448/4/5 445/4/5
f 449/5/6 497/5/6 495/5/6 447/5/6
f 496/4/5 498/4/5 450/4/5 448/4/5
f 451/5/3 499/5/3 497/5/3 449/5/3
f 452/5/6 500/5/6 499/5/6 451/5/6
f 498/4/5 501/4/5 453/4/5 450/4/5
f 454/5/6 502/5/6 500/5/6 452/5/6
f 501/11/5 503/11/5 455/11/5 453/11/5
f 456/5/3 504/5/3 502/5/3 454/5/3
f 457/5/6 505/5/6 504/5/6 456/5/6
f 503/4/5 506/4/5 458/4/5 455/4/5
f 459/5/6 507/5/6 505/5/6 457/5/6
f 506/4/5 508/4/5 460/4/5 458/4/5
f 461/5/3 509/5/3 507/5/3 459/5/3
f 462/5/6 510/5/6 509/5/6 461/5/6
f 508/4/5 511/4/5 463/4/5 460/4/5
f 464/5/6 512/5/6 510/5/6 462/5/6
f 511/4/5 513/4/5 465/4/5 463/4/5
f 466/5/3 514/5/3 512/5/3 464/5/3
f 467/5/6 515/5/6 514/5/6 466/5/6
f 513/4/5 516/4/5 468/4/5 465/4/5
f 469/5/6 517/5/6 515/5/6 467/5/6
f 516/4/5 518/4/5 470/4/5 468/4/5
f 471/5/3 519/5/3 517/5/3 469/5/3
f 472/5/6 520/5/6 519/5/6 471/5/6
f 521/4/4 522/4/4 474/4/4 473/4/4
f 518/4/5 521/4/5 473/4/5 470/4/5
f 522/4/4 523/4/4 475/4/4 474/4/4
f 523/4/4 524/4/4 476/4/4 475/4/4
f 524/4/4 525/4/4 477/4/4 476/4/4
f 525/4/4 526/4/4 478/4/4 477/4/4
f 526/4/4 527/4/4 479/4/4 478/4/4
f 527/4/4 528/4/4 480/4/4 479/4/4
f 528/5/4 529/5/4 481/5/4 480/5/4
f 481/5/6 529/5/6 520/5/6 472/5/6
f 482/5/3 530/5/3 531/5/3 483/5/3
f 531/5/5 532/5/5 484/5/5 483/5/5
f 485/5/6 533/5/6 530/5/6 482/5/6
f 532/5/5 534/5/5 486/5/5 484/5/5
f 487/5/6 535/5/6 533/5/6 485/5/6
f 534/4/5 536/4/5 488/4/5 486/4/5
f 489/5/3 537/5/3 535/5/3 487/5/3
f 490/5/6 538/5/6 537/5/6 489/5/6
f 536/4/5 539/4/5 491/4/5 488/4/5
f 492/5/6 540/5/6 538/5/6 490/5/6
f 539/4/5 541/4/5 493/4/5 491/4/5
f 494/5/3 542/5/3 540/5/3 492/5/3
f 495/5/6 543/5/6 542/5/6 494/5/6
f 541/4/5 544/4/5 496/4/5 493/4/5
f 497/5/6 545/5/6 543/5/6 495/5/6
f 544/4/5 546/4/5 498/4/5 496/4/5
f 499/5/3 547/5/3 545/5/3 497/5/3
f 500/5/6 548/5/6 547/5/6 499/5/6
f 546/4/5 549/4/5 501/4/5 498/4/5
f 502/5/6 550/5/6 548/5/6 500/5/6
f 549/4/5 551/4/5 503/4/5 501/4/5
f 504/5/3 552/5/3 550/5/3 502/5/3
f 505/5/6 553/5/6 552/5/6 504/5/6
f 551/4/5 554/4/5 506/4/5 503/4/5
f 507/11/6 555/11/6 553/11/6 505/11/6
f 554/4/5 556/4/5 508/4/5 506/4/5
f 509/5/3 557/5/3 555/5/3 507/5/3
f 510/5/6 558/5/6 557/5/6 509/5/6
f 556/4/5 559/4/5 511/4/5 508/4/5
f 512/5/6 560/5/6 558/5/6 510/5/6
f 559/4/5 561/4/5 513/4/5 511/4/5
f 514/5/3 562/5/3 560/5/3 512/5/3
f 515/5/6 563/5/6 562/5/6 514/5/6
f 561/4/5 564/4/5 516/4/5 513/4/5
f 517/5/6 565/5/6 563/5/6 515/5/6
f 564/4/5 566/4/5 518/4/5 516/4/5
f 519/5/3 567/5/3 565/5/3 517/5/3
f 520/5/6 568/5/6 567/5/6 519/5/6
f 569/4/4 570/4/4 522/4/4 521/4/4
f 566/4/5 569/4/5 521/4/5 518/4/5
f 570/4/4 571/4/4 523/4/4 522/4/4
f 571/4/4 572/4/4 524/4/4 523/4/4
f 572/4/4 573/4/4 525/4/4 524/4/4
f 573/4/4 574/4/4 526/4/4 525/4/4
f 574/4/4 575/4/4 527/4/4 526/4/4
f 575/4/4 576/4/4 528/4/4 527/4/4
f 576/5/4 577/5/4 529/5/4 528/5/4
f 529/5/6 577/5/6 568/5/6 520/5/6
f 530/5/3 578/5/3 579/5/3 531/5/3
f 579/5/5 580/5/5 532/5/5 531/5/5
f 533/5/6 581/5/6 578/5/6 530/5/6
f 580/5/5 582/5/5 534/5/5 532/5/5
f 535/5/6 583/5/6 581/5/6 533/5/6
f 582/4/5 584/4/5 536/4/5 534/4/5
f 537/5/3 585/5/3 583/5/3 535/5/3
f 538/5/6 586/5/6 585/5/6 537/5/6
f 584/4/5 587/4/5 539/4/5 536/4/5
f 540/5/6 588/5/6 586/5/6 538/5/6
f 587/4/5 589/4/5 541/4/5 539/4/5
f 542/5/3 590/5/3 588/5/3 540/5/3
f 543/5/6 591/5/6 590/5/6 542/5/6
f 589/4/5 592/4/5 544/4/5 541/4/5
f 545/5/6 593/5/6 591/5/6 543/5/6
f 592/4/5 594/4/5 546/4/5 544/4/5
f 547/5/3 595/5/3 593/5/3 545/5/3
f 548/5/6 596/5/6 595/5/6 547/5/6
f 594/4/5 597/4/5 549/4/5 546/4/5
f 550/5/6 598/5/6 596/5/6 548/5/6
f 597/4/5 599/4/5 551/4/5 549/4/5
f 552/5/3 600/5/3 598/5/3 550/5/3
f 553/5/6 601/5/6 600/5/6 552/5/6
f 599/4/5 602/4/5 554/4/5 551/4/5
f 555/5/6 603/5/6 601/5/6 553/5/6
f 602/4/5 604/4/5 556/4/5 554/4/5
f 557/5/3 605/5/3 603/5/3 555/5/3
f 558/5/6 606/5/6 605/5/6 557/5/6
f 604/4/5 607/4/5 559/4/5 556/4/5
f 560/5/6 608/5/6 606/5/6 558/5/6
f 607/4/5 609/4/5 561/4/5 559/4/5
f 562/5/3 610/5/3 608/5/3 560/5/3
f 563/5/6 611/5/6 610/5/6 562/5/6
f 609/4/5 612/4/5 564/4/5 561/4/5
f 565/5/6 613/5/6 611/5/6 563/5/6
f 612/4/5 614/4/5 566/4/5 564/4/5
f 567/5/3 615/5/3 613/5/3 565/5/3
f 568/5/6 616/5/6 615/5/6 567/5/6
f 617/11/4 618/11/4 570/11/4 569/11/4
f 614/11/5 617/11/5 569/11/5 566/11/5
f 618/4/4 619/4/4 571/4/4 570/4/4
f 619/4/4 620/4/4 572/4/4 571/4/4
f 620/4/4 621/4/4 573/4/4 572/4/4
f 621/4/4 622/4/4 574/4/4 573/4/4
f 622/4/4 623/4/4 575/4/4 574/4/4
f 623/4/4 624/4/4 576/4/4 575/4/4
f 624/5/4 625/5/4 577/5/4 576/5/4
f 577/5/6 625/5/6 616/5/6 568/5/6
f 578/5/3 626/5/3 627/5/3 579/5/3
f 627/5/5 628/5/5 580/5/5 579/5/5
f 581/5/6 629/5/6 626/5/6 578/5/6
f 628/5/5 630/5/5 582/5/5 580/5/5
f 583/5/6 631/5/6 629/5/6 581/5/6
f 630/4/5 632/4/5 584/4/5 582/4/5
f 585/5/3 633/5/3 631/5/3 583/5/3
f 586/5/6 634/5/6 633/5/6 585/5/6
f 632/4/5 635/4/5 587/4/5 584/4/5
f 588/5/6 636/5/6 634/5/6 586/5/6
f 635/4/5 637/4/5 589/4/5 587/4/5
f 590/5/3 638/5/3 636/5/3 588/5/3
f 591/5/6 639/5/6 638/5/6 590/5/6
f 637/4/5 640/4/5 592/4/5 589/4/5
f 593/5/6 641/5/6 639/5/6 591/5/6
f 640/4/5 642/4/5 594/4/5 592/4/5
f 595/5/3 643/5/3 641/5/3 593/5/3
f 596/5/6 644/5/6 643/5/6 595/5/6
f 642/4/5 645/4/5 597/4/5 594/4/5
f 598/5/6 646/5/6 644/5/6 596/5/6
f 645/4/5 647/4/5 599/4/5 597/4/5
f 600/5/3 648/5/3 646/5/3 598/5/3
f 601/5/6 649/5/6 648/5/6 600/5/6
f 647/4/5 650/4/5 602/4/5 599/4/5
f 603/5/6 651/5/6 649/5/6 601/5/6
f 650/4/5 652/4/5 604/4/5 602/4/5
f 605/5/3 653/5/3 651/5/3 603/5/3
f 606/5/6 654/5/6 653/5/6 605/5/6
f 652/4/5 655/4/5 607/4/5 604/4/5
f 608/5/6 656/5/6 654/5/6 606/5/6
f 655/4/5 657/4/5 609/4/5 607/4/5
f 610/5/3 658/5/3 656/5/3 608/5/3
f 611/5/6 659/5/6 658/5/6 610/5/6
f 657/4/5 660/4/5 612/4/5 609/4/5
f 613/5/6 661/5/6 659/5/6 611/5/6
f 660/4/5 662/4/5 614/4/5 612/4/5
f 615/5/3 663/5/3 661/5/3 613/5/3
f 616/5/6 664/5/6 663/5/6 615/5/6
f 665/4/4 666/4/4 618/4/4 617/4/4
f 662/4/5 665/4/5 617/4/5 614/4/5
f 666/4/4 667/4/4 619/4/4 618/4/4
f 667/4/4 668/4/4 620/4/4 619/4/4
f 668/4/4 669/4/4 621/4/4 620/4/4
f 669/4/4 670/4/4 622/4/4 621/4/4
f 670/4/4 671/4/4 623/4/4 622/4/4
f 671/4/4 672/4/4 624/4/4 623/4/4
f 672/5/4 673/5/4 625/5/4 624/5/4
f 625/5/6 673/5/6 664/5/6 616/5/6
f 626/5/3 674/5/3 675/5/3 627/5/3
f 675/5/5 676/5/5 628/5/5 627/5/5
f 629/5/6 677/5/6 674/5/6 626/5/6
f 676/5/5 678/5/5 630/5/5 628/5/5
f 631/5/6 679/5/6 677/5/6 629/5/6
f 678/4/5 680/4/5 632/4/5 630/4/5
f 633/5/3 681/5/3 679/5/3 631/5/3
f 634/5/6 682/5/6 681/5/6 633/5/6
f 680/4/5 683/4/5 635/4/5 632/4/5
f 636/5/6 684/5/6 682/5/6 634/5/6
f 683/4/5 685/4/5 637/4/5 635/4/5
f 638/5/3 686/5/3 684/5/3 636/5/3
f 639/5/6 687/5/6 686/5/6 638/5/6
f 685/4/5 688/4/5 640/4/5 637/4/5
f 641/5/6 689/5/6 687/5/6 639/5/6
f 688/4/5 690/4/5 642/4/5 640/4/5
f 643/5/3 691/5/3 689/5/3 641/5/3
f 644/5/6 692/5/6 691/5/6 643/5/6
f 690/4/5 693/4/5 645/4/5 642/4/5
f 646/5/6 694/5/6 692/5/6 644/5/6
f 693/4/5 695/4/5 647/4/5 645/4/5
f 648/5/3 696/5/3 694/5/3 646/5/3
f 649/5/6 697/5/6 696/5/6 648/5/6
f 695/4/5 698/4/5 650/4/5 647/4/5
f 651/5/6 699/5/6 697/5/6 649/5/6
f 698/4/5 700/4/5 652/4/5 650/4/5
f 653/5/3 701/5/3 699/5/3 651/5/3
f 654/5/6 702/5/6 701/5/6 653/5/6
f 700/4/5 703/4/5 655/4/5 652/4/5
f 656/5/6 704/5/6 702/5/6 654/5/6
f 703/4/5 705/4/5 657/4/5 655/4/5
f 658/5/3 706/5/3 704/5/3 656/5/3
f 659/5/6 707/5/6 706/5/6 658/5/6
f 705/4/5 708/4/5 660/4/5 657/4/5
f 661/5/6 709/5/6 707/5/6 659/5/6
f 708/4/5 710/4/5 662/4/5 660/4/5
f 663/5/3 711/5/3 709/5/3 661/5/3
f 664/5/6 712/5/6 711/5/6 663/5/6
f 713/4/4 714/4/4 666/4/4 665/4/4
f 710/4/5 713/4/5 665/4/5 662/4/5
f 714/4/4 715/4/4 667/4/4 666/4/4
f 715/5/4 716/5/4 668/5/4 667/5/4
f 716/4/4 717/4/4 669/4/4 668/4/4
f 717/11/4 718/11/4 670/11/4 669/11/4
f 718/4/4 719/4/4 671/4/4 670/4/4
f 719/4/4 720/4/4 672/4/4 671/4/4
f 720/5/4 721/5/4 673/5/4 672/5/4
f 673/5/6 721/5/6 712/5/6 664/5/6
f 674/5/3 722/5/3 723/5/3 675/5/3
f 723/5/5 724/5/5 676/5/5 675/5/5
f 677/5/6 725/5/6 722/5/6 674/5/6
f 724/5/5 726/5/5 678/5/5 676/5/5
f 679/5/6 727/5/6 725/5/6 677/5/6
f 726/4/5 728/4/5 680/4/5 678/4/5
f 681/5/3 729/5/3 727/5/3 679/5/3
f 682/5/6 730/5/6 729/5/6 681/5/6
f 728/4/5 731/4/5 683/4/5 680/4/5
f 684/5/6 732/5/6 730/5/6 682/5/6
f 731/4/5 733/4/5 685/4/5 683/4/5
f 686/5/3 734/5/3 732/5/3 684/5/3
f 687/5/6 735/5/6 734/5/6 686/5/6
f 733/4/5 736/4/5 688/4/5 685/4/5
f 689/5/6 737/5/6 735/5/6 687/5/6
f 736/4/5 738/4/5 690/4/5 688/4/5
f 691/5/3 739/5/3 737/5/3 689/5/3
f 692/5/6 740/5/6 739/5/6 691/5/6
f 738/4/5 741/4/5 693/4/5 690/4/5
f 694/5/6 742/5/6 740/5/6 692/5/6
f 741/4/5 743/4/5 695/4/5 693/4/5
f 696/5/3 744/5/3 742/5/3 694/5/3
f 697/5/6 745/5/6 744/5/6 696/5/6
f 743/4/5 746/4/5 698/4/5 695/4/5
f 699/5/6 747/5/6 745/5/6 697/5/6
f 746/11/5 748/11/5 700/11/5 698/11/5
f 701/5/3 749/5/3 747/5/3 699/5/3
f 702/5/6 750/5/6 749/5/6 701/5/6
f 748/4/5 751/4/5 703/4/5 700/4/5
f 704/5/6 752/5/6 750/5/6 702/5/6
f 751/4/5 753/4/5 705/4/5 703/4/5
f 706/5/3 754/5/3 752/5/3 704/5/3
f 707/5/6 755/5/6 754/5/6 706/5/6
f 753/4/5 756/4/5 708/4/5 705/4/5
f 709/5/6 757/5/6 755/5/6 707/5/6
f 756/4/5 758/4/5 710/4/5 708/4/5
f 711/5/3 759/5/3 757/5/3 709/5/3
f 712/5/6 760/5/6 759/5/6 711/5/6
f 761/4/4 762/4/4 714/4/4 713/4/4
f 758/4/5 761/4/5 713/4/5 710/4/5
f 762/4/4 763/4/4 715/4/4 714/4/4
f 763/4/4 764/4/4 716/4/4 715/4/4
f 764/4/4 765/4/4 717/4/4 716/4/4
f 765/4/4 766/4/4 718/4/4 717/4/4
f 766/4/4 767/4/4 719/4/4 718/4/4
f 767/4/4 768/4/4 720/4/4 719/4/4
f 768/5/4 769/5/4 721/5/4 720/5/4
f 721/5/6 769/5/6 760/5/6 712/5/6
f 722/5/3 770/5/3 771/5/3 723/5/3
f 771/5/5 772/5/5 724/5/5 723/5/5
f 725/5/6 773/5/6 770/5/6 722/5/6
f 772/5/5 774/5/5 726/5/5 724/5/5
f 727/5/6 775/5/6 773/5/6 725/5/6
f 774/4/5 776/4/5 728/4/5 726/4/5
f 729/11/3 777/11/3 775/11/3 727/11/3
f 730/11/6 778/11/6 777/11/6 729/11/6
f 776/4/5 779/4/5 731/4/5 728/4/5
f 732/5/6 780/5/6 778/5/6 730/5/6
f 779/4/5 781/4/5 733/4/5 731/4/5
f 734/5/3 782/5/3 780/5/3 732/5/3
f 735/5/6 783/5/6 782/5/6 734/5/6
f 781/4/5 784/4/5 736/4/5 733/4/5
f 737/5/6 785/5/6 783/5/6 735/5/6
f 784/4/5 786/4/5 738/4/5 736/4/5
f 739/5/3 787/5/3 785/5/3 737/5/3
f 740/5/6 788/5/6 787/5/6 739/5/6
f 786/4/5 789/4/5 741/4/5 738/4/5
f 742/5/6 790/5/6 788/5/6 740/5/6
f 789/4/5 791/4/5 743/4/5 741/4/5
f 744/5/3 792/5/3 790/5/3 742/5/3
f 745/5/6 793/5/6 792/5/6 744/5/6
f 791/4/5 794/4/5 746/4/5 743/4/5
f 747/5/6 795/5/6 793/5/6 745/5/6
f 794/4/5 796/4/5 748/4/5 746/4/5
f 749/5/3 797/5/3 795/5/3 747/5/3
f 750/5/6 798/5/6 797/5/6 749/5/6
f 796/4/5 799/4/5 751/4/5 748/4/5
f 752/5/6 800/5/6 798/5/6 750/5/6
f 799/4/5 801/4/5 753/4/5 751/4/5
f 754/5/3 802/5/3 800/5/3 752/5/3
f 755/5/6 803/5/6 802/5/6 754/5/6
f 801/4/5 804/4/5 756/4/5 753/4/5
f 757/5/6 805/5/6 803/5/6 755/5/6
f 804/4/5 806/4/5 758/4/5 756/4/5
f 759/5/3 807/5/3 805/5/3 757/5/3
f 760/5/6 808/5/6 807/5/6 759/5/6
f 809/4/4 810/4/4 762/4/4 761/4/4
f 806/4/5 809/4/5 761/4/5 758/4/5
f 810/4/4 811/4/4 763/4/4 762/4/4
f 811/4/4 812/4/4 764/4/4 763/4/4
f 812/4/4 813/4/4 765/4/4 764/4/4
f 813/4/4 814/4/4 766/4/4 765/4/4
f 814/4/4 815/4/4 767/4/4 766/4/4
f 815/4/4 816/4/4 768/4/4 767/4/4
f 816/5/4 817/5/4 769/5/4 768/5/4
f 769/5/6 817/5/6 808/5/6 760/5/6
f 818/5/2 819/5/2 820/5/2 821/5/2
f 770/5/3 818/5/3 821/5/3 771/5/3
f 821/5/5 820/5/5 772/5/5 771/5/5
f 773/5/6 819/5/6 818/5/6 770/5/6
f 819/5/2 822/5/2 823/5/2 820/5/2
f 820/5/5 823/5/5 774/5/5 772/5/5
f 775/5/6 822/5/6 819/5/6 773/5/6
f 822/4/2 824/4/2 825/4/2 823/4/2
f 823/4/5 825/4/5 776/4/5 774/4/5
f 826/5/2 827/5/2 824/5/2 822/5/2
f 777/5/3 826/5/3 822/5/3 775/5/3
f 778/5/6 827/5/6 826/5/6 777/5/6
f 824/4/2 828/4/2 829/4/2 825/4/2
f 825/4/5 829/4/5 779/4/5 776/4/5
f 827/5/2 830/5/2 828/5/2 824/5/2
f 780/5/6 830/5/6 827/5/6 778/5/6
f 828/4/2 831/4/2 832/4/2 829/4/2
f 829/4/5 832/4/5 781/4/5 779/4/5
f 830/4/2 833/4/2 831/4/2 828/4/2
f 834/5/2 835/5/2 833/5/2 830/5/2
f 782/5/3 834/5/3 830/5/3 780/5/3
f 783/5/6 835/5/6 834/5/6 782/5/6
f 831/4/2 836/4/2 837/4/2 832/4/2
f 832/4/5 837/4/5 784/4/5 781/4/5
f 833/4/2 838/4/2 836/4/2 831/4/2
f 835/5/2 839/5/2 838/5/2 833/5/2
f 785/5/6 839/5/6 835/5/6 783/5/6
f 836/4/2 840/4/2 841/4/2 837/4/2
f 837/4/5 841/4/5 786/4/5 784/4/5
f 838/4/2 842/4/2 840/4/2 836/4/2
f 839/4/2 843/4/2 842/4/2 838/4/2
f 844/5/2 845/5/2 843/5/2 839/5/2
f 787/5/3 844/5/3 839/5/3 785/5/3
f 788/5/6 845/5/6 844/5/6 787/5/6
f 840/4/2 846/4/2 847/4/2 841/4/2
f 841/4/5 847/4/5 789/4/5 786/4/5
f 842/4/2 848/4/2 846/4/2 840/4/2
f 843/11/2 849/11/2 848/11/2 842/11/2
f 845/5/2 850/5/2 849/5/2 843/5/2
f 790/5/6 850/5/6 845/5/6 788/5/6
f 846/4/2 851/4/2 852/4/2 847/4/2
f 847/4/5 852/4/5 791/4/5 789/4/5
f 848/4/2 853/4/2 851/4/2 846/4/2
f 849/4/2 854/4/2 853/4/2 848/4/2
f 850/4/2 855/4/2 854/4/2 849/4/2
f 856/5/2 857/5/2 855/5/2 850/5/2
f 792/5/3 856/5/3 850/5/3 790/5/3
f 793/5/6 857/5/6 856/5/6 792/5/6
f 851/4/2 858/4/2 859/4/2 852/4/2
f 852/4/5 859/4/5 794/4/5 791/4/5
f 853/4/2 860/4/2 858/4/2 851/4/2
f 854/4/2 861/4/2 860/4/2 853/4/2
f 855/4/2 862/4/2 861/4/2 854/4/2
f 857/5/2 863/5/2 862/5/2 855/5/2
f 795/5/6 863/5/6 857/5/6 793/5/6
f 858/4/2 864/4/2 865/4/2 859/4/2
f 859/4/5 865/4/5 796/4/5 794/4/5
f 860/4/2 866/4/2 864/4/2 858/4/2
f 861/4/2 867/4/2 866/4/2 860/4/2
f 862/4/2 868/4/2 867/4/2 861/4/2
f 863/4/2 869/4/2 868/4/2 862/4/2
f 870/5/2 871/5/2 869/5/2 863/5/2
f 797/5/3 870/5/3 863/5/3 795/5/3
f 798/5/6 871/5/6 870/5/6 797/5/6
f 864/4/2 872/4/2 873/4/2 865/4/2
f 865/4/5 873/4/5 799/4/5 796/4/5
f 866/4/2 874/4/2 872/4/2 864/4/2
f 867/4/2 875/4/2 874/4/2 866/4/2
f 868/4/2 876/4/2 875/4/2 867/4/2
f 869/4/2 877/4/2 876/4/2 868/4/2
f 871/5/2 878/5/2 877/5/2 869/5/2
f 800/5/6 878/5/6 871/5/6 798/5/6
f 872/4/2 879/4/2 880/4/2 873/4/2
f 873/4/5 880/4/5 801/4/5 799/4/5
f 874/11/2 881/11/2 879/11/2 872/11/2
f 875/4/2 882/4/2 881/4/2 874/4/2
f 876/4/2 883/4/2 882/4/2 875/4/2
f 877/4/2 884/4/2 883/4/2 876/4/2
f 878/4/2 885/4/2 884/4/2 877/4/2
f 886/5/2 887/5/2 885/5/2 878/5/2
f 802/5/3 886/5/3 878/5/3 800/5/3
f 803/5/6 887/5/6 886/5/6 802/5/6
f 879/4/2 888/4/2 889/4/2 880/4/2
f 880/4/5 889/4/5 804/4/5 801/4/5
f 881/4/2 890/4/2 888/4/2 879/4/2
f 882/4/2 891/4/2 890/4/2 881/4/2
f 883/4/2 892/4/2 891/4/2 882/4/2
f 884/4/2 893/4/2 892/4/2 883/4/2
f 885/4/2 894/4/2 893/4/2 884/4/2
f 887/5/2 895/5/2 894/5/2 885/5/2
f 805/5/6 895/5/6 887/5/6 803/5/6
f 888/4/2 896/4/2 897/4/2 889/4/2
f 889/4/5 897/4/5 806/4/5 804/4/5
f 890/4/2 898/4/2 896/4/2 888/4/2
f 891/4/2 899/4/2 898/4/2 890/4/2
f 892/4/2 900/4/2 899/4/2 891/4/2
f 893/4/2 901/4/2 900/4/2 892/4/2
f 894/4/2 902/4/2 901/4/2 893/4/2
f 895/4/2 903/4/2 902/4/2 894/4/2
f 904/5/2 905/5/2 903/5/2 895/5/2
f 807/5/3 904/5/3 895/5/3 805/5/3
f 808/5/6 905/5/6 904/5/6 807/5/6
f 896/4/2 906/4/2 907/4/2 897/4/2
f 907/4/4 906/4/4 810/4/4 809/4/4
f 897/4/5 907/4/5 809/4/5 806/4/5
f 898/4/2 908/4/2 906/4/2 896/4/2
f 906/4/4 908/4/4 811/4/4 810/4/4
f 899/4/2 909/4/2 908/4/2 898/4/2
f 908/4/4 909/4/4 812/4/4 811/4/4
f 900/4/2 910/4/2 909/4/2 899/4/2
f 909/4/4 910/4/4 813/4/4 812/4/4
f 901/4/2 911/4/2 910/4/2 900/4/2
f 910/4/4 911/4/4 814/4/4 813/4/4
f 902/4/2 912/4/2 911/4/2 901/4/2
f 911/4/4 912/4/4 815/4/4 814/4/4
f 903/4/2 913/4/2 912/4/2 902/4/2
f 912/4/4 913/4/4 816/4/4 815/4/4
f 905/5/2 914/5/2 913/5/2 903/5/2
f 913/5/4 914/5/4 817/5/4 816/5/4
f 817/5/6 914/5/6 905/5/6 808/5/6
