# Dungine stalagmite_small; 1 voxel = 1/16 unit; Y-up floor-center origin
mtllib stalagmite_small.mtl
o stalagmite_small
s off
v -0.437500 0.000000 -0.125000
v -0.437500 0.062500 -0.125000
v -0.437500 0.062500 -0.187500
v -0.437500 0.000000 -0.187500
v -0.375000 0.062500 -0.187500
v -0.375000 0.000000 -0.187500
v -0.375000 0.000000 -0.125000
v -0.375000 0.062500 -0.125000
v -0.375000 0.062500 -0.250000
v -0.375000 0.000000 -0.250000
v -0.312500 0.062500 -0.250000
v -0.312500 0.000000 -0.250000
v -0.312500 0.000000 -0.187500
v -0.312500 0.062500 -0.187500
v -0.312500 0.000000 -0.125000
v -0.375000 0.125000 -0.125000
v -0.375000 0.125000 -0.187500
v -0.312500 0.125000 -0.187500
v -0.312500 0.062500 -0.125000
v -0.312500 0.125000 -0.125000
v -0.375000 0.000000 -0.062500
v -0.375000 0.062500 -0.062500
v -0.312500 0.000000 -0.062500
v -0.312500 0.062500 -0.062500
v -0.312500 0.062500 -0.312500
v -0.312500 0.000000 -0.312500
v -0.250000 0.062500 -0.312500
v -0.250000 0.000000 -0.312500
v -0.250000 0.000000 -0.250000
v -0.250000 0.062500 -0.250000
v -0.250000 0.000000 -0.187500
v -0.312500 0.125000 -0.250000
v -0.250000 0.125000 -0.250000
v -0.250000 0.125000 -0.187500
v -0.250000 0.000000 -0.125000
v -0.312500 0.187500 -0.125000
v -0.312500 0.187500 -0.187500
v -0.250000 0.187500 -0.187500
v -0.250000 0.125000 -0.125000
v -0.250000 0.187500 -0.125000
v -0.250000 0.000000 -0.062500
v -0.312500 0.125000 -0.062500
v -0.250000 0.062500 -0.062500
v -0.250000 0.125000 -0.062500
v -0.312500 0.000000 0.000000
v -0.312500 0.062500 0.000000
v -0.250000 0.000000 0.000000
v -0.250000 0.062500 0.000000
v -0.312500 0.000000 0.062500
v -0.312500 0.062500 0.062500
v -0.250000 0.000000 0.062500
v -0.250000 0.062500 0.062500
v -0.250000 0.062500 -0.375000
v -0.250000 0.000000 -0.375000
v -0.187500 0.062500 -0.375000
v -0.187500 0.062500 -0.312500
v -0.187500 0.000000 -0.312500
v -0.187500 0.000000 -0.375000
v -0.187500 0.000000 -0.250000
v -0.250000 0.125000 -0.312500
v -0.187500 0.125000 -0.312500
v -0.187500 0.125000 -0.250000
v -0.187500 0.062500 -0.250000
v -0.187500 0.000000 -0.187500
v -0.250000 0.187500 -0.250000
v -0.187500 0.187500 -0.250000
v -0.187500 0.187500 -0.187500
v -0.187500 0.125000 -0.187500
v -0.187500 0.000000 -0.125000
v -0.250000 0.250000 -0.125000
v -0.250000 0.250000 -0.187500
v -0.187500 0.250000 -0.187500
v -0.187500 0.250000 -0.125000
v -0.187500 0.187500 -0.125000
v -0.250000 0.312500 -0.125000
v -0.250000 0.312500 -0.187500
v -0.187500 0.312500 -0.187500
v -0.187500 0.312500 -0.125000
v -0.187500 0.000000 -0.062500
v -0.250000 0.187500 -0.062500
v -0.187500 0.187500 -0.062500
v -0.187500 0.125000 -0.062500
v -0.187500 0.125000 -0.125000
v -0.187500 0.000000 0.000000
v -0.250000 0.125000 0.000000
v -0.187500 0.125000 0.000000
v -0.187500 0.000000 0.062500
v -0.250000 0.125000 0.062500
v -0.187500 0.062500 0.062500
v -0.187500 0.125000 0.062500
v -0.250000 0.187500 0.062500
v -0.250000 0.187500 0.000000
v -0.187500 0.187500 0.000000
v -0.187500 0.187500 0.062500
v -0.250000 0.000000 0.125000
v -0.250000 0.062500 0.125000
v -0.187500 0.000000 0.125000
v -0.187500 0.062500 0.125000
v -0.125000 0.062500 -0.312500
v -0.125000 0.062500 -0.250000
v -0.125000 0.000000 -0.250000
v -0.125000 0.000000 -0.312500
v -0.125000 0.000000 -0.187500
v -0.125000 0.125000 -0.250000
v -0.125000 0.125000 -0.187500
v -0.125000 0.062500 -0.187500
v -0.125000 0.000000 -0.125000
v -0.125000 0.187500 -0.187500
v -0.125000 0.187500 -0.125000
v -0.125000 0.125000 -0.125000
v -0.125000 0.000000 -0.062500
v -0.125000 0.125000 -0.062500
v -0.125000 0.000000 0.000000
v -0.125000 0.187500 -0.062500
v -0.125000 0.187500 0.000000
v -0.125000 0.000000 0.062500
v -0.187500 0.250000 0.062500
v -0.187500 0.250000 0.000000
v -0.125000 0.250000 0.000000
v -0.125000 0.187500 0.062500
v -0.125000 0.250000 0.062500
v -0.187500 0.312500 0.062500
v -0.187500 0.312500 0.000000
v -0.125000 0.312500 0.000000
v -0.125000 0.312500 0.062500
v -0.125000 0.000000 0.125000
v -0.187500 0.125000 0.125000
v -0.125000 0.062500 0.125000
v -0.125000 0.125000 0.125000
v -0.187500 0.187500 0.125000
v -0.125000 0.187500 0.125000
v -0.187500 0.000000 0.187500
v -0.187500 0.062500 0.187500
v -0.125000 0.000000 0.187500
v -0.125000 0.062500 0.187500
v -0.062500 0.062500 -0.250000
v -0.062500 0.000000 -0.250000
v -0.062500 0.000000 -0.187500
v -0.062500 0.062500 -0.187500
v -0.062500 0.000000 -0.125000
v -0.062500 0.125000 -0.187500
v -0.062500 0.125000 -0.125000
v -0.062500 0.000000 -0.062500
v -0.062500 0.187500 -0.125000
v -0.062500 0.187500 -0.062500
v -0.062500 0.000000 0.000000
v -0.125000 0.250000 -0.062500
v -0.062500 0.250000 -0.062500
v -0.125000 0.312500 -0.062500
v -0.062500 0.312500 -0.062500
v -0.062500 0.312500 0.000000
v -0.062500 0.000000 0.062500
v -0.125000 0.375000 0.062500
v -0.125000 0.375000 0.000000
v -0.062500 0.375000 0.000000
v -0.062500 0.312500 0.062500
v -0.062500 0.375000 0.062500
v -0.125000 0.437500 0.062500
v -0.125000 0.437500 0.000000
v -0.062500 0.437500 0.000000
v -0.062500 0.437500 0.062500
v -0.125000 0.500000 0.062500
v -0.125000 0.500000 0.000000
v -0.062500 0.500000 0.000000
v -0.062500 0.500000 0.062500
v -0.062500 0.000000 0.125000
v -0.125000 0.250000 0.125000
v -0.062500 0.187500 0.125000
v -0.062500 0.250000 0.125000
v -0.125000 0.312500 0.125000
v -0.062500 0.312500 0.125000
v -0.062500 0.000000 0.187500
v -0.125000 0.125000 0.187500
v -0.062500 0.062500 0.187500
v -0.062500 0.125000 0.187500
v -0.125000 0.187500 0.187500
v -0.062500 0.187500 0.187500
v -0.125000 0.000000 0.250000
v -0.125000 0.062500 0.250000
v -0.062500 0.000000 0.250000
v -0.062500 0.062500 0.250000
v 0.000000 0.062500 -0.250000
v 0.000000 0.000000 -0.250000
v 0.000000 0.000000 -0.187500
v 0.000000 0.062500 -0.187500
v 0.000000 0.000000 -0.125000
v 0.000000 0.125000 -0.187500
v -0.062500 0.187500 -0.187500
v 0.000000 0.187500 -0.187500
v 0.000000 0.187500 -0.125000
v 0.000000 0.000000 -0.062500
v -0.062500 0.250000 -0.125000
v 0.000000 0.250000 -0.125000
v -0.062500 0.312500 -0.125000
v 0.000000 0.312500 -0.125000
v 0.000000 0.312500 -0.062500
v 0.000000 0.000000 0.000000
v -0.062500 0.375000 -0.062500
v 0.000000 0.375000 -0.062500
v -0.062500 0.437500 -0.062500
v 0.000000 0.437500 -0.062500
v -0.062500 0.500000 -0.062500
v 0.000000 0.500000 -0.062500
v 0.000000 0.500000 0.000000
v 0.000000 0.000000 0.062500
v -0.062500 0.562500 0.062500
v -0.062500 0.562500 0.000000
v 0.000000 0.562500 0.000000
v 0.000000 0.500000 0.062500
v 0.000000 0.562500 0.062500
v -0.062500 0.625000 0.062500
v -0.062500 0.625000 0.000000
v 0.000000 0.625000 0.000000
v 0.000000 0.625000 0.062500
v 0.000000 0.000000 0.125000
v -0.062500 0.375000 0.125000
v 0.000000 0.312500 0.125000
v 0.000000 0.375000 0.125000
v -0.062500 0.437500 0.125000
v 0.000000 0.437500 0.125000
v -0.062500 0.500000 0.125000
v 0.000000 0.500000 0.125000
v 0.000000 0.000000 0.187500
v -0.062500 0.250000 0.187500
v 0.000000 0.187500 0.187500
v 0.000000 0.250000 0.187500
v -0.062500 0.312500 0.187500
v 0.000000 0.312500 0.187500
v 0.000000 0.000000 0.250000
v -0.062500 0.125000 0.250000
v 0.000000 0.062500 0.250000
v 0.000000 0.125000 0.250000
v -0.062500 0.187500 0.250000
v 0.000000 0.187500 0.250000
v -0.062500 0.000000 0.312500
v -0.062500 0.062500 0.312500
v 0.000000 0.000000 0.312500
v 0.000000 0.062500 0.312500
v 0.000000 0.062500 -0.312500
v 0.000000 0.000000 -0.312500
v 0.062500 0.062500 -0.312500
v 0.062500 0.062500 -0.250000
v 0.062500 0.000000 -0.250000
v 0.062500 0.000000 -0.312500
v 0.062500 0.000000 -0.187500
v 0.000000 0.125000 -0.250000
v 0.062500 0.125000 -0.250000
v 0.062500 0.125000 -0.187500
v 0.062500 0.062500 -0.187500
v 0.000000 0.187500 -0.250000
v 0.062500 0.187500 -0.250000
v 0.062500 0.187500 -0.187500
v 0.062500 0.000000 -0.125000
v 0.000000 0.250000 -0.187500
v 0.062500 0.250000 -0.187500
v 0.062500 0.250000 -0.125000
v 0.062500 0.187500 -0.125000
v 0.000000 0.312500 -0.187500
v 0.062500 0.312500 -0.187500
v 0.062500 0.312500 -0.125000
v 0.062500 0.000000 -0.062500
v 0.000000 0.375000 -0.125000
v 0.062500 0.375000 -0.125000
v 0.062500 0.375000 -0.062500
v 0.062500 0.312500 -0.062500
v 0.000000 0.437500 -0.125000
v 0.062500 0.437500 -0.125000
v 0.062500 0.437500 -0.062500
v 0.000000 0.500000 -0.125000
v 0.062500 0.500000 -0.125000
v 0.062500 0.500000 -0.062500
v 0.062500 0.000000 0.000000
v 0.000000 0.562500 -0.062500
v 0.062500 0.562500 -0.062500
v 0.062500 0.562500 0.000000
v 0.062500 0.500000 0.000000
v 0.000000 0.625000 -0.062500
v 0.062500 0.625000 -0.062500
v 0.062500 0.625000 0.000000
v 0.062500 0.000000 0.062500
v 0.000000 0.687500 0.062500
v 0.000000 0.687500 0.000000
v 0.062500 0.687500 0.000000
v 0.062500 0.687500 0.062500
v 0.062500 0.625000 0.062500
v 0.000000 0.750000 0.062500
v 0.000000 0.750000 0.000000
v 0.062500 0.750000 0.000000
v 0.062500 0.750000 0.062500
v 0.000000 0.812500 0.062500
v 0.000000 0.812500 0.000000
v 0.062500 0.812500 0.000000
v 0.062500 0.812500 0.062500
v 0.062500 0.000000 0.125000
v 0.000000 0.562500 0.125000
v 0.062500 0.562500 0.062500
v 0.062500 0.562500 0.125000
v 0.062500 0.500000 0.125000
v 0.062500 0.500000 0.062500
v 0.000000 0.625000 0.125000
v 0.062500 0.625000 0.125000
v 0.062500 0.000000 0.187500
v 0.000000 0.375000 0.187500
v 0.062500 0.375000 0.125000
v 0.062500 0.375000 0.187500
v 0.062500 0.312500 0.187500
v 0.062500 0.312500 0.125000
v 0.000000 0.437500 0.187500
v 0.062500 0.437500 0.125000
v 0.062500 0.437500 0.187500
v 0.000000 0.500000 0.187500
v 0.062500 0.500000 0.187500
v 0.062500 0.000000 0.250000
v 0.000000 0.250000 0.250000
v 0.062500 0.250000 0.187500
v 0.062500 0.250000 0.250000
v 0.062500 0.187500 0.250000
v 0.062500 0.187500 0.187500
v 0.000000 0.312500 0.250000
v 0.062500 0.312500 0.250000
v 0.062500 0.000000 0.312500
v 0.000000 0.125000 0.312500
v 0.062500 0.125000 0.250000
v 0.062500 0.125000 0.312500
v 0.062500 0.062500 0.312500
v 0.062500 0.062500 0.250000
v 0.000000 0.187500 0.312500
v 0.062500 0.187500 0.312500
v 0.000000 0.000000 0.375000
v 0.000000 0.062500 0.375000
v 0.062500 0.062500 0.375000
v 0.062500 0.000000 0.375000
v 0.125000 0.062500 -0.250000
v 0.125000 0.062500 -0.187500
v 0.125000 0.000000 -0.187500
v 0.125000 0.000000 -0.250000
v 0.125000 0.000000 -0.125000
v 0.125000 0.125000 -0.187500
v 0.125000 0.125000 -0.125000
v 0.125000 0.062500 -0.125000
v 0.125000 0.187500 -0.187500
v 0.125000 0.187500 -0.125000
v 0.125000 0.000000 -0.062500
v 0.125000 0.250000 -0.125000
v 0.125000 0.250000 -0.062500
v 0.125000 0.187500 -0.062500
v 0.125000 0.312500 -0.125000
v 0.125000 0.312500 -0.062500
v 0.125000 0.000000 0.000000
v 0.125000 0.375000 -0.062500
v 0.125000 0.375000 0.000000
v 0.125000 0.312500 0.000000
v 0.125000 0.437500 -0.062500
v 0.125000 0.437500 0.000000
v 0.125000 0.500000 -0.062500
v 0.125000 0.500000 0.000000
v 0.125000 0.000000 0.062500
v 0.125000 0.562500 0.000000
v 0.125000 0.562500 0.062500
v 0.125000 0.500000 0.062500
v 0.125000 0.625000 0.000000
v 0.125000 0.625000 0.062500
v 0.125000 0.000000 0.125000
v 0.125000 0.375000 0.062500
v 0.125000 0.375000 0.125000
v 0.125000 0.312500 0.125000
v 0.125000 0.312500 0.062500
v 0.125000 0.437500 0.062500
v 0.125000 0.437500 0.125000
v 0.125000 0.500000 0.125000
v 0.125000 0.000000 0.187500
v 0.125000 0.250000 0.125000
v 0.125000 0.250000 0.187500
v 0.125000 0.187500 0.187500
v 0.125000 0.187500 0.125000
v 0.125000 0.312500 0.187500
v 0.125000 0.000000 0.250000
v 0.125000 0.125000 0.187500
v 0.125000 0.125000 0.250000
v 0.125000 0.062500 0.250000
v 0.125000 0.062500 0.187500
v 0.125000 0.187500 0.250000
v 0.125000 0.062500 0.312500
v 0.125000 0.000000 0.312500
v 0.187500 0.062500 -0.187500
v 0.187500 0.062500 -0.125000
v 0.187500 0.000000 -0.125000
v 0.187500 0.000000 -0.187500
v 0.187500 0.000000 -0.062500
v 0.187500 0.125000 -0.125000
v 0.187500 0.125000 -0.062500
v 0.187500 0.062500 -0.062500
v 0.187500 0.187500 -0.125000
v 0.187500 0.187500 -0.062500
v 0.187500 0.000000 0.000000
v 0.187500 0.250000 -0.062500
v 0.187500 0.250000 0.000000
v 0.187500 0.187500 0.000000
v 0.187500 0.312500 -0.062500
v 0.187500 0.312500 0.000000
v 0.187500 0.000000 0.062500
v 0.187500 0.375000 0.000000
v 0.187500 0.375000 0.062500
v 0.187500 0.312500 0.062500
v 0.187500 0.437500 0.000000
v 0.187500 0.437500 0.062500
v 0.187500 0.500000 0.000000
v 0.187500 0.500000 0.062500
v 0.187500 0.000000 0.125000
v 0.187500 0.250000 0.062500
v 0.187500 0.250000 0.125000
v 0.187500 0.187500 0.125000
v 0.187500 0.187500 0.062500
v 0.187500 0.312500 0.125000
v 0.187500 0.000000 0.187500
v 0.187500 0.125000 0.125000
v 0.187500 0.125000 0.187500
v 0.187500 0.062500 0.187500
v 0.187500 0.062500 0.125000
v 0.187500 0.187500 0.187500
v 0.187500 0.062500 0.250000
v 0.187500 0.000000 0.250000
v 0.250000 0.062500 -0.125000
v 0.250000 0.062500 -0.062500
v 0.250000 0.000000 -0.062500
v 0.250000 0.000000 -0.125000
v 0.250000 0.000000 0.000000
v 0.250000 0.125000 -0.062500
v 0.250000 0.125000 0.000000
v 0.250000 0.062500 0.000000
v 0.250000 0.187500 -0.062500
v 0.250000 0.187500 0.000000
v 0.250000 0.000000 0.062500
v 0.250000 0.250000 0.000000
v 0.250000 0.250000 0.062500
v 0.250000 0.187500 0.062500
v 0.250000 0.312500 0.000000
v 0.250000 0.312500 0.062500
v 0.250000 0.000000 0.125000
v 0.250000 0.125000 0.062500
v 0.250000 0.125000 0.125000
v 0.250000 0.062500 0.125000
v 0.250000 0.062500 0.062500
v 0.250000 0.187500 0.125000
v 0.250000 0.062500 0.187500
v 0.250000 0.000000 0.187500
v 0.312500 0.062500 -0.062500
v 0.312500 0.062500 0.000000
v 0.312500 0.000000 0.000000
v 0.312500 0.000000 -0.062500
v 0.312500 0.000000 0.062500
v 0.312500 0.125000 0.000000
v 0.312500 0.125000 0.062500
v 0.312500 0.062500 0.062500
v 0.312500 0.187500 0.000000
v 0.312500 0.187500 0.062500
v 0.312500 0.062500 0.125000
v 0.312500 0.000000 0.125000
v 0.375000 0.062500 0.000000
v 0.375000 0.062500 0.062500
v 0.375000 0.000000 0.062500
v 0.375000 0.000000 0.000000
vt 0.03125000 0.96875000
vt 0.09375000 0.96875000
vt 0.15625000 0.96875000
vt 0.21875000 0.96875000
vt 0.28125000 0.96875000
vt 0.34375000 0.96875000
vt 0.40625000 0.96875000
vt 0.46875000 0.96875000
vt 0.53125000 0.96875000
vt 0.59375000 0.96875000
vt 0.65625000 0.96875000
vt 0.71875000 0.96875000
vt 0.78125000 0.96875000
vt 0.84375000 0.96875000
vt 0.90625000 0.96875000
vt 0.96875000 0.96875000
vt 0.03125000 0.90625000
vt 0.09375000 0.90625000
vt 0.15625000 0.90625000
vt 0.21875000 0.90625000
vt 0.28125000 0.90625000
vt 0.34375000 0.90625000
vt 0.40625000 0.90625000
vt 0.46875000 0.90625000
vt 0.53125000 0.90625000
vt 0.59375000 0.90625000
vt 0.65625000 0.90625000
vt 0.71875000 0.90625000
vt 0.78125000 0.90625000
vt 0.84375000 0.90625000
vt 0.90625000 0.90625000
vt 0.96875000 0.90625000
vt 0.03125000 0.84375000
vt 0.09375000 0.84375000
vt 0.15625000 0.84375000
vt 0.21875000 0.84375000
vt 0.28125000 0.84375000
vt 0.34375000 0.84375000
vt 0.40625000 0.84375000
vt 0.46875000 0.84375000
vt 0.53125000 0.84375000
vt 0.59375000 0.84375000
vt 0.65625000 0.84375000
vt 0.71875000 0.84375000
vt 0.78125000 0.84375000
vt 0.84375000 0.84375000
vt 0.90625000 0.84375000
vt 0.96875000 0.84375000
vt 0.03125000 0.78125000
vt 0.09375000 0.78125000
vt 0.15625000 0.78125000
vt 0.21875000 0.78125000
vt 0.28125000 0.78125000
vt 0.34375000 0.78125000
vt 0.40625000 0.78125000
vt 0.46875000 0.78125000
vt 0.53125000 0.78125000
vt 0.59375000 0.78125000
vt 0.65625000 0.78125000
vt 0.71875000 0.78125000
vt 0.78125000 0.78125000
vt 0.84375000 0.78125000
vt 0.90625000 0.78125000
vt 0.96875000 0.78125000
vt 0.03125000 0.71875000
vt 0.09375000 0.71875000
vt 0.15625000 0.71875000
vt 0.21875000 0.71875000
vt 0.28125000 0.71875000
vt 0.34375000 0.71875000
vt 0.40625000 0.71875000
vt 0.46875000 0.71875000
vt 0.53125000 0.71875000
vt 0.59375000 0.71875000
vt 0.65625000 0.71875000
vt 0.71875000 0.71875000
vt 0.78125000 0.71875000
vt 0.84375000 0.71875000
vt 0.90625000 0.71875000
vt 0.96875000 0.71875000
vt 0.03125000 0.65625000
vt 0.09375000 0.65625000
vt 0.15625000 0.65625000
vt 0.21875000 0.65625000
vt 0.28125000 0.65625000
vt 0.34375000 0.65625000
vt 0.40625000 0.65625000
vt 0.46875000 0.65625000
vt 0.53125000 0.65625000
vt 0.59375000 0.65625000
vt 0.65625000 0.65625000
vt 0.71875000 0.65625000
vt 0.78125000 0.65625000
vt 0.84375000 0.65625000
vt 0.90625000 0.65625000
vt 0.96875000 0.65625000
vt 0.03125000 0.59375000
vt 0.09375000 0.59375000
vt 0.15625000 0.59375000
vt 0.21875000 0.59375000
vt 0.28125000 0.59375000
vt 0.34375000 0.59375000
vt 0.40625000 0.59375000
vt 0.46875000 0.59375000
vt 0.53125000 0.59375000
vt 0.59375000 0.59375000
vt 0.65625000 0.59375000
vt 0.71875000 0.59375000
vt 0.78125000 0.59375000
vt 0.84375000 0.59375000
vt 0.90625000 0.59375000
vt 0.96875000 0.59375000
vt 0.03125000 0.53125000
vt 0.09375000 0.53125000
vt 0.15625000 0.53125000
vt 0.21875000 0.53125000
vt 0.28125000 0.53125000
vt 0.34375000 0.53125000
vt 0.40625000 0.53125000
vt 0.46875000 0.53125000
vt 0.53125000 0.53125000
vt 0.59375000 0.53125000
vt 0.65625000 0.53125000
vt 0.71875000 0.53125000
vt 0.78125000 0.53125000
vt 0.84375000 0.53125000
vt 0.90625000 0.53125000
vt 0.96875000 0.53125000
vt 0.03125000 0.46875000
vt 0.09375000 0.46875000
vt 0.15625000 0.46875000
vt 0.21875000 0.46875000
vt 0.28125000 0.46875000
vt 0.34375000 0.46875000
vt 0.40625000 0.46875000
vt 0.46875000 0.46875000
vt 0.53125000 0.46875000
vt 0.59375000 0.46875000
vt 0.65625000 0.46875000
vt 0.71875000 0.46875000
vt 0.78125000 0.46875000
vt 0.84375000 0.46875000
vt 0.90625000 0.46875000
vt 0.96875000 0.46875000
vt 0.03125000 0.40625000
vt 0.09375000 0.40625000
vt 0.15625000 0.40625000
vt 0.21875000 0.40625000
vt 0.28125000 0.40625000
vt 0.34375000 0.40625000
vt 0.40625000 0.40625000
vt 0.46875000 0.40625000
vt 0.53125000 0.40625000
vt 0.59375000 0.40625000
vt 0.65625000 0.40625000
vt 0.71875000 0.40625000
vt 0.78125000 0.40625000
vt 0.84375000 0.40625000
vt 0.90625000 0.40625000
vt 0.96875000 0.40625000
vt 0.03125000 0.34375000
vt 0.09375000 0.34375000
vt 0.15625000 0.34375000
vt 0.21875000 0.34375000
vt 0.28125000 0.34375000
vt 0.34375000 0.34375000
vt 0.40625000 0.34375000
vt 0.46875000 0.34375000
vt 0.53125000 0.34375000
vt 0.59375000 0.34375000
vt 0.65625000 0.34375000
vt 0.71875000 0.34375000
vt 0.78125000 0.34375000
vt 0.84375000 0.34375000
vt 0.90625000 0.34375000
vt 0.96875000 0.34375000
vt 0.03125000 0.28125000
vt 0.09375000 0.28125000
vt 0.15625000 0.28125000
vt 0.21875000 0.28125000
vt 0.28125000 0.28125000
vt 0.34375000 0.28125000
vt 0.40625000 0.28125000
vt 0.46875000 0.28125000
vt 0.53125000 0.28125000
vt 0.59375000 0.28125000
vt 0.65625000 0.28125000
vt 0.71875000 0.28125000
vt 0.78125000 0.28125000
vt 0.84375000 0.28125000
vt 0.90625000 0.28125000
vt 0.96875000 0.28125000
vt 0.03125000 0.21875000
vt 0.09375000 0.21875000
vt 0.15625000 0.21875000
vt 0.21875000 0.21875000
vt 0.28125000 0.21875000
vt 0.34375000 0.21875000
vt 0.40625000 0.21875000
vt 0.46875000 0.21875000
vt 0.53125000 0.21875000
vt 0.59375000 0.21875000
vt 0.65625000 0.21875000
vt 0.71875000 0.21875000
vt 0.78125000 0.21875000
vt 0.84375000 0.21875000
vt 0.90625000 0.21875000
vt 0.96875000 0.21875000
vt 0.03125000 0.15625000
vt 0.09375000 0.15625000
vt 0.15625000 0.15625000
vt 0.21875000 0.15625000
vt 0.28125000 0.15625000
vt 0.34375000 0.15625000
vt 0.40625000 0.15625000
vt 0.46875000 0.15625000
vt 0.53125000 0.15625000
vt 0.59375000 0.15625000
vt 0.65625000 0.15625000
vt 0.71875000 0.15625000
vt 0.78125000 0.15625000
vt 0.84375000 0.15625000
vt 0.90625000 0.15625000
vt 0.96875000 0.15625000
vt 0.03125000 0.09375000
vt 0.09375000 0.09375000
vt 0.15625000 0.09375000
vt 0.21875000 0.09375000
vt 0.28125000 0.09375000
vt 0.34375000 0.09375000
vt 0.40625000 0.09375000
vt 0.46875000 0.09375000
vt 0.53125000 0.09375000
vt 0.59375000 0.09375000
vt 0.65625000 0.09375000
vt 0.71875000 0.09375000
vt 0.78125000 0.09375000
vt 0.84375000 0.09375000
vt 0.90625000 0.09375000
vt 0.96875000 0.09375000
vt 0.03125000 0.03125000
vt 0.09375000 0.03125000
vt 0.15625000 0.03125000
vt 0.21875000 0.03125000
vt 0.28125000 0.03125000
vt 0.34375000 0.03125000
vt 0.40625000 0.03125000
vt 0.46875000 0.03125000
vt 0.53125000 0.03125000
vt 0.59375000 0.03125000
vt 0.65625000 0.03125000
vt 0.71875000 0.03125000
vt 0.78125000 0.03125000
vt 0.84375000 0.03125000
vt 0.90625000 0.03125000
vt 0.96875000 0.03125000
vn -1 0 0
vn 1 0 0
vn 0 0 -1
vn 0 0 1
vn 0 -1 0
vn 0 1 0
g palette
usemtl palette
f 1/11/1 2/11/1 3/11/1 4/11/1
f 3/11/3 5/11/3 6/11/3 4/11/3
f 7/11/4 8/11/4 2/11/4 1/11/4
f 6/11/5 7/11/5 1/11/5 4/11/5
f 2/11/6 8/11/6 5/11/6 3/11/6
f 6/11/1 5/11/1 9/11/1 10/11/1
f 9/11/3 11/11/3 12/11/3 10/11/3
f 12/11/5 13/11/5 6/11/5 10/11/5
f 5/11/6 14/11/6 11/11/6 9/11/6
f 13/11/5 15/11/5 7/11/5 6/11/5
f 8/11/1 16/11/1 17/11/1 5/11/1
f 17/11/3 18/11/3 14/11/3 5/11/3
f 19/11/4 20/11/4 16/11/4 8/11/4
f 16/11/6 20/11/6 18/11/6 17/11/6
f 21/11/1 22/11/1 8/11/1 7/11/1
f 23/11/4 24/11/4 22/11/4 21/11/4
f 15/11/5 23/11/5 21/11/5 7/11/5
f 22/11/6 24/11/6 19/11/6 8/11/6
f 12/11/1 11/11/1 25/11/1 26/11/1
f 25/11/3 27/11/3 28/11/3 26/11/3
f 28/11/5 29/11/5 12/11/5 26/11/5
f 11/11/6 30/11/6 27/11/6 25/11/6
f 29/11/5 31/11/5 13/11/5 12/11/5
f 14/11/1 18/11/1 32/11/1 11/11/1
f 32/11/3 33/11/3 30/11/3 11/11/3
f 18/11/6 34/11/6 33/11/6 32/11/6
f 31/11/5 35/11/5 15/11/5 13/11/5
f 20/5/1 36/5/1 37/5/1 18/5/1
f 37/5/3 38/5/3 34/5/3 18/5/3
f 39/5/4 40/5/4 36/5/4 20/5/4
f 36/5/6 40/5/6 38/5/6 37/5/6
f 35/11/5 41/11/5 23/11/5 15/11/5
f 24/11/1 42/11/1 20/11/1 19/11/1
f 43/11/4 44/11/4 42/11/4 24/11/4
f 42/11/6 44/11/6 39/11/6 20/11/6
f 45/11/1 46/11/1 24/11/1 23/11/1
f 41/11/5 47/11/5 45/11/5 23/11/5
f 46/11/6 48/11/6 43/11/6 24/11/6
f 49/11/1 50/11/1 46/11/1 45/11/1
f 51/11/4 52/11/4 50/11/4 49/11/4
f 47/11/5 51/11/5 49/11/5 45/11/5
f 50/11/6 52/11/6 48/11/6 46/11/6
f 28/4/1 27/4/1 53/4/1 54/4/1
f 55/4/2 56/4/2 57/4/2 58/4/2
f 53/4/3 55/4/3 58/4/3 54/4/3
f 58/4/5 57/4/5 28/4/5 54/4/5
f 27/4/6 56/4/6 55/4/6 53/4/6
f 57/4/5 59/4/5 29/4/5 28/4/5
f 30/4/1 33/4/1 60/4/1 27/4/1
f 61/4/2 62/4/2 63/4/2 56/4/2
f 60/4/3 61/4/3 56/4/3 27/4/3
f 33/4/6 62/4/6 61/4/6 60/4/6
f 59/4/5 64/4/5 31/4/5 29/4/5
f 34/11/1 38/11/1 65/11/1 33/11/1
f 66/11/2 67/11/2 68/11/2 62/11/2
f 65/11/3 66/11/3 62/11/3 33/11/3
f 38/11/6 67/11/6 66/11/6 65/11/6
f 64/5/5 69/5/5 35/5/5 31/5/5
f 40/5/1 70/5/1 71/5/1 38/5/1
f 72/5/2 73/5/2 74/5/2 67/5/2
f 71/5/3 72/5/3 67/5/3 38/5/3
f 74/5/4 73/5/4 70/5/4 40/5/4
f 70/5/1 75/5/1 76/5/1 71/5/1
f 77/5/2 78/5/2 73/5/2 72/5/2
f 76/5/3 77/5/3 72/5/3 71/5/3
f 73/5/4 78/5/4 75/5/4 70/5/4
f 75/5/6 78/5/6 77/5/6 76/5/6
f 69/5/5 79/5/5 41/5/5 35/5/5
f 44/5/1 80/5/1 40/5/1 39/5/1
f 74/5/2 81/5/2 82/5/2 83/5/2
f 82/5/4 81/5/4 80/5/4 44/5/4
f 80/5/6 81/5/6 74/5/6 40/5/6
f 79/5/5 84/5/5 47/5/5 41/5/5
f 48/5/1 85/5/1 44/5/1 43/5/1
f 85/5/6 86/5/6 82/5/6 44/5/6
f 84/5/5 87/5/5 51/5/5 47/5/5
f 52/11/1 88/11/1 85/11/1 48/11/1
f 89/11/4 90/11/4 88/11/4 52/11/4
f 88/11/1 91/11/1 92/11/1 85/11/1
f 92/11/3 93/11/3 86/11/3 85/11/3
f 90/11/4 94/11/4 91/11/4 88/11/4
f 91/11/6 94/11/6 93/11/6 92/11/6
f 95/11/1 96/11/1 52/11/1 51/11/1
f 97/11/4 98/11/4 96/11/4 95/11/4
f 87/11/5 97/11/5 95/11/5 51/11/5
f 96/11/6 98/11/6 89/11/6 52/11/6
f 99/4/2 100/4/2 101/4/2 102/4/2
f 56/4/3 99/4/3 102/4/3 57/4/3
f 102/4/5 101/4/5 59/4/5 57/4/5
f 63/4/6 100/4/6 99/4/6 56/4/6
f 101/4/5 103/4/5 64/4/5 59/4/5
f 104/4/2 105/4/2 106/4/2 100/4/2
f 62/4/3 104/4/3 100/4/3 63/4/3
f 68/4/6 105/4/6 104/4/6 62/4/6
f 103/5/5 107/5/5 69/5/5 64/5/5
f 108/5/2 109/5/2 110/5/2 105/5/2
f 67/5/3 108/5/3 105/5/3 68/5/3
f 110/5/4 109/5/4 74/5/4 83/5/4
f 74/5/6 109/5/6 108/5/6 67/5/6
f 107/5/5 111/5/5 79/5/5 69/5/5
f 82/5/6 112/5/6 110/5/6 83/5/6
f 111/5/5 113/5/5 84/5/5 79/5/5
f 86/11/1 93/11/1 81/11/1 82/11/1
f 81/11/3 114/11/3 112/11/3 82/11/3
f 93/11/6 115/11/6 114/11/6 81/11/6
f 113/11/5 116/11/5 87/11/5 84/11/5
f 94/11/1 117/11/1 118/11/1 93/11/1
f 118/11/3 119/11/3 115/11/3 93/11/3
f 120/11/4 121/11/4 117/11/4 94/11/4
f 117/11/1 122/11/1 123/11/1 118/11/1
f 123/11/3 124/11/3 119/11/3 118/11/3
f 121/11/4 125/11/4 122/11/4 117/11/4
f 122/11/6 125/11/6 124/11/6 123/11/6
f 116/5/5 126/5/5 97/5/5 87/5/5
f 98/11/1 127/11/1 90/11/1 89/11/1
f 128/11/4 129/11/4 127/11/4 98/11/4
f 127/11/1 130/11/1 94/11/1 90/11/1
f 129/11/4 131/11/4 130/11/4 127/11/4
f 130/11/6 131/11/6 120/11/6 94/11/6
f 132/11/1 133/11/1 98/11/1 97/11/1
f 134/11/4 135/11/4 133/11/4 132/11/4
f 126/11/5 134/11/5 132/11/5 97/11/5
f 133/11/6 135/11/6 128/11/6 98/11/6
f 100/4/3 136/4/3 137/4/3 101/4/3
f 137/4/5 138/4/5 103/4/5 101/4/5
f 106/4/6 139/4/6 136/4/6 100/4/6
f 138/5/5 140/5/5 107/5/5 103/5/5
f 105/5/3 141/5/3 139/5/3 106/5/3
f 110/5/6 142/5/6 141/5/6 105/5/6
f 140/5/5 143/5/5 111/5/5 107/5/5
f 112/11/1 114/11/1 109/11/1 110/11/1
f 109/11/3 144/11/3 142/11/3 110/11/3
f 114/11/6 145/11/6 144/11/6 109/11/6
f 143/11/5 146/11/5 113/11/5 111/11/5
f 115/11/1 119/11/1 147/11/1 114/11/1
f 147/11/3 148/11/3 145/11/3 114/11/3
f 119/11/1 124/11/1 149/11/1 147/11/1
f 149/11/3 150/11/3 148/11/3 147/11/3
f 124/11/6 151/11/6 150/11/6 149/11/6
f 146/11/5 152/11/5 116/11/5 113/11/5
f 125/11/1 153/11/1 154/11/1 124/11/1
f 154/11/3 155/11/3 151/11/3 124/11/3
f 156/11/4 157/11/4 153/11/4 125/11/4
f 153/11/1 158/11/1 159/11/1 154/11/1
f 159/11/3 160/11/3 155/11/3 154/11/3
f 157/11/4 161/11/4 158/11/4 153/11/4
f 158/11/1 162/11/1 163/11/1 159/11/1
f 163/11/3 164/11/3 160/11/3 159/11/3
f 161/11/4 165/11/4 162/11/4 158/11/4
f 162/11/6 165/11/6 164/11/6 163/11/6
f 152/11/5 166/11/5 126/11/5 116/11/5
f 131/11/1 167/11/1 121/11/1 120/11/1
f 168/11/4 169/11/4 167/11/4 131/11/4
f 167/11/1 170/11/1 125/11/1 121/11/1
f 169/11/4 171/11/4 170/11/4 167/11/4
f 170/11/6 171/11/6 156/11/6 125/11/6
f 166/11/5 172/11/5 134/11/5 126/11/5
f 135/11/1 173/11/1 129/11/1 128/11/1
f 174/11/4 175/11/4 173/11/4 135/11/4
f 173/11/1 176/11/1 131/11/1 129/11/1
f 175/11/4 177/11/4 176/11/4 173/11/4
f 176/11/6 177/11/6 168/11/6 131/11/6
f 178/11/1 179/11/1 135/11/1 134/11/1
f 180/11/4 181/11/4 179/11/4 178/11/4
f 172/11/5 180/11/5 178/11/5 134/11/5
f 179/11/6 181/11/6 174/11/6 135/11/6
f 136/11/3 182/11/3 183/11/3 137/11/3
f 183/11/5 184/11/5 138/11/5 137/11/5
f 139/11/6 185/11/6 182/11/6 136/11/6
f 184/5/5 186/5/5 140/5/5 138/5/5
f 141/11/3 187/11/3 185/11/3 139/11/3
f 142/11/1 144/11/1 188/11/1 141/11/1
f 188/11/3 189/11/3 187/11/3 141/11/3
f 144/11/6 190/11/6 189/11/6 188/11/6
f 186/11/5 191/11/5 143/11/5 140/11/5
f 145/11/1 148/11/1 192/11/1 144/11/1
f 192/11/3 193/11/3 190/11/3 144/11/3
f 148/11/1 150/11/1 194/11/1 192/11/1
f 194/11/3 195/11/3 193/11/3 192/11/3
f 150/11/6 196/11/6 195/11/6 194/11/6
f 191/11/5 197/11/5 146/11/5 143/11/5
f 151/11/1 155/11/1 198/11/1 150/11/1
f 198/11/3 199/11/3 196/11/3 150/11/3
f 155/11/1 160/11/1 200/11/1 198/11/1
f 200/11/3 201/11/3 199/11/3 198/11/3
f 160/11/1 164/11/1 202/11/1 200/11/1
f 202/11/3 203/11/3 201/11/3 200/11/3
f 164/11/6 204/11/6 203/11/6 202/11/6
f 197/11/5 205/11/5 152/11/5 146/11/5
f 165/11/1 206/11/1 207/11/1 164/11/1
f 207/11/3 208/11/3 204/11/3 164/11/3
f 209/11/4 210/11/4 206/11/4 165/11/4
f 206/11/1 211/11/1 212/11/1 207/11/1
f 212/11/3 213/11/3 208/11/3 207/11/3
f 210/11/4 214/11/4 211/11/4 206/11/4
f 211/11/6 214/11/6 213/11/6 212/11/6
f 205/11/5 215/11/5 166/11/5 152/11/5
f 171/11/1 216/11/1 157/11/1 156/11/1
f 217/11/4 218/11/4 216/11/4 171/11/4
f 216/11/1 219/11/1 161/11/1 157/11/1
f 218/11/4 220/11/4 219/11/4 216/11/4
f 219/11/1 221/11/1 165/11/1 161/11/1
f 220/11/4 222/11/4 221/11/4 219/11/4
f 221/11/6 222/11/6 209/11/6 165/11/6
f 215/11/5 223/11/5 172/11/5 166/11/5
f 177/11/1 224/11/1 169/11/1 168/11/1
f 225/11/4 226/11/4 224/11/4 177/11/4
f 224/11/1 227/11/1 171/11/1 169/11/1
f 226/11/4 228/11/4 227/11/4 224/11/4
f 227/11/6 228/11/6 217/11/6 171/11/6
f 223/11/5 229/11/5 180/11/5 172/11/5
f 181/11/1 230/11/1 175/11/1 174/11/1
f 231/11/4 232/11/4 230/11/4 181/11/4
f 230/11/1 233/11/1 177/11/1 175/11/1
f 232/11/4 234/11/4 233/11/4 230/11/4
f 233/11/6 234/11/6 225/11/6 177/11/6
f 235/11/1 236/11/1 181/11/1 180/11/1
f 237/11/4 238/11/4 236/11/4 235/11/4
f 229/11/5 237/11/5 235/11/5 180/11/5
f 236/11/6 238/11/6 231/11/6 181/11/6
f 183/4/1 182/4/1 239/4/1 240/4/1
f 241/4/2 242/4/2 243/4/2 244/4/2
f 239/4/3 241/4/3 244/4/3 240/4/3
f 244/4/5 243/4/5 183/4/5 240/4/5
f 182/4/6 242/4/6 241/4/6 239/4/6
f 243/4/5 245/4/5 184/4/5 183/4/5
f 185/5/1 187/5/1 246/5/1 182/5/1
f 247/5/2 248/5/2 249/5/2 242/5/2
f 246/5/3 247/5/3 242/5/3 182/5/3
f 187/4/1 189/4/1 250/4/1 246/4/1
f 251/4/2 252/4/2 248/4/2 247/4/2
f 250/4/3 251/4/3 247/4/3 246/4/3
f 189/4/6 252/4/6 251/4/6 250/4/6
f 245/4/5 253/4/5 186/4/5 184/4/5
f 190/4/1 193/4/1 254/4/1 189/4/1
f 255/4/2 256/4/2 257/4/2 252/4/2
f 254/4/3 255/4/3 252/4/3 189/4/3
f 193/4/1 195/4/1 258/4/1 254/4/1
f 259/4/2 260/4/2 256/4/2 255/4/2
f 258/4/3 259/4/3 255/4/3 254/4/3
f 195/4/6 260/4/6 259/4/6 258/4/6
f 253/4/5 261/4/5 191/4/5 186/4/5
f 196/4/1 199/4/1 262/4/1 195/4/1
f 263/4/2 264/4/2 265/4/2 260/4/2
f 262/4/3 263/4/3 260/4/3 195/4/3
f 199/4/1 201/4/1 266/4/1 262/4/1
f 267/4/2 268/4/2 264/4/2 263/4/2
f 266/4/3 267/4/3 263/4/3 262/4/3
f 201/4/1 203/4/1 269/4/1 266/4/1
f 270/4/2 271/4/2 268/4/2 267/4/2
f 269/4/3 270/4/3 267/4/3 266/4/3
f 203/4/6 271/4/6 270/4/6 269/4/6
f 261/4/5 272/4/5 197/4/5 191/4/5
f 204/4/1 208/4/1 273/4/1 203/4/1
f 274/4/2 275/4/2 276/4/2 271/4/2
f 273/4/3 274/4/3 271/4/3 203/4/3
f 208/4/1 213/4/1 277/4/1 273/4/1
f 278/4/2 279/4/2 275/4/2 274/4/2
f 277/4/3 278/4/3 274/4/3 273/4/3
f 213/4/6 279/4/6 278/4/6 277/4/6
f 272/5/5 280/5/5 205/5/5 197/5/5
f 214/5/1 281/5/1 282/5/1 213/5/1
f 283/5/2 284/5/2 285/5/2 279/5/2
f 282/5/3 283/5/3 279/5/3 213/5/3
f 285/5/4 284/5/4 281/5/4 214/5/4
f 281/5/1 286/5/1 287/5/1 282/5/1
f 288/5/2 289/5/2 284/5/2 283/5/2
f 287/5/3 288/5/3 283/5/3 282/5/3
f 284/5/4 289/5/4 286/5/4 281/5/4
f 286/5/1 290/5/1 291/5/1 287/5/1
f 292/5/2 293/5/2 289/5/2 288/5/2
f 291/5/3 292/5/3 288/5/3 287/5/3
f 289/5/4 293/5/4 290/5/4 286/5/4
f 290/5/6 293/5/6 292/5/6 291/5/6
f 280/5/5 294/5/5 215/5/5 205/5/5
f 222/5/1 295/5/1 210/5/1 209/5/1
f 296/5/2 297/5/2 298/5/2 299/5/2
f 298/5/4 297/5/4 295/5/4 222/5/4
f 295/11/1 300/11/1 214/11/1 210/11/1
f 285/11/2 301/11/2 297/11/2 296/11/2
f 297/11/4 301/11/4 300/11/4 295/11/4
f 300/11/6 301/11/6 285/11/6 214/11/6
f 294/5/5 302/5/5 223/5/5 215/5/5
f 228/5/1 303/5/1 218/5/1 217/5/1
f 304/5/2 305/5/2 306/5/2 307/5/2
f 306/5/4 305/5/4 303/5/4 228/5/4
f 303/5/1 308/5/1 220/5/1 218/5/1
f 309/5/2 310/5/2 305/5/2 304/5/2
f 305/5/4 310/5/4 308/5/4 303/5/4
f 308/5/1 311/5/1 222/5/1 220/5/1
f 298/5/2 312/5/2 310/5/2 309/5/2
f 310/5/4 312/5/4 311/5/4 308/5/4
f 311/5/6 312/5/6 298/5/6 222/5/6
f 302/5/5 313/5/5 229/5/5 223/5/5
f 234/5/1 314/5/1 226/5/1 225/5/1
f 315/5/2 316/5/2 317/5/2 318/5/2
f 317/5/4 316/5/4 314/5/4 234/5/4
f 314/5/1 319/5/1 228/5/1 226/5/1
f 306/5/2 320/5/2 316/5/2 315/5/2
f 316/5/4 320/5/4 319/5/4 314/5/4
f 319/5/6 320/5/6 306/5/6 228/5/6
f 313/5/5 321/5/5 237/5/5 229/5/5
f 238/5/1 322/5/1 232/5/1 231/5/1
f 323/5/2 324/5/2 325/5/2 326/5/2
f 325/5/4 324/5/4 322/5/4 238/5/4
f 322/5/1 327/5/1 234/5/1 232/5/1
f 317/5/2 328/5/2 324/5/2 323/5/2
f 324/5/4 328/5/4 327/5/4 322/5/4
f 327/5/6 328/5/6 317/5/6 234/5/6
f 329/5/1 330/5/1 238/5/1 237/5/1
f 325/5/2 331/5/2 332/5/2 321/5/2
f 332/5/4 331/5/4 330/5/4 329/5/4
f 321/5/5 332/5/5 329/5/5 237/5/5
f 330/5/6 331/5/6 325/5/6 238/5/6
f 333/4/2 334/4/2 335/4/2 336/4/2
f 242/4/3 333/4/3 336/4/3 243/4/3
f 336/4/5 335/4/5 245/4/5 243/4/5
f 249/4/6 334/4/6 333/4/6 242/4/6
f 335/4/5 337/4/5 253/4/5 245/4/5
f 338/4/2 339/4/2 340/4/2 334/4/2
f 248/4/3 338/4/3 334/4/3 249/4/3
f 341/4/2 342/4/2 339/4/2 338/4/2
f 252/4/3 341/4/3 338/4/3 248/4/3
f 257/4/6 342/4/6 341/4/6 252/4/6
f 337/4/5 343/4/5 261/4/5 253/4/5
f 344/4/2 345/4/2 346/4/2 342/4/2
f 256/4/3 344/4/3 342/4/3 257/4/3
f 347/4/2 348/4/2 345/4/2 344/4/2
f 260/4/3 347/4/3 344/4/3 256/4/3
f 265/4/6 348/4/6 347/4/6 260/4/6
f 343/4/5 349/4/5 272/4/5 261/4/5
f 350/4/2 351/4/2 352/4/2 348/4/2
f 264/4/3 350/4/3 348/4/3 265/4/3
f 353/4/2 354/4/2 351/4/2 350/4/2
f 268/4/3 353/4/3 350/4/3 264/4/3
f 355/4/2 356/4/2 354/4/2 353/4/2
f 271/4/3 355/4/3 353/4/3 268/4/3
f 276/4/6 356/4/6 355/4/6 271/4/6
f 349/5/5 357/5/5 280/5/5 272/5/5
f 358/5/2 359/5/2 360/5/2 356/5/2
f 275/5/3 358/5/3 356/5/3 276/5/3
f 360/5/4 359/5/4 296/5/4 299/5/4
f 361/5/2 362/5/2 359/5/2 358/5/2
f 279/5/3 361/5/3 358/5/3 275/5/3
f 359/5/4 362/5/4 285/5/4 296/5/4
f 285/5/6 362/5/6 361/5/6 279/5/6
f 357/11/5 363/11/5 294/11/5 280/11/5
f 364/5/2 365/5/2 366/5/2 367/5/2
f 366/5/4 365/5/4 304/5/4 307/5/4
f 368/5/2 369/5/2 365/5/2 364/5/2
f 365/5/4 369/5/4 309/5/4 304/5/4
f 360/5/2 370/5/2 369/5/2 368/5/2
f 369/5/4 370/5/4 298/5/4 309/5/4
f 298/5/6 370/5/6 360/5/6 299/5/6
f 363/5/5 371/5/5 302/5/5 294/5/5
f 372/5/2 373/5/2 374/5/2 375/5/2
f 374/5/4 373/5/4 315/5/4 318/5/4
f 366/5/2 376/5/2 373/5/2 372/5/2
f 373/5/4 376/5/4 306/5/4 315/5/4
f 306/5/6 376/5/6 366/5/6 307/5/6
f 371/5/5 377/5/5 313/5/5 302/5/5
f 378/5/2 379/5/2 380/5/2 381/5/2
f 380/5/4 379/5/4 323/5/4 326/5/4
f 374/5/2 382/5/2 379/5/2 378/5/2
f 379/5/4 382/5/4 317/5/4 323/5/4
f 317/5/6 382/5/6 374/5/6 318/5/6
f 380/5/2 383/5/2 384/5/2 377/5/2
f 384/5/4 383/5/4 325/5/4 321/5/4
f 377/5/5 384/5/5 321/5/5 313/5/5
f 325/5/6 383/5/6 380/5/6 326/5/6
f 385/4/2 386/4/2 387/4/2 388/4/2
f 334/4/3 385/4/3 388/4/3 335/4/3
f 388/4/5 387/4/5 337/4/5 335/4/5
f 340/4/6 386/4/6 385/4/6 334/4/6
f 387/4/5 389/4/5 343/4/5 337/4/5
f 390/4/2 391/4/2 392/4/2 386/4/2
f 339/4/3 390/4/3 386/4/3 340/4/3
f 393/4/2 394/4/2 391/4/2 390/4/2
f 342/4/3 393/4/3 390/4/3 339/4/3
f 346/4/6 394/4/6 393/4/6 342/4/6
f 389/4/5 395/4/5 349/4/5 343/4/5
f 396/4/2 397/4/2 398/4/2 394/4/2
f 345/4/3 396/4/3 394/4/3 346/4/3
f 399/4/2 400/4/2 397/4/2 396/4/2
f 348/4/3 399/4/3 396/4/3 345/4/3
f 352/4/6 400/4/6 399/4/6 348/4/6
f 395/5/5 401/5/5 357/5/5 349/5/5
f 402/5/2 403/5/2 404/5/2 400/5/2
f 351/5/3 402/5/3 400/5/3 352/5/3
f 404/5/4 403/5/4 364/5/4 367/5/4
f 405/5/2 406/5/2 403/5/2 402/5/2
f 354/5/3 405/5/3 402/5/3 351/5/3
f 403/5/4 406/5/4 368/5/4 364/5/4
f 407/5/2 408/5/2 406/5/2 405/5/2
f 356/5/3 407/5/3 405/5/3 354/5/3
f 406/5/4 408/5/4 360/5/4 368/5/4
f 360/5/6 408/5/6 407/5/6 356/5/6
f 401/5/5 409/5/5 363/5/5 357/5/5
f 410/5/2 411/5/2 412/5/2 413/5/2
f 412/5/4 411/5/4 372/5/4 375/5/4
f 404/5/2 414/5/2 411/5/2 410/5/2
f 411/5/4 414/5/4 366/5/4 372/5/4
f 366/5/6 414/5/6 404/5/6 367/5/6
f 409/5/5 415/5/5 371/5/5 363/5/5
f 416/5/2 417/5/2 418/5/2 419/5/2
f 418/5/4 417/5/4 378/5/4 381/5/4
f 412/5/2 420/5/2 417/5/2 416/5/2
f 417/5/4 420/5/4 374/5/4 378/5/4
f 374/5/6 420/5/6 412/5/6 375/5/6
f 418/11/2 421/11/2 422/11/2 415/11/2
f 422/11/4 421/11/4 380/11/4 377/11/4
f 415/11/5 422/11/5 377/11/5 371/11/5
f 380/11/6 421/11/6 418/11/6 381/11/6
f 423/4/2 424/4/2 425/4/2 426/4/2
f 386/4/3 423/4/3 426/4/3 387/4/3
f 426/4/5 425/4/5 389/4/5 387/4/5
f 392/4/6 424/4/6 423/4/6 386/4/6
f 425/4/5 427/4/5 395/4/5 389/4/5
f 428/4/2 429/4/2 430/4/2 424/4/2
f 391/4/3 428/4/3 424/4/3 392/4/3
f 431/4/2 432/4/2 429/4/2 428/4/2
f 394/4/3 431/4/3 428/4/3 391/4/3
f 398/4/6 432/4/6 431/4/6 394/4/6
f 427/5/5 433/5/5 401/5/5 395/5/5
f 434/5/2 435/5/2 436/5/2 432/5/2
f 397/5/3 434/5/3 432/5/3 398/5/3
f 436/5/4 435/5/4 410/5/4 413/5/4
f 437/5/2 438/5/2 435/5/2 434/5/2
f 400/5/3 437/5/3 434/5/3 397/5/3
f 435/5/4 438/5/4 404/5/4 410/5/4
f 404/5/6 438/5/6 437/5/6 400/5/6
f 433/5/5 439/5/5 409/5/5 401/5/5
f 440/5/2 441/5/2 442/5/2 443/5/2
f 442/5/4 441/5/4 416/5/4 419/5/4
f 436/5/2 444/5/2 441/5/2 440/5/2
f 441/5/4 444/5/4 412/5/4 416/5/4
f 412/5/6 444/5/6 436/5/6 413/5/6
f 442/5/2 445/5/2 446/5/2 439/5/2
f 446/5/4 445/5/4 418/5/4 415/5/4
f 439/5/5 446/5/5 415/5/5 409/5/5
f 418/5/6 445/5/6 442/5/6 419/5/6
f 447/4/2 448/4/2 449/4/2 450/4/2
f 424/4/3 447/4/3 450/4/3 425/4/3
f 450/4/5 449/4/5 427/4/5 425/4/5
f 430/4/6 448/4/6 447/4/6 424/4/6
f 449/5/5 451/5/5 433/5/5 427/5/5
f 452/5/2 453/5/2 454/5/2 448/5/2
f 429/5/3 452/5/3 448/5/3 430/5/3
f 454/5/4 453/5/4 440/5/4 443/5/4
f 455/5/2 456/5/2 453/5/2 452/5/2
f 432/5/3 455/5/3 452/5/3 429/5/3
f 453/5/4 456/5/4 436/5/4 440/5/4
f 436/5/6 456/5/6 455/5/6 432/5/6
f 454/5/2 457/5/2 458/5/2 451/5/2
f 458/5/4 457/5/4 442/5/4 439/5/4
f 451/5/5 458/5/5 439/5/5 433/5/5
f 442/5/6 457/5/6 454/5/6 443/5/6
f 459/5/2 460/5/2 461/5/2 462/5/2
f 448/5/3 459/5/3 462/5/3 449/5/3
f 461/5/4 460/5/4 454/5/4 451/5/4
f 462/5/5 461/5/5 451/5/5 449/5/5
f 454/5/6 460/5/6 459/5/6 448/5/6
