# Dungine stalactite_hanging; 1 voxel = 1/16 unit; Y-up floor-center origin
mtllib stalactite_hanging.mtl
o stalactite_hanging
s off
v -0.437500 1.875000 -0.125000
v -0.437500 1.937500 -0.125000
v -0.437500 1.937500 -0.187500
v -0.437500 1.875000 -0.187500
v -0.375000 1.937500 -0.187500
v -0.375000 1.875000 -0.187500
v -0.375000 1.875000 -0.125000
v -0.375000 1.937500 -0.125000
v -0.375000 1.937500 -0.312500
v -0.375000 2.000000 -0.312500
v -0.375000 2.000000 -0.375000
v -0.375000 1.937500 -0.375000
v -0.312500 2.000000 -0.375000
v -0.312500 1.937500 -0.375000
v -0.312500 1.937500 -0.312500
v -0.312500 2.000000 -0.312500
v -0.375000 1.937500 -0.250000
v -0.375000 2.000000 -0.250000
v -0.312500 1.937500 -0.250000
v -0.312500 2.000000 -0.250000
v -0.375000 1.875000 -0.250000
v -0.312500 1.875000 -0.250000
v -0.312500 1.875000 -0.187500
v -0.375000 2.000000 -0.187500
v -0.312500 2.000000 -0.187500
v -0.375000 1.687500 -0.125000
v -0.375000 1.750000 -0.125000
v -0.375000 1.750000 -0.187500
v -0.375000 1.687500 -0.187500
v -0.312500 1.750000 -0.187500
v -0.312500 1.687500 -0.187500
v -0.312500 1.687500 -0.125000
v -0.312500 1.750000 -0.125000
v -0.375000 1.812500 -0.125000
v -0.375000 1.812500 -0.187500
v -0.312500 1.812500 -0.187500
v -0.312500 1.812500 -0.125000
v -0.312500 1.875000 -0.125000
v -0.375000 2.000000 -0.125000
v -0.312500 2.000000 -0.125000
v -0.375000 1.875000 -0.062500
v -0.375000 1.937500 -0.062500
v -0.312500 1.875000 -0.062500
v -0.375000 2.000000 -0.062500
v -0.312500 2.000000 -0.062500
v -0.375000 1.875000 0.000000
v -0.375000 1.937500 0.000000
v -0.312500 1.875000 0.000000
v -0.375000 2.000000 0.000000
v -0.312500 2.000000 0.000000
v -0.375000 1.875000 0.062500
v -0.375000 1.937500 0.062500
v -0.312500 1.875000 0.062500
v -0.375000 2.000000 0.062500
v -0.312500 2.000000 0.062500
v -0.375000 1.875000 0.125000
v -0.375000 1.937500 0.125000
v -0.312500 1.875000 0.125000
v -0.375000 2.000000 0.125000
v -0.312500 2.000000 0.125000
v -0.375000 1.875000 0.187500
v -0.375000 1.937500 0.187500
v -0.312500 1.875000 0.187500
v -0.375000 2.000000 0.187500
v -0.312500 2.000000 0.187500
v -0.375000 1.875000 0.250000
v -0.375000 1.937500 0.250000
v -0.312500 1.875000 0.250000
v -0.375000 2.000000 0.250000
v -0.312500 2.000000 0.250000
v -0.375000 1.875000 0.312500
v -0.375000 1.937500 0.312500
v -0.312500 1.875000 0.312500
v -0.375000 2.000000 0.312500
v -0.312500 2.000000 0.312500
v -0.375000 1.875000 0.375000
v -0.375000 1.937500 0.375000
v -0.312500 1.875000 0.375000
v -0.312500 1.937500 0.375000
v -0.375000 2.000000 0.375000
v -0.312500 2.000000 0.375000
v -0.250000 2.000000 -0.375000
v -0.250000 1.937500 -0.375000
v -0.250000 1.937500 -0.312500
v -0.250000 2.000000 -0.312500
v -0.250000 1.937500 -0.250000
v -0.250000 2.000000 -0.250000
v -0.312500 1.750000 -0.250000
v -0.312500 1.687500 -0.250000
v -0.250000 1.750000 -0.250000
v -0.250000 1.687500 -0.250000
v -0.250000 1.687500 -0.187500
v -0.312500 1.812500 -0.250000
v -0.250000 1.812500 -0.250000
v -0.250000 1.875000 -0.250000
v -0.250000 2.000000 -0.187500
v -0.312500 1.500000 -0.125000
v -0.312500 1.562500 -0.125000
v -0.312500 1.562500 -0.187500
v -0.312500 1.500000 -0.187500
v -0.250000 1.562500 -0.187500
v -0.250000 1.500000 -0.187500
v -0.250000 1.500000 -0.125000
v -0.250000 1.562500 -0.125000
v -0.312500 1.625000 -0.125000
v -0.312500 1.625000 -0.187500
v -0.250000 1.625000 -0.187500
v -0.250000 1.625000 -0.125000
v -0.250000 1.687500 -0.125000
v -0.250000 2.000000 -0.125000
v -0.312500 1.687500 -0.062500
v -0.312500 1.750000 -0.062500
v -0.250000 1.687500 -0.062500
v -0.250000 1.750000 -0.062500
v -0.312500 1.812500 -0.062500
v -0.250000 1.812500 -0.062500
v -0.250000 1.875000 -0.062500
v -0.250000 2.000000 -0.062500
v -0.250000 1.875000 0.000000
v -0.250000 2.000000 0.000000
v -0.312500 1.687500 0.062500
v -0.312500 1.750000 0.062500
v -0.312500 1.750000 0.000000
v -0.312500 1.687500 0.000000
v -0.250000 1.750000 0.000000
v -0.250000 1.687500 0.000000
v -0.250000 1.687500 0.062500
v -0.250000 1.750000 0.062500
v -0.312500 1.812500 0.062500
v -0.312500 1.812500 0.000000
v -0.250000 1.812500 0.000000
v -0.250000 1.812500 0.062500
v -0.250000 1.875000 0.062500
v -0.250000 2.000000 0.062500
v -0.250000 1.875000 0.125000
v -0.250000 2.000000 0.125000
v -0.250000 1.875000 0.187500
v -0.250000 2.000000 0.187500
v -0.250000 1.875000 0.250000
v -0.250000 2.000000 0.250000
v -0.250000 1.875000 0.312500
v -0.250000 2.000000 0.312500
v -0.250000 1.875000 0.375000
v -0.250000 1.937500 0.375000
v -0.250000 2.000000 0.375000
v -0.250000 1.875000 -0.312500
v -0.250000 1.875000 -0.375000
v -0.187500 1.937500 -0.375000
v -0.187500 1.875000 -0.375000
v -0.187500 1.875000 -0.312500
v -0.187500 2.000000 -0.375000
v -0.187500 2.000000 -0.312500
v -0.250000 1.750000 -0.312500
v -0.250000 1.687500 -0.312500
v -0.187500 1.750000 -0.312500
v -0.187500 1.750000 -0.250000
v -0.187500 1.687500 -0.250000
v -0.187500 1.687500 -0.312500
v -0.250000 1.812500 -0.312500
v -0.187500 1.812500 -0.312500
v -0.187500 1.812500 -0.250000
v -0.187500 1.875000 -0.250000
v -0.187500 2.000000 -0.250000
v -0.250000 1.562500 -0.250000
v -0.250000 1.500000 -0.250000
v -0.187500 1.562500 -0.250000
v -0.187500 1.562500 -0.187500
v -0.187500 1.500000 -0.187500
v -0.187500 1.500000 -0.250000
v -0.250000 1.625000 -0.250000
v -0.187500 1.625000 -0.250000
v -0.187500 1.625000 -0.187500
v -0.187500 1.687500 -0.187500
v -0.187500 2.000000 -0.187500
v -0.250000 1.312500 -0.125000
v -0.250000 1.375000 -0.125000
v -0.250000 1.375000 -0.187500
v -0.250000 1.312500 -0.187500
v -0.187500 1.375000 -0.187500
v -0.187500 1.375000 -0.125000
v -0.187500 1.312500 -0.125000
v -0.187500 1.312500 -0.187500
v -0.250000 1.437500 -0.125000
v -0.250000 1.437500 -0.187500
v -0.187500 1.437500 -0.187500
v -0.187500 1.437500 -0.125000
v -0.187500 1.500000 -0.125000
v -0.187500 2.000000 -0.125000
v -0.250000 1.500000 -0.062500
v -0.250000 1.562500 -0.062500
v -0.187500 1.562500 -0.125000
v -0.187500 1.562500 -0.062500
v -0.187500 1.500000 -0.062500
v -0.250000 1.625000 -0.062500
v -0.187500 1.625000 -0.125000
v -0.187500 1.625000 -0.062500
v -0.187500 1.687500 -0.125000
v -0.187500 1.687500 -0.062500
v -0.187500 2.000000 -0.062500
v -0.187500 1.687500 0.000000
v -0.187500 2.000000 0.000000
v -0.250000 1.500000 0.062500
v -0.250000 1.562500 0.062500
v -0.250000 1.562500 0.000000
v -0.250000 1.500000 0.000000
v -0.187500 1.562500 0.000000
v -0.187500 1.500000 0.000000
v -0.187500 1.500000 0.062500
v -0.187500 1.562500 0.062500
v -0.250000 1.625000 0.062500
v -0.250000 1.625000 0.000000
v -0.187500 1.625000 0.000000
v -0.187500 1.625000 0.062500
v -0.187500 1.687500 0.062500
v -0.187500 2.000000 0.062500
v -0.250000 1.687500 0.125000
v -0.250000 1.750000 0.125000
v -0.187500 1.687500 0.125000
v -0.187500 1.750000 0.125000
v -0.250000 1.812500 0.125000
v -0.187500 1.812500 0.125000
v -0.187500 1.875000 0.125000
v -0.187500 2.000000 0.125000
v -0.187500 1.875000 0.187500
v -0.187500 2.000000 0.187500
v -0.187500 1.875000 0.250000
v -0.187500 2.000000 0.250000
v -0.187500 1.875000 0.312500
v -0.187500 2.000000 0.312500
v -0.187500 1.875000 0.375000
v -0.187500 1.937500 0.375000
v -0.187500 2.000000 0.375000
v -0.125000 1.937500 -0.375000
v -0.125000 1.875000 -0.375000
v -0.125000 1.875000 -0.312500
v -0.125000 2.000000 -0.375000
v -0.125000 2.000000 -0.312500
v -0.125000 1.875000 -0.250000
v -0.125000 2.000000 -0.250000
v -0.125000 1.750000 -0.250000
v -0.125000 1.750000 -0.187500
v -0.125000 1.687500 -0.187500
v -0.125000 1.687500 -0.250000
v -0.125000 1.812500 -0.250000
v -0.125000 1.812500 -0.187500
v -0.125000 1.875000 -0.187500
v -0.125000 2.000000 -0.187500
v -0.125000 1.562500 -0.187500
v -0.125000 1.562500 -0.125000
v -0.125000 1.500000 -0.125000
v -0.125000 1.500000 -0.187500
v -0.125000 1.625000 -0.187500
v -0.125000 1.625000 -0.125000
v -0.125000 1.687500 -0.125000
v -0.125000 2.000000 -0.125000
v -0.125000 1.687500 -0.062500
v -0.125000 2.000000 -0.062500
v -0.125000 1.562500 -0.062500
v -0.125000 1.500000 -0.062500
v -0.125000 1.500000 0.000000
v -0.125000 1.625000 -0.062500
v -0.125000 2.000000 0.000000
v -0.187500 1.312500 0.062500
v -0.187500 1.375000 0.062500
v -0.187500 1.375000 0.000000
v -0.187500 1.312500 0.000000
v -0.125000 1.375000 0.000000
v -0.125000 1.312500 0.000000
v -0.125000 1.312500 0.062500
v -0.125000 1.375000 0.062500
v -0.187500 1.437500 0.062500
v -0.187500 1.437500 0.000000
v -0.125000 1.437500 0.000000
v -0.125000 1.437500 0.062500
v -0.125000 1.500000 0.062500
v -0.125000 2.000000 0.062500
v -0.187500 1.500000 0.125000
v -0.187500 1.562500 0.125000
v -0.125000 1.500000 0.125000
v -0.125000 1.562500 0.125000
v -0.187500 1.625000 0.125000
v -0.125000 1.625000 0.125000
v -0.125000 1.687500 0.125000
v -0.125000 2.000000 0.125000
v -0.187500 1.687500 0.187500
v -0.187500 1.750000 0.187500
v -0.125000 1.687500 0.187500
v -0.125000 1.750000 0.187500
v -0.187500 1.812500 0.187500
v -0.125000 1.812500 0.187500
v -0.125000 1.875000 0.187500
v -0.125000 2.000000 0.187500
v -0.125000 1.875000 0.250000
v -0.125000 2.000000 0.250000
v -0.125000 1.875000 0.312500
v -0.125000 2.000000 0.312500
v -0.125000 1.875000 0.375000
v -0.125000 1.937500 0.375000
v -0.125000 2.000000 0.375000
v -0.062500 1.937500 -0.375000
v -0.062500 1.875000 -0.375000
v -0.062500 1.875000 -0.312500
v -0.062500 2.000000 -0.375000
v -0.062500 2.000000 -0.312500
v -0.062500 1.875000 -0.250000
v -0.062500 2.000000 -0.250000
v -0.062500 1.875000 -0.187500
v -0.062500 2.000000 -0.187500
v -0.062500 1.750000 -0.187500
v -0.062500 1.687500 -0.187500
v -0.062500 1.687500 -0.125000
v -0.062500 1.812500 -0.187500
v -0.062500 2.000000 -0.125000
v -0.062500 1.562500 -0.125000
v -0.062500 1.500000 -0.125000
v -0.062500 1.500000 -0.062500
v -0.062500 1.625000 -0.125000
v -0.062500 2.000000 -0.062500
v -0.125000 1.375000 -0.062500
v -0.125000 1.312500 -0.062500
v -0.062500 1.375000 -0.062500
v -0.062500 1.312500 -0.062500
v -0.062500 1.312500 0.000000
v -0.125000 1.437500 -0.062500
v -0.062500 1.437500 -0.062500
v -0.062500 2.000000 0.000000
v -0.125000 1.125000 0.062500
v -0.125000 1.187500 0.062500
v -0.125000 1.187500 0.000000
v -0.125000 1.125000 0.000000
v -0.062500 1.187500 0.000000
v -0.062500 1.125000 0.000000
v -0.062500 1.125000 0.062500
v -0.062500 1.187500 0.062500
v -0.125000 1.250000 0.062500
v -0.125000 1.250000 0.000000
v -0.062500 1.250000 0.000000
v -0.062500 1.250000 0.062500
v -0.062500 1.312500 0.062500
v -0.062500 2.000000 0.062500
v -0.125000 1.312500 0.125000
v -0.125000 1.375000 0.125000
v -0.062500 1.312500 0.125000
v -0.062500 1.375000 0.125000
v -0.125000 1.437500 0.125000
v -0.062500 1.437500 0.125000
v -0.062500 1.500000 0.125000
v -0.062500 2.000000 0.125000
v -0.125000 1.500000 0.187500
v -0.125000 1.562500 0.187500
v -0.062500 1.500000 0.187500
v -0.062500 1.562500 0.187500
v -0.125000 1.625000 0.187500
v -0.062500 1.625000 0.187500
v -0.062500 1.687500 0.187500
v -0.062500 2.000000 0.187500
v -0.125000 1.687500 0.250000
v -0.125000 1.750000 0.250000
v -0.062500 1.687500 0.250000
v -0.062500 1.750000 0.250000
v -0.125000 1.812500 0.250000
v -0.062500 1.812500 0.250000
v -0.062500 1.875000 0.250000
v -0.062500 2.000000 0.250000
v -0.062500 1.875000 0.312500
v -0.062500 2.000000 0.312500
v -0.062500 1.875000 0.375000
v -0.062500 1.937500 0.375000
v -0.062500 2.000000 0.375000
v 0.000000 1.937500 -0.375000
v 0.000000 1.875000 -0.375000
v 0.000000 1.875000 -0.312500
v 0.000000 2.000000 -0.375000
v 0.000000 2.000000 -0.312500
v 0.000000 1.875000 -0.250000
v 0.000000 2.000000 -0.250000
v -0.062500 1.750000 -0.250000
v -0.062500 1.687500 -0.250000
v 0.000000 1.750000 -0.250000
v 0.000000 1.687500 -0.250000
v 0.000000 1.687500 -0.187500
v -0.062500 1.812500 -0.250000
v 0.000000 1.812500 -0.250000
v 0.000000 2.000000 -0.187500
v -0.062500 1.562500 -0.187500
v -0.062500 1.500000 -0.187500
v 0.000000 1.562500 -0.187500
v 0.000000 1.500000 -0.187500
v 0.000000 1.500000 -0.125000
v -0.062500 1.625000 -0.187500
v 0.000000 1.625000 -0.187500
v 0.000000 2.000000 -0.125000
v -0.062500 1.375000 -0.125000
v -0.062500 1.312500 -0.125000
v 0.000000 1.375000 -0.125000
v 0.000000 1.312500 -0.125000
v 0.000000 1.312500 -0.062500
v -0.062500 1.437500 -0.125000
v 0.000000 1.437500 -0.125000
v 0.000000 2.000000 -0.062500
v -0.062500 1.187500 -0.062500
v -0.062500 1.125000 -0.062500
v 0.000000 1.187500 -0.062500
v 0.000000 1.125000 -0.062500
v 0.000000 1.125000 0.000000
v -0.062500 1.250000 -0.062500
v 0.000000 1.250000 -0.062500
v 0.000000 2.000000 0.000000
v -0.062500 0.937500 0.062500
v -0.062500 1.000000 0.062500
v -0.062500 1.000000 0.000000
v -0.062500 0.937500 0.000000
v 0.000000 1.000000 0.000000
v 0.000000 0.937500 0.000000
v 0.000000 0.937500 0.062500
v 0.000000 1.000000 0.062500
v -0.062500 1.062500 0.062500
v -0.062500 1.062500 0.000000
v 0.000000 1.062500 0.000000
v 0.000000 1.062500 0.062500
v 0.000000 1.125000 0.062500
v 0.000000 2.000000 0.062500
v -0.062500 1.125000 0.125000
v -0.062500 1.187500 0.125000
v 0.000000 1.125000 0.125000
v 0.000000 1.187500 0.125000
v -0.062500 1.250000 0.125000
v 0.000000 1.250000 0.125000
v 0.000000 1.312500 0.125000
v 0.000000 2.000000 0.125000
v -0.062500 1.312500 0.187500
v -0.062500 1.375000 0.187500
v 0.000000 1.312500 0.187500
v 0.000000 1.375000 0.187500
v -0.062500 1.437500 0.187500
v 0.000000 1.437500 0.187500
v 0.000000 1.500000 0.187500
v 0.000000 2.000000 0.187500
v -0.062500 1.500000 0.250000
v -0.062500 1.562500 0.250000
v 0.000000 1.500000 0.250000
v 0.000000 1.562500 0.250000
v -0.062500 1.625000 0.250000
v 0.000000 1.625000 0.250000
v 0.000000 1.687500 0.250000
v 0.000000 2.000000 0.250000
v -0.062500 1.687500 0.312500
v -0.062500 1.750000 0.312500
v 0.000000 1.687500 0.312500
v 0.000000 1.750000 0.312500
v -0.062500 1.812500 0.312500
v 0.000000 1.812500 0.312500
v 0.000000 1.875000 0.312500
v 0.000000 2.000000 0.312500
v 0.000000 1.875000 0.375000
v 0.000000 1.937500 0.375000
v 0.000000 2.000000 0.375000
v 0.062500 1.937500 -0.375000
v 0.062500 1.875000 -0.375000
v 0.062500 1.875000 -0.312500
v 0.062500 2.000000 -0.375000
v 0.062500 2.000000 -0.312500
v 0.000000 1.750000 -0.312500
v 0.000000 1.687500 -0.312500
v 0.062500 1.750000 -0.312500
v 0.062500 1.750000 -0.250000
v 0.062500 1.687500 -0.250000
v 0.062500 1.687500 -0.312500
v 0.000000 1.812500 -0.312500
v 0.062500 1.812500 -0.312500
v 0.062500 1.812500 -0.250000
v 0.062500 1.875000 -0.250000
v 0.062500 2.000000 -0.250000
v 0.000000 1.562500 -0.250000
v 0.000000 1.500000 -0.250000
v 0.062500 1.562500 -0.250000
v 0.062500 1.562500 -0.187500
v 0.062500 1.500000 -0.187500
v 0.062500 1.500000 -0.250000
v 0.000000 1.625000 -0.250000
v 0.062500 1.625000 -0.250000
v 0.062500 1.625000 -0.187500
v 0.062500 1.687500 -0.187500
v 0.062500 2.000000 -0.187500
v 0.000000 1.375000 -0.187500
v 0.000000 1.312500 -0.187500
v 0.062500 1.375000 -0.187500
v 0.062500 1.375000 -0.125000
v 0.062500 1.312500 -0.125000
v 0.062500 1.312500 -0.187500
v 0.000000 1.437500 -0.187500
v 0.062500 1.437500 -0.187500
v 0.062500 1.437500 -0.125000
v 0.062500 1.500000 -0.125000
v 0.062500 2.000000 -0.125000
v 0.000000 1.187500 -0.125000
v 0.000000 1.125000 -0.125000
v 0.062500 1.187500 -0.125000
v 0.062500 1.187500 -0.062500
v 0.062500 1.125000 -0.062500
v 0.062500 1.125000 -0.125000
v 0.000000 1.250000 -0.125000
v 0.062500 1.250000 -0.125000
v 0.062500 1.250000 -0.062500
v 0.062500 1.312500 -0.062500
v 0.062500 2.000000 -0.062500
v 0.000000 1.000000 -0.062500
v 0.000000 0.937500 -0.062500
v 0.062500 1.000000 -0.062500
v 0.062500 1.000000 0.000000
v 0.062500 0.937500 0.000000
v 0.062500 0.937500 -0.062500
v 0.000000 1.062500 -0.062500
v 0.062500 1.062500 -0.062500
v 0.062500 1.062500 0.000000
v 0.062500 1.125000 0.000000
v 0.062500 2.000000 0.000000
v 0.000000 0.687500 0.062500
v 0.000000 0.750000 0.062500
v 0.000000 0.750000 0.000000
v 0.000000 0.687500 0.000000
v 0.062500 0.750000 0.000000
v 0.062500 0.750000 0.062500
v 0.062500 0.687500 0.062500
v 0.062500 0.687500 0.000000
v 0.000000 0.812500 0.062500
v 0.000000 0.812500 0.000000
v 0.062500 0.812500 0.000000
v 0.062500 0.812500 0.062500
v 0.000000 0.875000 0.062500
v 0.000000 0.875000 0.000000
v 0.062500 0.875000 0.000000
v 0.062500 0.875000 0.062500
v 0.062500 0.937500 0.062500
v 0.062500 2.000000 0.062500
v 0.000000 0.937500 0.125000
v 0.000000 1.000000 0.125000
v 0.062500 1.000000 0.062500
v 0.062500 1.000000 0.125000
v 0.062500 0.937500 0.125000
v 0.000000 1.062500 0.125000
v 0.062500 1.062500 0.062500
v 0.062500 1.062500 0.125000
v 0.062500 1.125000 0.062500
v 0.062500 1.125000 0.125000
v 0.062500 2.000000 0.125000
v 0.000000 1.125000 0.187500
v 0.000000 1.187500 0.187500
v 0.062500 1.187500 0.125000
v 0.062500 1.187500 0.187500
v 0.062500 1.125000 0.187500
v 0.000000 1.250000 0.187500
v 0.062500 1.250000 0.125000
v 0.062500 1.250000 0.187500
v 0.062500 1.312500 0.125000
v 0.062500 1.312500 0.187500
v 0.062500 2.000000 0.187500
v 0.000000 1.312500 0.250000
v 0.000000 1.375000 0.250000
v 0.062500 1.375000 0.187500
v 0.062500 1.375000 0.250000
v 0.062500 1.312500 0.250000
v 0.000000 1.437500 0.250000
v 0.062500 1.437500 0.187500
v 0.062500 1.437500 0.250000
v 0.062500 1.500000 0.187500
v 0.062500 1.500000 0.250000
v 0.062500 2.000000 0.250000
v 0.000000 1.500000 0.312500
v 0.000000 1.562500 0.312500
v 0.062500 1.562500 0.250000
v 0.062500 1.562500 0.312500
v 0.062500 1.500000 0.312500
v 0.000000 1.625000 0.312500
v 0.062500 1.625000 0.250000
v 0.062500 1.625000 0.312500
v 0.062500 1.687500 0.250000
v 0.062500 1.687500 0.312500
v 0.062500 2.000000 0.312500
v 0.000000 1.687500 0.375000
v 0.000000 1.750000 0.375000
v 0.062500 1.750000 0.312500
v 0.062500 1.750000 0.375000
v 0.062500 1.687500 0.375000
v 0.000000 1.812500 0.375000
v 0.062500 1.812500 0.312500
v 0.062500 1.812500 0.375000
v 0.062500 1.875000 0.312500
v 0.062500 1.875000 0.375000
v 0.062500 1.937500 0.375000
v 0.062500 2.000000 0.375000
v 0.000000 1.875000 0.437500
v 0.000000 1.937500 0.437500
v 0.062500 1.937500 0.437500
v 0.062500 1.875000 0.437500
v 0.125000 1.937500 -0.375000
v 0.125000 1.875000 -0.375000
v 0.125000 1.875000 -0.312500
v 0.125000 2.000000 -0.375000
v 0.125000 2.000000 -0.312500
v 0.125000 1.875000 -0.250000
v 0.125000 2.000000 -0.250000
v 0.125000 1.750000 -0.250000
v 0.125000 1.750000 -0.187500
v 0.125000 1.687500 -0.187500
v 0.125000 1.687500 -0.250000
v 0.125000 1.812500 -0.250000
v 0.125000 1.812500 -0.187500
v 0.125000 1.875000 -0.187500
v 0.125000 2.000000 -0.187500
v 0.125000 1.562500 -0.187500
v 0.125000 1.562500 -0.125000
v 0.125000 1.500000 -0.125000
v 0.125000 1.500000 -0.187500
v 0.125000 1.625000 -0.187500
v 0.125000 1.625000 -0.125000
v 0.125000 1.687500 -0.125000
v 0.125000 2.000000 -0.125000
v 0.125000 1.375000 -0.125000
v 0.125000 1.375000 -0.062500
v 0.125000 1.312500 -0.062500
v 0.125000 1.312500 -0.125000
v 0.125000 1.437500 -0.125000
v 0.125000 1.437500 -0.062500
v 0.125000 1.500000 -0.062500
v 0.125000 2.000000 -0.062500
v 0.125000 1.187500 -0.062500
v 0.125000 1.187500 0.000000
v 0.125000 1.125000 0.000000
v 0.125000 1.125000 -0.062500
v 0.125000 1.250000 -0.062500
v 0.125000 1.250000 0.000000
v 0.125000 1.312500 0.000000
v 0.125000 2.000000 0.000000
v 0.125000 1.000000 0.000000
v 0.125000 1.000000 0.062500
v 0.125000 0.937500 0.062500
v 0.125000 0.937500 0.000000
v 0.125000 1.062500 0.000000
v 0.125000 1.062500 0.062500
v 0.125000 1.125000 0.062500
v 0.125000 2.000000 0.062500
v 0.125000 1.187500 0.062500
v 0.125000 1.187500 0.125000
v 0.125000 1.125000 0.125000
v 0.125000 1.250000 0.062500
v 0.125000 1.250000 0.125000
v 0.125000 1.312500 0.062500
v 0.125000 1.312500 0.125000
v 0.125000 2.000000 0.125000
v 0.125000 1.375000 0.125000
v 0.125000 1.375000 0.187500
v 0.125000 1.312500 0.187500
v 0.125000 1.437500 0.125000
v 0.125000 1.437500 0.187500
v 0.125000 1.500000 0.125000
v 0.125000 1.500000 0.187500
v 0.125000 2.000000 0.187500
v 0.125000 1.562500 0.187500
v 0.125000 1.562500 0.250000
v 0.125000 1.500000 0.250000
v 0.125000 1.625000 0.187500
v 0.125000 1.625000 0.250000
v 0.125000 1.687500 0.187500
v 0.125000 1.687500 0.250000
v 0.125000 2.000000 0.250000
v 0.125000 1.750000 0.250000
v 0.125000 1.750000 0.312500
v 0.125000 1.687500 0.312500
v 0.125000 1.812500 0.250000
v 0.125000 1.812500 0.312500
v 0.125000 1.875000 0.250000
v 0.125000 1.875000 0.312500
v 0.125000 2.000000 0.312500
v 0.125000 1.875000 0.375000
v 0.125000 1.937500 0.375000
v 0.125000 2.000000 0.375000
v 0.187500 1.937500 -0.375000
v 0.187500 1.875000 -0.375000
v 0.187500 1.875000 -0.312500
v 0.187500 2.000000 -0.375000
v 0.187500 2.000000 -0.312500
v 0.187500 1.875000 -0.250000
v 0.187500 2.000000 -0.250000
v 0.187500 1.875000 -0.187500
v 0.187500 2.000000 -0.187500
v 0.187500 1.750000 -0.187500
v 0.187500 1.750000 -0.125000
v 0.187500 1.687500 -0.125000
v 0.187500 1.687500 -0.187500
v 0.187500 1.812500 -0.187500
v 0.187500 1.812500 -0.125000
v 0.187500 1.875000 -0.125000
v 0.187500 2.000000 -0.125000
v 0.187500 1.562500 -0.125000
v 0.187500 1.562500 -0.062500
v 0.187500 1.500000 -0.062500
v 0.187500 1.500000 -0.125000
v 0.187500 1.625000 -0.125000
v 0.187500 1.625000 -0.062500
v 0.187500 1.687500 -0.062500
v 0.187500 2.000000 -0.062500
v 0.187500 1.375000 -0.062500
v 0.187500 1.375000 0.000000
v 0.187500 1.312500 0.000000
v 0.187500 1.312500 -0.062500
v 0.187500 1.437500 -0.062500
v 0.187500 1.437500 0.000000
v 0.187500 1.500000 0.000000
v 0.187500 2.000000 0.000000
v 0.187500 1.187500 0.000000
v 0.187500 1.187500 0.062500
v 0.187500 1.125000 0.062500
v 0.187500 1.125000 0.000000
v 0.187500 1.250000 0.000000
v 0.187500 1.250000 0.062500
v 0.187500 1.312500 0.062500
v 0.187500 2.000000 0.062500
v 0.187500 1.375000 0.062500
v 0.187500 1.375000 0.125000
v 0.187500 1.312500 0.125000
v 0.187500 1.437500 0.062500
v 0.187500 1.437500 0.125000
v 0.187500 1.500000 0.062500
v 0.187500 1.500000 0.125000
v 0.187500 2.000000 0.125000
v 0.187500 1.562500 0.125000
v 0.187500 1.562500 0.187500
v 0.187500 1.500000 0.187500
v 0.187500 1.625000 0.125000
v 0.187500 1.625000 0.187500
v 0.187500 1.687500 0.125000
v 0.187500 1.687500 0.187500
v 0.187500 2.000000 0.187500
v 0.187500 1.687500 0.250000
v 0.187500 1.750000 0.250000
v 0.187500 1.812500 0.250000
v 0.187500 1.875000 0.250000
v 0.187500 2.000000 0.250000
v 0.187500 1.875000 0.312500
v 0.187500 2.000000 0.312500
v 0.187500 1.875000 0.375000
v 0.187500 1.937500 0.375000
v 0.187500 2.000000 0.375000
v 0.250000 1.937500 -0.375000
v 0.250000 1.875000 -0.375000
v 0.250000 1.875000 -0.312500
v 0.250000 2.000000 -0.375000
v 0.250000 2.000000 -0.312500
v 0.250000 1.875000 -0.250000
v 0.250000 2.000000 -0.250000
v 0.250000 1.875000 -0.187500
v 0.250000 2.000000 -0.187500
v 0.250000 1.875000 -0.125000
v 0.250000 2.000000 -0.125000
v 0.250000 1.750000 -0.125000
v 0.250000 1.750000 -0.062500
v 0.250000 1.687500 -0.062500
v 0.250000 1.687500 -0.125000
v 0.250000 1.812500 -0.125000
v 0.250000 1.812500 -0.062500
v 0.250000 1.875000 -0.062500
v 0.250000 2.000000 -0.062500
v 0.250000 1.562500 -0.062500
v 0.250000 1.562500 0.000000
v 0.250000 1.500000 0.000000
v 0.250000 1.500000 -0.062500
v 0.250000 1.625000 -0.062500
v 0.250000 1.625000 0.000000
v 0.250000 1.687500 0.000000
v 0.250000 2.000000 0.000000
v 0.250000 1.375000 0.000000
v 0.250000 1.375000 0.062500
v 0.250000 1.312500 0.062500
v 0.250000 1.312500 0.000000
v 0.250000 1.437500 0.000000
v 0.250000 1.437500 0.062500
v 0.250000 1.500000 0.062500
v 0.250000 2.000000 0.062500
v 0.250000 1.562500 0.062500
v 0.250000 1.562500 0.125000
v 0.250000 1.500000 0.125000
v 0.250000 1.625000 0.062500
v 0.250000 1.625000 0.125000
v 0.250000 1.687500 0.062500
v 0.250000 1.687500 0.125000
v 0.250000 2.000000 0.125000
v 0.250000 1.750000 0.125000
v 0.250000 1.750000 0.187500
v 0.250000 1.687500 0.187500
v 0.250000 1.812500 0.125000
v 0.250000 1.812500 0.187500
v 0.250000 1.875000 0.125000
v 0.250000 1.875000 0.187500
v 0.250000 2.000000 0.187500
v 0.187500 1.500000 0.250000
v 0.187500 1.562500 0.250000
v 0.250000 1.562500 0.187500
v 0.250000 1.562500 0.250000
v 0.250000 1.500000 0.250000
v 0.250000 1.500000 0.187500
v 0.187500 1.625000 0.250000
v 0.250000 1.625000 0.187500
v 0.250000 1.625000 0.250000
v 0.250000 1.687500 0.250000
v 0.250000 2.000000 0.250000
v 0.187500 1.687500 0.312500
v 0.187500 1.750000 0.312500
v 0.250000 1.750000 0.250000
v 0.250000 1.750000 0.312500
v 0.250000 1.687500 0.312500
v 0.187500 1.812500 0.312500
v 0.250000 1.812500 0.250000
v 0.250000 1.812500 0.312500
v 0.250000 1.875000 0.250000
v 0.250000 1.875000 0.312500
v 0.250000 2.000000 0.312500
v 0.250000 1.875000 0.375000
v 0.250000 1.937500 0.375000
v 0.250000 2.000000 0.375000
v 0.312500 1.937500 -0.375000
v 0.312500 1.875000 -0.375000
v 0.312500 1.875000 -0.312500
v 0.312500 2.000000 -0.375000
v 0.312500 2.000000 -0.312500
v 0.312500 1.875000 -0.250000
v 0.312500 2.000000 -0.250000
v 0.312500 1.875000 -0.187500
v 0.312500 2.000000 -0.187500
v 0.312500 1.875000 -0.125000
v 0.312500 2.000000 -0.125000
v 0.312500 1.875000 -0.062500
v 0.312500 2.000000 -0.062500
v 0.312500 1.750000 -0.062500
v 0.312500 1.750000 0.000000
v 0.312500 1.687500 0.000000
v 0.312500 1.687500 -0.062500
v 0.312500 1.812500 -0.062500
v 0.312500 1.812500 0.000000
v 0.312500 1.875000 0.000000
v 0.312500 2.000000 0.000000
v 0.312500 1.562500 0.000000
v 0.312500 1.562500 0.062500
v 0.312500 1.500000 0.062500
v 0.312500 1.500000 0.000000
v 0.312500 1.625000 0.000000
v 0.312500 1.625000 0.062500
v 0.312500 1.687500 0.062500
v 0.312500 2.000000 0.062500
v 0.312500 1.750000 0.062500
v 0.312500 1.750000 0.125000
v 0.312500 1.687500 0.125000
v 0.312500 1.812500 0.062500
v 0.312500 1.812500 0.125000
v 0.312500 1.875000 0.062500
v 0.312500 1.875000 0.125000
v 0.312500 2.000000 0.125000
v 0.312500 1.875000 0.187500
v 0.312500 2.000000 0.187500
v 0.312500 1.750000 0.187500
v 0.312500 1.750000 0.250000
v 0.312500 1.687500 0.250000
v 0.312500 1.687500 0.187500
v 0.312500 1.812500 0.187500
v 0.312500 1.812500 0.250000
v 0.312500 1.875000 0.250000
v 0.312500 2.000000 0.250000
v 0.312500 1.875000 0.312500
v 0.312500 2.000000 0.312500
v 0.312500 1.875000 0.375000
v 0.312500 1.937500 0.375000
v 0.312500 2.000000 0.375000
v 0.375000 1.937500 -0.375000
v 0.375000 1.937500 -0.312500
v 0.375000 1.875000 -0.312500
v 0.375000 1.875000 -0.375000
v 0.375000 2.000000 -0.375000
v 0.375000 2.000000 -0.312500
v 0.375000 1.937500 -0.250000
v 0.375000 1.875000 -0.250000
v 0.375000 2.000000 -0.250000
v 0.375000 1.937500 -0.187500
v 0.375000 1.875000 -0.187500
v 0.375000 2.000000 -0.187500
v 0.375000 1.937500 -0.125000
v 0.375000 1.875000 -0.125000
v 0.375000 2.000000 -0.125000
v 0.375000 1.937500 -0.062500
v 0.375000 1.875000 -0.062500
v 0.375000 2.000000 -0.062500
v 0.375000 1.937500 0.000000
v 0.375000 1.875000 0.000000
v 0.375000 2.000000 0.000000
v 0.375000 1.750000 0.000000
v 0.375000 1.750000 0.062500
v 0.375000 1.687500 0.062500
v 0.375000 1.687500 0.000000
v 0.375000 1.812500 0.000000
v 0.375000 1.812500 0.062500
v 0.375000 1.875000 0.062500
v 0.375000 2.000000 0.062500
v 0.375000 1.937500 0.062500
v 0.375000 1.937500 0.125000
v 0.375000 1.875000 0.125000
v 0.375000 2.000000 0.125000
v 0.375000 1.937500 0.187500
v 0.375000 1.875000 0.187500
v 0.375000 2.000000 0.187500
v 0.375000 1.937500 0.250000
v 0.375000 1.875000 0.250000
v 0.375000 2.000000 0.250000
v 0.375000 1.937500 0.312500
v 0.375000 1.875000 0.312500
v 0.375000 2.000000 0.312500
v 0.375000 1.937500 0.375000
v 0.375000 1.875000 0.375000
v 0.375000 2.000000 0.375000
v 0.437500 1.937500 0.000000
v 0.437500 1.937500 0.062500
v 0.437500 1.875000 0.062500
v 0.437500 1.875000 0.000000
vt 0.03125000 0.96875000
vt 0.09375000 0.96875000
vt 0.15625000 0.96875000
vt 0.21875000 0.96875000
vt 0.28125000 0.96875000
vt 0.34375000 0.96875000
vt 0.40625000 0.96875000
vt 0.46875000 0.96875000
vt 0.53125000 0.96875000
vt 0.59375000 0.96875000
vt 0.65625000 0.96875000
vt 0.71875000 0.96875000
vt 0.78125000 0.96875000
vt 0.84375000 0.96875000
vt 0.90625000 0.96875000
vt 0.96875000 0.96875000
vt 0.03125000 0.90625000
vt 0.09375000 0.90625000
vt 0.15625000 0.90625000
vt 0.21875000 0.90625000
vt 0.28125000 0.90625000
vt 0.34375000 0.90625000
vt 0.40625000 0.90625000
vt 0.46875000 0.90625000
vt 0.53125000 0.90625000
vt 0.59375000 0.90625000
vt 0.65625000 0.90625000
vt 0.71875000 0.90625000
vt 0.78125000 0.90625000
vt 0.84375000 0.90625000
vt 0.90625000 0.90625000
vt 0.96875000 0.90625000
vt 0.03125000 0.84375000
vt 0.09375000 0.84375000
vt 0.15625000 0.84375000
vt 0.21875000 0.84375000
vt 0.28125000 0.84375000
vt 0.34375000 0.84375000
vt 0.40625000 0.84375000
vt 0.46875000 0.84375000
vt 0.53125000 0.84375000
vt 0.59375000 0.84375000
vt 0.65625000 0.84375000
vt 0.71875000 0.84375000
vt 0.78125000 0.84375000
vt 0.84375000 0.84375000
vt 0.90625000 0.84375000
vt 0.96875000 0.84375000
vt 0.03125000 0.78125000
vt 0.09375000 0.78125000
vt 0.15625000 0.78125000
vt 0.21875000 0.78125000
vt 0.28125000 0.78125000
vt 0.34375000 0.78125000
vt 0.40625000 0.78125000
vt 0.46875000 0.78125000
vt 0.53125000 0.78125000
vt 0.59375000 0.78125000
vt 0.65625000 0.78125000
vt 0.71875000 0.78125000
vt 0.78125000 0.78125000
vt 0.84375000 0.78125000
vt 0.90625000 0.78125000
vt 0.96875000 0.78125000
vt 0.03125000 0.71875000
vt 0.09375000 0.71875000
vt 0.15625000 0.71875000
vt 0.21875000 0.71875000
vt 0.28125000 0.71875000
vt 0.34375000 0.71875000
vt 0.40625000 0.71875000
vt 0.46875000 0.71875000
vt 0.53125000 0.71875000
vt 0.59375000 0.71875000
vt 0.65625000 0.71875000
vt 0.71875000 0.71875000
vt 0.78125000 0.71875000
vt 0.84375000 0.71875000
vt 0.90625000 0.71875000
vt 0.96875000 0.71875000
vt 0.03125000 0.65625000
vt 0.09375000 0.65625000
vt 0.15625000 0.65625000
vt 0.21875000 0.65625000
vt 0.28125000 0.65625000
vt 0.34375000 0.65625000
vt 0.40625000 0.65625000
vt 0.46875000 0.65625000
vt 0.53125000 0.65625000
vt 0.59375000 0.65625000
vt 0.65625000 0.65625000
vt 0.71875000 0.65625000
vt 0.78125000 0.65625000
vt 0.84375000 0.65625000
vt 0.90625000 0.65625000
vt 0.96875000 0.65625000
vt 0.03125000 0.59375000
vt 0.09375000 0.59375000
vt 0.15625000 0.59375000
vt 0.21875000 0.59375000
vt 0.28125000 0.59375000
vt 0.34375000 0.59375000
vt 0.40625000 0.59375000
vt 0.46875000 0.59375000
vt 0.53125000 0.59375000
vt 0.59375000 0.59375000
vt 0.65625000 0.59375000
vt 0.71875000 0.59375000
vt 0.78125000 0.59375000
vt 0.84375000 0.59375000
vt 0.90625000 0.59375000
vt 0.96875000 0.59375000
vt 0.03125000 0.53125000
vt 0.09375000 0.53125000
vt 0.15625000 0.53125000
vt 0.21875000 0.53125000
vt 0.28125000 0.53125000
vt 0.34375000 0.53125000
vt 0.40625000 0.53125000
vt 0.46875000 0.53125000
vt 0.53125000 0.53125000
vt 0.59375000 0.53125000
vt 0.65625000 0.53125000
vt 0.71875000 0.53125000
vt 0.78125000 0.53125000
vt 0.84375000 0.53125000
vt 0.90625000 0.53125000
vt 0.96875000 0.53125000
vt 0.03125000 0.46875000
vt 0.09375000 0.46875000
vt 0.15625000 0.46875000
vt 0.21875000 0.46875000
vt 0.28125000 0.46875000
vt 0.34375000 0.46875000
vt 0.40625000 0.46875000
vt 0.46875000 0.46875000
vt 0.53125000 0.46875000
vt 0.59375000 0.46875000
vt 0.65625000 0.46875000
vt 0.71875000 0.46875000
vt 0.78125000 0.46875000
vt 0.84375000 0.46875000
vt 0.90625000 0.46875000
vt 0.96875000 0.46875000
vt 0.03125000 0.40625000
vt 0.09375000 0.40625000
vt 0.15625000 0.40625000
vt 0.21875000 0.40625000
vt 0.28125000 0.40625000
vt 0.34375000 0.40625000
vt 0.40625000 0.40625000
vt 0.46875000 0.40625000
vt 0.53125000 0.40625000
vt 0.59375000 0.40625000
vt 0.65625000 0.40625000
vt 0.71875000 0.40625000
vt 0.78125000 0.40625000
vt 0.84375000 0.40625000
vt 0.90625000 0.40625000
vt 0.96875000 0.40625000
vt 0.03125000 0.34375000
vt 0.09375000 0.34375000
vt 0.15625000 0.34375000
vt 0.21875000 0.34375000
vt 0.28125000 0.34375000
vt 0.34375000 0.34375000
vt 0.40625000 0.34375000
vt 0.46875000 0.34375000
vt 0.53125000 0.34375000
vt 0.59375000 0.34375000
vt 0.65625000 0.34375000
vt 0.71875000 0.34375000
vt 0.78125000 0.34375000
vt 0.84375000 0.34375000
vt 0.90625000 0.34375000
vt 0.96875000 0.34375000
vt 0.03125000 0.28125000
vt 0.09375000 0.28125000
vt 0.15625000 0.28125000
vt 0.21875000 0.28125000
vt 0.28125000 0.28125000
vt 0.34375000 0.28125000
vt 0.40625000 0.28125000
vt 0.46875000 0.28125000
vt 0.53125000 0.28125000
vt 0.59375000 0.28125000
vt 0.65625000 0.28125000
vt 0.71875000 0.28125000
vt 0.78125000 0.28125000
vt 0.84375000 0.28125000
vt 0.90625000 0.28125000
vt 0.96875000 0.28125000
vt 0.03125000 0.21875000
vt 0.09375000 0.21875000
vt 0.15625000 0.21875000
vt 0.21875000 0.21875000
vt 0.28125000 0.21875000
vt 0.34375000 0.21875000
vt 0.40625000 0.21875000
vt 0.46875000 0.21875000
vt 0.53125000 0.21875000
vt 0.59375000 0.21875000
vt 0.65625000 0.21875000
vt 0.71875000 0.21875000
vt 0.78125000 0.21875000
vt 0.84375000 0.21875000
vt 0.90625000 0.21875000
vt 0.96875000 0.21875000
vt 0.03125000 0.15625000
vt 0.09375000 0.15625000
vt 0.15625000 0.15625000
vt 0.21875000 0.15625000
vt 0.28125000 0.15625000
vt 0.34375000 0.15625000
vt 0.40625000 0.15625000
vt 0.46875000 0.15625000
vt 0.53125000 0.15625000
vt 0.59375000 0.15625000
vt 0.65625000 0.15625000
vt 0.71875000 0.15625000
vt 0.78125000 0.15625000
vt 0.84375000 0.15625000
vt 0.90625000 0.15625000
vt 0.96875000 0.15625000
vt 0.03125000 0.09375000
vt 0.09375000 0.09375000
vt 0.15625000 0.09375000
vt 0.21875000 0.09375000
vt 0.28125000 0.09375000
vt 0.34375000 0.09375000
vt 0.40625000 0.09375000
vt 0.46875000 0.09375000
vt 0.53125000 0.09375000
vt 0.59375000 0.09375000
vt 0.65625000 0.09375000
vt 0.71875000 0.09375000
vt 0.78125000 0.09375000
vt 0.84375000 0.09375000
vt 0.90625000 0.09375000
vt 0.96875000 0.09375000
vt 0.03125000 0.03125000
vt 0.09375000 0.03125000
vt 0.15625000 0.03125000
vt 0.21875000 0.03125000
vt 0.28125000 0.03125000
vt 0.34375000 0.03125000
vt 0.40625000 0.03125000
vt 0.46875000 0.03125000
vt 0.53125000 0.03125000
vt 0.59375000 0.03125000
vt 0.65625000 0.03125000
vt 0.71875000 0.03125000
vt 0.78125000 0.03125000
vt 0.84375000 0.03125000
vt 0.90625000 0.03125000
vt 0.96875000 0.03125000
vn -1 0 0
vn 1 0 0
vn 0 0 -1
vn 0 0 1
vn 0 -1 0
vn 0 1 0
g palette
usemtl palette
f 1/11/1 2/11/1 3/11/1 4/11/1
f 3/11/3 5/11/3 6/11/3 4/11/3
f 7/11/4 8/11/4 2/11/4 1/11/4
f 6/11/5 7/11/5 1/11/5 4/11/5
f 2/11/6 8/11/6 5/11/6 3/11/6
f 9/4/1 10/4/1 11/4/1 12/4/1
f 11/4/3 13/4/3 14/4/3 12/4/3
f 14/4/5 15/4/5 9/4/5 12/4/5
f 10/4/6 16/4/6 13/4/6 11/4/6
f 17/4/1 18/4/1 10/4/1 9/4/1
f 15/4/5 19/4/5 17/4/5 9/4/5
f 18/4/6 20/4/6 16/4/6 10/4/6
f 6/11/1 5/11/1 17/11/1 21/11/1
f 17/11/3 19/11/3 22/11/3 21/11/3
f 22/11/5 23/11/5 6/11/5 21/11/5
f 5/4/1 24/4/1 18/4/1 17/4/1
f 24/4/6 25/4/6 20/4/6 18/4/6
f 26/11/1 27/11/1 28/11/1 29/11/1
f 28/11/3 30/11/3 31/11/3 29/11/3
f 32/11/4 33/11/4 27/11/4 26/11/4
f 31/11/5 32/11/5 26/11/5 29/11/5
f 27/11/1 34/11/1 35/11/1 28/11/1
f 35/11/3 36/11/3 30/11/3 28/11/3
f 33/11/4 37/11/4 34/11/4 27/11/4
f 34/11/1 7/11/1 6/11/1 35/11/1
f 6/11/3 23/11/3 36/11/3 35/11/3
f 37/11/4 38/11/4 7/11/4 34/11/4
f 8/4/1 39/4/1 24/4/1 5/4/1
f 39/4/6 40/4/6 25/4/6 24/4/6
f 41/11/1 42/11/1 8/11/1 7/11/1
f 38/11/5 43/11/5 41/11/5 7/11/5
f 42/4/1 44/4/1 39/4/1 8/4/1
f 44/4/6 45/4/6 40/4/6 39/4/6
f 46/4/1 47/4/1 42/4/1 41/4/1
f 43/4/5 48/4/5 46/4/5 41/4/5
f 47/4/1 49/4/1 44/4/1 42/4/1
f 49/4/6 50/4/6 45/4/6 44/4/6
f 51/11/1 52/11/1 47/11/1 46/11/1
f 48/11/5 53/11/5 51/11/5 46/11/5
f 52/4/1 54/4/1 49/4/1 47/4/1
f 54/4/6 55/4/6 50/4/6 49/4/6
f 56/4/1 57/4/1 52/4/1 51/4/1
f 53/4/5 58/4/5 56/4/5 51/4/5
f 57/4/1 59/4/1 54/4/1 52/4/1
f 59/4/6 60/4/6 55/4/6 54/4/6
f 61/4/1 62/4/1 57/4/1 56/4/1
f 58/4/5 63/4/5 61/4/5 56/4/5
f 62/5/1 64/5/1 59/5/1 57/5/1
f 64/5/6 65/5/6 60/5/6 59/5/6
f 66/4/1 67/4/1 62/4/1 61/4/1
f 63/4/5 68/4/5 66/4/5 61/4/5
f 67/4/1 69/4/1 64/4/1 62/4/1
f 69/4/6 70/4/6 65/4/6 64/4/6
f 71/4/1 72/4/1 67/4/1 66/4/1
f 68/4/5 73/4/5 71/4/5 66/4/5
f 72/5/1 74/5/1 69/5/1 67/5/1
f 74/5/6 75/5/6 70/5/6 69/5/6
f 76/11/1 77/11/1 72/11/1 71/11/1
f 78/11/4 79/11/4 77/11/4 76/11/4
f 73/11/5 78/11/5 76/11/5 71/11/5
f 77/4/1 80/4/1 74/4/1 72/4/1
f 79/4/4 81/4/4 80/4/4 77/4/4
f 80/4/6 81/4/6 75/4/6 74/4/6
f 13/4/3 82/4/3 83/4/3 14/4/3
f 83/4/5 84/4/5 15/4/5 14/4/5
f 16/4/6 85/4/6 82/4/6 13/4/6
f 84/4/5 86/4/5 19/4/5 15/4/5
f 20/4/6 87/4/6 85/4/6 16/4/6
f 31/11/1 30/11/1 88/11/1 89/11/1
f 88/11/3 90/11/3 91/11/3 89/11/3
f 91/11/5 92/11/5 31/11/5 89/11/5
f 30/11/1 36/11/1 93/11/1 88/11/1
f 93/11/3 94/11/3 90/11/3 88/11/3
f 36/11/1 23/11/1 22/11/1 93/11/1
f 22/11/3 95/11/3 94/11/3 93/11/3
f 19/11/3 86/11/3 95/11/3 22/11/3
f 25/4/6 96/4/6 87/4/6 20/4/6
f 97/11/1 98/11/1 99/11/1 100/11/1
f 99/11/3 101/11/3 102/11/3 100/11/3
f 103/11/4 104/11/4 98/11/4 97/11/4
f 102/11/5 103/11/5 97/11/5 100/11/5
f 98/11/1 105/11/1 106/11/1 99/11/1
f 106/11/3 107/11/3 101/11/3 99/11/3
f 104/11/4 108/11/4 105/11/4 98/11/4
f 105/11/1 32/11/1 31/11/1 106/11/1
f 31/11/3 92/11/3 107/11/3 106/11/3
f 108/11/4 109/11/4 32/11/4 105/11/4
f 40/4/6 110/4/6 96/4/6 25/4/6
f 111/11/1 112/11/1 33/11/1 32/11/1
f 113/11/4 114/11/4 112/11/4 111/11/4
f 109/11/5 113/11/5 111/11/5 32/11/5
f 112/11/1 115/11/1 37/11/1 33/11/1
f 114/11/4 116/11/4 115/11/4 112/11/4
f 115/11/1 43/11/1 38/11/1 37/11/1
f 116/11/4 117/11/4 43/11/4 115/11/4
f 45/4/6 118/4/6 110/4/6 40/4/6
f 117/11/5 119/11/5 48/11/5 43/11/5
f 50/4/6 120/4/6 118/4/6 45/4/6
f 121/11/1 122/11/1 123/11/1 124/11/1
f 123/11/3 125/11/3 126/11/3 124/11/3
f 127/11/4 128/11/4 122/11/4 121/11/4
f 126/11/5 127/11/5 121/11/5 124/11/5
f 122/11/1 129/11/1 130/11/1 123/11/1
f 130/11/3 131/11/3 125/11/3 123/11/3
f 128/11/4 132/11/4 129/11/4 122/11/4
f 129/11/1 53/11/1 48/11/1 130/11/1
f 48/11/3 119/11/3 131/11/3 130/11/3
f 132/11/4 133/11/4 53/11/4 129/11/4
f 55/4/6 134/4/6 120/4/6 50/4/6
f 133/11/5 135/11/5 58/11/5 53/11/5
f 60/4/6 136/4/6 134/4/6 55/4/6
f 135/4/5 137/4/5 63/4/5 58/4/5
f 65/4/6 138/4/6 136/4/6 60/4/6
f 137/4/5 139/4/5 68/4/5 63/4/5
f 70/4/6 140/4/6 138/4/6 65/4/6
f 139/4/5 141/4/5 73/4/5 68/4/5
f 75/4/6 142/4/6 140/4/6 70/4/6
f 143/4/4 144/4/4 79/4/4 78/4/4
f 141/4/5 143/4/5 78/4/5 73/4/5
f 144/4/4 145/4/4 81/4/4 79/4/4
f 81/4/6 145/4/6 142/4/6 75/4/6
f 146/4/1 84/4/1 83/4/1 147/4/1
f 83/4/3 148/4/3 149/4/3 147/4/3
f 149/4/5 150/4/5 146/4/5 147/4/5
f 82/4/3 151/4/3 148/4/3 83/4/3
f 85/4/6 152/4/6 151/4/6 82/4/6
f 91/4/1 90/4/1 153/4/1 154/4/1
f 155/4/2 156/4/2 157/4/2 158/4/2
f 153/4/3 155/4/3 158/4/3 154/4/3
f 158/4/5 157/4/5 91/4/5 154/4/5
f 90/4/1 94/4/1 159/4/1 153/4/1
f 160/4/2 161/4/2 156/4/2 155/4/2
f 159/4/3 160/4/3 155/4/3 153/4/3
f 94/4/1 95/4/1 146/4/1 159/4/1
f 150/4/2 162/4/2 161/4/2 160/4/2
f 146/4/3 150/4/3 160/4/3 159/4/3
f 95/4/1 86/4/1 84/4/1 146/4/1
f 87/4/6 163/4/6 152/4/6 85/4/6
f 102/4/1 101/4/1 164/4/1 165/4/1
f 166/4/2 167/4/2 168/4/2 169/4/2
f 164/4/3 166/4/3 169/4/3 165/4/3
f 169/4/5 168/4/5 102/4/5 165/4/5
f 101/4/1 107/4/1 170/4/1 164/4/1
f 171/4/2 172/4/2 167/4/2 166/4/2
f 170/4/3 171/4/3 166/4/3 164/4/3
f 107/4/1 92/4/1 91/4/1 170/4/1
f 157/4/2 173/4/2 172/4/2 171/4/2
f 91/4/3 157/4/3 171/4/3 170/4/3
f 96/4/6 174/4/6 163/4/6 87/4/6
f 175/5/1 176/5/1 177/5/1 178/5/1
f 179/5/2 180/5/2 181/5/2 182/5/2
f 177/5/3 179/5/3 182/5/3 178/5/3
f 181/5/4 180/5/4 176/5/4 175/5/4
f 182/5/5 181/5/5 175/5/5 178/5/5
f 176/5/1 183/5/1 184/5/1 177/5/1
f 185/5/2 186/5/2 180/5/2 179/5/2
f 184/5/3 185/5/3 179/5/3 177/5/3
f 180/5/4 186/5/4 183/5/4 176/5/4
f 183/5/1 103/5/1 102/5/1 184/5/1
f 168/5/2 187/5/2 186/5/2 185/5/2
f 102/5/3 168/5/3 185/5/3 184/5/3
f 186/5/4 187/5/4 103/5/4 183/5/4
f 110/4/6 188/4/6 174/4/6 96/4/6
f 189/5/1 190/5/1 104/5/1 103/5/1
f 191/5/2 192/5/2 193/5/2 187/5/2
f 193/5/4 192/5/4 190/5/4 189/5/4
f 187/5/5 193/5/5 189/5/5 103/5/5
f 190/5/1 194/5/1 108/5/1 104/5/1
f 195/5/2 196/5/2 192/5/2 191/5/2
f 192/5/4 196/5/4 194/5/4 190/5/4
f 194/5/1 113/5/1 109/5/1 108/5/1
f 197/5/2 198/5/2 196/5/2 195/5/2
f 196/5/4 198/5/4 113/5/4 194/5/4
f 118/5/6 199/5/6 188/5/6 110/5/6
f 126/5/1 125/5/1 114/5/1 113/5/1
f 198/5/5 200/5/5 126/5/5 113/5/5
f 125/5/1 131/5/1 116/5/1 114/5/1
f 131/5/1 119/5/1 117/5/1 116/5/1
f 120/4/6 201/4/6 199/4/6 118/4/6
f 202/11/1 203/11/1 204/11/1 205/11/1
f 204/11/3 206/11/3 207/11/3 205/11/3
f 208/11/4 209/11/4 203/11/4 202/11/4
f 207/11/5 208/11/5 202/11/5 205/11/5
f 203/11/1 210/11/1 211/11/1 204/11/1
f 211/11/3 212/11/3 206/11/3 204/11/3
f 209/11/4 213/11/4 210/11/4 203/11/4
f 210/11/1 127/11/1 126/11/1 211/11/1
f 126/11/3 200/11/3 212/11/3 211/11/3
f 213/11/4 214/11/4 127/11/4 210/11/4
f 134/4/6 215/4/6 201/4/6 120/4/6
f 216/11/1 217/11/1 128/11/1 127/11/1
f 218/11/4 219/11/4 217/11/4 216/11/4
f 214/11/5 218/11/5 216/11/5 127/11/5
f 217/11/1 220/11/1 132/11/1 128/11/1
f 219/11/4 221/11/4 220/11/4 217/11/4
f 220/11/1 135/11/1 133/11/1 132/11/1
f 221/11/4 222/11/4 135/11/4 220/11/4
f 136/4/6 223/4/6 215/4/6 134/4/6
f 222/11/5 224/11/5 137/11/5 135/11/5
f 138/4/6 225/4/6 223/4/6 136/4/6
f 224/4/5 226/4/5 139/4/5 137/4/5
f 140/4/6 227/4/6 225/4/6 138/4/6
f 226/4/5 228/4/5 141/4/5 139/4/5
f 142/4/6 229/4/6 227/4/6 140/4/6
f 230/4/4 231/4/4 144/4/4 143/4/4
f 228/4/5 230/4/5 143/4/5 141/4/5
f 231/4/4 232/4/4 145/4/4 144/4/4
f 145/4/6 232/4/6 229/4/6 142/4/6
f 148/4/3 233/4/3 234/4/3 149/4/3
f 234/4/5 235/4/5 150/4/5 149/4/5
f 151/4/3 236/4/3 233/4/3 148/4/3
f 152/4/6 237/4/6 236/4/6 151/4/6
f 235/4/5 238/4/5 162/4/5 150/4/5
f 163/4/6 239/4/6 237/4/6 152/4/6
f 240/4/2 241/4/2 242/4/2 243/4/2
f 156/4/3 240/4/3 243/4/3 157/4/3
f 243/4/5 242/4/5 173/4/5 157/4/5
f 244/4/2 245/4/2 241/4/2 240/4/2
f 161/4/3 244/4/3 240/4/3 156/4/3
f 238/4/2 246/4/2 245/4/2 244/4/2
f 162/4/3 238/4/3 244/4/3 161/4/3
f 174/4/6 247/4/6 239/4/6 163/4/6
f 248/5/2 249/5/2 250/5/2 251/5/2
f 167/5/3 248/5/3 251/5/3 168/5/3
f 250/5/4 249/5/4 191/5/4 187/5/4
f 251/5/5 250/5/5 187/5/5 168/5/5
f 252/5/2 253/5/2 249/5/2 248/5/2
f 172/5/3 252/5/3 248/5/3 167/5/3
f 249/5/4 253/5/4 195/5/4 191/5/4
f 242/5/2 254/5/2 253/5/2 252/5/2
f 173/5/3 242/5/3 252/5/3 172/5/3
f 253/5/4 254/5/4 197/5/4 195/5/4
f 188/4/6 255/4/6 247/4/6 174/4/6
f 254/5/5 256/5/5 198/5/5 197/5/5
f 199/4/6 257/4/6 255/4/6 188/4/6
f 207/11/1 206/11/1 192/11/1 193/11/1
f 192/11/3 258/11/3 259/11/3 193/11/3
f 259/11/5 260/11/5 207/11/5 193/11/5
f 206/11/1 212/11/1 196/11/1 192/11/1
f 196/11/3 261/11/3 258/11/3 192/11/3
f 212/11/1 200/11/1 198/11/1 196/11/1
f 198/11/3 256/11/3 261/11/3 196/11/3
f 201/4/6 262/4/6 257/4/6 199/4/6
f 263/11/1 264/11/1 265/11/1 266/11/1
f 265/11/3 267/11/3 268/11/3 266/11/3
f 269/11/4 270/11/4 264/11/4 263/11/4
f 268/11/5 269/11/5 263/11/5 266/11/5
f 264/11/1 271/11/1 272/11/1 265/11/1
f 272/11/3 273/11/3 267/11/3 265/11/3
f 270/11/4 274/11/4 271/11/4 264/11/4
f 271/11/1 208/11/1 207/11/1 272/11/1
f 207/11/3 260/11/3 273/11/3 272/11/3
f 274/11/4 275/11/4 208/11/4 271/11/4
f 215/4/6 276/4/6 262/4/6 201/4/6
f 277/11/1 278/11/1 209/11/1 208/11/1
f 279/11/4 280/11/4 278/11/4 277/11/4
f 275/11/5 279/11/5 277/11/5 208/11/5
f 278/11/1 281/11/1 213/11/1 209/11/1
f 280/11/4 282/11/4 281/11/4 278/11/4
f 281/11/1 218/11/1 214/11/1 213/11/1
f 282/11/4 283/11/4 218/11/4 281/11/4
f 223/4/6 284/4/6 276/4/6 215/4/6
f 285/11/1 286/11/1 219/11/1 218/11/1
f 287/11/4 288/11/4 286/11/4 285/11/4
f 283/11/5 287/11/5 285/11/5 218/11/5
f 286/11/1 289/11/1 221/11/1 219/11/1
f 288/11/4 290/11/4 289/11/4 286/11/4
f 289/11/1 224/11/1 222/11/1 221/11/1
f 290/11/4 291/11/4 224/11/4 289/11/4
f 225/4/6 292/4/6 284/4/6 223/4/6
f 291/11/5 293/11/5 226/11/5 224/11/5
f 227/4/6 294/4/6 292/4/6 225/4/6
f 293/4/5 295/4/5 228/4/5 226/4/5
f 229/4/6 296/4/6 294/4/6 227/4/6
f 297/4/4 298/4/4 231/4/4 230/4/4
f 295/4/5 297/4/5 230/4/5 228/4/5
f 298/4/4 299/4/4 232/4/4 231/4/4
f 232/4/6 299/4/6 296/4/6 229/4/6
f 233/4/3 300/4/3 301/4/3 234/4/3
f 301/4/5 302/4/5 235/4/5 234/4/5
f 236/4/3 303/4/3 300/4/3 233/4/3
f 237/4/6 304/4/6 303/4/6 236/4/6
f 302/4/5 305/4/5 238/4/5 235/4/5
f 239/4/6 306/4/6 304/4/6 237/4/6
f 305/4/5 307/4/5 246/4/5 238/4/5
f 247/4/6 308/4/6 306/4/6 239/4/6
f 241/5/3 309/5/3 310/5/3 242/5/3
f 310/5/5 311/5/5 254/5/5 242/5/5
f 245/5/3 312/5/3 309/5/3 241/5/3
f 246/11/3 307/11/3 312/11/3 245/11/3
f 255/4/6 313/4/6 308/4/6 247/4/6
f 259/11/1 258/11/1 249/11/1 250/11/1
f 249/11/3 314/11/3 315/11/3 250/11/3
f 315/11/5 316/11/5 259/11/5 250/11/5
f 258/11/1 261/11/1 253/11/1 249/11/1
f 253/11/3 317/11/3 314/11/3 249/11/3
f 261/11/1 256/11/1 254/11/1 253/11/1
f 254/11/3 311/11/3 317/11/3 253/11/3
f 257/5/6 318/5/6 313/5/6 255/5/6
f 268/11/1 267/11/1 319/11/1 320/11/1
f 319/11/3 321/11/3 322/11/3 320/11/3
f 322/11/5 323/11/5 268/11/5 320/11/5
f 267/11/1 273/11/1 324/11/1 319/11/1
f 324/11/3 325/11/3 321/11/3 319/11/3
f 273/11/1 260/11/1 259/11/1 324/11/1
f 259/11/3 316/11/3 325/11/3 324/11/3
f 262/4/6 326/4/6 318/4/6 257/4/6
f 327/11/1 328/11/1 329/11/1 330/11/1
f 329/11/3 331/11/3 332/11/3 330/11/3
f 333/11/4 334/11/4 328/11/4 327/11/4
f 332/11/5 333/11/5 327/11/5 330/11/5
f 328/11/1 335/11/1 336/11/1 329/11/1
f 336/11/3 337/11/3 331/11/3 329/11/3
f 334/11/4 338/11/4 335/11/4 328/11/4
f 335/11/1 269/11/1 268/11/1 336/11/1
f 268/11/3 323/11/3 337/11/3 336/11/3
f 338/11/4 339/11/4 269/11/4 335/11/4
f 276/4/6 340/4/6 326/4/6 262/4/6
f 341/11/1 342/11/1 270/11/1 269/11/1
f 343/11/4 344/11/4 342/11/4 341/11/4
f 339/11/5 343/11/5 341/11/5 269/11/5
f 342/11/1 345/11/1 274/11/1 270/11/1
f 344/11/4 346/11/4 345/11/4 342/11/4
f 345/11/1 279/11/1 275/11/1 274/11/1
f 346/11/4 347/11/4 279/11/4 345/11/4
f 284/4/6 348/4/6 340/4/6 276/4/6
f 349/11/1 350/11/1 280/11/1 279/11/1
f 351/11/4 352/11/4 350/11/4 349/11/4
f 347/11/5 351/11/5 349/11/5 279/11/5
f 350/11/1 353/11/1 282/11/1 280/11/1
f 352/11/4 354/11/4 353/11/4 350/11/4
f 353/11/1 287/11/1 283/11/1 282/11/1
f 354/11/4 355/11/4 287/11/4 353/11/4
f 292/4/6 356/4/6 348/4/6 284/4/6
f 357/11/1 358/11/1 288/11/1 287/11/1
f 359/11/4 360/11/4 358/11/4 357/11/4
f 355/11/5 359/11/5 357/11/5 287/11/5
f 358/11/1 361/11/1 290/11/1 288/11/1
f 360/11/4 362/11/4 361/11/4 358/11/4
f 361/11/1 293/11/1 291/11/1 290/11/1
f 362/11/4 363/11/4 293/11/4 361/11/4
f 294/4/6 364/4/6 356/4/6 292/4/6
f 363/11/5 365/11/5 295/11/5 293/11/5
f 296/4/6 366/4/6 364/4/6 294/4/6
f 367/4/4 368/4/4 298/4/4 297/4/4
f 365/4/5 367/4/5 297/4/5 295/4/5
f 368/4/4 369/4/4 299/4/4 298/4/4
f 299/4/6 369/4/6 366/4/6 296/4/6
f 300/4/3 370/4/3 371/4/3 301/4/3
f 371/4/5 372/4/5 302/4/5 301/4/5
f 303/4/3 373/4/3 370/4/3 300/4/3
f 304/4/6 374/4/6 373/4/6 303/4/6
f 372/11/5 375/11/5 305/11/5 302/11/5
f 306/4/6 376/4/6 374/4/6 304/4/6
f 310/11/1 309/11/1 377/11/1 378/11/1
f 377/11/3 379/11/3 380/11/3 378/11/3
f 380/11/5 381/11/5 310/11/5 378/11/5
f 309/11/1 312/11/1 382/11/1 377/11/1
f 382/11/3 383/11/3 379/11/3 377/11/3
f 312/11/1 307/11/1 305/11/1 382/11/1
f 305/11/3 375/11/3 383/11/3 382/11/3
f 308/4/6 384/4/6 376/4/6 306/4/6
f 315/5/1 314/5/1 385/5/1 386/5/1
f 385/5/3 387/5/3 388/5/3 386/5/3
f 388/5/5 389/5/5 315/5/5 386/5/5
f 314/11/1 317/11/1 390/11/1 385/11/1
f 390/11/3 391/11/3 387/11/3 385/11/3
f 317/11/1 311/11/1 310/11/1 390/11/1
f 310/11/3 381/11/3 391/11/3 390/11/3
f 313/4/6 392/4/6 384/4/6 308/4/6
f 322/11/1 321/11/1 393/11/1 394/11/1
f 393/11/3 395/11/3 396/11/3 394/11/3
f 396/11/5 397/11/5 322/11/5 394/11/5
f 321/11/1 325/11/1 398/11/1 393/11/1
f 398/11/3 399/11/3 395/11/3 393/11/3
f 325/11/1 316/11/1 315/11/1 398/11/1
f 315/11/3 389/11/3 399/11/3 398/11/3
f 318/4/6 400/4/6 392/4/6 313/4/6
f 332/11/1 331/11/1 401/11/1 402/11/1
f 401/11/3 403/11/3 404/11/3 402/11/3
f 404/11/5 405/11/5 332/11/5 402/11/5
f 331/11/1 337/11/1 406/11/1 401/11/1
f 406/11/3 407/11/3 403/11/3 401/11/3
f 337/11/1 323/11/1 322/11/1 406/11/1
f 322/11/3 397/11/3 407/11/3 406/11/3
f 326/4/6 408/4/6 400/4/6 318/4/6
f 409/11/1 410/11/1 411/11/1 412/11/1
f 411/11/3 413/11/3 414/11/3 412/11/3
f 415/11/4 416/11/4 410/11/4 409/11/4
f 414/11/5 415/11/5 409/11/5 412/11/5
f 410/11/1 417/11/1 418/11/1 411/11/1
f 418/11/3 419/11/3 413/11/3 411/11/3
f 416/11/4 420/11/4 417/11/4 410/11/4
f 417/11/1 333/11/1 332/11/1 418/11/1
f 332/11/3 405/11/3 419/11/3 418/11/3
f 420/11/4 421/11/4 333/11/4 417/11/4
f 340/4/6 422/4/6 408/4/6 326/4/6
f 423/11/1 424/11/1 334/11/1 333/11/1
f 425/11/4 426/11/4 424/11/4 423/11/4
f 421/11/5 425/11/5 423/11/5 333/11/5
f 424/11/1 427/11/1 338/11/1 334/11/1
f 426/11/4 428/11/4 427/11/4 424/11/4
f 427/11/1 343/11/1 339/11/1 338/11/1
f 428/11/4 429/11/4 343/11/4 427/11/4
f 348/4/6 430/4/6 422/4/6 340/4/6
f 431/5/1 432/5/1 344/5/1 343/5/1
f 433/5/4 434/5/4 432/5/4 431/5/4
f 429/5/5 433/5/5 431/5/5 343/5/5
f 432/11/1 435/11/1 346/11/1 344/11/1
f 434/11/4 436/11/4 435/11/4 432/11/4
f 435/11/1 351/11/1 347/11/1 346/11/1
f 436/11/4 437/11/4 351/11/4 435/11/4
f 356/4/6 438/4/6 430/4/6 348/4/6
f 439/11/1 440/11/1 352/11/1 351/11/1
f 441/11/4 442/11/4 440/11/4 439/11/4
f 437/11/5 441/11/5 439/11/5 351/11/5
f 440/11/1 443/11/1 354/11/1 352/11/1
f 442/11/4 444/11/4 443/11/4 440/11/4
f 443/11/1 359/11/1 355/11/1 354/11/1
f 444/11/4 445/11/4 359/11/4 443/11/4
f 364/4/6 446/4/6 438/4/6 356/4/6
f 447/11/1 448/11/1 360/11/1 359/11/1
f 449/11/4 450/11/4 448/11/4 447/11/4
f 445/11/5 449/11/5 447/11/5 359/11/5
f 448/11/1 451/11/1 362/11/1 360/11/1
f 450/11/4 452/11/4 451/11/4 448/11/4
f 451/11/1 365/11/1 363/11/1 362/11/1
f 452/11/4 453/11/4 365/11/4 451/11/4
f 366/4/6 454/4/6 446/4/6 364/4/6
f 455/11/4 456/11/4 368/11/4 367/11/4
f 453/11/5 455/11/5 367/11/5 365/11/5
f 456/4/4 457/4/4 369/4/4 368/4/4
f 369/4/6 457/4/6 454/4/6 366/4/6
f 370/4/3 458/4/3 459/4/3 371/4/3
f 459/4/5 460/4/5 372/4/5 371/4/5
f 373/4/3 461/4/3 458/4/3 370/4/3
f 374/4/6 462/4/6 461/4/6 373/4/6
f 380/4/1 379/4/1 463/4/1 464/4/1
f 465/4/2 466/4/2 467/4/2 468/4/2
f 463/4/3 465/4/3 468/4/3 464/4/3
f 468/4/5 467/4/5 380/4/5 464/4/5
f 379/4/1 383/4/1 469/4/1 463/4/1
f 470/4/2 471/4/2 466/4/2 465/4/2
f 469/4/3 470/4/3 465/4/3 463/4/3
f 383/4/1 375/4/1 372/4/1 469/4/1
f 460/4/2 472/4/2 471/4/2 470/4/2
f 372/4/3 460/4/3 470/4/3 469/4/3
f 376/4/6 473/4/6 462/4/6 374/4/6
f 388/4/1 387/4/1 474/4/1 475/4/1
f 476/4/2 477/4/2 478/4/2 479/4/2
f 474/4/3 476/4/3 479/4/3 475/4/3
f 479/4/5 478/4/5 388/4/5 475/4/5
f 387/4/1 391/4/1 480/4/1 474/4/1
f 481/4/2 482/4/2 477/4/2 476/4/2
f 480/4/3 481/4/3 476/4/3 474/4/3
f 391/4/1 381/4/1 380/4/1 480/4/1
f 467/4/2 483/4/2 482/4/2 481/4/2
f 380/4/3 467/4/3 481/4/3 480/4/3
f 384/4/6 484/4/6 473/4/6 376/4/6
f 396/4/1 395/4/1 485/4/1 486/4/1
f 487/4/2 488/4/2 489/4/2 490/4/2
f 485/4/3 487/4/3 490/4/3 486/4/3
f 490/4/5 489/4/5 396/4/5 486/4/5
f 395/4/1 399/4/1 491/4/1 485/4/1
f 492/4/2 493/4/2 488/4/2 487/4/2
f 491/4/3 492/4/3 487/4/3 485/4/3
f 399/11/1 389/11/1 388/11/1 491/11/1
f 478/11/2 494/11/2 493/11/2 492/11/2
f 388/11/3 478/11/3 492/11/3 491/11/3
f 392/4/6 495/4/6 484/4/6 384/4/6
f 404/4/1 403/4/1 496/4/1 497/4/1
f 498/4/2 499/4/2 500/4/2 501/4/2
f 496/4/3 498/4/3 501/4/3 497/4/3
f 501/4/5 500/4/5 404/4/5 497/4/5
f 403/4/1 407/4/1 502/4/1 496/4/1
f 503/4/2 504/4/2 499/4/2 498/4/2
f 502/4/3 503/4/3 498/4/3 496/4/3
f 407/4/1 397/4/1 396/4/1 502/4/1
f 489/4/2 505/4/2 504/4/2 503/4/2
f 396/4/3 489/4/3 503/4/3 502/4/3
f 400/4/6 506/4/6 495/4/6 392/4/6
f 414/4/1 413/4/1 507/4/1 508/4/1
f 509/4/2 510/4/2 511/4/2 512/4/2
f 507/4/3 509/4/3 512/4/3 508/4/3
f 512/4/5 511/4/5 414/4/5 508/4/5
f 413/4/1 419/4/1 513/4/1 507/4/1
f 514/4/2 515/4/2 510/4/2 509/4/2
f 513/4/3 514/4/3 509/4/3 507/4/3
f 419/4/1 405/4/1 404/4/1 513/4/1
f 500/4/2 516/4/2 515/4/2 514/4/2
f 404/4/3 500/4/3 514/4/3 513/4/3
f 408/4/6 517/4/6 506/4/6 400/4/6
f 518/5/1 519/5/1 520/5/1 521/5/1
f 522/5/2 523/5/2 524/5/2 525/5/2
f 520/5/3 522/5/3 525/5/3 521/5/3
f 524/5/4 523/5/4 519/5/4 518/5/4
f 525/5/5 524/5/5 518/5/5 521/5/5
f 519/5/1 526/5/1 527/5/1 520/5/1
f 528/5/2 529/5/2 523/5/2 522/5/2
f 527/5/3 528/5/3 522/5/3 520/5/3
f 523/5/4 529/5/4 526/5/4 519/5/4
f 526/5/1 530/5/1 531/5/1 527/5/1
f 532/5/2 533/5/2 529/5/2 528/5/2
f 531/5/3 532/5/3 528/5/3 527/5/3
f 529/5/4 533/5/4 530/5/4 526/5/4
f 530/5/1 415/5/1 414/5/1 531/5/1
f 511/5/2 534/5/2 533/5/2 532/5/2
f 414/5/3 511/5/3 532/5/3 531/5/3
f 533/5/4 534/5/4 415/5/4 530/5/4
f 422/4/6 535/4/6 517/4/6 408/4/6
f 536/5/1 537/5/1 416/5/1 415/5/1
f 538/5/2 539/5/2 540/5/2 534/5/2
f 540/5/4 539/5/4 537/5/4 536/5/4
f 534/5/5 540/5/5 536/5/5 415/5/5
f 537/5/1 541/5/1 420/5/1 416/5/1
f 542/5/2 543/5/2 539/5/2 538/5/2
f 539/5/4 543/5/4 541/5/4 537/5/4
f 541/5/1 425/5/1 421/5/1 420/5/1
f 544/5/2 545/5/2 543/5/2 542/5/2
f 543/5/4 545/5/4 425/5/4 541/5/4
f 430/4/6 546/4/6 535/4/6 422/4/6
f 547/5/1 548/5/1 426/5/1 425/5/1
f 549/5/2 550/5/2 551/5/2 545/5/2
f 551/5/4 550/5/4 548/5/4 547/5/4
f 545/5/5 551/5/5 547/5/5 425/5/5
f 548/5/1 552/5/1 428/5/1 426/5/1
f 553/5/2 554/5/2 550/5/2 549/5/2
f 550/5/4 554/5/4 552/5/4 548/5/4
f 552/11/1 433/11/1 429/11/1 428/11/1
f 555/11/2 556/11/2 554/11/2 553/11/2
f 554/11/4 556/11/4 433/11/4 552/11/4
f 438/4/6 557/4/6 546/4/6 430/4/6
f 558/5/1 559/5/1 434/5/1 433/5/1
f 560/5/2 561/5/2 562/5/2 556/5/2
f 562/5/4 561/5/4 559/5/4 558/5/4
f 556/5/5 562/5/5 558/5/5 433/5/5
f 559/5/1 563/5/1 436/5/1 434/5/1
f 564/5/2 565/5/2 561/5/2 560/5/2
f 561/5/4 565/5/4 563/5/4 559/5/4
f 563/5/1 441/5/1 437/5/1 436/5/1
f 566/5/2 567/5/2 565/5/2 564/5/2
f 565/5/4 567/5/4 441/5/4 563/5/4
f 446/4/6 568/4/6 557/4/6 438/4/6
f 569/5/1 570/5/1 442/5/1 441/5/1
f 571/5/2 572/5/2 573/5/2 567/5/2
f 573/5/4 572/5/4 570/5/4 569/5/4
f 567/5/5 573/5/5 569/5/5 441/5/5
f 570/5/1 574/5/1 444/5/1 442/5/1
f 575/5/2 576/5/2 572/5/2 571/5/2
f 572/5/4 576/5/4 574/5/4 570/5/4
f 574/5/1 449/5/1 445/5/1 444/5/1
f 577/5/2 578/5/2 576/5/2 575/5/2
f 576/5/4 578/5/4 449/5/4 574/5/4
f 454/4/6 579/4/6 568/4/6 446/4/6
f 580/5/1 581/5/1 450/5/1 449/5/1
f 582/5/2 583/5/2 584/5/2 578/5/2
f 584/5/4 583/5/4 581/5/4 580/5/4
f 578/5/5 584/5/5 580/5/5 449/5/5
f 581/5/1 585/5/1 452/5/1 450/5/1
f 586/5/2 587/5/2 583/5/2 582/5/2
f 583/5/4 587/5/4 585/5/4 581/5/4
f 585/5/1 455/5/1 453/5/1 452/5/1
f 588/5/2 589/5/2 587/5/2 586/5/2
f 587/5/4 589/5/4 455/5/4 585/5/4
f 590/4/4 591/4/4 457/4/4 456/4/4
f 457/4/6 591/4/6 579/4/6 454/4/6
f 592/5/1 593/5/1 456/5/1 455/5/1
f 590/5/2 594/5/2 595/5/2 589/5/2
f 595/5/4 594/5/4 593/5/4 592/5/4
f 589/5/5 595/5/5 592/5/5 455/5/5
f 593/5/6 594/5/6 590/5/6 456/5/6
f 458/4/3 596/4/3 597/4/3 459/4/3
f 597/4/5 598/4/5 460/4/5 459/4/5
f 461/4/3 599/4/3 596/4/3 458/4/3
f 462/4/6 600/4/6 599/4/6 461/4/6
f 598/4/5 601/4/5 472/4/5 460/4/5
f 473/4/6 602/4/6 600/4/6 462/4/6
f 603/4/2 604/4/2 605/4/2 606/4/2
f 466/4/3 603/4/3 606/4/3 467/4/3
f 606/4/5 605/4/5 483/4/5 467/4/5
f 607/4/2 608/4/2 604/4/2 603/4/2
f 471/4/3 607/4/3 603/4/3 466/4/3
f 601/4/2 609/4/2 608/4/2 607/4/2
f 472/4/3 601/4/3 607/4/3 471/4/3
f 484/4/6 610/4/6 602/4/6 473/4/6
f 611/4/2 612/4/2 613/4/2 614/4/2
f 477/4/3 611/4/3 614/4/3 478/4/3
f 614/4/5 613/4/5 494/4/5 478/4/5
f 615/4/2 616/4/2 612/4/2 611/4/2
f 482/4/3 615/4/3 611/4/3 477/4/3
f 605/4/2 617/4/2 616/4/2 615/4/2
f 483/4/3 605/4/3 615/4/3 482/4/3
f 495/4/6 618/4/6 610/4/6 484/4/6
f 619/4/2 620/4/2 621/4/2 622/4/2
f 488/4/3 619/4/3 622/4/3 489/4/3
f 622/4/5 621/4/5 505/4/5 489/4/5
f 623/4/2 624/4/2 620/4/2 619/4/2
f 493/4/3 623/4/3 619/4/3 488/4/3
f 613/4/2 625/4/2 624/4/2 623/4/2
f 494/4/3 613/4/3 623/4/3 493/4/3
f 506/4/6 626/4/6 618/4/6 495/4/6
f 627/4/2 628/4/2 629/4/2 630/4/2
f 499/4/3 627/4/3 630/4/3 500/4/3
f 630/4/5 629/4/5 516/4/5 500/4/5
f 631/4/2 632/4/2 628/4/2 627/4/2
f 504/4/3 631/4/3 627/4/3 499/4/3
f 621/4/2 633/4/2 632/4/2 631/4/2
f 505/4/3 621/4/3 631/4/3 504/4/3
f 517/4/6 634/4/6 626/4/6 506/4/6
f 635/5/2 636/5/2 637/5/2 638/5/2
f 510/5/3 635/5/3 638/5/3 511/5/3
f 637/5/4 636/5/4 538/5/4 534/5/4
f 638/5/5 637/5/5 534/5/5 511/5/5
f 639/5/2 640/5/2 636/5/2 635/5/2
f 515/5/3 639/5/3 635/5/3 510/5/3
f 636/5/4 640/5/4 542/5/4 538/5/4
f 629/5/2 641/5/2 640/5/2 639/5/2
f 516/5/3 629/5/3 639/5/3 515/5/3
f 640/5/4 641/5/4 544/5/4 542/5/4
f 535/4/6 642/4/6 634/4/6 517/4/6
f 643/5/2 644/5/2 645/5/2 641/5/2
f 645/5/4 644/5/4 549/5/4 545/5/4
f 641/5/5 645/5/5 545/5/5 544/5/5
f 646/5/2 647/5/2 644/5/2 643/5/2
f 644/5/4 647/5/4 553/5/4 549/5/4
f 648/5/2 649/5/2 647/5/2 646/5/2
f 647/5/4 649/5/4 555/5/4 553/5/4
f 546/4/6 650/4/6 642/4/6 535/4/6
f 651/5/2 652/5/2 653/5/2 649/5/2
f 653/5/4 652/5/4 560/5/4 556/5/4
f 649/5/5 653/5/5 556/5/5 555/5/5
f 654/5/2 655/5/2 652/5/2 651/5/2
f 652/5/4 655/5/4 564/5/4 560/5/4
f 656/5/2 657/5/2 655/5/2 654/5/2
f 655/5/4 657/5/4 566/5/4 564/5/4
f 557/4/6 658/4/6 650/4/6 546/4/6
f 659/5/2 660/5/2 661/5/2 657/5/2
f 661/5/4 660/5/4 571/5/4 567/5/4
f 657/5/5 661/5/5 567/5/5 566/5/5
f 662/5/2 663/5/2 660/5/2 659/5/2
f 660/5/4 663/5/4 575/5/4 571/5/4
f 664/5/2 665/5/2 663/5/2 662/5/2
f 663/5/4 665/5/4 577/5/4 575/5/4
f 568/4/6 666/4/6 658/4/6 557/4/6
f 667/5/2 668/5/2 669/5/2 665/5/2
f 669/5/4 668/5/4 582/5/4 578/5/4
f 665/5/5 669/5/5 578/5/5 577/5/5
f 670/5/2 671/5/2 668/5/2 667/5/2
f 668/5/4 671/5/4 586/5/4 582/5/4
f 672/5/2 673/5/2 671/5/2 670/5/2
f 671/5/4 673/5/4 588/5/4 586/5/4
f 579/4/6 674/4/6 666/4/6 568/4/6
f 675/5/4 676/5/4 590/5/4 589/5/4
f 673/5/5 675/5/5 589/5/5 588/5/5
f 676/4/4 677/4/4 591/4/4 590/4/4
f 591/4/6 677/4/6 674/4/6 579/4/6
f 596/4/3 678/4/3 679/4/3 597/4/3
f 679/4/5 680/4/5 598/4/5 597/4/5
f 599/4/3 681/4/3 678/4/3 596/4/3
f 600/4/6 682/4/6 681/4/6 599/4/6
f 680/4/5 683/4/5 601/4/5 598/4/5
f 602/4/6 684/4/6 682/4/6 600/4/6
f 683/4/5 685/4/5 609/4/5 601/4/5
f 610/4/6 686/4/6 684/4/6 602/4/6
f 687/4/2 688/4/2 689/4/2 690/4/2
f 604/4/3 687/4/3 690/4/3 605/4/3
f 690/4/5 689/4/5 617/4/5 605/4/5
f 691/4/2 692/4/2 688/4/2 687/4/2
f 608/4/3 691/4/3 687/4/3 604/4/3
f 685/4/2 693/4/2 692/4/2 691/4/2
f 609/4/3 685/4/3 691/4/3 608/4/3
f 618/4/6 694/4/6 686/4/6 610/4/6
f 695/4/2 696/4/2 697/4/2 698/4/2
f 612/4/3 695/4/3 698/4/3 613/4/3
f 698/4/5 697/4/5 625/4/5 613/4/5
f 699/11/2 700/11/2 696/11/2 695/11/2
f 616/11/3 699/11/3 695/11/3 612/11/3
f 689/4/2 701/4/2 700/4/2 699/4/2
f 617/4/3 689/4/3 699/4/3 616/4/3
f 626/4/6 702/4/6 694/4/6 618/4/6
f 703/4/2 704/4/2 705/4/2 706/4/2
f 620/4/3 703/4/3 706/4/3 621/4/3
f 706/4/5 705/4/5 633/4/5 621/4/5
f 707/4/2 708/4/2 704/4/2 703/4/2
f 624/4/3 707/4/3 703/4/3 620/4/3
f 697/4/2 709/4/2 708/4/2 707/4/2
f 625/4/3 697/4/3 707/4/3 624/4/3
f 634/4/6 710/4/6 702/4/6 626/4/6
f 711/5/2 712/5/2 713/5/2 714/5/2
f 628/5/3 711/5/3 714/5/3 629/5/3
f 713/5/4 712/5/4 643/5/4 641/5/4
f 714/5/5 713/5/5 641/5/5 629/5/5
f 715/5/2 716/5/2 712/5/2 711/5/2
f 632/5/3 715/5/3 711/5/3 628/5/3
f 712/5/4 716/5/4 646/5/4 643/5/4
f 705/5/2 717/5/2 716/5/2 715/5/2
f 633/5/3 705/5/3 715/5/3 632/5/3
f 716/5/4 717/5/4 648/5/4 646/5/4
f 642/4/6 718/4/6 710/4/6 634/4/6
f 719/5/2 720/5/2 721/5/2 717/5/2
f 721/5/4 720/5/4 651/5/4 649/5/4
f 717/5/5 721/5/5 649/5/5 648/5/5
f 722/5/2 723/5/2 720/5/2 719/5/2
f 720/5/4 723/5/4 654/5/4 651/5/4
f 724/5/2 725/5/2 723/5/2 722/5/2
f 723/5/4 725/5/4 656/5/4 654/5/4
f 650/4/6 726/4/6 718/4/6 642/4/6
f 727/5/2 728/5/2 729/5/2 725/5/2
f 729/5/4 728/5/4 659/5/4 657/5/4
f 725/5/5 729/5/5 657/5/5 656/5/5
f 730/5/2 731/5/2 728/5/2 727/5/2
f 728/5/4 731/5/4 662/5/4 659/5/4
f 732/5/2 733/5/2 731/5/2 730/5/2
f 731/5/4 733/5/4 664/5/4 662/5/4
f 658/4/6 734/4/6 726/4/6 650/4/6
f 735/11/4 736/11/4 667/11/4 665/11/4
f 733/11/5 735/11/5 665/11/5 664/11/5
f 736/11/4 737/11/4 670/11/4 667/11/4
f 737/11/4 738/11/4 672/11/4 670/11/4
f 666/4/6 739/4/6 734/4/6 658/4/6
f 738/11/5 740/11/5 673/11/5 672/11/5
f 674/4/6 741/4/6 739/4/6 666/4/6
f 742/4/4 743/4/4 676/4/4 675/4/4
f 740/4/5 742/4/5 675/4/5 673/4/5
f 743/4/4 744/4/4 677/4/4 676/4/4
f 677/4/6 744/4/6 741/4/6 674/4/6
f 678/4/3 745/4/3 746/4/3 679/4/3
f 746/4/5 747/4/5 680/4/5 679/4/5
f 681/4/3 748/4/3 745/4/3 678/4/3
f 682/4/6 749/4/6 748/4/6 681/4/6
f 747/4/5 750/4/5 683/4/5 680/4/5
f 684/4/6 751/4/6 749/4/6 682/4/6
f 750/4/5 752/4/5 685/4/5 683/4/5
f 686/4/6 753/4/6 751/4/6 684/4/6
f 752/5/5 754/5/5 693/5/5 685/5/5
f 694/4/6 755/4/6 753/4/6 686/4/6
f 756/4/2 757/4/2 758/4/2 759/4/2
f 688/4/3 756/4/3 759/4/3 689/4/3
f 759/4/5 758/4/5 701/4/5 689/4/5
f 760/4/2 761/4/2 757/4/2 756/4/2
f 692/4/3 760/4/3 756/4/3 688/4/3
f 754/4/2 762/4/2 761/4/2 760/4/2
f 693/4/3 754/4/3 760/4/3 692/4/3
f 702/4/6 763/4/6 755/4/6 694/4/6
f 764/4/2 765/4/2 766/4/2 767/4/2
f 696/4/3 764/4/3 767/4/3 697/4/3
f 767/4/5 766/4/5 709/4/5 697/4/5
f 768/4/2 769/4/2 765/4/2 764/4/2
f 700/4/3 768/4/3 764/4/3 696/4/3
f 758/4/2 770/4/2 769/4/2 768/4/2
f 701/4/3 758/4/3 768/4/3 700/4/3
f 710/4/6 771/4/6 763/4/6 702/4/6
f 772/5/2 773/5/2 774/5/2 775/5/2
f 704/5/3 772/5/3 775/5/3 705/5/3
f 774/5/4 773/5/4 719/5/4 717/5/4
f 775/5/5 774/5/5 717/5/5 705/5/5
f 776/5/2 777/5/2 773/5/2 772/5/2
f 708/5/3 776/5/3 772/5/3 704/5/3
f 773/5/4 777/5/4 722/5/4 719/5/4
f 766/5/2 778/5/2 777/5/2 776/5/2
f 709/5/3 766/5/3 776/5/3 708/5/3
f 777/5/4 778/5/4 724/5/4 722/5/4
f 718/4/6 779/4/6 771/4/6 710/4/6
f 780/5/2 781/5/2 782/5/2 778/5/2
f 782/5/4 781/5/4 727/5/4 725/5/4
f 778/5/5 782/5/5 725/5/5 724/5/5
f 783/5/2 784/5/2 781/5/2 780/5/2
f 781/5/4 784/5/4 730/5/4 727/5/4
f 785/5/2 786/5/2 784/5/2 783/5/2
f 784/5/4 786/5/4 732/5/4 730/5/4
f 726/4/6 787/4/6 779/4/6 718/4/6
f 788/4/2 789/4/2 790/4/2 786/4/2
f 786/4/5 790/4/5 733/4/5 732/4/5
f 791/4/2 792/4/2 789/4/2 788/4/2
f 793/4/2 794/4/2 792/4/2 791/4/2
f 734/4/6 795/4/6 787/4/6 726/4/6
f 796/5/1 797/5/1 728/5/1 729/5/1
f 798/5/2 799/5/2 800/5/2 801/5/2
f 728/5/3 798/5/3 801/5/3 729/5/3
f 800/5/4 799/5/4 797/5/4 796/5/4
f 801/5/5 800/5/5 796/5/5 729/5/5
f 797/5/1 802/5/1 731/5/1 728/5/1
f 803/5/2 804/5/2 799/5/2 798/5/2
f 731/5/3 803/5/3 798/5/3 728/5/3
f 799/5/4 804/5/4 802/5/4 797/5/4
f 802/5/1 735/5/1 733/5/1 731/5/1
f 790/5/2 805/5/2 804/5/2 803/5/2
f 733/5/3 790/5/3 803/5/3 731/5/3
f 804/5/4 805/5/4 735/5/4 802/5/4
f 739/4/6 806/4/6 795/4/6 734/4/6
f 807/5/1 808/5/1 736/5/1 735/5/1
f 809/5/2 810/5/2 811/5/2 805/5/2
f 811/5/4 810/5/4 808/5/4 807/5/4
f 805/5/5 811/5/5 807/5/5 735/5/5
f 808/5/1 812/5/1 737/5/1 736/5/1
f 813/5/2 814/5/2 810/5/2 809/5/2
f 810/5/4 814/5/4 812/5/4 808/5/4
f 812/5/1 740/5/1 738/5/1 737/5/1
f 815/5/2 816/5/2 814/5/2 813/5/2
f 814/5/4 816/5/4 740/5/4 812/5/4
f 741/4/6 817/4/6 806/4/6 739/4/6
f 818/5/4 819/5/4 743/5/4 742/5/4
f 816/5/5 818/5/5 742/5/5 740/5/5
f 819/4/4 820/4/4 744/4/4 743/4/4
f 744/4/6 820/4/6 817/4/6 741/4/6
f 745/4/3 821/4/3 822/4/3 746/4/3
f 822/4/5 823/4/5 747/4/5 746/4/5
f 748/4/3 824/4/3 821/4/3 745/4/3
f 749/4/6 825/4/6 824/4/6 748/4/6
f 823/4/5 826/4/5 750/4/5 747/4/5
f 751/4/6 827/4/6 825/4/6 749/4/6
f 826/4/5 828/4/5 752/4/5 750/4/5
f 753/4/6 829/4/6 827/4/6 751/4/6
f 828/4/5 830/4/5 754/4/5 752/4/5
f 755/4/6 831/4/6 829/4/6 753/4/6
f 830/4/5 832/4/5 762/4/5 754/4/5
f 763/4/6 833/4/6 831/4/6 755/4/6
f 834/4/2 835/4/2 836/4/2 837/4/2
f 757/4/3 834/4/3 837/4/3 758/4/3
f 837/4/5 836/4/5 770/4/5 758/4/5
f 838/4/2 839/4/2 835/4/2 834/4/2
f 761/4/3 838/4/3 834/4/3 757/4/3
f 832/4/2 840/4/2 839/4/2 838/4/2
f 762/4/3 832/4/3 838/4/3 761/4/3
f 771/4/6 841/4/6 833/4/6 763/4/6
f 842/5/2 843/5/2 844/5/2 845/5/2
f 765/5/3 842/5/3 845/5/3 766/5/3
f 844/5/4 843/5/4 780/5/4 778/5/4
f 845/5/5 844/5/5 778/5/5 766/5/5
f 846/5/2 847/5/2 843/5/2 842/5/2
f 769/5/3 846/5/3 842/5/3 765/5/3
f 843/5/4 847/5/4 783/5/4 780/5/4
f 836/5/2 848/5/2 847/5/2 846/5/2
f 770/5/3 836/5/3 846/5/3 769/5/3
f 847/5/4 848/5/4 785/5/4 783/5/4
f 779/4/6 849/4/6 841/4/6 771/4/6
f 850/5/2 851/5/2 852/5/2 848/5/2
f 852/5/4 851/5/4 788/5/4 786/5/4
f 848/5/5 852/5/5 786/5/5 785/5/5
f 853/5/2 854/5/2 851/5/2 850/5/2
f 851/5/4 854/5/4 791/5/4 788/5/4
f 855/5/2 856/5/2 854/5/2 853/5/2
f 854/5/4 856/5/4 793/5/4 791/5/4
f 787/4/6 857/4/6 849/4/6 779/4/6
f 856/4/5 858/4/5 794/4/5 793/4/5
f 795/4/6 859/4/6 857/4/6 787/4/6
f 860/5/2 861/5/2 862/5/2 863/5/2
f 789/5/3 860/5/3 863/5/3 790/5/3
f 862/5/4 861/5/4 809/5/4 805/5/4
f 863/5/5 862/5/5 805/5/5 790/5/5
f 864/5/2 865/5/2 861/5/2 860/5/2
f 792/5/3 864/5/3 860/5/3 789/5/3
f 861/5/4 865/5/4 813/5/4 809/5/4
f 858/5/2 866/5/2 865/5/2 864/5/2
f 794/5/3 858/5/3 864/5/3 792/5/3
f 865/5/4 866/5/4 815/5/4 813/5/4
f 806/4/6 867/4/6 859/4/6 795/4/6
f 866/5/5 868/5/5 816/5/5 815/5/5
f 817/4/6 869/4/6 867/4/6 806/4/6
f 870/4/4 871/4/4 819/4/4 818/4/4
f 868/4/5 870/4/5 818/4/5 816/4/5
f 871/4/4 872/4/4 820/4/4 819/4/4
f 820/4/6 872/4/6 869/4/6 817/4/6
f 873/4/2 874/4/2 875/4/2 876/4/2
f 821/4/3 873/4/3 876/4/3 822/4/3
f 876/4/5 875/4/5 823/4/5 822/4/5
f 877/4/2 878/4/2 874/4/2 873/4/2
f 824/4/3 877/4/3 873/4/3 821/4/3
f 825/4/6 878/4/6 877/4/6 824/4/6
f 874/4/2 879/4/2 880/4/2 875/4/2
f 875/4/5 880/4/5 826/4/5 823/4/5
f 878/4/2 881/4/2 879/4/2 874/4/2
f 827/4/6 881/4/6 878/4/6 825/4/6
f 879/4/2 882/4/2 883/4/2 880/4/2
f 880/4/5 883/4/5 828/4/5 826/4/5
f 881/4/2 884/4/2 882/4/2 879/4/2
f 829/4/6 884/4/6 881/4/6 827/4/6
f 882/4/2 885/4/2 886/4/2 883/4/2
f 883/4/5 886/4/5 830/4/5 828/4/5
f 884/4/2 887/4/2 885/4/2 882/4/2
f 831/4/6 887/4/6 884/4/6 829/4/6
f 885/4/2 888/4/2 889/4/2 886/4/2
f 886/4/5 889/4/5 832/4/5 830/4/5
f 887/4/2 890/4/2 888/4/2 885/4/2
f 833/4/6 890/4/6 887/4/6 831/4/6
f 888/4/2 891/4/2 892/4/2 889/4/2
f 889/4/5 892/4/5 840/4/5 832/4/5
f 890/4/2 893/4/2 891/4/2 888/4/2
f 841/4/6 893/4/6 890/4/6 833/4/6
f 894/5/2 895/5/2 896/5/2 897/5/2
f 835/5/3 894/5/3 897/5/3 836/5/3
f 896/5/4 895/5/4 850/5/4 848/5/4
f 897/5/5 896/5/5 848/5/5 836/5/5
f 898/5/2 899/5/2 895/5/2 894/5/2
f 839/5/3 898/5/3 894/5/3 835/5/3
f 895/5/4 899/5/4 853/5/4 850/5/4
f 892/5/2 900/5/2 899/5/2 898/5/2
f 840/5/3 892/5/3 898/5/3 839/5/3
f 899/5/4 900/5/4 855/5/4 853/5/4
f 893/4/2 901/4/2 902/4/2 891/4/2
f 849/4/6 901/4/6 893/4/6 841/4/6
f 902/5/2 903/5/2 904/5/2 900/5/2
f 900/5/5 904/5/5 856/5/5 855/5/5
f 901/4/2 905/4/2 903/4/2 902/4/2
f 857/4/6 905/4/6 901/4/6 849/4/6
f 903/4/2 906/4/2 907/4/2 904/4/2
f 904/4/5 907/4/5 858/4/5 856/4/5
f 905/4/2 908/4/2 906/4/2 903/4/2
f 859/4/6 908/4/6 905/4/6 857/4/6
f 906/5/2 909/5/2 910/5/2 907/5/2
f 907/5/5 910/5/5 866/5/5 858/5/5
f 908/4/2 911/4/2 909/4/2 906/4/2
f 867/4/6 911/4/6 908/4/6 859/4/6
f 909/4/2 912/4/2 913/4/2 910/4/2
f 910/4/5 913/4/5 868/4/5 866/4/5
f 911/4/2 914/4/2 912/4/2 909/4/2
f 869/4/6 914/4/6 911/4/6 867/4/6
f 912/4/2 915/4/2 916/4/2 913/4/2
f 916/4/4 915/4/4 871/4/4 870/4/4
f 913/4/5 916/4/5 870/4/5 868/4/5
f 914/4/2 917/4/2 915/4/2 912/4/2
f 915/4/4 917/4/4 872/4/4 871/4/4
f 872/4/6 917/4/6 914/4/6 869/4/6
f 918/5/2 919/5/2 920/5/2 921/5/2
f 891/5/3 918/5/3 921/5/3 892/5/3
f 920/5/4 919/5/4 902/5/4 900/5/4
f 921/5/5 920/5/5 900/5/5 892/5/5
f 902/5/6 919/5/6 918/5/6 891/5/6
