# Dungine stalagmite_large; 1 voxel = 1/16 unit; Y-up floor-center origin
mtllib stalagmite_large.mtl
o stalagmite_large
s off
v -0.437500 0.000000 -0.125000
v -0.437500 0.062500 -0.125000
v -0.437500 0.062500 -0.187500
v -0.437500 0.000000 -0.187500
v -0.375000 0.062500 -0.187500
v -0.375000 0.000000 -0.187500
v -0.375000 0.000000 -0.125000
v -0.375000 0.062500 -0.125000
v -0.375000 0.062500 -0.250000
v -0.375000 0.000000 -0.250000
v -0.312500 0.062500 -0.250000
v -0.312500 0.000000 -0.250000
v -0.312500 0.000000 -0.187500
v -0.312500 0.062500 -0.187500
v -0.312500 0.000000 -0.125000
v -0.375000 0.125000 -0.125000
v -0.375000 0.125000 -0.187500
v -0.312500 0.125000 -0.187500
v -0.312500 0.062500 -0.125000
v -0.312500 0.125000 -0.125000
v -0.375000 0.187500 -0.125000
v -0.375000 0.187500 -0.187500
v -0.312500 0.187500 -0.187500
v -0.312500 0.187500 -0.125000
v -0.375000 0.000000 -0.062500
v -0.375000 0.062500 -0.062500
v -0.312500 0.000000 -0.062500
v -0.312500 0.062500 -0.062500
v -0.375000 0.000000 0.062500
v -0.375000 0.062500 0.062500
v -0.375000 0.062500 0.000000
v -0.375000 0.000000 0.000000
v -0.312500 0.062500 0.000000
v -0.312500 0.000000 0.000000
v -0.312500 0.000000 0.062500
v -0.312500 0.062500 0.062500
v -0.312500 0.062500 -0.312500
v -0.312500 0.000000 -0.312500
v -0.250000 0.062500 -0.312500
v -0.250000 0.000000 -0.312500
v -0.250000 0.000000 -0.250000
v -0.250000 0.062500 -0.250000
v -0.250000 0.000000 -0.187500
v -0.312500 0.125000 -0.250000
v -0.250000 0.125000 -0.250000
v -0.312500 0.187500 -0.250000
v -0.250000 0.187500 -0.250000
v -0.250000 0.187500 -0.187500
v -0.250000 0.000000 -0.125000
v -0.312500 0.250000 -0.125000
v -0.312500 0.250000 -0.187500
v -0.250000 0.250000 -0.187500
v -0.250000 0.187500 -0.125000
v -0.250000 0.250000 -0.125000
v -0.312500 0.312500 -0.125000
v -0.312500 0.312500 -0.187500
v -0.250000 0.312500 -0.187500
v -0.250000 0.312500 -0.125000
v -0.312500 0.375000 -0.125000
v -0.312500 0.375000 -0.187500
v -0.250000 0.375000 -0.187500
v -0.250000 0.375000 -0.125000
v -0.250000 0.000000 -0.062500
v -0.312500 0.125000 -0.062500
v -0.250000 0.062500 -0.062500
v -0.250000 0.125000 -0.062500
v -0.312500 0.187500 -0.062500
v -0.250000 0.187500 -0.062500
v -0.250000 0.000000 0.000000
v -0.250000 0.062500 0.000000
v -0.250000 0.000000 0.062500
v -0.312500 0.125000 0.062500
v -0.312500 0.125000 0.000000
v -0.250000 0.125000 0.000000
v -0.250000 0.062500 0.062500
v -0.250000 0.125000 0.062500
v -0.312500 0.187500 0.062500
v -0.312500 0.187500 0.000000
v -0.250000 0.187500 0.000000
v -0.250000 0.187500 0.062500
v -0.312500 0.250000 0.062500
v -0.312500 0.250000 0.000000
v -0.250000 0.250000 0.000000
v -0.250000 0.250000 0.062500
v -0.312500 0.312500 0.062500
v -0.312500 0.312500 0.000000
v -0.250000 0.312500 0.000000
v -0.250000 0.312500 0.062500
v -0.312500 0.375000 0.062500
v -0.312500 0.375000 0.000000
v -0.250000 0.375000 0.000000
v -0.250000 0.375000 0.062500
v -0.312500 0.000000 0.125000
v -0.312500 0.062500 0.125000
v -0.250000 0.000000 0.125000
v -0.250000 0.062500 0.125000
v -0.250000 0.062500 -0.375000
v -0.250000 0.000000 -0.375000
v -0.187500 0.062500 -0.375000
v -0.187500 0.062500 -0.312500
v -0.187500 0.000000 -0.312500
v -0.187500 0.000000 -0.375000
v -0.187500 0.000000 -0.250000
v -0.250000 0.125000 -0.312500
v -0.187500 0.125000 -0.312500
v -0.187500 0.125000 -0.250000
v -0.187500 0.062500 -0.250000
v -0.250000 0.187500 -0.312500
v -0.187500 0.187500 -0.312500
v -0.187500 0.187500 -0.250000
v -0.187500 0.000000 -0.187500
v -0.250000 0.250000 -0.250000
v -0.187500 0.250000 -0.250000
v -0.187500 0.250000 -0.187500
v -0.187500 0.187500 -0.187500
v -0.250000 0.312500 -0.250000
v -0.187500 0.312500 -0.250000
v -0.187500 0.312500 -0.187500
v -0.250000 0.375000 -0.250000
v -0.187500 0.375000 -0.250000
v -0.187500 0.375000 -0.187500
v -0.187500 0.000000 -0.125000
v -0.250000 0.437500 -0.125000
v -0.250000 0.437500 -0.187500
v -0.187500 0.437500 -0.187500
v -0.187500 0.437500 -0.125000
v -0.187500 0.375000 -0.125000
v -0.250000 0.500000 -0.125000
v -0.250000 0.500000 -0.187500
v -0.187500 0.500000 -0.187500
v -0.187500 0.500000 -0.125000
v -0.250000 0.562500 -0.125000
v -0.250000 0.562500 -0.187500
v -0.187500 0.562500 -0.187500
v -0.187500 0.562500 -0.125000
v -0.187500 0.000000 -0.062500
v -0.250000 0.250000 -0.062500
v -0.250000 0.312500 -0.062500
v -0.250000 0.375000 -0.062500
v -0.187500 0.375000 -0.062500
v -0.187500 0.000000 0.000000
v -0.187500 0.375000 0.000000
v -0.187500 0.000000 0.062500
v -0.250000 0.437500 0.062500
v -0.250000 0.437500 0.000000
v -0.187500 0.437500 0.000000
v -0.187500 0.375000 0.062500
v -0.187500 0.437500 0.062500
v -0.250000 0.500000 0.062500
v -0.250000 0.500000 0.000000
v -0.187500 0.500000 0.000000
v -0.187500 0.500000 0.062500
v -0.250000 0.562500 0.062500
v -0.250000 0.562500 0.000000
v -0.187500 0.562500 0.000000
v -0.187500 0.562500 0.062500
v -0.250000 0.625000 0.062500
v -0.250000 0.625000 0.000000
v -0.187500 0.625000 0.000000
v -0.187500 0.625000 0.062500
v -0.250000 0.687500 0.062500
v -0.250000 0.687500 0.000000
v -0.187500 0.687500 0.000000
v -0.187500 0.687500 0.062500
v -0.187500 0.000000 0.125000
v -0.250000 0.125000 0.125000
v -0.187500 0.062500 0.125000
v -0.187500 0.125000 0.125000
v -0.250000 0.187500 0.125000
v -0.187500 0.187500 0.125000
v -0.250000 0.250000 0.125000
v -0.187500 0.250000 0.125000
v -0.250000 0.312500 0.125000
v -0.187500 0.312500 0.125000
v -0.250000 0.375000 0.125000
v -0.187500 0.375000 0.125000
v -0.250000 0.000000 0.187500
v -0.250000 0.062500 0.187500
v -0.187500 0.000000 0.187500
v -0.187500 0.062500 0.187500
v -0.125000 0.062500 -0.312500
v -0.125000 0.062500 -0.250000
v -0.125000 0.000000 -0.250000
v -0.125000 0.000000 -0.312500
v -0.125000 0.000000 -0.187500
v -0.125000 0.125000 -0.250000
v -0.125000 0.125000 -0.187500
v -0.125000 0.062500 -0.187500
v -0.125000 0.187500 -0.250000
v -0.125000 0.187500 -0.187500
v -0.125000 0.000000 -0.125000
v -0.125000 0.250000 -0.187500
v -0.125000 0.312500 -0.187500
v -0.125000 0.375000 -0.187500
v -0.125000 0.375000 -0.125000
v -0.125000 0.000000 -0.062500
v -0.125000 0.375000 -0.062500
v -0.125000 0.000000 0.000000
v -0.187500 0.437500 -0.062500
v -0.125000 0.437500 -0.062500
v -0.187500 0.500000 -0.062500
v -0.125000 0.500000 -0.062500
v -0.187500 0.562500 -0.062500
v -0.125000 0.562500 -0.062500
v -0.187500 0.625000 -0.062500
v -0.125000 0.625000 -0.062500
v -0.187500 0.687500 -0.062500
v -0.125000 0.687500 -0.062500
v -0.125000 0.687500 0.000000
v -0.125000 0.000000 0.062500
v -0.187500 0.750000 0.062500
v -0.187500 0.750000 0.000000
v -0.125000 0.750000 0.000000
v -0.125000 0.687500 0.062500
v -0.125000 0.750000 0.062500
v -0.187500 0.812500 0.062500
v -0.187500 0.812500 0.000000
v -0.125000 0.812500 0.000000
v -0.125000 0.812500 0.062500
v -0.187500 0.875000 0.062500
v -0.187500 0.875000 0.000000
v -0.125000 0.875000 0.000000
v -0.125000 0.875000 0.062500
v -0.187500 0.937500 0.062500
v -0.187500 0.937500 0.000000
v -0.125000 0.937500 0.000000
v -0.125000 0.937500 0.062500
v -0.187500 1.000000 0.062500
v -0.187500 1.000000 0.000000
v -0.125000 1.000000 0.000000
v -0.125000 1.000000 0.062500
v -0.125000 0.000000 0.125000
v -0.187500 0.437500 0.125000
v -0.125000 0.375000 0.125000
v -0.125000 0.437500 0.125000
v -0.187500 0.500000 0.125000
v -0.125000 0.500000 0.125000
v -0.187500 0.562500 0.125000
v -0.125000 0.562500 0.125000
v -0.187500 0.625000 0.125000
v -0.125000 0.625000 0.125000
v -0.187500 0.687500 0.125000
v -0.125000 0.687500 0.125000
v -0.125000 0.000000 0.187500
v -0.187500 0.125000 0.187500
v -0.125000 0.062500 0.187500
v -0.125000 0.125000 0.187500
v -0.187500 0.187500 0.187500
v -0.125000 0.187500 0.187500
v -0.187500 0.250000 0.187500
v -0.125000 0.250000 0.187500
v -0.187500 0.312500 0.187500
v -0.125000 0.312500 0.187500
v -0.187500 0.375000 0.187500
v -0.125000 0.375000 0.187500
v -0.187500 0.000000 0.250000
v -0.187500 0.062500 0.250000
v -0.125000 0.000000 0.250000
v -0.125000 0.062500 0.250000
v -0.062500 0.062500 -0.250000
v -0.062500 0.000000 -0.250000
v -0.062500 0.000000 -0.187500
v -0.062500 0.062500 -0.187500
v -0.062500 0.000000 -0.125000
v -0.062500 0.125000 -0.187500
v -0.062500 0.187500 -0.187500
v -0.062500 0.250000 -0.187500
v -0.062500 0.312500 -0.187500
v -0.062500 0.375000 -0.187500
v -0.062500 0.375000 -0.125000
v -0.062500 0.000000 -0.062500
v -0.125000 0.437500 -0.125000
v -0.062500 0.437500 -0.125000
v -0.125000 0.500000 -0.125000
v -0.062500 0.500000 -0.125000
v -0.125000 0.562500 -0.125000
v -0.062500 0.562500 -0.125000
v -0.125000 0.625000 -0.125000
v -0.062500 0.625000 -0.125000
v -0.125000 0.687500 -0.125000
v -0.062500 0.687500 -0.125000
v -0.062500 0.687500 -0.062500
v -0.062500 0.000000 0.000000
v -0.125000 0.750000 -0.062500
v -0.062500 0.750000 -0.062500
v -0.125000 0.812500 -0.062500
v -0.062500 0.812500 -0.062500
v -0.125000 0.875000 -0.062500
v -0.062500 0.875000 -0.062500
v -0.125000 0.937500 -0.062500
v -0.062500 0.937500 -0.062500
v -0.125000 1.000000 -0.062500
v -0.062500 1.000000 -0.062500
v -0.062500 1.000000 0.000000
v -0.062500 0.000000 0.062500
v -0.125000 1.062500 0.062500
v -0.125000 1.062500 0.000000
v -0.062500 1.062500 0.000000
v -0.062500 1.000000 0.062500
v -0.062500 1.062500 0.062500
v -0.125000 1.125000 0.062500
v -0.125000 1.125000 0.000000
v -0.062500 1.125000 0.000000
v -0.062500 1.125000 0.062500
v -0.125000 1.187500 0.062500
v -0.125000 1.187500 0.000000
v -0.062500 1.187500 0.000000
v -0.062500 1.187500 0.062500
v -0.125000 1.250000 0.062500
v -0.125000 1.250000 0.000000
v -0.062500 1.250000 0.000000
v -0.062500 1.250000 0.062500
v -0.125000 1.312500 0.062500
v -0.125000 1.312500 0.000000
v -0.062500 1.312500 0.000000
v -0.062500 1.312500 0.062500
v -0.062500 0.000000 0.125000
v -0.125000 0.750000 0.125000
v -0.062500 0.687500 0.125000
v -0.062500 0.750000 0.125000
v -0.125000 0.812500 0.125000
v -0.062500 0.812500 0.125000
v -0.125000 0.875000 0.125000
v -0.062500 0.875000 0.125000
v -0.125000 0.937500 0.125000
v -0.062500 0.937500 0.125000
v -0.125000 1.000000 0.125000
v -0.062500 1.000000 0.125000
v -0.062500 0.000000 0.187500
v -0.125000 0.437500 0.187500
v -0.062500 0.375000 0.187500
v -0.062500 0.437500 0.187500
v -0.125000 0.500000 0.187500
v -0.062500 0.500000 0.187500
v -0.125000 0.562500 0.187500
v -0.062500 0.562500 0.187500
v -0.125000 0.625000 0.187500
v -0.062500 0.625000 0.187500
v -0.125000 0.687500 0.187500
v -0.062500 0.687500 0.187500
v -0.062500 0.000000 0.250000
v -0.125000 0.125000 0.250000
v -0.062500 0.062500 0.250000
v -0.062500 0.125000 0.250000
v -0.125000 0.187500 0.250000
v -0.062500 0.187500 0.250000
v -0.125000 0.250000 0.250000
v -0.062500 0.250000 0.250000
v -0.125000 0.312500 0.250000
v -0.062500 0.312500 0.250000
v -0.125000 0.375000 0.250000
v -0.062500 0.375000 0.250000
v -0.125000 0.000000 0.312500
v -0.125000 0.062500 0.312500
v -0.062500 0.000000 0.312500
v -0.062500 0.062500 0.312500
v -0.062500 0.062500 -0.312500
v -0.062500 0.000000 -0.312500
v 0.000000 0.062500 -0.312500
v 0.000000 0.000000 -0.312500
v 0.000000 0.000000 -0.250000
v 0.000000 0.062500 -0.250000
v 0.000000 0.000000 -0.187500
v -0.062500 0.125000 -0.250000
v 0.000000 0.125000 -0.250000
v -0.062500 0.187500 -0.250000
v 0.000000 0.187500 -0.250000
v -0.062500 0.250000 -0.250000
v 0.000000 0.250000 -0.250000
v -0.062500 0.312500 -0.250000
v 0.000000 0.312500 -0.250000
v -0.062500 0.375000 -0.250000
v 0.000000 0.375000 -0.250000
v 0.000000 0.375000 -0.187500
v 0.000000 0.000000 -0.125000
v -0.062500 0.437500 -0.187500
v 0.000000 0.437500 -0.187500
v -0.062500 0.500000 -0.187500
v 0.000000 0.500000 -0.187500
v -0.062500 0.562500 -0.187500
v 0.000000 0.562500 -0.187500
v -0.062500 0.625000 -0.187500
v 0.000000 0.625000 -0.187500
v -0.062500 0.687500 -0.187500
v 0.000000 0.687500 -0.187500
v 0.000000 0.687500 -0.125000
v 0.000000 0.000000 -0.062500
v -0.062500 0.750000 -0.125000
v 0.000000 0.750000 -0.125000
v -0.062500 0.812500 -0.125000
v 0.000000 0.812500 -0.125000
v -0.062500 0.875000 -0.125000
v 0.000000 0.875000 -0.125000
v -0.062500 0.937500 -0.125000
v 0.000000 0.937500 -0.125000
v -0.062500 1.000000 -0.125000
v 0.000000 1.000000 -0.125000
v 0.000000 1.000000 -0.062500
v 0.000000 0.000000 0.000000
v -0.062500 1.062500 -0.062500
v 0.000000 1.062500 -0.062500
v -0.062500 1.125000 -0.062500
v 0.000000 1.125000 -0.062500
v -0.062500 1.187500 -0.062500
v 0.000000 1.187500 -0.062500
v -0.062500 1.250000 -0.062500
v 0.000000 1.250000 -0.062500
v -0.062500 1.312500 -0.062500
v 0.000000 1.312500 -0.062500
v 0.000000 1.312500 0.000000
v 0.000000 0.000000 0.062500
v -0.062500 1.375000 0.062500
v -0.062500 1.375000 0.000000
v 0.000000 1.375000 0.000000
v 0.000000 1.312500 0.062500
v 0.000000 1.375000 0.062500
v -0.062500 1.437500 0.062500
v -0.062500 1.437500 0.000000
v 0.000000 1.437500 0.000000
v 0.000000 1.437500 0.062500
v -0.062500 1.500000 0.062500
v -0.062500 1.500000 0.000000
v 0.000000 1.500000 0.000000
v 0.000000 1.500000 0.062500
v -0.062500 1.562500 0.062500
v -0.062500 1.562500 0.000000
v 0.000000 1.562500 0.000000
v 0.000000 1.562500 0.062500
v -0.062500 1.625000 0.062500
v -0.062500 1.625000 0.000000
v 0.000000 1.625000 0.000000
v 0.000000 1.625000 0.062500
v 0.000000 0.000000 0.125000
v -0.062500 1.062500 0.125000
v 0.000000 1.000000 0.125000
v 0.000000 1.062500 0.125000
v -0.062500 1.125000 0.125000
v 0.000000 1.125000 0.125000
v -0.062500 1.187500 0.125000
v 0.000000 1.187500 0.125000
v -0.062500 1.250000 0.125000
v 0.000000 1.250000 0.125000
v -0.062500 1.312500 0.125000
v 0.000000 1.312500 0.125000
v 0.000000 0.000000 0.187500
v -0.062500 0.750000 0.187500
v 0.000000 0.687500 0.187500
v 0.000000 0.750000 0.187500
v -0.062500 0.812500 0.187500
v 0.000000 0.812500 0.187500
v -0.062500 0.875000 0.187500
v 0.000000 0.875000 0.187500
v -0.062500 0.937500 0.187500
v 0.000000 0.937500 0.187500
v -0.062500 1.000000 0.187500
v 0.000000 1.000000 0.187500
v 0.000000 0.000000 0.250000
v -0.062500 0.437500 0.250000
v 0.000000 0.375000 0.250000
v 0.000000 0.437500 0.250000
v -0.062500 0.500000 0.250000
v 0.000000 0.500000 0.250000
v -0.062500 0.562500 0.250000
v 0.000000 0.562500 0.250000
v -0.062500 0.625000 0.250000
v 0.000000 0.625000 0.250000
v -0.062500 0.687500 0.250000
v 0.000000 0.687500 0.250000
v 0.000000 0.000000 0.312500
v -0.062500 0.125000 0.312500
v 0.000000 0.062500 0.312500
v 0.000000 0.125000 0.312500
v -0.062500 0.187500 0.312500
v 0.000000 0.187500 0.312500
v -0.062500 0.250000 0.312500
v 0.000000 0.250000 0.312500
v -0.062500 0.312500 0.312500
v 0.000000 0.312500 0.312500
v -0.062500 0.375000 0.312500
v 0.000000 0.375000 0.312500
v -0.062500 0.000000 0.375000
v -0.062500 0.062500 0.375000
v 0.000000 0.000000 0.375000
v 0.000000 0.062500 0.375000
v 0.000000 0.062500 -0.375000
v 0.000000 0.000000 -0.375000
v 0.062500 0.062500 -0.375000
v 0.062500 0.062500 -0.312500
v 0.062500 0.000000 -0.312500
v 0.062500 0.000000 -0.375000
v 0.062500 0.000000 -0.250000
v 0.062500 0.062500 -0.250000
v 0.000000 0.250000 -0.312500
v 0.000000 0.187500 -0.312500
v 0.062500 0.250000 -0.312500
v 0.062500 0.250000 -0.250000
v 0.062500 0.187500 -0.250000
v 0.062500 0.187500 -0.312500
v 0.000000 0.312500 -0.312500
v 0.062500 0.312500 -0.312500
v 0.062500 0.312500 -0.250000
v 0.000000 0.375000 -0.312500
v 0.062500 0.375000 -0.312500
v 0.062500 0.375000 -0.250000
v 0.062500 0.000000 -0.187500
v 0.062500 0.125000 -0.250000
v 0.000000 0.437500 -0.250000
v 0.062500 0.437500 -0.250000
v 0.062500 0.437500 -0.187500
v 0.062500 0.375000 -0.187500
v 0.000000 0.500000 -0.250000
v 0.062500 0.500000 -0.250000
v 0.062500 0.500000 -0.187500
v 0.000000 0.562500 -0.250000
v 0.062500 0.562500 -0.250000
v 0.062500 0.562500 -0.187500
v 0.000000 0.625000 -0.250000
v 0.062500 0.625000 -0.250000
v 0.062500 0.625000 -0.187500
v 0.000000 0.687500 -0.250000
v 0.062500 0.687500 -0.250000
v 0.062500 0.687500 -0.187500
v 0.062500 0.000000 -0.125000
v 0.000000 0.750000 -0.187500
v 0.062500 0.750000 -0.187500
v 0.062500 0.750000 -0.125000
v 0.062500 0.687500 -0.125000
v 0.000000 0.812500 -0.187500
v 0.062500 0.812500 -0.187500
v 0.062500 0.812500 -0.125000
v 0.000000 0.875000 -0.187500
v 0.062500 0.875000 -0.187500
v 0.062500 0.875000 -0.125000
v 0.000000 0.937500 -0.187500
v 0.062500 0.937500 -0.187500
v 0.062500 0.937500 -0.125000
v 0.000000 1.000000 -0.187500
v 0.062500 1.000000 -0.187500
v 0.062500 1.000000 -0.125000
v 0.062500 0.000000 -0.062500
v 0.000000 1.062500 -0.125000
v 0.062500 1.062500 -0.125000
v 0.062500 1.062500 -0.062500
v 0.062500 1.000000 -0.062500
v 0.000000 1.125000 -0.125000
v 0.062500 1.125000 -0.125000
v 0.062500 1.125000 -0.062500
v 0.000000 1.187500 -0.125000
v 0.062500 1.187500 -0.125000
v 0.062500 1.187500 -0.062500
v 0.000000 1.250000 -0.125000
v 0.062500 1.250000 -0.125000
v 0.062500 1.250000 -0.062500
v 0.000000 1.312500 -0.125000
v 0.062500 1.312500 -0.125000
v 0.062500 1.312500 -0.062500
v 0.062500 0.000000 0.000000
v 0.000000 1.375000 -0.062500
v 0.062500 1.375000 -0.062500
v 0.062500 1.375000 0.000000
v 0.062500 1.312500 0.000000
v 0.000000 1.437500 -0.062500
v 0.062500 1.437500 -0.062500
v 0.062500 1.437500 0.000000
v 0.000000 1.500000 -0.062500
v 0.062500 1.500000 -0.062500
v 0.062500 1.500000 0.000000
v 0.000000 1.562500 -0.062500
v 0.062500 1.562500 -0.062500
v 0.062500 1.562500 0.000000
v 0.000000 1.625000 -0.062500
v 0.062500 1.625000 -0.062500
v 0.062500 1.625000 0.000000
v 0.062500 0.000000 0.062500
v 0.000000 1.687500 0.062500
v 0.000000 1.687500 0.000000
v 0.062500 1.687500 0.000000
v 0.062500 1.687500 0.062500
v 0.062500 1.625000 0.062500
v 0.000000 1.750000 0.062500
v 0.000000 1.750000 0.000000
v 0.062500 1.750000 0.000000
v 0.062500 1.750000 0.062500
v 0.000000 1.812500 0.062500
v 0.000000 1.812500 0.000000
v 0.062500 1.812500 0.000000
v 0.062500 1.812500 0.062500
v 0.000000 1.875000 0.062500
v 0.000000 1.875000 0.000000
v 0.062500 1.875000 0.000000
v 0.062500 1.875000 0.062500
v 0.000000 1.937500 0.062500
v 0.000000 1.937500 0.000000
v 0.062500 1.937500 0.000000
v 0.062500 1.937500 0.062500
v 0.000000 2.000000 0.062500
v 0.000000 2.000000 0.000000
v 0.062500 2.000000 0.000000
v 0.062500 2.000000 0.062500
v 0.062500 0.000000 0.125000
v 0.000000 1.375000 0.125000
v 0.062500 1.375000 0.062500
v 0.062500 1.375000 0.125000
v 0.062500 1.312500 0.125000
v 0.062500 1.312500 0.062500
v 0.000000 1.437500 0.125000
v 0.062500 1.437500 0.062500
v 0.062500 1.437500 0.125000
v 0.000000 1.500000 0.125000
v 0.062500 1.500000 0.062500
v 0.062500 1.500000 0.125000
v 0.000000 1.562500 0.125000
v 0.062500 1.562500 0.062500
v 0.062500 1.562500 0.125000
v 0.000000 1.625000 0.125000
v 0.062500 1.625000 0.125000
v 0.062500 0.000000 0.187500
v 0.000000 1.062500 0.187500
v 0.062500 1.062500 0.125000
v 0.062500 1.062500 0.187500
v 0.062500 1.000000 0.187500
v 0.062500 1.000000 0.125000
v 0.000000 1.125000 0.187500
v 0.062500 1.125000 0.125000
v 0.062500 1.125000 0.187500
v 0.000000 1.187500 0.187500
v 0.062500 1.187500 0.125000
v 0.062500 1.187500 0.187500
v 0.000000 1.250000 0.187500
v 0.062500 1.250000 0.125000
v 0.062500 1.250000 0.187500
v 0.000000 1.312500 0.187500
v 0.062500 1.312500 0.187500
v 0.062500 0.000000 0.250000
v 0.000000 0.750000 0.250000
v 0.062500 0.750000 0.187500
v 0.062500 0.750000 0.250000
v 0.062500 0.687500 0.250000
v 0.062500 0.687500 0.187500
v 0.000000 0.812500 0.250000
v 0.062500 0.812500 0.187500
v 0.062500 0.812500 0.250000
v 0.000000 0.875000 0.250000
v 0.062500 0.875000 0.187500
v 0.062500 0.875000 0.250000
v 0.000000 0.937500 0.250000
v 0.062500 0.937500 0.187500
v 0.062500 0.937500 0.250000
v 0.000000 1.000000 0.250000
v 0.062500 1.000000 0.250000
v 0.062500 0.000000 0.312500
v 0.000000 0.437500 0.312500
v 0.062500 0.437500 0.250000
v 0.062500 0.437500 0.312500
v 0.062500 0.375000 0.312500
v 0.062500 0.375000 0.250000
v 0.000000 0.500000 0.312500
v 0.062500 0.500000 0.250000
v 0.062500 0.500000 0.312500
v 0.000000 0.562500 0.312500
v 0.062500 0.562500 0.250000
v 0.062500 0.562500 0.312500
v 0.000000 0.625000 0.312500
v 0.062500 0.625000 0.250000
v 0.062500 0.625000 0.312500
v 0.000000 0.687500 0.312500
v 0.062500 0.687500 0.312500
v 0.062500 0.000000 0.375000
v 0.000000 0.125000 0.375000
v 0.062500 0.125000 0.312500
v 0.062500 0.125000 0.375000
v 0.062500 0.062500 0.375000
v 0.062500 0.062500 0.312500
v 0.000000 0.187500 0.375000
v 0.062500 0.187500 0.312500
v 0.062500 0.187500 0.375000
v 0.000000 0.250000 0.375000
v 0.062500 0.250000 0.312500
v 0.062500 0.250000 0.375000
v 0.000000 0.312500 0.375000
v 0.062500 0.312500 0.312500
v 0.062500 0.312500 0.375000
v 0.000000 0.375000 0.375000
v 0.062500 0.375000 0.375000
v 0.000000 0.000000 0.437500
v 0.000000 0.062500 0.437500
v 0.062500 0.062500 0.437500
v 0.062500 0.000000 0.437500
v 0.125000 0.062500 -0.312500
v 0.125000 0.062500 -0.250000
v 0.125000 0.000000 -0.250000
v 0.125000 0.000000 -0.312500
v 0.125000 0.000000 -0.187500
v 0.125000 0.125000 -0.250000
v 0.125000 0.125000 -0.187500
v 0.125000 0.062500 -0.187500
v 0.125000 0.187500 -0.250000
v 0.125000 0.187500 -0.187500
v 0.125000 0.250000 -0.250000
v 0.125000 0.250000 -0.187500
v 0.125000 0.312500 -0.250000
v 0.125000 0.312500 -0.187500
v 0.125000 0.375000 -0.250000
v 0.125000 0.375000 -0.187500
v 0.125000 0.000000 -0.125000
v 0.125000 0.437500 -0.187500
v 0.125000 0.437500 -0.125000
v 0.125000 0.375000 -0.125000
v 0.125000 0.500000 -0.187500
v 0.125000 0.500000 -0.125000
v 0.125000 0.562500 -0.187500
v 0.125000 0.562500 -0.125000
v 0.125000 0.625000 -0.187500
v 0.125000 0.625000 -0.125000
v 0.125000 0.687500 -0.187500
v 0.125000 0.687500 -0.125000
v 0.125000 0.000000 -0.062500
v 0.125000 0.750000 -0.125000
v 0.125000 0.750000 -0.062500
v 0.125000 0.687500 -0.062500
v 0.125000 0.812500 -0.125000
v 0.125000 0.812500 -0.062500
v 0.125000 0.875000 -0.125000
v 0.125000 0.875000 -0.062500
v 0.125000 0.937500 -0.125000
v 0.125000 0.937500 -0.062500
v 0.125000 1.000000 -0.125000
v 0.125000 1.000000 -0.062500
v 0.125000 0.000000 0.000000
v 0.125000 1.062500 -0.062500
v 0.125000 1.062500 0.000000
v 0.125000 1.000000 0.000000
v 0.125000 1.125000 -0.062500
v 0.125000 1.125000 0.000000
v 0.125000 1.187500 -0.062500
v 0.125000 1.187500 0.000000
v 0.125000 1.250000 -0.062500
v 0.125000 1.250000 0.000000
v 0.125000 1.312500 -0.062500
v 0.125000 1.312500 0.000000
v 0.125000 0.000000 0.062500
v 0.125000 1.375000 0.000000
v 0.125000 1.375000 0.062500
v 0.125000 1.312500 0.062500
v 0.125000 1.437500 0.000000
v 0.125000 1.437500 0.062500
v 0.125000 1.500000 0.000000
v 0.125000 1.500000 0.062500
v 0.125000 1.562500 0.000000
v 0.125000 1.562500 0.062500
v 0.125000 1.625000 0.000000
v 0.125000 1.625000 0.062500
v 0.125000 0.000000 0.125000
v 0.125000 1.062500 0.062500
v 0.125000 1.062500 0.125000
v 0.125000 1.000000 0.125000
v 0.125000 1.000000 0.062500
v 0.125000 1.125000 0.062500
v 0.125000 1.125000 0.125000
v 0.125000 1.187500 0.062500
v 0.125000 1.187500 0.125000
v 0.125000 1.250000 0.062500
v 0.125000 1.250000 0.125000
v 0.125000 1.312500 0.125000
v 0.125000 0.000000 0.187500
v 0.125000 0.750000 0.125000
v 0.125000 0.750000 0.187500
v 0.125000 0.687500 0.187500
v 0.125000 0.687500 0.125000
v 0.125000 0.812500 0.125000
v 0.125000 0.812500 0.187500
v 0.125000 0.875000 0.125000
v 0.125000 0.875000 0.187500
v 0.125000 0.937500 0.125000
v 0.125000 0.937500 0.187500
v 0.125000 1.000000 0.187500
v 0.125000 0.000000 0.250000
v 0.125000 0.437500 0.187500
v 0.125000 0.437500 0.250000
v 0.125000 0.375000 0.250000
v 0.125000 0.375000 0.187500
v 0.125000 0.500000 0.187500
v 0.125000 0.500000 0.250000
v 0.125000 0.562500 0.187500
v 0.125000 0.562500 0.250000
v 0.125000 0.625000 0.187500
v 0.125000 0.625000 0.250000
v 0.125000 0.687500 0.250000
v 0.125000 0.000000 0.312500
v 0.125000 0.125000 0.250000
v 0.125000 0.125000 0.312500
v 0.125000 0.062500 0.312500
v 0.125000 0.062500 0.250000
v 0.125000 0.187500 0.250000
v 0.125000 0.187500 0.312500
v 0.125000 0.250000 0.250000
v 0.125000 0.250000 0.312500
v 0.125000 0.312500 0.250000
v 0.125000 0.312500 0.312500
v 0.125000 0.375000 0.312500
v 0.125000 0.062500 0.375000
v 0.125000 0.000000 0.375000
v 0.187500 0.062500 -0.250000
v 0.187500 0.062500 -0.187500
v 0.187500 0.000000 -0.187500
v 0.187500 0.000000 -0.250000
v 0.187500 0.000000 -0.125000
v 0.187500 0.125000 -0.187500
v 0.187500 0.125000 -0.125000
v 0.187500 0.062500 -0.125000
v 0.187500 0.187500 -0.187500
v 0.187500 0.187500 -0.125000
v 0.187500 0.250000 -0.187500
v 0.187500 0.250000 -0.125000
v 0.187500 0.312500 -0.187500
v 0.187500 0.312500 -0.125000
v 0.187500 0.375000 -0.187500
v 0.187500 0.375000 -0.125000
v 0.187500 0.000000 -0.062500
v 0.187500 0.437500 -0.125000
v 0.187500 0.437500 -0.062500
v 0.187500 0.375000 -0.062500
v 0.187500 0.500000 -0.125000
v 0.187500 0.500000 -0.062500
v 0.187500 0.562500 -0.125000
v 0.187500 0.562500 -0.062500
v 0.187500 0.625000 -0.125000
v 0.187500 0.625000 -0.062500
v 0.187500 0.687500 -0.125000
v 0.187500 0.687500 -0.062500
v 0.187500 0.000000 0.000000
v 0.187500 0.750000 -0.062500
v 0.187500 0.750000 0.000000
v 0.187500 0.687500 0.000000
v 0.187500 0.812500 -0.062500
v 0.187500 0.812500 0.000000
v 0.187500 0.875000 -0.062500
v 0.187500 0.875000 0.000000
v 0.187500 0.937500 -0.062500
v 0.187500 0.937500 0.000000
v 0.187500 1.000000 -0.062500
v 0.187500 1.000000 0.000000
v 0.187500 0.000000 0.062500
v 0.187500 1.062500 0.000000
v 0.187500 1.062500 0.062500
v 0.187500 1.000000 0.062500
v 0.187500 1.125000 0.000000
v 0.187500 1.125000 0.062500
v 0.187500 1.187500 0.000000
v 0.187500 1.187500 0.062500
v 0.187500 1.250000 0.000000
v 0.187500 1.250000 0.062500
v 0.187500 1.312500 0.000000
v 0.187500 1.312500 0.062500
v 0.187500 0.000000 0.125000
v 0.187500 0.750000 0.062500
v 0.187500 0.750000 0.125000
v 0.187500 0.687500 0.125000
v 0.187500 0.687500 0.062500
v 0.187500 0.812500 0.062500
v 0.187500 0.812500 0.125000
v 0.187500 0.875000 0.062500
v 0.187500 0.875000 0.125000
v 0.187500 0.937500 0.062500
v 0.187500 0.937500 0.125000
v 0.187500 1.000000 0.125000
v 0.187500 0.000000 0.187500
v 0.187500 0.437500 0.125000
v 0.187500 0.437500 0.187500
v 0.187500 0.375000 0.187500
v 0.187500 0.375000 0.125000
v 0.187500 0.500000 0.125000
v 0.187500 0.500000 0.187500
v 0.187500 0.562500 0.125000
v 0.187500 0.562500 0.187500
v 0.187500 0.625000 0.125000
v 0.187500 0.625000 0.187500
v 0.187500 0.687500 0.187500
v 0.187500 0.000000 0.250000
v 0.187500 0.125000 0.187500
v 0.187500 0.125000 0.250000
v 0.187500 0.062500 0.250000
v 0.187500 0.062500 0.187500
v 0.187500 0.187500 0.187500
v 0.187500 0.187500 0.250000
v 0.187500 0.250000 0.187500
v 0.187500 0.250000 0.250000
v 0.187500 0.312500 0.187500
v 0.187500 0.312500 0.250000
v 0.187500 0.375000 0.250000
v 0.187500 0.062500 0.312500
v 0.187500 0.000000 0.312500
v 0.250000 0.062500 -0.187500
v 0.250000 0.062500 -0.125000
v 0.250000 0.000000 -0.125000
v 0.250000 0.000000 -0.187500
v 0.250000 0.000000 -0.062500
v 0.250000 0.125000 -0.125000
v 0.250000 0.125000 -0.062500
v 0.250000 0.062500 -0.062500
v 0.250000 0.187500 -0.125000
v 0.250000 0.187500 -0.062500
v 0.250000 0.250000 -0.125000
v 0.250000 0.250000 -0.062500
v 0.250000 0.312500 -0.125000
v 0.250000 0.312500 -0.062500
v 0.250000 0.375000 -0.125000
v 0.250000 0.375000 -0.062500
v 0.250000 0.000000 0.000000
v 0.250000 0.437500 -0.062500
v 0.250000 0.437500 0.000000
v 0.250000 0.375000 0.000000
v 0.250000 0.500000 -0.062500
v 0.250000 0.500000 0.000000
v 0.250000 0.562500 -0.062500
v 0.250000 0.562500 0.000000
v 0.250000 0.625000 -0.062500
v 0.250000 0.625000 0.000000
v 0.250000 0.687500 -0.062500
v 0.250000 0.687500 0.000000
v 0.250000 0.000000 0.062500
v 0.250000 0.750000 0.000000
v 0.250000 0.750000 0.062500
v 0.250000 0.687500 0.062500
v 0.250000 0.812500 0.000000
v 0.250000 0.812500 0.062500
v 0.250000 0.875000 0.000000
v 0.250000 0.875000 0.062500
v 0.250000 0.937500 0.000000
v 0.250000 0.937500 0.062500
v 0.250000 1.000000 0.000000
v 0.250000 1.000000 0.062500
v 0.250000 0.000000 0.125000
v 0.250000 0.437500 0.062500
v 0.250000 0.437500 0.125000
v 0.250000 0.375000 0.125000
v 0.250000 0.375000 0.062500
v 0.250000 0.500000 0.062500
v 0.250000 0.500000 0.125000
v 0.250000 0.562500 0.062500
v 0.250000 0.562500 0.125000
v 0.250000 0.625000 0.062500
v 0.250000 0.625000 0.125000
v 0.250000 0.687500 0.125000
v 0.250000 0.000000 0.187500
v 0.250000 0.125000 0.125000
v 0.250000 0.125000 0.187500
v 0.250000 0.062500 0.187500
v 0.250000 0.062500 0.125000
v 0.250000 0.187500 0.125000
v 0.250000 0.187500 0.187500
v 0.250000 0.250000 0.125000
v 0.250000 0.250000 0.187500
v 0.250000 0.312500 0.125000
v 0.250000 0.312500 0.187500
v 0.250000 0.375000 0.187500
v 0.250000 0.062500 0.250000
v 0.250000 0.000000 0.250000
v 0.312500 0.062500 -0.125000
v 0.312500 0.062500 -0.062500
v 0.312500 0.000000 -0.062500
v 0.312500 0.000000 -0.125000
v 0.312500 0.000000 0.000000
v 0.312500 0.125000 -0.062500
v 0.312500 0.125000 0.000000
v 0.312500 0.062500 0.000000
v 0.312500 0.187500 -0.062500
v 0.312500 0.187500 0.000000
v 0.312500 0.250000 -0.062500
v 0.312500 0.250000 0.000000
v 0.312500 0.312500 -0.062500
v 0.312500 0.312500 0.000000
v 0.312500 0.375000 -0.062500
v 0.312500 0.375000 0.000000
v 0.312500 0.000000 0.062500
v 0.312500 0.437500 0.000000
v 0.312500 0.437500 0.062500
v 0.312500 0.375000 0.062500
v 0.312500 0.500000 0.000000
v 0.312500 0.500000 0.062500
v 0.312500 0.562500 0.000000
v 0.312500 0.562500 0.062500
v 0.312500 0.625000 0.000000
v 0.312500 0.625000 0.062500
v 0.312500 0.687500 0.000000
v 0.312500 0.687500 0.062500
v 0.312500 0.000000 0.125000
v 0.312500 0.125000 0.062500
v 0.312500 0.125000 0.125000
v 0.312500 0.062500 0.125000
v 0.312500 0.062500 0.062500
v 0.312500 0.187500 0.062500
v 0.312500 0.187500 0.125000
v 0.312500 0.250000 0.062500
v 0.312500 0.250000 0.125000
v 0.312500 0.312500 0.062500
v 0.312500 0.312500 0.125000
v 0.312500 0.375000 0.125000
v 0.312500 0.062500 0.187500
v 0.312500 0.000000 0.187500
v 0.375000 0.062500 -0.062500
v 0.375000 0.062500 0.000000
v 0.375000 0.000000 0.000000
v 0.375000 0.000000 -0.062500
v 0.375000 0.000000 0.062500
v 0.375000 0.125000 0.000000
v 0.375000 0.125000 0.062500
v 0.375000 0.062500 0.062500
v 0.375000 0.187500 0.000000
v 0.375000 0.187500 0.062500
v 0.375000 0.250000 0.000000
v 0.375000 0.250000 0.062500
v 0.375000 0.312500 0.000000
v 0.375000 0.312500 0.062500
v 0.375000 0.375000 0.000000
v 0.375000 0.375000 0.062500
v 0.375000 0.062500 0.125000
v 0.375000 0.000000 0.125000
v 0.437500 0.062500 0.000000
v 0.437500 0.062500 0.062500
v 0.437500 0.000000 0.062500
v 0.437500 0.000000 0.000000
vt 0.03125000 0.96875000
vt 0.09375000 0.96875000
vt 0.15625000 0.96875000
vt 0.21875000 0.96875000
vt 0.28125000 0.96875000
vt 0.34375000 0.96875000
vt 0.40625000 0.96875000
vt 0.46875000 0.96875000
vt 0.53125000 0.96875000
vt 0.59375000 0.96875000
vt 0.65625000 0.96875000
vt 0.71875000 0.96875000
vt 0.78125000 0.96875000
vt 0.84375000 0.96875000
vt 0.90625000 0.96875000
vt 0.96875000 0.96875000
vt 0.03125000 0.90625000
vt 0.09375000 0.90625000
vt 0.15625000 0.90625000
vt 0.21875000 0.90625000
vt 0.28125000 0.90625000
vt 0.34375000 0.90625000
vt 0.40625000 0.90625000
vt 0.46875000 0.90625000
vt 0.53125000 0.90625000
vt 0.59375000 0.90625000
vt 0.65625000 0.90625000
vt 0.71875000 0.90625000
vt 0.78125000 0.90625000
vt 0.84375000 0.90625000
vt 0.90625000 0.90625000
vt 0.96875000 0.90625000
vt 0.03125000 0.84375000
vt 0.09375000 0.84375000
vt 0.15625000 0.84375000
vt 0.21875000 0.84375000
vt 0.28125000 0.84375000
vt 0.34375000 0.84375000
vt 0.40625000 0.84375000
vt 0.46875000 0.84375000
vt 0.53125000 0.84375000
vt 0.59375000 0.84375000
vt 0.65625000 0.84375000
vt 0.71875000 0.84375000
vt 0.78125000 0.84375000
vt 0.84375000 0.84375000
vt 0.90625000 0.84375000
vt 0.96875000 0.84375000
vt 0.03125000 0.78125000
vt 0.09375000 0.78125000
vt 0.15625000 0.78125000
vt 0.21875000 0.78125000
vt 0.28125000 0.78125000
vt 0.34375000 0.78125000
vt 0.40625000 0.78125000
vt 0.46875000 0.78125000
vt 0.53125000 0.78125000
vt 0.59375000 0.78125000
vt 0.65625000 0.78125000
vt 0.71875000 0.78125000
vt 0.78125000 0.78125000
vt 0.84375000 0.78125000
vt 0.90625000 0.78125000
vt 0.96875000 0.78125000
vt 0.03125000 0.71875000
vt 0.09375000 0.71875000
vt 0.15625000 0.71875000
vt 0.21875000 0.71875000
vt 0.28125000 0.71875000
vt 0.34375000 0.71875000
vt 0.40625000 0.71875000
vt 0.46875000 0.71875000
vt 0.53125000 0.71875000
vt 0.59375000 0.71875000
vt 0.65625000 0.71875000
vt 0.71875000 0.71875000
vt 0.78125000 0.71875000
vt 0.84375000 0.71875000
vt 0.90625000 0.71875000
vt 0.96875000 0.71875000
vt 0.03125000 0.65625000
vt 0.09375000 0.65625000
vt 0.15625000 0.65625000
vt 0.21875000 0.65625000
vt 0.28125000 0.65625000
vt 0.34375000 0.65625000
vt 0.40625000 0.65625000
vt 0.46875000 0.65625000
vt 0.53125000 0.65625000
vt 0.59375000 0.65625000
vt 0.65625000 0.65625000
vt 0.71875000 0.65625000
vt 0.78125000 0.65625000
vt 0.84375000 0.65625000
vt 0.90625000 0.65625000
vt 0.96875000 0.65625000
vt 0.03125000 0.59375000
vt 0.09375000 0.59375000
vt 0.15625000 0.59375000
vt 0.21875000 0.59375000
vt 0.28125000 0.59375000
vt 0.34375000 0.59375000
vt 0.40625000 0.59375000
vt 0.46875000 0.59375000
vt 0.53125000 0.59375000
vt 0.59375000 0.59375000
vt 0.65625000 0.59375000
vt 0.71875000 0.59375000
vt 0.78125000 0.59375000
vt 0.84375000 0.59375000
vt 0.90625000 0.59375000
vt 0.96875000 0.59375000
vt 0.03125000 0.53125000
vt 0.09375000 0.53125000
vt 0.15625000 0.53125000
vt 0.21875000 0.53125000
vt 0.28125000 0.53125000
vt 0.34375000 0.53125000
vt 0.40625000 0.53125000
vt 0.46875000 0.53125000
vt 0.53125000 0.53125000
vt 0.59375000 0.53125000
vt 0.65625000 0.53125000
vt 0.71875000 0.53125000
vt 0.78125000 0.53125000
vt 0.84375000 0.53125000
vt 0.90625000 0.53125000
vt 0.96875000 0.53125000
vt 0.03125000 0.46875000
vt 0.09375000 0.46875000
vt 0.15625000 0.46875000
vt 0.21875000 0.46875000
vt 0.28125000 0.46875000
vt 0.34375000 0.46875000
vt 0.40625000 0.46875000
vt 0.46875000 0.46875000
vt 0.53125000 0.46875000
vt 0.59375000 0.46875000
vt 0.65625000 0.46875000
vt 0.71875000 0.46875000
vt 0.78125000 0.46875000
vt 0.84375000 0.46875000
vt 0.90625000 0.46875000
vt 0.96875000 0.46875000
vt 0.03125000 0.40625000
vt 0.09375000 0.40625000
vt 0.15625000 0.40625000
vt 0.21875000 0.40625000
vt 0.28125000 0.40625000
vt 0.34375000 0.40625000
vt 0.40625000 0.40625000
vt 0.46875000 0.40625000
vt 0.53125000 0.40625000
vt 0.59375000 0.40625000
vt 0.65625000 0.40625000
vt 0.71875000 0.40625000
vt 0.78125000 0.40625000
vt 0.84375000 0.40625000
vt 0.90625000 0.40625000
vt 0.96875000 0.40625000
vt 0.03125000 0.34375000
vt 0.09375000 0.34375000
vt 0.15625000 0.34375000
vt 0.21875000 0.34375000
vt 0.28125000 0.34375000
vt 0.34375000 0.34375000
vt 0.40625000 0.34375000
vt 0.46875000 0.34375000
vt 0.53125000 0.34375000
vt 0.59375000 0.34375000
vt 0.65625000 0.34375000
vt 0.71875000 0.34375000
vt 0.78125000 0.34375000
vt 0.84375000 0.34375000
vt 0.90625000 0.34375000
vt 0.96875000 0.34375000
vt 0.03125000 0.28125000
vt 0.09375000 0.28125000
vt 0.15625000 0.28125000
vt 0.21875000 0.28125000
vt 0.28125000 0.28125000
vt 0.34375000 0.28125000
vt 0.40625000 0.28125000
vt 0.46875000 0.28125000
vt 0.53125000 0.28125000
vt 0.59375000 0.28125000
vt 0.65625000 0.28125000
vt 0.71875000 0.28125000
vt 0.78125000 0.28125000
vt 0.84375000 0.28125000
vt 0.90625000 0.28125000
vt 0.96875000 0.28125000
vt 0.03125000 0.21875000
vt 0.09375000 0.21875000
vt 0.15625000 0.21875000
vt 0.21875000 0.21875000
vt 0.28125000 0.21875000
vt 0.34375000 0.21875000
vt 0.40625000 0.21875000
vt 0.46875000 0.21875000
vt 0.53125000 0.21875000
vt 0.59375000 0.21875000
vt 0.65625000 0.21875000
vt 0.71875000 0.21875000
vt 0.78125000 0.21875000
vt 0.84375000 0.21875000
vt 0.90625000 0.21875000
vt 0.96875000 0.21875000
vt 0.03125000 0.15625000
vt 0.09375000 0.15625000
vt 0.15625000 0.15625000
vt 0.21875000 0.15625000
vt 0.28125000 0.15625000
vt 0.34375000 0.15625000
vt 0.40625000 0.15625000
vt 0.46875000 0.15625000
vt 0.53125000 0.15625000
vt 0.59375000 0.15625000
vt 0.65625000 0.15625000
vt 0.71875000 0.15625000
vt 0.78125000 0.15625000
vt 0.84375000 0.15625000
vt 0.90625000 0.15625000
vt 0.96875000 0.15625000
vt 0.03125000 0.09375000
vt 0.09375000 0.09375000
vt 0.15625000 0.09375000
vt 0.21875000 0.09375000
vt 0.28125000 0.09375000
vt 0.34375000 0.09375000
vt 0.40625000 0.09375000
vt 0.46875000 0.09375000
vt 0.53125000 0.09375000
vt 0.59375000 0.09375000
vt 0.65625000 0.09375000
vt 0.71875000 0.09375000
vt 0.78125000 0.09375000
vt 0.84375000 0.09375000
vt 0.90625000 0.09375000
vt 0.96875000 0.09375000
vt 0.03125000 0.03125000
vt 0.09375000 0.03125000
vt 0.15625000 0.03125000
vt 0.21875000 0.03125000
vt 0.28125000 0.03125000
vt 0.34375000 0.03125000
vt 0.40625000 0.03125000
vt 0.46875000 0.03125000
vt 0.53125000 0.03125000
vt 0.59375000 0.03125000
vt 0.65625000 0.03125000
vt 0.71875000 0.03125000
vt 0.78125000 0.03125000
vt 0.84375000 0.03125000
vt 0.90625000 0.03125000
vt 0.96875000 0.03125000
vn -1 0 0
vn 1 0 0
vn 0 0 -1
vn 0 0 1
vn 0 -1 0
vn 0 1 0
g palette
usemtl palette
f 1/11/1 2/11/1 3/11/1 4/11/1
f 3/11/3 5/11/3 6/11/3 4/11/3
f 7/11/4 8/11/4 2/11/4 1/11/4
f 6/11/5 7/11/5 1/11/5 4/11/5
f 2/11/6 8/11/6 5/11/6 3/11/6
f 6/11/1 5/11/1 9/11/1 10/11/1
f 9/11/3 11/11/3 12/11/3 10/11/3
f 12/11/5 13/11/5 6/11/5 10/11/5
f 5/11/6 14/11/6 11/11/6 9/11/6
f 13/11/5 15/11/5 7/11/5 6/11/5
f 8/11/1 16/11/1 17/11/1 5/11/1
f 17/11/3 18/11/3 14/11/3 5/11/3
f 19/11/4 20/11/4 16/11/4 8/11/4
f 16/11/1 21/11/1 22/11/1 17/11/1
f 22/11/3 23/11/3 18/11/3 17/11/3
f 20/11/4 24/11/4 21/11/4 16/11/4
f 21/11/6 24/11/6 23/11/6 22/11/6
f 25/11/1 26/11/1 8/11/1 7/11/1
f 27/11/4 28/11/4 26/11/4 25/11/4
f 15/11/5 27/11/5 25/11/5 7/11/5
f 26/11/6 28/11/6 19/11/6 8/11/6
f 29/11/1 30/11/1 31/11/1 32/11/1
f 31/11/3 33/11/3 34/11/3 32/11/3
f 35/11/4 36/11/4 30/11/4 29/11/4
f 34/11/5 35/11/5 29/11/5 32/11/5
f 30/11/6 36/11/6 33/11/6 31/11/6
f 12/11/1 11/11/1 37/11/1 38/11/1
f 37/11/3 39/11/3 40/11/3 38/11/3
f 40/11/5 41/11/5 12/11/5 38/11/5
f 11/11/6 42/11/6 39/11/6 37/11/6
f 41/11/5 43/11/5 13/11/5 12/11/5
f 14/11/1 18/11/1 44/11/1 11/11/1
f 44/11/3 45/11/3 42/11/3 11/11/3
f 18/11/1 23/11/1 46/11/1 44/11/1
f 46/11/3 47/11/3 45/11/3 44/11/3
f 23/11/6 48/11/6 47/11/6 46/11/6
f 43/11/5 49/11/5 15/11/5 13/11/5
f 24/11/1 50/11/1 51/11/1 23/11/1
f 51/11/3 52/11/3 48/11/3 23/11/3
f 53/11/4 54/11/4 50/11/4 24/11/4
f 50/11/1 55/11/1 56/11/1 51/11/1
f 56/11/3 57/11/3 52/11/3 51/11/3
f 54/11/4 58/11/4 55/11/4 50/11/4
f 55/11/1 59/11/1 60/11/1 56/11/1
f 60/11/3 61/11/3 57/11/3 56/11/3
f 58/11/4 62/11/4 59/11/4 55/11/4
f 59/11/6 62/11/6 61/11/6 60/11/6
f 49/11/5 63/11/5 27/11/5 15/11/5
f 28/11/1 64/11/1 20/11/1 19/11/1
f 65/11/4 66/11/4 64/11/4 28/11/4
f 64/11/1 67/11/1 24/11/1 20/11/1
f 66/11/4 68/11/4 67/11/4 64/11/4
f 67/11/6 68/11/6 53/11/6 24/11/6
f 34/11/1 33/11/1 28/11/1 27/11/1
f 63/11/5 69/11/5 34/11/5 27/11/5
f 33/11/6 70/11/6 65/11/6 28/11/6
f 69/11/5 71/11/5 35/11/5 34/11/5
f 36/11/1 72/11/1 73/11/1 33/11/1
f 73/11/3 74/11/3 70/11/3 33/11/3
f 75/11/4 76/11/4 72/11/4 36/11/4
f 72/11/1 77/11/1 78/11/1 73/11/1
f 78/11/3 79/11/3 74/11/3 73/11/3
f 76/11/4 80/11/4 77/11/4 72/11/4
f 77/11/1 81/11/1 82/11/1 78/11/1
f 82/11/3 83/11/3 79/11/3 78/11/3
f 80/11/4 84/11/4 81/11/4 77/11/4
f 81/11/1 85/11/1 86/11/1 82/11/1
f 86/11/3 87/11/3 83/11/3 82/11/3
f 84/11/4 88/11/4 85/11/4 81/11/4
f 85/11/1 89/11/1 90/11/1 86/11/1
f 90/11/3 91/11/3 87/11/3 86/11/3
f 88/11/4 92/11/4 89/11/4 85/11/4
f 89/11/6 92/11/6 91/11/6 90/11/6
f 93/11/1 94/11/1 36/11/1 35/11/1
f 95/11/4 96/11/4 94/11/4 93/11/4
f 71/11/5 95/11/5 93/11/5 35/11/5
f 94/11/6 96/11/6 75/11/6 36/11/6
f 40/4/1 39/4/1 97/4/1 98/4/1
f 99/4/2 100/4/2 101/4/2 102/4/2
f 97/4/3 99/4/3 102/4/3 98/4/3
f 102/4/5 101/4/5 40/4/5 98/4/5
f 39/4/6 100/4/6 99/4/6 97/4/6
f 101/4/5 103/4/5 41/4/5 40/4/5
f 42/4/1 45/4/1 104/4/1 39/4/1
f 105/4/2 106/4/2 107/4/2 100/4/2
f 104/4/3 105/4/3 100/4/3 39/4/3
f 45/4/1 47/4/1 108/4/1 104/4/1
f 109/4/2 110/4/2 106/4/2 105/4/2
f 108/4/3 109/4/3 105/4/3 104/4/3
f 47/4/6 110/4/6 109/4/6 108/4/6
f 103/4/5 111/4/5 43/4/5 41/4/5
f 48/4/1 52/4/1 112/4/1 47/4/1
f 113/4/2 114/4/2 115/4/2 110/4/2
f 112/4/3 113/4/3 110/4/3 47/4/3
f 52/4/1 57/4/1 116/4/1 112/4/1
f 117/4/2 118/4/2 114/4/2 113/4/2
f 116/4/3 117/4/3 113/4/3 112/4/3
f 57/4/1 61/4/1 119/4/1 116/4/1
f 120/4/2 121/4/2 118/4/2 117/4/2
f 119/4/3 120/4/3 117/4/3 116/4/3
f 61/4/6 121/4/6 120/4/6 119/4/6
f 111/5/5 122/5/5 49/5/5 43/5/5
f 62/5/1 123/5/1 124/5/1 61/5/1
f 125/5/2 126/5/2 127/5/2 121/5/2
f 124/5/3 125/5/3 121/5/3 61/5/3
f 127/5/4 126/5/4 123/5/4 62/5/4
f 123/5/1 128/5/1 129/5/1 124/5/1
f 130/5/2 131/5/2 126/5/2 125/5/2
f 129/5/3 130/5/3 125/5/3 124/5/3
f 126/5/4 131/5/4 128/5/4 123/5/4
f 128/5/1 132/5/1 133/5/1 129/5/1
f 134/5/2 135/5/2 131/5/2 130/5/2
f 133/5/3 134/5/3 130/5/3 129/5/3
f 131/5/4 135/5/4 132/5/4 128/5/4
f 132/5/6 135/5/6 134/5/6 133/5/6
f 122/5/5 136/5/5 63/5/5 49/5/5
f 68/5/1 137/5/1 54/5/1 53/5/1
f 137/5/1 138/5/1 58/5/1 54/5/1
f 138/5/1 139/5/1 62/5/1 58/5/1
f 139/5/6 140/5/6 127/5/6 62/5/6
f 136/5/5 141/5/5 69/5/5 63/5/5
f 70/5/1 74/5/1 66/5/1 65/5/1
f 74/5/1 79/5/1 68/5/1 66/5/1
f 79/11/1 83/11/1 137/11/1 68/11/1
f 83/11/1 87/11/1 138/11/1 137/11/1
f 87/11/1 91/11/1 139/11/1 138/11/1
f 91/11/6 142/11/6 140/11/6 139/11/6
f 141/5/5 143/5/5 71/5/5 69/5/5
f 92/11/1 144/11/1 145/11/1 91/11/1
f 145/11/3 146/11/3 142/11/3 91/11/3
f 147/11/4 148/11/4 144/11/4 92/11/4
f 144/11/1 149/11/1 150/11/1 145/11/1
f 150/11/3 151/11/3 146/11/3 145/11/3
f 148/11/4 152/11/4 149/11/4 144/11/4
f 149/11/1 153/11/1 154/11/1 150/11/1
f 154/11/3 155/11/3 151/11/3 150/11/3
f 152/11/4 156/11/4 153/11/4 149/11/4
f 153/11/1 157/11/1 158/11/1 154/11/1
f 158/11/3 159/11/3 155/11/3 154/11/3
f 156/11/4 160/11/4 157/11/4 153/11/4
f 157/11/1 161/11/1 162/11/1 158/11/1
f 162/11/3 163/11/3 159/11/3 158/11/3
f 160/11/4 164/11/4 161/11/4 157/11/4
f 161/11/6 164/11/6 163/11/6 162/11/6
f 143/11/5 165/11/5 95/11/5 71/11/5
f 96/11/1 166/11/1 76/11/1 75/11/1
f 167/11/4 168/11/4 166/11/4 96/11/4
f 166/11/1 169/11/1 80/11/1 76/11/1
f 168/11/4 170/11/4 169/11/4 166/11/4
f 169/11/1 171/11/1 84/11/1 80/11/1
f 170/11/4 172/11/4 171/11/4 169/11/4
f 171/11/1 173/11/1 88/11/1 84/11/1
f 172/11/4 174/11/4 173/11/4 171/11/4
f 173/11/1 175/11/1 92/11/1 88/11/1
f 174/11/4 176/11/4 175/11/4 173/11/4
f 175/11/6 176/11/6 147/11/6 92/11/6
f 177/11/1 178/11/1 96/11/1 95/11/1
f 179/11/4 180/11/4 178/11/4 177/11/4
f 165/11/5 179/11/5 177/11/5 95/11/5
f 178/11/6 180/11/6 167/11/6 96/11/6
f 181/4/2 182/4/2 183/4/2 184/4/2
f 100/4/3 181/4/3 184/4/3 101/4/3
f 184/4/5 183/4/5 103/4/5 101/4/5
f 107/4/6 182/4/6 181/4/6 100/4/6
f 183/4/5 185/4/5 111/4/5 103/4/5
f 186/4/2 187/4/2 188/4/2 182/4/2
f 106/4/3 186/4/3 182/4/3 107/4/3
f 189/4/2 190/4/2 187/4/2 186/4/2
f 110/4/3 189/4/3 186/4/3 106/4/3
f 115/4/6 190/4/6 189/4/6 110/4/6
f 185/5/5 191/5/5 122/5/5 111/5/5
f 114/5/3 192/5/3 190/5/3 115/5/3
f 118/5/3 193/5/3 192/5/3 114/5/3
f 121/5/3 194/5/3 193/5/3 118/5/3
f 127/5/6 195/5/6 194/5/6 121/5/6
f 191/5/5 196/5/5 136/5/5 122/5/5
f 140/11/6 197/11/6 195/11/6 127/11/6
f 196/5/5 198/5/5 141/5/5 136/5/5
f 142/11/1 146/11/1 199/11/1 140/11/1
f 199/11/3 200/11/3 197/11/3 140/11/3
f 146/11/1 151/11/1 201/11/1 199/11/1
f 201/11/3 202/11/3 200/11/3 199/11/3
f 151/11/1 155/11/1 203/11/1 201/11/1
f 203/11/3 204/11/3 202/11/3 201/11/3
f 155/11/1 159/11/1 205/11/1 203/11/1
f 205/11/3 206/11/3 204/11/3 203/11/3
f 159/11/1 163/11/1 207/11/1 205/11/1
f 207/11/3 208/11/3 206/11/3 205/11/3
f 163/11/6 209/11/6 208/11/6 207/11/6
f 198/11/5 210/11/5 143/11/5 141/11/5
f 164/11/1 211/11/1 212/11/1 163/11/1
f 212/11/3 213/11/3 209/11/3 163/11/3
f 214/11/4 215/11/4 211/11/4 164/11/4
f 211/11/1 216/11/1 217/11/1 212/11/1
f 217/11/3 218/11/3 213/11/3 212/11/3
f 215/11/4 219/11/4 216/11/4 211/11/4
f 216/11/1 220/11/1 221/11/1 217/11/1
f 221/11/3 222/11/3 218/11/3 217/11/3
f 219/11/4 223/11/4 220/11/4 216/11/4
f 220/11/1 224/11/1 225/11/1 221/11/1
f 225/11/3 226/11/3 222/11/3 221/11/3
f 223/11/4 227/11/4 224/11/4 220/11/4
f 224/11/1 228/11/1 229/11/1 225/11/1
f 229/11/3 230/11/3 226/11/3 225/11/3
f 227/11/4 231/11/4 228/11/4 224/11/4
f 228/11/6 231/11/6 230/11/6 229/11/6
f 210/11/5 232/11/5 165/11/5 143/11/5
f 176/11/1 233/11/1 148/11/1 147/11/1
f 234/11/4 235/11/4 233/11/4 176/11/4
f 233/11/1 236/11/1 152/11/1 148/11/1
f 235/11/4 237/11/4 236/11/4 233/11/4
f 236/5/1 238/5/1 156/5/1 152/5/1
f 237/5/4 239/5/4 238/5/4 236/5/4
f 238/11/1 240/11/1 160/11/1 156/11/1
f 239/11/4 241/11/4 240/11/4 238/11/4
f 240/11/1 242/11/1 164/11/1 160/11/1
f 241/11/4 243/11/4 242/11/4 240/11/4
f 242/11/6 243/11/6 214/11/6 164/11/6
f 232/11/5 244/11/5 179/11/5 165/11/5
f 180/11/1 245/11/1 168/11/1 167/11/1
f 246/11/4 247/11/4 245/11/4 180/11/4
f 245/11/1 248/11/1 170/11/1 168/11/1
f 247/11/4 249/11/4 248/11/4 245/11/4
f 248/11/1 250/11/1 172/11/1 170/11/1
f 249/11/4 251/11/4 250/11/4 248/11/4
f 250/11/1 252/11/1 174/11/1 172/11/1
f 251/11/4 253/11/4 252/11/4 250/11/4
f 252/11/1 254/11/1 176/11/1 174/11/1
f 253/11/4 255/11/4 254/11/4 252/11/4
f 254/11/6 255/11/6 234/11/6 176/11/6
f 256/11/1 257/11/1 180/11/1 179/11/1
f 258/11/4 259/11/4 257/11/4 256/11/4
f 244/11/5 258/11/5 256/11/5 179/11/5
f 257/11/6 259/11/6 246/11/6 180/11/6
f 182/4/3 260/4/3 261/4/3 183/4/3
f 261/4/5 262/4/5 185/4/5 183/4/5
f 188/4/6 263/4/6 260/4/6 182/4/6
f 262/5/5 264/5/5 191/5/5 185/5/5
f 187/5/3 265/5/3 263/5/3 188/5/3
f 190/5/3 266/5/3 265/5/3 187/5/3
f 192/11/3 267/11/3 266/11/3 190/11/3
f 193/11/3 268/11/3 267/11/3 192/11/3
f 194/11/3 269/11/3 268/11/3 193/11/3
f 195/11/6 270/11/6 269/11/6 194/11/6
f 264/5/5 271/5/5 196/5/5 191/5/5
f 197/11/1 200/11/1 272/11/1 195/11/1
f 272/11/3 273/11/3 270/11/3 195/11/3
f 200/11/1 202/11/1 274/11/1 272/11/1
f 274/11/3 275/11/3 273/11/3 272/11/3
f 202/11/1 204/11/1 276/11/1 274/11/1
f 276/11/3 277/11/3 275/11/3 274/11/3
f 204/11/1 206/11/1 278/11/1 276/11/1
f 278/11/3 279/11/3 277/11/3 276/11/3
f 206/11/1 208/11/1 280/11/1 278/11/1
f 280/11/3 281/11/3 279/11/3 278/11/3
f 208/11/6 282/11/6 281/11/6 280/11/6
f 271/11/5 283/11/5 198/11/5 196/11/5
f 209/11/1 213/11/1 284/11/1 208/11/1
f 284/11/3 285/11/3 282/11/3 208/11/3
f 213/11/1 218/11/1 286/11/1 284/11/1
f 286/11/3 287/11/3 285/11/3 284/11/3
f 218/11/1 222/11/1 288/11/1 286/11/1
f 288/11/3 289/11/3 287/11/3 286/11/3
f 222/11/1 226/11/1 290/11/1 288/11/1
f 290/11/3 291/11/3 289/11/3 288/11/3
f 226/11/1 230/11/1 292/11/1 290/11/1
f 292/11/3 293/11/3 291/11/3 290/11/3
f 230/11/6 294/11/6 293/11/6 292/11/6
f 283/11/5 295/11/5 210/11/5 198/11/5
f 231/11/1 296/11/1 297/11/1 230/11/1
f 297/11/3 298/11/3 294/11/3 230/11/3
f 299/11/4 300/11/4 296/11/4 231/11/4
f 296/11/1 301/11/1 302/11/1 297/11/1
f 302/11/3 303/11/3 298/11/3 297/11/3
f 300/11/4 304/11/4 301/11/4 296/11/4
f 301/11/1 305/11/1 306/11/1 302/11/1
f 306/11/3 307/11/3 303/11/3 302/11/3
f 304/11/4 308/11/4 305/11/4 301/11/4
f 305/11/1 309/11/1 310/11/1 306/11/1
f 310/11/3 311/11/3 307/11/3 306/11/3
f 308/11/4 312/11/4 309/11/4 305/11/4
f 309/11/1 313/11/1 314/11/1 310/11/1
f 314/11/3 315/11/3 311/11/3 310/11/3
f 312/11/4 316/11/4 313/11/4 309/11/4
f 313/11/6 316/11/6 315/11/6 314/11/6
f 295/11/5 317/11/5 232/11/5 210/11/5
f 243/11/1 318/11/1 215/11/1 214/11/1
f 319/11/4 320/11/4 318/11/4 243/11/4
f 318/11/1 321/11/1 219/11/1 215/11/1
f 320/11/4 322/11/4 321/11/4 318/11/4
f 321/11/1 323/11/1 223/11/1 219/11/1
f 322/11/4 324/11/4 323/11/4 321/11/4
f 323/11/1 325/11/1 227/11/1 223/11/1
f 324/11/4 326/11/4 325/11/4 323/11/4
f 325/11/1 327/11/1 231/11/1 227/11/1
f 326/11/4 328/11/4 327/11/4 325/11/4
f 327/11/6 328/11/6 299/11/6 231/11/6
f 317/11/5 329/11/5 244/11/5 232/11/5
f 255/11/1 330/11/1 235/11/1 234/11/1
f 331/11/4 332/11/4 330/11/4 255/11/4
f 330/11/1 333/11/1 237/11/1 235/11/1
f 332/11/4 334/11/4 333/11/4 330/11/4
f 333/11/1 335/11/1 239/11/1 237/11/1
f 334/11/4 336/11/4 335/11/4 333/11/4
f 335/11/1 337/11/1 241/11/1 239/11/1
f 336/11/4 338/11/4 337/11/4 335/11/4
f 337/11/1 339/11/1 243/11/1 241/11/1
f 338/11/4 340/11/4 339/11/4 337/11/4
f 339/11/6 340/11/6 319/11/6 243/11/6
f 329/11/5 341/11/5 258/11/5 244/11/5
f 259/11/1 342/11/1 247/11/1 246/11/1
f 343/11/4 344/11/4 342/11/4 259/11/4
f 342/11/1 345/11/1 249/11/1 247/11/1
f 344/11/4 346/11/4 345/11/4 342/11/4
f 345/11/1 347/11/1 251/11/1 249/11/1
f 346/11/4 348/11/4 347/11/4 345/11/4
f 347/11/1 349/11/1 253/11/1 251/11/1
f 348/11/4 350/11/4 349/11/4 347/11/4
f 349/11/1 351/11/1 255/11/1 253/11/1
f 350/11/4 352/11/4 351/11/4 349/11/4
f 351/11/6 352/11/6 331/11/6 255/11/6
f 353/11/1 354/11/1 259/11/1 258/11/1
f 355/11/4 356/11/4 354/11/4 353/11/4
f 341/11/5 355/11/5 353/11/5 258/11/5
f 354/11/6 356/11/6 343/11/6 259/11/6
f 261/11/1 260/11/1 357/11/1 358/11/1
f 357/11/3 359/11/3 360/11/3 358/11/3
f 360/11/5 361/11/5 261/11/5 358/11/5
f 260/11/6 362/11/6 359/11/6 357/11/6
f 361/11/5 363/11/5 262/11/5 261/11/5
f 263/11/1 265/11/1 364/11/1 260/11/1
f 364/11/3 365/11/3 362/11/3 260/11/3
f 265/11/1 266/11/1 366/11/1 364/11/1
f 366/11/3 367/11/3 365/11/3 364/11/3
f 266/11/1 267/11/1 368/11/1 366/11/1
f 368/11/3 369/11/3 367/11/3 366/11/3
f 267/11/1 268/11/1 370/11/1 368/11/1
f 370/11/3 371/11/3 369/11/3 368/11/3
f 268/11/1 269/11/1 372/11/1 370/11/1
f 372/11/3 373/11/3 371/11/3 370/11/3
f 269/11/6 374/11/6 373/11/6 372/11/6
f 363/5/5 375/5/5 264/5/5 262/5/5
f 270/11/1 273/11/1 376/11/1 269/11/1
f 376/11/3 377/11/3 374/11/3 269/11/3
f 273/11/1 275/11/1 378/11/1 376/11/1
f 378/11/3 379/11/3 377/11/3 376/11/3
f 275/11/1 277/11/1 380/11/1 378/11/1
f 380/11/3 381/11/3 379/11/3 378/11/3
f 277/11/1 279/11/1 382/11/1 380/11/1
f 382/11/3 383/11/3 381/11/3 380/11/3
f 279/11/1 281/11/1 384/11/1 382/11/1
f 384/11/3 385/11/3 383/11/3 382/11/3
f 281/11/6 386/11/6 385/11/6 384/11/6
f 375/11/5 387/11/5 271/11/5 264/11/5
f 282/11/1 285/11/1 388/11/1 281/11/1
f 388/11/3 389/11/3 386/11/3 281/11/3
f 285/11/1 287/11/1 390/11/1 388/11/1
f 390/11/3 391/11/3 389/11/3 388/11/3
f 287/11/1 289/11/1 392/11/1 390/11/1
f 392/11/3 393/11/3 391/11/3 390/11/3
f 289/11/1 291/11/1 394/11/1 392/11/1
f 394/11/3 395/11/3 393/11/3 392/11/3
f 291/11/1 293/11/1 396/11/1 394/11/1
f 396/11/3 397/11/3 395/11/3 394/11/3
f 293/11/6 398/11/6 397/11/6 396/11/6
f 387/5/5 399/5/5 283/5/5 271/5/5
f 294/11/1 298/11/1 400/11/1 293/11/1
f 400/11/3 401/11/3 398/11/3 293/11/3
f 298/11/1 303/11/1 402/11/1 400/11/1
f 402/11/3 403/11/3 401/11/3 400/11/3
f 303/11/1 307/11/1 404/11/1 402/11/1
f 404/11/3 405/11/3 403/11/3 402/11/3
f 307/11/1 311/11/1 406/11/1 404/11/1
f 406/11/3 407/11/3 405/11/3 404/11/3
f 311/11/1 315/11/1 408/11/1 406/11/1
f 408/11/3 409/11/3 407/11/3 406/11/3
f 315/11/6 410/11/6 409/11/6 408/11/6
f 399/11/5 411/11/5 295/11/5 283/11/5
f 316/11/1 412/11/1 413/11/1 315/11/1
f 413/11/3 414/11/3 410/11/3 315/11/3
f 415/11/4 416/11/4 412/11/4 316/11/4
f 412/11/1 417/11/1 418/11/1 413/11/1
f 418/11/3 419/11/3 414/11/3 413/11/3
f 416/11/4 420/11/4 417/11/4 412/11/4
f 417/11/1 421/11/1 422/11/1 418/11/1
f 422/11/3 423/11/3 419/11/3 418/11/3
f 420/11/4 424/11/4 421/11/4 417/11/4
f 421/11/1 425/11/1 426/11/1 422/11/1
f 426/11/3 427/11/3 423/11/3 422/11/3
f 424/11/4 428/11/4 425/11/4 421/11/4
f 425/11/1 429/11/1 430/11/1 426/11/1
f 430/11/3 431/11/3 427/11/3 426/11/3
f 428/11/4 432/11/4 429/11/4 425/11/4
f 429/11/6 432/11/6 431/11/6 430/11/6
f 411/11/5 433/11/5 317/11/5 295/11/5
f 328/11/1 434/11/1 300/11/1 299/11/1
f 435/11/4 436/11/4 434/11/4 328/11/4
f 434/11/1 437/11/1 304/11/1 300/11/1
f 436/11/4 438/11/4 437/11/4 434/11/4
f 437/11/1 439/11/1 308/11/1 304/11/1
f 438/11/4 440/11/4 439/11/4 437/11/4
f 439/11/1 441/11/1 312/11/1 308/11/1
f 440/11/4 442/11/4 441/11/4 439/11/4
f 441/11/1 443/11/1 316/11/1 312/11/1
f 442/11/4 444/11/4 443/11/4 441/11/4
f 443/11/6 444/11/6 415/11/6 316/11/6
f 433/11/5 445/11/5 329/11/5 317/11/5
f 340/11/1 446/11/1 320/11/1 319/11/1
f 447/11/4 448/11/4 446/11/4 340/11/4
f 446/5/1 449/5/1 322/5/1 320/5/1
f 448/5/4 450/5/4 449/5/4 446/5/4
f 449/11/1 451/11/1 324/11/1 322/11/1
f 450/11/4 452/11/4 451/11/4 449/11/4
f 451/11/1 453/11/1 326/11/1 324/11/1
f 452/11/4 454/11/4 453/11/4 451/11/4
f 453/11/1 455/11/1 328/11/1 326/11/1
f 454/11/4 456/11/4 455/11/4 453/11/4
f 455/11/6 456/11/6 435/11/6 328/11/6
f 445/11/5 457/11/5 341/11/5 329/11/5
f 352/11/1 458/11/1 332/11/1 331/11/1
f 459/11/4 460/11/4 458/11/4 352/11/4
f 458/11/1 461/11/1 334/11/1 332/11/1
f 460/11/4 462/11/4 461/11/4 458/11/4
f 461/11/1 463/11/1 336/11/1 334/11/1
f 462/11/4 464/11/4 463/11/4 461/11/4
f 463/11/1 465/11/1 338/11/1 336/11/1
f 464/11/4 466/11/4 465/11/4 463/11/4
f 465/11/1 467/11/1 340/11/1 338/11/1
f 466/11/4 468/11/4 467/11/4 465/11/4
f 467/11/6 468/11/6 447/11/6 340/11/6
f 457/11/5 469/11/5 355/11/5 341/11/5
f 356/11/1 470/11/1 344/11/1 343/11/1
f 471/11/4 472/11/4 470/11/4 356/11/4
f 470/11/1 473/11/1 346/11/1 344/11/1
f 472/11/4 474/11/4 473/11/4 470/11/4
f 473/11/1 475/11/1 348/11/1 346/11/1
f 474/11/4 476/11/4 475/11/4 473/11/4
f 475/11/1 477/11/1 350/11/1 348/11/1
f 476/11/4 478/11/4 477/11/4 475/11/4
f 477/11/1 479/11/1 352/11/1 350/11/1
f 478/11/4 480/11/4 479/11/4 477/11/4
f 479/11/6 480/11/6 459/11/6 352/11/6
f 481/11/1 482/11/1 356/11/1 355/11/1
f 483/11/4 484/11/4 482/11/4 481/11/4
f 469/11/5 483/11/5 481/11/5 355/11/5
f 482/11/6 484/11/6 471/11/6 356/11/6
f 360/4/1 359/4/1 485/4/1 486/4/1
f 487/4/2 488/4/2 489/4/2 490/4/2
f 485/4/3 487/4/3 490/4/3 486/4/3
f 490/4/5 489/4/5 360/4/5 486/4/5
f 359/4/6 488/4/6 487/4/6 485/4/6
f 489/4/5 491/4/5 361/4/5 360/4/5
f 362/4/6 492/4/6 488/4/6 359/4/6
f 367/4/1 369/4/1 493/4/1 494/4/1
f 495/4/2 496/4/2 497/4/2 498/4/2
f 493/4/3 495/4/3 498/4/3 494/4/3
f 498/4/5 497/4/5 367/4/5 494/4/5
f 369/4/1 371/4/1 499/4/1 493/4/1
f 500/4/2 501/4/2 496/4/2 495/4/2
f 499/4/3 500/4/3 495/4/3 493/4/3
f 371/4/1 373/4/1 502/4/1 499/4/1
f 503/4/2 504/4/2 501/4/2 500/4/2
f 502/4/3 503/4/3 500/4/3 499/4/3
f 373/4/6 504/4/6 503/4/6 502/4/6
f 491/4/5 505/4/5 363/4/5 361/4/5
f 365/4/3 506/4/3 492/4/3 362/4/3
f 367/4/3 497/4/3 506/4/3 365/4/3
f 374/4/1 377/4/1 507/4/1 373/4/1
f 508/4/2 509/4/2 510/4/2 504/4/2
f 507/4/3 508/4/3 504/4/3 373/4/3
f 377/4/1 379/4/1 511/4/1 507/4/1
f 512/4/2 513/4/2 509/4/2 508/4/2
f 511/4/3 512/4/3 508/4/3 507/4/3
f 379/4/1 381/4/1 514/4/1 511/4/1
f 515/4/2 516/4/2 513/4/2 512/4/2
f 514/4/3 515/4/3 512/4/3 511/4/3
f 381/4/1 383/4/1 517/4/1 514/4/1
f 518/4/2 519/4/2 516/4/2 515/4/2
f 517/4/3 518/4/3 515/4/3 514/4/3
f 383/4/1 385/4/1 520/4/1 517/4/1
f 521/4/2 522/4/2 519/4/2 518/4/2
f 520/4/3 521/4/3 518/4/3 517/4/3
f 385/4/6 522/4/6 521/4/6 520/4/6
f 505/4/5 523/4/5 375/4/5 363/4/5
f 386/4/1 389/4/1 524/4/1 385/4/1
f 525/4/2 526/4/2 527/4/2 522/4/2
f 524/4/3 525/4/3 522/4/3 385/4/3
f 389/4/1 391/4/1 528/4/1 524/4/1
f 529/4/2 530/4/2 526/4/2 525/4/2
f 528/4/3 529/4/3 525/4/3 524/4/3
f 391/4/1 393/4/1 531/4/1 528/4/1
f 532/4/2 533/4/2 530/4/2 529/4/2
f 531/4/3 532/4/3 529/4/3 528/4/3
f 393/11/1 395/11/1 534/11/1 531/11/1
f 535/11/2 536/11/2 533/11/2 532/11/2
f 534/11/3 535/11/3 532/11/3 531/11/3
f 395/4/1 397/4/1 537/4/1 534/4/1
f 538/4/2 539/4/2 536/4/2 535/4/2
f 537/4/3 538/4/3 535/4/3 534/4/3
f 397/4/6 539/4/6 538/4/6 537/4/6
f 523/4/5 540/4/5 387/4/5 375/4/5
f 398/4/1 401/4/1 541/4/1 397/4/1
f 542/4/2 543/4/2 544/4/2 539/4/2
f 541/4/3 542/4/3 539/4/3 397/4/3
f 401/4/1 403/4/1 545/4/1 541/4/1
f 546/4/2 547/4/2 543/4/2 542/4/2
f 545/4/3 546/4/3 542/4/3 541/4/3
f 403/4/1 405/4/1 548/4/1 545/4/1
f 549/4/2 550/4/2 547/4/2 546/4/2
f 548/4/3 549/4/3 546/4/3 545/4/3
f 405/4/1 407/4/1 551/4/1 548/4/1
f 552/4/2 553/4/2 550/4/2 549/4/2
f 551/4/3 552/4/3 549/4/3 548/4/3
f 407/4/1 409/4/1 554/4/1 551/4/1
f 555/4/2 556/4/2 553/4/2 552/4/2
f 554/4/3 555/4/3 552/4/3 551/4/3
f 409/4/6 556/4/6 555/4/6 554/4/6
f 540/4/5 557/4/5 399/4/5 387/4/5
f 410/4/1 414/4/1 558/4/1 409/4/1
f 559/4/2 560/4/2 561/4/2 556/4/2
f 558/4/3 559/4/3 556/4/3 409/4/3
f 414/4/1 419/4/1 562/4/1 558/4/1
f 563/4/2 564/4/2 560/4/2 559/4/2
f 562/4/3 563/4/3 559/4/3 558/4/3
f 419/4/1 423/4/1 565/4/1 562/4/1
f 566/4/2 567/4/2 564/4/2 563/4/2
f 565/4/3 566/4/3 563/4/3 562/4/3
f 423/4/1 427/4/1 568/4/1 565/4/1
f 569/4/2 570/4/2 567/4/2 566/4/2
f 568/4/3 569/4/3 566/4/3 565/4/3
f 427/4/1 431/4/1 571/4/1 568/4/1
f 572/4/2 573/4/2 570/4/2 569/4/2
f 571/4/3 572/4/3 569/4/3 568/4/3
f 431/4/6 573/4/6 572/4/6 571/4/6
f 557/5/5 574/5/5 411/5/5 399/5/5
f 432/5/1 575/5/1 576/5/1 431/5/1
f 577/5/2 578/5/2 579/5/2 573/5/2
f 576/5/3 577/5/3 573/5/3 431/5/3
f 579/5/4 578/5/4 575/5/4 432/5/4
f 575/5/1 580/5/1 581/5/1 576/5/1
f 582/5/2 583/5/2 578/5/2 577/5/2
f 581/5/3 582/5/3 577/5/3 576/5/3
f 578/5/4 583/5/4 580/5/4 575/5/4
f 580/5/1 584/5/1 585/5/1 581/5/1
f 586/5/2 587/5/2 583/5/2 582/5/2
f 585/5/3 586/5/3 582/5/3 581/5/3
f 583/5/4 587/5/4 584/5/4 580/5/4
f 584/5/1 588/5/1 589/5/1 585/5/1
f 590/5/2 591/5/2 587/5/2 586/5/2
f 589/5/3 590/5/3 586/5/3 585/5/3
f 587/5/4 591/5/4 588/5/4 584/5/4
f 588/5/1 592/5/1 593/5/1 589/5/1
f 594/5/2 595/5/2 591/5/2 590/5/2
f 593/5/3 594/5/3 590/5/3 589/5/3
f 591/5/4 595/5/4 592/5/4 588/5/4
f 592/5/1 596/5/1 597/5/1 593/5/1
f 598/5/2 599/5/2 595/5/2 594/5/2
f 597/5/3 598/5/3 594/5/3 593/5/3
f 595/5/4 599/5/4 596/5/4 592/5/4
f 596/5/6 599/5/6 598/5/6 597/5/6
f 574/5/5 600/5/5 433/5/5 411/5/5
f 444/5/1 601/5/1 416/5/1 415/5/1
f 602/5/2 603/5/2 604/5/2 605/5/2
f 604/5/4 603/5/4 601/5/4 444/5/4
f 601/5/1 606/5/1 420/5/1 416/5/1
f 607/5/2 608/5/2 603/5/2 602/5/2
f 603/5/4 608/5/4 606/5/4 601/5/4
f 606/5/1 609/5/1 424/5/1 420/5/1
f 610/5/2 611/5/2 608/5/2 607/5/2
f 608/5/4 611/5/4 609/5/4 606/5/4
f 609/5/1 612/5/1 428/5/1 424/5/1
f 613/5/2 614/5/2 611/5/2 610/5/2
f 611/5/4 614/5/4 612/5/4 609/5/4
f 612/5/1 615/5/1 432/5/1 428/5/1
f 579/5/2 616/5/2 614/5/2 613/5/2
f 614/5/4 616/5/4 615/5/4 612/5/4
f 615/5/6 616/5/6 579/5/6 432/5/6
f 600/5/5 617/5/5 445/5/5 433/5/5
f 456/5/1 618/5/1 436/5/1 435/5/1
f 619/5/2 620/5/2 621/5/2 622/5/2
f 621/5/4 620/5/4 618/5/4 456/5/4
f 618/5/1 623/5/1 438/5/1 436/5/1
f 624/5/2 625/5/2 620/5/2 619/5/2
f 620/5/4 625/5/4 623/5/4 618/5/4
f 623/5/1 626/5/1 440/5/1 438/5/1
f 627/5/2 628/5/2 625/5/2 624/5/2
f 625/5/4 628/5/4 626/5/4 623/5/4
f 626/5/1 629/5/1 442/5/1 440/5/1
f 630/5/2 631/5/2 628/5/2 627/5/2
f 628/5/4 631/5/4 629/5/4 626/5/4
f 629/5/1 632/5/1 444/5/1 442/5/1
f 604/5/2 633/5/2 631/5/2 630/5/2
f 631/5/4 633/5/4 632/5/4 629/5/4
f 632/5/6 633/5/6 604/5/6 444/5/6
f 617/5/5 634/5/5 457/5/5 445/5/5
f 468/5/1 635/5/1 448/5/1 447/5/1
f 636/5/2 637/5/2 638/5/2 639/5/2
f 638/5/4 637/5/4 635/5/4 468/5/4
f 635/5/1 640/5/1 450/5/1 448/5/1
f 641/5/2 642/5/2 637/5/2 636/5/2
f 637/5/4 642/5/4 640/5/4 635/5/4
f 640/5/1 643/5/1 452/5/1 450/5/1
f 644/5/2 645/5/2 642/5/2 641/5/2
f 642/5/4 645/5/4 643/5/4 640/5/4
f 643/5/1 646/5/1 454/5/1 452/5/1
f 647/5/2 648/5/2 645/5/2 644/5/2
f 645/5/4 648/5/4 646/5/4 643/5/4
f 646/5/1 649/5/1 456/5/1 454/5/1
f 621/5/2 650/5/2 648/5/2 647/5/2
f 648/5/4 650/5/4 649/5/4 646/5/4
f 649/5/6 650/5/6 621/5/6 456/5/6
f 634/5/5 651/5/5 469/5/5 457/5/5
f 480/5/1 652/5/1 460/5/1 459/5/1
f 653/5/2 654/5/2 655/5/2 656/5/2
f 655/5/4 654/5/4 652/5/4 480/5/4
f 652/5/1 657/5/1 462/5/1 460/5/1
f 658/5/2 659/5/2 654/5/2 653/5/2
f 654/5/4 659/5/4 657/5/4 652/5/4
f 657/5/1 660/5/1 464/5/1 462/5/1
f 661/5/2 662/5/2 659/5/2 658/5/2
f 659/5/4 662/5/4 660/5/4 657/5/4
f 660/5/1 663/5/1 466/5/1 464/5/1
f 664/5/2 665/5/2 662/5/2 661/5/2
f 662/5/4 665/5/4 663/5/4 660/5/4
f 663/5/1 666/5/1 468/5/1 466/5/1
f 638/5/2 667/5/2 665/5/2 664/5/2
f 665/5/4 667/5/4 666/5/4 663/5/4
f 666/5/6 667/5/6 638/5/6 468/5/6
f 651/5/5 668/5/5 483/5/5 469/5/5
f 484/5/1 669/5/1 472/5/1 471/5/1
f 670/5/2 671/5/2 672/5/2 673/5/2
f 672/5/4 671/5/4 669/5/4 484/5/4
f 669/5/1 674/5/1 474/5/1 472/5/1
f 675/5/2 676/5/2 671/5/2 670/5/2
f 671/5/4 676/5/4 674/5/4 669/5/4
f 674/5/1 677/5/1 476/5/1 474/5/1
f 678/5/2 679/5/2 676/5/2 675/5/2
f 676/5/4 679/5/4 677/5/4 674/5/4
f 677/5/1 680/5/1 478/5/1 476/5/1
f 681/5/2 682/5/2 679/5/2 678/5/2
f 679/5/4 682/5/4 680/5/4 677/5/4
f 680/5/1 683/5/1 480/5/1 478/5/1
f 655/5/2 684/5/2 682/5/2 681/5/2
f 682/5/4 684/5/4 683/5/4 680/5/4
f 683/5/6 684/5/6 655/5/6 480/5/6
f 685/5/1 686/5/1 484/5/1 483/5/1
f 672/5/2 687/5/2 688/5/2 668/5/2
f 688/5/4 687/5/4 686/5/4 685/5/4
f 668/5/5 688/5/5 685/5/5 483/5/5
f 686/5/6 687/5/6 672/5/6 484/5/6
f 689/4/2 690/4/2 691/4/2 692/4/2
f 488/4/3 689/4/3 692/4/3 489/4/3
f 692/4/5 691/4/5 491/4/5 489/4/5
f 492/4/6 690/4/6 689/4/6 488/4/6
f 691/4/5 693/4/5 505/4/5 491/4/5
f 694/4/2 695/4/2 696/4/2 690/4/2
f 506/4/3 694/4/3 690/4/3 492/4/3
f 697/4/2 698/4/2 695/4/2 694/4/2
f 497/4/3 697/4/3 694/4/3 506/4/3
f 699/5/2 700/5/2 698/5/2 697/5/2
f 496/5/3 699/5/3 697/5/3 497/5/3
f 701/4/2 702/4/2 700/4/2 699/4/2
f 501/4/3 701/4/3 699/4/3 496/4/3
f 703/4/2 704/4/2 702/4/2 701/4/2
f 504/4/3 703/4/3 701/4/3 501/4/3
f 510/4/6 704/4/6 703/4/6 504/4/6
f 693/4/5 705/4/5 523/4/5 505/4/5
f 706/4/2 707/4/2 708/4/2 704/4/2
f 509/4/3 706/4/3 704/4/3 510/4/3
f 709/4/2 710/4/2 707/4/2 706/4/2
f 513/4/3 709/4/3 706/4/3 509/4/3
f 711/4/2 712/4/2 710/4/2 709/4/2
f 516/4/3 711/4/3 709/4/3 513/4/3
f 713/4/2 714/4/2 712/4/2 711/4/2
f 519/4/3 713/4/3 711/4/3 516/4/3
f 715/4/2 716/4/2 714/4/2 713/4/2
f 522/4/3 715/4/3 713/4/3 519/4/3
f 527/4/6 716/4/6 715/4/6 522/4/6
f 705/4/5 717/4/5 540/4/5 523/4/5
f 718/4/2 719/4/2 720/4/2 716/4/2
f 526/4/3 718/4/3 716/4/3 527/4/3
f 721/4/2 722/4/2 719/4/2 718/4/2
f 530/4/3 721/4/3 718/4/3 526/4/3
f 723/4/2 724/4/2 722/4/2 721/4/2
f 533/4/3 723/4/3 721/4/3 530/4/3
f 725/4/2 726/4/2 724/4/2 723/4/2
f 536/4/3 725/4/3 723/4/3 533/4/3
f 727/4/2 728/4/2 726/4/2 725/4/2
f 539/4/3 727/4/3 725/4/3 536/4/3
f 544/4/6 728/4/6 727/4/6 539/4/6
f 717/4/5 729/4/5 557/4/5 540/4/5
f 730/4/2 731/4/2 732/4/2 728/4/2
f 543/4/3 730/4/3 728/4/3 544/4/3
f 733/4/2 734/4/2 731/4/2 730/4/2
f 547/4/3 733/4/3 730/4/3 543/4/3
f 735/4/2 736/4/2 734/4/2 733/4/2
f 550/4/3 735/4/3 733/4/3 547/4/3
f 737/4/2 738/4/2 736/4/2 735/4/2
f 553/4/3 737/4/3 735/4/3 550/4/3
f 739/4/2 740/4/2 738/4/2 737/4/2
f 556/4/3 739/4/3 737/4/3 553/4/3
f 561/4/6 740/4/6 739/4/6 556/4/6
f 729/5/5 741/5/5 574/5/5 557/5/5
f 742/5/2 743/5/2 744/5/2 740/5/2
f 560/5/3 742/5/3 740/5/3 561/5/3
f 744/5/4 743/5/4 602/5/4 605/5/4
f 745/5/2 746/5/2 743/5/2 742/5/2
f 564/5/3 745/5/3 742/5/3 560/5/3
f 743/5/4 746/5/4 607/5/4 602/5/4
f 747/5/2 748/5/2 746/5/2 745/5/2
f 567/5/3 747/5/3 745/5/3 564/5/3
f 746/5/4 748/5/4 610/5/4 607/5/4
f 749/5/2 750/5/2 748/5/2 747/5/2
f 570/5/3 749/5/3 747/5/3 567/5/3
f 748/5/4 750/5/4 613/5/4 610/5/4
f 751/5/2 752/5/2 750/5/2 749/5/2
f 573/5/3 751/5/3 749/5/3 570/5/3
f 750/5/4 752/5/4 579/5/4 613/5/4
f 579/5/6 752/5/6 751/5/6 573/5/6
f 741/5/5 753/5/5 600/5/5 574/5/5
f 754/5/2 755/5/2 756/5/2 757/5/2
f 756/5/4 755/5/4 619/5/4 622/5/4
f 758/11/2 759/11/2 755/11/2 754/11/2
f 755/11/4 759/11/4 624/11/4 619/11/4
f 760/5/2 761/5/2 759/5/2 758/5/2
f 759/5/4 761/5/4 627/5/4 624/5/4
f 762/5/2 763/5/2 761/5/2 760/5/2
f 761/5/4 763/5/4 630/5/4 627/5/4
f 744/5/2 764/5/2 763/5/2 762/5/2
f 763/5/4 764/5/4 604/5/4 630/5/4
f 604/5/6 764/5/6 744/5/6 605/5/6
f 753/5/5 765/5/5 617/5/5 600/5/5
f 766/5/2 767/5/2 768/5/2 769/5/2
f 768/5/4 767/5/4 636/5/4 639/5/4
f 770/5/2 771/5/2 767/5/2 766/5/2
f 767/5/4 771/5/4 641/5/4 636/5/4
f 772/5/2 773/5/2 771/5/2 770/5/2
f 771/5/4 773/5/4 644/5/4 641/5/4
f 774/5/2 775/5/2 773/5/2 772/5/2
f 773/5/4 775/5/4 647/5/4 644/5/4
f 756/5/2 776/5/2 775/5/2 774/5/2
f 775/5/4 776/5/4 621/5/4 647/5/4
f 621/5/6 776/5/6 756/5/6 622/5/6
f 765/5/5 777/5/5 634/5/5 617/5/5
f 778/5/2 779/5/2 780/5/2 781/5/2
f 780/5/4 779/5/4 653/5/4 656/5/4
f 782/5/2 783/5/2 779/5/2 778/5/2
f 779/5/4 783/5/4 658/5/4 653/5/4
f 784/5/2 785/5/2 783/5/2 782/5/2
f 783/5/4 785/5/4 661/5/4 658/5/4
f 786/5/2 787/5/2 785/5/2 784/5/2
f 785/5/4 787/5/4 664/5/4 661/5/4
f 768/5/2 788/5/2 787/5/2 786/5/2
f 787/5/4 788/5/4 638/5/4 664/5/4
f 638/5/6 788/5/6 768/5/6 639/5/6
f 777/5/5 789/5/5 651/5/5 634/5/5
f 790/5/2 791/5/2 792/5/2 793/5/2
f 792/5/4 791/5/4 670/5/4 673/5/4
f 794/5/2 795/5/2 791/5/2 790/5/2
f 791/5/4 795/5/4 675/5/4 670/5/4
f 796/5/2 797/5/2 795/5/2 794/5/2
f 795/5/4 797/5/4 678/5/4 675/5/4
f 798/5/2 799/5/2 797/5/2 796/5/2
f 797/5/4 799/5/4 681/5/4 678/5/4
f 780/5/2 800/5/2 799/5/2 798/5/2
f 799/5/4 800/5/4 655/5/4 681/5/4
f 655/5/6 800/5/6 780/5/6 656/5/6
f 792/5/2 801/5/2 802/5/2 789/5/2
f 802/5/4 801/5/4 672/5/4 668/5/4
f 789/5/5 802/5/5 668/5/5 651/5/5
f 672/5/6 801/5/6 792/5/6 673/5/6
f 803/4/2 804/4/2 805/4/2 806/4/2
f 690/4/3 803/4/3 806/4/3 691/4/3
f 806/4/5 805/4/5 693/4/5 691/4/5
f 696/4/6 804/4/6 803/4/6 690/4/6
f 805/4/5 807/4/5 705/4/5 693/4/5
f 808/4/2 809/4/2 810/4/2 804/4/2
f 695/4/3 808/4/3 804/4/3 696/4/3
f 811/4/2 812/4/2 809/4/2 808/4/2
f 698/4/3 811/4/3 808/4/3 695/4/3
f 813/4/2 814/4/2 812/4/2 811/4/2
f 700/4/3 813/4/3 811/4/3 698/4/3
f 815/4/2 816/4/2 814/4/2 813/4/2
f 702/4/3 815/4/3 813/4/3 700/4/3
f 817/4/2 818/4/2 816/4/2 815/4/2
f 704/4/3 817/4/3 815/4/3 702/4/3
f 708/4/6 818/4/6 817/4/6 704/4/6
f 807/4/5 819/4/5 717/4/5 705/4/5
f 820/4/2 821/4/2 822/4/2 818/4/2
f 707/4/3 820/4/3 818/4/3 708/4/3
f 823/4/2 824/4/2 821/4/2 820/4/2
f 710/4/3 823/4/3 820/4/3 707/4/3
f 825/4/2 826/4/2 824/4/2 823/4/2
f 712/4/3 825/4/3 823/4/3 710/4/3
f 827/4/2 828/4/2 826/4/2 825/4/2
f 714/4/3 827/4/3 825/4/3 712/4/3
f 829/4/2 830/4/2 828/4/2 827/4/2
f 716/4/3 829/4/3 827/4/3 714/4/3
f 720/4/6 830/4/6 829/4/6 716/4/6
f 819/5/5 831/5/5 729/5/5 717/5/5
f 832/4/2 833/4/2 834/4/2 830/4/2
f 719/4/3 832/4/3 830/4/3 720/4/3
f 835/4/2 836/4/2 833/4/2 832/4/2
f 722/4/3 835/4/3 832/4/3 719/4/3
f 837/4/2 838/4/2 836/4/2 835/4/2
f 724/4/3 837/4/3 835/4/3 722/4/3
f 839/4/2 840/4/2 838/4/2 837/4/2
f 726/4/3 839/4/3 837/4/3 724/4/3
f 841/4/2 842/4/2 840/4/2 839/4/2
f 728/4/3 841/4/3 839/4/3 726/4/3
f 732/4/6 842/4/6 841/4/6 728/4/6
f 831/5/5 843/5/5 741/5/5 729/5/5
f 844/5/2 845/5/2 846/5/2 842/5/2
f 731/5/3 844/5/3 842/5/3 732/5/3
f 846/5/4 845/5/4 754/5/4 757/5/4
f 847/5/2 848/5/2 845/5/2 844/5/2
f 734/5/3 847/5/3 844/5/3 731/5/3
f 845/5/4 848/5/4 758/5/4 754/5/4
f 849/5/2 850/5/2 848/5/2 847/5/2
f 736/5/3 849/5/3 847/5/3 734/5/3
f 848/5/4 850/5/4 760/5/4 758/5/4
f 851/5/2 852/5/2 850/5/2 849/5/2
f 738/5/3 851/5/3 849/5/3 736/5/3
f 850/5/4 852/5/4 762/5/4 760/5/4
f 853/5/2 854/5/2 852/5/2 851/5/2
f 740/5/3 853/5/3 851/5/3 738/5/3
f 852/5/4 854/5/4 744/5/4 762/5/4
f 744/5/6 854/5/6 853/5/6 740/5/6
f 843/5/5 855/5/5 753/5/5 741/5/5
f 856/5/2 857/5/2 858/5/2 859/5/2
f 858/5/4 857/5/4 766/5/4 769/5/4
f 860/5/2 861/5/2 857/5/2 856/5/2
f 857/5/4 861/5/4 770/5/4 766/5/4
f 862/5/2 863/5/2 861/5/2 860/5/2
f 861/5/4 863/5/4 772/5/4 770/5/4
f 864/5/2 865/5/2 863/5/2 862/5/2
f 863/5/4 865/5/4 774/5/4 772/5/4
f 846/5/2 866/5/2 865/5/2 864/5/2
f 865/5/4 866/5/4 756/5/4 774/5/4
f 756/5/6 866/5/6 846/5/6 757/5/6
f 855/5/5 867/5/5 765/5/5 753/5/5
f 868/5/2 869/5/2 870/5/2 871/5/2
f 870/5/4 869/5/4 778/5/4 781/5/4
f 872/5/2 873/5/2 869/5/2 868/5/2
f 869/5/4 873/5/4 782/5/4 778/5/4
f 874/5/2 875/5/2 873/5/2 872/5/2
f 873/5/4 875/5/4 784/5/4 782/5/4
f 876/11/2 877/11/2 875/11/2 874/11/2
f 875/11/4 877/11/4 786/11/4 784/11/4
f 858/5/2 878/5/2 877/5/2 876/5/2
f 877/5/4 878/5/4 768/5/4 786/5/4
f 768/5/6 878/5/6 858/5/6 769/5/6
f 867/5/5 879/5/5 777/5/5 765/5/5
f 880/5/2 881/5/2 882/5/2 883/5/2
f 882/5/4 881/5/4 790/5/4 793/5/4
f 884/5/2 885/5/2 881/5/2 880/5/2
f 881/5/4 885/5/4 794/5/4 790/5/4
f 886/5/2 887/5/2 885/5/2 884/5/2
f 885/5/4 887/5/4 796/5/4 794/5/4
f 888/5/2 889/5/2 887/5/2 886/5/2
f 887/5/4 889/5/4 798/5/4 796/5/4
f 870/5/2 890/5/2 889/5/2 888/5/2
f 889/5/4 890/5/4 780/5/4 798/5/4
f 780/5/6 890/5/6 870/5/6 781/5/6
f 882/5/2 891/5/2 892/5/2 879/5/2
f 892/5/4 891/5/4 792/5/4 789/5/4
f 879/5/5 892/5/5 789/5/5 777/5/5
f 792/5/6 891/5/6 882/5/6 793/5/6
f 893/4/2 894/4/2 895/4/2 896/4/2
f 804/4/3 893/4/3 896/4/3 805/4/3
f 896/4/5 895/4/5 807/4/5 805/4/5
f 810/4/6 894/4/6 893/4/6 804/4/6
f 895/4/5 897/4/5 819/4/5 807/4/5
f 898/4/2 899/4/2 900/4/2 894/4/2
f 809/4/3 898/4/3 894/4/3 810/4/3
f 901/4/2 902/4/2 899/4/2 898/4/2
f 812/4/3 901/4/3 898/4/3 809/4/3
f 903/5/2 904/5/2 902/5/2 901/5/2
f 814/5/3 903/5/3 901/5/3 812/5/3
f 905/4/2 906/4/2 904/4/2 903/4/2
f 816/4/3 905/4/3 903/4/3 814/4/3
f 907/4/2 908/4/2 906/4/2 905/4/2
f 818/4/3 907/4/3 905/4/3 816/4/3
f 822/4/6 908/4/6 907/4/6 818/4/6
f 897/4/5 909/4/5 831/4/5 819/4/5
f 910/4/2 911/4/2 912/4/2 908/4/2
f 821/4/3 910/4/3 908/4/3 822/4/3
f 913/4/2 914/4/2 911/4/2 910/4/2
f 824/4/3 913/4/3 910/4/3 821/4/3
f 915/4/2 916/4/2 914/4/2 913/4/2
f 826/4/3 915/4/3 913/4/3 824/4/3
f 917/4/2 918/4/2 916/4/2 915/4/2
f 828/4/3 917/4/3 915/4/3 826/4/3
f 919/4/2 920/4/2 918/4/2 917/4/2
f 830/4/3 919/4/3 917/4/3 828/4/3
f 834/4/6 920/4/6 919/4/6 830/4/6
f 909/5/5 921/5/5 843/5/5 831/5/5
f 922/5/2 923/5/2 924/5/2 920/5/2
f 833/5/3 922/5/3 920/5/3 834/5/3
f 924/5/4 923/5/4 856/5/4 859/5/4
f 925/5/2 926/5/2 923/5/2 922/5/2
f 836/5/3 925/5/3 922/5/3 833/5/3
f 923/5/4 926/5/4 860/5/4 856/5/4
f 927/5/2 928/5/2 926/5/2 925/5/2
f 838/5/3 927/5/3 925/5/3 836/5/3
f 926/5/4 928/5/4 862/5/4 860/5/4
f 929/5/2 930/5/2 928/5/2 927/5/2
f 840/5/3 929/5/3 927/5/3 838/5/3
f 928/5/4 930/5/4 864/5/4 862/5/4
f 931/5/2 932/5/2 930/5/2 929/5/2
f 842/5/3 931/5/3 929/5/3 840/5/3
f 930/5/4 932/5/4 846/5/4 864/5/4
f 846/5/6 932/5/6 931/5/6 842/5/6
f 921/5/5 933/5/5 855/5/5 843/5/5
f 934/5/2 935/5/2 936/5/2 937/5/2
f 936/5/4 935/5/4 868/5/4 871/5/4
f 938/5/2 939/5/2 935/5/2 934/5/2
f 935/5/4 939/5/4 872/5/4 868/5/4
f 940/11/2 941/11/2 939/11/2 938/11/2
f 939/11/4 941/11/4 874/11/4 872/11/4
f 942/5/2 943/5/2 941/5/2 940/5/2
f 941/5/4 943/5/4 876/5/4 874/5/4
f 924/5/2 944/5/2 943/5/2 942/5/2
f 943/5/4 944/5/4 858/5/4 876/5/4
f 858/5/6 944/5/6 924/5/6 859/5/6
f 933/5/5 945/5/5 867/5/5 855/5/5
f 946/5/2 947/5/2 948/5/2 949/5/2
f 948/5/4 947/5/4 880/5/4 883/5/4
f 950/5/2 951/5/2 947/5/2 946/5/2
f 947/5/4 951/5/4 884/5/4 880/5/4
f 952/5/2 953/5/2 951/5/2 950/5/2
f 951/5/4 953/5/4 886/5/4 884/5/4
f 954/5/2 955/5/2 953/5/2 952/5/2
f 953/5/4 955/5/4 888/5/4 886/5/4
f 936/5/2 956/5/2 955/5/2 954/5/2
f 955/5/4 956/5/4 870/5/4 888/5/4
f 870/5/6 956/5/6 936/5/6 871/5/6
f 948/5/2 957/5/2 958/5/2 945/5/2
f 958/5/4 957/5/4 882/5/4 879/5/4
f 945/5/5 958/5/5 879/5/5 867/5/5
f 882/5/6 957/5/6 948/5/6 883/5/6
f 959/4/2 960/4/2 961/4/2 962/4/2
f 894/4/3 959/4/3 962/4/3 895/4/3
f 962/4/5 961/4/5 897/4/5 895/4/5
f 900/4/6 960/4/6 959/4/6 894/4/6
f 961/4/5 963/4/5 909/4/5 897/4/5
f 964/4/2 965/4/2 966/4/2 960/4/2
f 899/4/3 964/4/3 960/4/3 900/4/3
f 967/4/2 968/4/2 965/4/2 964/4/2
f 902/4/3 967/4/3 964/4/3 899/4/3
f 969/4/2 970/4/2 968/4/2 967/4/2
f 904/4/3 969/4/3 967/4/3 902/4/3
f 971/4/2 972/4/2 970/4/2 969/4/2
f 906/4/3 971/4/3 969/4/3 904/4/3
f 973/4/2 974/4/2 972/4/2 971/4/2
f 908/4/3 973/4/3 971/4/3 906/4/3
f 912/4/6 974/4/6 973/4/6 908/4/6
f 963/5/5 975/5/5 921/5/5 909/5/5
f 976/5/2 977/5/2 978/5/2 974/5/2
f 911/5/3 976/5/3 974/5/3 912/5/3
f 978/5/4 977/5/4 934/5/4 937/5/4
f 979/5/2 980/5/2 977/5/2 976/5/2
f 914/5/3 979/5/3 976/5/3 911/5/3
f 977/5/4 980/5/4 938/5/4 934/5/4
f 981/5/2 982/5/2 980/5/2 979/5/2
f 916/5/3 981/5/3 979/5/3 914/5/3
f 980/5/4 982/5/4 940/5/4 938/5/4
f 983/5/2 984/5/2 982/5/2 981/5/2
f 918/5/3 983/5/3 981/5/3 916/5/3
f 982/5/4 984/5/4 942/5/4 940/5/4
f 985/5/2 986/5/2 984/5/2 983/5/2
f 920/5/3 985/5/3 983/5/3 918/5/3
f 984/5/4 986/5/4 924/5/4 942/5/4
f 924/5/6 986/5/6 985/5/6 920/5/6
f 975/5/5 987/5/5 933/5/5 921/5/5
f 988/5/2 989/5/2 990/5/2 991/5/2
f 990/5/4 989/5/4 946/5/4 949/5/4
f 992/5/2 993/5/2 989/5/2 988/5/2
f 989/5/4 993/5/4 950/5/4 946/5/4
f 994/5/2 995/5/2 993/5/2 992/5/2
f 993/5/4 995/5/4 952/5/4 950/5/4
f 996/5/2 997/5/2 995/5/2 994/5/2
f 995/5/4 997/5/4 954/5/4 952/5/4
f 978/5/2 998/5/2 997/5/2 996/5/2
f 997/5/4 998/5/4 936/5/4 954/5/4
f 936/5/6 998/5/6 978/5/6 937/5/6
f 990/5/2 999/5/2 1000/5/2 987/5/2
f 1000/5/4 999/5/4 948/5/4 945/5/4
f 987/5/5 1000/5/5 945/5/5 933/5/5
f 948/5/6 999/5/6 990/5/6 949/5/6
f 1001/4/2 1002/4/2 1003/4/2 1004/4/2
f 960/4/3 1001/4/3 1004/4/3 961/4/3
f 1004/4/5 1003/4/5 963/4/5 961/4/5
f 966/4/6 1002/4/6 1001/4/6 960/4/6
f 1003/5/5 1005/5/5 975/5/5 963/5/5
f 1006/5/2 1007/5/2 1008/5/2 1002/5/2
f 965/5/3 1006/5/3 1002/5/3 966/5/3
f 1008/5/4 1007/5/4 988/5/4 991/5/4
f 1009/5/2 1010/5/2 1007/5/2 1006/5/2
f 968/5/3 1009/5/3 1006/5/3 965/5/3
f 1007/5/4 1010/5/4 992/5/4 988/5/4
f 1011/5/2 1012/5/2 1010/5/2 1009/5/2
f 970/5/3 1011/5/3 1009/5/3 968/5/3
f 1010/5/4 1012/5/4 994/5/4 992/5/4
f 1013/5/2 1014/5/2 1012/5/2 1011/5/2
f 972/5/3 1013/5/3 1011/5/3 970/5/3
f 1012/5/4 1014/5/4 996/5/4 994/5/4
f 1015/5/2 1016/5/2 1014/5/2 1013/5/2
f 974/5/3 1015/5/3 1013/5/3 972/5/3
f 1014/5/4 1016/5/4 978/5/4 996/5/4
f 978/5/6 1016/5/6 1015/5/6 974/5/6
f 1008/5/2 1017/5/2 1018/5/2 1005/5/2
f 1018/5/4 1017/5/4 990/5/4 987/5/4
f 1005/5/5 1018/5/5 987/5/5 975/5/5
f 990/5/6 1017/5/6 1008/5/6 991/5/6
f 1019/5/2 1020/5/2 1021/5/2 1022/5/2
f 1002/5/3 1019/5/3 1022/5/3 1003/5/3
f 1021/5/4 1020/5/4 1008/5/4 1005/5/4
f 1022/5/5 1021/5/5 1005/5/5 1003/5/5
f 1008/5/6 1020/5/6 1019/5/6 1002/5/6
