# Dungine table; 1 voxel = 1/16 unit; Y-up floor-center origin
mtllib table.mtl
o table
s off
v -0.937500 0.625000 -0.375000
v -0.937500 0.687500 -0.375000
v -0.937500 0.687500 -0.437500
v -0.937500 0.625000 -0.437500
v -0.875000 0.687500 -0.437500
v -0.875000 0.625000 -0.437500
v -0.875000 0.625000 -0.375000
v -0.937500 0.750000 -0.375000
v -0.937500 0.750000 -0.437500
v -0.875000 0.750000 -0.437500
v -0.875000 0.750000 -0.375000
v -0.937500 0.625000 -0.312500
v -0.937500 0.687500 -0.312500
v -0.875000 0.625000 -0.312500
v -0.937500 0.750000 -0.312500
v -0.875000 0.750000 -0.312500
v -0.937500 0.625000 -0.250000
v -0.937500 0.687500 -0.250000
v -0.875000 0.625000 -0.250000
v -0.937500 0.750000 -0.250000
v -0.875000 0.750000 -0.250000
v -0.937500 0.625000 -0.187500
v -0.937500 0.687500 -0.187500
v -0.875000 0.625000 -0.187500
v -0.937500 0.750000 -0.187500
v -0.875000 0.750000 -0.187500
v -0.937500 0.625000 -0.125000
v -0.937500 0.687500 -0.125000
v -0.875000 0.625000 -0.125000
v -0.937500 0.750000 -0.125000
v -0.875000 0.750000 -0.125000
v -0.937500 0.625000 -0.062500
v -0.937500 0.687500 -0.062500
v -0.875000 0.625000 -0.062500
v -0.937500 0.750000 -0.062500
v -0.875000 0.750000 -0.062500
v -0.937500 0.625000 0.000000
v -0.937500 0.687500 0.000000
v -0.875000 0.625000 0.000000
v -0.937500 0.750000 0.000000
v -0.875000 0.750000 0.000000
v -0.937500 0.625000 0.062500
v -0.937500 0.687500 0.062500
v -0.875000 0.625000 0.062500
v -0.937500 0.750000 0.062500
v -0.875000 0.750000 0.062500
v -0.937500 0.625000 0.125000
v -0.937500 0.687500 0.125000
v -0.875000 0.625000 0.125000
v -0.937500 0.750000 0.125000
v -0.875000 0.750000 0.125000
v -0.937500 0.625000 0.187500
v -0.937500 0.687500 0.187500
v -0.875000 0.625000 0.187500
v -0.937500 0.750000 0.187500
v -0.875000 0.750000 0.187500
v -0.937500 0.625000 0.250000
v -0.937500 0.687500 0.250000
v -0.875000 0.625000 0.250000
v -0.937500 0.750000 0.250000
v -0.875000 0.750000 0.250000
v -0.937500 0.625000 0.312500
v -0.937500 0.687500 0.312500
v -0.875000 0.625000 0.312500
v -0.937500 0.750000 0.312500
v -0.875000 0.750000 0.312500
v -0.937500 0.625000 0.375000
v -0.937500 0.687500 0.375000
v -0.875000 0.625000 0.375000
v -0.937500 0.750000 0.375000
v -0.875000 0.750000 0.375000
v -0.937500 0.625000 0.437500
v -0.937500 0.687500 0.437500
v -0.875000 0.625000 0.437500
v -0.875000 0.687500 0.437500
v -0.937500 0.750000 0.437500
v -0.875000 0.750000 0.437500
v -0.812500 0.687500 -0.437500
v -0.812500 0.625000 -0.437500
v -0.812500 0.625000 -0.375000
v -0.812500 0.750000 -0.437500
v -0.812500 0.750000 -0.375000
v -0.875000 0.000000 -0.312500
v -0.875000 0.062500 -0.312500
v -0.875000 0.062500 -0.375000
v -0.875000 0.000000 -0.375000
v -0.812500 0.062500 -0.375000
v -0.812500 0.000000 -0.375000
v -0.812500 0.000000 -0.312500
v -0.875000 0.125000 -0.312500
v -0.875000 0.125000 -0.375000
v -0.812500 0.125000 -0.375000
v -0.875000 0.187500 -0.312500
v -0.875000 0.187500 -0.375000
v -0.812500 0.187500 -0.375000
v -0.875000 0.250000 -0.312500
v -0.875000 0.250000 -0.375000
v -0.812500 0.250000 -0.375000
v -0.875000 0.312500 -0.312500
v -0.875000 0.312500 -0.375000
v -0.812500 0.312500 -0.375000
v -0.875000 0.375000 -0.312500
v -0.875000 0.375000 -0.375000
v -0.812500 0.375000 -0.375000
v -0.875000 0.437500 -0.312500
v -0.875000 0.437500 -0.375000
v -0.812500 0.437500 -0.375000
v -0.875000 0.500000 -0.312500
v -0.875000 0.500000 -0.375000
v -0.812500 0.500000 -0.375000
v -0.875000 0.562500 -0.312500
v -0.875000 0.562500 -0.375000
v -0.812500 0.562500 -0.375000
v -0.812500 0.750000 -0.312500
v -0.875000 0.000000 -0.250000
v -0.875000 0.062500 -0.250000
v -0.812500 0.000000 -0.250000
v -0.812500 0.062500 -0.250000
v -0.875000 0.125000 -0.250000
v -0.812500 0.125000 -0.250000
v -0.875000 0.187500 -0.250000
v -0.812500 0.187500 -0.250000
v -0.875000 0.250000 -0.250000
v -0.812500 0.250000 -0.250000
v -0.875000 0.312500 -0.250000
v -0.812500 0.312500 -0.250000
v -0.875000 0.375000 -0.250000
v -0.812500 0.375000 -0.250000
v -0.875000 0.437500 -0.250000
v -0.812500 0.437500 -0.250000
v -0.875000 0.500000 -0.250000
v -0.812500 0.500000 -0.250000
v -0.875000 0.562500 -0.250000
v -0.812500 0.562500 -0.250000
v -0.812500 0.625000 -0.250000
v -0.812500 0.750000 -0.250000
v -0.812500 0.625000 -0.187500
v -0.812500 0.750000 -0.187500
v -0.812500 0.625000 -0.125000
v -0.812500 0.750000 -0.125000
v -0.812500 0.625000 -0.062500
v -0.812500 0.750000 -0.062500
v -0.812500 0.625000 0.000000
v -0.812500 0.750000 0.000000
v -0.812500 0.625000 0.062500
v -0.812500 0.750000 0.062500
v -0.812500 0.625000 0.125000
v -0.812500 0.750000 0.125000
v -0.812500 0.625000 0.187500
v -0.812500 0.750000 0.187500
v -0.812500 0.625000 0.250000
v -0.812500 0.750000 0.250000
v -0.875000 0.000000 0.312500
v -0.875000 0.062500 0.312500
v -0.875000 0.062500 0.250000
v -0.875000 0.000000 0.250000
v -0.812500 0.062500 0.250000
v -0.812500 0.000000 0.250000
v -0.812500 0.000000 0.312500
v -0.875000 0.125000 0.312500
v -0.875000 0.125000 0.250000
v -0.812500 0.125000 0.250000
v -0.875000 0.187500 0.312500
v -0.875000 0.187500 0.250000
v -0.812500 0.187500 0.250000
v -0.875000 0.250000 0.312500
v -0.875000 0.250000 0.250000
v -0.812500 0.250000 0.250000
v -0.875000 0.312500 0.312500
v -0.875000 0.312500 0.250000
v -0.812500 0.312500 0.250000
v -0.875000 0.375000 0.312500
v -0.875000 0.375000 0.250000
v -0.812500 0.375000 0.250000
v -0.875000 0.437500 0.312500
v -0.875000 0.437500 0.250000
v -0.812500 0.437500 0.250000
v -0.875000 0.500000 0.312500
v -0.875000 0.500000 0.250000
v -0.812500 0.500000 0.250000
v -0.875000 0.562500 0.312500
v -0.875000 0.562500 0.250000
v -0.812500 0.562500 0.250000
v -0.812500 0.750000 0.312500
v -0.875000 0.000000 0.375000
v -0.875000 0.062500 0.375000
v -0.812500 0.000000 0.375000
v -0.812500 0.062500 0.375000
v -0.875000 0.125000 0.375000
v -0.812500 0.125000 0.375000
v -0.875000 0.187500 0.375000
v -0.812500 0.187500 0.375000
v -0.875000 0.250000 0.375000
v -0.812500 0.250000 0.375000
v -0.875000 0.312500 0.375000
v -0.812500 0.312500 0.375000
v -0.875000 0.375000 0.375000
v -0.812500 0.375000 0.375000
v -0.875000 0.437500 0.375000
v -0.812500 0.437500 0.375000
v -0.875000 0.500000 0.375000
v -0.812500 0.500000 0.375000
v -0.875000 0.562500 0.375000
v -0.812500 0.562500 0.375000
v -0.812500 0.625000 0.375000
v -0.812500 0.750000 0.375000
v -0.812500 0.625000 0.437500
v -0.812500 0.687500 0.437500
v -0.812500 0.750000 0.437500
v -0.750000 0.687500 -0.437500
v -0.750000 0.625000 -0.437500
v -0.750000 0.625000 -0.375000
v -0.750000 0.750000 -0.437500
v -0.750000 0.750000 -0.375000
v -0.750000 0.062500 -0.375000
v -0.750000 0.062500 -0.312500
v -0.750000 0.000000 -0.312500
v -0.750000 0.000000 -0.375000
v -0.750000 0.125000 -0.375000
v -0.750000 0.125000 -0.312500
v -0.750000 0.187500 -0.375000
v -0.750000 0.187500 -0.312500
v -0.750000 0.250000 -0.375000
v -0.750000 0.250000 -0.312500
v -0.750000 0.312500 -0.375000
v -0.750000 0.312500 -0.312500
v -0.750000 0.375000 -0.375000
v -0.750000 0.375000 -0.312500
v -0.750000 0.437500 -0.375000
v -0.750000 0.437500 -0.312500
v -0.750000 0.500000 -0.375000
v -0.750000 0.500000 -0.312500
v -0.750000 0.562500 -0.375000
v -0.750000 0.562500 -0.312500
v -0.750000 0.625000 -0.312500
v -0.750000 0.750000 -0.312500
v -0.750000 0.062500 -0.250000
v -0.750000 0.000000 -0.250000
v -0.750000 0.125000 -0.250000
v -0.750000 0.187500 -0.250000
v -0.750000 0.250000 -0.250000
v -0.750000 0.312500 -0.250000
v -0.750000 0.375000 -0.250000
v -0.750000 0.437500 -0.250000
v -0.750000 0.500000 -0.250000
v -0.750000 0.562500 -0.250000
v -0.750000 0.625000 -0.250000
v -0.750000 0.750000 -0.250000
v -0.750000 0.625000 -0.187500
v -0.750000 0.750000 -0.187500
v -0.750000 0.625000 -0.125000
v -0.750000 0.750000 -0.125000
v -0.750000 0.625000 -0.062500
v -0.750000 0.750000 -0.062500
v -0.750000 0.625000 0.000000
v -0.750000 0.750000 0.000000
v -0.750000 0.625000 0.062500
v -0.750000 0.750000 0.062500
v -0.750000 0.625000 0.125000
v -0.750000 0.750000 0.125000
v -0.750000 0.625000 0.187500
v -0.750000 0.750000 0.187500
v -0.750000 0.625000 0.250000
v -0.750000 0.750000 0.250000
v -0.750000 0.062500 0.250000
v -0.750000 0.062500 0.312500
v -0.750000 0.000000 0.312500
v -0.750000 0.000000 0.250000
v -0.750000 0.125000 0.250000
v -0.750000 0.125000 0.312500
v -0.750000 0.187500 0.250000
v -0.750000 0.187500 0.312500
v -0.750000 0.250000 0.250000
v -0.750000 0.250000 0.312500
v -0.750000 0.312500 0.250000
v -0.750000 0.312500 0.312500
v -0.750000 0.375000 0.250000
v -0.750000 0.375000 0.312500
v -0.750000 0.437500 0.250000
v -0.750000 0.437500 0.312500
v -0.750000 0.500000 0.250000
v -0.750000 0.500000 0.312500
v -0.750000 0.562500 0.250000
v -0.750000 0.562500 0.312500
v -0.750000 0.625000 0.312500
v -0.750000 0.750000 0.312500
v -0.750000 0.062500 0.375000
v -0.750000 0.000000 0.375000
v -0.750000 0.125000 0.375000
v -0.750000 0.187500 0.375000
v -0.750000 0.250000 0.375000
v -0.750000 0.312500 0.375000
v -0.750000 0.375000 0.375000
v -0.750000 0.437500 0.375000
v -0.750000 0.500000 0.375000
v -0.750000 0.562500 0.375000
v -0.750000 0.625000 0.375000
v -0.750000 0.750000 0.375000
v -0.750000 0.625000 0.437500
v -0.750000 0.687500 0.437500
v -0.750000 0.750000 0.437500
v -0.687500 0.687500 -0.437500
v -0.687500 0.625000 -0.437500
v -0.687500 0.625000 -0.375000
v -0.687500 0.750000 -0.437500
v -0.687500 0.750000 -0.375000
v -0.687500 0.625000 -0.312500
v -0.687500 0.750000 -0.312500
v -0.687500 0.625000 -0.250000
v -0.687500 0.750000 -0.250000
v -0.687500 0.625000 -0.187500
v -0.687500 0.750000 -0.187500
v -0.687500 0.625000 -0.125000
v -0.687500 0.750000 -0.125000
v -0.687500 0.625000 -0.062500
v -0.687500 0.750000 -0.062500
v -0.687500 0.625000 0.000000
v -0.687500 0.750000 0.000000
v -0.687500 0.625000 0.062500
v -0.687500 0.750000 0.062500
v -0.687500 0.625000 0.125000
v -0.687500 0.750000 0.125000
v -0.687500 0.625000 0.187500
v -0.687500 0.750000 0.187500
v -0.687500 0.625000 0.250000
v -0.687500 0.750000 0.250000
v -0.687500 0.625000 0.312500
v -0.687500 0.750000 0.312500
v -0.687500 0.625000 0.375000
v -0.687500 0.750000 0.375000
v -0.687500 0.625000 0.437500
v -0.687500 0.687500 0.437500
v -0.687500 0.750000 0.437500
v -0.625000 0.687500 -0.437500
v -0.625000 0.625000 -0.437500
v -0.625000 0.625000 -0.375000
v -0.625000 0.750000 -0.437500
v -0.625000 0.750000 -0.375000
v -0.625000 0.625000 -0.312500
v -0.625000 0.750000 -0.312500
v -0.625000 0.625000 -0.250000
v -0.625000 0.750000 -0.250000
v -0.625000 0.625000 -0.187500
v -0.625000 0.750000 -0.187500
v -0.625000 0.625000 -0.125000
v -0.625000 0.750000 -0.125000
v -0.625000 0.625000 -0.062500
v -0.625000 0.750000 -0.062500
v -0.625000 0.625000 0.000000
v -0.625000 0.750000 0.000000
v -0.625000 0.625000 0.062500
v -0.625000 0.750000 0.062500
v -0.625000 0.625000 0.125000
v -0.625000 0.750000 0.125000
v -0.625000 0.625000 0.187500
v -0.625000 0.750000 0.187500
v -0.625000 0.625000 0.250000
v -0.625000 0.750000 0.250000
v -0.625000 0.625000 0.312500
v -0.625000 0.750000 0.312500
v -0.625000 0.625000 0.375000
v -0.625000 0.750000 0.375000
v -0.625000 0.625000 0.437500
v -0.625000 0.687500 0.437500
v -0.625000 0.750000 0.437500
v -0.562500 0.687500 -0.437500
v -0.562500 0.625000 -0.437500
v -0.562500 0.625000 -0.375000
v -0.562500 0.750000 -0.437500
v -0.562500 0.750000 -0.375000
v -0.562500 0.625000 -0.312500
v -0.562500 0.750000 -0.312500
v -0.562500 0.625000 -0.250000
v -0.562500 0.750000 -0.250000
v -0.562500 0.625000 -0.187500
v -0.562500 0.750000 -0.187500
v -0.562500 0.625000 -0.125000
v -0.562500 0.750000 -0.125000
v -0.562500 0.625000 -0.062500
v -0.562500 0.750000 -0.062500
v -0.562500 0.625000 0.000000
v -0.562500 0.750000 0.000000
v -0.562500 0.625000 0.062500
v -0.562500 0.750000 0.062500
v -0.562500 0.625000 0.125000
v -0.562500 0.750000 0.125000
v -0.562500 0.625000 0.187500
v -0.562500 0.750000 0.187500
v -0.562500 0.625000 0.250000
v -0.562500 0.750000 0.250000
v -0.562500 0.625000 0.312500
v -0.562500 0.750000 0.312500
v -0.562500 0.625000 0.375000
v -0.562500 0.750000 0.375000
v -0.562500 0.625000 0.437500
v -0.562500 0.687500 0.437500
v -0.562500 0.750000 0.437500
v -0.500000 0.687500 -0.437500
v -0.500000 0.625000 -0.437500
v -0.500000 0.625000 -0.375000
v -0.500000 0.750000 -0.437500
v -0.500000 0.750000 -0.375000
v -0.500000 0.625000 -0.312500
v -0.500000 0.750000 -0.312500
v -0.500000 0.625000 -0.250000
v -0.500000 0.750000 -0.250000
v -0.500000 0.625000 -0.187500
v -0.500000 0.750000 -0.187500
v -0.500000 0.625000 -0.125000
v -0.500000 0.750000 -0.125000
v -0.500000 0.625000 -0.062500
v -0.500000 0.750000 -0.062500
v -0.500000 0.625000 0.000000
v -0.500000 0.750000 0.000000
v -0.500000 0.625000 0.062500
v -0.500000 0.750000 0.062500
v -0.500000 0.625000 0.125000
v -0.500000 0.750000 0.125000
v -0.500000 0.625000 0.187500
v -0.500000 0.750000 0.187500
v -0.500000 0.625000 0.250000
v -0.500000 0.750000 0.250000
v -0.500000 0.625000 0.312500
v -0.500000 0.750000 0.312500
v -0.500000 0.625000 0.375000
v -0.500000 0.750000 0.375000
v -0.500000 0.625000 0.437500
v -0.500000 0.687500 0.437500
v -0.500000 0.750000 0.437500
v -0.437500 0.687500 -0.437500
v -0.437500 0.625000 -0.437500
v -0.437500 0.625000 -0.375000
v -0.437500 0.750000 -0.437500
v -0.437500 0.750000 -0.375000
v -0.437500 0.625000 -0.312500
v -0.437500 0.750000 -0.312500
v -0.437500 0.625000 -0.250000
v -0.437500 0.750000 -0.250000
v -0.437500 0.625000 -0.187500
v -0.437500 0.750000 -0.187500
v -0.437500 0.625000 -0.125000
v -0.437500 0.750000 -0.125000
v -0.437500 0.625000 -0.062500
v -0.437500 0.750000 -0.062500
v -0.437500 0.625000 0.000000
v -0.437500 0.750000 0.000000
v -0.437500 0.625000 0.062500
v -0.437500 0.750000 0.062500
v -0.437500 0.625000 0.125000
v -0.437500 0.750000 0.125000
v -0.437500 0.625000 0.187500
v -0.437500 0.750000 0.187500
v -0.437500 0.625000 0.250000
v -0.437500 0.750000 0.250000
v -0.437500 0.625000 0.312500
v -0.437500 0.750000 0.312500
v -0.437500 0.625000 0.375000
v -0.437500 0.750000 0.375000
v -0.437500 0.625000 0.437500
v -0.437500 0.687500 0.437500
v -0.437500 0.750000 0.437500
v -0.375000 0.687500 -0.437500
v -0.375000 0.625000 -0.437500
v -0.375000 0.625000 -0.375000
v -0.375000 0.750000 -0.437500
v -0.375000 0.750000 -0.375000
v -0.375000 0.625000 -0.312500
v -0.375000 0.750000 -0.312500
v -0.375000 0.625000 -0.250000
v -0.375000 0.750000 -0.250000
v -0.375000 0.625000 -0.187500
v -0.375000 0.750000 -0.187500
v -0.375000 0.625000 -0.125000
v -0.375000 0.750000 -0.125000
v -0.375000 0.625000 -0.062500
v -0.375000 0.750000 -0.062500
v -0.375000 0.625000 0.000000
v -0.375000 0.750000 0.000000
v -0.375000 0.625000 0.062500
v -0.375000 0.750000 0.062500
v -0.375000 0.625000 0.125000
v -0.375000 0.750000 0.125000
v -0.375000 0.625000 0.187500
v -0.375000 0.750000 0.187500
v -0.375000 0.625000 0.250000
v -0.375000 0.750000 0.250000
v -0.375000 0.625000 0.312500
v -0.375000 0.750000 0.312500
v -0.375000 0.625000 0.375000
v -0.375000 0.750000 0.375000
v -0.375000 0.625000 0.437500
v -0.375000 0.687500 0.437500
v -0.375000 0.750000 0.437500
v -0.312500 0.687500 -0.437500
v -0.312500 0.625000 -0.437500
v -0.312500 0.625000 -0.375000
v -0.312500 0.750000 -0.437500
v -0.312500 0.750000 -0.375000
v -0.312500 0.625000 -0.312500
v -0.312500 0.750000 -0.312500
v -0.312500 0.625000 -0.250000
v -0.312500 0.750000 -0.250000
v -0.312500 0.625000 -0.187500
v -0.312500 0.750000 -0.187500
v -0.312500 0.625000 -0.125000
v -0.312500 0.750000 -0.125000
v -0.312500 0.625000 -0.062500
v -0.312500 0.750000 -0.062500
v -0.312500 0.625000 0.000000
v -0.312500 0.750000 0.000000
v -0.312500 0.625000 0.062500
v -0.312500 0.750000 0.062500
v -0.312500 0.625000 0.125000
v -0.312500 0.750000 0.125000
v -0.312500 0.625000 0.187500
v -0.312500 0.750000 0.187500
v -0.312500 0.625000 0.250000
v -0.312500 0.750000 0.250000
v -0.312500 0.625000 0.312500
v -0.312500 0.750000 0.312500
v -0.312500 0.625000 0.375000
v -0.312500 0.750000 0.375000
v -0.312500 0.625000 0.437500
v -0.312500 0.687500 0.437500
v -0.312500 0.750000 0.437500
v -0.250000 0.687500 -0.437500
v -0.250000 0.625000 -0.437500
v -0.250000 0.625000 -0.375000
v -0.250000 0.750000 -0.437500
v -0.250000 0.750000 -0.375000
v -0.250000 0.625000 -0.312500
v -0.250000 0.750000 -0.312500
v -0.250000 0.625000 -0.250000
v -0.250000 0.750000 -0.250000
v -0.250000 0.625000 -0.187500
v -0.250000 0.750000 -0.187500
v -0.250000 0.625000 -0.125000
v -0.250000 0.750000 -0.125000
v -0.250000 0.625000 -0.062500
v -0.250000 0.750000 -0.062500
v -0.250000 0.625000 0.000000
v -0.250000 0.750000 0.000000
v -0.250000 0.625000 0.062500
v -0.250000 0.750000 0.062500
v -0.250000 0.625000 0.125000
v -0.250000 0.750000 0.125000
v -0.250000 0.625000 0.187500
v -0.250000 0.750000 0.187500
v -0.250000 0.625000 0.250000
v -0.250000 0.750000 0.250000
v -0.250000 0.625000 0.312500
v -0.250000 0.750000 0.312500
v -0.250000 0.625000 0.375000
v -0.250000 0.750000 0.375000
v -0.250000 0.625000 0.437500
v -0.250000 0.687500 0.437500
v -0.250000 0.750000 0.437500
v -0.187500 0.687500 -0.437500
v -0.187500 0.625000 -0.437500
v -0.187500 0.625000 -0.375000
v -0.187500 0.750000 -0.437500
v -0.187500 0.750000 -0.375000
v -0.187500 0.625000 -0.312500
v -0.187500 0.750000 -0.312500
v -0.187500 0.625000 -0.250000
v -0.187500 0.750000 -0.250000
v -0.187500 0.625000 -0.187500
v -0.187500 0.750000 -0.187500
v -0.187500 0.625000 -0.125000
v -0.187500 0.750000 -0.125000
v -0.187500 0.625000 -0.062500
v -0.187500 0.750000 -0.062500
v -0.187500 0.625000 0.000000
v -0.187500 0.750000 0.000000
v -0.187500 0.625000 0.062500
v -0.187500 0.750000 0.062500
v -0.187500 0.625000 0.125000
v -0.187500 0.750000 0.125000
v -0.187500 0.625000 0.187500
v -0.187500 0.750000 0.187500
v -0.187500 0.625000 0.250000
v -0.187500 0.750000 0.250000
v -0.187500 0.625000 0.312500
v -0.187500 0.750000 0.312500
v -0.187500 0.625000 0.375000
v -0.187500 0.750000 0.375000
v -0.187500 0.625000 0.437500
v -0.187500 0.687500 0.437500
v -0.187500 0.750000 0.437500
v -0.125000 0.687500 -0.437500
v -0.125000 0.625000 -0.437500
v -0.125000 0.625000 -0.375000
v -0.125000 0.750000 -0.437500
v -0.125000 0.750000 -0.375000
v -0.125000 0.625000 -0.312500
v -0.125000 0.750000 -0.312500
v -0.125000 0.625000 -0.250000
v -0.125000 0.750000 -0.250000
v -0.125000 0.625000 -0.187500
v -0.125000 0.750000 -0.187500
v -0.125000 0.625000 -0.125000
v -0.125000 0.750000 -0.125000
v -0.125000 0.625000 -0.062500
v -0.125000 0.750000 -0.062500
v -0.125000 0.625000 0.000000
v -0.125000 0.750000 0.000000
v -0.125000 0.625000 0.062500
v -0.125000 0.750000 0.062500
v -0.125000 0.625000 0.125000
v -0.125000 0.750000 0.125000
v -0.125000 0.625000 0.187500
v -0.125000 0.750000 0.187500
v -0.125000 0.625000 0.250000
v -0.125000 0.750000 0.250000
v -0.125000 0.625000 0.312500
v -0.125000 0.750000 0.312500
v -0.125000 0.625000 0.375000
v -0.125000 0.750000 0.375000
v -0.125000 0.625000 0.437500
v -0.125000 0.687500 0.437500
v -0.125000 0.750000 0.437500
v -0.062500 0.687500 -0.437500
v -0.062500 0.625000 -0.437500
v -0.062500 0.625000 -0.375000
v -0.062500 0.750000 -0.437500
v -0.062500 0.750000 -0.375000
v -0.062500 0.625000 -0.312500
v -0.062500 0.750000 -0.312500
v -0.062500 0.625000 -0.250000
v -0.062500 0.750000 -0.250000
v -0.062500 0.625000 -0.187500
v -0.062500 0.750000 -0.187500
v -0.062500 0.625000 -0.125000
v -0.062500 0.750000 -0.125000
v -0.062500 0.625000 -0.062500
v -0.062500 0.750000 -0.062500
v -0.062500 0.625000 0.000000
v -0.062500 0.750000 0.000000
v -0.062500 0.625000 0.062500
v -0.062500 0.750000 0.062500
v -0.062500 0.625000 0.125000
v -0.062500 0.750000 0.125000
v -0.062500 0.625000 0.187500
v -0.062500 0.750000 0.187500
v -0.062500 0.625000 0.250000
v -0.062500 0.750000 0.250000
v -0.062500 0.625000 0.312500
v -0.062500 0.750000 0.312500
v -0.062500 0.625000 0.375000
v -0.062500 0.750000 0.375000
v -0.062500 0.625000 0.437500
v -0.062500 0.687500 0.437500
v -0.062500 0.750000 0.437500
v 0.000000 0.687500 -0.437500
v 0.000000 0.625000 -0.437500
v 0.000000 0.625000 -0.375000
v 0.000000 0.750000 -0.437500
v 0.000000 0.750000 -0.375000
v 0.000000 0.625000 -0.312500
v 0.000000 0.750000 -0.312500
v 0.000000 0.625000 -0.250000
v 0.000000 0.750000 -0.250000
v 0.000000 0.625000 -0.187500
v 0.000000 0.750000 -0.187500
v 0.000000 0.625000 -0.125000
v 0.000000 0.750000 -0.125000
v 0.000000 0.625000 -0.062500
v 0.000000 0.750000 -0.062500
v 0.000000 0.625000 0.000000
v 0.000000 0.750000 0.000000
v 0.000000 0.625000 0.062500
v 0.000000 0.750000 0.062500
v 0.000000 0.625000 0.125000
v 0.000000 0.750000 0.125000
v 0.000000 0.625000 0.187500
v 0.000000 0.750000 0.187500
v 0.000000 0.625000 0.250000
v 0.000000 0.750000 0.250000
v 0.000000 0.625000 0.312500
v 0.000000 0.750000 0.312500
v 0.000000 0.625000 0.375000
v 0.000000 0.750000 0.375000
v 0.000000 0.625000 0.437500
v 0.000000 0.687500 0.437500
v 0.000000 0.750000 0.437500
v 0.062500 0.687500 -0.437500
v 0.062500 0.625000 -0.437500
v 0.062500 0.625000 -0.375000
v 0.062500 0.750000 -0.437500
v 0.062500 0.750000 -0.375000
v 0.062500 0.625000 -0.312500
v 0.062500 0.750000 -0.312500
v 0.062500 0.625000 -0.250000
v 0.062500 0.750000 -0.250000
v 0.062500 0.625000 -0.187500
v 0.062500 0.750000 -0.187500
v 0.062500 0.625000 -0.125000
v 0.062500 0.750000 -0.125000
v 0.062500 0.625000 -0.062500
v 0.062500 0.750000 -0.062500
v 0.062500 0.625000 0.000000
v 0.062500 0.750000 0.000000
v 0.062500 0.625000 0.062500
v 0.062500 0.750000 0.062500
v 0.062500 0.625000 0.125000
v 0.062500 0.750000 0.125000
v 0.062500 0.625000 0.187500
v 0.062500 0.750000 0.187500
v 0.062500 0.625000 0.250000
v 0.062500 0.750000 0.250000
v 0.062500 0.625000 0.312500
v 0.062500 0.750000 0.312500
v 0.062500 0.625000 0.375000
v 0.062500 0.750000 0.375000
v 0.062500 0.625000 0.437500
v 0.062500 0.687500 0.437500
v 0.062500 0.750000 0.437500
v 0.125000 0.687500 -0.437500
v 0.125000 0.625000 -0.437500
v 0.125000 0.625000 -0.375000
v 0.125000 0.750000 -0.437500
v 0.125000 0.750000 -0.375000
v 0.125000 0.625000 -0.312500
v 0.125000 0.750000 -0.312500
v 0.125000 0.625000 -0.250000
v 0.125000 0.750000 -0.250000
v 0.125000 0.625000 -0.187500
v 0.125000 0.750000 -0.187500
v 0.125000 0.625000 -0.125000
v 0.125000 0.750000 -0.125000
v 0.125000 0.625000 -0.062500
v 0.125000 0.750000 -0.062500
v 0.125000 0.625000 0.000000
v 0.125000 0.750000 0.000000
v 0.125000 0.625000 0.062500
v 0.125000 0.750000 0.062500
v 0.125000 0.625000 0.125000
v 0.125000 0.750000 0.125000
v 0.125000 0.625000 0.187500
v 0.125000 0.750000 0.187500
v 0.125000 0.625000 0.250000
v 0.125000 0.750000 0.250000
v 0.125000 0.625000 0.312500
v 0.125000 0.750000 0.312500
v 0.125000 0.625000 0.375000
v 0.125000 0.750000 0.375000
v 0.125000 0.625000 0.437500
v 0.125000 0.687500 0.437500
v 0.125000 0.750000 0.437500
v 0.187500 0.687500 -0.437500
v 0.187500 0.625000 -0.437500
v 0.187500 0.625000 -0.375000
v 0.187500 0.750000 -0.437500
v 0.187500 0.750000 -0.375000
v 0.187500 0.625000 -0.312500
v 0.187500 0.750000 -0.312500
v 0.187500 0.625000 -0.250000
v 0.187500 0.750000 -0.250000
v 0.187500 0.625000 -0.187500
v 0.187500 0.750000 -0.187500
v 0.187500 0.625000 -0.125000
v 0.187500 0.750000 -0.125000
v 0.187500 0.625000 -0.062500
v 0.187500 0.750000 -0.062500
v 0.187500 0.625000 0.000000
v 0.187500 0.750000 0.000000
v 0.187500 0.625000 0.062500
v 0.187500 0.750000 0.062500
v 0.187500 0.625000 0.125000
v 0.187500 0.750000 0.125000
v 0.187500 0.625000 0.187500
v 0.187500 0.750000 0.187500
v 0.187500 0.625000 0.250000
v 0.187500 0.750000 0.250000
v 0.187500 0.625000 0.312500
v 0.187500 0.750000 0.312500
v 0.187500 0.625000 0.375000
v 0.187500 0.750000 0.375000
v 0.187500 0.625000 0.437500
v 0.187500 0.687500 0.437500
v 0.187500 0.750000 0.437500
v 0.250000 0.687500 -0.437500
v 0.250000 0.625000 -0.437500
v 0.250000 0.625000 -0.375000
v 0.250000 0.750000 -0.437500
v 0.250000 0.750000 -0.375000
v 0.250000 0.625000 -0.312500
v 0.250000 0.750000 -0.312500
v 0.250000 0.625000 -0.250000
v 0.250000 0.750000 -0.250000
v 0.250000 0.625000 -0.187500
v 0.250000 0.750000 -0.187500
v 0.250000 0.625000 -0.125000
v 0.250000 0.750000 -0.125000
v 0.250000 0.625000 -0.062500
v 0.250000 0.750000 -0.062500
v 0.250000 0.625000 0.000000
v 0.250000 0.750000 0.000000
v 0.250000 0.625000 0.062500
v 0.250000 0.750000 0.062500
v 0.250000 0.625000 0.125000
v 0.250000 0.750000 0.125000
v 0.250000 0.625000 0.187500
v 0.250000 0.750000 0.187500
v 0.250000 0.625000 0.250000
v 0.250000 0.750000 0.250000
v 0.250000 0.625000 0.312500
v 0.250000 0.750000 0.312500
v 0.250000 0.625000 0.375000
v 0.250000 0.750000 0.375000
v 0.250000 0.625000 0.437500
v 0.250000 0.687500 0.437500
v 0.250000 0.750000 0.437500
v 0.312500 0.687500 -0.437500
v 0.312500 0.625000 -0.437500
v 0.312500 0.625000 -0.375000
v 0.312500 0.750000 -0.437500
v 0.312500 0.750000 -0.375000
v 0.312500 0.625000 -0.312500
v 0.312500 0.750000 -0.312500
v 0.312500 0.625000 -0.250000
v 0.312500 0.750000 -0.250000
v 0.312500 0.625000 -0.187500
v 0.312500 0.750000 -0.187500
v 0.312500 0.625000 -0.125000
v 0.312500 0.750000 -0.125000
v 0.312500 0.625000 -0.062500
v 0.312500 0.750000 -0.062500
v 0.312500 0.625000 0.000000
v 0.312500 0.750000 0.000000
v 0.312500 0.625000 0.062500
v 0.312500 0.750000 0.062500
v 0.312500 0.625000 0.125000
v 0.312500 0.750000 0.125000
v 0.312500 0.625000 0.187500
v 0.312500 0.750000 0.187500
v 0.312500 0.625000 0.250000
v 0.312500 0.750000 0.250000
v 0.312500 0.625000 0.312500
v 0.312500 0.750000 0.312500
v 0.312500 0.625000 0.375000
v 0.312500 0.750000 0.375000
v 0.312500 0.625000 0.437500
v 0.312500 0.687500 0.437500
v 0.312500 0.750000 0.437500
v 0.375000 0.687500 -0.437500
v 0.375000 0.625000 -0.437500
v 0.375000 0.625000 -0.375000
v 0.375000 0.750000 -0.437500
v 0.375000 0.750000 -0.375000
v 0.375000 0.625000 -0.312500
v 0.375000 0.750000 -0.312500
v 0.375000 0.625000 -0.250000
v 0.375000 0.750000 -0.250000
v 0.375000 0.625000 -0.187500
v 0.375000 0.750000 -0.187500
v 0.375000 0.625000 -0.125000
v 0.375000 0.750000 -0.125000
v 0.375000 0.625000 -0.062500
v 0.375000 0.750000 -0.062500
v 0.375000 0.625000 0.000000
v 0.375000 0.750000 0.000000
v 0.375000 0.625000 0.062500
v 0.375000 0.750000 0.062500
v 0.375000 0.625000 0.125000
v 0.375000 0.750000 0.125000
v 0.375000 0.625000 0.187500
v 0.375000 0.750000 0.187500
v 0.375000 0.625000 0.250000
v 0.375000 0.750000 0.250000
v 0.375000 0.625000 0.312500
v 0.375000 0.750000 0.312500
v 0.375000 0.625000 0.375000
v 0.375000 0.750000 0.375000
v 0.375000 0.625000 0.437500
v 0.375000 0.687500 0.437500
v 0.375000 0.750000 0.437500
v 0.437500 0.687500 -0.437500
v 0.437500 0.625000 -0.437500
v 0.437500 0.625000 -0.375000
v 0.437500 0.750000 -0.437500
v 0.437500 0.750000 -0.375000
v 0.437500 0.625000 -0.312500
v 0.437500 0.750000 -0.312500
v 0.437500 0.625000 -0.250000
v 0.437500 0.750000 -0.250000
v 0.437500 0.625000 -0.187500
v 0.437500 0.750000 -0.187500
v 0.437500 0.625000 -0.125000
v 0.437500 0.750000 -0.125000
v 0.437500 0.625000 -0.062500
v 0.437500 0.750000 -0.062500
v 0.437500 0.625000 0.000000
v 0.437500 0.750000 0.000000
v 0.437500 0.625000 0.062500
v 0.437500 0.750000 0.062500
v 0.437500 0.625000 0.125000
v 0.437500 0.750000 0.125000
v 0.437500 0.625000 0.187500
v 0.437500 0.750000 0.187500
v 0.437500 0.625000 0.250000
v 0.437500 0.750000 0.250000
v 0.437500 0.625000 0.312500
v 0.437500 0.750000 0.312500
v 0.437500 0.625000 0.375000
v 0.437500 0.750000 0.375000
v 0.437500 0.625000 0.437500
v 0.437500 0.687500 0.437500
v 0.437500 0.750000 0.437500
v 0.500000 0.687500 -0.437500
v 0.500000 0.625000 -0.437500
v 0.500000 0.625000 -0.375000
v 0.500000 0.750000 -0.437500
v 0.500000 0.750000 -0.375000
v 0.500000 0.625000 -0.312500
v 0.500000 0.750000 -0.312500
v 0.500000 0.625000 -0.250000
v 0.500000 0.750000 -0.250000
v 0.500000 0.625000 -0.187500
v 0.500000 0.750000 -0.187500
v 0.500000 0.625000 -0.125000
v 0.500000 0.750000 -0.125000
v 0.500000 0.625000 -0.062500
v 0.500000 0.750000 -0.062500
v 0.500000 0.625000 0.000000
v 0.500000 0.750000 0.000000
v 0.500000 0.625000 0.062500
v 0.500000 0.750000 0.062500
v 0.500000 0.625000 0.125000
v 0.500000 0.750000 0.125000
v 0.500000 0.625000 0.187500
v 0.500000 0.750000 0.187500
v 0.500000 0.625000 0.250000
v 0.500000 0.750000 0.250000
v 0.500000 0.625000 0.312500
v 0.500000 0.750000 0.312500
v 0.500000 0.625000 0.375000
v 0.500000 0.750000 0.375000
v 0.500000 0.625000 0.437500
v 0.500000 0.687500 0.437500
v 0.500000 0.750000 0.437500
v 0.562500 0.687500 -0.437500
v 0.562500 0.625000 -0.437500
v 0.562500 0.625000 -0.375000
v 0.562500 0.750000 -0.437500
v 0.562500 0.750000 -0.375000
v 0.562500 0.625000 -0.312500
v 0.562500 0.750000 -0.312500
v 0.562500 0.625000 -0.250000
v 0.562500 0.750000 -0.250000
v 0.562500 0.625000 -0.187500
v 0.562500 0.750000 -0.187500
v 0.562500 0.625000 -0.125000
v 0.562500 0.750000 -0.125000
v 0.562500 0.625000 -0.062500
v 0.562500 0.750000 -0.062500
v 0.562500 0.625000 0.000000
v 0.562500 0.750000 0.000000
v 0.562500 0.625000 0.062500
v 0.562500 0.750000 0.062500
v 0.562500 0.625000 0.125000
v 0.562500 0.750000 0.125000
v 0.562500 0.625000 0.187500
v 0.562500 0.750000 0.187500
v 0.562500 0.625000 0.250000
v 0.562500 0.750000 0.250000
v 0.562500 0.625000 0.312500
v 0.562500 0.750000 0.312500
v 0.562500 0.625000 0.375000
v 0.562500 0.750000 0.375000
v 0.562500 0.625000 0.437500
v 0.562500 0.687500 0.437500
v 0.562500 0.750000 0.437500
v 0.625000 0.687500 -0.437500
v 0.625000 0.625000 -0.437500
v 0.625000 0.625000 -0.375000
v 0.625000 0.750000 -0.437500
v 0.625000 0.750000 -0.375000
v 0.625000 0.625000 -0.312500
v 0.625000 0.750000 -0.312500
v 0.625000 0.625000 -0.250000
v 0.625000 0.750000 -0.250000
v 0.625000 0.625000 -0.187500
v 0.625000 0.750000 -0.187500
v 0.625000 0.625000 -0.125000
v 0.625000 0.750000 -0.125000
v 0.625000 0.625000 -0.062500
v 0.625000 0.750000 -0.062500
v 0.625000 0.625000 0.000000
v 0.625000 0.750000 0.000000
v 0.625000 0.625000 0.062500
v 0.625000 0.750000 0.062500
v 0.625000 0.625000 0.125000
v 0.625000 0.750000 0.125000
v 0.625000 0.625000 0.187500
v 0.625000 0.750000 0.187500
v 0.625000 0.625000 0.250000
v 0.625000 0.750000 0.250000
v 0.625000 0.625000 0.312500
v 0.625000 0.750000 0.312500
v 0.625000 0.625000 0.375000
v 0.625000 0.750000 0.375000
v 0.625000 0.625000 0.437500
v 0.625000 0.687500 0.437500
v 0.625000 0.750000 0.437500
v 0.687500 0.687500 -0.437500
v 0.687500 0.625000 -0.437500
v 0.687500 0.625000 -0.375000
v 0.687500 0.750000 -0.437500
v 0.687500 0.750000 -0.375000
v 0.687500 0.625000 -0.312500
v 0.687500 0.750000 -0.312500
v 0.687500 0.625000 -0.250000
v 0.687500 0.750000 -0.250000
v 0.687500 0.625000 -0.187500
v 0.687500 0.750000 -0.187500
v 0.687500 0.625000 -0.125000
v 0.687500 0.750000 -0.125000
v 0.687500 0.625000 -0.062500
v 0.687500 0.750000 -0.062500
v 0.687500 0.625000 0.000000
v 0.687500 0.750000 0.000000
v 0.687500 0.625000 0.062500
v 0.687500 0.750000 0.062500
v 0.687500 0.625000 0.125000
v 0.687500 0.750000 0.125000
v 0.687500 0.625000 0.187500
v 0.687500 0.750000 0.187500
v 0.687500 0.625000 0.250000
v 0.687500 0.750000 0.250000
v 0.687500 0.625000 0.312500
v 0.687500 0.750000 0.312500
v 0.687500 0.625000 0.375000
v 0.687500 0.750000 0.375000
v 0.687500 0.625000 0.437500
v 0.687500 0.687500 0.437500
v 0.687500 0.750000 0.437500
v 0.750000 0.687500 -0.437500
v 0.750000 0.625000 -0.437500
v 0.750000 0.625000 -0.375000
v 0.750000 0.750000 -0.437500
v 0.750000 0.750000 -0.375000
v 0.750000 0.625000 -0.312500
v 0.750000 0.750000 -0.312500
v 0.750000 0.625000 -0.250000
v 0.750000 0.750000 -0.250000
v 0.750000 0.625000 -0.187500
v 0.750000 0.750000 -0.187500
v 0.750000 0.625000 -0.125000
v 0.750000 0.750000 -0.125000
v 0.750000 0.625000 -0.062500
v 0.750000 0.750000 -0.062500
v 0.750000 0.625000 0.000000
v 0.750000 0.750000 0.000000
v 0.750000 0.625000 0.062500
v 0.750000 0.750000 0.062500
v 0.750000 0.625000 0.125000
v 0.750000 0.750000 0.125000
v 0.750000 0.625000 0.187500
v 0.750000 0.750000 0.187500
v 0.750000 0.625000 0.250000
v 0.750000 0.750000 0.250000
v 0.750000 0.625000 0.312500
v 0.750000 0.750000 0.312500
v 0.750000 0.625000 0.375000
v 0.750000 0.750000 0.375000
v 0.750000 0.625000 0.437500
v 0.750000 0.687500 0.437500
v 0.750000 0.750000 0.437500
v 0.812500 0.687500 -0.437500
v 0.812500 0.625000 -0.437500
v 0.812500 0.625000 -0.375000
v 0.812500 0.750000 -0.437500
v 0.812500 0.750000 -0.375000
v 0.750000 0.000000 -0.312500
v 0.750000 0.062500 -0.312500
v 0.750000 0.062500 -0.375000
v 0.750000 0.000000 -0.375000
v 0.812500 0.062500 -0.375000
v 0.812500 0.000000 -0.375000
v 0.812500 0.000000 -0.312500
v 0.750000 0.125000 -0.312500
v 0.750000 0.125000 -0.375000
v 0.812500 0.125000 -0.375000
v 0.750000 0.187500 -0.312500
v 0.750000 0.187500 -0.375000
v 0.812500 0.187500 -0.375000
v 0.750000 0.250000 -0.312500
v 0.750000 0.250000 -0.375000
v 0.812500 0.250000 -0.375000
v 0.750000 0.312500 -0.312500
v 0.750000 0.312500 -0.375000
v 0.812500 0.312500 -0.375000
v 0.750000 0.375000 -0.312500
v 0.750000 0.375000 -0.375000
v 0.812500 0.375000 -0.375000
v 0.750000 0.437500 -0.312500
v 0.750000 0.437500 -0.375000
v 0.812500 0.437500 -0.375000
v 0.750000 0.500000 -0.312500
v 0.750000 0.500000 -0.375000
v 0.812500 0.500000 -0.375000
v 0.750000 0.562500 -0.312500
v 0.750000 0.562500 -0.375000
v 0.812500 0.562500 -0.375000
v 0.812500 0.750000 -0.312500
v 0.750000 0.000000 -0.250000
v 0.750000 0.062500 -0.250000
v 0.812500 0.000000 -0.250000
v 0.812500 0.062500 -0.250000
v 0.750000 0.125000 -0.250000
v 0.812500 0.125000 -0.250000
v 0.750000 0.187500 -0.250000
v 0.812500 0.187500 -0.250000
v 0.750000 0.250000 -0.250000
v 0.812500 0.250000 -0.250000
v 0.750000 0.312500 -0.250000
v 0.812500 0.312500 -0.250000
v 0.750000 0.375000 -0.250000
v 0.812500 0.375000 -0.250000
v 0.750000 0.437500 -0.250000
v 0.812500 0.437500 -0.250000
v 0.750000 0.500000 -0.250000
v 0.812500 0.500000 -0.250000
v 0.750000 0.562500 -0.250000
v 0.812500 0.562500 -0.250000
v 0.812500 0.625000 -0.250000
v 0.812500 0.750000 -0.250000
v 0.812500 0.625000 -0.187500
v 0.812500 0.750000 -0.187500
v 0.812500 0.625000 -0.125000
v 0.812500 0.750000 -0.125000
v 0.812500 0.625000 -0.062500
v 0.812500 0.750000 -0.062500
v 0.812500 0.625000 0.000000
v 0.812500 0.750000 0.000000
v 0.812500 0.625000 0.062500
v 0.812500 0.750000 0.062500
v 0.812500 0.625000 0.125000
v 0.812500 0.750000 0.125000
v 0.812500 0.625000 0.187500
v 0.812500 0.750000 0.187500
v 0.812500 0.625000 0.250000
v 0.812500 0.750000 0.250000
v 0.750000 0.000000 0.312500
v 0.750000 0.062500 0.312500
v 0.750000 0.062500 0.250000
v 0.750000 0.000000 0.250000
v 0.812500 0.062500 0.250000
v 0.812500 0.000000 0.250000
v 0.812500 0.000000 0.312500
v 0.750000 0.125000 0.312500
v 0.750000 0.125000 0.250000
v 0.812500 0.125000 0.250000
v 0.750000 0.187500 0.312500
v 0.750000 0.187500 0.250000
v 0.812500 0.187500 0.250000
v 0.750000 0.250000 0.312500
v 0.750000 0.250000 0.250000
v 0.812500 0.250000 0.250000
v 0.750000 0.312500 0.312500
v 0.750000 0.312500 0.250000
v 0.812500 0.312500 0.250000
v 0.750000 0.375000 0.312500
v 0.750000 0.375000 0.250000
v 0.812500 0.375000 0.250000
v 0.750000 0.437500 0.312500
v 0.750000 0.437500 0.250000
v 0.812500 0.437500 0.250000
v 0.750000 0.500000 0.312500
v 0.750000 0.500000 0.250000
v 0.812500 0.500000 0.250000
v 0.750000 0.562500 0.312500
v 0.750000 0.562500 0.250000
v 0.812500 0.562500 0.250000
v 0.812500 0.750000 0.312500
v 0.750000 0.000000 0.375000
v 0.750000 0.062500 0.375000
v 0.812500 0.000000 0.375000
v 0.812500 0.062500 0.375000
v 0.750000 0.125000 0.375000
v 0.812500 0.125000 0.375000
v 0.750000 0.187500 0.375000
v 0.812500 0.187500 0.375000
v 0.750000 0.250000 0.375000
v 0.812500 0.250000 0.375000
v 0.750000 0.312500 0.375000
v 0.812500 0.312500 0.375000
v 0.750000 0.375000 0.375000
v 0.812500 0.375000 0.375000
v 0.750000 0.437500 0.375000
v 0.812500 0.437500 0.375000
v 0.750000 0.500000 0.375000
v 0.812500 0.500000 0.375000
v 0.750000 0.562500 0.375000
v 0.812500 0.562500 0.375000
v 0.812500 0.625000 0.375000
v 0.812500 0.750000 0.375000
v 0.812500 0.625000 0.437500
v 0.812500 0.687500 0.437500
v 0.812500 0.750000 0.437500
v 0.875000 0.687500 -0.437500
v 0.875000 0.625000 -0.437500
v 0.875000 0.625000 -0.375000
v 0.875000 0.750000 -0.437500
v 0.875000 0.750000 -0.375000
v 0.875000 0.062500 -0.375000
v 0.875000 0.062500 -0.312500
v 0.875000 0.000000 -0.312500
v 0.875000 0.000000 -0.375000
v 0.875000 0.125000 -0.375000
v 0.875000 0.125000 -0.312500
v 0.875000 0.187500 -0.375000
v 0.875000 0.187500 -0.312500
v 0.875000 0.250000 -0.375000
v 0.875000 0.250000 -0.312500
v 0.875000 0.312500 -0.375000
v 0.875000 0.312500 -0.312500
v 0.875000 0.375000 -0.375000
v 0.875000 0.375000 -0.312500
v 0.875000 0.437500 -0.375000
v 0.875000 0.437500 -0.312500
v 0.875000 0.500000 -0.375000
v 0.875000 0.500000 -0.312500
v 0.875000 0.562500 -0.375000
v 0.875000 0.562500 -0.312500
v 0.875000 0.625000 -0.312500
v 0.875000 0.750000 -0.312500
v 0.875000 0.062500 -0.250000
v 0.875000 0.000000 -0.250000
v 0.875000 0.125000 -0.250000
v 0.875000 0.187500 -0.250000
v 0.875000 0.250000 -0.250000
v 0.875000 0.312500 -0.250000
v 0.875000 0.375000 -0.250000
v 0.875000 0.437500 -0.250000
v 0.875000 0.500000 -0.250000
v 0.875000 0.562500 -0.250000
v 0.875000 0.625000 -0.250000
v 0.875000 0.750000 -0.250000
v 0.875000 0.625000 -0.187500
v 0.875000 0.750000 -0.187500
v 0.875000 0.625000 -0.125000
v 0.875000 0.750000 -0.125000
v 0.875000 0.625000 -0.062500
v 0.875000 0.750000 -0.062500
v 0.875000 0.625000 0.000000
v 0.875000 0.750000 0.000000
v 0.875000 0.625000 0.062500
v 0.875000 0.750000 0.062500
v 0.875000 0.625000 0.125000
v 0.875000 0.750000 0.125000
v 0.875000 0.625000 0.187500
v 0.875000 0.750000 0.187500
v 0.875000 0.625000 0.250000
v 0.875000 0.750000 0.250000
v 0.875000 0.062500 0.250000
v 0.875000 0.062500 0.312500
v 0.875000 0.000000 0.312500
v 0.875000 0.000000 0.250000
v 0.875000 0.125000 0.250000
v 0.875000 0.125000 0.312500
v 0.875000 0.187500 0.250000
v 0.875000 0.187500 0.312500
v 0.875000 0.250000 0.250000
v 0.875000 0.250000 0.312500
v 0.875000 0.312500 0.250000
v 0.875000 0.312500 0.312500
v 0.875000 0.375000 0.250000
v 0.875000 0.375000 0.312500
v 0.875000 0.437500 0.250000
v 0.875000 0.437500 0.312500
v 0.875000 0.500000 0.250000
v 0.875000 0.500000 0.312500
v 0.875000 0.562500 0.250000
v 0.875000 0.562500 0.312500
v 0.875000 0.625000 0.312500
v 0.875000 0.750000 0.312500
v 0.875000 0.062500 0.375000
v 0.875000 0.000000 0.375000
v 0.875000 0.125000 0.375000
v 0.875000 0.187500 0.375000
v 0.875000 0.250000 0.375000
v 0.875000 0.312500 0.375000
v 0.875000 0.375000 0.375000
v 0.875000 0.437500 0.375000
v 0.875000 0.500000 0.375000
v 0.875000 0.562500 0.375000
v 0.875000 0.625000 0.375000
v 0.875000 0.750000 0.375000
v 0.875000 0.625000 0.437500
v 0.875000 0.687500 0.437500
v 0.875000 0.750000 0.437500
v 0.937500 0.687500 -0.437500
v 0.937500 0.687500 -0.375000
v 0.937500 0.625000 -0.375000
v 0.937500 0.625000 -0.437500
v 0.937500 0.750000 -0.437500
v 0.937500 0.750000 -0.375000
v 0.937500 0.687500 -0.312500
v 0.937500 0.625000 -0.312500
v 0.937500 0.750000 -0.312500
v 0.937500 0.687500 -0.250000
v 0.937500 0.625000 -0.250000
v 0.937500 0.750000 -0.250000
v 0.937500 0.687500 -0.187500
v 0.937500 0.625000 -0.187500
v 0.937500 0.750000 -0.187500
v 0.937500 0.687500 -0.125000
v 0.937500 0.625000 -0.125000
v 0.937500 0.750000 -0.125000
v 0.937500 0.687500 -0.062500
v 0.937500 0.625000 -0.062500
v 0.937500 0.750000 -0.062500
v 0.937500 0.687500 0.000000
v 0.937500 0.625000 0.000000
v 0.937500 0.750000 0.000000
v 0.937500 0.687500 0.062500
v 0.937500 0.625000 0.062500
v 0.937500 0.750000 0.062500
v 0.937500 0.687500 0.125000
v 0.937500 0.625000 0.125000
v 0.937500 0.750000 0.125000
v 0.937500 0.687500 0.187500
v 0.937500 0.625000 0.187500
v 0.937500 0.750000 0.187500
v 0.937500 0.687500 0.250000
v 0.937500 0.625000 0.250000
v 0.937500 0.750000 0.250000
v 0.937500 0.687500 0.312500
v 0.937500 0.625000 0.312500
v 0.937500 0.750000 0.312500
v 0.937500 0.687500 0.375000
v 0.937500 0.625000 0.375000
v 0.937500 0.750000 0.375000
v 0.937500 0.687500 0.437500
v 0.937500 0.625000 0.437500
v 0.937500 0.750000 0.437500
vt 0.03125000 0.96875000
vt 0.09375000 0.96875000
vt 0.15625000 0.96875000
vt 0.21875000 0.96875000
vt 0.28125000 0.96875000
vt 0.34375000 0.96875000
vt 0.40625000 0.96875000
vt 0.46875000 0.96875000
vt 0.53125000 0.96875000
vt 0.59375000 0.96875000
vt 0.65625000 0.96875000
vt 0.71875000 0.96875000
vt 0.78125000 0.96875000
vt 0.84375000 0.96875000
vt 0.90625000 0.96875000
vt 0.96875000 0.96875000
vt 0.03125000 0.90625000
vt 0.09375000 0.90625000
vt 0.15625000 0.90625000
vt 0.21875000 0.90625000
vt 0.28125000 0.90625000
vt 0.34375000 0.90625000
vt 0.40625000 0.90625000
vt 0.46875000 0.90625000
vt 0.53125000 0.90625000
vt 0.59375000 0.90625000
vt 0.65625000 0.90625000
vt 0.71875000 0.90625000
vt 0.78125000 0.90625000
vt 0.84375000 0.90625000
vt 0.90625000 0.90625000
vt 0.96875000 0.90625000
vt 0.03125000 0.84375000
vt 0.09375000 0.84375000
vt 0.15625000 0.84375000
vt 0.21875000 0.84375000
vt 0.28125000 0.84375000
vt 0.34375000 0.84375000
vt 0.40625000 0.84375000
vt 0.46875000 0.84375000
vt 0.53125000 0.84375000
vt 0.59375000 0.84375000
vt 0.65625000 0.84375000
vt 0.71875000 0.84375000
vt 0.78125000 0.84375000
vt 0.84375000 0.84375000
vt 0.90625000 0.84375000
vt 0.96875000 0.84375000
vt 0.03125000 0.78125000
vt 0.09375000 0.78125000
vt 0.15625000 0.78125000
vt 0.21875000 0.78125000
vt 0.28125000 0.78125000
vt 0.34375000 0.78125000
vt 0.40625000 0.78125000
vt 0.46875000 0.78125000
vt 0.53125000 0.78125000
vt 0.59375000 0.78125000
vt 0.65625000 0.78125000
vt 0.71875000 0.78125000
vt 0.78125000 0.78125000
vt 0.84375000 0.78125000
vt 0.90625000 0.78125000
vt 0.96875000 0.78125000
vt 0.03125000 0.71875000
vt 0.09375000 0.71875000
vt 0.15625000 0.71875000
vt 0.21875000 0.71875000
vt 0.28125000 0.71875000
vt 0.34375000 0.71875000
vt 0.40625000 0.71875000
vt 0.46875000 0.71875000
vt 0.53125000 0.71875000
vt 0.59375000 0.71875000
vt 0.65625000 0.71875000
vt 0.71875000 0.71875000
vt 0.78125000 0.71875000
vt 0.84375000 0.71875000
vt 0.90625000 0.71875000
vt 0.96875000 0.71875000
vt 0.03125000 0.65625000
vt 0.09375000 0.65625000
vt 0.15625000 0.65625000
vt 0.21875000 0.65625000
vt 0.28125000 0.65625000
vt 0.34375000 0.65625000
vt 0.40625000 0.65625000
vt 0.46875000 0.65625000
vt 0.53125000 0.65625000
vt 0.59375000 0.65625000
vt 0.65625000 0.65625000
vt 0.71875000 0.65625000
vt 0.78125000 0.65625000
vt 0.84375000 0.65625000
vt 0.90625000 0.65625000
vt 0.96875000 0.65625000
vt 0.03125000 0.59375000
vt 0.09375000 0.59375000
vt 0.15625000 0.59375000
vt 0.21875000 0.59375000
vt 0.28125000 0.59375000
vt 0.34375000 0.59375000
vt 0.40625000 0.59375000
vt 0.46875000 0.59375000
vt 0.53125000 0.59375000
vt 0.59375000 0.59375000
vt 0.65625000 0.59375000
vt 0.71875000 0.59375000
vt 0.78125000 0.59375000
vt 0.84375000 0.59375000
vt 0.90625000 0.59375000
vt 0.96875000 0.59375000
vt 0.03125000 0.53125000
vt 0.09375000 0.53125000
vt 0.15625000 0.53125000
vt 0.21875000 0.53125000
vt 0.28125000 0.53125000
vt 0.34375000 0.53125000
vt 0.40625000 0.53125000
vt 0.46875000 0.53125000
vt 0.53125000 0.53125000
vt 0.59375000 0.53125000
vt 0.65625000 0.53125000
vt 0.71875000 0.53125000
vt 0.78125000 0.53125000
vt 0.84375000 0.53125000
vt 0.90625000 0.53125000
vt 0.96875000 0.53125000
vt 0.03125000 0.46875000
vt 0.09375000 0.46875000
vt 0.15625000 0.46875000
vt 0.21875000 0.46875000
vt 0.28125000 0.46875000
vt 0.34375000 0.46875000
vt 0.40625000 0.46875000
vt 0.46875000 0.46875000
vt 0.53125000 0.46875000
vt 0.59375000 0.46875000
vt 0.65625000 0.46875000
vt 0.71875000 0.46875000
vt 0.78125000 0.46875000
vt 0.84375000 0.46875000
vt 0.90625000 0.46875000
vt 0.96875000 0.46875000
vt 0.03125000 0.40625000
vt 0.09375000 0.40625000
vt 0.15625000 0.40625000
vt 0.21875000 0.40625000
vt 0.28125000 0.40625000
vt 0.34375000 0.40625000
vt 0.40625000 0.40625000
vt 0.46875000 0.40625000
vt 0.53125000 0.40625000
vt 0.59375000 0.40625000
vt 0.65625000 0.40625000
vt 0.71875000 0.40625000
vt 0.78125000 0.40625000
vt 0.84375000 0.40625000
vt 0.90625000 0.40625000
vt 0.96875000 0.40625000
vt 0.03125000 0.34375000
vt 0.09375000 0.34375000
vt 0.15625000 0.34375000
vt 0.21875000 0.34375000
vt 0.28125000 0.34375000
vt 0.34375000 0.34375000
vt 0.40625000 0.34375000
vt 0.46875000 0.34375000
vt 0.53125000 0.34375000
vt 0.59375000 0.34375000
vt 0.65625000 0.34375000
vt 0.71875000 0.34375000
vt 0.78125000 0.34375000
vt 0.84375000 0.34375000
vt 0.90625000 0.34375000
vt 0.96875000 0.34375000
vt 0.03125000 0.28125000
vt 0.09375000 0.28125000
vt 0.15625000 0.28125000
vt 0.21875000 0.28125000
vt 0.28125000 0.28125000
vt 0.34375000 0.28125000
vt 0.40625000 0.28125000
vt 0.46875000 0.28125000
vt 0.53125000 0.28125000
vt 0.59375000 0.28125000
vt 0.65625000 0.28125000
vt 0.71875000 0.28125000
vt 0.78125000 0.28125000
vt 0.84375000 0.28125000
vt 0.90625000 0.28125000
vt 0.96875000 0.28125000
vt 0.03125000 0.21875000
vt 0.09375000 0.21875000
vt 0.15625000 0.21875000
vt 0.21875000 0.21875000
vt 0.28125000 0.21875000
vt 0.34375000 0.21875000
vt 0.40625000 0.21875000
vt 0.46875000 0.21875000
vt 0.53125000 0.21875000
vt 0.59375000 0.21875000
vt 0.65625000 0.21875000
vt 0.71875000 0.21875000
vt 0.78125000 0.21875000
vt 0.84375000 0.21875000
vt 0.90625000 0.21875000
vt 0.96875000 0.21875000
vt 0.03125000 0.15625000
vt 0.09375000 0.15625000
vt 0.15625000 0.15625000
vt 0.21875000 0.15625000
vt 0.28125000 0.15625000
vt 0.34375000 0.15625000
vt 0.40625000 0.15625000
vt 0.46875000 0.15625000
vt 0.53125000 0.15625000
vt 0.59375000 0.15625000
vt 0.65625000 0.15625000
vt 0.71875000 0.15625000
vt 0.78125000 0.15625000
vt 0.84375000 0.15625000
vt 0.90625000 0.15625000
vt 0.96875000 0.15625000
vt 0.03125000 0.09375000
vt 0.09375000 0.09375000
vt 0.15625000 0.09375000
vt 0.21875000 0.09375000
vt 0.28125000 0.09375000
vt 0.34375000 0.09375000
vt 0.40625000 0.09375000
vt 0.46875000 0.09375000
vt 0.53125000 0.09375000
vt 0.59375000 0.09375000
vt 0.65625000 0.09375000
vt 0.71875000 0.09375000
vt 0.78125000 0.09375000
vt 0.84375000 0.09375000
vt 0.90625000 0.09375000
vt 0.96875000 0.09375000
vt 0.03125000 0.03125000
vt 0.09375000 0.03125000
vt 0.15625000 0.03125000
vt 0.21875000 0.03125000
vt 0.28125000 0.03125000
vt 0.34375000 0.03125000
vt 0.40625000 0.03125000
vt 0.46875000 0.03125000
vt 0.53125000 0.03125000
vt 0.59375000 0.03125000
vt 0.65625000 0.03125000
vt 0.71875000 0.03125000
vt 0.78125000 0.03125000
vt 0.84375000 0.03125000
vt 0.90625000 0.03125000
vt 0.96875000 0.03125000
vn -1 0 0
vn 1 0 0
vn 0 0 -1
vn 0 0 1
vn 0 -1 0
vn 0 1 0
g palette
usemtl palette
f 1/37/1 2/37/1 3/37/1 4/37/1
f 3/37/3 5/37/3 6/37/3 4/37/3
f 6/37/5 7/37/5 1/37/5 4/37/5
f 2/37/1 8/37/1 9/37/1 3/37/1
f 9/37/3 10/37/3 5/37/3 3/37/3
f 8/37/6 11/37/6 10/37/6 9/37/6
f 12/37/1 13/37/1 2/37/1 1/37/1
f 7/37/5 14/37/5 12/37/5 1/37/5
f 13/37/1 15/37/1 8/37/1 2/37/1
f 15/37/6 16/37/6 11/37/6 8/37/6
f 17/37/1 18/37/1 13/37/1 12/37/1
f 14/37/5 19/37/5 17/37/5 12/37/5
f 18/37/1 20/37/1 15/37/1 13/37/1
f 20/37/6 21/37/6 16/37/6 15/37/6
f 22/37/1 23/37/1 18/37/1 17/37/1
f 19/37/5 24/37/5 22/37/5 17/37/5
f 23/37/1 25/37/1 20/37/1 18/37/1
f 25/37/6 26/37/6 21/37/6 20/37/6
f 27/38/1 28/38/1 23/38/1 22/38/1
f 24/38/5 29/38/5 27/38/5 22/38/5
f 28/37/1 30/37/1 25/37/1 23/37/1
f 30/37/6 31/37/6 26/37/6 25/37/6
f 32/37/1 33/37/1 28/37/1 27/37/1
f 29/37/5 34/37/5 32/37/5 27/37/5
f 33/37/1 35/37/1 30/37/1 28/37/1
f 35/37/6 36/37/6 31/37/6 30/37/6
f 37/37/1 38/37/1 33/37/1 32/37/1
f 34/37/5 39/37/5 37/37/5 32/37/5
f 38/37/1 40/37/1 35/37/1 33/37/1
f 40/37/6 41/37/6 36/37/6 35/37/6
f 42/37/1 43/37/1 38/37/1 37/37/1
f 39/37/5 44/37/5 42/37/5 37/37/5
f 43/37/1 45/37/1 40/37/1 38/37/1
f 45/37/6 46/37/6 41/37/6 40/37/6
f 47/37/1 48/37/1 43/37/1 42/37/1
f 44/37/5 49/37/5 47/37/5 42/37/5
f 48/37/1 50/37/1 45/37/1 43/37/1
f 50/37/6 51/37/6 46/37/6 45/37/6
f 52/37/1 53/37/1 48/37/1 47/37/1
f 49/37/5 54/37/5 52/37/5 47/37/5
f 53/37/1 55/37/1 50/37/1 48/37/1
f 55/37/6 56/37/6 51/37/6 50/37/6
f 57/37/1 58/37/1 53/37/1 52/37/1
f 54/37/5 59/37/5 57/37/5 52/37/5
f 58/37/1 60/37/1 55/37/1 53/37/1
f 60/37/6 61/37/6 56/37/6 55/37/6
f 62/37/1 63/37/1 58/37/1 57/37/1
f 59/37/5 64/37/5 62/37/5 57/37/5
f 63/37/1 65/37/1 60/37/1 58/37/1
f 65/37/6 66/37/6 61/37/6 60/37/6
f 67/37/1 68/37/1 63/37/1 62/37/1
f 64/37/5 69/37/5 67/37/5 62/37/5
f 68/37/1 70/37/1 65/37/1 63/37/1
f 70/37/6 71/37/6 66/37/6 65/37/6
f 72/37/1 73/37/1 68/37/1 67/37/1
f 74/37/4 75/37/4 73/37/4 72/37/4
f 69/37/5 74/37/5 72/37/5 67/37/5
f 73/37/1 76/37/1 70/37/1 68/37/1
f 75/37/4 77/37/4 76/37/4 73/37/4
f 76/37/6 77/37/6 71/37/6 70/37/6
f 5/37/3 78/37/3 79/37/3 6/37/3
f 79/37/5 80/37/5 7/37/5 6/37/5
f 10/37/3 81/37/3 78/37/3 5/37/3
f 11/37/6 82/37/6 81/37/6 10/37/6
f 83/36/1 84/36/1 85/36/1 86/36/1
f 85/36/3 87/36/3 88/36/3 86/36/3
f 88/36/5 89/36/5 83/36/5 86/36/5
f 84/36/1 90/36/1 91/36/1 85/36/1
f 91/36/3 92/36/3 87/36/3 85/36/3
f 90/36/1 93/36/1 94/36/1 91/36/1
f 94/36/3 95/36/3 92/36/3 91/36/3
f 93/36/1 96/36/1 97/36/1 94/36/1
f 97/36/3 98/36/3 95/36/3 94/36/3
f 96/36/1 99/36/1 100/36/1 97/36/1
f 100/36/3 101/36/3 98/36/3 97/36/3
f 99/36/1 102/36/1 103/36/1 100/36/1
f 103/36/3 104/36/3 101/36/3 100/36/3
f 102/36/1 105/36/1 106/36/1 103/36/1
f 106/36/3 107/36/3 104/36/3 103/36/3
f 105/36/1 108/36/1 109/36/1 106/36/1
f 109/36/3 110/36/3 107/36/3 106/36/3
f 108/36/1 111/36/1 112/36/1 109/36/1
f 112/36/3 113/36/3 110/36/3 109/36/3
f 111/36/1 14/36/1 7/36/1 112/36/1
f 7/36/3 80/36/3 113/36/3 112/36/3
f 16/37/6 114/37/6 82/37/6 11/37/6
f 115/36/1 116/36/1 84/36/1 83/36/1
f 117/36/4 118/36/4 116/36/4 115/36/4
f 89/36/5 117/36/5 115/36/5 83/36/5
f 116/36/1 119/36/1 90/36/1 84/36/1
f 118/36/4 120/36/4 119/36/4 116/36/4
f 119/36/1 121/36/1 93/36/1 90/36/1
f 120/36/4 122/36/4 121/36/4 119/36/4
f 121/36/1 123/36/1 96/36/1 93/36/1
f 122/36/4 124/36/4 123/36/4 121/36/4
f 123/36/1 125/36/1 99/36/1 96/36/1
f 124/36/4 126/36/4 125/36/4 123/36/4
f 125/36/1 127/36/1 102/36/1 99/36/1
f 126/36/4 128/36/4 127/36/4 125/36/4
f 127/36/1 129/36/1 105/36/1 102/36/1
f 128/36/4 130/36/4 129/36/4 127/36/4
f 129/36/1 131/36/1 108/36/1 105/36/1
f 130/36/4 132/36/4 131/36/4 129/36/4
f 131/36/1 133/36/1 111/36/1 108/36/1
f 132/36/4 134/36/4 133/36/4 131/36/4
f 133/36/1 19/36/1 14/36/1 111/36/1
f 134/36/4 135/36/4 19/36/4 133/36/4
f 21/37/6 136/37/6 114/37/6 16/37/6
f 135/37/5 137/37/5 24/37/5 19/37/5
f 26/38/6 138/38/6 136/38/6 21/38/6
f 137/37/5 139/37/5 29/37/5 24/37/5
f 31/37/6 140/37/6 138/37/6 26/37/6
f 139/37/5 141/37/5 34/37/5 29/37/5
f 36/37/6 142/37/6 140/37/6 31/37/6
f 141/38/5 143/38/5 39/38/5 34/38/5
f 41/37/6 144/37/6 142/37/6 36/37/6
f 143/37/5 145/37/5 44/37/5 39/37/5
f 46/37/6 146/37/6 144/37/6 41/37/6
f 145/37/5 147/37/5 49/37/5 44/37/5
f 51/37/6 148/37/6 146/37/6 46/37/6
f 147/37/5 149/37/5 54/37/5 49/37/5
f 56/37/6 150/37/6 148/37/6 51/37/6
f 149/37/5 151/37/5 59/37/5 54/37/5
f 61/37/6 152/37/6 150/37/6 56/37/6
f 153/36/1 154/36/1 155/36/1 156/36/1
f 155/36/3 157/36/3 158/36/3 156/36/3
f 158/36/5 159/36/5 153/36/5 156/36/5
f 154/36/1 160/36/1 161/36/1 155/36/1
f 161/36/3 162/36/3 157/36/3 155/36/3
f 160/36/1 163/36/1 164/36/1 161/36/1
f 164/36/3 165/36/3 162/36/3 161/36/3
f 163/36/1 166/36/1 167/36/1 164/36/1
f 167/36/3 168/36/3 165/36/3 164/36/3
f 166/36/1 169/36/1 170/36/1 167/36/1
f 170/36/3 171/36/3 168/36/3 167/36/3
f 169/36/1 172/36/1 173/36/1 170/36/1
f 173/36/3 174/36/3 171/36/3 170/36/3
f 172/36/1 175/36/1 176/36/1 173/36/1
f 176/36/3 177/36/3 174/36/3 173/36/3
f 175/36/1 178/36/1 179/36/1 176/36/1
f 179/36/3 180/36/3 177/36/3 176/36/3
f 178/36/1 181/36/1 182/36/1 179/36/1
f 182/36/3 183/36/3 180/36/3 179/36/3
f 181/36/1 64/36/1 59/36/1 182/36/1
f 59/36/3 151/36/3 183/36/3 182/36/3
f 66/37/6 184/37/6 152/37/6 61/37/6
f 185/36/1 186/36/1 154/36/1 153/36/1
f 187/36/4 188/36/4 186/36/4 185/36/4
f 159/36/5 187/36/5 185/36/5 153/36/5
f 186/36/1 189/36/1 160/36/1 154/36/1
f 188/36/4 190/36/4 189/36/4 186/36/4
f 189/36/1 191/36/1 163/36/1 160/36/1
f 190/36/4 192/36/4 191/36/4 189/36/4
f 191/36/1 193/36/1 166/36/1 163/36/1
f 192/36/4 194/36/4 193/36/4 191/36/4
f 193/36/1 195/36/1 169/36/1 166/36/1
f 194/36/4 196/36/4 195/36/4 193/36/4
f 195/36/1 197/36/1 172/36/1 169/36/1
f 196/36/4 198/36/4 197/36/4 195/36/4
f 197/36/1 199/36/1 175/36/1 172/36/1
f 198/36/4 200/36/4 199/36/4 197/36/4
f 199/36/1 201/36/1 178/36/1 175/36/1
f 200/36/4 202/36/4 201/36/4 199/36/4
f 201/36/1 203/36/1 181/36/1 178/36/1
f 202/36/4 204/36/4 203/36/4 201/36/4
f 203/36/1 69/36/1 64/36/1 181/36/1
f 204/36/4 205/36/4 69/36/4 203/36/4
f 71/37/6 206/37/6 184/37/6 66/37/6
f 207/37/4 208/37/4 75/37/4 74/37/4
f 205/37/5 207/37/5 74/37/5 69/37/5
f 208/37/4 209/37/4 77/37/4 75/37/4
f 77/37/6 209/37/6 206/37/6 71/37/6
f 78/37/3 210/37/3 211/37/3 79/37/3
f 211/37/5 212/37/5 80/37/5 79/37/5
f 81/37/3 213/37/3 210/37/3 78/37/3
f 82/37/6 214/37/6 213/37/6 81/37/6
f 215/36/2 216/36/2 217/36/2 218/36/2
f 87/36/3 215/36/3 218/36/3 88/36/3
f 218/36/5 217/36/5 89/36/5 88/36/5
f 219/36/2 220/36/2 216/36/2 215/36/2
f 92/36/3 219/36/3 215/36/3 87/36/3
f 221/36/2 222/36/2 220/36/2 219/36/2
f 95/36/3 221/36/3 219/36/3 92/36/3
f 223/36/2 224/36/2 222/36/2 221/36/2
f 98/36/3 223/36/3 221/36/3 95/36/3
f 225/36/2 226/36/2 224/36/2 223/36/2
f 101/36/3 225/36/3 223/36/3 98/36/3
f 227/36/2 228/36/2 226/36/2 225/36/2
f 104/36/3 227/36/3 225/36/3 101/36/3
f 229/36/2 230/36/2 228/36/2 227/36/2
f 107/36/3 229/36/3 227/36/3 104/36/3
f 231/36/2 232/36/2 230/36/2 229/36/2
f 110/36/3 231/36/3 229/36/3 107/36/3
f 233/36/2 234/36/2 232/36/2 231/36/2
f 113/36/3 233/36/3 231/36/3 110/36/3
f 212/36/2 235/36/2 234/36/2 233/36/2
f 80/36/3 212/36/3 233/36/3 113/36/3
f 114/37/6 236/37/6 214/37/6 82/37/6
f 216/36/2 237/36/2 238/36/2 217/36/2
f 238/36/4 237/36/4 118/36/4 117/36/4
f 217/36/5 238/36/5 117/36/5 89/36/5
f 220/36/2 239/36/2 237/36/2 216/36/2
f 237/36/4 239/36/4 120/36/4 118/36/4
f 222/36/2 240/36/2 239/36/2 220/36/2
f 239/36/4 240/36/4 122/36/4 120/36/4
f 224/36/2 241/36/2 240/36/2 222/36/2
f 240/36/4 241/36/4 124/36/4 122/36/4
f 226/36/2 242/36/2 241/36/2 224/36/2
f 241/36/4 242/36/4 126/36/4 124/36/4
f 228/36/2 243/36/2 242/36/2 226/36/2
f 242/36/4 243/36/4 128/36/4 126/36/4
f 230/36/2 244/36/2 243/36/2 228/36/2
f 243/36/4 244/36/4 130/36/4 128/36/4
f 232/36/2 245/36/2 244/36/2 230/36/2
f 244/36/4 245/36/4 132/36/4 130/36/4
f 234/36/2 246/36/2 245/36/2 232/36/2
f 245/36/4 246/36/4 134/36/4 132/36/4
f 235/36/2 247/36/2 246/36/2 234/36/2
f 246/36/4 247/36/4 135/36/4 134/36/4
f 136/37/6 248/37/6 236/37/6 114/37/6
f 247/37/5 249/37/5 137/37/5 135/37/5
f 138/37/6 250/37/6 248/37/6 136/37/6
f 249/37/5 251/37/5 139/37/5 137/37/5
f 140/37/6 252/37/6 250/37/6 138/37/6
f 251/37/5 253/37/5 141/37/5 139/37/5
f 142/37/6 254/37/6 252/37/6 140/37/6
f 253/37/5 255/37/5 143/37/5 141/37/5
f 144/37/6 256/37/6 254/37/6 142/37/6
f 255/37/5 257/37/5 145/37/5 143/37/5
f 146/37/6 258/37/6 256/37/6 144/37/6
f 257/37/5 259/37/5 147/37/5 145/37/5
f 148/37/6 260/37/6 258/37/6 146/37/6
f 259/37/5 261/37/5 149/37/5 147/37/5
f 150/37/6 262/37/6 260/37/6 148/37/6
f 261/37/5 263/37/5 151/37/5 149/37/5
f 152/37/6 264/37/6 262/37/6 150/37/6
f 265/36/2 266/36/2 267/36/2 268/36/2
f 157/36/3 265/36/3 268/36/3 158/36/3
f 268/36/5 267/36/5 159/36/5 158/36/5
f 269/36/2 270/36/2 266/36/2 265/36/2
f 162/36/3 269/36/3 265/36/3 157/36/3
f 271/36/2 272/36/2 270/36/2 269/36/2
f 165/36/3 271/36/3 269/36/3 162/36/3
f 273/36/2 274/36/2 272/36/2 271/36/2
f 168/36/3 273/36/3 271/36/3 165/36/3
f 275/36/2 276/36/2 274/36/2 273/36/2
f 171/36/3 275/36/3 273/36/3 168/36/3
f 277/36/2 278/36/2 276/36/2 275/36/2
f 174/36/3 277/36/3 275/36/3 171/36/3
f 279/36/2 280/36/2 278/36/2 277/36/2
f 177/36/3 279/36/3 277/36/3 174/36/3
f 281/36/2 282/36/2 280/36/2 279/36/2
f 180/36/3 281/36/3 279/36/3 177/36/3
f 283/36/2 284/36/2 282/36/2 281/36/2
f 183/36/3 283/36/3 281/36/3 180/36/3
f 263/36/2 285/36/2 284/36/2 283/36/2
f 151/36/3 263/36/3 283/36/3 183/36/3
f 184/37/6 286/37/6 264/37/6 152/37/6
f 266/36/2 287/36/2 288/36/2 267/36/2
f 288/36/4 287/36/4 188/36/4 187/36/4
f 267/36/5 288/36/5 187/36/5 159/36/5
f 270/36/2 289/36/2 287/36/2 266/36/2
f 287/36/4 289/36/4 190/36/4 188/36/4
f 272/36/2 290/36/2 289/36/2 270/36/2
f 289/36/4 290/36/4 192/36/4 190/36/4
f 274/36/2 291/36/2 290/36/2 272/36/2
f 290/36/4 291/36/4 194/36/4 192/36/4
f 276/36/2 292/36/2 291/36/2 274/36/2
f 291/36/4 292/36/4 196/36/4 194/36/4
f 278/36/2 293/36/2 292/36/2 276/36/2
f 292/36/4 293/36/4 198/36/4 196/36/4
f 280/36/2 294/36/2 293/36/2 278/36/2
f 293/36/4 294/36/4 200/36/4 198/36/4
f 282/36/2 295/36/2 294/36/2 280/36/2
f 294/36/4 295/36/4 202/36/4 200/36/4
f 284/36/2 296/36/2 295/36/2 282/36/2
f 295/36/4 296/36/4 204/36/4 202/36/4
f 285/36/2 297/36/2 296/36/2 284/36/2
f 296/36/4 297/36/4 205/36/4 204/36/4
f 206/37/6 298/37/6 286/37/6 184/37/6
f 299/37/4 300/37/4 208/37/4 207/37/4
f 297/37/5 299/37/5 207/37/5 205/37/5
f 300/37/4 301/37/4 209/37/4 208/37/4
f 209/37/6 301/37/6 298/37/6 206/37/6
f 210/37/3 302/37/3 303/37/3 211/37/3
f 303/37/5 304/37/5 212/37/5 211/37/5
f 213/36/3 305/36/3 302/36/3 210/36/3
f 214/36/6 306/36/6 305/36/6 213/36/6
f 304/37/5 307/37/5 235/37/5 212/37/5
f 236/36/6 308/36/6 306/36/6 214/36/6
f 307/37/5 309/37/5 247/37/5 235/37/5
f 248/36/6 310/36/6 308/36/6 236/36/6
f 309/37/5 311/37/5 249/37/5 247/37/5
f 250/36/6 312/36/6 310/36/6 248/36/6
f 311/37/5 313/37/5 251/37/5 249/37/5
f 252/36/6 314/36/6 312/36/6 250/36/6
f 313/37/5 315/37/5 253/37/5 251/37/5
f 254/36/6 316/36/6 314/36/6 252/36/6
f 315/37/5 317/37/5 255/37/5 253/37/5
f 256/36/6 318/36/6 316/36/6 254/36/6
f 317/37/5 319/37/5 257/37/5 255/37/5
f 258/36/6 320/36/6 318/36/6 256/36/6
f 319/37/5 321/37/5 259/37/5 257/37/5
f 260/36/6 322/36/6 320/36/6 258/36/6
f 321/38/5 323/38/5 261/38/5 259/38/5
f 262/36/6 324/36/6 322/36/6 260/36/6
f 323/37/5 325/37/5 263/37/5 261/37/5
f 264/36/6 326/36/6 324/36/6 262/36/6
f 325/37/5 327/37/5 285/37/5 263/37/5
f 286/36/6 328/36/6 326/36/6 264/36/6
f 327/37/5 329/37/5 297/37/5 285/37/5
f 298/36/6 330/36/6 328/36/6 286/36/6
f 331/37/4 332/37/4 300/37/4 299/37/4
f 329/37/5 331/37/5 299/37/5 297/37/5
f 332/36/4 333/36/4 301/36/4 300/36/4
f 301/36/6 333/36/6 330/36/6 298/36/6
f 302/37/3 334/37/3 335/37/3 303/37/3
f 335/37/5 336/37/5 304/37/5 303/37/5
f 305/37/3 337/37/3 334/37/3 302/37/3
f 306/37/6 338/37/6 337/37/6 305/37/6
f 336/37/5 339/37/5 307/37/5 304/37/5
f 308/37/6 340/37/6 338/37/6 306/37/6
f 339/37/5 341/37/5 309/37/5 307/37/5
f 310/37/6 342/37/6 340/37/6 308/37/6
f 341/37/5 343/37/5 311/37/5 309/37/5
f 312/37/6 344/37/6 342/37/6 310/37/6
f 343/37/5 345/37/5 313/37/5 311/37/5
f 314/37/6 346/37/6 344/37/6 312/37/6
f 345/37/5 347/37/5 315/37/5 313/37/5
f 316/37/6 348/37/6 346/37/6 314/37/6
f 347/37/5 349/37/5 317/37/5 315/37/5
f 318/37/6 350/37/6 348/37/6 316/37/6
f 349/37/5 351/37/5 319/37/5 317/37/5
f 320/37/6 352/37/6 350/37/6 318/37/6
f 351/37/5 353/37/5 321/37/5 319/37/5
f 322/37/6 354/37/6 352/37/6 320/37/6
f 353/37/5 355/37/5 323/37/5 321/37/5
f 324/37/6 356/37/6 354/37/6 322/37/6
f 355/37/5 357/37/5 325/37/5 323/37/5
f 326/37/6 358/37/6 356/37/6 324/37/6
f 357/37/5 359/37/5 327/37/5 325/37/5
f 328/37/6 360/37/6 358/37/6 326/37/6
f 359/37/5 361/37/5 329/37/5 327/37/5
f 330/37/6 362/37/6 360/37/6 328/37/6
f 363/37/4 364/37/4 332/37/4 331/37/4
f 361/37/5 363/37/5 331/37/5 329/37/5
f 364/37/4 365/37/4 333/37/4 332/37/4
f 333/37/6 365/37/6 362/37/6 330/37/6
f 334/37/3 366/37/3 367/37/3 335/37/3
f 367/37/5 368/37/5 336/37/5 335/37/5
f 337/37/3 369/37/3 366/37/3 334/37/3
f 338/37/6 370/37/6 369/37/6 337/37/6
f 368/37/5 371/37/5 339/37/5 336/37/5
f 340/37/6 372/37/6 370/37/6 338/37/6
f 371/37/5 373/37/5 341/37/5 339/37/5
f 342/37/6 374/37/6 372/37/6 340/37/6
f 373/37/5 375/37/5 343/37/5 341/37/5
f 344/37/6 376/37/6 374/37/6 342/37/6
f 375/37/5 377/37/5 345/37/5 343/37/5
f 346/37/6 378/37/6 376/37/6 344/37/6
f 377/37/5 379/37/5 347/37/5 345/37/5
f 348/37/6 380/37/6 378/37/6 346/37/6
f 379/37/5 381/37/5 349/37/5 347/37/5
f 350/37/6 382/37/6 380/37/6 348/37/6
f 381/37/5 383/37/5 351/37/5 349/37/5
f 352/37/6 384/37/6 382/37/6 350/37/6
f 383/37/5 385/37/5 353/37/5 351/37/5
f 354/37/6 386/37/6 384/37/6 352/37/6
f 385/37/5 387/37/5 355/37/5 353/37/5
f 356/37/6 388/37/6 386/37/6 354/37/6
f 387/37/5 389/37/5 357/37/5 355/37/5
f 358/37/6 390/37/6 388/37/6 356/37/6
f 389/37/5 391/37/5 359/37/5 357/37/5
f 360/37/6 392/37/6 390/37/6 358/37/6
f 391/37/5 393/37/5 361/37/5 359/37/5
f 362/37/6 394/37/6 392/37/6 360/37/6
f 395/37/4 396/37/4 364/37/4 363/37/4
f 393/37/5 395/37/5 363/37/5 361/37/5
f 396/37/4 397/37/4 365/37/4 364/37/4
f 365/37/6 397/37/6 394/37/6 362/37/6
f 366/37/3 398/37/3 399/37/3 367/37/3
f 399/37/5 400/37/5 368/37/5 367/37/5
f 369/37/3 401/37/3 398/37/3 366/37/3
f 370/37/6 402/37/6 401/37/6 369/37/6
f 400/37/5 403/37/5 371/37/5 368/37/5
f 372/37/6 404/37/6 402/37/6 370/37/6
f 403/37/5 405/37/5 373/37/5 371/37/5
f 374/37/6 406/37/6 404/37/6 372/37/6
f 405/37/5 407/37/5 375/37/5 373/37/5
f 376/37/6 408/37/6 406/37/6 374/37/6
f 407/37/5 409/37/5 377/37/5 375/37/5
f 378/37/6 410/37/6 408/37/6 376/37/6
f 409/37/5 411/37/5 379/37/5 377/37/5
f 380/37/6 412/37/6 410/37/6 378/37/6
f 411/37/5 413/37/5 381/37/5 379/37/5
f 382/37/6 414/37/6 412/37/6 380/37/6
f 413/37/5 415/37/5 383/37/5 381/37/5
f 384/37/6 416/37/6 414/37/6 382/37/6
f 415/37/5 417/37/5 385/37/5 383/37/5
f 386/37/6 418/37/6 416/37/6 384/37/6
f 417/37/5 419/37/5 387/37/5 385/37/5
f 388/37/6 420/37/6 418/37/6 386/37/6
f 419/37/5 421/37/5 389/37/5 387/37/5
f 390/37/6 422/37/6 420/37/6 388/37/6
f 421/37/5 423/37/5 391/37/5 389/37/5
f 392/37/6 424/37/6 422/37/6 390/37/6
f 423/37/5 425/37/5 393/37/5 391/37/5
f 394/37/6 426/37/6 424/37/6 392/37/6
f 427/37/4 428/37/4 396/37/4 395/37/4
f 425/37/5 427/37/5 395/37/5 393/37/5
f 428/37/4 429/37/4 397/37/4 396/37/4
f 397/37/6 429/37/6 426/37/6 394/37/6
f 398/37/3 430/37/3 431/37/3 399/37/3
f 431/37/5 432/37/5 400/37/5 399/37/5
f 401/37/3 433/37/3 430/37/3 398/37/3
f 402/37/6 434/37/6 433/37/6 401/37/6
f 432/37/5 435/37/5 403/37/5 400/37/5
f 404/37/6 436/37/6 434/37/6 402/37/6
f 435/37/5 437/37/5 405/37/5 403/37/5
f 406/37/6 438/37/6 436/37/6 404/37/6
f 437/37/5 439/37/5 407/37/5 405/37/5
f 408/37/6 440/37/6 438/37/6 406/37/6
f 439/37/5 441/37/5 409/37/5 407/37/5
f 410/37/6 442/37/6 440/37/6 408/37/6
f 441/37/5 443/37/5 411/37/5 409/37/5
f 412/37/6 444/37/6 442/37/6 410/37/6
f 443/37/5 445/37/5 413/37/5 411/37/5
f 414/37/6 446/37/6 444/37/6 412/37/6
f 445/37/5 447/37/5 415/37/5 413/37/5
f 416/37/6 448/37/6 446/37/6 414/37/6
f 447/37/5 449/37/5 417/37/5 415/37/5
f 418/37/6 450/37/6 448/37/6 416/37/6
f 449/37/5 451/37/5 419/37/5 417/37/5
f 420/37/6 452/37/6 450/37/6 418/37/6
f 451/37/5 453/37/5 421/37/5 419/37/5
f 422/37/6 454/37/6 452/37/6 420/37/6
f 453/37/5 455/37/5 423/37/5 421/37/5
f 424/37/6 456/37/6 454/37/6 422/37/6
f 455/37/5 457/37/5 425/37/5 423/37/5
f 426/37/6 458/37/6 456/37/6 424/37/6
f 459/37/4 460/37/4 428/37/4 427/37/4
f 457/37/5 459/37/5 427/37/5 425/37/5
f 460/37/4 461/37/4 429/37/4 428/37/4
f 429/37/6 461/37/6 458/37/6 426/37/6
f 430/37/3 462/37/3 463/37/3 431/37/3
f 463/37/5 464/37/5 432/37/5 431/37/5
f 433/36/3 465/36/3 462/36/3 430/36/3
f 434/36/6 466/36/6 465/36/6 433/36/6
f 464/37/5 467/37/5 435/37/5 432/37/5
f 436/36/6 468/36/6 466/36/6 434/36/6
f 467/37/5 469/37/5 437/37/5 435/37/5
f 438/36/6 470/36/6 468/36/6 436/36/6
f 469/37/5 471/37/5 439/37/5 437/37/5
f 440/36/6 472/36/6 470/36/6 438/36/6
f 471/37/5 473/37/5 441/37/5 439/37/5
f 442/36/6 474/36/6 472/36/6 440/36/6
f 473/37/5 475/37/5 443/37/5 441/37/5
f 444/36/6 476/36/6 474/36/6 442/36/6
f 475/37/5 477/37/5 445/37/5 443/37/5
f 446/36/6 478/36/6 476/36/6 444/36/6
f 477/37/5 479/37/5 447/37/5 445/37/5
f 448/36/6 480/36/6 478/36/6 446/36/6
f 479/37/5 481/37/5 449/37/5 447/37/5
f 450/36/6 482/36/6 480/36/6 448/36/6
f 481/37/5 483/37/5 451/37/5 449/37/5
f 452/36/6 484/36/6 482/36/6 450/36/6
f 483/37/5 485/37/5 453/37/5 451/37/5
f 454/36/6 486/36/6 484/36/6 452/36/6
f 485/37/5 487/37/5 455/37/5 453/37/5
f 456/36/6 488/36/6 486/36/6 454/36/6
f 487/37/5 489/37/5 457/37/5 455/37/5
f 458/36/6 490/36/6 488/36/6 456/36/6
f 491/37/4 492/37/4 460/37/4 459/37/4
f 489/37/5 491/37/5 459/37/5 457/37/5
f 492/36/4 493/36/4 461/36/4 460/36/4
f 461/36/6 493/36/6 490/36/6 458/36/6
f 462/37/3 494/37/3 495/37/3 463/37/3
f 495/37/5 496/37/5 464/37/5 463/37/5
f 465/37/3 497/37/3 494/37/3 462/37/3
f 466/37/6 498/37/6 497/37/6 465/37/6
f 496/37/5 499/37/5 467/37/5 464/37/5
f 468/37/6 500/37/6 498/37/6 466/37/6
f 499/37/5 501/37/5 469/37/5 467/37/5
f 470/37/6 502/37/6 500/37/6 468/37/6
f 501/37/5 503/37/5 471/37/5 469/37/5
f 472/37/6 504/37/6 502/37/6 470/37/6
f 503/37/5 505/37/5 473/37/5 471/37/5
f 474/37/6 506/37/6 504/37/6 472/37/6
f 505/37/5 507/37/5 475/37/5 473/37/5
f 476/37/6 508/37/6 506/37/6 474/37/6
f 507/37/5 509/37/5 477/37/5 475/37/5
f 478/37/6 510/37/6 508/37/6 476/37/6
f 509/37/5 511/37/5 479/37/5 477/37/5
f 480/37/6 512/37/6 510/37/6 478/37/6
f 511/37/5 513/37/5 481/37/5 479/37/5
f 482/37/6 514/37/6 512/37/6 480/37/6
f 513/37/5 515/37/5 483/37/5 481/37/5
f 484/37/6 516/37/6 514/37/6 482/37/6
f 515/37/5 517/37/5 485/37/5 483/37/5
f 486/37/6 518/37/6 516/37/6 484/37/6
f 517/37/5 519/37/5 487/37/5 485/37/5
f 488/37/6 520/37/6 518/37/6 486/37/6
f 519/37/5 521/37/5 489/37/5 487/37/5
f 490/37/6 522/37/6 520/37/6 488/37/6
f 523/37/4 524/37/4 492/37/4 491/37/4
f 521/37/5 523/37/5 491/37/5 489/37/5
f 524/37/4 525/37/4 493/37/4 492/37/4
f 493/37/6 525/37/6 522/37/6 490/37/6
f 494/37/3 526/37/3 527/37/3 495/37/3
f 527/37/5 528/37/5 496/37/5 495/37/5
f 497/37/3 529/37/3 526/37/3 494/37/3
f 498/37/6 530/37/6 529/37/6 497/37/6
f 528/37/5 531/37/5 499/37/5 496/37/5
f 500/37/6 532/37/6 530/37/6 498/37/6
f 531/37/5 533/37/5 501/37/5 499/37/5
f 502/37/6 534/37/6 532/37/6 500/37/6
f 533/37/5 535/37/5 503/37/5 501/37/5
f 504/37/6 536/37/6 534/37/6 502/37/6
f 535/37/5 537/37/5 505/37/5 503/37/5
f 506/36/6 538/36/6 536/36/6 504/36/6
f 537/37/5 539/37/5 507/37/5 505/37/5
f 508/37/6 540/37/6 538/37/6 506/37/6
f 539/37/5 541/37/5 509/37/5 507/37/5
f 510/37/6 542/37/6 540/37/6 508/37/6
f 541/37/5 543/37/5 511/37/5 509/37/5
f 512/37/6 544/37/6 542/37/6 510/37/6
f 543/37/5 545/37/5 513/37/5 511/37/5
f 514/37/6 546/37/6 544/37/6 512/37/6
f 545/37/5 547/37/5 515/37/5 513/37/5
f 516/37/6 548/37/6 546/37/6 514/37/6
f 547/37/5 549/37/5 517/37/5 515/37/5
f 518/37/6 550/37/6 548/37/6 516/37/6
f 549/37/5 551/37/5 519/37/5 517/37/5
f 520/37/6 552/37/6 550/37/6 518/37/6
f 551/37/5 553/37/5 521/37/5 519/37/5
f 522/37/6 554/37/6 552/37/6 520/37/6
f 555/37/4 556/37/4 524/37/4 523/37/4
f 553/37/5 555/37/5 523/37/5 521/37/5
f 556/37/4 557/37/4 525/37/4 524/37/4
f 525/37/6 557/37/6 554/37/6 522/37/6
f 526/37/3 558/37/3 559/37/3 527/37/3
f 559/37/5 560/37/5 528/37/5 527/37/5
f 529/37/3 561/37/3 558/37/3 526/37/3
f 530/37/6 562/37/6 561/37/6 529/37/6
f 560/37/5 563/37/5 531/37/5 528/37/5
f 532/37/6 564/37/6 562/37/6 530/37/6
f 563/37/5 565/37/5 533/37/5 531/37/5
f 534/37/6 566/37/6 564/37/6 532/37/6
f 565/37/5 567/37/5 535/37/5 533/37/5
f 536/37/6 568/37/6 566/37/6 534/37/6
f 567/37/5 569/37/5 537/37/5 535/37/5
f 538/37/6 570/37/6 568/37/6 536/37/6
f 569/37/5 571/37/5 539/37/5 537/37/5
f 540/37/6 572/37/6 570/37/6 538/37/6
f 571/37/5 573/37/5 541/37/5 539/37/5
f 542/37/6 574/37/6 572/37/6 540/37/6
f 573/37/5 575/37/5 543/37/5 541/37/5
f 544/37/6 576/37/6 574/37/6 542/37/6
f 575/37/5 577/37/5 545/37/5 543/37/5
f 546/37/6 578/37/6 576/37/6 544/37/6
f 577/37/5 579/37/5 547/37/5 545/37/5
f 548/37/6 580/37/6 578/37/6 546/37/6
f 579/37/5 581/37/5 549/37/5 547/37/5
f 550/37/6 582/37/6 580/37/6 548/37/6
f 581/37/5 583/37/5 551/37/5 549/37/5
f 552/37/6 584/37/6 582/37/6 550/37/6
f 583/37/5 585/37/5 553/37/5 551/37/5
f 554/37/6 586/37/6 584/37/6 552/37/6
f 587/37/4 588/37/4 556/37/4 555/37/4
f 585/37/5 587/37/5 555/37/5 553/37/5
f 588/37/4 589/37/4 557/37/4 556/37/4
f 557/37/6 589/37/6 586/37/6 554/37/6
f 558/37/3 590/37/3 591/37/3 559/37/3
f 591/37/5 592/37/5 560/37/5 559/37/5
f 561/37/3 593/37/3 590/37/3 558/37/3
f 562/37/6 594/37/6 593/37/6 561/37/6
f 592/37/5 595/37/5 563/37/5 560/37/5
f 564/37/6 596/37/6 594/37/6 562/37/6
f 595/37/5 597/37/5 565/37/5 563/37/5
f 566/37/6 598/37/6 596/37/6 564/37/6
f 597/37/5 599/37/5 567/37/5 565/37/5
f 568/37/6 600/37/6 598/37/6 566/37/6
f 599/37/5 601/37/5 569/37/5 567/37/5
f 570/37/6 602/37/6 600/37/6 568/37/6
f 601/37/5 603/37/5 571/37/5 569/37/5
f 572/37/6 604/37/6 602/37/6 570/37/6
f 603/37/5 605/37/5 573/37/5 571/37/5
f 574/37/6 606/37/6 604/37/6 572/37/6
f 605/37/5 607/37/5 575/37/5 573/37/5
f 576/37/6 608/37/6 606/37/6 574/37/6
f 607/37/5 609/37/5 577/37/5 575/37/5
f 578/37/6 610/37/6 608/37/6 576/37/6
f 609/37/5 611/37/5 579/37/5 577/37/5
f 580/37/6 612/37/6 610/37/6 578/37/6
f 611/37/5 613/37/5 581/37/5 579/37/5
f 582/37/6 614/37/6 612/37/6 580/37/6
f 613/37/5 615/37/5 583/37/5 581/37/5
f 584/37/6 616/37/6 614/37/6 582/37/6
f 615/37/5 617/37/5 585/37/5 583/37/5
f 586/37/6 618/37/6 616/37/6 584/37/6
f 619/37/4 620/37/4 588/37/4 587/37/4
f 617/37/5 619/37/5 587/37/5 585/37/5
f 620/37/4 621/37/4 589/37/4 588/37/4
f 589/37/6 621/37/6 618/37/6 586/37/6
f 590/37/3 622/37/3 623/37/3 591/37/3
f 623/37/5 624/37/5 592/37/5 591/37/5
f 593/36/3 625/36/3 622/36/3 590/36/3
f 594/36/6 626/36/6 625/36/6 593/36/6
f 624/37/5 627/37/5 595/37/5 592/37/5
f 596/36/6 628/36/6 626/36/6 594/36/6
f 627/37/5 629/37/5 597/37/5 595/37/5
f 598/36/6 630/36/6 628/36/6 596/36/6
f 629/37/5 631/37/5 599/37/5 597/37/5
f 600/36/6 632/36/6 630/36/6 598/36/6
f 631/37/5 633/37/5 601/37/5 599/37/5
f 602/36/6 634/36/6 632/36/6 600/36/6
f 633/37/5 635/37/5 603/37/5 601/37/5
f 604/36/6 636/36/6 634/36/6 602/36/6
f 635/37/5 637/37/5 605/37/5 603/37/5
f 606/36/6 638/36/6 636/36/6 604/36/6
f 637/37/5 639/37/5 607/37/5 605/37/5
f 608/36/6 640/36/6 638/36/6 606/36/6
f 639/37/5 641/37/5 609/37/5 607/37/5
f 610/36/6 642/36/6 640/36/6 608/36/6
f 641/37/5 643/37/5 611/37/5 609/37/5
f 612/36/6 644/36/6 642/36/6 610/36/6
f 643/37/5 645/37/5 613/37/5 611/37/5
f 614/36/6 646/36/6 644/36/6 612/36/6
f 645/37/5 647/37/5 615/37/5 613/37/5
f 616/36/6 648/36/6 646/36/6 614/36/6
f 647/37/5 649/37/5 617/37/5 615/37/5
f 618/36/6 650/36/6 648/36/6 616/36/6
f 651/37/4 652/37/4 620/37/4 619/37/4
f 649/37/5 651/37/5 619/37/5 617/37/5
f 652/36/4 653/36/4 621/36/4 620/36/4
f 621/36/6 653/36/6 650/36/6 618/36/6
f 622/37/3 654/37/3 655/37/3 623/37/3
f 655/37/5 656/37/5 624/37/5 623/37/5
f 625/37/3 657/37/3 654/37/3 622/37/3
f 626/37/6 658/37/6 657/37/6 625/37/6
f 656/37/5 659/37/5 627/37/5 624/37/5
f 628/37/6 660/37/6 658/37/6 626/37/6
f 659/36/5 661/36/5 629/36/5 627/36/5
f 630/37/6 662/37/6 660/37/6 628/37/6
f 661/37/5 663/37/5 631/37/5 629/37/5
f 632/37/6 664/37/6 662/37/6 630/37/6
f 663/37/5 665/37/5 633/37/5 631/37/5
f 634/37/6 666/37/6 664/37/6 632/37/6
f 665/37/5 667/37/5 635/37/5 633/37/5
f 636/37/6 668/37/6 666/37/6 634/37/6
f 667/37/5 669/37/5 637/37/5 635/37/5
f 638/37/6 670/37/6 668/37/6 636/37/6
f 669/37/5 671/37/5 639/37/5 637/37/5
f 640/37/6 672/37/6 670/37/6 638/37/6
f 671/37/5 673/37/5 641/37/5 639/37/5
f 642/37/6 674/37/6 672/37/6 640/37/6
f 673/37/5 675/37/5 643/37/5 641/37/5
f 644/37/6 676/37/6 674/37/6 642/37/6
f 675/37/5 677/37/5 645/37/5 643/37/5
f 646/37/6 678/37/6 676/37/6 644/37/6
f 677/37/5 679/37/5 647/37/5 645/37/5
f 648/37/6 680/37/6 678/37/6 646/37/6
f 679/37/5 681/37/5 649/37/5 647/37/5
f 650/37/6 682/37/6 680/37/6 648/37/6
f 683/37/4 684/37/4 652/37/4 651/37/4
f 681/37/5 683/37/5 651/37/5 649/37/5
f 684/37/4 685/37/4 653/37/4 652/37/4
f 653/37/6 685/37/6 682/37/6 650/37/6
f 654/37/3 686/37/3 687/37/3 655/37/3
f 687/37/5 688/37/5 656/37/5 655/37/5
f 657/37/3 689/37/3 686/37/3 654/37/3
f 658/37/6 690/37/6 689/37/6 657/37/6
f 688/37/5 691/37/5 659/37/5 656/37/5
f 660/37/6 692/37/6 690/37/6 658/37/6
f 691/37/5 693/37/5 661/37/5 659/37/5
f 662/37/6 694/37/6 692/37/6 660/37/6
f 693/37/5 695/37/5 663/37/5 661/37/5
f 664/37/6 696/37/6 694/37/6 662/37/6
f 695/37/5 697/37/5 665/37/5 663/37/5
f 666/37/6 698/37/6 696/37/6 664/37/6
f 697/37/5 699/37/5 667/37/5 665/37/5
f 668/37/6 700/37/6 698/37/6 666/37/6
f 699/37/5 701/37/5 669/37/5 667/37/5
f 670/37/6 702/37/6 700/37/6 668/37/6
f 701/37/5 703/37/5 671/37/5 669/37/5
f 672/37/6 704/37/6 702/37/6 670/37/6
f 703/37/5 705/37/5 673/37/5 671/37/5
f 674/37/6 706/37/6 704/37/6 672/37/6
f 705/37/5 707/37/5 675/37/5 673/37/5
f 676/37/6 708/37/6 706/37/6 674/37/6
f 707/37/5 709/37/5 677/37/5 675/37/5
f 678/37/6 710/37/6 708/37/6 676/37/6
f 709/37/5 711/37/5 679/37/5 677/37/5
f 680/37/6 712/37/6 710/37/6 678/37/6
f 711/37/5 713/37/5 681/37/5 679/37/5
f 682/37/6 714/37/6 712/37/6 680/37/6
f 715/37/4 716/37/4 684/37/4 683/37/4
f 713/37/5 715/37/5 683/37/5 681/37/5
f 716/37/4 717/37/4 685/37/4 684/37/4
f 685/37/6 717/37/6 714/37/6 682/37/6
f 686/37/3 718/37/3 719/37/3 687/37/3
f 719/37/5 720/37/5 688/37/5 687/37/5
f 689/37/3 721/37/3 718/37/3 686/37/3
f 690/37/6 722/37/6 721/37/6 689/37/6
f 720/37/5 723/37/5 691/37/5 688/37/5
f 692/37/6 724/37/6 722/37/6 690/37/6
f 723/37/5 725/37/5 693/37/5 691/37/5
f 694/37/6 726/37/6 724/37/6 692/37/6
f 725/37/5 727/37/5 695/37/5 693/37/5
f 696/37/6 728/37/6 726/37/6 694/37/6
f 727/37/5 729/37/5 697/37/5 695/37/5
f 698/37/6 730/37/6 728/37/6 696/37/6
f 729/37/5 731/37/5 699/37/5 697/37/5
f 700/37/6 732/37/6 730/37/6 698/37/6
f 731/37/5 733/37/5 701/37/5 699/37/5
f 702/37/6 734/37/6 732/37/6 700/37/6
f 733/37/5 735/37/5 703/37/5 701/37/5
f 704/38/6 736/38/6 734/38/6 702/38/6
f 735/37/5 737/37/5 705/37/5 703/37/5
f 706/37/6 738/37/6 736/37/6 704/37/6
f 737/37/5 739/37/5 707/37/5 705/37/5
f 708/37/6 740/37/6 738/37/6 706/37/6
f 739/37/5 741/37/5 709/37/5 707/37/5
f 710/37/6 742/37/6 740/37/6 708/37/6
f 741/37/5 743/37/5 711/37/5 709/37/5
f 712/37/6 744/37/6 742/37/6 710/37/6
f 743/37/5 745/37/5 713/37/5 711/37/5
f 714/37/6 746/37/6 744/37/6 712/37/6
f 747/37/4 748/37/4 716/37/4 715/37/4
f 745/37/5 747/37/5 715/37/5 713/37/5
f 748/37/4 749/37/4 717/37/4 716/37/4
f 717/37/6 749/37/6 746/37/6 714/37/6
f 718/37/3 750/37/3 751/37/3 719/37/3
f 751/37/5 752/37/5 720/37/5 719/37/5
f 721/37/3 753/37/3 750/37/3 718/37/3
f 722/37/6 754/37/6 753/37/6 721/37/6
f 752/37/5 755/37/5 723/37/5 720/37/5
f 724/37/6 756/37/6 754/37/6 722/37/6
f 755/37/5 757/37/5 725/37/5 723/37/5
f 726/37/6 758/37/6 756/37/6 724/37/6
f 757/37/5 759/37/5 727/37/5 725/37/5
f 728/37/6 760/37/6 758/37/6 726/37/6
f 759/37/5 761/37/5 729/37/5 727/37/5
f 730/37/6 762/37/6 760/37/6 728/37/6
f 761/37/5 763/37/5 731/37/5 729/37/5
f 732/37/6 764/37/6 762/37/6 730/37/6
f 763/37/5 765/37/5 733/37/5 731/37/5
f 734/37/6 766/37/6 764/37/6 732/37/6
f 765/37/5 767/37/5 735/37/5 733/37/5
f 736/37/6 768/37/6 766/37/6 734/37/6
f 767/37/5 769/37/5 737/37/5 735/37/5
f 738/37/6 770/37/6 768/37/6 736/37/6
f 769/37/5 771/37/5 739/37/5 737/37/5
f 740/37/6 772/37/6 770/37/6 738/37/6
f 771/37/5 773/37/5 741/37/5 739/37/5
f 742/37/6 774/37/6 772/37/6 740/37/6
f 773/37/5 775/37/5 743/37/5 741/37/5
f 744/37/6 776/37/6 774/37/6 742/37/6
f 775/37/5 777/37/5 745/37/5 743/37/5
f 746/37/6 778/37/6 776/37/6 744/37/6
f 779/37/4 780/37/4 748/37/4 747/37/4
f 777/37/5 779/37/5 747/37/5 745/37/5
f 780/37/4 781/37/4 749/37/4 748/37/4
f 749/37/6 781/37/6 778/37/6 746/37/6
f 750/37/3 782/37/3 783/37/3 751/37/3
f 783/37/5 784/37/5 752/37/5 751/37/5
f 753/36/3 785/36/3 782/36/3 750/36/3
f 754/36/6 786/36/6 785/36/6 753/36/6
f 784/37/5 787/37/5 755/37/5 752/37/5
f 756/36/6 788/36/6 786/36/6 754/36/6
f 787/37/5 789/37/5 757/37/5 755/37/5
f 758/36/6 790/36/6 788/36/6 756/36/6
f 789/37/5 791/37/5 759/37/5 757/37/5
f 760/36/6 792/36/6 790/36/6 758/36/6
f 791/37/5 793/37/5 761/37/5 759/37/5
f 762/36/6 794/36/6 792/36/6 760/36/6
f 793/37/5 795/37/5 763/37/5 761/37/5
f 764/36/6 796/36/6 794/36/6 762/36/6
f 795/37/5 797/37/5 765/37/5 763/37/5
f 766/36/6 798/36/6 796/36/6 764/36/6
f 797/37/5 799/37/5 767/37/5 765/37/5
f 768/36/6 800/36/6 798/36/6 766/36/6
f 799/37/5 801/37/5 769/37/5 767/37/5
f 770/36/6 802/36/6 800/36/6 768/36/6
f 801/37/5 803/37/5 771/37/5 769/37/5
f 772/36/6 804/36/6 802/36/6 770/36/6
f 803/37/5 805/37/5 773/37/5 771/37/5
f 774/36/6 806/36/6 804/36/6 772/36/6
f 805/37/5 807/37/5 775/37/5 773/37/5
f 776/36/6 808/36/6 806/36/6 774/36/6
f 807/37/5 809/37/5 777/37/5 775/37/5
f 778/36/6 810/36/6 808/36/6 776/36/6
f 811/37/4 812/37/4 780/37/4 779/37/4
f 809/37/5 811/37/5 779/37/5 777/37/5
f 812/36/4 813/36/4 781/36/4 780/36/4
f 781/36/6 813/36/6 810/36/6 778/36/6
f 782/37/3 814/37/3 815/37/3 783/37/3
f 815/37/5 816/37/5 784/37/5 783/37/5
f 785/37/3 817/37/3 814/37/3 782/37/3
f 786/37/6 818/37/6 817/37/6 785/37/6
f 816/37/5 819/37/5 787/37/5 784/37/5
f 788/37/6 820/37/6 818/37/6 786/37/6
f 819/37/5 821/37/5 789/37/5 787/37/5
f 790/37/6 822/37/6 820/37/6 788/37/6
f 821/37/5 823/37/5 791/37/5 789/37/5
f 792/37/6 824/37/6 822/37/6 790/37/6
f 823/37/5 825/37/5 793/37/5 791/37/5
f 794/37/6 826/37/6 824/37/6 792/37/6
f 825/37/5 827/37/5 795/37/5 793/37/5
f 796/37/6 828/37/6 826/37/6 794/37/6
f 827/37/5 829/37/5 797/37/5 795/37/5
f 798/37/6 830/37/6 828/37/6 796/37/6
f 829/37/5 831/37/5 799/37/5 797/37/5
f 800/37/6 832/37/6 830/37/6 798/37/6
f 831/37/5 833/37/5 801/37/5 799/37/5
f 802/37/6 834/37/6 832/37/6 800/37/6
f 833/37/5 835/37/5 803/37/5 801/37/5
f 804/37/6 836/37/6 834/37/6 802/37/6
f 835/37/5 837/37/5 805/37/5 803/37/5
f 806/37/6 838/37/6 836/37/6 804/37/6
f 837/37/5 839/37/5 807/37/5 805/37/5
f 808/37/6 840/37/6 838/37/6 806/37/6
f 839/37/5 841/37/5 809/37/5 807/37/5
f 810/37/6 842/37/6 840/37/6 808/37/6
f 843/37/4 844/37/4 812/37/4 811/37/4
f 841/37/5 843/37/5 811/37/5 809/37/5
f 844/37/4 845/37/4 813/37/4 812/37/4
f 813/37/6 845/37/6 842/37/6 810/37/6
f 814/37/3 846/37/3 847/37/3 815/37/3
f 847/37/5 848/37/5 816/37/5 815/37/5
f 817/37/3 849/37/3 846/37/3 814/37/3
f 818/37/6 850/37/6 849/37/6 817/37/6
f 848/37/5 851/37/5 819/37/5 816/37/5
f 820/37/6 852/37/6 850/37/6 818/37/6
f 851/37/5 853/37/5 821/37/5 819/37/5
f 822/37/6 854/37/6 852/37/6 820/37/6
f 853/37/5 855/37/5 823/37/5 821/37/5
f 824/37/6 856/37/6 854/37/6 822/37/6
f 855/37/5 857/37/5 825/37/5 823/37/5
f 826/37/6 858/37/6 856/37/6 824/37/6
f 857/37/5 859/37/5 827/37/5 825/37/5
f 828/37/6 860/37/6 858/37/6 826/37/6
f 859/37/5 861/37/5 829/37/5 827/37/5
f 830/37/6 862/37/6 860/37/6 828/37/6
f 861/37/5 863/37/5 831/37/5 829/37/5
f 832/37/6 864/37/6 862/37/6 830/37/6
f 863/37/5 865/37/5 833/37/5 831/37/5
f 834/37/6 866/37/6 864/37/6 832/37/6
f 865/37/5 867/37/5 835/37/5 833/37/5
f 836/37/6 868/37/6 866/37/6 834/37/6
f 867/37/5 869/37/5 837/37/5 835/37/5
f 838/37/6 870/37/6 868/37/6 836/37/6
f 869/37/5 871/37/5 839/37/5 837/37/5
f 840/37/6 872/37/6 870/37/6 838/37/6
f 871/37/5 873/37/5 841/37/5 839/37/5
f 842/37/6 874/37/6 872/37/6 840/37/6
f 875/37/4 876/37/4 844/37/4 843/37/4
f 873/37/5 875/37/5 843/37/5 841/37/5
f 876/36/4 877/36/4 845/36/4 844/36/4
f 845/36/6 877/36/6 874/36/6 842/36/6
f 846/37/3 878/37/3 879/37/3 847/37/3
f 879/37/5 880/37/5 848/37/5 847/37/5
f 849/38/3 881/38/3 878/38/3 846/38/3
f 850/38/6 882/38/6 881/38/6 849/38/6
f 880/37/5 883/37/5 851/37/5 848/37/5
f 852/37/6 884/37/6 882/37/6 850/37/6
f 883/37/5 885/37/5 853/37/5 851/37/5
f 854/37/6 886/37/6 884/37/6 852/37/6
f 885/37/5 887/37/5 855/37/5 853/37/5
f 856/37/6 888/37/6 886/37/6 854/37/6
f 887/37/5 889/37/5 857/37/5 855/37/5
f 858/37/6 890/37/6 888/37/6 856/37/6
f 889/37/5 891/37/5 859/37/5 857/37/5
f 860/37/6 892/37/6 890/37/6 858/37/6
f 891/37/5 893/37/5 861/37/5 859/37/5
f 862/37/6 894/37/6 892/37/6 860/37/6
f 893/37/5 895/37/5 863/37/5 861/37/5
f 864/37/6 896/37/6 894/37/6 862/37/6
f 895/37/5 897/37/5 865/37/5 863/37/5
f 866/37/6 898/37/6 896/37/6 864/37/6
f 897/37/5 899/37/5 867/37/5 865/37/5
f 868/37/6 900/37/6 898/37/6 866/37/6
f 899/37/5 901/37/5 869/37/5 867/37/5
f 870/37/6 902/37/6 900/37/6 868/37/6
f 901/37/5 903/37/5 871/37/5 869/37/5
f 872/37/6 904/37/6 902/37/6 870/37/6
f 903/37/5 905/37/5 873/37/5 871/37/5
f 874/37/6 906/37/6 904/37/6 872/37/6
f 907/37/4 908/37/4 876/37/4 875/37/4
f 905/37/5 907/37/5 875/37/5 873/37/5
f 908/37/4 909/37/4 877/37/4 876/37/4
f 877/37/6 909/37/6 906/37/6 874/37/6
f 878/37/3 910/37/3 911/37/3 879/37/3
f 911/37/5 912/37/5 880/37/5 879/37/5
f 881/37/3 913/37/3 910/37/3 878/37/3
f 882/37/6 914/37/6 913/37/6 881/37/6
f 912/37/5 915/37/5 883/37/5 880/37/5
f 884/37/6 916/37/6 914/37/6 882/37/6
f 915/37/5 917/37/5 885/37/5 883/37/5
f 886/37/6 918/37/6 916/37/6 884/37/6
f 917/37/5 919/37/5 887/37/5 885/37/5
f 888/37/6 920/37/6 918/37/6 886/37/6
f 919/37/5 921/37/5 889/37/5 887/37/5
f 890/37/6 922/37/6 920/37/6 888/37/6
f 921/37/5 923/37/5 891/37/5 889/37/5
f 892/37/6 924/37/6 922/37/6 890/37/6
f 923/37/5 925/37/5 893/37/5 891/37/5
f 894/37/6 926/37/6 924/37/6 892/37/6
f 925/37/5 927/37/5 895/37/5 893/37/5
f 896/37/6 928/37/6 926/37/6 894/37/6
f 927/37/5 929/37/5 897/37/5 895/37/5
f 898/37/6 930/37/6 928/37/6 896/37/6
f 929/37/5 931/37/5 899/37/5 897/37/5
f 900/37/6 932/37/6 930/37/6 898/37/6
f 931/37/5 933/37/5 901/37/5 899/37/5
f 902/37/6 934/37/6 932/37/6 900/37/6
f 933/37/5 935/37/5 903/37/5 901/37/5
f 904/37/6 936/37/6 934/37/6 902/37/6
f 935/37/5 937/37/5 905/37/5 903/37/5
f 906/37/6 938/37/6 936/37/6 904/37/6
f 939/37/4 940/37/4 908/37/4 907/37/4
f 937/37/5 939/37/5 907/37/5 905/37/5
f 940/37/4 941/37/4 909/37/4 908/37/4
f 909/37/6 941/37/6 938/37/6 906/37/6
f 910/37/3 942/37/3 943/37/3 911/37/3
f 943/37/5 944/37/5 912/37/5 911/37/5
f 913/36/3 945/36/3 942/36/3 910/36/3
f 914/36/6 946/36/6 945/36/6 913/36/6
f 944/37/5 947/37/5 915/37/5 912/37/5
f 916/36/6 948/36/6 946/36/6 914/36/6
f 947/37/5 949/37/5 917/37/5 915/37/5
f 918/36/6 950/36/6 948/36/6 916/36/6
f 949/37/5 951/37/5 919/37/5 917/37/5
f 920/36/6 952/36/6 950/36/6 918/36/6
f 951/37/5 953/37/5 921/37/5 919/37/5
f 922/36/6 954/36/6 952/36/6 920/36/6
f 953/37/5 955/37/5 923/37/5 921/37/5
f 924/36/6 956/36/6 954/36/6 922/36/6
f 955/37/5 957/37/5 925/37/5 923/37/5
f 926/36/6 958/36/6 956/36/6 924/36/6
f 957/37/5 959/37/5 927/37/5 925/37/5
f 928/36/6 960/36/6 958/36/6 926/36/6
f 959/37/5 961/37/5 929/37/5 927/37/5
f 930/36/6 962/36/6 960/36/6 928/36/6
f 961/37/5 963/37/5 931/37/5 929/37/5
f 932/36/6 964/36/6 962/36/6 930/36/6
f 963/37/5 965/37/5 933/37/5 931/37/5
f 934/36/6 966/36/6 964/36/6 932/36/6
f 965/37/5 967/37/5 935/37/5 933/37/5
f 936/36/6 968/36/6 966/36/6 934/36/6
f 967/37/5 969/37/5 937/37/5 935/37/5
f 938/36/6 970/36/6 968/36/6 936/36/6
f 971/37/4 972/37/4 940/37/4 939/37/4
f 969/37/5 971/37/5 939/37/5 937/37/5
f 972/36/4 973/36/4 941/36/4 940/36/4
f 941/36/6 973/36/6 970/36/6 938/36/6
f 942/37/3 974/37/3 975/37/3 943/37/3
f 975/37/5 976/37/5 944/37/5 943/37/5
f 945/37/3 977/37/3 974/37/3 942/37/3
f 946/37/6 978/37/6 977/37/6 945/37/6
f 976/37/5 979/37/5 947/37/5 944/37/5
f 948/37/6 980/37/6 978/37/6 946/37/6
f 979/37/5 981/37/5 949/37/5 947/37/5
f 950/37/6 982/37/6 980/37/6 948/37/6
f 981/37/5 983/37/5 951/37/5 949/37/5
f 952/37/6 984/37/6 982/37/6 950/37/6
f 983/37/5 985/37/5 953/37/5 951/37/5
f 954/37/6 986/37/6 984/37/6 952/37/6
f 985/37/5 987/37/5 955/37/5 953/37/5
f 956/37/6 988/37/6 986/37/6 954/37/6
f 987/37/5 989/37/5 957/37/5 955/37/5
f 958/37/6 990/37/6 988/37/6 956/37/6
f 989/37/5 991/37/5 959/37/5 957/37/5
f 960/37/6 992/37/6 990/37/6 958/37/6
f 991/37/5 993/37/5 961/37/5 959/37/5
f 962/37/6 994/37/6 992/37/6 960/37/6
f 993/37/5 995/37/5 963/37/5 961/37/5
f 964/37/6 996/37/6 994/37/6 962/37/6
f 995/37/5 997/37/5 965/37/5 963/37/5
f 966/37/6 998/37/6 996/37/6 964/37/6
f 997/37/5 999/37/5 967/37/5 965/37/5
f 968/37/6 1000/37/6 998/37/6 966/37/6
f 999/37/5 1001/37/5 969/37/5 967/37/5
f 970/37/6 1002/37/6 1000/37/6 968/37/6
f 1003/37/4 1004/37/4 972/37/4 971/37/4
f 1001/37/5 1003/37/5 971/37/5 969/37/5
f 1004/37/4 1005/37/4 973/37/4 972/37/4
f 973/37/6 1005/37/6 1002/37/6 970/37/6
f 974/37/3 1006/37/3 1007/37/3 975/37/3
f 1007/37/5 1008/37/5 976/37/5 975/37/5
f 977/37/3 1009/37/3 1006/37/3 974/37/3
f 978/37/6 1010/37/6 1009/37/6 977/37/6
f 1008/37/5 1011/37/5 979/37/5 976/37/5
f 980/37/6 1012/37/6 1010/37/6 978/37/6
f 1011/37/5 1013/37/5 981/37/5 979/37/5
f 982/37/6 1014/37/6 1012/37/6 980/37/6
f 1013/37/5 1015/37/5 983/37/5 981/37/5
f 984/37/6 1016/37/6 1014/37/6 982/37/6
f 1015/37/5 1017/37/5 985/37/5 983/37/5
f 986/37/6 1018/37/6 1016/37/6 984/37/6
f 1017/37/5 1019/37/5 987/37/5 985/37/5
f 988/37/6 1020/37/6 1018/37/6 986/37/6
f 1019/37/5 1021/37/5 989/37/5 987/37/5
f 990/37/6 1022/37/6 1020/37/6 988/37/6
f 1021/37/5 1023/37/5 991/37/5 989/37/5
f 992/37/6 1024/37/6 1022/37/6 990/37/6
f 1023/37/5 1025/37/5 993/37/5 991/37/5
f 994/37/6 1026/37/6 1024/37/6 992/37/6
f 1025/37/5 1027/37/5 995/37/5 993/37/5
f 996/37/6 1028/37/6 1026/37/6 994/37/6
f 1027/37/5 1029/37/5 997/37/5 995/37/5
f 998/37/6 1030/37/6 1028/37/6 996/37/6
f 1029/37/5 1031/37/5 999/37/5 997/37/5
f 1000/37/6 1032/37/6 1030/37/6 998/37/6
f 1031/37/5 1033/37/5 1001/37/5 999/37/5
f 1002/37/6 1034/37/6 1032/37/6 1000/37/6
f 1035/37/4 1036/37/4 1004/37/4 1003/37/4
f 1033/37/5 1035/37/5 1003/37/5 1001/37/5
f 1036/37/4 1037/37/4 1005/37/4 1004/37/4
f 1005/37/6 1037/37/6 1034/37/6 1002/37/6
f 1006/37/3 1038/37/3 1039/37/3 1007/37/3
f 1039/37/5 1040/37/5 1008/37/5 1007/37/5
f 1009/37/3 1041/37/3 1038/37/3 1006/37/3
f 1010/37/6 1042/37/6 1041/37/6 1009/37/6
f 1040/37/5 1043/37/5 1011/37/5 1008/37/5
f 1012/37/6 1044/37/6 1042/37/6 1010/37/6
f 1043/37/5 1045/37/5 1013/37/5 1011/37/5
f 1014/37/6 1046/37/6 1044/37/6 1012/37/6
f 1045/37/5 1047/37/5 1015/37/5 1013/37/5
f 1016/37/6 1048/37/6 1046/37/6 1014/37/6
f 1047/37/5 1049/37/5 1017/37/5 1015/37/5
f 1018/37/6 1050/37/6 1048/37/6 1016/37/6
f 1049/37/5 1051/37/5 1019/37/5 1017/37/5
f 1020/37/6 1052/37/6 1050/37/6 1018/37/6
f 1051/37/5 1053/37/5 1021/37/5 1019/37/5
f 1022/37/6 1054/37/6 1052/37/6 1020/37/6
f 1053/37/5 1055/37/5 1023/37/5 1021/37/5
f 1024/37/6 1056/37/6 1054/37/6 1022/37/6
f 1055/37/5 1057/37/5 1025/37/5 1023/37/5
f 1026/37/6 1058/37/6 1056/37/6 1024/37/6
f 1057/37/5 1059/37/5 1027/37/5 1025/37/5
f 1028/37/6 1060/37/6 1058/37/6 1026/37/6
f 1059/37/5 1061/37/5 1029/37/5 1027/37/5
f 1030/37/6 1062/37/6 1060/37/6 1028/37/6
f 1061/37/5 1063/37/5 1031/37/5 1029/37/5
f 1032/37/6 1064/37/6 1062/37/6 1030/37/6
f 1063/37/5 1065/37/5 1033/37/5 1031/37/5
f 1034/36/6 1066/36/6 1064/36/6 1032/36/6
f 1067/37/4 1068/37/4 1036/37/4 1035/37/4
f 1065/37/5 1067/37/5 1035/37/5 1033/37/5
f 1068/37/4 1069/37/4 1037/37/4 1036/37/4
f 1037/37/6 1069/37/6 1066/37/6 1034/37/6
f 1038/37/3 1070/37/3 1071/37/3 1039/37/3
f 1071/37/5 1072/37/5 1040/37/5 1039/37/5
f 1041/37/3 1073/37/3 1070/37/3 1038/37/3
f 1042/37/6 1074/37/6 1073/37/6 1041/37/6
f 1075/36/1 1076/36/1 1077/36/1 1078/36/1
f 1077/36/3 1079/36/3 1080/36/3 1078/36/3
f 1080/36/5 1081/36/5 1075/36/5 1078/36/5
f 1076/36/1 1082/36/1 1083/36/1 1077/36/1
f 1083/36/3 1084/36/3 1079/36/3 1077/36/3
f 1082/36/1 1085/36/1 1086/36/1 1083/36/1
f 1086/36/3 1087/36/3 1084/36/3 1083/36/3
f 1085/36/1 1088/36/1 1089/36/1 1086/36/1
f 1089/36/3 1090/36/3 1087/36/3 1086/36/3
f 1088/36/1 1091/36/1 1092/36/1 1089/36/1
f 1092/36/3 1093/36/3 1090/36/3 1089/36/3
f 1091/36/1 1094/36/1 1095/36/1 1092/36/1
f 1095/36/3 1096/36/3 1093/36/3 1092/36/3
f 1094/36/1 1097/36/1 1098/36/1 1095/36/1
f 1098/36/3 1099/36/3 1096/36/3 1095/36/3
f 1097/36/1 1100/36/1 1101/36/1 1098/36/1
f 1101/36/3 1102/36/3 1099/36/3 1098/36/3
f 1100/36/1 1103/36/1 1104/36/1 1101/36/1
f 1104/36/3 1105/36/3 1102/36/3 1101/36/3
f 1103/36/1 1043/36/1 1040/36/1 1104/36/1
f 1040/36/3 1072/36/3 1105/36/3 1104/36/3
f 1044/37/6 1106/37/6 1074/37/6 1042/37/6
f 1107/36/1 1108/36/1 1076/36/1 1075/36/1
f 1109/36/4 1110/36/4 1108/36/4 1107/36/4
f 1081/36/5 1109/36/5 1107/36/5 1075/36/5
f 1108/36/1 1111/36/1 1082/36/1 1076/36/1
f 1110/36/4 1112/36/4 1111/36/4 1108/36/4
f 1111/36/1 1113/36/1 1085/36/1 1082/36/1
f 1112/36/4 1114/36/4 1113/36/4 1111/36/4
f 1113/36/1 1115/36/1 1088/36/1 1085/36/1
f 1114/36/4 1116/36/4 1115/36/4 1113/36/4
f 1115/36/1 1117/36/1 1091/36/1 1088/36/1
f 1116/36/4 1118/36/4 1117/36/4 1115/36/4
f 1117/36/1 1119/36/1 1094/36/1 1091/36/1
f 1118/36/4 1120/36/4 1119/36/4 1117/36/4
f 1119/36/1 1121/36/1 1097/36/1 1094/36/1
f 1120/36/4 1122/36/4 1121/36/4 1119/36/4
f 1121/36/1 1123/36/1 1100/36/1 1097/36/1
f 1122/36/4 1124/36/4 1123/36/4 1121/36/4
f 1123/36/1 1125/36/1 1103/36/1 1100/36/1
f 1124/36/4 1126/36/4 1125/36/4 1123/36/4
f 1125/36/1 1045/36/1 1043/36/1 1103/36/1
f 1126/36/4 1127/36/4 1045/36/4 1125/36/4
f 1046/37/6 1128/37/6 1106/37/6 1044/37/6
f 1127/37/5 1129/37/5 1047/37/5 1045/37/5
f 1048/37/6 1130/37/6 1128/37/6 1046/37/6
f 1129/37/5 1131/37/5 1049/37/5 1047/37/5
f 1050/37/6 1132/37/6 1130/37/6 1048/37/6
f 1131/37/5 1133/37/5 1051/37/5 1049/37/5
f 1052/37/6 1134/37/6 1132/37/6 1050/37/6
f 1133/37/5 1135/37/5 1053/37/5 1051/37/5
f 1054/37/6 1136/37/6 1134/37/6 1052/37/6
f 1135/37/5 1137/37/5 1055/37/5 1053/37/5
f 1056/37/6 1138/37/6 1136/37/6 1054/37/6
f 1137/37/5 1139/37/5 1057/37/5 1055/37/5
f 1058/37/6 1140/37/6 1138/37/6 1056/37/6
f 1139/37/5 1141/37/5 1059/37/5 1057/37/5
f 1060/37/6 1142/37/6 1140/37/6 1058/37/6
f 1141/37/5 1143/37/5 1061/37/5 1059/37/5
f 1062/37/6 1144/37/6 1142/37/6 1060/37/6
f 1145/36/1 1146/36/1 1147/36/1 1148/36/1
f 1147/36/3 1149/36/3 1150/36/3 1148/36/3
f 1150/36/5 1151/36/5 1145/36/5 1148/36/5
f 1146/36/1 1152/36/1 1153/36/1 1147/36/1
f 1153/36/3 1154/36/3 1149/36/3 1147/36/3
f 1152/36/1 1155/36/1 1156/36/1 1153/36/1
f 1156/36/3 1157/36/3 1154/36/3 1153/36/3
f 1155/36/1 1158/36/1 1159/36/1 1156/36/1
f 1159/36/3 1160/36/3 1157/36/3 1156/36/3
f 1158/36/1 1161/36/1 1162/36/1 1159/36/1
f 1162/36/3 1163/36/3 1160/36/3 1159/36/3
f 1161/36/1 1164/36/1 1165/36/1 1162/36/1
f 1165/36/3 1166/36/3 1163/36/3 1162/36/3
f 1164/36/1 1167/36/1 1168/36/1 1165/36/1
f 1168/36/3 1169/36/3 1166/36/3 1165/36/3
f 1167/36/1 1170/36/1 1171/36/1 1168/36/1
f 1171/36/3 1172/36/3 1169/36/3 1168/36/3
f 1170/36/1 1173/36/1 1174/36/1 1171/36/1
f 1174/36/3 1175/36/3 1172/36/3 1171/36/3
f 1173/36/1 1063/36/1 1061/36/1 1174/36/1
f 1061/36/3 1143/36/3 1175/36/3 1174/36/3
f 1064/37/6 1176/37/6 1144/37/6 1062/37/6
f 1177/36/1 1178/36/1 1146/36/1 1145/36/1
f 1179/36/4 1180/36/4 1178/36/4 1177/36/4
f 1151/36/5 1179/36/5 1177/36/5 1145/36/5
f 1178/36/1 1181/36/1 1152/36/1 1146/36/1
f 1180/36/4 1182/36/4 1181/36/4 1178/36/4
f 1181/36/1 1183/36/1 1155/36/1 1152/36/1
f 1182/36/4 1184/36/4 1183/36/4 1181/36/4
f 1183/36/1 1185/36/1 1158/36/1 1155/36/1
f 1184/36/4 1186/36/4 1185/36/4 1183/36/4
f 1185/36/1 1187/36/1 1161/36/1 1158/36/1
f 1186/36/4 1188/36/4 1187/36/4 1185/36/4
f 1187/36/1 1189/36/1 1164/36/1 1161/36/1
f 1188/36/4 1190/36/4 1189/36/4 1187/36/4
f 1189/36/1 1191/36/1 1167/36/1 1164/36/1
f 1190/36/4 1192/36/4 1191/36/4 1189/36/4
f 1191/36/1 1193/36/1 1170/36/1 1167/36/1
f 1192/36/4 1194/36/4 1193/36/4 1191/36/4
f 1193/36/1 1195/36/1 1173/36/1 1170/36/1
f 1194/36/4 1196/36/4 1195/36/4 1193/36/4
f 1195/36/1 1065/36/1 1063/36/1 1173/36/1
f 1196/36/4 1197/36/4 1065/36/4 1195/36/4
f 1066/37/6 1198/37/6 1176/37/6 1064/37/6
f 1199/37/4 1200/37/4 1068/37/4 1067/37/4
f 1197/37/5 1199/37/5 1067/37/5 1065/37/5
f 1200/37/4 1201/37/4 1069/37/4 1068/37/4
f 1069/37/6 1201/37/6 1198/37/6 1066/37/6
f 1070/37/3 1202/37/3 1203/37/3 1071/37/3
f 1203/37/5 1204/37/5 1072/37/5 1071/37/5
f 1073/36/3 1205/36/3 1202/36/3 1070/36/3
f 1074/36/6 1206/36/6 1205/36/6 1073/36/6
f 1207/36/2 1208/36/2 1209/36/2 1210/36/2
f 1079/36/3 1207/36/3 1210/36/3 1080/36/3
f 1210/36/5 1209/36/5 1081/36/5 1080/36/5
f 1211/36/2 1212/36/2 1208/36/2 1207/36/2
f 1084/36/3 1211/36/3 1207/36/3 1079/36/3
f 1213/36/2 1214/36/2 1212/36/2 1211/36/2
f 1087/36/3 1213/36/3 1211/36/3 1084/36/3
f 1215/36/2 1216/36/2 1214/36/2 1213/36/2
f 1090/36/3 1215/36/3 1213/36/3 1087/36/3
f 1217/36/2 1218/36/2 1216/36/2 1215/36/2
f 1093/36/3 1217/36/3 1215/36/3 1090/36/3
f 1219/36/2 1220/36/2 1218/36/2 1217/36/2
f 1096/36/3 1219/36/3 1217/36/3 1093/36/3
f 1221/36/2 1222/36/2 1220/36/2 1219/36/2
f 1099/36/3 1221/36/3 1219/36/3 1096/36/3
f 1223/36/2 1224/36/2 1222/36/2 1221/36/2
f 1102/36/3 1223/36/3 1221/36/3 1099/36/3
f 1225/36/2 1226/36/2 1224/36/2 1223/36/2
f 1105/36/3 1225/36/3 1223/36/3 1102/36/3
f 1204/36/2 1227/36/2 1226/36/2 1225/36/2
f 1072/36/3 1204/36/3 1225/36/3 1105/36/3
f 1106/36/6 1228/36/6 1206/36/6 1074/36/6
f 1208/36/2 1229/36/2 1230/36/2 1209/36/2
f 1230/36/4 1229/36/4 1110/36/4 1109/36/4
f 1209/36/5 1230/36/5 1109/36/5 1081/36/5
f 1212/36/2 1231/36/2 1229/36/2 1208/36/2
f 1229/36/4 1231/36/4 1112/36/4 1110/36/4
f 1214/36/2 1232/36/2 1231/36/2 1212/36/2
f 1231/36/4 1232/36/4 1114/36/4 1112/36/4
f 1216/36/2 1233/36/2 1232/36/2 1214/36/2
f 1232/36/4 1233/36/4 1116/36/4 1114/36/4
f 1218/36/2 1234/36/2 1233/36/2 1216/36/2
f 1233/36/4 1234/36/4 1118/36/4 1116/36/4
f 1220/36/2 1235/36/2 1234/36/2 1218/36/2
f 1234/36/4 1235/36/4 1120/36/4 1118/36/4
f 1222/36/2 1236/36/2 1235/36/2 1220/36/2
f 1235/36/4 1236/36/4 1122/36/4 1120/36/4
f 1224/36/2 1237/36/2 1236/36/2 1222/36/2
f 1236/36/4 1237/36/4 1124/36/4 1122/36/4
f 1226/36/2 1238/36/2 1237/36/2 1224/36/2
f 1237/36/4 1238/36/4 1126/36/4 1124/36/4
f 1227/36/2 1239/36/2 1238/36/2 1226/36/2
f 1238/36/4 1239/36/4 1127/36/4 1126/36/4
f 1128/36/6 1240/36/6 1228/36/6 1106/36/6
f 1239/37/5 1241/37/5 1129/37/5 1127/37/5
f 1130/36/6 1242/36/6 1240/36/6 1128/36/6
f 1241/37/5 1243/37/5 1131/37/5 1129/37/5
f 1132/36/6 1244/36/6 1242/36/6 1130/36/6
f 1243/37/5 1245/37/5 1133/37/5 1131/37/5
f 1134/36/6 1246/36/6 1244/36/6 1132/36/6
f 1245/37/5 1247/37/5 1135/37/5 1133/37/5
f 1136/36/6 1248/36/6 1246/36/6 1134/36/6
f 1247/37/5 1249/37/5 1137/37/5 1135/37/5
f 1138/36/6 1250/36/6 1248/36/6 1136/36/6
f 1249/37/5 1251/37/5 1139/37/5 1137/37/5
f 1140/36/6 1252/36/6 1250/36/6 1138/36/6
f 1251/37/5 1253/37/5 1141/37/5 1139/37/5
f 1142/36/6 1254/36/6 1252/36/6 1140/36/6
f 1253/37/5 1255/37/5 1143/37/5 1141/37/5
f 1144/36/6 1256/36/6 1254/36/6 1142/36/6
f 1257/36/2 1258/36/2 1259/36/2 1260/36/2
f 1149/36/3 1257/36/3 1260/36/3 1150/36/3
f 1260/36/5 1259/36/5 1151/36/5 1150/36/5
f 1261/36/2 1262/36/2 1258/36/2 1257/36/2
f 1154/36/3 1261/36/3 1257/36/3 1149/36/3
f 1263/36/2 1264/36/2 1262/36/2 1261/36/2
f 1157/36/3 1263/36/3 1261/36/3 1154/36/3
f 1265/36/2 1266/36/2 1264/36/2 1263/36/2
f 1160/36/3 1265/36/3 1263/36/3 1157/36/3
f 1267/36/2 1268/36/2 1266/36/2 1265/36/2
f 1163/36/3 1267/36/3 1265/36/3 1160/36/3
f 1269/36/2 1270/36/2 1268/36/2 1267/36/2
f 1166/36/3 1269/36/3 1267/36/3 1163/36/3
f 1271/36/2 1272/36/2 1270/36/2 1269/36/2
f 1169/36/3 1271/36/3 1269/36/3 1166/36/3
f 1273/38/2 1274/38/2 1272/38/2 1271/38/2
f 1172/38/3 1273/38/3 1271/38/3 1169/38/3
f 1275/36/2 1276/36/2 1274/36/2 1273/36/2
f 1175/36/3 1275/36/3 1273/36/3 1172/36/3
f 1255/36/2 1277/36/2 1276/36/2 1275/36/2
f 1143/36/3 1255/36/3 1275/36/3 1175/36/3
f 1176/36/6 1278/36/6 1256/36/6 1144/36/6
f 1258/36/2 1279/36/2 1280/36/2 1259/36/2
f 1280/36/4 1279/36/4 1180/36/4 1179/36/4
f 1259/36/5 1280/36/5 1179/36/5 1151/36/5
f 1262/36/2 1281/36/2 1279/36/2 1258/36/2
f 1279/36/4 1281/36/4 1182/36/4 1180/36/4
f 1264/36/2 1282/36/2 1281/36/2 1262/36/2
f 1281/36/4 1282/36/4 1184/36/4 1182/36/4
f 1266/36/2 1283/36/2 1282/36/2 1264/36/2
f 1282/36/4 1283/36/4 1186/36/4 1184/36/4
f 1268/36/2 1284/36/2 1283/36/2 1266/36/2
f 1283/36/4 1284/36/4 1188/36/4 1186/36/4
f 1270/36/2 1285/36/2 1284/36/2 1268/36/2
f 1284/36/4 1285/36/4 1190/36/4 1188/36/4
f 1272/36/2 1286/36/2 1285/36/2 1270/36/2
f 1285/36/4 1286/36/4 1192/36/4 1190/36/4
f 1274/36/2 1287/36/2 1286/36/2 1272/36/2
f 1286/36/4 1287/36/4 1194/36/4 1192/36/4
f 1276/36/2 1288/36/2 1287/36/2 1274/36/2
f 1287/36/4 1288/36/4 1196/36/4 1194/36/4
f 1277/36/2 1289/36/2 1288/36/2 1276/36/2
f 1288/36/4 1289/36/4 1197/36/4 1196/36/4
f 1198/36/6 1290/36/6 1278/36/6 1176/36/6
f 1291/37/4 1292/37/4 1200/37/4 1199/37/4
f 1289/37/5 1291/37/5 1199/37/5 1197/37/5
f 1292/36/4 1293/36/4 1201/36/4 1200/36/4
f 1201/36/6 1293/36/6 1290/36/6 1198/36/6
f 1294/37/2 1295/37/2 1296/37/2 1297/37/2
f 1202/37/3 1294/37/3 1297/37/3 1203/37/3
f 1297/37/5 1296/37/5 1204/37/5 1203/37/5
f 1298/37/2 1299/37/2 1295/37/2 1294/37/2
f 1205/37/3 1298/37/3 1294/37/3 1202/37/3
f 1206/37/6 1299/37/6 1298/37/6 1205/37/6
f 1295/37/2 1300/37/2 1301/37/2 1296/37/2
f 1296/37/5 1301/37/5 1227/37/5 1204/37/5
f 1299/37/2 1302/37/2 1300/37/2 1295/37/2
f 1228/37/6 1302/37/6 1299/37/6 1206/37/6
f 1300/37/2 1303/37/2 1304/37/2 1301/37/2
f 1301/37/5 1304/37/5 1239/37/5 1227/37/5
f 1302/37/2 1305/37/2 1303/37/2 1300/37/2
f 1240/37/6 1305/37/6 1302/37/6 1228/37/6
f 1303/37/2 1306/37/2 1307/37/2 1304/37/2
f 1304/37/5 1307/37/5 1241/37/5 1239/37/5
f 1305/37/2 1308/37/2 1306/37/2 1303/37/2
f 1242/37/6 1308/37/6 1305/37/6 1240/37/6
f 1306/37/2 1309/37/2 1310/37/2 1307/37/2
f 1307/37/5 1310/37/5 1243/37/5 1241/37/5
f 1308/37/2 1311/37/2 1309/37/2 1306/37/2
f 1244/37/6 1311/37/6 1308/37/6 1242/37/6
f 1309/37/2 1312/37/2 1313/37/2 1310/37/2
f 1310/37/5 1313/37/5 1245/37/5 1243/37/5
f 1311/37/2 1314/37/2 1312/37/2 1309/37/2
f 1246/37/6 1314/37/6 1311/37/6 1244/37/6
f 1312/37/2 1315/37/2 1316/37/2 1313/37/2
f 1313/37/5 1316/37/5 1247/37/5 1245/37/5
f 1314/37/2 1317/37/2 1315/37/2 1312/37/2
f 1248/37/6 1317/37/6 1314/37/6 1246/37/6
f 1315/37/2 1318/37/2 1319/37/2 1316/37/2
f 1316/37/5 1319/37/5 1249/37/5 1247/37/5
f 1317/37/2 1320/37/2 1318/37/2 1315/37/2
f 1250/37/6 1320/37/6 1317/37/6 1248/37/6
f 1318/37/2 1321/37/2 1322/37/2 1319/37/2
f 1319/37/5 1322/37/5 1251/37/5 1249/37/5
f 1320/37/2 1323/37/2 1321/37/2 1318/37/2
f 1252/37/6 1323/37/6 1320/37/6 1250/37/6
f 1321/37/2 1324/37/2 1325/37/2 1322/37/2
f 1322/37/5 1325/37/5 1253/37/5 1251/37/5
f 1323/37/2 1326/37/2 1324/37/2 1321/37/2
f 1254/37/6 1326/37/6 1323/37/6 1252/37/6
f 1324/37/2 1327/37/2 1328/37/2 1325/37/2
f 1325/37/5 1328/37/5 1255/37/5 1253/37/5
f 1326/37/2 1329/37/2 1327/37/2 1324/37/2
f 1256/37/6 1329/37/6 1326/37/6 1254/37/6
f 1327/37/2 1330/37/2 1331/37/2 1328/37/2
f 1328/37/5 1331/37/5 1277/37/5 1255/37/5
f 1329/37/2 1332/37/2 1330/37/2 1327/37/2
f 1278/37/6 1332/37/6 1329/37/6 1256/37/6
f 1330/37/2 1333/37/2 1334/37/2 1331/37/2
f 1331/37/5 1334/37/5 1289/37/5 1277/37/5
f 1332/37/2 1335/37/2 1333/37/2 1330/37/2
f 1290/37/6 1335/37/6 1332/37/6 1278/37/6
f 1333/37/2 1336/37/2 1337/37/2 1334/37/2
f 1337/37/4 1336/37/4 1292/37/4 1291/37/4
f 1334/37/5 1337/37/5 1291/37/5 1289/37/5
f 1335/37/2 1338/37/2 1336/37/2 1333/37/2
f 1336/37/4 1338/37/4 1293/37/4 1292/37/4
f 1293/37/6 1338/37/6 1335/37/6 1290/37/6
