# Dungine torch_standing; 1 voxel = 1/16 unit; Y-up floor-center origin
mtllib torch_standing.mtl
o torch_standing
s off
v -0.250000 0.000000 -0.187500
v -0.250000 0.062500 -0.187500
v -0.250000 0.062500 -0.250000
v -0.250000 0.000000 -0.250000
v -0.187500 0.062500 -0.250000
v -0.187500 0.000000 -0.250000
v -0.187500 0.000000 -0.187500
v -0.250000 0.125000 -0.187500
v -0.250000 0.125000 -0.250000
v -0.187500 0.125000 -0.250000
v -0.187500 0.125000 -0.187500
v -0.250000 0.000000 -0.125000
v -0.250000 0.062500 -0.125000
v -0.187500 0.000000 -0.125000
v -0.250000 0.125000 -0.125000
v -0.187500 0.125000 -0.125000
v -0.250000 0.000000 -0.062500
v -0.250000 0.062500 -0.062500
v -0.187500 0.000000 -0.062500
v -0.250000 0.125000 -0.062500
v -0.187500 0.125000 -0.062500
v -0.250000 0.000000 0.000000
v -0.250000 0.062500 0.000000
v -0.187500 0.000000 0.000000
v -0.250000 0.125000 0.000000
v -0.187500 0.125000 0.000000
v -0.250000 0.000000 0.062500
v -0.250000 0.062500 0.062500
v -0.187500 0.000000 0.062500
v -0.250000 0.125000 0.062500
v -0.187500 0.125000 0.062500
v -0.250000 0.000000 0.125000
v -0.250000 0.062500 0.125000
v -0.187500 0.000000 0.125000
v -0.250000 0.125000 0.125000
v -0.187500 0.125000 0.125000
v -0.250000 0.000000 0.187500
v -0.250000 0.062500 0.187500
v -0.187500 0.000000 0.187500
v -0.250000 0.125000 0.187500
v -0.187500 0.125000 0.187500
v -0.250000 0.000000 0.250000
v -0.250000 0.062500 0.250000
v -0.187500 0.000000 0.250000
v -0.187500 0.062500 0.250000
v -0.250000 0.125000 0.250000
v -0.187500 0.125000 0.250000
v -0.125000 0.062500 -0.250000
v -0.125000 0.000000 -0.250000
v -0.125000 0.000000 -0.187500
v -0.125000 0.125000 -0.250000
v -0.125000 0.125000 -0.187500
v -0.125000 0.000000 -0.125000
v -0.125000 0.125000 -0.125000
v -0.125000 0.000000 -0.062500
v -0.125000 0.125000 -0.062500
v -0.125000 0.000000 0.000000
v -0.125000 0.125000 0.000000
v -0.125000 0.000000 0.062500
v -0.125000 0.125000 0.062500
v -0.125000 0.000000 0.125000
v -0.125000 0.125000 0.125000
v -0.125000 0.000000 0.187500
v -0.125000 0.125000 0.187500
v -0.125000 0.000000 0.250000
v -0.125000 0.062500 0.250000
v -0.125000 0.125000 0.250000
v -0.062500 0.062500 -0.250000
v -0.062500 0.000000 -0.250000
v -0.062500 0.000000 -0.187500
v -0.062500 0.125000 -0.250000
v -0.062500 0.125000 -0.187500
v -0.062500 0.000000 -0.125000
v -0.062500 0.125000 -0.125000
v -0.062500 0.000000 -0.062500
v -0.062500 0.125000 -0.062500
v -0.125000 1.187500 -0.062500
v -0.125000 1.250000 -0.062500
v -0.125000 1.250000 -0.125000
v -0.125000 1.187500 -0.125000
v -0.062500 1.250000 -0.125000
v -0.062500 1.187500 -0.125000
v -0.062500 1.187500 -0.062500
v -0.125000 1.312500 -0.062500
v -0.125000 1.312500 -0.125000
v -0.062500 1.312500 -0.125000
v -0.125000 1.375000 -0.062500
v -0.125000 1.375000 -0.125000
v -0.062500 1.375000 -0.125000
v -0.062500 1.375000 -0.062500
v -0.062500 0.000000 0.000000
v -0.062500 0.125000 0.000000
v -0.125000 1.187500 0.000000
v -0.125000 1.250000 0.000000
v -0.062500 1.187500 0.000000
v -0.125000 1.312500 0.000000
v -0.125000 1.375000 0.000000
v -0.062500 1.375000 0.000000
v -0.062500 0.000000 0.062500
v -0.062500 0.125000 0.062500
v -0.125000 1.187500 0.062500
v -0.125000 1.250000 0.062500
v -0.062500 1.187500 0.062500
v -0.125000 1.312500 0.062500
v -0.125000 1.375000 0.062500
v -0.125000 1.437500 0.062500
v -0.125000 1.437500 0.000000
v -0.062500 1.437500 0.000000
v -0.062500 1.375000 0.062500
v -0.062500 1.437500 0.062500
v -0.125000 1.500000 0.062500
v -0.125000 1.500000 0.000000
v -0.062500 1.500000 0.000000
v -0.062500 1.500000 0.062500
v -0.125000 1.562500 0.062500
v -0.125000 1.562500 0.000000
v -0.062500 1.562500 0.000000
v -0.062500 1.562500 0.062500
v -0.062500 0.000000 0.125000
v -0.062500 0.125000 0.125000
v -0.125000 1.187500 0.125000
v -0.125000 1.250000 0.125000
v -0.062500 1.187500 0.125000
v -0.062500 1.250000 0.125000
v -0.125000 1.312500 0.125000
v -0.062500 1.312500 0.125000
v -0.125000 1.375000 0.125000
v -0.062500 1.375000 0.125000
v -0.062500 0.000000 0.187500
v -0.062500 0.125000 0.187500
v -0.062500 0.000000 0.250000
v -0.062500 0.062500 0.250000
v -0.062500 0.125000 0.250000
v 0.000000 0.062500 -0.250000
v 0.000000 0.000000 -0.250000
v 0.000000 0.000000 -0.187500
v 0.000000 0.125000 -0.250000
v 0.000000 0.125000 -0.187500
v 0.000000 0.000000 -0.125000
v 0.000000 0.125000 -0.125000
v 0.000000 0.000000 -0.062500
v 0.000000 0.125000 -0.062500
v 0.000000 1.250000 -0.125000
v 0.000000 1.187500 -0.125000
v 0.000000 1.187500 -0.062500
v 0.000000 1.312500 -0.125000
v 0.000000 1.375000 -0.125000
v 0.000000 1.375000 -0.062500
v 0.000000 0.000000 0.000000
v -0.062500 0.187500 0.000000
v -0.062500 0.187500 -0.062500
v 0.000000 0.187500 -0.062500
v -0.062500 0.250000 0.000000
v -0.062500 0.250000 -0.062500
v 0.000000 0.250000 -0.062500
v -0.062500 0.312500 0.000000
v -0.062500 0.312500 -0.062500
v 0.000000 0.312500 -0.062500
v -0.062500 0.375000 0.000000
v -0.062500 0.375000 -0.062500
v 0.000000 0.375000 -0.062500
v -0.062500 0.437500 0.000000
v -0.062500 0.437500 -0.062500
v 0.000000 0.437500 -0.062500
v -0.062500 0.500000 0.000000
v -0.062500 0.500000 -0.062500
v 0.000000 0.500000 -0.062500
v -0.062500 0.562500 0.000000
v -0.062500 0.562500 -0.062500
v 0.000000 0.562500 -0.062500
v -0.062500 0.625000 0.000000
v -0.062500 0.625000 -0.062500
v 0.000000 0.625000 -0.062500
v -0.062500 0.687500 0.000000
v -0.062500 0.687500 -0.062500
v 0.000000 0.687500 -0.062500
v -0.062500 0.750000 0.000000
v -0.062500 0.750000 -0.062500
v 0.000000 0.750000 -0.062500
v -0.062500 0.812500 0.000000
v -0.062500 0.812500 -0.062500
v 0.000000 0.812500 -0.062500
v -0.062500 0.875000 0.000000
v -0.062500 0.875000 -0.062500
v 0.000000 0.875000 -0.062500
v -0.062500 0.937500 0.000000
v -0.062500 0.937500 -0.062500
v 0.000000 0.937500 -0.062500
v -0.062500 1.000000 0.000000
v -0.062500 1.000000 -0.062500
v 0.000000 1.000000 -0.062500
v -0.062500 1.062500 0.000000
v -0.062500 1.062500 -0.062500
v 0.000000 1.062500 -0.062500
v -0.062500 1.125000 0.000000
v -0.062500 1.125000 -0.062500
v 0.000000 1.125000 -0.062500
v -0.062500 1.437500 -0.062500
v 0.000000 1.437500 -0.062500
v -0.062500 1.500000 -0.062500
v 0.000000 1.500000 -0.062500
v -0.062500 1.562500 -0.062500
v 0.000000 1.562500 -0.062500
v 0.000000 1.562500 0.000000
v 0.000000 0.000000 0.062500
v -0.062500 0.187500 0.062500
v 0.000000 0.125000 0.062500
v 0.000000 0.187500 0.062500
v -0.062500 0.250000 0.062500
v 0.000000 0.250000 0.062500
v -0.062500 0.312500 0.062500
v 0.000000 0.312500 0.062500
v -0.062500 0.375000 0.062500
v 0.000000 0.375000 0.062500
v -0.062500 0.437500 0.062500
v 0.000000 0.437500 0.062500
v -0.062500 0.500000 0.062500
v 0.000000 0.500000 0.062500
v -0.062500 0.562500 0.062500
v 0.000000 0.562500 0.062500
v -0.062500 0.625000 0.062500
v 0.000000 0.625000 0.062500
v -0.062500 0.687500 0.062500
v 0.000000 0.687500 0.062500
v -0.062500 0.750000 0.062500
v 0.000000 0.750000 0.062500
v -0.062500 0.812500 0.062500
v 0.000000 0.812500 0.062500
v -0.062500 0.875000 0.062500
v 0.000000 0.875000 0.062500
v -0.062500 0.937500 0.062500
v 0.000000 0.937500 0.062500
v -0.062500 1.000000 0.062500
v 0.000000 1.000000 0.062500
v -0.062500 1.062500 0.062500
v 0.000000 1.062500 0.062500
v -0.062500 1.125000 0.062500
v 0.000000 1.125000 0.062500
v 0.000000 1.187500 0.062500
v -0.062500 1.625000 0.062500
v -0.062500 1.625000 0.000000
v 0.000000 1.625000 0.000000
v 0.000000 1.562500 0.062500
v 0.000000 1.625000 0.062500
v -0.062500 1.687500 0.062500
v -0.062500 1.687500 0.000000
v 0.000000 1.687500 0.000000
v 0.000000 1.687500 0.062500
v 0.000000 0.000000 0.125000
v 0.000000 0.125000 0.125000
v 0.000000 1.187500 0.125000
v 0.000000 1.250000 0.125000
v 0.000000 1.312500 0.125000
v 0.000000 1.375000 0.125000
v -0.062500 1.437500 0.125000
v 0.000000 1.437500 0.125000
v -0.062500 1.500000 0.125000
v 0.000000 1.500000 0.125000
v -0.062500 1.562500 0.125000
v 0.000000 1.562500 0.125000
v 0.000000 0.000000 0.187500
v 0.000000 0.125000 0.187500
v 0.000000 0.000000 0.250000
v 0.000000 0.062500 0.250000
v 0.000000 0.125000 0.250000
v 0.062500 0.062500 -0.250000
v 0.062500 0.000000 -0.250000
v 0.062500 0.000000 -0.187500
v 0.062500 0.125000 -0.250000
v 0.062500 0.125000 -0.187500
v 0.062500 0.000000 -0.125000
v 0.062500 0.125000 -0.125000
v 0.062500 0.000000 -0.062500
v 0.062500 0.125000 -0.062500
v 0.062500 1.250000 -0.125000
v 0.062500 1.187500 -0.125000
v 0.062500 1.187500 -0.062500
v 0.062500 1.312500 -0.125000
v 0.062500 1.375000 -0.125000
v 0.000000 1.437500 -0.125000
v 0.062500 1.437500 -0.125000
v 0.062500 1.437500 -0.062500
v 0.062500 1.375000 -0.062500
v 0.000000 1.500000 -0.125000
v 0.062500 1.500000 -0.125000
v 0.062500 1.500000 -0.062500
v 0.000000 1.562500 -0.125000
v 0.062500 1.562500 -0.125000
v 0.062500 1.562500 -0.062500
v 0.062500 0.000000 0.000000
v 0.062500 0.187500 -0.062500
v 0.062500 0.187500 0.000000
v 0.062500 0.125000 0.000000
v 0.062500 0.250000 -0.062500
v 0.062500 0.250000 0.000000
v 0.062500 0.312500 -0.062500
v 0.062500 0.312500 0.000000
v 0.062500 0.375000 -0.062500
v 0.062500 0.375000 0.000000
v 0.062500 0.437500 -0.062500
v 0.062500 0.437500 0.000000
v 0.062500 0.500000 -0.062500
v 0.062500 0.500000 0.000000
v 0.062500 0.562500 -0.062500
v 0.062500 0.562500 0.000000
v 0.062500 0.625000 -0.062500
v 0.062500 0.625000 0.000000
v 0.062500 0.687500 -0.062500
v 0.062500 0.687500 0.000000
v 0.062500 0.750000 -0.062500
v 0.062500 0.750000 0.000000
v 0.062500 0.812500 -0.062500
v 0.062500 0.812500 0.000000
v 0.062500 0.875000 -0.062500
v 0.062500 0.875000 0.000000
v 0.062500 0.937500 -0.062500
v 0.062500 0.937500 0.000000
v 0.062500 1.000000 -0.062500
v 0.062500 1.000000 0.000000
v 0.062500 1.062500 -0.062500
v 0.062500 1.062500 0.000000
v 0.062500 1.125000 -0.062500
v 0.062500 1.125000 0.000000
v 0.062500 1.187500 0.000000
v 0.000000 1.625000 -0.062500
v 0.062500 1.625000 -0.062500
v 0.062500 1.625000 0.000000
v 0.062500 1.562500 0.000000
v 0.000000 1.687500 -0.062500
v 0.062500 1.687500 -0.062500
v 0.062500 1.687500 0.000000
v 0.062500 0.000000 0.062500
v 0.062500 0.187500 0.062500
v 0.062500 0.125000 0.062500
v 0.062500 0.250000 0.062500
v 0.062500 0.312500 0.062500
v 0.062500 0.375000 0.062500
v 0.062500 0.437500 0.062500
v 0.062500 0.500000 0.062500
v 0.062500 0.562500 0.062500
v 0.062500 0.625000 0.062500
v 0.062500 0.687500 0.062500
v 0.062500 0.750000 0.062500
v 0.062500 0.812500 0.062500
v 0.062500 0.875000 0.062500
v 0.062500 0.937500 0.062500
v 0.062500 1.000000 0.062500
v 0.062500 1.062500 0.062500
v 0.062500 1.125000 0.062500
v 0.062500 1.187500 0.062500
v 0.062500 1.687500 0.062500
v 0.062500 0.000000 0.125000
v 0.062500 0.125000 0.125000
v 0.062500 1.187500 0.125000
v 0.062500 1.250000 0.125000
v 0.062500 1.312500 0.125000
v 0.062500 1.375000 0.125000
v 0.000000 1.625000 0.125000
v 0.062500 1.625000 0.062500
v 0.062500 1.625000 0.125000
v 0.062500 1.562500 0.125000
v 0.062500 1.562500 0.062500
v 0.000000 1.687500 0.125000
v 0.062500 1.687500 0.125000
v 0.062500 0.000000 0.187500
v 0.062500 0.125000 0.187500
v 0.000000 1.375000 0.187500
v 0.000000 1.437500 0.187500
v 0.062500 1.437500 0.125000
v 0.062500 1.437500 0.187500
v 0.062500 1.375000 0.187500
v 0.000000 1.500000 0.187500
v 0.062500 1.500000 0.125000
v 0.062500 1.500000 0.187500
v 0.000000 1.562500 0.187500
v 0.062500 1.562500 0.187500
v 0.062500 0.000000 0.250000
v 0.062500 0.062500 0.250000
v 0.062500 0.125000 0.250000
v 0.125000 0.062500 -0.250000
v 0.125000 0.000000 -0.250000
v 0.125000 0.000000 -0.187500
v 0.125000 0.125000 -0.250000
v 0.125000 0.125000 -0.187500
v 0.125000 0.000000 -0.125000
v 0.125000 0.125000 -0.125000
v 0.125000 0.000000 -0.062500
v 0.125000 0.125000 -0.062500
v 0.125000 1.250000 -0.125000
v 0.125000 1.250000 -0.062500
v 0.125000 1.187500 -0.062500
v 0.125000 1.187500 -0.125000
v 0.125000 1.312500 -0.125000
v 0.125000 1.312500 -0.062500
v 0.125000 1.375000 -0.125000
v 0.125000 1.375000 -0.062500
v 0.125000 0.000000 0.000000
v 0.125000 0.125000 0.000000
v 0.125000 1.250000 0.000000
v 0.125000 1.187500 0.000000
v 0.125000 1.312500 0.000000
v 0.125000 1.375000 0.000000
v 0.125000 1.437500 -0.062500
v 0.125000 1.437500 0.000000
v 0.125000 1.500000 -0.062500
v 0.125000 1.500000 0.000000
v 0.125000 1.562500 -0.062500
v 0.125000 1.562500 0.000000
v 0.125000 0.000000 0.062500
v 0.125000 0.125000 0.062500
v 0.125000 1.250000 0.062500
v 0.125000 1.187500 0.062500
v 0.125000 1.312500 0.062500
v 0.125000 1.375000 0.062500
v 0.125000 1.625000 0.000000
v 0.125000 1.625000 0.062500
v 0.125000 1.562500 0.062500
v 0.125000 1.687500 0.000000
v 0.125000 1.687500 0.062500
v 0.062500 1.750000 0.062500
v 0.062500 1.750000 0.000000
v 0.125000 1.750000 0.000000
v 0.125000 1.750000 0.062500
v 0.125000 0.000000 0.125000
v 0.125000 0.125000 0.125000
v 0.125000 1.250000 0.125000
v 0.125000 1.187500 0.125000
v 0.125000 1.312500 0.125000
v 0.125000 1.375000 0.125000
v 0.125000 1.437500 0.062500
v 0.125000 1.437500 0.125000
v 0.125000 1.500000 0.062500
v 0.125000 1.500000 0.125000
v 0.125000 1.562500 0.125000
v 0.125000 0.000000 0.187500
v 0.125000 0.125000 0.187500
v 0.125000 0.000000 0.250000
v 0.125000 0.062500 0.250000
v 0.125000 0.125000 0.250000
v 0.187500 0.062500 -0.250000
v 0.187500 0.000000 -0.250000
v 0.187500 0.000000 -0.187500
v 0.187500 0.125000 -0.250000
v 0.187500 0.125000 -0.187500
v 0.187500 0.000000 -0.125000
v 0.187500 0.125000 -0.125000
v 0.187500 0.000000 -0.062500
v 0.187500 0.125000 -0.062500
v 0.187500 0.000000 0.000000
v 0.187500 0.125000 0.000000
v 0.187500 0.000000 0.062500
v 0.187500 0.125000 0.062500
v 0.187500 1.437500 0.000000
v 0.187500 1.437500 0.062500
v 0.187500 1.375000 0.062500
v 0.187500 1.375000 0.000000
v 0.187500 1.500000 0.000000
v 0.187500 1.500000 0.062500
v 0.187500 1.562500 0.000000
v 0.187500 1.562500 0.062500
v 0.187500 0.000000 0.125000
v 0.187500 0.125000 0.125000
v 0.187500 0.000000 0.187500
v 0.187500 0.125000 0.187500
v 0.187500 0.000000 0.250000
v 0.187500 0.062500 0.250000
v 0.187500 0.125000 0.250000
v 0.250000 0.062500 -0.250000
v 0.250000 0.062500 -0.187500
v 0.250000 0.000000 -0.187500
v 0.250000 0.000000 -0.250000
v 0.250000 0.125000 -0.250000
v 0.250000 0.125000 -0.187500
v 0.250000 0.062500 -0.125000
v 0.250000 0.000000 -0.125000
v 0.250000 0.125000 -0.125000
v 0.250000 0.062500 -0.062500
v 0.250000 0.000000 -0.062500
v 0.250000 0.125000 -0.062500
v 0.250000 0.062500 0.000000
v 0.250000 0.000000 0.000000
v 0.250000 0.125000 0.000000
v 0.250000 0.062500 0.062500
v 0.250000 0.000000 0.062500
v 0.250000 0.125000 0.062500
v 0.250000 0.062500 0.125000
v 0.250000 0.000000 0.125000
v 0.250000 0.125000 0.125000
v 0.250000 0.062500 0.187500
v 0.250000 0.000000 0.187500
v 0.250000 0.125000 0.187500
v 0.250000 0.062500 0.250000
v 0.250000 0.000000 0.250000
v 0.250000 0.125000 0.250000
vt 0.03125000 0.96875000
vt 0.09375000 0.96875000
vt 0.15625000 0.96875000
vt 0.21875000 0.96875000
vt 0.28125000 0.96875000
vt 0.34375000 0.96875000
vt 0.40625000 0.96875000
vt 0.46875000 0.96875000
vt 0.53125000 0.96875000
vt 0.59375000 0.96875000
vt 0.65625000 0.96875000
vt 0.71875000 0.96875000
vt 0.78125000 0.96875000
vt 0.84375000 0.96875000
vt 0.90625000 0.96875000
vt 0.96875000 0.96875000
vt 0.03125000 0.90625000
vt 0.09375000 0.90625000
vt 0.15625000 0.90625000
vt 0.21875000 0.90625000
vt 0.28125000 0.90625000
vt 0.34375000 0.90625000
vt 0.40625000 0.90625000
vt 0.46875000 0.90625000
vt 0.53125000 0.90625000
vt 0.59375000 0.90625000
vt 0.65625000 0.90625000
vt 0.71875000 0.90625000
vt 0.78125000 0.90625000
vt 0.84375000 0.90625000
vt 0.90625000 0.90625000
vt 0.96875000 0.90625000
vt 0.03125000 0.84375000
vt 0.09375000 0.84375000
vt 0.15625000 0.84375000
vt 0.21875000 0.84375000
vt 0.28125000 0.84375000
vt 0.34375000 0.84375000
vt 0.40625000 0.84375000
vt 0.46875000 0.84375000
vt 0.53125000 0.84375000
vt 0.59375000 0.84375000
vt 0.65625000 0.84375000
vt 0.71875000 0.84375000
vt 0.78125000 0.84375000
vt 0.84375000 0.84375000
vt 0.90625000 0.84375000
vt 0.96875000 0.84375000
vt 0.03125000 0.78125000
vt 0.09375000 0.78125000
vt 0.15625000 0.78125000
vt 0.21875000 0.78125000
vt 0.28125000 0.78125000
vt 0.34375000 0.78125000
vt 0.40625000 0.78125000
vt 0.46875000 0.78125000
vt 0.53125000 0.78125000
vt 0.59375000 0.78125000
vt 0.65625000 0.78125000
vt 0.71875000 0.78125000
vt 0.78125000 0.78125000
vt 0.84375000 0.78125000
vt 0.90625000 0.78125000
vt 0.96875000 0.78125000
vt 0.03125000 0.71875000
vt 0.09375000 0.71875000
vt 0.15625000 0.71875000
vt 0.21875000 0.71875000
vt 0.28125000 0.71875000
vt 0.34375000 0.71875000
vt 0.40625000 0.71875000
vt 0.46875000 0.71875000
vt 0.53125000 0.71875000
vt 0.59375000 0.71875000
vt 0.65625000 0.71875000
vt 0.71875000 0.71875000
vt 0.78125000 0.71875000
vt 0.84375000 0.71875000
vt 0.90625000 0.71875000
vt 0.96875000 0.71875000
vt 0.03125000 0.65625000
vt 0.09375000 0.65625000
vt 0.15625000 0.65625000
vt 0.21875000 0.65625000
vt 0.28125000 0.65625000
vt 0.34375000 0.65625000
vt 0.40625000 0.65625000
vt 0.46875000 0.65625000
vt 0.53125000 0.65625000
vt 0.59375000 0.65625000
vt 0.65625000 0.65625000
vt 0.71875000 0.65625000
vt 0.78125000 0.65625000
vt 0.84375000 0.65625000
vt 0.90625000 0.65625000
vt 0.96875000 0.65625000
vt 0.03125000 0.59375000
vt 0.09375000 0.59375000
vt 0.15625000 0.59375000
vt 0.21875000 0.59375000
vt 0.28125000 0.59375000
vt 0.34375000 0.59375000
vt 0.40625000 0.59375000
vt 0.46875000 0.59375000
vt 0.53125000 0.59375000
vt 0.59375000 0.59375000
vt 0.65625000 0.59375000
vt 0.71875000 0.59375000
vt 0.78125000 0.59375000
vt 0.84375000 0.59375000
vt 0.90625000 0.59375000
vt 0.96875000 0.59375000
vt 0.03125000 0.53125000
vt 0.09375000 0.53125000
vt 0.15625000 0.53125000
vt 0.21875000 0.53125000
vt 0.28125000 0.53125000
vt 0.34375000 0.53125000
vt 0.40625000 0.53125000
vt 0.46875000 0.53125000
vt 0.53125000 0.53125000
vt 0.59375000 0.53125000
vt 0.65625000 0.53125000
vt 0.71875000 0.53125000
vt 0.78125000 0.53125000
vt 0.84375000 0.53125000
vt 0.90625000 0.53125000
vt 0.96875000 0.53125000
vt 0.03125000 0.46875000
vt 0.09375000 0.46875000
vt 0.15625000 0.46875000
vt 0.21875000 0.46875000
vt 0.28125000 0.46875000
vt 0.34375000 0.46875000
vt 0.40625000 0.46875000
vt 0.46875000 0.46875000
vt 0.53125000 0.46875000
vt 0.59375000 0.46875000
vt 0.65625000 0.46875000
vt 0.71875000 0.46875000
vt 0.78125000 0.46875000
vt 0.84375000 0.46875000
vt 0.90625000 0.46875000
vt 0.96875000 0.46875000
vt 0.03125000 0.40625000
vt 0.09375000 0.40625000
vt 0.15625000 0.40625000
vt 0.21875000 0.40625000
vt 0.28125000 0.40625000
vt 0.34375000 0.40625000
vt 0.40625000 0.40625000
vt 0.46875000 0.40625000
vt 0.53125000 0.40625000
vt 0.59375000 0.40625000
vt 0.65625000 0.40625000
vt 0.71875000 0.40625000
vt 0.78125000 0.40625000
vt 0.84375000 0.40625000
vt 0.90625000 0.40625000
vt 0.96875000 0.40625000
vt 0.03125000 0.34375000
vt 0.09375000 0.34375000
vt 0.15625000 0.34375000
vt 0.21875000 0.34375000
vt 0.28125000 0.34375000
vt 0.34375000 0.34375000
vt 0.40625000 0.34375000
vt 0.46875000 0.34375000
vt 0.53125000 0.34375000
vt 0.59375000 0.34375000
vt 0.65625000 0.34375000
vt 0.71875000 0.34375000
vt 0.78125000 0.34375000
vt 0.84375000 0.34375000
vt 0.90625000 0.34375000
vt 0.96875000 0.34375000
vt 0.03125000 0.28125000
vt 0.09375000 0.28125000
vt 0.15625000 0.28125000
vt 0.21875000 0.28125000
vt 0.28125000 0.28125000
vt 0.34375000 0.28125000
vt 0.40625000 0.28125000
vt 0.46875000 0.28125000
vt 0.53125000 0.28125000
vt 0.59375000 0.28125000
vt 0.65625000 0.28125000
vt 0.71875000 0.28125000
vt 0.78125000 0.28125000
vt 0.84375000 0.28125000
vt 0.90625000 0.28125000
vt 0.96875000 0.28125000
vt 0.03125000 0.21875000
vt 0.09375000 0.21875000
vt 0.15625000 0.21875000
vt 0.21875000 0.21875000
vt 0.28125000 0.21875000
vt 0.34375000 0.21875000
vt 0.40625000 0.21875000
vt 0.46875000 0.21875000
vt 0.53125000 0.21875000
vt 0.59375000 0.21875000
vt 0.65625000 0.21875000
vt 0.71875000 0.21875000
vt 0.78125000 0.21875000
vt 0.84375000 0.21875000
vt 0.90625000 0.21875000
vt 0.96875000 0.21875000
vt 0.03125000 0.15625000
vt 0.09375000 0.15625000
vt 0.15625000 0.15625000
vt 0.21875000 0.15625000
vt 0.28125000 0.15625000
vt 0.34375000 0.15625000
vt 0.40625000 0.15625000
vt 0.46875000 0.15625000
vt 0.53125000 0.15625000
vt 0.59375000 0.15625000
vt 0.65625000 0.15625000
vt 0.71875000 0.15625000
vt 0.78125000 0.15625000
vt 0.84375000 0.15625000
vt 0.90625000 0.15625000
vt 0.96875000 0.15625000
vt 0.03125000 0.09375000
vt 0.09375000 0.09375000
vt 0.15625000 0.09375000
vt 0.21875000 0.09375000
vt 0.28125000 0.09375000
vt 0.34375000 0.09375000
vt 0.40625000 0.09375000
vt 0.46875000 0.09375000
vt 0.53125000 0.09375000
vt 0.59375000 0.09375000
vt 0.65625000 0.09375000
vt 0.71875000 0.09375000
vt 0.78125000 0.09375000
vt 0.84375000 0.09375000
vt 0.90625000 0.09375000
vt 0.96875000 0.09375000
vt 0.03125000 0.03125000
vt 0.09375000 0.03125000
vt 0.15625000 0.03125000
vt 0.21875000 0.03125000
vt 0.28125000 0.03125000
vt 0.34375000 0.03125000
vt 0.40625000 0.03125000
vt 0.46875000 0.03125000
vt 0.53125000 0.03125000
vt 0.59375000 0.03125000
vt 0.65625000 0.03125000
vt 0.71875000 0.03125000
vt 0.78125000 0.03125000
vt 0.84375000 0.03125000
vt 0.90625000 0.03125000
vt 0.96875000 0.03125000
vn -1 0 0
vn 1 0 0
vn 0 0 -1
vn 0 0 1
vn 0 -1 0
vn 0 1 0
g palette
usemtl palette
f 1/53/1 2/53/1 3/53/1 4/53/1
f 3/53/3 5/53/3 6/53/3 4/53/3
f 6/53/5 7/53/5 1/53/5 4/53/5
f 2/53/1 8/53/1 9/53/1 3/53/1
f 9/53/3 10/53/3 5/53/3 3/53/3
f 8/53/6 11/53/6 10/53/6 9/53/6
f 12/53/1 13/53/1 2/53/1 1/53/1
f 7/53/5 14/53/5 12/53/5 1/53/5
f 13/53/1 15/53/1 8/53/1 2/53/1
f 15/53/6 16/53/6 11/53/6 8/53/6
f 17/53/1 18/53/1 13/53/1 12/53/1
f 14/53/5 19/53/5 17/53/5 12/53/5
f 18/53/1 20/53/1 15/53/1 13/53/1
f 20/53/6 21/53/6 16/53/6 15/53/6
f 22/53/1 23/53/1 18/53/1 17/53/1
f 19/53/5 24/53/5 22/53/5 17/53/5
f 23/53/1 25/53/1 20/53/1 18/53/1
f 25/53/6 26/53/6 21/53/6 20/53/6
f 27/53/1 28/53/1 23/53/1 22/53/1
f 24/53/5 29/53/5 27/53/5 22/53/5
f 28/53/1 30/53/1 25/53/1 23/53/1
f 30/53/6 31/53/6 26/53/6 25/53/6
f 32/53/1 33/53/1 28/53/1 27/53/1
f 29/53/5 34/53/5 32/53/5 27/53/5
f 33/53/1 35/53/1 30/53/1 28/53/1
f 35/53/6 36/53/6 31/53/6 30/53/6
f 37/53/1 38/53/1 33/53/1 32/53/1
f 34/53/5 39/53/5 37/53/5 32/53/5
f 38/53/1 40/53/1 35/53/1 33/53/1
f 40/53/6 41/53/6 36/53/6 35/53/6
f 42/53/1 43/53/1 38/53/1 37/53/1
f 44/53/4 45/53/4 43/53/4 42/53/4
f 39/53/5 44/53/5 42/53/5 37/53/5
f 43/53/1 46/53/1 40/53/1 38/53/1
f 45/53/4 47/53/4 46/53/4 43/53/4
f 46/53/6 47/53/6 41/53/6 40/53/6
f 5/53/3 48/53/3 49/53/3 6/53/3
f 49/53/5 50/53/5 7/53/5 6/53/5
f 10/53/3 51/53/3 48/53/3 5/53/3
f 11/53/6 52/53/6 51/53/6 10/53/6
f 50/53/5 53/53/5 14/53/5 7/53/5
f 16/53/6 54/53/6 52/53/6 11/53/6
f 53/53/5 55/53/5 19/53/5 14/53/5
f 21/53/6 56/53/6 54/53/6 16/53/6
f 55/53/5 57/53/5 24/53/5 19/53/5
f 26/53/6 58/53/6 56/53/6 21/53/6
f 57/53/5 59/53/5 29/53/5 24/53/5
f 31/53/6 60/53/6 58/53/6 26/53/6
f 59/53/5 61/53/5 34/53/5 29/53/5
f 36/53/6 62/53/6 60/53/6 31/53/6
f 61/53/5 63/53/5 39/53/5 34/53/5
f 41/53/6 64/53/6 62/53/6 36/53/6
f 65/53/4 66/53/4 45/53/4 44/53/4
f 63/53/5 65/53/5 44/53/5 39/53/5
f 66/53/4 67/53/4 47/53/4 45/53/4
f 47/53/6 67/53/6 64/53/6 41/53/6
f 48/53/3 68/53/3 69/53/3 49/53/3
f 69/53/5 70/53/5 50/53/5 49/53/5
f 51/53/3 71/53/3 68/53/3 48/53/3
f 52/53/6 72/53/6 71/53/6 51/53/6
f 70/53/5 73/53/5 53/53/5 50/53/5
f 54/53/6 74/53/6 72/53/6 52/53/6
f 73/53/5 75/53/5 55/53/5 53/53/5
f 56/53/6 76/53/6 74/53/6 54/53/6
f 77/54/1 78/54/1 79/54/1 80/54/1
f 79/54/3 81/54/3 82/54/3 80/54/3
f 82/54/5 83/54/5 77/54/5 80/54/5
f 78/54/1 84/54/1 85/54/1 79/54/1
f 85/54/3 86/54/3 81/54/3 79/54/3
f 84/54/1 87/54/1 88/54/1 85/54/1
f 88/54/3 89/54/3 86/54/3 85/54/3
f 87/54/6 90/54/6 89/54/6 88/54/6
f 75/53/5 91/53/5 57/53/5 55/53/5
f 58/53/6 92/53/6 76/53/6 56/53/6
f 93/54/1 94/54/1 78/54/1 77/54/1
f 83/54/5 95/54/5 93/54/5 77/54/5
f 94/54/1 96/54/1 84/54/1 78/54/1
f 96/54/1 97/54/1 87/54/1 84/54/1
f 97/54/6 98/54/6 90/54/6 87/54/6
f 91/53/5 99/53/5 59/53/5 57/53/5
f 60/53/6 100/53/6 92/53/6 58/53/6
f 101/54/1 102/54/1 94/54/1 93/54/1
f 95/54/5 103/54/5 101/54/5 93/54/5
f 102/54/1 104/54/1 96/54/1 94/54/1
f 104/55/1 105/55/1 97/55/1 96/55/1
f 99/53/5 119/53/5 61/53/5 59/53/5
f 62/53/6 120/53/6 100/53/6 60/53/6
f 121/54/1 122/54/1 102/54/1 101/54/1
f 123/54/4 124/54/4 122/54/4 121/54/4
f 103/54/5 123/54/5 121/54/5 101/54/5
f 122/54/1 125/54/1 104/54/1 102/54/1
f 124/54/4 126/54/4 125/54/4 122/54/4
f 125/54/1 127/54/1 105/54/1 104/54/1
f 126/54/4 128/54/4 127/54/4 125/54/4
f 127/54/6 128/54/6 109/54/6 105/54/6
f 119/53/5 129/53/5 63/53/5 61/53/5
f 64/53/6 130/53/6 120/53/6 62/53/6
f 131/53/4 132/53/4 66/53/4 65/53/4
f 129/53/5 131/53/5 65/53/5 63/53/5
f 132/53/4 133/53/4 67/53/4 66/53/4
f 67/53/6 133/53/6 130/53/6 64/53/6
f 68/53/3 134/53/3 135/53/3 69/53/3
f 135/53/5 136/53/5 70/53/5 69/53/5
f 71/53/3 137/53/3 134/53/3 68/53/3
f 72/53/6 138/53/6 137/53/6 71/53/6
f 136/53/5 139/53/5 73/53/5 70/53/5
f 74/53/6 140/53/6 138/53/6 72/53/6
f 139/53/5 141/53/5 75/53/5 73/53/5
f 76/53/6 142/53/6 140/53/6 74/53/6
f 81/54/3 143/54/3 144/54/3 82/54/3
f 144/54/5 145/54/5 83/54/5 82/54/5
f 86/54/3 146/54/3 143/54/3 81/54/3
f 89/54/3 147/54/3 146/54/3 86/54/3
f 90/54/6 148/54/6 147/54/6 89/54/6
f 141/53/5 149/53/5 91/53/5 75/53/5
f 92/38/1 150/38/1 151/38/1 76/38/1
f 151/38/3 152/38/3 142/38/3 76/38/3
f 150/37/1 153/37/1 154/37/1 151/37/1
f 154/37/3 155/37/3 152/37/3 151/37/3
f 153/36/1 156/36/1 157/36/1 154/36/1
f 157/36/3 158/36/3 155/36/3 154/36/3
f 156/37/1 159/37/1 160/37/1 157/37/1
f 160/37/3 161/37/3 158/37/3 157/37/3
f 159/37/1 162/37/1 163/37/1 160/37/1
f 163/37/3 164/37/3 161/37/3 160/37/3
f 162/37/1 165/37/1 166/37/1 163/37/1
f 166/37/3 167/37/3 164/37/3 163/37/3
f 165/37/1 168/37/1 169/37/1 166/37/1
f 169/37/3 170/37/3 167/37/3 166/37/3
f 168/38/1 171/38/1 172/38/1 169/38/1
f 172/38/3 173/38/3 170/38/3 169/38/3
f 171/37/1 174/37/1 175/37/1 172/37/1
f 175/37/3 176/37/3 173/37/3 172/37/3
f 174/37/1 177/37/1 178/37/1 175/37/1
f 178/37/3 179/37/3 176/37/3 175/37/3
f 177/37/1 180/37/1 181/37/1 178/37/1
f 181/37/3 182/37/3 179/37/3 178/37/3
f 180/37/1 183/37/1 184/37/1 181/37/1
f 184/37/3 185/37/3 182/37/3 181/37/3
f 183/37/1 186/37/1 187/37/1 184/37/1
f 187/37/3 188/37/3 185/37/3 184/37/3
f 186/37/1 189/37/1 190/37/1 187/37/1
f 190/37/3 191/37/3 188/37/3 187/37/3
f 189/37/1 192/37/1 193/37/1 190/37/1
f 193/37/3 194/37/3 191/37/3 190/37/3
f 192/37/1 195/37/1 196/37/1 193/37/1
f 196/37/3 197/37/3 194/37/3 193/37/3
f 195/37/1 95/37/1 83/37/1 196/37/1
f 83/37/3 145/37/3 197/37/3 196/37/3
f 149/53/5 205/53/5 99/53/5 91/53/5
f 100/37/1 206/37/1 150/37/1 92/37/1
f 207/37/4 208/37/4 206/37/4 100/37/4
f 206/37/1 209/37/1 153/37/1 150/37/1
f 208/37/4 210/37/4 209/37/4 206/37/4
f 209/37/1 211/37/1 156/37/1 153/37/1
f 210/37/4 212/37/4 211/37/4 209/37/4
f 211/38/1 213/38/1 159/38/1 156/38/1
f 212/38/4 214/38/4 213/38/4 211/38/4
f 213/37/1 215/37/1 162/37/1 159/37/1
f 214/37/4 216/37/4 215/37/4 213/37/4
f 215/37/1 217/37/1 165/37/1 162/37/1
f 216/37/4 218/37/4 217/37/4 215/37/4
f 217/37/1 219/37/1 168/37/1 165/37/1
f 218/37/4 220/37/4 219/37/4 217/37/4
f 219/36/1 221/36/1 171/36/1 168/36/1
f 220/36/4 222/36/4 221/36/4 219/36/4
f 221/37/1 223/37/1 174/37/1 171/37/1
f 222/37/4 224/37/4 223/37/4 221/37/4
f 223/37/1 225/37/1 177/37/1 174/37/1
f 224/37/4 226/37/4 225/37/4 223/37/4
f 225/37/1 227/37/1 180/37/1 177/37/1
f 226/37/4 228/37/4 227/37/4 225/37/4
f 227/37/1 229/37/1 183/37/1 180/37/1
f 228/37/4 230/37/4 229/37/4 227/37/4
f 229/36/1 231/36/1 186/36/1 183/36/1
f 230/36/4 232/36/4 231/36/4 229/36/4
f 231/37/1 233/37/1 189/37/1 186/37/1
f 232/37/4 234/37/4 233/37/4 231/37/4
f 233/37/1 235/37/1 192/37/1 189/37/1
f 234/37/4 236/37/4 235/37/4 233/37/4
f 235/37/1 237/37/1 195/37/1 192/37/1
f 236/37/4 238/37/4 237/37/4 235/37/4
f 237/37/1 103/37/1 95/37/1 195/37/1
f 238/37/4 239/37/4 103/37/4 237/37/4
f 205/53/5 249/53/5 119/53/5 99/53/5
f 120/53/6 250/53/6 207/53/6 100/53/6
f 251/54/4 252/54/4 124/54/4 123/54/4
f 239/54/5 251/54/5 123/54/5 103/54/5
f 252/54/4 253/54/4 126/54/4 124/54/4
f 253/54/4 254/54/4 128/54/4 126/54/4
f 249/53/5 261/53/5 129/53/5 119/53/5
f 130/53/6 262/53/6 250/53/6 120/53/6
f 263/53/4 264/53/4 132/53/4 131/53/4
f 261/53/5 263/53/5 131/53/5 129/53/5
f 264/53/4 265/53/4 133/53/4 132/53/4
f 133/53/6 265/53/6 262/53/6 130/53/6
f 134/53/3 266/53/3 267/53/3 135/53/3
f 267/53/5 268/53/5 136/53/5 135/53/5
f 137/53/3 269/53/3 266/53/3 134/53/3
f 138/53/6 270/53/6 269/53/6 137/53/6
f 268/53/5 271/53/5 139/53/5 136/53/5
f 140/53/6 272/53/6 270/53/6 138/53/6
f 271/53/5 273/53/5 141/53/5 139/53/5
f 142/53/6 274/53/6 272/53/6 140/53/6
f 143/54/3 275/54/3 276/54/3 144/54/3
f 276/54/5 277/54/5 145/54/5 144/54/5
f 146/54/3 278/54/3 275/54/3 143/54/3
f 147/54/3 279/54/3 278/54/3 146/54/3
f 273/53/5 290/53/5 149/53/5 141/53/5
f 291/37/2 292/37/2 293/37/2 274/37/2
f 152/37/3 291/37/3 274/37/3 142/37/3
f 294/37/2 295/37/2 292/37/2 291/37/2
f 155/37/3 294/37/3 291/37/3 152/37/3
f 296/37/2 297/37/2 295/37/2 294/37/2
f 158/37/3 296/37/3 294/37/3 155/37/3
f 298/37/2 299/37/2 297/37/2 296/37/2
f 161/37/3 298/37/3 296/37/3 158/37/3
f 300/37/2 301/37/2 299/37/2 298/37/2
f 164/37/3 300/37/3 298/37/3 161/37/3
f 302/37/2 303/37/2 301/37/2 300/37/2
f 167/37/3 302/37/3 300/37/3 164/37/3
f 304/38/2 305/38/2 303/38/2 302/38/2
f 170/38/3 304/38/3 302/38/3 167/38/3
f 306/36/2 307/36/2 305/36/2 304/36/2
f 173/36/3 306/36/3 304/36/3 170/36/3
f 308/37/2 309/37/2 307/37/2 306/37/2
f 176/37/3 308/37/3 306/37/3 173/37/3
f 310/37/2 311/37/2 309/37/2 308/37/2
f 179/37/3 310/37/3 308/37/3 176/37/3
f 312/37/2 313/37/2 311/37/2 310/37/2
f 182/37/3 312/37/3 310/37/3 179/37/3
f 314/37/2 315/37/2 313/37/2 312/37/2
f 185/37/3 314/37/3 312/37/3 182/37/3
f 316/37/2 317/37/2 315/37/2 314/37/2
f 188/37/3 316/37/3 314/37/3 185/37/3
f 318/37/2 319/37/2 317/37/2 316/37/2
f 191/37/3 318/37/3 316/37/3 188/37/3
f 320/37/2 321/37/2 319/37/2 318/37/2
f 194/37/3 320/37/3 318/37/3 191/37/3
f 322/37/2 323/37/2 321/37/2 320/37/2
f 197/37/3 322/37/3 320/37/3 194/37/3
f 277/37/2 324/37/2 323/37/2 322/37/2
f 145/37/3 277/37/3 322/37/3 197/37/3
f 290/53/5 332/53/5 205/53/5 149/53/5
f 292/37/2 333/37/2 334/37/2 293/37/2
f 334/37/4 333/37/4 208/37/4 207/37/4
f 295/38/2 335/38/2 333/38/2 292/38/2
f 333/38/4 335/38/4 210/38/4 208/38/4
f 297/37/2 336/37/2 335/37/2 295/37/2
f 335/37/4 336/37/4 212/37/4 210/37/4
f 299/37/2 337/37/2 336/37/2 297/37/2
f 336/37/4 337/37/4 214/37/4 212/37/4
f 301/37/2 338/37/2 337/37/2 299/37/2
f 337/37/4 338/37/4 216/37/4 214/37/4
f 303/36/2 339/36/2 338/36/2 301/36/2
f 338/36/4 339/36/4 218/36/4 216/36/4
f 305/37/2 340/37/2 339/37/2 303/37/2
f 339/37/4 340/37/4 220/37/4 218/37/4
f 307/37/2 341/37/2 340/37/2 305/37/2
f 340/37/4 341/37/4 222/37/4 220/37/4
f 309/37/2 342/37/2 341/37/2 307/37/2
f 341/37/4 342/37/4 224/37/4 222/37/4
f 311/36/2 343/36/2 342/36/2 309/36/2
f 342/36/4 343/36/4 226/36/4 224/36/4
f 313/37/2 344/37/2 343/37/2 311/37/2
f 343/37/4 344/37/4 228/37/4 226/37/4
f 315/37/2 345/37/2 344/37/2 313/37/2
f 344/37/4 345/37/4 230/37/4 228/37/4
f 317/37/2 346/37/2 345/37/2 315/37/2
f 345/37/4 346/37/4 232/37/4 230/37/4
f 319/36/2 347/36/2 346/36/2 317/36/2
f 346/36/4 347/36/4 234/36/4 232/36/4
f 321/37/2 348/37/2 347/37/2 319/37/2
f 347/37/4 348/37/4 236/37/4 234/37/4
f 323/37/2 349/37/2 348/37/2 321/37/2
f 348/37/4 349/37/4 238/37/4 236/37/4
f 324/37/2 350/37/2 349/37/2 323/37/2
f 349/37/4 350/37/4 239/37/4 238/37/4
f 332/53/5 352/53/5 249/53/5 205/53/5
f 250/53/6 353/53/6 334/53/6 207/53/6
f 354/54/4 355/54/4 252/54/4 251/54/4
f 350/54/5 354/54/5 251/54/5 239/54/5
f 355/55/4 356/55/4 253/55/4 252/55/4
f 356/54/4 357/54/4 254/54/4 253/54/4
f 352/53/5 365/53/5 261/53/5 249/53/5
f 262/53/6 366/53/6 353/53/6 250/53/6
f 377/53/4 378/53/4 264/53/4 263/53/4
f 365/53/5 377/53/5 263/53/5 261/53/5
f 378/53/4 379/53/4 265/53/4 264/53/4
f 265/53/6 379/53/6 366/53/6 262/53/6
f 266/53/3 380/53/3 381/53/3 267/53/3
f 381/53/5 382/53/5 268/53/5 267/53/5
f 269/53/3 383/53/3 380/53/3 266/53/3
f 270/53/6 384/53/6 383/53/6 269/53/6
f 382/53/5 385/53/5 271/53/5 268/53/5
f 272/53/6 386/53/6 384/53/6 270/53/6
f 385/53/5 387/53/5 273/53/5 271/53/5
f 274/53/6 388/53/6 386/53/6 272/53/6
f 389/54/2 390/54/2 391/54/2 392/54/2
f 275/54/3 389/54/3 392/54/3 276/54/3
f 392/54/5 391/54/5 277/54/5 276/54/5
f 393/54/2 394/54/2 390/54/2 389/54/2
f 278/54/3 393/54/3 389/54/3 275/54/3
f 395/54/2 396/54/2 394/54/2 393/54/2
f 279/54/3 395/54/3 393/54/3 278/54/3
f 283/54/6 396/54/6 395/54/6 279/54/6
f 387/53/5 397/53/5 290/53/5 273/53/5
f 293/53/6 398/53/6 388/53/6 274/53/6
f 390/54/2 399/54/2 400/54/2 391/54/2
f 391/54/5 400/54/5 324/54/5 277/54/5
f 394/54/2 401/54/2 399/54/2 390/54/2
f 396/54/2 402/54/2 401/54/2 394/54/2
f 397/53/5 409/53/5 332/53/5 290/53/5
f 334/53/6 410/53/6 398/53/6 293/53/6
f 399/54/2 411/54/2 412/54/2 400/54/2
f 400/54/5 412/54/5 350/54/5 324/54/5
f 401/54/2 413/54/2 411/54/2 399/54/2
f 402/54/2 414/54/2 413/54/2 401/54/2
f 409/53/5 424/53/5 352/53/5 332/53/5
f 353/53/6 425/53/6 410/53/6 334/53/6
f 411/54/2 426/54/2 427/54/2 412/54/2
f 427/54/4 426/54/4 355/54/4 354/54/4
f 412/54/5 427/54/5 354/54/5 350/54/5
f 413/54/2 428/54/2 426/54/2 411/54/2
f 426/54/4 428/54/4 356/54/4 355/54/4
f 414/54/2 429/54/2 428/54/2 413/54/2
f 428/54/4 429/54/4 357/54/4 356/54/4
f 424/53/5 435/53/5 365/53/5 352/53/5
f 366/53/6 436/53/6 425/53/6 353/53/6
f 437/53/4 438/53/4 378/53/4 377/53/4
f 435/53/5 437/53/5 377/53/5 365/53/5
f 438/53/4 439/53/4 379/53/4 378/53/4
f 379/53/6 439/53/6 436/53/6 366/53/6
f 380/53/3 440/53/3 441/53/3 381/53/3
f 441/53/5 442/53/5 382/53/5 381/53/5
f 383/53/3 443/53/3 440/53/3 380/53/3
f 384/53/6 444/53/6 443/53/6 383/53/6
f 442/53/5 445/53/5 385/53/5 382/53/5
f 386/53/6 446/53/6 444/53/6 384/53/6
f 445/53/5 447/53/5 387/53/5 385/53/5
f 388/53/6 448/53/6 446/53/6 386/53/6
f 447/53/5 449/53/5 397/53/5 387/53/5
f 398/53/6 450/53/6 448/53/6 388/53/6
f 449/53/5 451/53/5 409/53/5 397/53/5
f 410/53/6 452/53/6 450/53/6 398/53/6
f 451/53/5 461/53/5 424/53/5 409/53/5
f 425/53/6 462/53/6 452/53/6 410/53/6
f 461/53/5 463/53/5 435/53/5 424/53/5
f 436/53/6 464/53/6 462/53/6 425/53/6
f 465/53/4 466/53/4 438/53/4 437/53/4
f 463/53/5 465/53/5 437/53/5 435/53/5
f 466/53/4 467/53/4 439/53/4 438/53/4
f 439/53/6 467/53/6 464/53/6 436/53/6
f 468/53/2 469/53/2 470/53/2 471/53/2
f 440/53/3 468/53/3 471/53/3 441/53/3
f 471/53/5 470/53/5 442/53/5 441/53/5
f 472/53/2 473/53/2 469/53/2 468/53/2
f 443/53/3 472/53/3 468/53/3 440/53/3
f 444/53/6 473/53/6 472/53/6 443/53/6
f 469/53/2 474/53/2 475/53/2 470/53/2
f 470/53/5 475/53/5 445/53/5 442/53/5
f 473/53/2 476/53/2 474/53/2 469/53/2
f 446/53/6 476/53/6 473/53/6 444/53/6
f 474/53/2 477/53/2 478/53/2 475/53/2
f 475/53/5 478/53/5 447/53/5 445/53/5
f 476/53/2 479/53/2 477/53/2 474/53/2
f 448/53/6 479/53/6 476/53/6 446/53/6
f 477/53/2 480/53/2 481/53/2 478/53/2
f 478/53/5 481/53/5 449/53/5 447/53/5
f 479/53/2 482/53/2 480/53/2 477/53/2
f 450/53/6 482/53/6 479/53/6 448/53/6
f 480/53/2 483/53/2 484/53/2 481/53/2
f 481/53/5 484/53/5 451/53/5 449/53/5
f 482/53/2 485/53/2 483/53/2 480/53/2
f 452/53/6 485/53/6 482/53/6 450/53/6
f 483/53/2 486/53/2 487/53/2 484/53/2
f 484/53/5 487/53/5 461/53/5 451/53/5
f 485/53/2 488/53/2 486/53/2 483/53/2
f 462/53/6 488/53/6 485/53/6 452/53/6
f 486/53/2 489/53/2 490/53/2 487/53/2
f 487/53/5 490/53/5 463/53/5 461/53/5
f 488/53/2 491/53/2 489/53/2 486/53/2
f 464/53/6 491/53/6 488/53/6 462/53/6
f 489/53/2 492/53/2 493/53/2 490/53/2
f 493/53/4 492/53/4 466/53/4 465/53/4
f 490/53/5 493/53/5 465/53/5 463/53/5
f 491/53/2 494/53/2 492/53/2 489/53/2
f 492/53/4 494/53/4 467/53/4 466/53/4
f 467/53/6 494/53/6 491/53/6 464/53/6
g emissive
usemtl emissive
f 105/22/1 106/22/1 107/22/1 97/22/1
f 107/22/3 108/22/3 98/22/3 97/22/3
f 109/22/4 110/22/4 106/22/4 105/22/4
f 106/22/1 111/22/1 112/22/1 107/22/1
f 112/22/3 113/22/3 108/22/3 107/22/3
f 110/22/4 114/22/4 111/22/4 106/22/4
f 111/23/1 115/23/1 116/23/1 112/23/1
f 116/23/3 117/23/3 113/23/3 112/23/3
f 114/23/4 118/23/4 115/23/4 111/23/4
f 115/23/6 118/23/6 117/23/6 116/23/6
f 98/22/1 108/22/1 198/22/1 90/22/1
f 198/22/3 199/22/3 148/22/3 90/22/3
f 108/22/1 113/22/1 200/22/1 198/22/1
f 200/22/3 201/22/3 199/22/3 198/22/3
f 113/23/1 117/23/1 202/23/1 200/23/1
f 202/23/3 203/23/3 201/23/3 200/23/3
f 117/23/6 204/23/6 203/23/6 202/23/6
f 118/23/1 240/23/1 241/23/1 117/23/1
f 241/23/3 242/23/3 204/23/3 117/23/3
f 243/23/4 244/23/4 240/23/4 118/23/4
f 240/24/1 245/24/1 246/24/1 241/24/1
f 246/24/3 247/24/3 242/24/3 241/24/3
f 244/24/4 248/24/4 245/24/4 240/24/4
f 245/24/6 248/24/6 247/24/6 246/24/6
f 128/22/1 255/22/1 110/22/1 109/22/1
f 254/22/4 256/22/4 255/22/4 128/22/4
f 255/22/1 257/22/1 114/22/1 110/22/1
f 256/22/4 258/22/4 257/22/4 255/22/4
f 257/23/1 259/23/1 118/23/1 114/23/1
f 258/23/4 260/23/4 259/23/4 257/23/4
f 259/23/6 260/23/6 243/23/6 118/23/6
f 148/22/1 199/22/1 280/22/1 147/22/1
f 281/22/2 282/22/2 283/22/2 279/22/2
f 280/22/3 281/22/3 279/22/3 147/22/3
f 199/22/1 201/22/1 284/22/1 280/22/1
f 285/22/2 286/22/2 282/22/2 281/22/2
f 284/22/3 285/22/3 281/22/3 280/22/3
f 201/23/1 203/23/1 287/23/1 284/23/1
f 288/23/2 289/23/2 286/23/2 285/23/2
f 287/23/3 288/23/3 285/23/3 284/23/3
f 203/23/6 289/23/6 288/23/6 287/23/6
f 204/23/1 242/23/1 325/23/1 203/23/1
f 326/23/2 327/23/2 328/23/2 289/23/2
f 325/23/3 326/23/3 289/23/3 203/23/3
f 242/24/1 247/24/1 329/24/1 325/24/1
f 330/24/2 331/24/2 327/24/2 326/24/2
f 329/24/3 330/24/3 326/24/3 325/24/3
f 247/24/6 331/24/6 330/24/6 329/24/6
f 248/24/6 351/24/6 331/24/6 247/24/6
f 260/23/1 358/23/1 244/23/1 243/23/1
f 359/23/2 360/23/2 361/23/2 362/23/2
f 361/23/4 360/23/4 358/23/4 260/23/4
f 358/24/1 363/24/1 248/24/1 244/24/1
f 351/24/2 364/24/2 360/24/2 359/24/2
f 360/24/4 364/24/4 363/24/4 358/24/4
f 363/24/6 364/24/6 351/24/6 248/24/6
f 367/22/1 368/22/1 256/22/1 254/22/1
f 369/22/2 370/22/2 371/22/2 357/22/2
f 371/22/4 370/22/4 368/22/4 367/22/4
f 357/22/5 371/22/5 367/22/5 254/22/5
f 368/22/1 372/22/1 258/22/1 256/22/1
f 373/22/2 374/22/2 370/22/2 369/22/2
f 370/22/4 374/22/4 372/22/4 368/22/4
f 372/23/1 375/23/1 260/23/1 258/23/1
f 361/23/2 376/23/2 374/23/2 373/23/2
f 374/23/4 376/23/4 375/23/4 372/23/4
f 375/23/6 376/23/6 361/23/6 260/23/6
f 403/22/2 404/22/2 402/22/2 396/22/2
f 282/22/3 403/22/3 396/22/3 283/22/3
f 405/22/2 406/22/2 404/22/2 403/22/2
f 286/22/3 405/22/3 403/22/3 282/22/3
f 407/23/2 408/23/2 406/23/2 405/23/2
f 289/23/3 407/23/3 405/23/3 286/23/3
f 328/23/6 408/23/6 407/23/6 289/23/6
f 415/23/2 416/23/2 417/23/2 408/23/2
f 327/23/3 415/23/3 408/23/3 328/23/3
f 417/23/4 416/23/4 359/23/4 362/23/4
f 418/24/2 419/24/2 416/24/2 415/24/2
f 331/24/3 418/24/3 415/24/3 327/24/3
f 416/24/4 419/24/4 351/24/4 359/24/4
f 351/24/1 420/24/1 421/24/1 331/24/1
f 422/24/2 423/24/2 419/24/2 418/24/2
f 421/24/3 422/24/3 418/24/3 331/24/3
f 419/24/4 423/24/4 420/24/4 351/24/4
f 420/24/6 423/24/6 422/24/6 421/24/6
f 430/22/2 431/22/2 429/22/2 414/22/2
f 429/22/4 431/22/4 369/22/4 357/22/4
f 432/22/2 433/22/2 431/22/2 430/22/2
f 431/22/4 433/22/4 373/22/4 369/22/4
f 417/23/2 434/23/2 433/23/2 432/23/2
f 433/23/4 434/23/4 361/23/4 373/23/4
f 361/23/6 434/23/6 417/23/6 362/23/6
f 453/22/2 454/22/2 455/22/2 456/22/2
f 404/22/3 453/22/3 456/22/3 402/22/3
f 455/22/4 454/22/4 430/22/4 414/22/4
f 456/22/5 455/22/5 414/22/5 402/22/5
f 457/22/2 458/22/2 454/22/2 453/22/2
f 406/22/3 457/22/3 453/22/3 404/22/3
f 454/22/4 458/22/4 432/22/4 430/22/4
f 459/23/2 460/23/2 458/23/2 457/23/2
f 408/23/3 459/23/3 457/23/3 406/23/3
f 458/23/4 460/23/4 417/23/4 432/23/4
f 417/23/6 460/23/6 459/23/6 408/23/6
